<svg width="377" height="342" viewBox="0 0 377 342" fill="none" xmlns="http://www.w3.org/2000/svg">
<g opacity="0.16" clip-path="url(#clip0_98_1789)">
<path fill-rule="evenodd" clip-rule="evenodd" d="M222.061 36.4586C222.061 18.2198 236.958 3.37988 255.265 3.37988C273.572 3.37988 288.469 18.2198 288.469 36.4586C288.469 54.6975 273.572 69.5343 255.265 69.5343C236.958 69.5343 222.061 54.6975 222.061 36.4586ZM249.092 51.7019C246.416 52.2366 242.404 55.0883 239.687 58.1868C244.092 61.3326 249.446 63.2306 255.265 63.2306C261.084 63.2306 266.439 61.3326 270.843 58.1868C268.126 55.0883 264.114 52.2366 261.445 51.7019C258.901 51.1892 256.953 49.3756 256.366 46.9741C256.187 46.2613 256.137 45.3107 256.087 43.3065C256.062 42.309 256.514 41.3583 257.298 40.7454C258.967 39.4446 260.425 37.353 261.206 35.1454C261.476 34.373 262.022 33.7632 262.706 33.4006C262.711 33.3752 262.717 33.3483 262.721 33.3207C262.725 33.3013 262.728 33.2814 262.732 33.2614C262.739 33.2163 262.747 33.1709 262.756 33.1285C262.214 32.5562 261.884 31.7841 261.884 30.946C261.897 27.247 261.903 24.1108 260.57 22.7756C259.691 21.9001 257.922 21.453 255.309 21.4498C252.608 21.453 250.839 21.9001 249.964 22.7756C248.628 24.1108 248.634 27.247 248.646 30.8741C248.646 31.7151 248.317 32.5126 247.768 33.1034L247.797 33.2547L247.825 33.4036C248.505 33.7665 249.048 34.37 249.321 35.1391C250.105 37.3497 251.564 39.4446 253.232 40.7454C254.017 41.3583 254.469 42.309 254.443 43.3065C254.393 45.3107 254.343 46.2613 254.164 46.9774C253.578 49.3757 251.63 51.1892 249.092 51.7019ZM262.527 45.5577C267.11 46.4145 272.245 50.204 275.523 53.8531C279.589 49.1599 282.139 43.1283 282.139 36.4586C282.139 21.6969 270.081 9.68358 255.265 9.68358C240.45 9.68358 228.391 21.6969 228.391 36.4586C228.391 43.1283 230.942 49.1599 235.007 53.8531C238.285 50.204 243.398 46.4081 247.837 45.5201C247.953 45.3137 248.016 44.9853 248.053 44.5946C246.341 42.9467 244.888 40.8456 243.881 38.566C242.711 37.728 241.836 36.2429 241.494 34.3543C241.18 32.4718 241.507 30.7772 242.316 29.5827C242.329 25.2208 242.595 21.2153 245.481 18.3261C247.614 16.1905 250.798 15.1493 255.209 15.143C259.735 15.1493 262.916 16.1905 265.049 18.3261C267.948 21.2278 268.202 25.2521 268.214 29.5796C269.024 30.7709 269.35 32.453 269.042 34.3198C268.697 36.2211 267.819 37.7092 266.649 38.5566C265.642 40.8487 264.177 42.9624 262.455 44.6197C262.471 45.0041 262.49 45.3358 262.527 45.5577ZM145.816 106.459C119.469 106.459 98.0349 85.1059 98.0349 58.856C98.0349 32.6095 119.469 11.2563 145.816 11.2563C172.166 11.2563 193.6 32.6095 193.6 58.856C193.6 65.3691 192.302 71.6852 189.739 77.6233C182.191 95.1428 164.951 106.459 145.816 106.459ZM136.324 79.9965C131.719 80.922 124.535 86.0813 120.37 91.3875C127.403 96.8595 136.224 100.155 145.816 100.155C155.258 100.155 164.104 96.894 171.237 91.3593C167.069 86.0626 159.907 80.922 155.305 79.9965C152.115 79.3618 149.674 77.1073 148.943 74.1086C148.696 73.1456 148.642 71.5727 148.58 69.0839C148.548 68.0834 149 67.0452 149.791 66.426C152.485 64.3217 154.847 60.951 156.096 57.4114C156.441 56.4263 157.237 55.7042 158.197 55.4291C158.307 55.1975 158.445 54.8349 158.53 54.3501C158.605 53.9061 158.599 53.5435 158.568 53.2935C157.72 52.7212 157.184 51.7548 157.184 50.6795V50.6586C157.197 45.6712 157.207 41.4797 155.776 38.816C154.834 37.0621 152.861 35.0452 145.885 35.0328C138.771 35.0452 136.801 37.0621 135.859 38.816C134.428 41.4803 134.439 45.6727 134.451 50.5306V50.5481C134.451 51.6204 133.911 52.6525 133.065 53.262C133.036 53.5184 133.03 53.9061 133.109 54.4064C133.196 54.8567 133.325 55.2039 133.438 55.4291C134.394 55.7042 135.191 56.4263 135.539 57.4114C136.788 60.951 139.147 64.3217 141.842 66.426C142.635 67.0452 143.084 67.9956 143.062 68.9962C142.993 71.5727 142.936 73.1456 142.688 74.1307C141.961 77.1073 139.52 79.3618 136.324 79.9965ZM183.926 75.1343C186.147 69.9843 187.27 64.5063 187.27 58.856C187.27 36.0864 168.674 17.56 145.816 17.56C122.961 17.56 104.362 36.0864 104.362 58.856C104.362 69.803 108.691 79.7401 115.692 87.1382C120.893 80.6814 129.031 75.0341 135.082 73.8147C135.37 73.7554 136.33 73.5021 136.547 72.6201C136.631 72.1668 136.669 71.3069 136.694 70.3378C133.955 67.8582 131.644 64.5499 130.132 60.954C128.554 59.9943 127.343 58.0367 126.872 55.476C126.439 52.8274 126.935 50.5512 128.121 49.119C128.127 44.1191 128.3 39.5291 130.273 35.8458C132.839 31.071 137.892 28.7384 145.738 28.729C153.74 28.7384 158.797 31.071 161.363 35.8458C163.345 39.5542 163.511 44.1788 163.511 49.116C164.7 50.5448 165.199 52.8087 164.766 55.4227C164.299 58.018 163.078 59.9849 161.504 60.951C159.989 64.5499 157.677 67.8552 154.941 70.3378C154.963 71.3257 155.001 72.1731 155.095 72.6295C155.305 73.5021 156.262 73.7554 156.547 73.8147C162.595 75.0311 170.723 80.6687 175.924 87.1131C179.196 83.6549 181.972 79.6714 183.926 75.1343ZM280.031 70.6508C281.445 69.6314 281.768 67.6584 280.743 66.2484L280.373 65.7354C279.344 64.3189 277.367 64.0126 275.953 65.0287C274.538 66.048 274.215 68.0213 275.241 69.4314L275.611 69.9411C276.229 70.7945 277.201 71.2479 278.177 71.2479C278.82 71.2479 279.469 71.0542 280.031 70.6508ZM285.959 81.9822C284.98 81.9822 284.011 81.5321 283.393 80.6783L283.023 80.1656C281.997 78.7553 282.317 76.7823 283.732 75.7629C285.144 74.7436 287.12 75.0532 288.152 76.4726L288.522 76.9823C289.551 78.3927 289.228 80.3657 287.813 81.385C287.251 81.7885 286.602 81.9822 285.959 81.9822ZM239.116 81.757C239.405 81.8632 239.709 81.9101 240.01 81.9101C241.403 81.9101 242.78 80.8878 243.257 79.534C243.837 77.8954 242.971 76.0943 241.321 75.5126C239.671 74.9467 237.868 75.8004 237.284 77.442L237.074 78.0362C236.494 79.6778 237.463 81.1786 239.116 81.757ZM232.626 90.5161L232.836 89.922C233.416 88.2804 235.22 87.4236 236.87 87.9926C238.52 88.5713 239.386 90.3724 238.806 92.0137C238.329 93.3678 236.952 94.3871 235.562 94.3871C235.258 94.3871 234.957 94.3432 234.665 94.237C233.015 93.6586 232.042 92.1577 232.626 90.5161ZM40.2245 149.719C38.5118 150.057 37.4014 151.717 37.7402 153.424L37.8626 154.043C38.1605 155.544 39.4843 156.582 40.9587 156.582C41.1688 156.582 41.3759 156.564 41.586 156.52C43.2957 156.182 44.4091 154.522 44.0703 152.811L43.9449 152.195C43.6061 150.482 41.906 149.363 40.2245 149.719ZM40.3533 166.409C40.0144 164.699 41.1281 163.042 42.8376 162.701C44.5127 162.341 46.2191 163.461 46.561 165.177L46.6833 165.796C47.0222 167.504 45.9118 169.164 44.199 169.501C43.9889 169.545 43.7849 169.564 43.5748 169.564C42.0973 169.564 40.7735 168.526 40.4787 167.028L40.3533 166.409ZM43.0853 180.011L42.963 179.392C42.6241 177.685 43.7345 176.024 45.4473 175.687C47.1412 175.342 48.8291 176.45 49.1676 178.16L49.2933 178.779C49.6319 180.489 48.5185 182.146 46.8057 182.488C46.5956 182.528 46.3915 182.547 46.1814 182.547C44.707 182.547 43.3832 181.512 43.0853 180.011ZM223.723 115.468L223.933 114.873C224.517 113.235 226.32 112.381 227.971 112.947C229.62 113.526 230.486 115.327 229.906 116.968C229.429 118.319 228.052 119.342 226.659 119.342C226.358 119.342 226.054 119.295 225.765 119.191C224.115 118.613 223.143 117.109 223.723 115.468ZM228.385 102.397L228.175 102.991C227.594 104.63 228.563 106.134 230.213 106.712C230.505 106.819 230.806 106.863 231.111 106.863C232.5 106.863 233.88 105.84 234.354 104.489C234.938 102.848 234.072 101.046 232.422 100.468C230.772 99.9021 228.965 100.756 228.385 102.397ZM315.726 205.467L315.787 204.839C315.96 203.103 317.542 201.887 319.248 202.009C320.985 202.181 322.26 203.722 322.09 205.454L322.03 206.083C321.869 207.712 320.49 208.928 318.884 208.928C318.778 208.928 318.675 208.922 318.568 208.913C316.832 208.744 315.559 207.202 315.726 205.467ZM320.15 195.434C321.796 195.434 323.229 193.905 323.378 192.247C323.53 190.515 322.248 188.983 320.502 188.83C318.854 188.642 317.229 189.952 317.071 191.694L317.017 192.319C316.862 194.051 318.18 195.271 319.916 195.421C319.944 195.424 319.974 195.427 320.001 195.429C320.053 195.432 320.105 195.434 320.15 195.434ZM293.732 92.7228C292.757 92.7228 291.788 92.2694 291.17 91.4159L290.8 90.9063C289.771 89.4959 290.094 87.5229 291.509 86.5035C292.923 85.4812 294.902 85.7938 295.928 87.2102L296.298 87.7229C297.324 89.1333 297.004 91.1063 295.59 92.1257C295.025 92.5291 294.375 92.7228 293.732 92.7228ZM169.904 260.359C170.255 260.512 170.625 260.584 170.995 260.584C172.319 260.584 173.649 259.693 174.198 258.448C174.897 256.853 174.173 254.996 172.573 254.296C170.986 253.617 169.107 254.324 168.401 255.919L168.147 256.494C167.447 258.089 168.3 259.658 169.904 260.359ZM162.839 268.642L163.09 268.06C163.796 266.462 165.669 265.749 167.256 266.431C168.859 267.125 169.587 268.985 168.89 270.58L168.637 271.159C168.116 272.344 166.955 273.054 165.738 273.054C165.311 273.054 164.885 272.969 164.471 272.791C162.868 272.09 162.14 270.236 162.839 268.642ZM112.731 282.125C113.628 282.125 114.522 281.746 115.146 281.008C116.278 279.682 116.112 277.694 114.776 276.565L114.296 276.158C112.96 275.039 111.209 275.396 110.074 276.734C108.941 278.063 109.349 280.255 110.685 281.38C111.278 281.881 112.009 282.125 112.731 282.125ZM100.519 272.854C99.1829 271.725 98.7748 269.533 99.9074 268.208C101.043 266.869 102.793 266.513 104.127 267.632L104.61 268.039C105.946 269.164 106.112 271.153 104.98 272.479C104.356 273.22 103.461 273.598 102.564 273.598C101.84 273.598 101.112 273.351 100.519 272.854ZM70.0655 92.9791L69.4977 93.2606C67.9322 94.033 67.2891 95.9246 68.0609 97.4851C68.6129 98.5982 69.7361 99.2393 70.8999 99.2393C71.3766 99.2393 71.8502 99.136 72.302 98.9139L72.8698 98.6324C74.435 97.8601 75.0781 95.9715 74.3033 94.4083C73.5317 92.8417 71.6149 92.2131 70.0655 92.9791ZM81.3778 87.357L81.9456 87.0756C83.5078 86.3062 85.4054 86.9254 86.1897 88.4856C86.971 90.0428 86.3403 91.9377 84.7751 92.7164L84.2073 92.9979C83.7495 93.2228 83.2661 93.3323 82.7924 93.3323C81.635 93.3323 80.5182 92.6943 79.9599 91.5875C79.182 90.0304 79.8126 88.1388 81.3778 87.357ZM92.1436 85.5372C92.6737 86.6034 93.8688 87.1694 95.0736 87.1694C95.6226 87.1694 96.1746 87.0504 96.667 86.8065C98.2323 86.0281 98.8629 84.1362 98.0816 82.576C97.2913 81.0155 95.4121 80.3935 93.8375 81.1656L93.2728 81.4471C91.7106 82.2258 91.3593 83.98 92.1436 85.5372ZM111.934 117.851C112.737 116.3 114.666 115.712 116.197 116.494C117.75 117.294 118.361 119.195 117.558 120.743L117.266 121.303C116.705 122.388 115.598 123.01 114.456 123.01C113.96 123.01 113.468 122.897 113.004 122.66C111.451 121.859 110.839 119.958 111.642 118.411L111.934 117.851ZM81.2706 184.395C81.7349 184.632 82.2274 184.745 82.7229 184.745C83.8679 184.745 84.9722 184.126 85.5366 183.041L85.8254 182.481C86.6285 180.93 86.0167 179.032 84.4672 178.232C82.933 177.444 81.0101 178.035 80.2009 179.586L79.9122 180.146C79.1061 181.696 79.7179 183.594 81.2706 184.395ZM92.8768 154.916C93.6642 153.352 95.5652 152.736 97.1307 153.524C98.6865 154.309 99.3171 156.207 98.5265 157.761C97.9399 158.921 96.6412 159.721 95.3739 159.721C94.9473 159.721 94.5271 159.631 94.1317 159.434C92.5756 158.646 91.8041 157.029 92.5945 155.475L92.8768 154.916ZM86.5504 167.245L86.2586 167.808C85.4558 169.356 86.0737 171.257 87.6265 172.054C88.0877 172.289 88.5832 172.402 89.0727 172.402C90.2143 172.402 91.328 171.776 91.8831 170.688L92.1749 170.125C92.978 168.577 92.3601 166.676 90.8073 165.879C89.264 165.091 87.3411 165.694 86.5504 167.245ZM110.921 133.647C110.362 134.735 109.252 135.357 108.107 135.357C107.621 135.357 107.125 135.248 106.661 135.01C105.111 134.213 104.493 132.315 105.296 130.764L105.585 130.201C106.378 128.65 108.292 128.04 109.845 128.838C111.394 129.635 112.015 131.533 111.209 133.084L110.921 133.647ZM100.481 147.086C100.876 147.283 101.297 147.377 101.723 147.377C102.991 147.377 104.289 146.577 104.876 145.413C105.666 143.859 105.036 141.964 103.477 141.177C101.921 140.392 100.011 141.008 99.2263 142.571L98.9409 143.131C98.1503 144.685 98.9221 146.301 100.481 147.086ZM118.28 105.502C119.086 103.951 121.012 103.36 122.546 104.148C124.099 104.949 124.71 106.846 123.904 108.398L123.616 108.957C123.054 110.042 121.947 110.661 120.802 110.661C120.309 110.661 119.814 110.549 119.349 110.311C117.8 109.511 117.188 107.613 117.991 106.062L118.28 105.502ZM112.025 212.265C110.356 212.768 109.405 214.528 109.913 216.195C110.321 217.558 111.582 218.44 112.941 218.44C113.245 218.44 113.546 218.396 113.856 218.305L114.462 218.124C116.131 217.624 116.78 215.954 116.272 214.284C115.77 212.618 113.725 211.774 112.025 212.265ZM125.673 214.647C124.312 214.647 123.054 213.766 122.643 212.403C122.138 210.736 123.088 208.975 124.757 208.472C126.457 207.99 128.503 208.825 129.004 210.492C129.513 212.162 128.863 213.831 127.195 214.332L126.589 214.513C126.278 214.604 125.978 214.647 125.673 214.647ZM270.322 156.176C268.719 156.861 267.979 158.718 268.672 160.316C269.184 161.51 270.354 162.223 271.577 162.223C271.997 162.223 272.424 162.139 272.832 161.964L273.412 161.714C275.012 161.029 275.464 159.297 274.77 157.696C274.087 156.095 271.922 155.476 270.322 156.176ZM259.55 110.583C259.133 110.583 258.716 110.502 258.305 110.33L257.718 110.08C256.112 109.398 255.365 107.547 256.049 105.943C256.736 104.342 258.578 103.601 260.203 104.28L260.792 104.53C262.398 105.215 263.145 107.063 262.461 108.667C261.947 109.864 260.78 110.583 259.55 110.583ZM273.016 109.755L272.436 109.505C270.814 108.82 269.258 109.677 268.565 111.275C267.875 112.876 268.907 114.858 270.507 115.543C270.915 115.718 271.341 115.803 271.761 115.803C272.985 115.803 274.152 115.09 274.666 113.895C275.359 112.297 274.616 110.443 273.016 109.755ZM250.234 103.46C249.722 104.655 248.552 105.368 247.329 105.368C246.908 105.368 246.482 105.283 246.074 105.108C244.474 104.423 243.442 102.441 244.132 100.84C244.819 99.2423 246.391 98.3855 248.003 99.0704L248.584 99.3204C250.183 100.005 250.927 101.863 250.234 103.46ZM212.92 84.0865C211.307 83.4019 209.739 84.2588 209.052 85.8565C208.359 87.4575 209.391 89.4366 210.994 90.1245C211.401 90.2997 211.828 90.3809 212.245 90.3809C213.472 90.3809 214.639 89.6681 215.153 88.4768C215.843 86.8788 215.103 85.0214 213.5 84.3368L212.92 84.0865ZM200.028 85.1652C199.607 85.1652 199.181 85.0838 198.773 84.9085C197.173 84.2206 196.141 82.2416 196.831 80.6405C197.524 79.0458 199.09 78.1796 200.702 78.8709L201.282 79.1209C202.882 79.8058 203.626 81.6629 202.932 83.2609C202.421 84.4552 201.251 85.1652 200.028 85.1652ZM135.185 189.12C135.185 225.175 164.63 254.511 200.818 254.511C237.008 254.511 266.451 225.175 266.451 189.12C266.451 153.061 237.008 123.728 200.818 123.728C164.63 123.728 135.185 153.061 135.185 189.12ZM163.409 234.735L163.462 234.697C163.543 234.642 163.623 234.587 163.686 234.505C169.681 226.529 180.268 218.89 187.276 217.48C191.263 216.689 194.306 213.89 195.212 210.191C195.516 208.975 195.588 206.899 195.695 203.284C195.72 202.281 195.268 201.324 194.478 200.708C190.516 197.621 187.059 192.69 185.237 187.512C184.835 186.374 183.835 185.586 182.677 185.43C182.407 185.064 181.993 184.248 181.777 183.088C181.579 181.865 181.701 180.943 181.837 180.511C182.912 179.955 183.637 178.748 183.637 177.506C183.618 170.518 183.605 164.486 185.758 160.465C187.122 157.914 190.159 154.518 200.918 154.499C211.467 154.518 214.51 157.911 215.875 160.459C218.025 164.459 218.014 170.457 218.002 177.591L218.001 177.672C218.001 178.913 218.723 180.011 219.805 180.524C219.937 180.965 220.059 181.869 219.862 183.038C219.645 184.242 219.225 185.061 218.959 185.43C217.804 185.586 216.803 186.374 216.402 187.512C214.576 192.69 211.122 197.621 207.16 200.708C206.37 201.324 205.918 202.274 205.943 203.275C206.034 206.749 206.116 208.944 206.423 210.179C207.333 213.89 210.373 216.689 214.347 217.48C221.358 218.89 231.951 226.529 237.952 234.505C238.016 234.588 238.096 234.65 238.175 234.711C238.212 234.74 238.248 234.768 238.284 234.799C238.299 234.812 238.314 234.826 238.329 234.84C228.102 243.186 215.04 248.204 200.818 248.204C186.589 248.204 173.524 243.179 163.294 234.827C163.33 234.793 163.369 234.763 163.409 234.735ZM260.124 189.12C260.124 205.292 253.555 219.96 242.952 230.641C236.02 221.482 224.028 212.996 215.589 211.298C214.027 210.989 212.895 210.01 212.569 208.672C212.446 208.128 212.365 206.289 212.314 204.638C216.308 201.158 219.664 196.38 221.778 191.168C223.842 190.104 225.48 187.547 226.098 184.11C226.678 180.618 225.976 177.65 224.332 175.968C224.335 169.033 224.162 162.532 221.462 157.489C218.111 151.25 211.401 148.211 200.702 148.192C190.231 148.211 183.511 151.254 180.167 157.498C177.486 162.51 177.3 168.958 177.3 175.971C175.669 177.657 174.964 180.633 175.541 184.16C176.165 187.562 177.796 190.104 179.86 191.168C181.974 196.38 185.331 201.158 189.324 204.635C189.268 206.286 189.193 208.137 189.07 208.681C188.741 210.01 187.612 210.989 186.034 211.298C177.598 212.996 165.612 221.482 158.686 230.641C148.08 219.96 141.515 205.292 141.515 189.12C141.515 156.541 168.116 130.035 200.818 130.035C233.52 130.035 260.124 156.541 260.124 189.12ZM325.631 86.0099C299.291 86.0099 277.856 107.366 277.856 133.613C277.856 159.863 299.291 181.219 325.631 181.219C351.98 181.219 373.416 159.863 373.416 133.613C373.416 107.366 351.98 86.0099 325.631 86.0099ZM300.188 166.144C304.346 160.841 311.533 155.682 316.151 154.756C319.349 154.115 321.784 151.858 322.509 148.865C322.752 147.887 322.813 146.279 322.883 143.753C322.904 142.752 322.458 141.799 321.662 141.18C318.969 139.078 316.61 135.711 315.362 132.165C315.013 131.183 314.217 130.461 313.258 130.183C313.145 129.958 313.012 129.613 312.93 129.151C312.851 128.66 312.857 128.275 312.89 128.022C313.725 127.412 314.266 126.39 314.266 125.317V125.3C314.254 120.442 314.242 116.243 315.675 113.576C316.616 111.819 318.586 109.802 325.707 109.789C332.687 109.802 334.655 111.819 335.596 113.576C337.029 116.243 337.017 120.44 337.005 125.416V125.436C337.005 126.508 337.542 127.475 338.389 128.047C338.413 128.297 338.42 128.663 338.344 129.116C338.262 129.598 338.122 129.954 338.013 130.183C337.056 130.464 336.255 131.183 335.912 132.165C334.664 135.711 332.301 139.078 329.605 141.18C328.816 141.799 328.363 142.752 328.388 143.753C328.457 146.279 328.521 147.887 328.758 148.865C329.49 151.858 331.925 154.115 335.119 154.756C339.737 155.682 346.921 160.841 351.081 166.144C344.049 171.616 335.228 174.912 325.631 174.912C316.039 174.912 307.222 171.619 300.188 166.144ZM355.76 161.892C350.559 155.435 342.424 149.788 336.37 148.574C336.079 148.515 335.119 148.259 334.91 147.402C334.822 146.946 334.785 146.076 334.758 145.094C337.49 142.612 339.804 139.31 341.319 135.714C342.901 134.745 344.119 132.775 344.58 130.186C345.02 127.569 344.529 125.305 343.332 123.873C343.332 118.935 343.165 114.311 341.183 110.608C338.617 105.828 333.561 103.495 325.552 103.482C317.706 103.495 312.654 105.828 310.088 110.608C308.114 114.289 307.941 118.882 307.935 123.876C306.751 125.308 306.256 127.584 306.693 130.223C307.158 132.79 308.369 134.751 309.954 135.717C311.466 139.31 313.777 142.612 316.516 145.094C316.485 146.073 316.452 146.936 316.367 147.377C316.151 148.259 315.192 148.515 314.903 148.574C308.849 149.788 300.708 155.435 295.508 161.895C288.509 154.497 284.183 144.557 284.183 133.613C284.183 110.843 302.777 92.3166 325.631 92.3166C348.491 92.3166 367.085 110.843 367.085 133.613C367.085 144.557 362.758 154.494 355.76 161.892ZM56.7845 279.66C30.4407 279.66 9.00628 258.304 9.00628 232.057C9.00628 205.811 30.4407 184.454 56.7845 184.454C83.131 184.454 104.566 205.811 104.566 232.057C104.566 258.304 83.131 279.66 56.7845 279.66ZM47.2951 253.201C42.6839 254.126 35.5037 259.283 31.3379 264.586C38.3709 270.058 47.1886 273.353 56.7845 273.353C66.377 273.353 75.1947 270.061 82.2277 264.589C78.0649 259.283 70.8817 254.126 66.2704 253.201C63.0738 252.56 60.6396 250.302 59.9118 247.31C59.6641 246.347 59.6076 244.771 59.5448 242.282C59.5135 241.285 59.9653 240.243 60.7556 239.624C63.4534 237.523 65.8123 234.152 67.0608 230.61C67.409 229.628 68.2058 228.905 69.1561 228.63C69.2755 228.399 69.4103 228.039 69.498 227.548C69.5703 227.101 69.5639 226.742 69.5326 226.494C68.6858 225.919 68.1493 224.953 68.1493 223.88V223.86C68.1618 218.869 68.1724 214.678 66.7408 212.017C65.7998 210.26 63.8299 208.243 56.8504 208.231C49.7357 208.243 47.7658 210.26 46.8248 212.017C45.3929 214.678 45.4035 218.871 45.4163 223.729V223.746C45.4163 224.822 44.8798 225.854 44.033 226.463C44.0014 226.717 43.9953 227.104 44.0767 227.605C44.1614 228.058 44.2932 228.405 44.4031 228.63C45.3598 228.905 46.1596 229.628 46.5048 230.61C47.7533 234.152 50.1153 237.523 52.81 239.624C53.6003 240.243 54.0521 241.194 54.0269 242.194C53.958 244.771 53.9015 246.347 53.6568 247.332C52.9259 250.302 50.4917 252.56 47.2951 253.201ZM98.2383 232.057C98.2383 209.285 79.6398 190.758 56.7845 190.758C33.9258 190.758 15.3334 209.285 15.3334 232.057C15.3334 243.001 19.6592 252.938 26.6576 260.336C31.8586 253.876 39.9989 248.232 46.0466 247.016C46.3384 246.96 47.2951 246.703 47.5116 245.818C47.5994 245.368 47.634 244.508 47.6592 243.539C44.9205 241.056 42.612 237.748 41.0969 234.152C39.5189 233.189 38.308 231.235 37.8374 228.677C37.4078 226.032 37.9003 223.755 39.0859 222.32C39.0923 217.32 39.2678 212.727 41.2377 209.044C43.8037 204.269 48.8607 201.939 56.7028 201.927C64.7083 201.939 69.7616 204.269 72.3275 209.044C74.3102 212.752 74.4797 217.38 74.4797 222.317C75.6653 223.746 76.1609 226.01 75.7343 228.621C75.2636 231.213 74.0467 233.183 72.4687 234.149C70.963 237.748 68.6448 241.053 65.9064 243.539C65.9316 244.527 65.9659 245.371 66.06 245.828C66.2704 246.703 67.2272 246.96 67.5187 247.016C73.57 248.232 81.7069 253.879 86.9078 260.336C93.9095 252.938 98.2383 243.001 98.2383 232.057ZM148.456 341.999C166.763 341.999 181.651 327.16 181.651 308.922C181.651 290.682 166.763 275.845 148.456 275.845C130.146 275.845 115.252 290.682 115.252 308.922C115.252 327.16 130.146 341.999 148.456 341.999ZM132.875 330.652C135.592 327.55 139.598 324.699 142.261 324.163C144.821 323.658 146.775 321.842 147.343 319.475C147.534 318.725 147.572 317.726 147.635 315.783C147.663 314.781 147.214 313.822 146.414 313.204C144.745 311.906 143.287 309.814 142.509 307.608C142.236 306.836 141.693 306.228 141.013 305.865C140.994 305.768 140.978 305.662 140.959 305.565C141.508 304.975 141.834 304.176 141.834 303.336C141.822 299.709 141.816 296.573 143.152 295.238C144.03 294.362 145.796 293.915 148.497 293.912C151.107 293.915 152.873 294.362 153.751 295.238C155.088 296.573 155.082 299.709 155.069 303.408C155.069 304.246 155.395 305.017 155.941 305.592C155.928 305.68 155.91 305.777 155.891 305.865C155.21 306.228 154.667 306.836 154.395 307.608C153.617 309.814 152.158 311.906 150.489 313.204C149.692 313.822 149.253 315.023 149.278 316.028C149.332 317.726 149.369 318.725 149.548 319.424C150.132 321.842 152.083 323.658 154.636 324.163C157.302 324.699 161.315 327.55 164.034 330.649C159.63 333.794 154.275 335.694 148.456 335.694C142.637 335.694 137.283 333.794 132.875 330.652ZM148.456 282.149C163.272 282.149 175.324 294.159 175.324 308.922C175.324 315.589 172.773 321.621 168.711 326.315C165.436 322.671 160.301 318.876 155.712 318.001C155.681 317.786 155.655 317.472 155.643 317.081C157.368 315.426 158.833 313.313 159.84 311.025C161.007 310.181 161.885 308.686 162.227 306.782C162.535 304.914 162.209 303.233 161.399 302.042C161.387 297.714 161.133 293.687 158.234 290.788C156.101 288.653 152.917 287.611 148.394 287.605C143.986 287.611 140.802 288.653 138.672 290.788C135.783 293.674 135.52 297.683 135.507 302.045C134.698 303.239 134.369 304.93 134.685 306.815C135.024 308.704 135.896 310.187 137.069 311.028C138.07 313.307 139.522 315.407 141.242 317.06C141.204 317.444 141.144 317.765 141.019 317.983C136.577 318.873 131.467 322.668 128.195 326.315C124.13 321.621 121.583 315.589 121.583 308.922C121.583 294.159 133.641 282.149 148.456 282.149ZM280.997 250.422C280.997 268.664 295.891 283.503 314.196 283.503C332.505 283.503 347.395 268.664 347.395 250.422C347.395 232.183 332.505 217.346 314.196 217.346C295.891 217.346 280.997 232.183 280.997 250.422ZM298.62 272.153C301.33 269.054 305.342 266.203 308.005 265.665C310.565 265.159 312.517 263.342 313.088 260.978C313.279 260.227 313.312 259.227 313.376 257.285C313.407 256.281 312.954 255.321 312.159 254.705C310.489 253.405 309.031 251.316 308.254 249.109C307.981 248.342 307.437 247.733 306.757 247.37L306.699 247.066C307.252 246.476 307.58 245.678 307.58 244.837C307.565 241.21 307.559 238.077 308.895 236.739C309.772 235.863 311.539 235.416 314.242 235.413C316.85 235.416 318.617 235.863 319.494 236.739C320.83 238.077 320.821 241.21 320.812 244.912C320.812 245.753 321.14 246.526 321.684 247.098C321.677 247.126 321.674 247.155 321.668 247.186C321.659 247.246 321.647 247.31 321.641 247.37C320.955 247.73 320.408 248.339 320.138 249.109C319.358 251.316 317.9 253.405 316.23 254.705C315.435 255.321 314.995 256.525 315.019 257.529C315.077 259.227 315.113 260.227 315.298 260.937C315.884 263.348 317.84 265.162 320.381 265.665C323.047 266.203 327.058 269.051 329.775 272.153C325.376 275.299 320.017 277.197 314.196 277.197C308.378 277.197 303.022 275.299 298.62 272.153ZM341.064 250.422C341.064 257.091 338.517 263.126 334.451 267.816C331.184 264.173 326.05 260.381 321.453 259.502C321.425 259.286 321.401 258.977 321.386 258.586C323.111 256.925 324.574 254.812 325.585 252.52C326.751 251.673 327.629 250.184 327.975 248.267C328.278 246.413 327.944 244.737 327.14 243.552C327.128 239.218 326.872 235.188 323.976 232.292C321.844 230.154 318.662 229.112 314.138 229.109C309.73 229.112 306.548 230.154 304.413 232.292C301.527 235.175 301.261 239.184 301.248 243.549C300.439 244.743 300.113 246.432 300.426 248.32C300.768 250.206 301.64 251.688 302.807 252.532C303.815 254.809 305.266 256.91 306.985 258.564C306.948 258.945 306.885 259.271 306.763 259.483C302.321 260.381 297.208 264.173 293.939 267.816C289.874 263.123 287.324 257.091 287.324 250.422C287.324 235.663 299.382 223.653 314.196 223.653C329.013 223.653 341.064 235.663 341.064 250.422ZM66.3986 114.826C66.3986 133.065 51.511 147.902 33.204 147.902C14.8971 147.902 0 133.065 0 114.826C0 96.5871 14.8971 81.744 33.204 81.744C51.511 81.744 66.3986 96.5871 66.3986 114.826ZM27.0087 130.066C24.3454 130.604 20.3396 133.456 17.6262 136.554C22.0304 139.697 27.3851 141.595 33.204 141.595C39.0197 141.595 44.3745 139.697 48.7787 136.554C46.0621 133.456 42.0533 130.604 39.3838 130.066C36.8366 129.556 34.8916 127.743 34.3019 125.335C34.1167 124.585 34.076 123.537 34.0259 121.752C33.9944 120.745 34.4462 119.719 35.2368 119.1C36.9056 117.809 38.3642 115.717 39.1421 113.509C39.4151 112.74 39.9576 112.131 40.6448 111.771C40.6572 111.677 40.676 111.583 40.6949 111.49C40.1492 110.917 39.8228 110.148 39.8228 109.313C39.8353 101.618 39.6003 99.8234 33.2481 99.811C28.4881 99.8204 27.7066 101.262 27.4097 101.81L27.407 101.815C26.5757 103.37 26.5787 106.167 26.5819 109.138L26.582 109.238C26.582 110.076 26.2558 110.874 25.7068 111.465C25.7257 111.565 25.7445 111.671 25.7602 111.771C26.4409 112.134 26.9867 112.74 27.2565 113.509C28.0376 115.714 29.4961 117.806 31.1652 119.103C31.9619 119.723 32.4134 120.683 32.3821 121.686C32.3196 123.619 32.2819 124.607 32.1031 125.338C31.5165 127.746 29.562 129.556 27.0087 130.066ZM60.0716 114.826C60.0716 100.061 48.0196 88.051 33.204 88.051C18.3885 88.051 6.33024 100.061 6.33024 114.826C6.33024 121.492 8.87742 127.524 12.9428 132.217C16.2177 128.571 21.3309 124.775 25.7664 123.884C25.8919 123.681 25.9547 123.35 25.9892 122.962C24.2733 121.308 22.8209 119.207 21.8108 116.93C20.6439 116.083 19.7718 114.607 19.4331 112.722C19.1162 110.839 19.4519 109.148 20.2549 107.953C20.2675 104.582 20.4212 101.465 21.8234 98.851C23.74 95.2645 27.4415 93.5167 33.1412 93.5073C45.3343 93.5291 46.1092 101.465 46.1532 107.912C46.9624 109.091 47.2888 110.773 46.9812 112.668C46.6329 114.579 45.7548 116.067 44.5941 116.918C43.5808 119.213 42.1222 121.323 40.3906 122.984C40.4094 123.371 40.4283 123.697 40.4659 123.919C45.0519 124.782 50.1839 128.571 53.4588 132.214C57.5244 127.524 60.0716 121.492 60.0716 114.826Z" fill="url(#paint0_linear_98_1789)"/>
</g>
<defs>
<linearGradient id="paint0_linear_98_1789" x1="186.708" y1="3.37988" x2="186.708" y2="341.999" gradientUnits="userSpaceOnUse">
<stop offset="0.259615" stop-color="#110C24"/>
<stop offset="1" stop-color="#6633CC"/>
</linearGradient>
<clipPath id="clip0_98_1789">
<rect width="376.5" height="342" fill="white"/>
</clipPath>
</defs>
</svg>
