<svg width="82" height="80" viewBox="0 0 82 80" fill="none" xmlns="http://www.w3.org/2000/svg">
<path d="M66.9591 29.3608C63.4392 29.3608 60.3825 28.3502 57.7889 26.329C55.1953 24.3078 53.4662 21.7517 52.6017 18.6605H29.3519C28.6727 21.1572 27.3913 23.3121 25.5079 25.1252C23.6244 26.9383 21.3859 28.1718 18.7923 28.8257V51.2072C22.0034 52.0394 24.6588 53.7039 26.7583 56.2006C28.8579 58.6974 29.9077 61.6399 29.9077 65.0284C29.9077 68.9518 28.4565 72.3105 25.5542 75.1045C22.6518 77.8984 19.1628 79.2954 15.0872 79.2954C11.0115 79.2954 7.5225 77.8984 4.62014 75.1045C1.71778 72.3105 0.266602 68.9518 0.266602 65.0284C0.266602 61.6399 1.31639 58.6974 3.41597 56.2006C5.51555 53.7039 8.17089 52.0394 11.382 51.2072V28.8257C8.17089 27.9935 5.51555 26.329 3.41597 23.8323C1.31639 21.3355 0.266602 18.4227 0.266602 15.0937C0.266602 11.1703 1.71778 7.81157 4.62014 5.0176C7.5225 2.22364 11.0115 0.82666 15.0872 0.82666C18.5453 0.82666 21.5711 1.83724 24.1647 3.85841C26.7583 5.87957 28.4874 8.43575 29.3519 11.5269H52.6017C53.4662 8.43575 55.1953 5.87957 57.7889 3.85841C60.3825 1.83724 63.4392 0.82666 66.9591 0.82666C71.0347 0.82666 74.5237 2.22364 77.4261 5.0176C80.3284 7.81157 81.7796 11.1703 81.7796 15.0937C81.7796 19.0171 80.3284 22.3758 77.4261 25.1698C74.5237 27.9638 71.0347 29.3608 66.9591 29.3608ZM15.0872 72.1619C17.125 72.1619 18.8695 71.4485 20.3207 70.0218C21.7718 68.5951 22.4974 66.9306 22.4974 65.0284C22.4974 63.0666 21.7718 61.3873 20.3207 59.9903C18.8695 58.5933 17.125 57.8948 15.0872 57.8948C13.1111 57.8948 11.382 58.5933 9.89996 59.9903C8.4179 61.3873 7.67688 63.0666 7.67688 65.0284C7.67688 66.9306 8.4179 68.5951 9.89996 70.0218C11.382 71.4485 13.1111 72.1619 15.0872 72.1619ZM15.0872 22.2272C17.125 22.2272 18.8695 21.5287 20.3207 20.1318C21.7718 18.7348 22.4974 17.0554 22.4974 15.0937C22.4974 13.132 21.7718 11.4526 20.3207 10.0557C18.8695 8.65867 17.125 7.96018 15.0872 7.96018C13.1111 7.96018 11.382 8.65867 9.89996 10.0557C8.4179 11.4526 7.67688 13.132 7.67688 15.0937C7.67688 17.0554 8.4179 18.7348 9.89996 20.1318C11.382 21.5287 13.1111 22.2272 15.0872 22.2272ZM66.9591 79.2954C62.8834 79.2954 59.3944 77.8984 56.4921 75.1045C53.5897 72.3105 52.1385 68.9518 52.1385 65.0284C52.1385 61.1049 53.5897 57.7462 56.4921 54.9523C59.3944 52.1583 62.8834 50.7613 66.9591 50.7613C71.0347 50.7613 74.5237 52.1583 77.4261 54.9523C80.3284 57.7462 81.7796 61.1049 81.7796 65.0284C81.7796 68.9518 80.3284 72.3105 77.4261 75.1045C74.5237 77.8984 71.0347 79.2954 66.9591 79.2954ZM66.9591 72.1619C68.9969 72.1619 70.7414 71.4485 72.1926 70.0218C73.6438 68.5951 74.3693 66.9306 74.3693 65.0284C74.3693 63.0666 73.6438 61.3873 72.1926 59.9903C70.7414 58.5933 68.9969 57.8948 66.9591 57.8948C64.9212 57.8948 63.1767 58.5933 61.7256 59.9903C60.2744 61.3873 59.5488 63.0666 59.5488 65.0284C59.5488 66.9306 60.2744 68.5951 61.7256 70.0218C63.1767 71.4485 64.9212 72.1619 66.9591 72.1619ZM66.9591 22.2272C68.9969 22.2272 70.7414 21.5287 72.1926 20.1318C73.6438 18.7348 74.3693 17.0554 74.3693 15.0937C74.3693 13.132 73.6438 11.4526 72.1926 10.0557C70.7414 8.65867 68.9969 7.96018 66.9591 7.96018C64.9212 7.96018 63.1767 8.65867 61.7256 10.0557C60.2744 11.4526 59.5488 13.132 59.5488 15.0937C59.5488 17.0554 60.2744 18.7348 61.7256 20.1318C63.1767 21.5287 64.9212 22.2272 66.9591 22.2272Z" fill="url(#paint0_linear_16_2905)" fill-opacity="0.13"/>
<defs>
<linearGradient id="paint0_linear_16_2905" x1="81.7796" y1="0.82666" x2="0.266602" y2="0.82666" gradientUnits="userSpaceOnUse">
<stop stop-color="#6633CC"/>
<stop offset="1" stop-color="#F5C144"/>
</linearGradient>
</defs>
</svg>
