<svg width="108" height="115" viewBox="0 0 108 115" fill="none" xmlns="http://www.w3.org/2000/svg">
<path fill-rule="evenodd" clip-rule="evenodd" d="M60.3948 13.2047C92.9412 44.1176 76.8141 74.5578 64.6822 85.9138C56.5867 76.6772 53.144 77.6241 47.1965 68.8146C42.2246 55.5578 49.1467 37.2271 60.3948 13.2047ZM63.7949 34.8627C69.8095 51.5559 74.4805 70.0953 64.6822 85.9138L63.7949 34.8627Z" fill="url(#paint0_linear_352_2118)"/>
<path d="M64.6822 85.9138L63.7949 34.8627C69.8095 51.5559 74.4805 70.0953 64.6822 85.9138Z" fill="url(#paint1_linear_352_2118)"/>
<path fill-rule="evenodd" clip-rule="evenodd" d="M15.9619 53.2175C23.8881 97.3995 49.5483 89.3962 65.7041 85.5065C55.9311 76.4284 55.2096 68.3694 50.9369 62.5073C42.5974 51.0654 42.2118 57.0303 15.9619 53.2175ZM31.6476 65.5412C42.2842 79.7433 47.1039 84.9934 65.7041 85.5065L31.6476 65.5412Z" fill="url(#paint2_linear_352_2118)"/>
<path d="M65.7041 85.5065L31.6476 65.5412C42.2842 79.7433 47.1039 84.9934 65.7041 85.5065Z" fill="url(#paint3_linear_352_2118)"/>
<path d="M63.8277 82.5946C55.7631 88.0858 50.9471 94.3705 51.5586 95.2685C52.17 96.1665 57.9774 91.3377 66.042 85.8465C74.1065 80.3553 79.5484 78.4902 78.937 77.5922C78.3255 76.6942 71.8923 77.1034 63.8277 82.5946Z" fill="url(#paint4_linear_352_2118)"/>
<path d="M78.1978 77.8293L78.4448 78.4511L77.7517 77.3306L78.1978 77.8293ZM86.3343 72.7681C85.2613 74.4213 83.0513 74.8916 81.3981 73.8185C79.7449 72.7455 79.2747 70.5355 80.3477 68.8823C81.4208 67.2292 83.6308 66.7589 85.2839 67.8319C86.9371 68.905 87.4073 71.115 86.3343 72.7681ZM88.9083 73.5381C87.8352 75.1913 85.6252 75.6615 83.972 74.5885C82.3189 73.5155 81.8486 71.3054 82.9217 69.6523C83.9947 67.9991 86.2047 67.5289 87.8579 68.6019C89.511 69.6749 89.9813 71.885 88.9083 73.5381ZM82.8697 75.2636L83.3011 75.7751L83.3011 75.7751L82.8697 75.2636ZM78.1978 77.8293C77.9508 77.2074 77.9508 77.2074 77.9508 77.2075C77.9508 77.2075 77.9507 77.2075 77.9507 77.2075C77.9508 77.2075 77.9508 77.2074 77.9509 77.2074C77.9511 77.2073 77.9515 77.2071 77.9521 77.2069C77.9533 77.2065 77.9551 77.2057 77.9578 77.2047C77.963 77.2026 77.971 77.1993 77.9818 77.195C78.0033 77.1862 78.0357 77.173 78.0779 77.1556C78.1622 77.1208 78.2853 77.0692 78.4384 77.003C78.745 76.8704 79.1701 76.6798 79.6433 76.4486C80.6039 75.979 81.7092 75.3671 82.4383 74.7522L82.8697 75.2636L83.3011 75.7751C82.4391 76.5022 81.2085 77.173 80.2309 77.6508C79.735 77.8932 79.2905 78.0925 78.9697 78.2312C78.8091 78.3007 78.6792 78.3552 78.5888 78.3925C78.5436 78.4112 78.5082 78.4256 78.4839 78.4354C78.4717 78.4404 78.4622 78.4442 78.4557 78.4468C78.4524 78.4481 78.4499 78.4491 78.448 78.4498C78.4471 78.4502 78.4464 78.4505 78.4459 78.4507C78.4456 78.4508 78.4454 78.4509 78.4452 78.451C78.4451 78.451 78.445 78.451 78.445 78.4511C78.4449 78.4511 78.4448 78.4511 78.1978 77.8293ZM82.8697 75.2636L82.4383 74.7522C83.0906 74.202 83.8153 73.3344 84.3935 72.5742C84.6783 72.1997 84.92 71.8615 85.0903 71.617C85.1754 71.495 85.2424 71.3966 85.2879 71.3293C85.3106 71.2956 85.3279 71.2697 85.3394 71.2525C85.3451 71.2438 85.3494 71.2374 85.3521 71.2332C85.3535 71.2312 85.3545 71.2296 85.3551 71.2287C85.3554 71.2283 85.3556 71.2279 85.3558 71.2278C85.3558 71.2277 85.3558 71.2276 85.3558 71.2276C85.3558 71.2276 85.3558 71.2277 85.3558 71.2277C85.3558 71.2277 85.3558 71.2277 85.915 71.5952C86.4741 71.9627 86.4741 71.9627 86.474 71.9628C86.474 71.9628 86.474 71.9629 86.4739 71.963C86.4738 71.9631 86.4737 71.9633 86.4736 71.9635C86.4733 71.964 86.4729 71.9645 86.4724 71.9653C86.4715 71.9667 86.4701 71.9688 86.4684 71.9714C86.4649 71.9767 86.4599 71.9842 86.4534 71.994C86.4404 72.0135 86.4215 72.0418 86.3971 72.0779C86.3483 72.1502 86.2775 72.2541 86.1883 72.3821C86.01 72.638 85.7572 72.9918 85.4586 73.3843C84.87 74.1582 84.0721 75.1249 83.3011 75.7751L82.8697 75.2636ZM78.1978 77.8293L77.7517 77.3306C78.3877 76.7617 79.4034 75.469 80.4045 74.0663C81.3932 72.6809 82.3161 71.2616 82.7617 70.4905L83.341 70.8252L83.9204 71.16C83.446 71.981 82.4969 73.438 81.4937 74.8437C80.5029 76.2321 79.407 77.6454 78.6439 78.328L78.1978 77.8293Z" fill="#D46588"/>
<defs>
<linearGradient id="paint0_linear_352_2118" x1="60.8406" y1="28.3546" x2="91.4198" y2="71.5071" gradientUnits="userSpaceOnUse">
<stop offset="0.294" stop-color="#A47092"/>
<stop offset="1" stop-color="#F5C144"/>
</linearGradient>
<linearGradient id="paint1_linear_352_2118" x1="60.8406" y1="28.3546" x2="91.4198" y2="71.5071" gradientUnits="userSpaceOnUse">
<stop stop-color="#CC499E"/>
<stop offset="1" stop-color="#F5C144"/>
</linearGradient>
<linearGradient id="paint2_linear_352_2118" x1="21.7951" y1="53.4334" x2="41.0265" y2="102.702" gradientUnits="userSpaceOnUse">
<stop offset="0.244" stop-color="#A47092"/>
<stop offset="1" stop-color="#F5C144"/>
</linearGradient>
<linearGradient id="paint3_linear_352_2118" x1="26.6305" y1="58.9616" x2="43.5869" y2="101.027" gradientUnits="userSpaceOnUse">
<stop stop-color="#CC499E"/>
<stop offset="1" stop-color="#F5C144"/>
</linearGradient>
<linearGradient id="paint4_linear_352_2118" x1="79.5373" y1="74.2778" x2="50.3329" y2="94.1633" gradientUnits="userSpaceOnUse">
<stop stop-color="#D35F8D"/>
<stop offset="1" stop-color="#E6B252"/>
</linearGradient>
</defs>
</svg>
