<svg width="269" height="369" viewBox="0 0 269 369" fill="none" xmlns="http://www.w3.org/2000/svg">
<path opacity="0.12" fill-rule="evenodd" clip-rule="evenodd" d="M42.5609 53.2894C34.6686 47.3316 26.3568 41.9528 17.6932 37.1938C11.7023 33.8501 10.2449 32.1307 4.44896 29.5143C14.0727 33.6846 31.2188 34.9595 41.8134 30.1433C53.1366 24.9957 63.1332 12.6227 63.1332 12.6227C63.1332 12.6227 50.0347 1.23226 38.1184 0.508131C22.2268 -0.458473 -1.83824 11.4151 -10.4124 22.57C-39.0839 10.2389 -55.7439 8.11668 -56.0208 8.07437L-57.0472 14.4124C-56.7805 14.4537 -39.8386 15.4946 -12.1747 27.2854C-23.1126 44.6036 -19.0369 63.7591 -13.9137 75.0482C-8.02071 88.0268 4.48575 94.0844 4.48575 94.0844C4.48575 94.0844 13.8574 78.858 14.9162 69.771C15.9802 60.643 11.655 44.2054 2.68669 34.2298C6.45905 36.0908 9.67675 38.8497 13.5761 41.0226C22.1308 45.7902 29.8527 51.7153 39.1816 58.7401C34.4365 68.9215 30.8028 77.0387 30.0796 90.2783C29.0339 109.416 47.1602 123.614 47.1602 123.614C47.1602 123.614 61.9914 113.613 62.4437 97.0943C62.6386 90.0346 57.0693 76.6542 53.1617 68.0421C64.5152 77.9326 74.7789 89.0144 83.7771 101.097C77.226 107.831 63.3324 121.392 62.6141 136.161C62.0666 147.384 65.7195 159.504 73.37 168.457C82.8947 164.142 91.3338 156.829 94.835 146.956C98.8572 135.608 95.394 121.233 93.6401 114.228C103.425 125.703 107.881 145.369 113.378 162.013C103.285 167.163 91.1126 171.587 83.9688 183.211C74.0089 199.418 79.4293 220.503 79.4293 220.503C79.4293 220.503 101.369 210.471 109.574 200.928C115.016 194.599 117.144 182.509 117.797 171.747C123.789 190.462 130.822 208.828 138.863 226.757C133.11 231.511 115.081 249.563 112.847 264.028C109.585 285.135 121.248 295.438 121.248 295.438C121.248 295.438 138.236 288.522 144.187 277.181C150.597 264.963 146.452 247.745 144.754 239.736C152.3 255.563 162.018 273.835 170.081 286.939C165.281 294.044 153.483 313.195 155.835 328.643C158.761 347.851 171.59 354.754 171.59 354.754C171.59 354.754 181.942 347.541 185.992 330.592C188.55 319.886 182.004 305.819 180.681 301.69C186.301 312.641 199.854 327.196 205.851 331.35C208.769 337.385 221.622 360.177 237.203 366.027C250.376 370.969 268.24 365.617 268.24 365.617C268.24 365.617 265.652 349.739 255.722 338.036C245.815 326.36 219.33 326.772 209.969 327.521C200.322 320.946 196.55 317.832 182.444 296.976C188.527 301.564 202.513 307.168 215.399 304.184C235.157 299.609 244.072 286.574 244.072 286.574C244.072 286.574 236.381 272.827 216.93 269.638C199.88 266.842 181.417 277.596 174.198 283.11C165.244 268.413 158.95 256.065 149.607 237.53C157.625 246.12 167.702 252.995 179.185 255.399C190.467 257.763 209.63 249.387 209.63 249.387C209.63 249.387 198.92 225.883 181.224 221.2C163.914 216.621 150.288 222.489 143.716 224.551C135.611 206.648 128.577 188.279 122.648 169.542C127.727 179.05 135.805 191.077 143.993 195.068C158.866 202.318 179.739 196.433 179.739 196.433C179.739 196.433 169.659 174.239 158.541 166.925C146.572 159.054 132.473 158.496 118.231 159.807C112.041 141.01 108.927 125.591 98.4932 112.021C104.676 117.961 111.96 121.543 121.889 124.872C135.035 129.281 154.689 119.747 154.689 119.747C154.689 119.747 141.204 101.844 130.11 95.6913C115.466 87.5691 96.4845 95.3493 88.6302 98.8906C88.1635 97.899 66.3952 73.2839 54.4911 63.3494C63.7521 68.706 75.3377 71.4391 83.3182 69.9905C99.1134 67.1242 112.437 56.7534 112.437 56.7534C112.437 56.7534 98.1792 42.1275 81.9781 41.2422C67.4492 40.4486 47.414 51.0832 42.5609 53.2894Z" fill="url(#paint0_linear_1412_598)"/>
<defs>
<linearGradient id="paint0_linear_1412_598" x1="-50.1673" y1="-119.025" x2="528.803" y2="458.719" gradientUnits="userSpaceOnUse">
<stop stop-color="#F5C144"/>
<stop offset="0.454156" stop-color="#6633CC"/>
<stop offset="0.782426" stop-color="#9D4BAD"/>
<stop offset="1" stop-color="#F5C144"/>
</linearGradient>
</defs>
</svg>
