<svg width="74" height="81" viewBox="0 0 74 81" fill="none" xmlns="http://www.w3.org/2000/svg">
<path d="M26.1448 26.1687C26.1448 26.1687 23.9124 19.9795 14.4962 21.1649C14.4962 21.1649 12.5934 21.5946 9.13672 20.8623C9.13672 20.8623 10.3653 24.8722 10.6923 28.3542C11.0193 31.836 13.0185 35.4391 15.3191 35.4391C15.3191 35.4391 27.5387 28.738 26.1448 26.1687Z" fill="url(#paint0_linear_98_2101)"/>
<path d="M28.7353 27.7909C28.7353 27.7909 25.5637 24.0123 28.9715 17.813C28.9715 17.813 31.7867 14.2339 28.0423 15.5125C28.0423 15.5125 26.6931 16.2528 25.9325 18.5146C25.9325 18.5146 22.1621 13.2397 28.7529 4.0444C28.7529 4.0444 34.0142 -1.67426 28.4132 0.48859C28.4132 0.48859 26.6316 1.10118 24.6124 4.44754C24.6124 4.44754 24.3553 1.40224 22.3101 3.18891C20.2651 4.97558 22.9249 4.71804 22.5674 8.95835C22.2098 13.1987 21.9536 22.7869 25.2273 28.3576C28.5011 33.9281 30.0804 29.6059 28.7353 27.7909Z" fill="url(#paint1_linear_98_2101)"/>
<path d="M46.5395 78.9285C46.5395 78.9285 40.4127 80.9927 32.9153 80.2661C32.9153 80.2661 35.0047 64.7571 27.8048 67.2566C20.6032 69.7558 13.9883 73.3083 7.42678 70.0481C7.42678 70.0481 1.62491 70.0532 1.58216 66.0575C1.53941 62.0619 12.0823 59.1874 13.1027 42.5594C14.1233 25.9314 36.8105 19.7443 48.1238 31.0419C59.437 42.3393 51.7159 52.7124 48.9203 59.1741C46.1227 65.6358 46.5395 78.9285 46.5395 78.9285Z" fill="url(#paint2_linear_98_2101)"/>
<path d="M47.1445 35.3407C47.1445 35.3407 54.2507 22.3807 73.7907 25.4647C73.7907 25.4647 70.8525 31.8709 69.199 36.6133C68.791 37.7817 68.3341 39.22 67.9535 39.9349C65.599 44.3645 55.1253 46.1811 50.1939 45.7219L47.1445 35.3407Z" fill="url(#paint3_linear_98_2101)"/>
<path opacity="0.736979" d="M21.3338 44.9897C23.6794 37.7391 31.4589 33.7625 38.7095 36.1082C45.9601 38.4536 49.9349 46.2329 47.5902 53.4837C45.2436 60.7343 37.4659 64.7108 30.2153 62.3652C22.9643 60.0198 18.9882 52.2405 21.3338 44.9897Z" fill="url(#paint4_linear_98_2101)"/>
<path opacity="0.589888" d="M48.8399 36.3594C48.8399 36.3594 57.049 26.8307 69.1666 28.1354C69.1666 28.1354 67.4428 36.6702 65.3636 39.2515C63.2825 41.8325 54.6185 42.3313 52.0259 41.6367C49.4333 40.9421 47.0438 38.2703 48.8399 36.3594Z" fill="url(#paint5_linear_98_2101)"/>
<path opacity="0.484931" d="M19.2259 42.736C19.9679 41.2701 20.8941 40.2458 21.2943 40.4484C21.6947 40.6511 21.4177 42.0038 20.6756 43.4699C19.9336 44.9358 19.0076 45.9602 18.6072 45.7575C18.2068 45.5549 18.4838 44.2022 19.2259 42.736Z" fill="#FFFCF6"/>
<path opacity="0.384334" d="M27.8406 59.6924C29.4844 59.6868 30.8178 60.0458 30.8198 60.4944C30.8217 60.9431 29.4903 61.3116 27.8465 61.3173C26.2039 61.3232 24.8707 60.9641 24.8691 60.5155C24.8674 60.0669 26.1982 59.6983 27.8406 59.6924Z" fill="#FFFCF6"/>
<path opacity="0.384334" d="M34.6164 59.6973C35.612 59.6938 36.4222 60.054 36.4241 60.5016C36.4261 60.9495 35.6179 61.3153 34.6222 61.3188C33.6246 61.3223 32.8145 60.9623 32.8125 60.5145C32.8106 60.0667 33.6188 59.7008 34.6164 59.6973Z" fill="#FFFCF6"/>
<path opacity="0.384334" d="M30.6592 62.2295C31.8461 62.2252 32.8086 62.5476 32.8106 62.9495C32.8125 63.3513 31.8501 63.6804 30.6631 63.6845C29.4761 63.6888 28.5137 63.3665 28.5117 62.9646C28.5098 62.5628 29.4722 62.2336 30.6592 62.2295Z" fill="#FFFCF6"/>
<path opacity="0.484931" d="M13.7538 41.8434C13.9345 40.4942 14.3422 39.4357 14.6639 39.4788C14.9858 39.522 15.1002 40.6506 14.9194 41.9995C14.7385 43.3485 14.331 44.4072 14.0091 44.3641C13.6872 44.321 13.573 43.1924 13.7538 41.8434Z" fill="#FFFCF6"/>
<path opacity="0.613325" d="M1.58244 65.7568C2.16714 63.9498 3.0806 63.0373 4.73473 61.4775C7.10534 59.2422 8.59001 57.5451 12.4629 58.7978C17.3649 60.3838 20.3566 65.1405 19.9025 70.065C19.8896 70.2054 16.1741 71.4322 12.4908 71.3789C10.6319 71.3519 8.77294 70.5773 7.41906 70.0279C7.05653 69.8809 4.88681 70.0396 3.45504 69.1685C2.04416 68.3099 1.36633 66.4251 1.58244 65.7568Z" fill="url(#paint6_linear_98_2101)"/>
<path d="M7.59732 69.9766C7.59732 69.9766 1.96256 70.7585 1.62658 66.1822C1.2906 61.6062 5.46099 63.1961 7.22113 64.3928C8.98107 65.5895 10.6325 67.0478 7.59732 69.9766Z" fill="#541D07" stroke="black" stroke-width="3.21619" stroke-miterlimit="10" stroke-linecap="round" stroke-linejoin="round"/>
<path d="M24.8691 54.754C24.8691 54.754 25.4927 37.846 41.8792 44.0641C41.8792 44.0641 43.9115 45.084 45.2195 44.3612C45.2195 44.3612 45.1199 44.8505 44.8603 45.6265C43.6616 49.2163 39.0289 58.9421 24.8691 54.754Z" fill="url(#paint7_linear_98_2101)" stroke="black" stroke-width="1.11687" stroke-miterlimit="10" stroke-linecap="round" stroke-linejoin="round"/>
<path d="M27.8438 48.3589C27.8438 45.6032 30.0775 43.3691 32.8337 43.3691C35.5884 43.3691 37.8236 45.6032 37.8236 48.3589C37.8236 51.1147 35.5884 53.3487 32.8337 53.3487C30.0775 53.3487 27.8438 51.1147 27.8438 48.3589Z" fill="url(#paint8_linear_98_2101)"/>
<path d="M44.1129 45.7443C44.1129 45.7443 43.8122 47.3143 43.25 48.3603C43.25 48.3603 44.7376 46.7532 44.6224 45.7443C44.5053 44.7354 44.3803 45.0434 44.1305 45.7101L44.1129 45.7443Z" fill="black"/>
<path d="M41.7578 44.4404C41.7578 44.4404 43.6983 45.2073 44.2235 45.8033C44.2235 45.8033 45.3773 44.6458 45.0122 44.6458C44.6471 44.6458 41.7578 44.4404 41.7578 44.4404Z" fill="black"/>
<path d="M44.9291 33.2013C44.9291 33.2013 50.247 30.9422 50.04 22.5221C50.04 22.5221 49.0424 17.1964 52.2402 20.5982C52.2402 20.5982 53.2417 22.1192 52.8161 24.9271C52.8161 24.9271 59.5592 21.4135 57.6596 8.0827C57.6596 8.0827 55.274 -0.843252 59.9223 4.50954C59.9223 4.50954 61.4411 6.13202 61.7379 10.7756C61.7379 10.7756 63.6393 7.69635 64.8009 10.705C65.9625 13.7136 63.3426 11.9853 61.4372 16.6646C59.5318 21.344 54.6493 31.6227 48.2635 35.7209C41.8758 39.8192 42.559 34.384 44.9291 33.2013Z" fill="url(#paint9_linear_98_2101)"/>
<defs>
<linearGradient id="paint0_linear_98_2101" x1="9.13672" y1="28.1508" x2="26.2556" y2="28.1508" gradientUnits="userSpaceOnUse">
<stop stop-color="#DBA064"/>
<stop offset="1" stop-color="#BE5C23"/>
</linearGradient>
<linearGradient id="paint1_linear_98_2101" x1="26.6455" y1="1.67358" x2="26.8357" y2="29.5648" gradientUnits="userSpaceOnUse">
<stop stop-color="#D59861"/>
<stop offset="0.858973" stop-color="#FEDCB9"/>
<stop offset="0.995596" stop-color="#FEDCB9" stop-opacity="0"/>
</linearGradient>
<linearGradient id="paint2_linear_98_2101" x1="49.3205" y1="41.0019" x2="43.4882" y2="86.0397" gradientUnits="userSpaceOnUse">
<stop stop-color="#DBA064"/>
<stop offset="1" stop-color="#BE5C23"/>
</linearGradient>
<linearGradient id="paint3_linear_98_2101" x1="47.4061" y1="41.3528" x2="73.7901" y2="35.3861" gradientUnits="userSpaceOnUse">
<stop stop-color="#DBA064"/>
<stop offset="1" stop-color="#BE5C23"/>
</linearGradient>
<linearGradient id="paint4_linear_98_2101" x1="37.5674" y1="31.0966" x2="39.2925" y2="55.5213" gradientUnits="userSpaceOnUse">
<stop stop-color="#FCE3A7"/>
<stop offset="1" stop-color="#FCE3A7" stop-opacity="0"/>
</linearGradient>
<linearGradient id="paint5_linear_98_2101" x1="67.2221" y1="30.2645" x2="54.0339" y2="41.0689" gradientUnits="userSpaceOnUse">
<stop stop-color="#FCE3A7"/>
<stop offset="1" stop-color="#FCE3A7" stop-opacity="0"/>
</linearGradient>
<linearGradient id="paint6_linear_98_2101" x1="11.5682" y1="54.8719" x2="12.9195" y2="74.0058" gradientUnits="userSpaceOnUse">
<stop stop-color="#FCE3A7"/>
<stop offset="1" stop-color="#FCE3A7" stop-opacity="0"/>
</linearGradient>
<linearGradient id="paint7_linear_98_2101" x1="24.8691" y1="49.2362" x2="45.2187" y2="49.2362" gradientUnits="userSpaceOnUse">
<stop stop-color="#FBF9F6"/>
<stop offset="1" stop-color="#E5D5AF"/>
</linearGradient>
<linearGradient id="paint8_linear_98_2101" x1="33.5433" y1="45.934" x2="34.6355" y2="53.0641" gradientUnits="userSpaceOnUse">
<stop/>
<stop offset="1" stop-color="#86634B"/>
</linearGradient>
<linearGradient id="paint9_linear_98_2101" x1="63.8463" y1="4.36898" x2="46.0792" y2="36.4519" gradientUnits="userSpaceOnUse">
<stop stop-color="#D59861"/>
<stop offset="0.858973" stop-color="#FEDCB9"/>
<stop offset="0.995596" stop-color="#FEDCB9" stop-opacity="0"/>
</linearGradient>
</defs>
</svg>
