<svg width="315" height="315" viewBox="0 0 315 315" fill="none" xmlns="http://www.w3.org/2000/svg">
<path d="M314.697 157.649C314.697 244.288 244.462 314.522 157.823 314.522C71.1841 314.522 0.949463 244.288 0.949463 157.649C0.949463 71.0101 71.1841 0.775391 157.823 0.775391C244.462 0.775391 314.697 71.0101 314.697 157.649ZM63.6989 157.649C63.6989 209.632 105.84 251.773 157.823 251.773C209.806 251.773 251.947 209.632 251.947 157.649C251.947 105.666 209.806 63.5248 157.823 63.5248C105.84 63.5248 63.6989 105.666 63.6989 157.649Z" fill="#6633CC" fill-opacity="0.17"/>
<path d="M250.031 30.7355C272.624 47.1507 290.426 69.2996 301.598 94.8949C312.77 120.49 316.906 148.604 313.58 176.332L251.277 168.859C253.273 152.222 250.791 135.354 244.088 119.997C237.385 104.639 226.704 91.35 213.148 81.5009L250.031 30.7355Z" fill="#FFDD8A"/>
<path d="M250.031 30.7356C270.316 45.4733 286.772 64.8585 298.022 87.2666C309.271 109.675 314.985 134.453 314.685 159.524L251.94 158.774C252.12 143.731 248.692 128.864 241.942 115.42C235.193 101.975 225.319 90.3435 213.148 81.5009L250.031 30.7356Z" fill="#F5C144"/>
</svg>
