<svg width="203" height="180" viewBox="0 0 203 180" fill="none" xmlns="http://www.w3.org/2000/svg">
<path opacity="0.1" d="M202.262 0.903504C196.511 16.207 187.873 26.8048 177.555 34.7114C192.93 17.6141 177.901 5.95412 177.901 5.95412C164.921 24.4568 175.123 34.8922 176.091 35.8247C171.004 39.5323 165.562 42.6609 159.779 45.2262C174.965 28.1956 160.026 16.5849 160.026 16.5849C147.805 34.0051 155.969 44.0639 157.819 46.0152C151.1 48.844 144.065 51.1395 136.801 53.0387C149.601 38.3604 136.813 28.3782 136.813 28.3782C126.859 42.5673 132.4 51.1371 134.518 53.6284C128.708 55.0869 122.809 56.3376 116.876 57.5625C130.118 41.2737 116.082 30.2999 116.082 30.2999C105.956 44.7341 110.055 54.4223 112.81 58.4337C106.088 59.8054 99.5172 61.381 92.9307 62.9213C106.507 44.1225 88.5482 34.5416 88.5482 34.5416C78.8068 50.7619 84.8252 60.1788 88.5557 63.9575C80.1848 66.0549 72.0331 68.4808 64.4845 71.7801C76.6005 50.2676 56.7788 43.7393 56.7788 43.7393C48.5809 62.9136 57.6374 70.6752 61.4633 73.0386C55.1898 76.0258 49.3826 79.7621 44.1138 84.2716C54.3727 64.0345 35.5871 57.7424 35.5871 57.7424C26.9674 77.885 37.3275 85.4627 40.6943 87.3515C35.2352 92.5906 30.7988 97.9782 27.2254 103.469C32.0031 89.1265 18.0595 84.6422 18.0595 84.6422C9.97067 103.575 21.5411 109.653 23.1296 110.398C15.3762 125.224 13.3971 139.784 13.5308 151.853C10.3496 142.264 0.156549 145.77 0.156549 145.77C2.0995 161.507 11.7353 160.432 13.7553 160.042C14.8361 171.671 17.6184 179.315 17.6184 179.315L19.259 171.402C19.1157 170.729 19.0625 170.104 18.9257 169.436C28.6943 172.274 32.0943 161.133 32.0943 161.133C24.5054 159.002 20.3799 162.156 18.1334 164.935C16.835 156.389 16.7854 148.597 17.4949 141.549C27.4272 157.197 39.6665 144.348 39.6665 144.348C28.5004 131.989 18.793 139.528 17.5203 140.604C18.3832 132.781 20.2427 126.131 22.4074 120.346C29.6821 138.211 44.7139 128.33 44.7139 128.33C36.9825 114.292 27.1519 116.274 23.334 117.678C26.3784 110.28 29.4906 105.414 31.9057 102.131C40.8401 122.906 58.7368 111.236 58.7368 111.236C51.016 97.2211 41.4021 96.4377 35.6265 97.5274C44.336 89.2869 49.6382 84.0643 55.0815 80.1488C63.7089 103.487 82.699 90.9473 82.699 90.9473C75.024 77.0119 65.4641 76.1495 59.6786 77.2112C68.0002 72.488 81.8573 68.7447 106.287 62.801C107.498 88.4967 126.603 81.4783 126.603 81.4783C122.836 63.3117 112.753 61.9835 108.434 62.2749C115.371 60.5931 120.197 59.4078 129.445 57.1509C138.74 54.8836 146.834 52.3229 153.911 49.5421C155.123 75.2378 174.236 68.1759 174.236 68.1759C169.779 46.6622 156.593 48.7982 154.611 49.2282C203.272 29.7932 202.262 0.903504 202.262 0.903504ZM181.428 40.7256C174.577 38.9791 169.373 43.0048 169.373 43.0048C178.757 66.4374 194.738 52.1809 194.738 52.1809C190.23 44.9151 185.537 41.7738 181.428 40.7256ZM138.759 57.5441C134.857 55.9579 131.466 56.8713 131.466 56.8713C132.416 79.5368 149.166 73.3576 149.166 73.3576C147.071 63.2446 142.662 59.1295 138.759 57.5441ZM91.3301 68.805C85.9 67.5248 81.5868 69.1419 81.5868 69.1419C86.3573 95.8301 107.616 85.9163 107.616 85.9163C103.268 74.2642 96.7529 70.083 91.3301 68.805ZM4.5227 115.364C-0.127883 134.814 13.532 137.236 13.532 137.236C22.0892 117.021 4.5227 115.364 4.5227 115.364Z" fill="#110C24"/>
</svg>
