<svg width="73" height="80" viewBox="0 0 73 80" fill="none" xmlns="http://www.w3.org/2000/svg">
<g clip-path="url(#clip0_16_2911)">
<path d="M18.146 27.1667L25.2063 20.1064L18.146 13.046L11.0856 20.1064L18.146 27.1667ZM7.55546 46.5827C5.61387 46.5827 3.95175 45.8914 2.56909 44.5087C1.18644 43.1261 0.495117 41.4639 0.495117 39.5223V7.75078C0.495117 5.80918 1.18644 4.14706 2.56909 2.76441C3.95175 1.38176 5.61387 0.69043 7.55546 0.69043H64.0382C65.9798 0.69043 67.642 1.38176 69.0246 2.76441C70.4073 4.14706 71.0986 5.80918 71.0986 7.75078V39.5223C71.0986 41.4639 70.4073 43.1261 69.0246 44.5087C67.642 45.8914 65.9798 46.5827 64.0382 46.5827H52.6534C53.0065 45.406 53.2418 44.2292 53.3595 43.0525C53.4771 41.8758 53.4771 40.6991 53.3595 39.5223H64.0382V7.75078H7.55546V39.5223H18.2342C18.1166 40.6991 18.1166 41.8758 18.2342 43.0525C18.3519 44.2292 18.5873 45.406 18.9403 46.5827H7.55546ZM51.6826 21.8715C53.1535 21.8715 54.4038 21.3567 55.4334 20.327C56.4631 19.2974 56.9779 18.0471 56.9779 16.5762C56.9779 15.1053 56.4631 13.855 55.4334 12.8254C54.4038 11.7958 53.1535 11.281 51.6826 11.281C50.2117 11.281 48.9615 11.7958 47.9318 12.8254C46.9022 13.855 46.3874 15.1053 46.3874 16.5762C46.3874 18.0471 46.9022 19.2974 47.9318 20.327C48.9615 21.3567 50.2117 21.8715 51.6826 21.8715ZM11.0856 78.3542V70.9409C11.0856 68.8816 11.6593 66.9694 12.8066 65.2044C13.9539 63.4393 15.4689 62.1155 17.3517 61.2329C20.2347 59.8797 23.2353 58.8647 26.3536 58.1881C29.472 57.5115 32.6197 57.1732 35.7969 57.1732C38.974 57.1732 42.1217 57.5115 45.2401 58.1881C48.3584 58.8647 51.359 59.8797 54.242 61.2329C56.1248 62.1155 57.6398 63.4393 58.7871 65.2044C59.9344 66.9694 60.5081 68.8816 60.5081 70.9409V78.3542H11.0856ZM18.146 71.2939H53.4477V70.9409C53.4477 70.2348 53.2418 69.5877 52.8299 68.9993C52.4181 68.4109 51.8886 67.9697 51.2414 67.6755C48.7702 66.5576 46.2403 65.7045 43.6515 65.1161C41.0627 64.5277 38.4445 64.2336 35.7969 64.2336C33.1492 64.2336 30.531 64.5277 27.9422 65.1161C25.3534 65.7045 22.8235 66.5576 20.3523 67.6755C19.7051 67.9697 19.1756 68.4109 18.7638 68.9993C18.3519 69.5877 18.146 70.2348 18.146 70.9409V71.2939ZM35.7969 53.643C32.3844 53.643 29.472 52.4369 27.0597 50.0246C24.6474 47.6123 23.4412 44.6999 23.4412 41.2874C23.4412 37.8749 24.6474 34.9625 27.0597 32.5502C29.472 30.138 32.3844 28.9318 35.7969 28.9318C39.2094 28.9318 42.1217 30.138 44.534 32.5502C46.9463 34.9625 48.1525 37.8749 48.1525 41.2874C48.1525 44.6999 46.9463 47.6123 44.534 50.0246C42.1217 52.4369 39.2094 53.643 35.7969 53.643ZM35.7969 46.5827C37.2678 46.5827 38.518 46.0679 39.5477 45.0382C40.5773 44.0086 41.0921 42.7583 41.0921 41.2874C41.0921 39.8165 40.5773 38.5662 39.5477 37.5366C38.518 36.507 37.2678 35.9922 35.7969 35.9922C34.3259 35.9922 33.0757 36.507 32.046 37.5366C31.0164 38.5662 30.5016 39.8165 30.5016 41.2874C30.5016 42.7583 31.0164 44.0086 32.046 45.0382C33.0757 46.0679 34.3259 46.5827 35.7969 46.5827Z" fill="url(#paint0_linear_16_2911)" fill-opacity="0.13"/>
</g>
<defs>
<linearGradient id="paint0_linear_16_2911" x1="71.0986" y1="0.69043" x2="0.495117" y2="0.69043" gradientUnits="userSpaceOnUse">
<stop stop-color="#6633CC"/>
<stop offset="1" stop-color="#F5C144"/>
</linearGradient>
<clipPath id="clip0_16_2911">
<rect width="72" height="79" fill="white" transform="translate(0.0234375 0.15918)"/>
</clipPath>
</defs>
</svg>
