<svg width="304" height="368" viewBox="0 0 304 368" fill="none" xmlns="http://www.w3.org/2000/svg">
<path opacity="0.12" fill-rule="evenodd" clip-rule="evenodd" d="M226.213 52.8988C234.105 46.9409 242.417 41.5622 251.08 36.8032C257.071 33.4595 258.529 31.74 264.325 29.1237C254.701 33.2939 237.555 34.5689 226.96 29.7526C215.637 24.6051 205.64 12.2321 205.64 12.2321C205.64 12.2321 218.739 0.841631 230.655 0.117506C246.547 -0.849098 270.612 11.0245 279.186 22.1793C307.858 9.84832 324.518 7.72606 324.794 7.68374L325.821 14.0218C325.554 14.0631 308.612 15.104 280.948 26.8948C291.886 44.213 287.811 63.3685 282.687 74.6576C276.794 87.6362 264.288 93.6938 264.288 93.6938C264.288 93.6938 254.916 78.4673 253.858 69.3804C252.794 60.2524 257.119 43.8148 266.087 33.8392C262.315 35.7002 259.097 38.459 255.198 40.632C246.643 45.3996 238.921 51.3247 229.592 58.3495C234.337 68.5309 237.971 76.6481 238.694 89.8876C239.74 109.025 221.613 123.223 221.613 123.223C221.613 123.223 206.782 113.223 206.33 96.7037C206.135 89.644 211.704 76.2636 215.612 67.6515C204.258 77.542 193.995 88.6238 184.997 100.706C191.548 107.44 205.441 121.001 206.16 135.77C206.707 146.994 203.054 159.113 195.404 168.067C185.879 163.752 177.44 156.439 173.939 146.566C169.916 135.217 173.38 120.843 175.134 113.837C165.349 125.313 160.893 144.978 155.396 161.622C165.488 166.772 177.661 171.196 184.805 182.82C194.765 199.028 189.344 220.112 189.344 220.112C189.344 220.112 167.405 210.081 159.199 200.538C153.758 194.209 151.63 182.118 150.977 171.356C144.985 190.071 137.952 208.438 129.911 226.367C135.663 231.12 153.693 249.172 155.926 263.637C159.189 284.745 147.526 295.047 147.526 295.047C147.526 295.047 130.538 288.132 124.587 276.79C118.177 264.572 122.322 247.355 124.019 239.346C116.473 255.173 106.755 273.444 98.6928 286.548C103.492 293.653 115.291 312.804 112.938 328.253C110.012 347.46 97.1841 354.363 97.1841 354.363C97.1841 354.363 86.8313 347.15 82.7817 330.202C80.2237 319.495 86.7693 305.429 88.0923 301.3C82.473 312.25 68.9195 326.805 62.9222 330.959C60.0043 336.994 47.1514 359.786 31.5709 365.636C18.3977 370.578 0.533497 365.226 0.533497 365.226C0.533497 365.226 3.12189 349.348 13.0514 337.645C22.9587 325.97 49.4436 326.382 58.8051 327.13C68.4517 320.556 72.224 317.442 86.3296 296.585C80.2471 301.173 66.2607 306.778 53.3744 303.793C33.6167 299.218 24.7018 286.184 24.7018 286.184C24.7018 286.184 32.3929 272.437 51.8439 269.248C68.8933 266.451 87.3564 277.205 94.5756 282.719C103.529 268.023 109.824 255.674 119.167 237.139C111.149 245.73 101.072 252.604 89.5891 255.009C78.3072 257.372 59.1441 248.997 59.1441 248.997C59.1441 248.997 69.8542 225.492 87.5499 220.809C104.859 216.23 118.486 222.099 125.057 224.16C133.163 206.258 140.197 187.888 146.125 169.151C141.046 178.66 132.968 190.686 124.78 194.677C109.908 201.928 89.0348 196.042 89.0348 196.042C89.0348 196.042 99.1145 173.848 110.233 166.535C122.201 158.664 136.301 158.105 150.543 159.416C156.733 140.619 159.847 125.201 170.28 111.631C164.097 117.57 156.814 121.152 146.885 124.481C133.738 128.89 114.085 119.356 114.085 119.356C114.085 119.356 127.57 101.453 138.664 95.3007C153.308 87.1785 172.289 94.9586 180.143 98.4999C180.61 97.5083 202.378 72.8933 214.283 62.9587C205.022 68.3154 193.436 71.0485 185.456 69.5999C169.66 66.7336 156.337 56.3628 156.337 56.3628C156.337 56.3628 170.594 41.7369 186.796 40.8516C201.325 40.058 221.36 50.6926 226.213 52.8988Z" fill="url(#paint0_linear_16_1853)"/>
<defs>
<linearGradient id="paint0_linear_16_1853" x1="318.941" y1="-119.416" x2="-260.03" y2="458.328" gradientUnits="userSpaceOnUse">
<stop stop-color="#F5C144"/>
<stop offset="0.454156" stop-color="#6633CC"/>
<stop offset="0.782426" stop-color="#9D4BAD"/>
<stop offset="1" stop-color="#F5C144"/>
</linearGradient>
</defs>
</svg>
