<svg width="298" height="263" viewBox="0 0 298 263" fill="none" xmlns="http://www.w3.org/2000/svg">
    <path opacity="0.1" d="M297.37 0.447713C288.916 22.9418 276.22 38.5192 261.054 50.1408C283.654 25.01 261.563 7.87143 261.563 7.87143C242.484 35.0679 257.48 50.4066 258.902 51.7771C251.424 57.2268 243.426 61.8255 234.926 65.5961C257.246 40.5634 235.288 23.4972 235.288 23.4972C217.325 49.1026 229.326 63.8876 232.044 66.7558C222.169 70.9137 211.828 74.2878 201.151 77.0794C219.965 55.5043 201.169 40.8318 201.169 40.8318C186.537 61.6879 194.681 74.2844 197.796 77.9463C189.256 80.09 180.584 81.9283 171.864 83.7288C191.327 59.7865 170.697 43.6564 170.697 43.6564C155.813 64.8728 161.837 79.1131 165.887 85.0093C156.007 87.0255 146.349 89.3415 136.667 91.6055C156.623 63.9739 130.226 49.8912 130.226 49.8912C115.907 73.7328 124.753 87.5744 130.237 93.1286C117.933 96.2115 105.951 99.7772 94.8553 104.627C112.664 73.0062 83.5291 63.4105 83.5291 63.4105C71.4792 91.5941 84.791 103.003 90.4146 106.477C81.1934 110.867 72.6577 116.359 64.9132 122.988C79.9924 93.2418 52.3801 83.9933 52.3801 83.9933C39.7103 113.6 54.9382 124.738 59.8869 127.515C51.8628 135.215 45.342 143.134 40.0894 151.205C47.112 130.124 26.6169 123.532 26.6169 123.532C14.7274 151.361 31.7344 160.295 34.0692 161.389C22.6728 183.182 19.7637 204.583 19.9602 222.322C15.2843 208.228 0.301954 213.382 0.301954 213.382C3.15783 236.514 17.3212 234.933 20.2903 234.36C21.8789 251.453 25.9685 262.688 25.9685 262.688L28.38 251.058C28.1693 250.068 28.0911 249.15 27.8901 248.168C42.2486 252.339 47.2462 235.963 47.2462 235.963C36.0914 232.832 30.0275 237.468 26.7254 241.553C24.817 228.991 24.7442 217.537 25.787 207.178C40.3862 230.178 58.3763 211.291 58.3763 211.291C41.9636 193.125 27.695 204.206 25.8244 205.789C27.0926 194.289 29.8259 184.515 33.0077 176.013C43.7005 202.272 65.7953 187.748 65.7953 187.748C54.4311 167.113 39.9815 170.027 34.3697 172.091C38.8446 161.216 43.419 154.063 46.9689 149.239C60.1013 179.775 86.407 162.622 86.407 162.622C75.0585 142.022 60.9273 140.87 52.4379 142.472C65.2398 130.359 73.0333 122.683 81.0342 116.928C93.7153 151.232 121.628 132.8 121.628 132.8C110.347 112.317 96.2952 111.049 87.7914 112.61C100.023 105.667 120.391 100.165 156.299 91.4287C158.079 129.198 186.16 118.882 186.16 118.882C180.624 92.1794 165.804 90.2271 159.455 90.6553C169.651 88.1833 176.746 86.4412 190.338 83.1239C204.001 79.7912 215.898 76.0273 226.301 71.9399C228.081 109.709 256.175 99.329 256.175 99.329C249.624 67.7068 230.242 70.8465 227.329 71.4784C298.854 42.9116 297.37 0.447713 297.37 0.447713ZM266.746 58.9808C256.676 56.4137 249.027 62.3309 249.027 62.3309C262.821 96.7738 286.311 75.8185 286.311 75.8185C279.685 65.1388 272.785 60.5215 266.746 58.9808ZM204.03 83.7017C198.293 81.3703 193.309 82.7129 193.309 82.7129C194.705 116.028 219.326 106.946 219.326 106.946C216.247 92.0808 209.766 86.032 204.03 83.7017ZM134.315 100.254C126.333 98.3721 119.993 100.749 119.993 100.749C127.005 139.977 158.253 125.405 158.253 125.405C151.863 108.278 142.286 102.132 134.315 100.254ZM6.71961 168.689C-0.116122 197.278 19.9621 200.838 19.9621 200.838C32.54 171.125 6.71961 168.689 6.71961 168.689Z" fill="#110C24"/>
    </svg>
    