<svg width="572" height="402" viewBox="0 0 572 402" fill="none" xmlns="http://www.w3.org/2000/svg">
<path fill-rule="evenodd" clip-rule="evenodd" d="M567.81 329.041C562.408 324.081 543.876 329.387 490.061 321.759C481.782 310.241 451.643 269.588 423.379 243.624C399.447 221.64 374.783 208.154 362.944 221.037C349.655 235.498 370.454 262.766 391.568 281.917C403.999 293.304 418.042 302.792 433.245 310.075C419.951 307.315 361.048 294.328 347.874 289.037C346.847 277.002 345.724 235.928 341.07 211.898C335.692 184.122 323.883 145.474 309.525 132.284C301.723 125.116 292.293 125.103 281.899 136.413C258.3 162.095 303.44 250.488 305.897 253.853C305.963 253.943 322.954 275.881 322.68 276.021C296.669 262.855 278.35 252.221 255.809 234.847C256.719 220.522 260.671 113.872 237.459 93.0882C235.45 91.311 232.944 90.1881 230.281 89.871C226.35 89.1556 222.349 90.6804 219.89 93.828C204.358 110.734 212.254 177.89 217.498 203.028L180.867 169.378C182.605 146.383 182.543 123.287 180.675 100.3C178.319 75.8228 161.856 40.1429 146.63 26.5285C140.063 20.665 133.892 18.6712 128.912 23.7556C127.046 25.8254 125.588 28.2295 124.61 30.8386C112.649 59.9187 139.976 114.241 151.262 135.432C141.72 125.799 133.558 114.892 127.003 103.021C124.985 99.2011 96.2338 58.2636 65.8161 29.9335C42.4612 8.18147 15.4101 -7.05083 4.88976 4.34601C-7.06586 17.2976 8.45883 44.7238 34.0081 68.2271C62.0597 94.0327 102.331 117.444 129.883 129.294C146.567 145.69 153.646 154.635 170.326 169.822C170.326 169.822 81.8128 115.444 59.9099 139.281C37.3086 163.878 172.311 207.358 206.957 203.472C219.17 214.732 231.959 225.352 245.268 235.291C214.659 226.785 147.834 205.326 130.405 224.294C123.404 231.912 128.508 242.805 134.964 248.737C164.977 276.306 283.433 263.598 283.433 263.598C296.791 272.604 310.655 280.832 324.961 288.243C324.961 288.243 220.777 264.065 215.92 306.65C211.116 348.766 332.095 326.978 364.356 304.179C369.982 305.951 445.502 322.853 472.792 329.525C472.226 329.558 450.027 332.243 450.027 332.243C450.027 332.243 326.665 342.574 339.687 386.163C351.117 424.426 474.559 382.738 513.721 340.118C550.005 345.383 563.062 341.559 563.062 341.559C565.626 340.857 567.984 339.551 569.939 337.75C572.136 335.463 572.249 333.121 567.81 329.041Z" fill="url(#paint0_linear_16_3255)"/>
<defs>
<linearGradient id="paint0_linear_16_3255" x1="499.664" y1="523.002" x2="78.4334" y2="101.825" gradientUnits="userSpaceOnUse">
<stop/>
<stop offset="0.60345" stop-color="#6633CC"/>
<stop offset="1" stop-color="#FF9CAA"/>
</linearGradient>
</defs>
</svg>
