<svg width="571" height="401" viewBox="0 0 571 401" fill="none" xmlns="http://www.w3.org/2000/svg">
<path fill-rule="evenodd" clip-rule="evenodd" d="M3.72724 328.622C9.12882 323.662 27.6609 328.968 81.4762 321.34C89.755 309.822 119.894 269.169 148.158 243.205C172.09 221.221 196.754 207.735 208.593 220.618C221.882 235.079 201.083 262.347 179.969 281.498C167.538 292.885 153.495 302.373 138.293 309.656C151.586 306.896 210.489 293.909 223.663 288.618C224.691 276.583 225.813 235.509 230.467 211.479C235.845 183.703 247.654 145.055 262.013 131.865C269.814 124.698 279.244 124.684 289.638 135.994C313.237 161.676 268.097 250.069 265.64 253.434C265.574 253.524 248.583 275.462 248.858 275.602C274.868 262.436 293.187 251.802 315.728 234.428C314.818 220.103 310.866 113.453 334.078 92.6692C336.087 90.8921 338.593 89.7691 341.256 89.4521C345.187 88.7366 349.188 90.2614 351.648 93.4091C367.179 110.315 359.283 177.471 354.039 202.609L390.67 168.959C388.932 145.964 388.994 122.868 390.862 99.8815C393.218 75.4038 409.681 39.724 424.907 26.1096C431.474 20.2461 437.646 18.2523 442.625 23.3367C444.491 25.4064 445.949 27.8106 446.928 30.4197C458.888 59.4998 431.561 113.822 420.275 135.013C429.817 125.38 437.979 114.473 444.534 102.602C446.552 98.7822 475.303 57.8446 505.721 29.5145C529.076 7.76249 556.127 -7.4698 566.647 3.92706C578.603 16.8786 563.078 44.3048 537.529 67.8082C509.477 93.6138 469.206 117.025 441.654 128.875C424.971 145.271 417.891 154.216 401.211 169.403C401.211 169.403 489.724 115.025 511.627 138.862C534.228 163.459 399.226 206.939 364.58 203.053C352.367 214.313 339.578 224.934 326.269 234.872C356.879 226.366 423.703 204.907 441.133 223.875C448.133 231.493 443.029 242.386 436.573 248.318C406.56 275.887 288.104 263.179 288.104 263.179C274.746 272.185 260.882 280.413 246.577 287.824C246.577 287.824 350.761 263.646 355.617 306.231C360.421 348.347 239.442 326.559 207.181 303.76C201.555 305.533 126.035 322.434 98.7454 329.106C99.3114 329.139 121.51 331.824 121.51 331.824C121.51 331.824 244.872 342.155 231.851 385.744C220.42 424.007 96.9786 382.319 57.816 339.699C21.5319 344.964 8.47515 341.14 8.47515 341.14C5.9116 340.438 3.55325 339.132 1.59776 337.331C-0.598429 335.044 -0.712045 332.702 3.72724 328.622Z" fill="url(#paint0_linear_16_3254)"/>
<defs>
<linearGradient id="paint0_linear_16_3254" x1="71.8726" y1="522.583" x2="493.104" y2="101.406" gradientUnits="userSpaceOnUse">
<stop/>
<stop offset="0.60345" stop-color="#6633CC"/>
<stop offset="1" stop-color="#FF9CAA"/>
</linearGradient>
</defs>
</svg>
