<svg width="102" height="102" viewBox="0 0 102 102" fill="none" xmlns="http://www.w3.org/2000/svg">
<path d="M51.0239 92.9333C48.7093 92.9333 46.7279 92.1091 45.0797 90.4609C43.4314 88.8126 42.6073 86.8312 42.6073 84.5166H59.4406C59.4406 86.8312 58.6165 88.8126 56.9682 90.4609C55.3199 92.1091 53.3385 92.9333 51.0239 92.9333ZM34.1906 80.3083V71.8916H67.8573V80.3083H34.1906ZM35.2427 67.6833C30.4031 64.8076 26.563 60.9499 23.7224 56.1104C20.8817 51.2708 19.4614 46.0103 19.4614 40.3291C19.4614 31.5617 22.53 24.1095 28.6672 17.9723C34.8043 11.8352 42.2566 8.7666 51.0239 8.7666C59.7913 8.7666 67.2435 11.8352 73.3807 17.9723C79.5178 24.1095 82.5864 31.5617 82.5864 40.3291C82.5864 46.0103 81.1661 51.2708 78.3255 56.1104C75.4849 60.9499 71.6448 64.8076 66.8052 67.6833H35.2427ZM37.7677 59.2666H64.2802C67.4364 57.0222 69.8737 54.2517 71.5921 50.9551C73.3106 47.6586 74.1698 44.1166 74.1698 40.3291C74.1698 33.8763 71.9253 28.4055 67.4364 23.9166C62.9475 19.4277 57.4767 17.1833 51.0239 17.1833C44.5711 17.1833 39.1003 19.4277 34.6114 23.9166C30.1225 28.4055 27.8781 33.8763 27.8781 40.3291C27.8781 44.1166 28.7373 47.6586 30.4557 50.9551C32.1741 54.2517 34.6114 57.0222 37.7677 59.2666Z" fill="url(#paint0_linear_16_2892)" fill-opacity="0.13"/>
<defs>
<linearGradient id="paint0_linear_16_2892" x1="82.5864" y1="8.7666" x2="19.4614" y2="8.7666" gradientUnits="userSpaceOnUse">
<stop stop-color="#6633CC"/>
<stop offset="1" stop-color="#F5C144"/>
</linearGradient>
</defs>
</svg>
