<svg width="190" height="211" viewBox="0 0 190 211" fill="none" xmlns="http://www.w3.org/2000/svg">
<path d="M159.718 172.169C159.979 174.328 160.241 176.49 160.502 178.651C161.205 181.762 161.907 184.874 162.611 187.985C163.277 190.554 163.951 192.63 164.456 194.082C165.65 197.506 166.992 200.578 169.128 205.47L169.129 205.472V205.472C169.36 205.997 168.966 206.587 168.393 206.587C115.07 206.56 77.3557 206.568 76.4198 206.654C76.3384 206.661 75.7976 206.74 75.4084 206.419C75.1981 206.249 75.0646 205.972 74.9929 205.543C74.7502 204.102 74.3383 202.688 73.9979 201.263C73.6641 199.515 72.975 197.123 71.4538 194.635C68.123 189.187 63.0511 186.946 61.0771 186.194C54.3944 185.985 47.5717 185.632 40.6168 185.117C39.1657 185.01 37.7226 184.897 36.2861 184.777C35.0695 184.687 30.9554 184.233 27.4568 180.894C23.1097 176.747 23.0527 171.335 23.0576 170.392C22.8149 168.339 23.3507 166.335 23.4126 164.3C23.1667 162.276 22.9973 160.222 21.6552 158.806C21.0004 158.114 20.4516 158.351 19.6046 157.525C19.3896 157.316 17.7185 155.637 18.0296 153.37C18.1355 152.596 18.4368 152.01 18.6485 151.666C18.7935 151.451 18.9401 151.235 19.0867 151.02C19.3239 150.736 19.5604 150.453 19.7966 150.171M159.718 172.169L159.717 172.167M159.718 172.169C159.63 170.342 159.543 168.516 159.457 166.69M20.1584 149.738C18.0508 147.922 15.4937 146.492 14.7917 143.472C14.7396 143.185 14.7037 142.804 14.7559 142.361C14.8569 141.5 15.238 140.879 15.4644 140.565C15.8992 139.278 16.4725 138.034 16.6094 136.661M20.1584 149.738L19.7966 150.171M20.1584 149.738C20.0378 149.882 19.9172 150.026 19.7966 150.171M16.6094 136.661C16.5866 135.952 16.5638 135.244 16.541 134.537M16.6094 136.661L16.541 134.537M16.541 134.537L16.5393 134.532M16.5393 134.532L16.5368 134.526M16.5393 134.532C16.5385 134.53 16.5376 134.528 16.5368 134.526M163.735 26.4636C164.665 27.4359 165.432 28.2863 166.01 28.9425C167.069 30.1429 168.15 31.4558 169.233 32.8858C170.852 35.0211 172.229 37.0945 173.398 39.0392C174.12 40.2363 174.841 41.4318 175.564 42.6289C176.624 44.4221 177.41 45.9857 177.962 47.1632C178.954 49.284 179.573 50.9735 180.214 52.7226M163.735 26.4636L163.71 26.4378M163.735 26.4636C163.727 26.456 163.719 26.4474 163.71 26.4378M180.226 52.7547C180.775 54.2548 180.512 53.6521 181.768 57.3039C182.859 60.4814 183.38 61.8724 183.848 64.1086C184.011 64.8937 184.118 65.5435 184.183 65.9637C184.312 66.6609 184.442 67.358 184.571 68.055M180.226 52.7547L180.214 52.7226M180.226 52.7547C180.222 52.744 180.218 52.7333 180.214 52.7226M184.571 68.055L184.666 68.7574M184.571 68.055C184.603 68.2892 184.635 68.5233 184.666 68.7574M159.428 166.09C159.668 163.225 159.909 160.36 160.15 157.495C160.878 153.783 161.604 150.073 162.332 146.361C162.58 145.664 162.946 144.627 163.384 143.366C165.179 138.205 166.075 135.056 166.619 133.753C168.424 129.426 170.43 125.211 172.847 121.17C175.497 116.736 177.851 112.122 179.812 107.332C181.724 102.656 183.255 97.8511 184.161 92.8655C184.885 89.4974 185.464 85.5135 185.589 81.028C185.656 78.6809 185.589 76.4821 185.439 74.4575C185.183 72.558 184.925 70.6582 184.666 68.7574M159.428 166.09L159.457 166.69M159.428 166.09C159.438 166.29 159.447 166.49 159.457 166.69M99.9844 74.5958L112.984 74.5121C112.984 74.5121 113.975 68.0149 121.477 66.7611C128.736 66.7611 131.226 72.1173 131.517 74.5121H141.557C141.557 74.5121 141.849 46.6645 141.557 43.7565C141.268 40.8486 141.83 35.6222 134.056 35.3931C126.263 35.1656 99.9844 35.5163 99.9844 35.5163M99.9844 74.5958V64.2252C95.3708 63.8578 91.7461 60.561 91.7461 54.8623C91.7461 49.1635 99.9844 45.7516 99.9844 45.7516V35.5163M99.9844 74.5958L85.5857 75.1972C85.7026 82.5448 78.8962 83.1583 76.0872 81.7114C72.2103 79.7144 73.218 75.1972 73.218 75.1972H59.6107M99.9844 74.5958V90.6479C104.21 89.9636 107.467 92.455 108.165 95.6468C108.165 99.5964 105.53 103.555 99.9844 103.137L99.9065 115.757C99.9065 115.757 71.6905 116.632 68.0065 116.481C64.3244 116.328 59.7462 114.105 59.6107 107.72C59.6107 107.208 59.4825 85.6409 59.6107 75.1972M99.9844 35.5163C99.9844 35.5163 73.2385 35.0116 68.1014 35.5163C62.9643 36.0193 59.9781 37.2609 59.6107 42.6301C59.2227 47.9992 59.6107 75.1972 59.6107 75.1972M16.5368 134.526C16.4285 134.281 16.3202 134.035 16.2103 133.791C15.611 133.033 14.9236 132.527 13.9024 132.305C12.4577 131.989 7.13502 129.862 5.15774 126.499C4.53393 125.435 4.4134 124.535 4.38733 124.32C4.36129 124.097 4.27821 123.267 4.55183 122.238C4.70819 121.649 4.93134 121.183 5.11375 120.862C5.98188 118.331 7.79466 116.394 9.27028 114.246C11.4593 111.065 13.6548 107.887 15.8488 104.708C17.7332 101.822 19.6193 98.9359 21.5053 96.0481C21.7643 95.4634 22.0249 94.8788 22.2838 94.294C22.2204 93.4308 22.481 92.6213 22.6894 91.8036C22.6796 90.8476 22.6683 89.8914 22.6585 88.9355C21.8766 86.2188 21.2285 83.471 20.8962 80.6582C20.7056 79.0522 20.4483 77.0749 20.5281 74.4478C20.5737 72.9885 20.7056 71.8841 20.9727 69.6723C21.1421 68.2602 21.3799 66.3042 21.8718 63.7405C22.0167 62.9865 22.385 61.1296 23.0021 58.7599C23.4223 57.1457 23.7791 55.9748 24.144 54.7841C24.6862 53.0071 25.1292 51.5658 25.8394 49.6927C26.061 49.1064 26.4942 47.989 27.105 46.6013C28.3427 43.7852 29.5529 41.5751 30.3803 40.1531C30.9032 39.2542 31.6165 38.0327 32.6736 36.4966C34.1509 34.3533 35.5614 32.6675 36.6558 31.4558C37.4196 30.5844 38.4605 29.4361 39.7374 28.1299C41.1495 26.6867 42.8646 24.9424 45.2621 22.9814C46.7964 21.7289 48.842 20.1963 51.4041 18.6311C51.9122 18.2483 52.6826 17.6848 53.6484 17.0463C57.0297 14.8166 59.88 13.6097 62.8215 12.3832C66.4063 10.8881 68.9309 10.1437 69.7518 9.91896C70.5693 9.6942 71.3903 9.48409 72.2143 9.2805C76.4198 7.88793 80.7783 7.14849 85.114 6.37158C93.6649 4.83894 102.299 4.15975 110.985 4.62719C129.689 5.6305 144.284 11.6666 150.397 15.512C155.281 18.5871 159.392 22.2534 159.392 22.2534C161.436 24.0758 163.341 26.0546 163.71 26.4378M117.941 82.3126L114.374 91.4027C116.874 92.3921 119.762 96.2505 118.348 101.775C116.932 107.3 110.961 110.11 107.53 108.772L103.692 118.523C103.692 118.523 128.796 129.302 132.132 130.466C135.465 131.627 140.001 132.791 142.987 125.618C145.971 118.426 154.386 96.6568 154.386 96.6568L142.153 91.8501C142.153 91.8501 143.859 84.0183 139.943 82.0213C136.027 80.0244 131.705 82.1177 130.309 86.4402L117.941 82.3126Z" stroke="url(#paint0_linear_228_342)" stroke-opacity="0.18" stroke-width="7"/>
<defs>
<linearGradient id="paint0_linear_228_342" x1="94.985" y1="4.48169" x2="94.985" y2="206.668" gradientUnits="userSpaceOnUse">
<stop stop-color="#6633CC"/>
<stop offset="1" stop-color="#110C24"/>
</linearGradient>
</defs>
</svg>
