<svg width="269" height="369" viewBox="0 0 269 369" fill="none" xmlns="http://www.w3.org/2000/svg">
<path opacity="0.12" fill-rule="evenodd" clip-rule="evenodd" d="M42.5609 53.6576C34.6686 47.6997 26.3568 42.321 17.6932 37.562C11.7023 34.2183 10.2449 32.4988 4.44896 29.8825C14.0727 34.0527 31.2188 35.3276 41.8134 30.5114C53.1366 25.3639 63.1332 12.9909 63.1332 12.9909C63.1332 12.9909 50.0347 1.60042 38.1184 0.876295C22.2268 -0.0903087 -1.83824 11.7833 -10.4124 22.9381C-39.0839 10.6071 -55.7439 8.48485 -56.0208 8.44253L-57.0472 14.7806C-56.7805 14.8219 -39.8386 15.8628 -12.1747 27.6536C-23.1126 44.9718 -19.0369 64.1273 -13.9137 75.4164C-8.02071 88.395 4.48575 94.4526 4.48575 94.4526C4.48575 94.4526 13.8574 79.2261 14.9162 70.1392C15.9802 61.0112 11.655 44.5735 2.68669 34.598C6.45905 36.459 9.67675 39.2178 13.5761 41.3908C22.1308 46.1584 29.8527 52.0835 39.1816 59.1082C34.4365 69.2897 30.8028 77.4068 30.0796 90.6464C29.0339 109.784 47.1602 123.982 47.1602 123.982C47.1602 123.982 61.9914 113.981 62.4437 97.4625C62.6386 90.4028 57.0693 77.0224 53.1617 68.4103C64.5152 78.3008 74.7789 89.3825 83.7771 101.465C77.226 108.199 63.3324 121.76 62.6141 136.529C62.0666 147.753 65.7195 159.872 73.37 168.826C82.8947 164.511 91.3338 157.198 94.835 147.325C98.8572 135.976 95.394 121.602 93.6401 114.596C103.425 126.071 107.881 145.737 113.378 162.381C103.285 167.531 91.1126 171.955 83.9688 183.579C74.0089 199.787 79.4293 220.871 79.4293 220.871C79.4293 220.871 101.369 210.839 109.574 201.296C115.016 194.968 117.144 182.877 117.797 172.115C123.789 190.83 130.822 209.196 138.863 227.126C133.11 231.879 115.081 249.931 112.847 264.396C109.585 285.503 121.248 295.806 121.248 295.806C121.248 295.806 138.236 288.89 144.187 277.549C150.597 265.331 146.452 248.114 144.754 240.105C152.3 255.931 162.018 274.203 170.081 287.307C165.281 294.412 153.483 313.563 155.835 329.011C158.761 348.219 171.59 355.122 171.59 355.122C171.59 355.122 181.942 347.909 185.992 330.96C188.55 320.254 182.004 306.187 180.681 302.058C186.301 313.009 199.854 327.564 205.851 331.718C208.769 337.753 221.622 360.545 237.203 366.395C250.376 371.337 268.24 365.985 268.24 365.985C268.24 365.985 265.652 350.107 255.722 338.404C245.815 326.728 219.33 327.141 209.969 327.889C200.322 321.314 196.55 318.2 182.444 297.344C188.527 301.932 202.513 307.536 215.399 304.552C235.157 299.977 244.072 286.943 244.072 286.943C244.072 286.943 236.381 273.195 216.93 270.006C199.88 267.21 181.417 277.964 174.198 283.478C165.244 268.781 158.95 256.433 149.607 237.898C157.625 246.488 167.702 253.363 179.185 255.767C190.467 258.131 209.63 249.756 209.63 249.756C209.63 249.756 198.92 226.251 181.224 221.568C163.914 216.989 150.288 222.858 143.716 224.919C135.611 207.016 128.577 188.647 122.648 169.91C127.727 179.418 135.805 191.445 143.993 195.436C158.866 202.686 179.739 196.801 179.739 196.801C179.739 196.801 169.659 174.607 158.541 167.294C146.572 159.423 132.473 158.864 118.231 160.175C112.041 141.378 108.927 125.96 98.4932 112.39C104.676 118.329 111.96 121.911 121.889 125.24C135.035 129.649 154.689 120.115 154.689 120.115C154.689 120.115 141.204 102.212 130.11 96.0595C115.466 87.9373 96.4845 95.7174 88.6302 99.2587C88.1635 98.2671 66.3952 73.6521 54.4911 63.7175C63.7521 69.0742 75.3377 71.8073 83.3182 70.3587C99.1134 67.4924 112.437 57.1216 112.437 57.1216C112.437 57.1216 98.1792 42.4957 81.9781 41.6104C67.4492 40.8167 47.414 51.4514 42.5609 53.6576Z" fill="url(#paint0_linear_1412_1004)"/>
<defs>
<linearGradient id="paint0_linear_1412_1004" x1="-50.1673" y1="-118.657" x2="528.803" y2="459.087" gradientUnits="userSpaceOnUse">
<stop stop-color="#F5C144"/>
<stop offset="0.454156" stop-color="#6633CC"/>
<stop offset="0.782426" stop-color="#9D4BAD"/>
<stop offset="1" stop-color="#F5C144"/>
</linearGradient>
</defs>
</svg>
