<svg width="306" height="69" viewBox="0 0 306 69" fill="none" xmlns="http://www.w3.org/2000/svg">
<path d="M178.357 27.4929C178.532 26.956 179.291 26.956 179.466 27.4929L181.55 33.9072C181.628 34.1473 181.852 34.3098 182.104 34.3098H188.848C189.413 34.3098 189.648 35.0322 189.191 35.3641L183.735 39.3283C183.53 39.4767 183.445 39.7397 183.523 39.9799L185.607 46.3941C185.782 46.931 185.167 47.3775 184.71 47.0457L179.254 43.0814C179.05 42.933 178.773 42.933 178.569 43.0814L173.113 47.0457C172.656 47.3775 172.041 46.931 172.216 46.3941L174.3 39.9799C174.378 39.7397 174.293 39.4767 174.088 39.3283L168.632 35.3641C168.175 35.0322 168.41 34.3098 168.975 34.3098H175.719C175.971 34.3098 176.195 34.1473 176.273 33.9072L178.357 27.4929Z" fill="url(#paint0_linear_16_2326)"/>
<path d="M206.871 27.4929C207.045 26.956 207.805 26.956 207.979 27.4929L210.063 33.9072C210.141 34.1473 210.365 34.3098 210.618 34.3098H217.362C217.926 34.3098 218.161 35.0322 217.704 35.3641L212.248 39.3283C212.044 39.4767 211.958 39.7397 212.036 39.9799L214.121 46.3941C214.295 46.931 213.68 47.3775 213.224 47.0457L207.767 43.0814C207.563 42.933 207.287 42.933 207.082 43.0814L201.626 47.0457C201.169 47.3775 200.555 46.931 200.729 46.3941L202.813 39.9799C202.891 39.7397 202.806 39.4767 202.602 39.3283L197.145 35.3641C196.689 35.0322 196.923 34.3098 197.488 34.3098H204.232C204.485 34.3098 204.709 34.1473 204.787 33.9072L206.871 27.4929Z" fill="url(#paint1_linear_16_2326)"/>
<path d="M235.384 27.4929C235.558 26.956 236.318 26.956 236.492 27.4929L238.576 33.9072C238.654 34.1473 238.878 34.3098 239.131 34.3098H245.875C246.439 34.3098 246.674 35.0322 246.217 35.3641L240.761 39.3283C240.557 39.4767 240.471 39.7397 240.549 39.9799L242.634 46.3941C242.808 46.931 242.194 47.3775 241.737 47.0457L236.281 43.0814C236.076 42.933 235.8 42.933 235.595 43.0814L230.139 47.0457C229.682 47.3775 229.068 46.931 229.242 46.3941L231.326 39.9799C231.404 39.7397 231.319 39.4767 231.115 39.3283L225.658 35.3641C225.202 35.0322 225.436 34.3098 226.001 34.3098H232.745C232.998 34.3098 233.222 34.1473 233.3 33.9072L235.384 27.4929Z" fill="url(#paint2_linear_16_2326)"/>
<path d="M263.898 27.4929C264.072 26.956 264.832 26.956 265.006 27.4929L267.09 33.9072C267.169 34.1473 267.392 34.3098 267.645 34.3098H274.389C274.954 34.3098 275.188 35.0322 274.732 35.3641L269.275 39.3283C269.071 39.4767 268.986 39.7397 269.064 39.9799L271.148 46.3941C271.322 46.931 270.708 47.3775 270.251 47.0457L264.795 43.0814C264.59 42.933 264.314 42.933 264.11 43.0814L258.653 47.0457C258.197 47.3775 257.582 46.931 257.757 46.3941L259.841 39.9799C259.919 39.7397 259.833 39.4767 259.629 39.3283L254.173 35.3641C253.716 35.0322 253.951 34.3098 254.515 34.3098H261.26C261.512 34.3098 261.736 34.1473 261.814 33.9072L263.898 27.4929Z" fill="url(#paint3_linear_16_2326)"/>
<path d="M292.411 27.4929C292.586 26.956 293.345 26.956 293.52 27.4929L295.604 33.9072C295.682 34.1473 295.905 34.3098 296.158 34.3098H302.902C303.467 34.3098 303.702 35.0322 303.245 35.3641L297.789 39.3283C297.584 39.4767 297.499 39.7397 297.577 39.9799L299.661 46.3941C299.835 46.931 299.221 47.3775 298.764 47.0457L293.308 43.0814C293.104 42.933 292.827 42.933 292.623 43.0814L287.166 47.0457C286.71 47.3775 286.095 46.931 286.27 46.3941L288.354 39.9799C288.432 39.7397 288.346 39.4767 288.142 39.3283L282.686 35.3641C282.229 35.0322 282.464 34.3098 283.028 34.3098H289.773C290.025 34.3098 290.249 34.1473 290.327 33.9072L292.411 27.4929Z" fill="url(#paint4_linear_16_2326)"/>
<circle cx="31.3439" cy="38.1214" r="28.9868" fill="#6633CC" fill-opacity="0.15" stroke="url(#paint5_linear_16_2326)" stroke-width="3.57399"/>
<path d="M23.2683 21.9062C23.2683 21.9062 21.4824 16.9549 13.9494 17.9032C13.9494 17.9032 12.4272 18.247 9.66187 17.6611C9.66187 17.6611 10.6447 20.8691 10.9063 23.6547C11.1679 26.4401 12.7673 29.3226 14.6077 29.3226C14.6077 29.3226 24.3835 23.9617 23.2683 21.9062Z" fill="url(#paint6_linear_16_2326)"/>
<path d="M25.3383 23.2054C25.3383 23.2054 22.801 20.1825 25.5273 15.223C25.5273 15.223 27.7794 12.3598 24.7839 13.3826C24.7839 13.3826 23.7045 13.9749 23.096 15.7844C23.096 15.7844 20.0798 11.5644 25.3524 4.20818C25.3524 4.20818 29.5614 -0.36675 25.0806 1.36353C25.0806 1.36353 23.6553 1.8536 22.04 4.53069C22.04 4.53069 21.8343 2.09445 20.1981 3.52378C18.5622 4.95312 20.6899 4.74709 20.404 8.13933C20.1179 11.5316 19.913 19.2022 22.5319 23.6588C25.1509 28.1152 26.4144 24.6574 25.3383 23.2054Z" fill="url(#paint7_linear_16_2326)"/>
<path d="M39.5845 64.1154C39.5845 64.1154 34.6831 65.7668 28.6851 65.1855C28.6851 65.1855 30.3567 52.7784 24.5968 54.7779C18.8355 56.7773 13.5435 59.6193 8.29433 57.0111C8.29433 57.0111 3.65284 57.0152 3.61863 53.8187C3.58443 50.6221 12.0187 48.3226 12.8351 35.0201C13.6516 21.7177 31.8013 16.7681 40.8519 25.8062C49.9025 34.8441 43.7256 43.1426 41.4891 48.3119C39.2511 53.4813 39.5845 64.1154 39.5845 64.1154Z" fill="url(#paint8_linear_16_2326)"/>
<path d="M40.0668 29.2462C40.0668 29.2462 45.7517 18.8782 61.3837 21.3454C61.3837 21.3454 59.0332 26.4704 57.7103 30.2643C57.3839 31.199 57.0185 32.3496 56.7139 32.9215C54.8304 36.4652 46.4514 37.9185 42.5063 37.5512L40.0668 29.2462Z" fill="url(#paint9_linear_16_2326)"/>
<path opacity="0.736979" d="M19.4174 36.9644C21.2939 31.1639 27.5175 27.9827 33.318 29.8592C39.1185 31.7355 42.2983 37.959 40.4226 43.7596C38.5453 49.5601 32.3232 52.7413 26.5227 50.8648C20.7219 48.9885 17.5409 42.7651 19.4174 36.9644Z" fill="url(#paint10_linear_16_2326)"/>
<path opacity="0.589888" d="M41.4221 30.0612C41.4221 30.0612 47.9895 22.4382 57.6835 23.482C57.6835 23.482 56.3044 30.3098 54.6411 32.3748C52.9763 34.4397 46.045 34.8387 43.971 34.283C41.8969 33.7273 39.9853 31.5898 41.4221 30.0612Z" fill="url(#paint11_linear_16_2326)"/>
<path opacity="0.484931" d="M17.7308 35.1611C18.3244 33.9884 19.0653 33.1689 19.3855 33.331C19.7058 33.4931 19.4842 34.5753 18.8905 35.7482C18.2969 36.9209 17.5562 37.7404 17.2358 37.5783C16.9155 37.4162 17.1371 36.334 17.7308 35.1611Z" fill="#FFFCF6"/>
<path opacity="0.384334" d="M24.622 48.7256C25.937 48.7211 27.0037 49.0083 27.0053 49.3672C27.0068 49.7261 25.9417 50.021 24.6266 50.0255C23.3126 50.0302 22.246 49.743 22.2448 49.3841C22.2433 49.0252 23.308 48.7303 24.622 48.7256Z" fill="#FFFCF6"/>
<path opacity="0.384334" d="M30.0432 48.7315C30.8397 48.7287 31.4879 49.0168 31.4894 49.3749C31.491 49.7332 30.8444 50.0259 30.0479 50.0287C29.2498 50.0315 28.6017 49.7435 28.6001 49.3852C28.5985 49.027 29.2451 48.7343 30.0432 48.7315Z" fill="#FFFCF6"/>
<path opacity="0.384334" d="M26.8781 50.7549C27.8277 50.7515 28.5977 51.0093 28.5992 51.3309C28.6008 51.6523 27.8308 51.9156 26.8813 51.9189C25.9317 51.9224 25.1617 51.6645 25.1602 51.3429C25.1586 51.0215 25.9286 50.7582 26.8781 50.7549Z" fill="#FFFCF6"/>
<path opacity="0.484931" d="M13.3526 34.4473C13.4972 33.368 13.8233 32.5212 14.0807 32.5557C14.3382 32.5902 14.4297 33.4931 14.2851 34.5723C14.1403 35.6515 13.8144 36.4985 13.5569 36.4639C13.2993 36.4294 13.2079 35.5265 13.3526 34.4473Z" fill="#FFFCF6"/>
<path opacity="0.613325" d="M3.61764 53.5787C4.0854 52.1331 4.81616 51.4031 6.13947 50.1552C8.03595 48.367 9.2237 47.0093 12.322 48.0115C16.2436 49.2803 18.6369 53.0856 18.2737 57.0252C18.2633 57.1375 15.2909 58.119 12.3443 58.0763C10.8572 58.0548 9.37004 57.4351 8.28693 56.9956C7.99691 56.878 6.26113 57.0049 5.11572 56.3081C3.98701 55.6212 3.44475 54.1133 3.61764 53.5787Z" fill="url(#paint12_linear_16_2326)"/>
<path d="M8.42718 56.9543C8.42718 56.9543 3.91937 57.5798 3.65058 53.9188C3.3818 50.258 6.71811 51.5299 8.12622 52.4873C9.53417 53.4447 10.8553 54.6113 8.42718 56.9543Z" fill="#541D07" stroke="black" stroke-width="2.57295" stroke-miterlimit="10" stroke-linecap="round" stroke-linejoin="round"/>
<path d="M22.2448 44.7759C22.2448 44.7759 22.7436 31.2495 35.8528 36.2239C35.8528 36.2239 37.4786 37.0398 38.525 36.4617C38.525 36.4617 38.4454 36.853 38.2377 37.4738C37.2787 40.3457 33.5726 48.1264 22.2448 44.7759Z" fill="url(#paint13_linear_16_2326)" stroke="black" stroke-width="0.893499" stroke-miterlimit="10" stroke-linecap="round" stroke-linejoin="round"/>
<path d="M24.6256 39.6608C24.6256 37.4562 26.4126 35.6689 28.6176 35.6689C30.8214 35.6689 32.6095 37.4562 32.6095 39.6608C32.6095 41.8654 30.8214 43.6526 28.6176 43.6526C26.4126 43.6526 24.6256 41.8654 24.6256 39.6608Z" fill="url(#paint14_linear_16_2326)"/>
<path d="M37.6416 37.5675C37.6416 37.5675 37.4011 38.8235 36.9513 39.6603C36.9513 39.6603 38.1414 38.3746 38.0492 37.5675C37.9555 36.7604 37.8556 37.0068 37.6557 37.5402L37.6416 37.5675Z" fill="black"/>
<path d="M35.7563 36.5244C35.7563 36.5244 37.3088 37.1379 37.7289 37.6147C37.7289 37.6147 38.6519 36.6887 38.3599 36.6887C38.0678 36.6887 35.7563 36.5244 35.7563 36.5244Z" fill="black"/>
<path d="M38.2936 27.5341C38.2936 27.5341 42.5479 25.7268 42.3824 18.9908C42.3824 18.9908 41.5843 14.7302 44.1425 17.4516C44.1425 17.4516 44.9437 18.6684 44.6033 20.9147C44.6033 20.9147 49.9977 18.1038 48.4781 7.43921C48.4781 7.43921 46.5696 0.298445 50.2882 4.58068C50.2882 4.58068 51.5033 5.87867 51.7407 9.59356C51.7407 9.59356 53.2618 7.13013 54.1911 9.53702C55.1204 11.944 53.0245 10.5613 51.5001 14.3048C49.9758 18.0482 46.0698 26.2712 40.9612 29.5497C35.851 32.8284 36.3976 28.4802 38.2936 27.5341Z" fill="url(#paint15_linear_16_2326)"/>
<defs>
<linearGradient id="paint0_linear_16_2326" x1="174.454" y1="-4.65876" x2="153.446" y2="-0.350914" gradientUnits="userSpaceOnUse">
<stop stop-color="#F5C144"/>
<stop offset="1" stop-color="#6633CC"/>
</linearGradient>
<linearGradient id="paint1_linear_16_2326" x1="202.967" y1="-4.65876" x2="181.959" y2="-0.350914" gradientUnits="userSpaceOnUse">
<stop stop-color="#F5C144"/>
<stop offset="1" stop-color="#6633CC"/>
</linearGradient>
<linearGradient id="paint2_linear_16_2326" x1="231.48" y1="-4.65876" x2="210.472" y2="-0.350914" gradientUnits="userSpaceOnUse">
<stop stop-color="#F5C144"/>
<stop offset="1" stop-color="#6633CC"/>
</linearGradient>
<linearGradient id="paint3_linear_16_2326" x1="259.994" y1="-4.65876" x2="238.987" y2="-0.350914" gradientUnits="userSpaceOnUse">
<stop stop-color="#F5C144"/>
<stop offset="1" stop-color="#6633CC"/>
</linearGradient>
<linearGradient id="paint4_linear_16_2326" x1="288.507" y1="-4.65876" x2="267.5" y2="-0.350914" gradientUnits="userSpaceOnUse">
<stop stop-color="#F5C144"/>
<stop offset="1" stop-color="#6633CC"/>
</linearGradient>
<linearGradient id="paint5_linear_16_2326" x1="62.1176" y1="7.34765" x2="0.570068" y2="7.34765" gradientUnits="userSpaceOnUse">
<stop stop-color="#F5C144"/>
<stop offset="1" stop-color="#6633CC"/>
</linearGradient>
<linearGradient id="paint6_linear_16_2326" x1="9.66187" y1="23.4919" x2="23.357" y2="23.4919" gradientUnits="userSpaceOnUse">
<stop stop-color="#DBA064"/>
<stop offset="1" stop-color="#BE5C23"/>
</linearGradient>
<linearGradient id="paint7_linear_16_2326" x1="23.6664" y1="2.31152" x2="23.8186" y2="24.6245" gradientUnits="userSpaceOnUse">
<stop stop-color="#D59861"/>
<stop offset="0.858973" stop-color="#FEDCB9"/>
<stop offset="0.995596" stop-color="#FEDCB9" stop-opacity="0"/>
</linearGradient>
<linearGradient id="paint8_linear_16_2326" x1="41.8093" y1="33.7742" x2="37.1435" y2="69.8044" gradientUnits="userSpaceOnUse">
<stop stop-color="#DBA064"/>
<stop offset="1" stop-color="#BE5C23"/>
</linearGradient>
<linearGradient id="paint9_linear_16_2326" x1="40.2761" y1="34.0559" x2="61.3832" y2="29.2825" gradientUnits="userSpaceOnUse">
<stop stop-color="#DBA064"/>
<stop offset="1" stop-color="#BE5C23"/>
</linearGradient>
<linearGradient id="paint10_linear_16_2326" x1="32.4044" y1="25.8499" x2="33.7844" y2="45.3897" gradientUnits="userSpaceOnUse">
<stop stop-color="#FCE3A7"/>
<stop offset="1" stop-color="#FCE3A7" stop-opacity="0"/>
</linearGradient>
<linearGradient id="paint11_linear_16_2326" x1="56.128" y1="25.1853" x2="45.5773" y2="33.8288" gradientUnits="userSpaceOnUse">
<stop stop-color="#FCE3A7"/>
<stop offset="1" stop-color="#FCE3A7" stop-opacity="0"/>
</linearGradient>
<linearGradient id="paint12_linear_16_2326" x1="11.6062" y1="44.8708" x2="12.6873" y2="60.1779" gradientUnits="userSpaceOnUse">
<stop stop-color="#FCE3A7"/>
<stop offset="1" stop-color="#FCE3A7" stop-opacity="0"/>
</linearGradient>
<linearGradient id="paint13_linear_16_2326" x1="22.2448" y1="40.3616" x2="38.5244" y2="40.3616" gradientUnits="userSpaceOnUse">
<stop stop-color="#FBF9F6"/>
<stop offset="1" stop-color="#E5D5AF"/>
</linearGradient>
<linearGradient id="paint14_linear_16_2326" x1="29.1853" y1="37.7209" x2="30.059" y2="43.4249" gradientUnits="userSpaceOnUse">
<stop/>
<stop offset="1" stop-color="#86634B"/>
</linearGradient>
<linearGradient id="paint15_linear_16_2326" x1="53.4274" y1="4.46823" x2="39.2138" y2="30.1346" gradientUnits="userSpaceOnUse">
<stop stop-color="#D59861"/>
<stop offset="0.858973" stop-color="#FEDCB9"/>
<stop offset="0.995596" stop-color="#FEDCB9" stop-opacity="0"/>
</linearGradient>
</defs>
</svg>
