<svg width="136" height="140" viewBox="0 0 136 140" fill="none" xmlns="http://www.w3.org/2000/svg">
<g filter="url(#filter0_d_355_83)">
<circle cx="67.8731" cy="67.709" r="63.871" transform="rotate(-3.55551 67.8731 67.709)" fill="#241A4A"/>
<path d="M43.5467 59.5657L56.8362 67.1099L60.733 66.8684L51.606 61.6874L51.012 52.1807C52.5564 51.6634 53.624 50.1652 53.518 48.4689C53.3914 46.443 51.6387 44.9028 49.6032 45.029C47.5678 45.1551 46.0204 46.8998 46.147 48.9258C46.253 50.622 47.4988 51.9769 49.0957 52.2994L49.6116 60.5552L45.3838 58.1547L44.5031 44.0614C46.0475 43.5442 47.1151 42.0459 47.0091 40.3497C46.8825 38.3237 45.1298 36.7835 43.0944 36.9097C41.059 37.0358 39.5115 38.7806 39.6381 40.8065L39.6365 40.8066C39.7425 42.5028 40.9884 43.8577 42.5853 44.1803L43.5467 59.5657ZM47.8701 48.8182C47.8027 47.7396 48.6267 46.8105 49.7104 46.7434C50.794 46.6762 51.7273 47.4963 51.7947 48.575C51.8621 49.6536 51.0381 50.5826 49.9545 50.6498C48.8708 50.717 47.9375 49.8968 47.8701 48.8182ZM41.3605 40.6998C41.2931 39.6212 42.1171 38.6921 43.2008 38.6249C44.2844 38.5578 45.2177 39.3779 45.2852 40.4565C45.3526 41.5352 44.5285 42.4642 43.4449 42.5314C42.3612 42.5985 41.4279 41.7784 41.3605 40.6998Z" fill="url(#paint0_linear_355_83)"/>
<path d="M64.0817 64.0315L62.8353 44.0804C64.3794 43.5631 65.4468 42.0649 65.3408 40.3687C65.2143 38.3427 63.4619 36.8026 61.4269 36.9287C59.3919 37.0548 57.8447 38.7995 57.9713 40.8255C58.0773 42.5217 59.3229 43.8766 60.9195 44.1991L62.0877 62.8993L56.8803 59.9428L55.0882 31.2559C56.6323 30.7387 57.6997 29.2404 57.5937 27.5442C57.4672 25.5183 55.7148 23.9781 53.6798 24.1042C51.6448 24.2304 50.0976 25.9751 50.2242 28.001C50.3302 29.6973 51.5758 31.0521 53.1723 31.3747L55.0452 61.3536L64.358 66.642L68.2541 66.4005L64.0817 64.0315ZM59.7156 40.7174C59.6482 39.6388 60.4721 38.7097 61.5555 38.6425C62.6389 38.5754 63.5721 39.3955 63.6394 40.4741C63.7068 41.5528 62.883 42.4818 61.7995 42.549C60.7161 42.6161 59.783 41.796 59.7156 40.7174ZM51.9732 27.8926C51.9059 26.814 52.7297 25.885 53.8132 25.8178C54.8966 25.7507 55.8297 26.5708 55.8971 27.6494C55.9645 28.728 55.1406 29.6571 54.0572 29.7242C52.9738 29.7914 52.0406 28.9712 51.9732 27.8926Z" fill="url(#paint1_linear_355_83)"/>
<path d="M79.1063 24.4742C77.0713 24.6003 75.5241 26.345 75.6507 28.371C75.7566 30.0672 77.0023 31.4221 78.5989 31.7446L80.2618 58.362L75.5082 61.905L74.6936 48.8668C76.2377 48.3495 77.3052 46.8513 77.1992 45.1551C77.0726 43.1291 75.3202 41.589 73.2851 41.7151C71.2501 41.8413 69.7029 43.586 69.8295 45.6119C69.9354 47.3081 71.1811 48.663 72.7777 48.9855L73.6704 63.2748L69.5842 66.32L73.4804 66.0785L82.2584 59.5362L80.5148 31.6259C82.0589 31.1086 83.1263 29.6104 83.0204 27.9142C82.8938 25.8882 81.1414 24.348 79.1063 24.4742ZM71.5523 45.5043C71.4849 44.4257 72.3088 43.4967 73.3923 43.4295C74.4757 43.3624 75.4089 44.1825 75.4763 45.2611C75.5436 46.3397 74.7198 47.2688 73.6363 47.3359C72.5528 47.4031 71.6197 46.5829 71.5523 45.5043ZM81.2967 28.021C81.3641 29.0996 80.5402 30.0287 79.4567 30.0958C78.3733 30.163 77.4401 29.3429 77.3727 28.2642C77.3054 27.1856 78.1292 26.2566 79.2127 26.1894C80.2961 26.1223 81.2293 26.9424 81.2967 28.021Z" fill="url(#paint2_linear_355_83)"/>
<path d="M90.3068 30.9638C88.2715 31.0899 86.7241 32.8346 86.8507 34.8606C86.9566 36.5568 88.2025 37.9117 89.7993 38.2342L90.9218 56.1999L87.5598 58.7048L87.3154 54.7937C88.8597 54.2764 89.9273 52.7782 89.8213 51.0819C89.6947 49.056 87.9421 47.5158 85.9068 47.642C83.8715 47.7681 82.3241 49.5128 82.4507 51.5388C82.5566 53.235 83.8025 54.5899 85.3993 54.9124L85.7219 60.0754L78.0484 65.7943L81.945 65.5528L92.9188 57.3748L91.7154 38.1155C93.2597 37.5982 94.3273 36.1 94.2213 34.4038C94.0947 32.3778 92.3421 30.8376 90.3068 30.9638ZM86.2318 53.2652C85.1625 53.3315 84.2412 52.5106 84.1738 51.432C84.1064 50.3534 84.9184 49.425 85.9877 49.3588C87.057 49.2925 87.9784 50.1134 88.0458 51.192C88.1132 52.2706 87.3011 53.1989 86.2318 53.2652ZM92.4974 34.5114C92.5648 35.59 91.7409 36.5191 90.6573 36.5862C89.5737 36.6534 88.6404 35.8333 88.573 34.7546C88.5056 33.676 89.3296 32.747 90.4132 32.6798C91.4968 32.6126 92.4301 33.4328 92.4974 34.5114Z" fill="url(#paint3_linear_355_83)"/>
<path d="M61.9569 85.2269L58.5727 85.5819L58.7745 88.8114L65.1538 93.8587L64.7551 89.7633L61.9569 85.2269Z" fill="url(#paint4_linear_355_83)"/>
<path d="M92.0956 65.2295C90.6393 65.527 88.2212 66.3905 80.8517 70.2124C79.6278 69.4681 74.5592 66.66 69.3993 66.9464C61.7901 67.4179 56.8745 73.7591 56.8745 73.7591C56.4054 73.323 55.6722 72.6968 54.6876 72.079C52.6468 70.798 50.9869 70.4674 48.666 69.7721C47.2718 69.3544 45.2886 68.7001 42.9129 67.7018C43.9583 69.5605 44.8638 71.0429 45.5088 72.0715C47.4144 75.1066 47.885 75.5014 48.4188 76.9338C48.5443 77.2698 48.7781 77.9475 49.3199 78.7292C49.8986 79.5643 50.5515 80.12 51.0064 80.4554L55.5855 80.3201C55.0127 79.8729 52.4828 77.887 50.4734 75.9856C49.9935 75.5311 49.346 74.8956 48.751 73.9021C48.3583 73.2477 48.1204 72.6575 47.9784 72.2487C49.5507 72.4529 50.8016 72.8382 51.6733 73.1669C53.0654 73.6919 53.8831 74 54.6351 74.8132C54.8926 75.0917 55.2844 75.7581 56.0579 77.0804C56.2615 77.4282 56.9859 78.667 57.2056 79.0432C59.8655 82.0363 62.7766 82.73 63.2955 83.0051C63.8144 83.2801 65.4 83.6336 65.6589 86.8446C65.9179 90.0556 68.4709 92.4624 68.4709 92.4624C68.4709 92.4624 68.7664 92.8894 68.6848 93.1025C68.5621 93.4229 67.6413 93.1132 66.7679 93.6245C66.5224 93.7684 66.3972 93.9095 66.3633 94.0807C66.3163 94.3241 66.4724 94.5375 66.5295 94.6094C67.4139 95.6398 68.6944 96.0503 69.0348 96.7111C68.7605 96.6233 67.7316 96.3195 67.3605 96.7506C66.8973 97.2897 67.7216 98.6732 68.163 99.265C68.4599 99.6634 68.7622 99.944 68.9676 100.115L71.4627 99.9608L69.7017 71.7853C69.7017 71.7853 73.9352 81.6908 73.9752 82.791C74.0145 83.8912 73.4336 88.9556 72.4167 90.2864C72.1991 90.6468 71.9698 91.1381 71.8563 91.7477C71.8193 91.9469 71.8057 92.0985 71.7976 92.1983C71.6737 93.6881 71.7081 94.7108 71.7081 94.7108C71.7434 95.7486 71.7503 97.4788 71.7487 99.7899L73.6653 99.6711C73.7406 98.8329 73.9203 97.8032 74.324 96.6811C75.2048 94.233 76.6924 92.6221 77.6256 91.7657C78.8767 90.5593 80.1287 89.3528 81.3799 88.1464L81.225 83.2951L77.2542 83.6913C77.2542 83.6913 75.0198 91.604 73.9367 92.1427C72.8535 92.6806 75.3009 85.1388 75.3641 84.2482C76.6976 83.5678 79.0744 82.1193 80.9805 79.383C82.102 77.7734 82.7101 76.2211 83.0528 75.0662C83.2732 74.65 83.8053 73.7827 84.8541 73.116C85.8108 72.5073 86.7303 72.363 87.1976 72.3222C87.0969 73.1485 86.8856 73.7752 86.7167 74.1874C86.1039 75.6781 85.1047 76.6284 83.2701 78.3393C82.6988 78.8725 82.2114 79.2949 81.8804 79.575C83.6929 79.3729 85.0443 79.2598 85.9638 79.1933C86.4014 79.1614 88.0644 79.0449 88.0644 79.0449C89.1695 76.9171 90.0806 75.0689 90.7872 73.5985C92.0684 70.9327 92.5322 69.8148 92.9174 68.3961C93.2961 67.0024 93.4645 65.8163 93.5479 65.0077C93.0714 65.0666 92.5849 65.1309 92.0949 65.2311L92.0956 65.2295ZM77.7876 85.13L80.1292 84.6896L80.3035 87.4788L75.8227 91.586L77.7876 85.13ZM78.9883 78.6999C77.88 80.7247 75.9784 81.5173 75.3546 81.7473L71.1851 69.4833C76.2038 71.0204 77.6237 72.1565 77.6237 72.1565C78.4332 72.805 79.264 73.4878 79.6346 74.6826C80.196 76.4928 79.2897 78.1494 78.9883 78.6999ZM91.1767 69.4153C90.8693 70.2283 90.4144 71.4242 89.7389 72.8561C89.1951 74.0092 88.4226 75.4971 87.3548 77.1733L86.174 77.2464C86.8771 76.4614 87.3758 75.7359 87.7134 75.1894C88.2292 74.354 88.9109 73.2266 89.2376 71.625C89.3755 70.948 89.4122 70.3733 89.4194 69.9783C87.8597 69.9488 86.6901 70.342 86.0473 70.612C84.4221 71.2962 83.4565 72.3365 82.8207 73.0372C81.8907 74.0609 81.3213 75.0719 80.9792 75.8012L80.4186 72.7399C81.422 72.2419 82.9375 71.4605 84.7532 70.404C85.977 69.6915 86.4522 69.3691 87.445 68.8146C88.5279 68.2085 90.1159 67.3885 92.1672 66.5651C91.9287 67.319 91.6011 68.2927 91.1767 69.4153Z" fill="url(#paint5_linear_355_83)"/>
<path d="M82.0937 88.8376C82.0937 88.8376 81.4061 89.5685 80.4112 90.6192C79.2352 91.8614 75.5432 95.7728 75.2917 96.2949C74.9534 96.9977 74.9262 97.4582 74.5971 98.5535C74.3004 99.5419 73.9735 100.326 73.7378 100.845L71.5342 101.126L69.6197 101.245C69.6197 101.245 69.5595 101.47 69.4071 101.701C69.4071 101.701 69.1317 102.069 68.6423 102.192C67.9486 102.365 66.9101 100.857 66.0106 99.6081C63.1443 95.6278 62.1529 94.9026 61.7223 94.611C61.2275 94.2757 60.8956 94.1209 60.2107 93.5902C59.0833 92.717 58.3024 91.8351 57.8195 91.2292L54.0204 97.9438C54.0204 97.9438 56.0622 105.518 57.2313 106.728C57.8077 107.323 58.4229 107.914 58.4229 107.914C60.3317 109.599 62.0185 110.166 63.8347 111.019C65.0445 111.587 66.7167 112.472 68.6273 113.827L74.5235 113.462L84.1768 106.824L87.4019 96.8245L82.0938 88.8392L82.0937 88.8376ZM81.9262 90.9135L85.112 95.7202L77.5739 95.8922L81.9262 90.9135ZM71.1166 106.309L71.4886 102.751L73.2294 102.201L73.2568 102.641L72.4454 106.226L71.1166 106.309ZM73.7033 112.334L72.5334 112.406L72.4971 111.824L75.8736 98.2076L82.2293 106.503L73.7033 112.334ZM83.2565 105.114L76.7708 97.2677L86.097 97.2777L83.2565 105.114Z" fill="url(#paint6_linear_355_83)"/>
</g>
<defs>
<filter id="filter0_d_355_83" x="0" y="3.83579" width="135.746" height="135.746" filterUnits="userSpaceOnUse" color-interpolation-filters="sRGB">
<feFlood flood-opacity="0" result="BackgroundImageFix"/>
<feColorMatrix in="SourceAlpha" type="matrix" values="0 0 0 0 0 0 0 0 0 0 0 0 0 0 0 0 0 0 127 0" result="hardAlpha"/>
<feOffset dy="4"/>
<feGaussianBlur stdDeviation="2"/>
<feComposite in2="hardAlpha" operator="out"/>
<feColorMatrix type="matrix" values="0 0 0 0 0 0 0 0 0 0 0 0 0 0 0 0 0 0 0.25 0"/>
<feBlend mode="normal" in2="BackgroundImageFix" result="effect1_dropShadow_355_83"/>
<feBlend mode="normal" in="SourceGraphic" in2="effect1_dropShadow_355_83" result="shape"/>
</filter>
<linearGradient id="paint0_linear_355_83" x1="66.9297" y1="24.097" x2="66.9297" y2="113.827" gradientUnits="userSpaceOnUse">
<stop stop-color="#6633CC"/>
<stop offset="1" stop-color="#F5C144"/>
</linearGradient>
<linearGradient id="paint1_linear_355_83" x1="66.9297" y1="24.097" x2="66.9297" y2="113.827" gradientUnits="userSpaceOnUse">
<stop stop-color="#6633CC"/>
<stop offset="1" stop-color="#F5C144"/>
</linearGradient>
<linearGradient id="paint2_linear_355_83" x1="66.9297" y1="24.097" x2="66.9297" y2="113.827" gradientUnits="userSpaceOnUse">
<stop stop-color="#6633CC"/>
<stop offset="1" stop-color="#F5C144"/>
</linearGradient>
<linearGradient id="paint3_linear_355_83" x1="66.9297" y1="24.097" x2="66.9297" y2="113.827" gradientUnits="userSpaceOnUse">
<stop stop-color="#6633CC"/>
<stop offset="1" stop-color="#F5C144"/>
</linearGradient>
<linearGradient id="paint4_linear_355_83" x1="66.9297" y1="24.097" x2="66.9297" y2="113.827" gradientUnits="userSpaceOnUse">
<stop stop-color="#6633CC"/>
<stop offset="1" stop-color="#F5C144"/>
</linearGradient>
<linearGradient id="paint5_linear_355_83" x1="66.9297" y1="24.097" x2="66.9297" y2="113.827" gradientUnits="userSpaceOnUse">
<stop stop-color="#6633CC"/>
<stop offset="1" stop-color="#F5C144"/>
</linearGradient>
<linearGradient id="paint6_linear_355_83" x1="66.9297" y1="24.097" x2="66.9297" y2="113.827" gradientUnits="userSpaceOnUse">
<stop stop-color="#6633CC"/>
<stop offset="1" stop-color="#F5C144"/>
</linearGradient>
</defs>
</svg>
