<svg width="15" height="15" viewBox="0 0 15 15" fill="none" xmlns="http://www.w3.org/2000/svg">
<mask id="mask0_673_11987" style="mask-type:alpha" maskUnits="userSpaceOnUse" x="0" y="0" width="15" height="15">
<rect width="14.7266" height="14.7266" fill="#D9D9D9"/>
</mask>
<g mask="url(#mask0_673_11987)">
<path d="M9.2787 9.23072C8.96208 8.9141 8.80377 8.52962 8.80377 8.07729C8.80377 7.62496 8.96208 7.24049 9.2787 6.92387C9.59532 6.60725 9.9798 6.44894 10.4321 6.44894C10.8845 6.44894 11.2689 6.60725 11.5856 6.92387C11.9022 7.24049 12.0605 7.62496 12.0605 8.07729C12.0605 8.52962 11.9022 8.9141 11.5856 9.23072C11.2689 9.54734 10.8845 9.70565 10.4321 9.70565C9.9798 9.70565 9.59532 9.54734 9.2787 9.23072ZM10.9342 8.57938C11.0715 8.44213 11.1401 8.27477 11.1401 8.07729C11.1401 7.87982 11.0715 7.71245 10.9342 7.57521C10.797 7.43786 10.6296 7.36919 10.4321 7.36919C10.2346 7.36919 10.0673 7.43786 9.93005 7.57521C9.7928 7.71245 9.72418 7.87982 9.72418 8.07729C9.72418 8.27477 9.7928 8.44213 9.93005 8.57938C10.0673 8.71662 10.2346 8.78524 10.4321 8.78524C10.6296 8.78524 10.797 8.71662 10.9342 8.57938ZM6.96295 13.6646V12.0975C6.96295 11.9199 7.00529 11.7528 7.08997 11.5963C7.17464 11.4399 7.29317 11.3151 7.44555 11.222C7.75123 11.0397 8.07363 10.8885 8.41275 10.7686C8.75187 10.6486 9.09815 10.5598 9.45159 10.5023L10.4321 11.7353L11.4068 10.5023C11.7622 10.5598 12.108 10.6486 12.4441 10.7686C12.7802 10.8885 13.1019 11.0397 13.4093 11.222C13.5619 11.3148 13.6811 11.4391 13.7668 11.5949C13.8526 11.7507 13.8974 11.9163 13.9013 12.0917V13.6646H6.96295ZM7.86802 12.7442H10.0557L9.10352 11.5311C8.88671 11.5861 8.67593 11.6574 8.47119 11.7451C8.26645 11.833 8.0654 11.9308 7.86802 12.0386V12.7442ZM10.8086 12.7442H12.9809V12.0386C12.7898 11.9245 12.5918 11.8261 12.3871 11.7436C12.1824 11.661 11.9717 11.5921 11.7549 11.5371L10.8086 12.7442ZM3.26045 12.579C2.95262 12.579 2.6903 12.4704 2.4735 12.2532C2.25679 12.036 2.14844 11.7748 2.14844 11.4698V3.25695C2.14844 2.95189 2.25705 2.69075 2.47426 2.47353C2.69148 2.25631 2.95262 2.14771 3.25769 2.14771H11.4705C11.7756 2.14771 12.0367 2.25631 12.2539 2.47353C12.4711 2.69075 12.5798 2.95189 12.5798 3.25695V5.92369C12.4515 5.77816 12.3148 5.64189 12.1697 5.51487C12.0246 5.38786 11.8545 5.29955 11.6593 5.24995V3.25695C11.6593 3.20183 11.6416 3.15658 11.6063 3.12119C11.5709 3.08581 11.5256 3.06812 11.4705 3.06812H3.25769C3.20256 3.06812 3.15731 3.08581 3.12192 3.12119C3.08654 3.15658 3.06885 3.20183 3.06885 3.25695V11.4698C3.06885 11.5249 3.08654 11.5701 3.12192 11.6055C3.15731 11.6409 3.20256 11.6586 3.25769 11.6586H5.55626C5.53744 11.7317 5.52327 11.8049 5.51376 11.8781C5.50436 11.9512 5.49965 12.0244 5.49965 12.0975V12.579H3.26045ZM4.44946 5.43986H8.87449C9.08138 5.29433 9.30498 5.18618 9.54531 5.11541C9.78564 5.04465 10.0301 5.00532 10.2787 4.99745V4.5196H4.44946V5.43986ZM4.44946 7.82357H7.36992C7.3778 7.65994 7.39984 7.5024 7.43604 7.35094C7.47224 7.19958 7.51944 7.05032 7.57763 6.90316H4.44946V7.82357ZM4.44946 10.2071H6.36576C6.47437 10.1191 6.58865 10.0383 6.70861 9.96475C6.82857 9.89112 6.95109 9.82561 7.07616 9.76824V9.28687H4.44946V10.2071ZM3.06885 11.6586V3.06812V5.24059V4.98564V11.6586Z" fill="#FCF7FF"/>
</g>
</svg>
