<svg width="587" height="912" viewBox="0 0 587 912" fill="none" xmlns="http://www.w3.org/2000/svg">
<path d="M447.461 627.054L464.065 677.88L505.699 670.392L495.894 614.83C495.894 614.83 469.72 621.555 447.461 627.054Z" fill="url(#paint0_linear_38_302)"/>
<path d="M362.437 611.243L377.426 662.488L416.867 656.369L408.369 600.624C408.369 600.624 383.546 606.483 362.437 611.243Z" fill="url(#paint1_linear_38_302)"/>
<path d="M373.383 653.371C373.383 653.371 396.899 661.085 416.47 648.098C416.47 648.098 418.136 645.75 425.537 684.885C425.537 684.885 436.184 703.259 412.619 710.555C389.057 717.856 385.403 700.624 385.183 699.617C384.962 698.605 367.974 651.626 373.383 653.371Z" fill="#D0D0D0"/>
<path d="M456.822 654.783C456.822 654.783 479.52 668.598 501.02 644.826C501.02 644.826 501.463 639.799 509.93 678.497C518.394 717.201 519.646 721.688 519.646 721.688C519.646 721.688 492.328 751.199 474.816 725.26C474.816 725.26 451.769 651.826 456.822 654.783Z" fill="#D0D0D0"/>
<path d="M472.316 715.733C472.316 715.733 476.273 732.416 478.308 723.304C480.347 714.191 478.158 715.674 491.262 713.25C504.365 710.821 505.471 710.735 509.586 716.737C513.701 722.738 516.364 719.359 516.511 709.624L546.081 793.142L472.46 805L472.316 715.733Z" fill="#484559"/>
<path d="M474.698 819.374C474.698 819.374 485.324 836.313 514.168 829.115C543.007 821.913 549.935 812.033 547.71 801.121C545.486 790.213 532.087 773.723 502.396 779.92C472.701 786.119 470.142 807.453 474.698 819.374Z" fill="white"/>
<path d="M473.101 818.915C473.101 818.915 486.091 836.764 512.233 830.151C538.379 823.532 548.216 812.758 548.384 804.246C548.384 804.246 552.719 814.162 552.732 819.468C552.732 819.468 537.796 837.155 515.088 840.032C492.375 842.906 481.903 839.565 475.783 831.3L473.101 818.915Z" fill="#EAEAEA"/>
<path d="M477.487 734.193C477.487 734.193 492.863 721.137 512.527 725.828C512.527 725.828 517.439 728.696 511.072 728.975C504.701 729.26 489.697 729.741 480.456 736.62C480.456 736.62 474.573 737.675 477.487 734.193Z" fill="#EAEAEA"/>
<path d="M478.798 745.795C478.798 745.795 479.44 740.719 496.962 737.867C514.484 735.015 521.858 737.058 520.074 742.396C520.074 742.396 490.277 743.965 480.728 750.207C480.728 750.207 476.015 748.722 478.798 745.795Z" fill="#EAEAEA"/>
<path d="M479.015 759.42C479.015 759.42 501.297 746.219 523.397 752.09C523.397 752.09 526.589 757.848 520.117 758.11C520.117 758.11 495.109 752.916 480.78 765.616C480.78 765.616 477.425 762.952 479.015 759.42Z" fill="#EAEAEA"/>
<path d="M316.094 434.597C316.094 434.597 327.329 478.964 329.047 504.936C330.765 530.907 332.039 599.091 339.864 613.101C347.689 627.111 354.274 629.59 366.575 629.633C378.878 629.681 407.44 635.473 413.917 622.469C420.399 609.468 436.585 470.164 378.472 422.92C320.358 375.676 316.094 434.597 316.094 434.597Z" fill="url(#paint2_linear_38_302)"/>
<path d="M356.535 449.392C356.535 449.392 376.471 467.307 383.339 489.074C390.205 510.836 403.969 567.542 405.947 576.579C407.924 585.615 413.642 598.304 417.97 616.622C422.303 634.935 424.22 633.205 442.66 634.252C461.102 635.303 472.737 639.543 496.399 619.918C520.062 600.294 519.346 605.709 497.919 540.296C476.491 474.878 485.464 447.692 464.256 422.421C443.047 397.147 355.712 428.988 356.535 449.392Z" fill="url(#paint3_linear_38_302)"/>
<path d="M308.68 418.451C308.68 418.451 301.979 441.711 306.38 444.814C310.782 447.916 324.143 450.917 328.704 447.391C333.266 443.864 335.897 443.438 342.41 447.047C348.925 450.661 363.808 445.372 374.717 445.381C385.629 445.385 394.009 441.803 397.541 441.335C401.072 440.867 413.949 446.305 426.089 436.457C438.228 426.609 451.977 427.536 461.847 427.892C471.71 428.245 471.633 429.04 466.02 419.738C460.402 410.438 471.747 380.39 437.553 396.42C403.354 412.45 307.131 418.668 307.131 418.668" fill="url(#paint4_linear_38_302)"/>
<path d="M316.602 188.924C316.602 188.924 318.496 197.704 318.778 200.227C318.778 200.227 339.279 204.87 348.553 192.207C348.553 192.207 347.031 186.716 346.589 183.271C346.151 179.825 353.53 183.305 354.434 185.589C355.337 187.871 355.331 192.218 357.46 194.257C359.592 196.295 366.727 200.233 368.897 202.862C371.061 205.492 390.764 253.848 390.764 253.848L291.926 270.202C291.926 270.202 292.239 221.556 310.024 209.618C310.024 209.618 311.958 210.132 308.674 197.564C308.674 197.564 305.617 191.028 316.602 188.924Z" fill="url(#paint5_linear_38_302)"/>
<path d="M291.021 259.397C291.021 259.397 294.509 289.271 297.275 301.675C300.041 314.078 315.448 330.668 300.634 385.329C300.634 385.329 292.045 394.025 279.999 398.28C267.954 402.536 260.749 400.664 249.461 400.782C238.172 400.901 228.701 391.49 215.07 384.875C201.44 378.261 193.914 358.809 186.707 352.508C179.5 346.207 171.506 341.87 191.092 335C210.677 328.13 210.678 312.992 218.223 319.854C225.768 326.716 225.863 331.381 234.886 330.248C243.908 329.114 252.444 340.539 247.91 326.723C243.376 312.907 249.562 320.216 250.321 320.188C251.079 320.159 243.13 314.77 252.715 303.287C262.3 291.804 260.096 282.19 271.426 276.366C282.756 270.542 291.021 259.397 291.021 259.397Z" fill="url(#paint6_linear_38_302)"/>
<path d="M283.396 225.893C283.396 225.893 278.177 235.121 276.817 237.274C275.456 239.428 274.247 242.851 273.86 244.939C273.473 247.026 272.022 252.488 268.21 261.314C264.398 270.14 241.925 292.083 247.27 300.122C252.614 308.162 257.413 305.155 270.204 321.257C282.995 337.36 303.649 339.453 303.128 329.286C302.606 319.119 317.214 301.392 313.587 286.285C309.959 271.179 297.94 221.373 283.396 225.893Z" fill="url(#paint7_linear_38_302)"/>
<path d="M346.759 181.753C346.759 181.753 352.79 181.919 354.75 186.016C356.711 190.112 355.438 190.114 363.343 191.839C371.245 193.565 381.4 204.831 329.41 240.155C329.41 240.155 299.044 230.763 300.687 219.471C302.33 208.179 309.652 205.328 309.652 205.328C309.652 205.328 302.397 190.563 316.829 189.026C316.829 189.026 313.946 181.054 312.739 179.955C311.537 178.856 288.092 191.621 282.707 207.194C282.707 207.194 280.337 211.246 283.549 220.022C286.762 228.797 278.652 235.521 314.603 242.546L330.972 246.02C330.972 246.02 394.179 240.91 407.389 220.306C407.389 220.306 414.435 210.028 400.019 190.654C385.607 171.28 392.739 163.587 344.774 170.941C344.774 170.941 345.057 176.905 346.759 181.753Z" fill="url(#paint8_linear_38_302)"/>
<path d="M294.956 237.54C294.956 237.54 307.469 268.983 301.44 315.785C295.409 362.587 287.558 385.248 300.358 406.651C300.358 406.651 303.599 413.685 303.287 422.094C302.976 430.503 304.825 431.527 347.169 427.334C389.512 423.141 465.771 423.87 463.088 413.327C460.404 402.781 456.567 223.701 392.43 216.721C392.43 216.721 332.905 242.497 330.604 242.942C328.308 243.387 294.956 237.54 294.956 237.54Z" fill="url(#paint9_linear_38_302)"/>
<path d="M464.445 289.489C464.445 289.489 419.192 243.36 401.704 298.763C401.704 298.763 404.39 303.269 404.522 318.015C404.653 332.76 408.561 326.515 409.327 330.014C410.093 333.514 411.739 340.276 414.947 344.422C418.15 348.568 422.768 351.197 423.207 361.977C423.647 372.757 422.73 396.647 425.693 409.294C428.655 421.94 429.05 427.316 427.144 433.108C425.237 438.9 421.252 440.907 433.017 447.889C444.779 454.875 460.553 461.852 459.246 466.434C459.246 466.434 466.203 457.347 466.351 445.618C466.499 433.893 481.718 432.744 480.886 411.909C480.054 391.073 485.713 382.51 483.227 373.355C480.745 364.2 490.638 343.023 479.624 325.795C468.614 308.565 474.839 294.664 464.445 289.489Z" fill="url(#paint10_linear_38_302)"/>
<path d="M409.959 227.808C409.959 227.808 423.116 230.894 437.135 247.03C451.154 263.166 460.581 277.09 463.017 283.021C465.449 288.952 471.359 299.036 474.237 306.437C477.121 313.838 476.159 314.52 469.888 309.983C463.611 305.447 440.164 298.83 423.895 315.522C407.621 332.215 408.28 334.249 404.16 324.678C400.04 315.108 367.303 235.091 409.959 227.808Z" fill="url(#paint11_linear_38_302)"/>
<path d="M277.005 88.0903C277.005 88.0903 268.971 75.6594 248.031 82.3952C248.031 82.3952 243.89 84.1686 235.649 84.1102C235.649 84.1102 240.357 92.2605 242.755 99.6651C245.154 107.069 251.428 113.996 256.682 112.979C256.682 112.979 281.407 93.0442 277.005 88.0903Z" fill="url(#paint12_linear_38_302)"/>
<path d="M283.679 90.4683C283.679 90.4683 274.644 83.6792 279.485 68.7309C279.485 68.7309 284.215 59.7259 276.271 64.1544C276.271 64.1544 273.542 66.3563 272.878 71.5966C272.878 71.5966 261.766 61.8282 272.454 38.9764C272.454 38.9764 281.756 24.2502 269.992 31.4174C269.992 31.4174 266.214 33.5337 263.19 41.6822C263.19 41.6822 261.158 35.1935 257.336 39.9719C253.513 44.7503 259.465 43.0152 260.66 52.3667C261.855 61.7182 265.818 82.6195 275.937 93.249C286.055 103.878 287.611 93.8082 283.679 90.4683Z" fill="url(#paint13_linear_38_302)"/>
<path d="M348.851 193.798C348.851 193.798 335.791 211.5 318.685 200.243C318.685 200.243 315.549 167.837 300.293 176.441C285.034 185.046 271.613 195.674 255.083 191.509C255.083 191.509 241.837 194.086 239.844 185.442C237.851 176.798 260.562 165.902 255.005 129.4C249.447 92.8975 298.32 69.4466 329.514 88.9356C360.707 108.424 347.996 134.33 344.678 149.576C341.355 164.823 348.851 193.798 348.851 193.798Z" fill="url(#paint14_linear_38_302)"/>
<path d="M329.309 98.692C329.309 98.692 339.388 67.45 385.472 65.4916C385.472 65.4916 381.802 80.6808 380.275 91.6941C379.898 94.4079 379.537 97.7281 379.007 99.4465C375.732 110.092 352.676 118.664 341.197 119.85L329.309 98.692Z" fill="url(#paint15_linear_38_302)"/>
<path opacity="0.736979" d="M274.943 131.028C276.859 114.27 292.738 102.207 310.408 104.085C328.078 105.962 340.845 121.07 338.93 137.827C337.011 154.585 321.136 166.648 303.467 164.77C285.796 162.893 273.026 147.786 274.943 131.028Z" fill="url(#paint16_linear_38_302)"/>
<path opacity="0.589888" d="M333.66 100.151C333.66 100.151 347.886 75.86 376.176 73.3278C376.176 73.3278 376.289 92.5945 372.765 99.1107C369.237 105.627 349.689 110.542 343.439 110.183C337.189 109.824 330.465 105.088 333.66 100.151Z" fill="url(#paint17_linear_38_302)"/>
<path opacity="0.484931" d="M269.062 127.076C270.061 123.569 271.69 120.939 272.7 121.201C273.71 121.463 273.719 124.519 272.72 128.026C271.721 131.532 270.093 134.163 269.082 133.901C268.072 133.638 268.063 130.583 269.062 127.076Z" fill="#FFFCF6"/>
<path opacity="0.384334" d="M296.775 160.026C300.526 159.287 303.741 159.475 303.958 160.447C304.176 161.419 301.31 162.807 297.559 163.547C293.811 164.286 290.596 164.097 290.38 163.125C290.163 162.154 293.027 160.766 296.775 160.026Z" fill="#FFFCF6"/>
<path opacity="0.384334" d="M312.252 157.041C314.524 156.593 316.544 157.016 316.761 157.986C316.978 158.956 315.306 160.106 313.034 160.555C310.758 161.003 308.737 160.581 308.52 159.611C308.303 158.641 309.975 157.49 312.252 157.041Z" fill="#FFFCF6"/>
<path opacity="0.384334" d="M304.416 164.28C307.124 163.745 309.475 164.018 309.67 164.889C309.865 165.759 307.823 166.899 305.115 167.433C302.406 167.967 300.056 167.694 299.861 166.823C299.665 165.953 301.707 164.814 304.416 164.28Z" fill="#FFFCF6"/>
<path opacity="0.484931" d="M256.139 127.562C255.911 124.557 256.34 122.082 257.095 122.033C257.851 121.984 258.648 124.38 258.875 127.385C259.101 130.39 258.673 132.866 257.918 132.914C257.162 132.963 256.366 130.567 256.139 127.562Z" fill="#FFFCF6"/>
<path opacity="0.613325" d="M239.7 184.793C240.178 180.617 241.831 178.234 244.868 174.121C249.221 168.226 251.807 163.889 261.245 164.892C273.191 166.162 282.279 175.151 283.579 186.029C283.616 186.339 275.713 190.642 267.277 192.156C263.019 192.92 258.407 192.063 255.054 191.471C254.157 191.313 249.277 192.617 245.595 191.362C241.965 190.124 239.523 186.338 239.7 184.793Z" fill="url(#paint18_linear_38_302)"/>
<path d="M255.431 191.281C255.431 191.281 242.935 195.469 239.997 185.696C237.059 175.923 247.336 177.525 251.923 179.341C256.51 181.157 260.973 183.588 255.431 191.281Z" fill="#541D07" stroke="black" stroke-width="2.47209" stroke-miterlimit="10" stroke-linecap="round" stroke-linejoin="round"/>
<path d="M287.647 150.635C287.647 150.635 281.05 113.701 321.42 119.933C321.42 119.933 326.544 121.245 329.188 119.1C329.188 119.1 329.193 120.204 328.968 122.002C327.934 130.315 321.969 153.451 287.647 150.635Z" fill="url(#paint19_linear_38_302)" stroke="black" stroke-width="2.47209" stroke-miterlimit="10" stroke-linecap="round" stroke-linejoin="round"/>
<path d="M291.709 136.834C290.004 129.043 295.273 121.439 303.481 119.849C311.684 118.259 319.721 123.286 321.426 131.077C323.131 138.868 317.857 146.473 309.654 148.062C301.447 149.652 293.413 144.625 291.709 136.834Z" fill="url(#paint20_linear_38_302)"/>
<path d="M287.925 150.619C287.925 150.619 280.941 113.235 321.196 119.907C321.196 119.907 326.312 121.281 328.919 119.137C328.919 119.137 328.936 120.254 328.733 122.068C327.797 130.459 322.12 153.784 287.925 150.619Z" stroke="black" stroke-width="2.47209" stroke-miterlimit="10" stroke-linecap="round" stroke-linejoin="round"/>
<path d="M327.295 122.583C327.295 122.583 327.391 126.129 326.643 128.644C326.643 128.644 329.191 124.516 328.438 122.368C327.68 120.22 327.551 120.944 327.317 122.501L327.295 122.583Z" fill="black"/>
<path d="M321.316 120.754C321.316 120.754 326.108 121.615 327.599 122.705C327.599 122.705 329.645 119.659 328.815 119.815C327.986 119.971 321.316 120.754 321.316 120.754Z" fill="black"/>
<path d="M323.229 95.0355C323.229 95.0355 334.301 87.7849 329.834 69.6212C329.834 69.6212 325.03 58.516 333.946 64.4766C333.946 64.4766 336.954 67.3312 337.314 73.6072C337.314 73.6072 351.046 63.0062 340.384 34.9444C340.384 34.9444 330.702 16.6477 343.856 26.1965C343.856 26.1965 348.094 29.0422 350.975 38.9787C350.975 38.9787 353.856 31.4613 357.936 37.4703C362.016 43.4795 355.213 40.8914 353.082 51.8795C350.95 62.8676 344.677 87.3128 332.038 99.023C319.396 110.734 318.378 98.6482 323.229 95.0355Z" fill="url(#paint21_linear_38_302)"/>
<path d="M136.871 271.633L188.51 312.208C188.51 312.208 197.604 310.713 203.227 305.664C208.85 300.616 211.003 292.014 211.003 292.014L174.835 244.959C174.835 244.959 162.758 266.57 136.871 271.633Z" fill="white"/>
<path d="M129.877 270.298C126.111 265.48 133.179 254.472 145.662 245.71C158.145 236.948 171.317 233.752 175.082 238.57C178.847 243.388 171.78 254.397 159.297 263.159C146.814 271.92 133.642 275.117 129.877 270.298Z" fill="#3E2A1E"/>
<path d="M142.856 276.022L133.348 273.23C133.348 273.23 166.458 266.684 176.554 241.371L179.244 250.162C179.244 250.162 167.765 271.502 142.856 276.022Z" fill="#573B2B"/>
<path d="M133.188 272.832C133.188 272.832 129.478 270.364 130.497 269.268C131.515 268.171 163.874 259.289 173.352 238.556C173.352 238.556 176.035 238.321 176.762 241.642C177.489 244.963 164.81 274.04 133.188 272.832Z" fill="#3E2A1E"/>
<path d="M427.659 444.23C427.659 444.23 452.549 460.458 460.961 460.822L457.963 470.355C457.963 470.355 439.563 471.299 426.481 449.784L427.659 444.23Z" fill="url(#paint22_linear_38_302)"/>
<path d="M181.744 338.776C181.744 338.776 162.195 330.786 156.483 317.818C156.483 317.818 155.776 303.723 164.305 293.497C172.833 283.27 180.908 278.93 183.594 278.214C183.594 278.214 189.18 281.71 183.57 287.597C177.961 293.483 170.687 301.839 171.205 304.21C171.724 306.58 172.197 311.407 172.197 311.407C172.197 311.407 169.561 300.851 189.089 287.848C189.089 287.848 194.575 287.158 189.706 297.971C189.706 297.971 184.054 305.607 183.481 307.067C182.555 309.424 190.881 312.801 190.881 312.801C190.881 312.801 193.813 311.697 197.068 309.806C200.323 307.915 203.901 305.236 203.901 305.236L208.247 322.875C208.247 322.875 208.194 336.021 181.744 338.776Z" fill="url(#paint23_linear_38_302)"/>
<path d="M156.73 316.669C156.73 316.669 149.23 298.423 149.344 289.064C149.459 279.704 148.509 281.372 148.509 281.372L161.035 291.382C161.035 291.382 158.696 293.602 161.741 299.057C164.787 304.512 157.597 316.494 157.597 316.494L156.73 316.669Z" fill="url(#paint24_linear_38_302)"/>
<path d="M237.53 144.736C236.826 133.399 241.271 123.945 247.457 123.62C253.644 123.295 259.229 132.222 259.932 143.56C260.636 154.897 256.191 164.351 250.005 164.675C243.818 165 238.233 156.073 237.53 144.736Z" fill="#FEF4EE" fill-opacity="0.427002" stroke="#3A1D0C" stroke-width="2.47209" stroke-miterlimit="10" stroke-linecap="round" stroke-linejoin="round"/>
<path d="M260.194 141.32C260.194 141.32 263.213 135.008 272.348 141.687" stroke="#3A1D0C" stroke-width="2.47209" stroke-miterlimit="10" stroke-linecap="round" stroke-linejoin="round"/>
<path d="M273.018 144.312C270.237 131.602 277.872 119.383 290.07 117.02C302.272 114.656 314.418 123.043 317.199 135.752C319.98 148.462 312.342 160.682 300.14 163.046C287.943 165.409 275.799 157.021 273.018 144.312Z" fill="#FEF4EE" fill-opacity="0.412105" stroke="#3A1D0C" stroke-width="2.47209" stroke-miterlimit="10" stroke-linecap="round" stroke-linejoin="round"/>
<path opacity="0.242041" d="M145.504 256.244C145.504 256.244 93.5359 278.182 96.1926 238.948C98.8492 199.713 104.398 133.687 55.3077 157.198C6.21773 180.709 12.3546 139.107 12.6906 123.392C13.0266 107.678 12.3214 142.916 33.7217 136.027C55.1226 129.139 136.355 54.0671 141.422 131.246C146.489 208.424 88.6415 247.271 145.363 254.361C145.363 254.361 150.45 253.115 145.504 256.244Z" fill="url(#paint25_linear_38_302)"/>
<defs>
<linearGradient id="paint0_linear_38_302" x1="473.804" y1="623.826" x2="478.843" y2="652.23" gradientUnits="userSpaceOnUse">
<stop stop-color="#DBA064"/>
<stop offset="1" stop-color="#BE5C23"/>
</linearGradient>
<linearGradient id="paint1_linear_38_302" x1="378.055" y1="615.665" x2="388.35" y2="660.318" gradientUnits="userSpaceOnUse">
<stop stop-color="#DBA064"/>
<stop offset="1" stop-color="#BE5C23"/>
</linearGradient>
<linearGradient id="paint2_linear_38_302" x1="345.069" y1="640.951" x2="391.305" y2="442.475" gradientUnits="userSpaceOnUse">
<stop stop-color="#3C2F4E"/>
<stop offset="1" stop-color="#0C1D42"/>
</linearGradient>
<linearGradient id="paint3_linear_38_302" x1="467.723" y1="624.909" x2="437.155" y2="416.977" gradientUnits="userSpaceOnUse">
<stop stop-color="#3C2E4E"/>
<stop offset="1" stop-color="#0C1D42"/>
</linearGradient>
<linearGradient id="paint4_linear_38_302" x1="379.428" y1="432.591" x2="375.02" y2="359.029" gradientUnits="userSpaceOnUse">
<stop stop-color="white"/>
<stop offset="1"/>
</linearGradient>
<linearGradient id="paint5_linear_38_302" x1="331.172" y1="210.465" x2="334.67" y2="281.783" gradientUnits="userSpaceOnUse">
<stop stop-color="white"/>
<stop offset="1"/>
</linearGradient>
<linearGradient id="paint6_linear_38_302" x1="227.931" y1="333.739" x2="414.206" y2="236.977" gradientUnits="userSpaceOnUse">
<stop stop-color="white"/>
<stop offset="1"/>
</linearGradient>
<linearGradient id="paint7_linear_38_302" x1="235.129" y1="325.393" x2="350.711" y2="201.357" gradientUnits="userSpaceOnUse">
<stop stop-color="#F8C543"/>
<stop offset="1" stop-color="#F7717C"/>
</linearGradient>
<linearGradient id="paint8_linear_38_302" x1="344.448" y1="204.535" x2="354.879" y2="160.418" gradientUnits="userSpaceOnUse">
<stop stop-color="#F8C543"/>
<stop offset="1" stop-color="#F7717C"/>
</linearGradient>
<linearGradient id="paint9_linear_38_302" x1="373.038" y1="418.509" x2="381.715" y2="75.3576" gradientUnits="userSpaceOnUse">
<stop stop-color="#F8C543"/>
<stop offset="1" stop-color="#F7717C"/>
</linearGradient>
<linearGradient id="paint10_linear_38_302" x1="451.281" y1="355.524" x2="414.705" y2="169.913" gradientUnits="userSpaceOnUse">
<stop stop-color="white"/>
<stop offset="1"/>
</linearGradient>
<linearGradient id="paint11_linear_38_302" x1="474.564" y1="306.8" x2="395.405" y2="194.978" gradientUnits="userSpaceOnUse">
<stop stop-color="#F8C543"/>
<stop offset="1" stop-color="#F7717C"/>
</linearGradient>
<linearGradient id="paint12_linear_38_302" x1="239.107" y1="99.9122" x2="277.994" y2="91.4037" gradientUnits="userSpaceOnUse">
<stop stop-color="#DBA064"/>
<stop offset="1" stop-color="#BE5C23"/>
</linearGradient>
<linearGradient id="paint13_linear_38_302" x1="266.517" y1="34.7686" x2="278.684" y2="95.455" gradientUnits="userSpaceOnUse">
<stop stop-color="#D59861"/>
<stop offset="0.858973" stop-color="#FEDCB9"/>
<stop offset="0.995596" stop-color="#FEDCB9" stop-opacity="0"/>
</linearGradient>
<linearGradient id="paint14_linear_38_302" x1="336.971" y1="110" x2="343.885" y2="210.304" gradientUnits="userSpaceOnUse">
<stop stop-color="#DBA064"/>
<stop offset="1" stop-color="#BE5C23"/>
</linearGradient>
<linearGradient id="paint15_linear_38_302" x1="332.758" y1="111.611" x2="389.047" y2="84.6429" gradientUnits="userSpaceOnUse">
<stop stop-color="#DBA064"/>
<stop offset="1" stop-color="#BE5C23"/>
</linearGradient>
<linearGradient id="paint16_linear_38_302" x1="305.422" y1="93.7246" x2="319.348" y2="146.34" gradientUnits="userSpaceOnUse">
<stop stop-color="#FCE3A7"/>
<stop offset="1" stop-color="#FCE3A7" stop-opacity="0"/>
</linearGradient>
<linearGradient id="paint17_linear_38_302" x1="372.746" y1="78.8041" x2="349.301" y2="109.254" gradientUnits="userSpaceOnUse">
<stop stop-color="#FCE3A7"/>
<stop offset="1" stop-color="#FCE3A7" stop-opacity="0"/>
</linearGradient>
<linearGradient id="paint18_linear_38_302" x1="257.339" y1="156.776" x2="268.249" y2="197.994" gradientUnits="userSpaceOnUse">
<stop stop-color="#FCE3A7"/>
<stop offset="1" stop-color="#FCE3A7" stop-opacity="0"/>
</linearGradient>
<linearGradient id="paint19_linear_38_302" x1="285.03" y1="138.672" x2="331.256" y2="128.558" gradientUnits="userSpaceOnUse">
<stop stop-color="#FBF9F6"/>
<stop offset="1" stop-color="#E5D5AF"/>
</linearGradient>
<linearGradient id="paint20_linear_38_302" x1="307.18" y1="126.691" x2="314.111" y2="146.475" gradientUnits="userSpaceOnUse">
<stop/>
<stop offset="1" stop-color="#86634B"/>
</linearGradient>
<linearGradient id="paint21_linear_38_302" x1="352.75" y1="24.1558" x2="329.509" y2="102.203" gradientUnits="userSpaceOnUse">
<stop stop-color="#D59861"/>
<stop offset="0.858973" stop-color="#FEDCB9"/>
<stop offset="0.995596" stop-color="#FEDCB9" stop-opacity="0"/>
</linearGradient>
<linearGradient id="paint22_linear_38_302" x1="428.721" y1="460.022" x2="459.32" y2="453.327" gradientUnits="userSpaceOnUse">
<stop stop-color="#DBA064"/>
<stop offset="1" stop-color="#BE5C23"/>
</linearGradient>
<linearGradient id="paint23_linear_38_302" x1="155.621" y1="313.878" x2="203.964" y2="303.301" gradientUnits="userSpaceOnUse">
<stop stop-color="#DBA064"/>
<stop offset="1" stop-color="#BE5C23"/>
</linearGradient>
<linearGradient id="paint24_linear_38_302" x1="150.883" y1="299.314" x2="162.227" y2="296.832" gradientUnits="userSpaceOnUse">
<stop stop-color="#DBA064"/>
<stop offset="1" stop-color="#BE5C23"/>
</linearGradient>
<linearGradient id="paint25_linear_38_302" x1="143.036" y1="264.56" x2="21.4657" y2="119.675" gradientUnits="userSpaceOnUse">
<stop stop-color="white"/>
<stop offset="1" stop-color="white" stop-opacity="0"/>
</linearGradient>
</defs>
</svg>
