<svg width="364" height="912" viewBox="0 0 364 912" fill="none" xmlns="http://www.w3.org/2000/svg">
<path d="M362.437 611.243L377.426 662.488L416.867 656.369L408.369 600.624C408.369 600.624 383.546 606.483 362.437 611.243Z" fill="url(#paint0_linear_98_1627)"/>
<path d="M316.094 434.597C316.094 434.597 327.329 478.964 329.047 504.936C330.765 530.907 332.039 599.091 339.864 613.101C347.69 627.111 354.274 629.59 366.575 629.633C378.878 629.681 407.441 635.473 413.917 622.469C420.399 609.468 436.585 470.164 378.472 422.92C320.358 375.676 316.094 434.597 316.094 434.597Z" fill="url(#paint1_linear_98_1627)"/>
<path d="M356.536 449.392C356.536 449.392 376.472 467.307 383.34 489.074C390.207 510.836 403.971 567.542 405.948 576.578C407.925 585.615 413.643 598.304 417.972 616.622C422.304 634.935 424.221 633.205 442.662 634.252C461.103 635.303 472.738 639.543 496.401 619.918C520.063 600.293 519.347 605.709 497.92 540.296C476.492 474.878 485.466 447.691 464.257 422.421C443.048 397.147 355.713 428.987 356.536 449.392Z" fill="url(#paint2_linear_98_1627)"/>
<path d="M308.681 418.451C308.681 418.451 301.98 441.711 306.381 444.814C310.783 447.916 324.144 450.917 328.705 447.391C333.267 443.864 335.898 443.438 342.411 447.047C348.926 450.66 363.809 445.372 374.718 445.381C385.63 445.385 394.01 441.802 397.542 441.334C401.073 440.866 413.95 446.304 426.09 436.457C438.229 426.609 451.978 427.536 461.848 427.892C471.711 428.245 471.635 429.04 466.021 419.738C460.403 410.437 471.748 380.39 437.554 396.42C403.355 412.45 307.132 418.667 307.132 418.667" fill="url(#paint3_linear_98_1627)"/>
<path d="M316.603 188.924C316.603 188.924 318.496 197.704 318.779 200.227C318.779 200.227 339.279 204.87 348.554 192.207C348.554 192.207 347.032 186.716 346.589 183.271C346.151 179.825 353.53 183.305 354.434 185.589C355.338 187.871 355.332 192.218 357.46 194.257C359.593 196.295 366.728 200.233 368.897 202.862C371.062 205.492 390.764 253.848 390.764 253.848L291.926 270.202C291.926 270.202 292.239 221.556 310.024 209.618C310.024 209.618 311.958 210.132 308.674 197.564C308.674 197.564 305.617 191.028 316.603 188.924Z" fill="url(#paint4_linear_98_1627)"/>
<path d="M291.022 259.397C291.022 259.397 294.51 289.271 297.276 301.675C300.042 314.078 315.448 330.667 300.635 385.329C300.635 385.329 292.046 394.025 280 398.28C267.954 402.536 260.75 400.664 249.461 400.782C238.173 400.901 228.701 391.49 215.071 384.875C201.44 378.26 193.914 358.809 186.708 352.508C179.501 346.207 171.507 341.87 191.093 335C210.678 328.13 210.679 312.992 218.224 319.854C225.768 326.715 225.864 331.381 234.886 330.248C243.909 329.114 252.444 340.539 247.91 326.723C243.376 312.907 249.562 320.216 250.321 320.188C251.08 320.159 243.131 314.77 252.716 303.287C262.301 291.804 260.096 282.19 271.426 276.365C282.757 270.541 291.022 259.397 291.022 259.397Z" fill="url(#paint5_linear_98_1627)"/>
<path d="M283.397 225.893C283.397 225.893 278.178 235.121 276.818 237.274C275.457 239.428 274.248 242.851 273.861 244.939C273.474 247.026 272.023 252.488 268.211 261.314C264.399 270.14 241.926 292.083 247.271 300.122C252.615 308.161 257.414 305.155 270.205 321.257C282.996 337.359 303.65 339.453 303.129 329.286C302.607 319.119 317.215 301.392 313.588 286.285C309.96 271.179 297.941 221.372 283.397 225.893Z" fill="url(#paint6_linear_98_1627)"/>
<path d="M346.76 181.753C346.76 181.753 352.791 181.919 354.751 186.016C356.712 190.112 355.439 190.114 363.345 191.839C371.246 193.565 381.402 204.831 329.412 240.155C329.412 240.155 299.045 230.763 300.688 219.471C302.331 208.179 309.653 205.328 309.653 205.328C309.653 205.328 302.398 190.563 316.83 189.026C316.83 189.026 313.948 181.054 312.741 179.955C311.538 178.855 288.093 191.621 282.708 207.194C282.708 207.194 280.338 211.246 283.551 220.022C286.763 228.797 278.653 235.52 314.604 242.546L330.974 246.02C330.974 246.02 394.18 240.91 407.391 220.306C407.391 220.306 414.436 210.028 400.02 190.654C385.608 171.279 392.741 163.587 344.775 170.941C344.775 170.941 345.058 176.905 346.76 181.753Z" fill="url(#paint7_linear_98_1627)"/>
<path d="M294.956 237.54C294.956 237.54 307.469 268.982 301.439 315.785C295.409 362.587 287.558 385.248 300.358 406.651C300.358 406.651 303.598 413.685 303.287 422.094C302.976 430.503 304.825 431.527 347.168 427.334C389.512 423.141 465.771 423.87 463.088 413.327C460.404 402.781 456.567 223.701 392.43 216.721C392.43 216.721 332.905 242.497 330.604 242.942C328.308 243.387 294.956 237.54 294.956 237.54Z" fill="url(#paint8_linear_98_1627)"/>
<path d="M277.007 88.0902C277.007 88.0902 268.973 75.6592 248.033 82.3951C248.033 82.3951 243.891 84.1685 235.65 84.1101C235.65 84.1101 240.358 92.2604 242.757 99.665C245.155 107.069 251.43 113.996 256.683 112.979C256.683 112.979 281.408 93.0441 277.007 88.0902Z" fill="url(#paint9_linear_98_1627)"/>
<path d="M283.68 90.4683C283.68 90.4683 274.645 83.6792 279.486 68.7309C279.486 68.7309 284.217 59.7259 276.273 64.1544C276.273 64.1544 273.543 66.3563 272.879 71.5966C272.879 71.5966 261.767 61.8282 272.455 38.9764C272.455 38.9764 281.757 24.2502 269.993 31.4174C269.993 31.4174 266.215 33.5337 263.191 41.6822C263.191 41.6822 261.159 35.1935 257.337 39.9719C253.515 44.7503 259.466 43.0152 260.661 52.3667C261.856 61.7182 265.82 82.6195 275.938 93.249C286.056 103.878 287.612 93.8082 283.68 90.4683Z" fill="url(#paint10_linear_98_1627)"/>
<path d="M348.853 193.798C348.853 193.798 335.792 211.5 318.686 200.243C318.686 200.243 315.551 167.837 300.295 176.441C285.035 185.046 271.615 195.674 255.085 191.509C255.085 191.509 241.838 194.086 239.845 185.442C237.852 176.798 260.564 165.902 255.006 129.4C249.449 92.8975 298.321 69.4466 329.515 88.9356C360.709 108.424 347.998 134.33 344.679 149.576C341.356 164.823 348.853 193.798 348.853 193.798Z" fill="url(#paint11_linear_98_1627)"/>
<path d="M329.31 98.6917C329.31 98.6917 339.39 67.4498 385.473 65.4914C385.473 65.4914 381.803 80.6805 380.277 91.6939C379.899 94.4076 379.538 97.7279 379.008 99.4463C375.733 110.092 352.677 118.664 341.198 119.85L329.31 98.6917Z" fill="url(#paint12_linear_98_1627)"/>
<path opacity="0.736979" d="M274.944 131.028C276.861 114.27 292.739 102.207 310.409 104.085C328.079 105.962 340.846 121.07 338.931 137.827C337.012 154.585 321.138 166.648 303.468 164.77C285.797 162.893 273.027 147.786 274.944 131.028Z" fill="url(#paint13_linear_98_1627)"/>
<path opacity="0.589888" d="M333.66 100.151C333.66 100.151 347.886 75.8599 376.176 73.3277C376.176 73.3277 376.288 92.5944 372.765 99.1106C369.237 105.627 349.689 110.542 343.439 110.183C337.189 109.824 330.465 105.088 333.66 100.151Z" fill="url(#paint14_linear_98_1627)"/>
<path opacity="0.484931" d="M269.062 127.076C270.061 123.569 271.69 120.939 272.7 121.201C273.71 121.463 273.719 124.519 272.72 128.026C271.721 131.532 270.093 134.163 269.082 133.9C268.072 133.638 268.063 130.583 269.062 127.076Z" fill="#FFFCF6"/>
<path opacity="0.384334" d="M296.776 160.026C300.527 159.287 303.742 159.475 303.959 160.447C304.177 161.419 301.311 162.807 297.56 163.547C293.812 164.286 290.597 164.097 290.381 163.125C290.164 162.154 293.028 160.766 296.776 160.026Z" fill="#FFFCF6"/>
<path opacity="0.384334" d="M312.252 157.041C314.524 156.593 316.545 157.016 316.762 157.985C316.979 158.956 315.307 160.106 313.035 160.554C310.758 161.003 308.737 160.581 308.52 159.611C308.304 158.641 309.976 157.49 312.252 157.041Z" fill="#FFFCF6"/>
<path opacity="0.384334" d="M304.416 164.28C307.124 163.745 309.475 164.018 309.67 164.889C309.865 165.759 307.823 166.899 305.115 167.433C302.406 167.967 300.056 167.694 299.86 166.823C299.665 165.953 301.707 164.814 304.416 164.28Z" fill="#FFFCF6"/>
<path opacity="0.484931" d="M256.139 127.562C255.911 124.557 256.34 122.082 257.095 122.033C257.851 121.984 258.647 124.38 258.874 127.385C259.101 130.39 258.673 132.866 257.917 132.914C257.162 132.963 256.366 130.567 256.139 127.562Z" fill="#FFFCF6"/>
<path opacity="0.613325" d="M239.701 184.793C240.179 180.617 241.832 178.234 244.869 174.121C249.222 168.226 251.807 163.889 261.246 164.892C273.192 166.162 282.28 175.151 283.579 186.029C283.616 186.339 275.714 190.642 267.278 192.156C263.02 192.92 258.407 192.063 255.055 191.471C254.157 191.313 249.278 192.617 245.595 191.362C241.966 190.124 239.524 186.338 239.701 184.793Z" fill="url(#paint15_linear_98_1627)"/>
<path d="M255.432 191.28C255.432 191.28 242.935 195.469 239.997 185.696C237.059 175.923 247.337 177.525 251.924 179.341C256.511 181.157 260.973 183.588 255.432 191.28Z" fill="#541D07" stroke="black" stroke-width="2.47209" stroke-miterlimit="10" stroke-linecap="round" stroke-linejoin="round"/>
<path d="M287.648 150.635C287.648 150.635 281.052 113.701 321.421 119.933C321.421 119.933 326.546 121.245 329.19 119.1C329.19 119.1 329.194 120.204 328.969 122.002C327.935 130.315 321.97 153.451 287.648 150.635Z" fill="url(#paint16_linear_98_1627)" stroke="black" stroke-width="2.47209" stroke-miterlimit="10" stroke-linecap="round" stroke-linejoin="round"/>
<path d="M291.71 136.834C290.005 129.043 295.274 121.439 303.482 119.849C311.685 118.259 319.722 123.286 321.427 131.077C323.132 138.868 317.858 146.473 309.655 148.062C301.448 149.652 293.414 144.625 291.71 136.834Z" fill="url(#paint17_linear_98_1627)"/>
<path d="M287.925 150.619C287.925 150.619 280.942 113.235 321.196 119.907C321.196 119.907 326.312 121.281 328.92 119.137C328.92 119.137 328.937 120.253 328.733 122.068C327.798 130.459 322.121 153.783 287.925 150.619Z" stroke="black" stroke-width="2.47209" stroke-miterlimit="10" stroke-linecap="round" stroke-linejoin="round"/>
<path d="M327.295 122.583C327.295 122.583 327.392 126.129 326.644 128.644C326.644 128.644 329.192 124.516 328.438 122.368C327.68 120.22 327.551 120.944 327.318 122.501L327.295 122.583Z" fill="black"/>
<path d="M321.316 120.754C321.316 120.754 326.109 121.615 327.599 122.704C327.599 122.704 329.646 119.658 328.816 119.815C327.986 119.971 321.316 120.754 321.316 120.754Z" fill="black"/>
<path d="M323.229 95.0356C323.229 95.0356 334.301 87.7849 329.834 69.6212C329.834 69.6212 325.03 58.516 333.946 64.4766C333.946 64.4766 336.954 67.3312 337.315 73.6072C337.315 73.6072 351.046 63.0062 340.385 34.9444C340.385 34.9444 330.703 16.6477 343.856 26.1965C343.856 26.1965 348.094 29.0422 350.975 38.9787C350.975 38.9787 353.856 31.4613 357.936 37.4703C362.016 43.4795 355.213 40.8914 353.082 51.8795C350.951 62.8676 344.677 87.3128 332.039 99.023C319.396 110.734 318.378 98.6482 323.229 95.0356Z" fill="url(#paint18_linear_98_1627)"/>
<path d="M136.871 271.632L188.511 312.208C188.511 312.208 197.604 310.712 203.227 305.664C208.851 300.615 211.003 292.014 211.003 292.014L174.836 244.959C174.836 244.959 162.759 266.57 136.871 271.632Z" fill="white"/>
<path d="M129.878 270.298C126.113 265.48 133.18 254.471 145.663 245.71C158.146 236.948 171.318 233.752 175.083 238.57C178.848 243.388 171.781 254.397 159.298 263.158C146.815 271.92 133.643 275.116 129.878 270.298Z" fill="#3E2A1E"/>
<path d="M142.856 276.022L133.348 273.23C133.348 273.23 166.458 266.684 176.555 241.371L179.244 250.162C179.244 250.162 167.765 271.502 142.856 276.022Z" fill="#573B2B"/>
<path d="M133.188 272.832C133.188 272.832 129.478 270.364 130.497 269.268C131.515 268.171 163.874 259.289 173.352 238.556C173.352 238.556 176.035 238.321 176.762 241.642C177.489 244.963 164.81 274.04 133.188 272.832Z" fill="#3E2A1E"/>
<path d="M181.745 338.776C181.745 338.776 162.197 330.786 156.484 317.818C156.484 317.818 155.777 303.723 164.306 293.497C172.834 283.27 180.909 278.93 183.595 278.214C183.595 278.214 189.181 281.71 183.571 287.597C177.962 293.483 170.688 301.839 171.207 304.21C171.725 306.58 172.199 311.407 172.199 311.407C172.199 311.407 169.562 300.851 189.09 287.848C189.09 287.848 194.576 287.158 189.707 297.971C189.707 297.971 184.055 305.607 183.482 307.067C182.557 309.424 190.882 312.801 190.882 312.801C190.882 312.801 193.814 311.697 197.069 309.806C200.324 307.915 203.902 305.236 203.902 305.236L208.248 322.875C208.248 322.875 208.195 336.021 181.745 338.776Z" fill="url(#paint19_linear_98_1627)"/>
<path d="M156.732 316.669C156.732 316.669 149.232 298.423 149.346 289.064C149.46 279.704 148.51 281.372 148.51 281.372L161.037 291.382C161.037 291.382 158.697 293.602 161.743 299.057C164.789 304.512 157.598 316.494 157.598 316.494L156.732 316.669Z" fill="url(#paint20_linear_98_1627)"/>
<path d="M237.531 144.736C236.828 133.399 241.272 123.945 247.459 123.62C253.645 123.295 259.231 132.222 259.934 143.56C260.637 154.897 256.192 164.351 250.006 164.675C243.819 165 238.234 156.073 237.531 144.736Z" fill="#FEF4EE" fill-opacity="0.427002" stroke="#3A1D0C" stroke-width="2.47209" stroke-miterlimit="10" stroke-linecap="round" stroke-linejoin="round"/>
<path d="M260.195 141.32C260.195 141.32 263.214 135.008 272.349 141.687" stroke="#3A1D0C" stroke-width="2.47209" stroke-miterlimit="10" stroke-linecap="round" stroke-linejoin="round"/>
<path d="M273.018 144.312C270.237 131.602 277.872 119.383 290.07 117.02C302.272 114.656 314.418 123.043 317.199 135.752C319.98 148.462 312.342 160.682 300.14 163.046C287.943 165.409 275.798 157.021 273.018 144.312Z" fill="#FEF4EE" fill-opacity="0.412105" stroke="#3A1D0C" stroke-width="2.47209" stroke-miterlimit="10" stroke-linecap="round" stroke-linejoin="round"/>
<path opacity="0.242041" d="M145.505 256.244C145.505 256.244 93.5366 278.182 96.1933 238.948C98.85 199.713 104.399 133.687 55.3084 157.198C6.21846 180.709 12.3554 139.107 12.6913 123.392C13.0273 107.678 12.3221 142.916 33.7225 136.027C55.1233 129.139 136.356 54.067 141.423 131.245C146.49 208.424 88.6422 247.27 145.364 254.361C145.364 254.361 150.451 253.115 145.505 256.244Z" fill="url(#paint21_linear_98_1627)"/>
<defs>
<linearGradient id="paint0_linear_98_1627" x1="378.055" y1="615.665" x2="388.35" y2="660.318" gradientUnits="userSpaceOnUse">
<stop stop-color="#DBA064"/>
<stop offset="1" stop-color="#BE5C23"/>
</linearGradient>
<linearGradient id="paint1_linear_98_1627" x1="345.069" y1="640.951" x2="391.306" y2="442.475" gradientUnits="userSpaceOnUse">
<stop stop-color="#3C2F4E"/>
<stop offset="1" stop-color="#0C1D42"/>
</linearGradient>
<linearGradient id="paint2_linear_98_1627" x1="467.725" y1="624.909" x2="437.157" y2="416.977" gradientUnits="userSpaceOnUse">
<stop stop-color="#3C2E4E"/>
<stop offset="1" stop-color="#0C1D42"/>
</linearGradient>
<linearGradient id="paint3_linear_98_1627" x1="379.429" y1="432.591" x2="375.021" y2="359.029" gradientUnits="userSpaceOnUse">
<stop stop-color="white"/>
<stop offset="1"/>
</linearGradient>
<linearGradient id="paint4_linear_98_1627" x1="331.172" y1="210.465" x2="334.67" y2="281.783" gradientUnits="userSpaceOnUse">
<stop stop-color="white"/>
<stop offset="1"/>
</linearGradient>
<linearGradient id="paint5_linear_98_1627" x1="227.932" y1="333.739" x2="414.207" y2="236.977" gradientUnits="userSpaceOnUse">
<stop stop-color="white"/>
<stop offset="1"/>
</linearGradient>
<linearGradient id="paint6_linear_98_1627" x1="235.13" y1="325.392" x2="350.712" y2="201.356" gradientUnits="userSpaceOnUse">
<stop stop-color="#F8C543"/>
<stop offset="1" stop-color="#F7717C"/>
</linearGradient>
<linearGradient id="paint7_linear_98_1627" x1="344.449" y1="204.535" x2="354.88" y2="160.418" gradientUnits="userSpaceOnUse">
<stop stop-color="#F8C543"/>
<stop offset="1" stop-color="#F7717C"/>
</linearGradient>
<linearGradient id="paint8_linear_98_1627" x1="373.038" y1="418.509" x2="381.715" y2="75.3574" gradientUnits="userSpaceOnUse">
<stop stop-color="#F8C543"/>
<stop offset="1" stop-color="#F7717C"/>
</linearGradient>
<linearGradient id="paint9_linear_98_1627" x1="239.108" y1="99.9121" x2="277.995" y2="91.4035" gradientUnits="userSpaceOnUse">
<stop stop-color="#DBA064"/>
<stop offset="1" stop-color="#BE5C23"/>
</linearGradient>
<linearGradient id="paint10_linear_98_1627" x1="266.518" y1="34.7686" x2="278.685" y2="95.455" gradientUnits="userSpaceOnUse">
<stop stop-color="#D59861"/>
<stop offset="0.858973" stop-color="#FEDCB9"/>
<stop offset="0.995596" stop-color="#FEDCB9" stop-opacity="0"/>
</linearGradient>
<linearGradient id="paint11_linear_98_1627" x1="336.973" y1="110" x2="343.887" y2="210.304" gradientUnits="userSpaceOnUse">
<stop stop-color="#DBA064"/>
<stop offset="1" stop-color="#BE5C23"/>
</linearGradient>
<linearGradient id="paint12_linear_98_1627" x1="332.76" y1="111.611" x2="389.048" y2="84.6427" gradientUnits="userSpaceOnUse">
<stop stop-color="#DBA064"/>
<stop offset="1" stop-color="#BE5C23"/>
</linearGradient>
<linearGradient id="paint13_linear_98_1627" x1="305.424" y1="93.7246" x2="319.35" y2="146.34" gradientUnits="userSpaceOnUse">
<stop stop-color="#FCE3A7"/>
<stop offset="1" stop-color="#FCE3A7" stop-opacity="0"/>
</linearGradient>
<linearGradient id="paint14_linear_98_1627" x1="372.746" y1="78.804" x2="349.301" y2="109.254" gradientUnits="userSpaceOnUse">
<stop stop-color="#FCE3A7"/>
<stop offset="1" stop-color="#FCE3A7" stop-opacity="0"/>
</linearGradient>
<linearGradient id="paint15_linear_98_1627" x1="257.34" y1="156.776" x2="268.249" y2="197.994" gradientUnits="userSpaceOnUse">
<stop stop-color="#FCE3A7"/>
<stop offset="1" stop-color="#FCE3A7" stop-opacity="0"/>
</linearGradient>
<linearGradient id="paint16_linear_98_1627" x1="285.031" y1="138.672" x2="331.257" y2="128.558" gradientUnits="userSpaceOnUse">
<stop stop-color="#FBF9F6"/>
<stop offset="1" stop-color="#E5D5AF"/>
</linearGradient>
<linearGradient id="paint17_linear_98_1627" x1="307.181" y1="126.691" x2="314.112" y2="146.475" gradientUnits="userSpaceOnUse">
<stop/>
<stop offset="1" stop-color="#86634B"/>
</linearGradient>
<linearGradient id="paint18_linear_98_1627" x1="352.75" y1="24.1558" x2="329.509" y2="102.203" gradientUnits="userSpaceOnUse">
<stop stop-color="#D59861"/>
<stop offset="0.858973" stop-color="#FEDCB9"/>
<stop offset="0.995596" stop-color="#FEDCB9" stop-opacity="0"/>
</linearGradient>
<linearGradient id="paint19_linear_98_1627" x1="155.622" y1="313.878" x2="203.965" y2="303.301" gradientUnits="userSpaceOnUse">
<stop stop-color="#DBA064"/>
<stop offset="1" stop-color="#BE5C23"/>
</linearGradient>
<linearGradient id="paint20_linear_98_1627" x1="150.884" y1="299.314" x2="162.229" y2="296.832" gradientUnits="userSpaceOnUse">
<stop stop-color="#DBA064"/>
<stop offset="1" stop-color="#BE5C23"/>
</linearGradient>
<linearGradient id="paint21_linear_98_1627" x1="143.036" y1="264.56" x2="21.4664" y2="119.675" gradientUnits="userSpaceOnUse">
<stop stop-color="white"/>
<stop offset="1" stop-color="white" stop-opacity="0"/>
</linearGradient>
</defs>
</svg>
