<svg width="152" height="353" viewBox="0 0 152 353" fill="none" xmlns="http://www.w3.org/2000/svg">
<path d="M140.079 236.24L145.872 256.046L161.116 253.681L157.831 232.136C157.831 232.136 148.238 234.4 140.079 236.24Z" fill="url(#paint0_linear_202_1256)"/>
<path d="M144.309 252.523C144.309 252.523 153.398 255.504 160.962 250.485C160.962 250.485 161.606 249.578 164.466 264.703C164.466 264.703 168.581 271.804 159.474 274.624C150.367 277.446 148.955 270.786 148.87 270.397C148.784 270.006 142.219 251.849 144.309 252.523Z" fill="#D0D0D0"/>
<path d="M122.169 167.969C122.169 167.969 126.511 185.116 127.175 195.154C127.839 205.192 128.331 231.544 131.356 236.959C134.38 242.374 136.925 243.332 141.679 243.349C146.434 243.367 157.473 245.606 159.977 240.58C162.482 235.555 168.737 181.715 146.277 163.455C123.817 145.196 122.169 167.969 122.169 167.969Z" fill="url(#paint1_linear_202_1256)"/>
<path d="M137.802 173.685C137.802 173.685 145.507 180.61 148.161 189.022C150.815 197.433 156.135 219.35 156.899 222.842C157.663 226.335 159.873 231.239 161.546 238.319C163.22 245.397 163.961 244.728 171.089 245.132C178.216 245.539 182.713 247.178 191.858 239.593C201.004 232.008 200.727 234.101 192.446 208.819C184.164 183.536 187.632 173.028 179.435 163.261C171.238 153.493 137.483 165.799 137.802 173.685Z" fill="url(#paint2_linear_202_1256)"/>
<path d="M119.301 161.729C119.301 161.729 116.711 170.719 118.412 171.918C120.113 173.117 125.277 174.277 127.04 172.914C128.803 171.551 129.82 171.387 132.337 172.782C134.855 174.178 140.607 172.134 144.824 172.138C149.041 172.139 152.28 170.755 153.645 170.574C155.01 170.393 159.987 172.495 164.678 168.688C169.37 164.882 174.684 165.241 178.499 165.378C182.311 165.515 182.281 165.822 180.111 162.227C177.94 158.632 182.325 147.019 169.109 153.215C155.892 159.41 118.702 161.813 118.702 161.813" fill="url(#paint3_linear_202_1256)"/>
<path d="M122.368 73.0183C122.368 73.0183 123.1 76.4118 123.209 77.387C123.209 77.387 131.132 79.1813 134.717 74.287C134.717 74.287 134.129 72.1649 133.957 70.8333C133.788 69.5014 136.64 70.8467 136.989 71.7291C137.339 72.6114 137.336 74.2912 138.159 75.0794C138.983 75.8671 141.741 77.389 142.579 78.4052C143.416 79.4216 151.031 98.1108 151.031 98.1108L112.831 104.432C112.831 104.432 112.952 85.6303 119.825 81.0164C119.825 81.0164 120.573 81.2148 119.304 76.3577C119.304 76.3577 118.122 73.8313 122.368 73.0183Z" fill="url(#paint4_linear_202_1256)"/>
<path d="M112.477 100.255C112.477 100.255 113.826 111.801 114.895 116.595C115.964 121.388 121.918 127.8 116.193 148.926C116.193 148.926 112.873 152.287 108.218 153.932C103.562 155.577 100.778 154.853 96.4147 154.899C92.0518 154.945 88.391 151.308 83.123 148.751C77.8549 146.195 74.9462 138.677 72.1609 136.241C69.3755 133.806 66.2859 132.13 73.8556 129.475C81.4252 126.819 81.4255 120.969 84.3415 123.621C87.2575 126.273 87.2945 128.076 90.7815 127.638C94.2688 127.2 97.5676 131.615 95.8152 126.276C94.0628 120.936 96.4537 123.761 96.747 123.75C97.0402 123.739 93.9678 121.656 97.6724 117.218C101.377 112.78 100.525 109.064 104.904 106.813C109.283 104.562 112.477 100.255 112.477 100.255Z" fill="url(#paint5_linear_202_1256)"/>
<path d="M109.53 87.3052C109.53 87.3052 107.513 90.8717 106.987 91.704C106.461 92.5364 105.994 93.8594 105.845 94.6663C105.695 95.473 105.134 97.5839 103.661 100.995C102.188 104.406 93.502 112.887 95.5676 115.994C97.6331 119.101 99.488 117.939 104.431 124.163C109.375 130.386 117.358 131.195 117.156 127.266C116.955 123.336 122.601 116.485 121.199 110.646C119.797 104.808 115.151 85.5581 109.53 87.3052Z" fill="url(#paint6_linear_202_1256)"/>
<path d="M134.021 70.2466C134.021 70.2466 136.352 70.311 137.109 71.8943C137.867 73.4774 137.375 73.4781 140.431 74.1449C143.484 74.8119 147.41 79.1663 127.316 92.8186C127.316 92.8186 115.579 89.1888 116.214 84.8245C116.849 80.4601 119.679 79.3583 119.679 79.3583C119.679 79.3583 116.875 73.6516 122.453 73.0577C122.453 73.0577 121.339 69.9766 120.873 69.5519C120.408 69.1268 111.347 74.0606 109.265 80.0793C109.265 80.0793 108.349 81.6455 109.591 85.0372C110.832 88.4289 107.698 91.0274 121.593 93.7428L127.92 95.0855C127.92 95.0855 152.348 93.1105 157.454 85.1469C157.454 85.1469 160.177 81.1749 154.605 73.687C149.035 66.1988 151.792 63.2256 133.254 66.068C133.254 66.068 133.363 68.3729 134.021 70.2466Z" fill="url(#paint7_linear_202_1256)"/>
<path d="M114 91.8063C114 91.8063 118.836 103.959 116.506 122.047C114.175 140.136 111.141 148.894 116.088 157.166C116.088 157.166 117.34 159.885 117.22 163.135C117.1 166.385 117.814 166.781 134.18 165.16C150.545 163.54 180.019 163.821 178.982 159.746C177.945 155.671 176.461 86.4575 151.673 83.7599C151.673 83.7599 128.667 93.722 127.778 93.8942C126.891 94.0661 114 91.8063 114 91.8063Z" fill="url(#paint8_linear_202_1256)"/>
<path d="M179.503 111.885C179.503 111.885 162.014 94.0563 155.254 115.469C155.254 115.469 156.293 117.21 156.344 122.91C156.394 128.609 157.905 126.195 158.201 127.547C158.497 128.9 159.133 131.513 160.373 133.116C161.611 134.718 163.395 135.734 163.565 139.901C163.735 144.067 163.381 153.3 164.526 158.188C165.671 163.076 165.824 165.154 165.087 167.392C164.35 169.631 162.81 170.407 167.357 173.105C171.902 175.805 177.999 178.502 177.494 180.272C177.494 180.272 180.183 176.76 180.24 172.227C180.297 167.696 186.179 167.252 185.858 159.199C185.536 151.146 187.723 147.837 186.762 144.298C185.803 140.76 189.627 132.575 185.37 125.916C181.115 119.258 183.52 113.885 179.503 111.885Z" fill="url(#paint9_linear_202_1256)"/>
<path d="M158.446 88.0459C158.446 88.0459 163.531 89.2386 168.949 95.4749C174.368 101.711 178.011 107.093 178.953 109.385C179.892 111.677 182.177 115.575 183.289 118.435C184.403 121.296 184.032 121.559 181.608 119.806C179.182 118.053 170.12 115.495 163.832 121.947C157.542 128.398 157.797 129.184 156.205 125.485C154.612 121.787 141.96 90.8606 158.446 88.0459Z" fill="url(#paint10_linear_202_1256)"/>
<path d="M107.06 34.0464C107.06 34.0464 103.955 29.2419 95.8618 31.8453C95.8618 31.8453 94.2612 32.5307 91.0762 32.5082C91.0762 32.5082 92.8956 35.6582 93.8226 38.52C94.7496 41.3816 97.1747 44.0589 99.2051 43.6656C99.2051 43.6656 108.761 35.9611 107.06 34.0464Z" fill="url(#paint11_linear_202_1256)"/>
<path d="M109.639 34.9648C109.639 34.9648 106.147 32.3409 108.018 26.5635C108.018 26.5635 109.846 23.0831 106.776 24.7947C106.776 24.7947 105.721 25.6457 105.464 27.6711C105.464 27.6711 101.17 23.8957 105.3 15.0636C105.3 15.0636 108.896 9.37207 104.349 12.1421C104.349 12.1421 102.889 12.9601 101.72 16.1094C101.72 16.1094 100.935 13.6016 99.4574 15.4484C97.9801 17.2952 100.28 16.6246 100.742 20.2389C101.204 23.8532 102.736 31.9314 106.647 36.0396C110.557 40.1476 111.159 36.2557 109.639 34.9648Z" fill="url(#paint12_linear_202_1256)"/>
<path d="M134.831 74.9024C134.831 74.9024 129.784 81.7441 123.172 77.3935C123.172 77.3935 121.96 64.8685 116.064 68.194C110.166 71.5196 104.979 75.6275 98.5907 74.0175C98.5907 74.0175 93.471 75.0138 92.7007 71.673C91.9304 68.3322 100.708 64.1208 98.5603 50.013C96.4125 35.9051 115.301 26.8415 127.357 34.3739C139.414 41.9061 134.501 51.9183 133.218 57.8109C131.934 63.7038 134.831 74.9024 134.831 74.9024Z" fill="url(#paint13_linear_202_1256)"/>
<path d="M127.277 38.1434C127.277 38.1434 131.172 26.0686 148.983 25.3117C148.983 25.3117 147.565 31.1822 146.975 35.4388C146.829 36.4876 146.689 37.7709 146.484 38.435C145.219 42.5494 136.308 45.8624 131.871 46.3209L127.277 38.1434Z" fill="url(#paint14_linear_202_1256)"/>
<path opacity="0.736979" d="M106.262 50.6423C107.003 44.1656 113.14 39.5033 119.969 40.229C126.799 40.9546 131.733 46.7936 130.993 53.2703C130.251 59.7471 124.116 64.4091 117.287 63.6834C110.457 62.9579 105.522 57.1192 106.262 50.6423Z" fill="url(#paint15_linear_202_1256)"/>
<path opacity="0.589888" d="M128.959 38.7074C128.959 38.7074 134.457 29.3192 145.391 28.3405C145.391 28.3405 145.434 35.787 144.073 38.3054C142.709 40.824 135.154 42.7234 132.738 42.5847C130.323 42.4459 127.724 40.6157 128.959 38.7074Z" fill="url(#paint16_linear_202_1256)"/>
<path opacity="0.484931" d="M103.991 49.1135C104.378 47.7583 105.007 46.7416 105.397 46.843C105.788 46.9443 105.792 48.1252 105.405 49.4806C105.019 50.8358 104.39 51.8525 103.999 51.7512C103.609 51.6498 103.605 50.469 103.991 49.1135Z" fill="#FFFCF6"/>
<path opacity="0.384334" d="M114.703 61.8483C116.152 61.5624 117.395 61.6353 117.479 62.0109C117.563 62.3865 116.455 62.923 115.006 63.2088C113.557 63.4946 112.315 63.4217 112.231 63.046C112.147 62.6704 113.254 62.134 114.703 61.8483Z" fill="#FFFCF6"/>
<path opacity="0.384334" d="M120.682 60.6961C121.56 60.5229 122.341 60.6862 122.425 61.0609C122.509 61.4359 121.862 61.8806 120.984 62.0538C120.105 62.2273 119.324 62.0642 119.24 61.6893C119.156 61.3144 119.802 60.8696 120.682 60.6961Z" fill="#FFFCF6"/>
<path opacity="0.384334" d="M117.653 63.4935C118.7 63.287 119.608 63.3925 119.684 63.729C119.759 64.0653 118.97 64.5057 117.923 64.7121C116.877 64.9186 115.968 64.8131 115.893 64.4766C115.817 64.1403 116.606 63.6999 117.653 63.4935Z" fill="#FFFCF6"/>
<path opacity="0.484931" d="M98.9938 49.3018C98.906 48.1404 99.0717 47.1837 99.3636 47.1649C99.6556 47.146 99.9635 48.0721 100.051 49.2334C100.139 50.3947 99.9734 51.3515 99.6814 51.3704C99.3893 51.3893 99.0816 50.4631 98.9938 49.3018Z" fill="#FFFCF6"/>
<path opacity="0.613325" d="M92.6446 71.4204C92.8294 69.8062 93.4683 68.8854 94.6422 67.2955C96.3246 65.0171 97.3238 63.3412 100.972 63.7287C105.589 64.2195 109.101 67.6938 109.603 71.8979C109.618 72.0177 106.563 73.681 103.303 74.2661C101.657 74.5614 99.8746 74.2302 98.579 74.0013C98.2321 73.9401 96.3462 74.4441 94.9229 73.959C93.5202 73.4808 92.5764 72.0173 92.6446 71.4204Z" fill="url(#paint17_linear_202_1256)"/>
<path d="M98.7249 73.9291C98.7249 73.9291 93.8952 75.5477 92.7596 71.7705C91.6241 67.9935 95.5963 68.6127 97.3692 69.3145C99.1419 70.0164 100.867 70.956 98.7249 73.9291Z" fill="#541D07" stroke="black" stroke-width="0.955445" stroke-miterlimit="10" stroke-linecap="round" stroke-linejoin="round"/>
<path d="M111.177 58.2178C111.177 58.2178 108.627 43.9433 124.229 46.3518C124.229 46.3518 126.21 46.8589 127.232 46.0296C127.232 46.0296 127.234 46.4566 127.147 47.1512C126.747 50.3642 124.442 59.3061 111.177 58.2178Z" fill="url(#paint18_linear_202_1256)" stroke="black" stroke-width="0.955445" stroke-miterlimit="10" stroke-linecap="round" stroke-linejoin="round"/>
<path d="M112.744 52.8856C112.085 49.8745 114.122 46.9354 117.294 46.3209C120.464 45.7067 123.57 47.6493 124.229 50.6605C124.888 53.6716 122.85 56.611 119.679 57.2252C116.507 57.8398 113.403 55.8968 112.744 52.8856Z" fill="url(#paint19_linear_202_1256)"/>
<path d="M111.281 58.2144C111.281 58.2144 108.582 43.7656 124.139 46.3444C124.139 46.3444 126.117 46.8753 127.125 46.0467C127.125 46.0467 127.131 46.4782 127.053 47.1794C126.691 50.4226 124.497 59.4373 111.281 58.2144Z" stroke="black" stroke-width="0.955445" stroke-miterlimit="10" stroke-linecap="round" stroke-linejoin="round"/>
<path d="M126.498 47.379C126.498 47.379 126.535 48.7494 126.247 49.7216C126.247 49.7216 127.231 48.1261 126.94 47.2958C126.647 46.4658 126.597 46.7455 126.507 47.3474L126.498 47.379Z" fill="black"/>
<path d="M124.182 46.6705C124.182 46.6705 126.034 47.0031 126.61 47.4243C126.61 47.4243 127.401 46.247 127.08 46.3073C126.759 46.3677 124.182 46.6705 124.182 46.6705Z" fill="black"/>
<path d="M124.925 36.731C124.925 36.731 129.204 33.9287 127.478 26.9085C127.478 26.9085 125.621 22.6165 129.067 24.9202C129.067 24.9202 130.23 26.0235 130.369 28.4491C130.369 28.4491 135.676 24.3519 131.555 13.5062C131.555 13.5062 127.813 6.43469 132.897 10.1252C132.897 10.1252 134.535 11.2251 135.649 15.0654C135.649 15.0654 136.762 12.16 138.339 14.4825C139.916 16.805 137.287 15.8047 136.463 20.0515C135.639 24.2983 133.214 33.7462 128.33 38.2721C123.444 42.7985 123.05 38.1272 124.925 36.731Z" fill="url(#paint20_linear_202_1256)"/>
<path d="M52.8992 104.985L72.8575 120.667C72.8575 120.667 76.3721 120.089 78.5453 118.138C80.7187 116.186 81.5507 112.862 81.5507 112.862L67.5722 94.6756C67.5722 94.6756 62.9045 103.028 52.8992 104.985Z" fill="white"/>
<path d="M50.1986 104.468C48.7434 102.606 51.4749 98.351 56.2996 94.9647C61.124 91.5784 66.2149 90.343 67.6702 92.2052C69.1253 94.0674 66.3939 98.3221 61.5692 101.708C56.7447 105.095 51.6539 106.33 50.1986 104.468Z" fill="#3E2A1E"/>
<path d="M55.211 106.68L51.5364 105.601C51.5364 105.601 64.3331 103.071 68.2353 93.2873L69.2749 96.6849C69.2749 96.6849 64.8383 104.933 55.211 106.68Z" fill="#573B2B"/>
<path d="M51.4754 105.447C51.4754 105.447 50.0416 104.493 50.4353 104.07C50.8288 103.646 63.3355 100.213 66.9985 92.1998C66.9985 92.1998 68.0356 92.109 68.3165 93.3925C68.5973 94.676 63.697 105.914 51.4754 105.447Z" fill="#3E2A1E"/>
<path d="M70.2435 130.934C70.2435 130.934 62.688 127.846 60.4802 122.834C60.4802 122.834 60.207 117.386 63.5032 113.434C66.7993 109.481 69.9202 107.804 70.9583 107.527C70.9583 107.527 73.1175 108.878 70.9493 111.153C68.7812 113.428 65.9699 116.658 66.1703 117.574C66.3708 118.49 66.5537 120.356 66.5537 120.356C66.5537 120.356 65.5347 116.276 73.0823 111.251C73.0823 111.251 75.2024 110.984 73.3207 115.163C73.3207 115.163 71.1361 118.114 70.9146 118.678C70.557 119.59 73.7748 120.895 73.7748 120.895C73.7748 120.895 74.908 120.468 76.1659 119.737C77.4239 119.006 78.8068 117.971 78.8068 117.971L80.4867 124.788C80.4867 124.788 80.4662 129.869 70.2435 130.934Z" fill="url(#paint21_linear_202_1256)"/>
<path d="M60.5761 122.39C60.5761 122.39 57.6775 115.338 57.7215 111.721C57.7657 108.103 57.3987 108.748 57.3987 108.748L62.2399 112.617C62.2399 112.617 61.3357 113.475 62.5129 115.583C63.6901 117.692 60.911 122.322 60.911 122.322L60.5761 122.39Z" fill="url(#paint22_linear_202_1256)"/>
<path d="M91.8015 55.94C91.5298 51.5583 93.2476 47.9044 95.6385 47.7788C98.0296 47.6534 100.188 51.1036 100.46 55.4854C100.732 59.8671 99.0139 63.521 96.623 63.6464C94.2319 63.772 92.0734 60.3216 91.8015 55.94Z" fill="#FEF4EE" fill-opacity="0.427002" stroke="#3A1D0C" stroke-width="0.955445" stroke-miterlimit="10" stroke-linecap="round" stroke-linejoin="round"/>
<path d="M100.562 54.6193C100.562 54.6193 101.729 52.1799 105.26 54.7614" stroke="#3A1D0C" stroke-width="0.955445" stroke-miterlimit="10" stroke-linecap="round" stroke-linejoin="round"/>
<path d="M105.518 55.7752C104.444 50.863 107.395 46.1404 112.109 45.2271C116.825 44.3135 121.519 47.5548 122.594 52.467C123.669 57.379 120.717 62.1019 116.001 63.0155C111.287 63.9289 106.593 60.6872 105.518 55.7752Z" fill="#FEF4EE" fill-opacity="0.412105" stroke="#3A1D0C" stroke-width="0.955445" stroke-miterlimit="10" stroke-linecap="round" stroke-linejoin="round"/>
<path opacity="0.242041" d="M56.2374 99.0351C56.2374 99.0351 36.1519 107.514 37.1788 92.3502C38.2055 77.1863 40.3501 51.6677 21.377 60.7546C2.40415 69.8414 4.77602 53.7624 4.90587 47.6889C5.03572 41.6153 4.76318 55.2346 13.0342 52.5723C21.3055 49.91 52.7012 20.8952 54.6596 50.7241C56.618 80.5529 34.2603 95.5669 56.1829 98.3074C56.1829 98.3074 58.1489 97.8258 56.2374 99.0351Z" fill="url(#paint23_linear_202_1256)"/>
<defs>
<linearGradient id="paint0_linear_202_1256" x1="146.115" y1="237.949" x2="150.094" y2="255.207" gradientUnits="userSpaceOnUse">
<stop stop-color="#DBA064"/>
<stop offset="1" stop-color="#BE5C23"/>
</linearGradient>
<linearGradient id="paint1_linear_202_1256" x1="133.367" y1="247.723" x2="151.237" y2="171.013" gradientUnits="userSpaceOnUse">
<stop stop-color="#3C2F4E"/>
<stop offset="1" stop-color="#0C1D42"/>
</linearGradient>
<linearGradient id="paint2_linear_202_1256" x1="180.775" y1="241.521" x2="168.961" y2="161.157" gradientUnits="userSpaceOnUse">
<stop stop-color="#3C2E4E"/>
<stop offset="1" stop-color="#0C1D42"/>
</linearGradient>
<linearGradient id="paint3_linear_202_1256" x1="146.644" y1="167.195" x2="144.941" y2="138.763" gradientUnits="userSpaceOnUse">
<stop stop-color="white"/>
<stop offset="1"/>
</linearGradient>
<linearGradient id="paint4_linear_202_1256" x1="127.999" y1="81.3439" x2="129.351" y2="108.908" gradientUnits="userSpaceOnUse">
<stop stop-color="white"/>
<stop offset="1"/>
</linearGradient>
<linearGradient id="paint5_linear_202_1256" x1="88.0938" y1="128.987" x2="160.088" y2="91.5895" gradientUnits="userSpaceOnUse">
<stop stop-color="white"/>
<stop offset="1"/>
</linearGradient>
<linearGradient id="paint6_linear_202_1256" x1="90.8755" y1="125.761" x2="135.547" y2="77.8221" gradientUnits="userSpaceOnUse">
<stop stop-color="#F8C543"/>
<stop offset="1" stop-color="#F7717C"/>
</linearGradient>
<linearGradient id="paint7_linear_202_1256" x1="133.128" y1="79.0519" x2="137.159" y2="62.0007" gradientUnits="userSpaceOnUse">
<stop stop-color="#F8C543"/>
<stop offset="1" stop-color="#F7717C"/>
</linearGradient>
<linearGradient id="paint8_linear_202_1256" x1="144.178" y1="161.749" x2="147.532" y2="29.1239" gradientUnits="userSpaceOnUse">
<stop stop-color="#F8C543"/>
<stop offset="1" stop-color="#F7717C"/>
</linearGradient>
<linearGradient id="paint9_linear_202_1256" x1="174.415" y1="137.407" x2="160.279" y2="65.6695" gradientUnits="userSpaceOnUse">
<stop stop-color="white"/>
<stop offset="1"/>
</linearGradient>
<linearGradient id="paint10_linear_202_1256" x1="183.415" y1="118.576" x2="152.821" y2="75.3571" gradientUnits="userSpaceOnUse">
<stop stop-color="#F8C543"/>
<stop offset="1" stop-color="#F7717C"/>
</linearGradient>
<linearGradient id="paint11_linear_202_1256" x1="92.4125" y1="38.6155" x2="107.442" y2="35.327" gradientUnits="userSpaceOnUse">
<stop stop-color="#DBA064"/>
<stop offset="1" stop-color="#BE5C23"/>
</linearGradient>
<linearGradient id="paint12_linear_202_1256" x1="103.006" y1="13.4373" x2="107.708" y2="36.8922" gradientUnits="userSpaceOnUse">
<stop stop-color="#D59861"/>
<stop offset="0.858973" stop-color="#FEDCB9"/>
<stop offset="0.995596" stop-color="#FEDCB9" stop-opacity="0"/>
</linearGradient>
<linearGradient id="paint13_linear_202_1256" x1="130.24" y1="42.5151" x2="132.912" y2="81.2817" gradientUnits="userSpaceOnUse">
<stop stop-color="#DBA064"/>
<stop offset="1" stop-color="#BE5C23"/>
</linearGradient>
<linearGradient id="paint14_linear_202_1256" x1="128.61" y1="43.1365" x2="150.365" y2="32.7135" gradientUnits="userSpaceOnUse">
<stop stop-color="#DBA064"/>
<stop offset="1" stop-color="#BE5C23"/>
</linearGradient>
<linearGradient id="paint15_linear_202_1256" x1="118.043" y1="36.2249" x2="123.425" y2="56.5602" gradientUnits="userSpaceOnUse">
<stop stop-color="#FCE3A7"/>
<stop offset="1" stop-color="#FCE3A7" stop-opacity="0"/>
</linearGradient>
<linearGradient id="paint16_linear_202_1256" x1="144.065" y1="30.4571" x2="135.004" y2="42.2257" gradientUnits="userSpaceOnUse">
<stop stop-color="#FCE3A7"/>
<stop offset="1" stop-color="#FCE3A7" stop-opacity="0"/>
</linearGradient>
<linearGradient id="paint17_linear_202_1256" x1="99.4621" y1="60.592" x2="103.678" y2="76.5222" gradientUnits="userSpaceOnUse">
<stop stop-color="#FCE3A7"/>
<stop offset="1" stop-color="#FCE3A7" stop-opacity="0"/>
</linearGradient>
<linearGradient id="paint18_linear_202_1256" x1="110.165" y1="53.5942" x2="128.031" y2="49.6851" gradientUnits="userSpaceOnUse">
<stop stop-color="#FBF9F6"/>
<stop offset="1" stop-color="#E5D5AF"/>
</linearGradient>
<linearGradient id="paint19_linear_202_1256" x1="118.723" y1="48.9652" x2="121.402" y2="56.6116" gradientUnits="userSpaceOnUse">
<stop/>
<stop offset="1" stop-color="#86634B"/>
</linearGradient>
<linearGradient id="paint20_linear_202_1256" x1="136.335" y1="9.33649" x2="127.352" y2="39.5012" gradientUnits="userSpaceOnUse">
<stop stop-color="#D59861"/>
<stop offset="0.858973" stop-color="#FEDCB9"/>
<stop offset="0.995596" stop-color="#FEDCB9" stop-opacity="0"/>
</linearGradient>
<linearGradient id="paint21_linear_202_1256" x1="60.147" y1="121.311" x2="78.8314" y2="117.223" gradientUnits="userSpaceOnUse">
<stop stop-color="#DBA064"/>
<stop offset="1" stop-color="#BE5C23"/>
</linearGradient>
<linearGradient id="paint22_linear_202_1256" x1="58.3162" y1="115.682" x2="62.7007" y2="114.723" gradientUnits="userSpaceOnUse">
<stop stop-color="#DBA064"/>
<stop offset="1" stop-color="#BE5C23"/>
</linearGradient>
<linearGradient id="paint23_linear_202_1256" x1="55.2832" y1="102.249" x2="8.29738" y2="46.252" gradientUnits="userSpaceOnUse">
<stop stop-color="white"/>
<stop offset="1" stop-color="white" stop-opacity="0"/>
</linearGradient>
</defs>
</svg>
