<svg width="84" height="84" viewBox="0 0 84 84" fill="none" xmlns="http://www.w3.org/2000/svg">
    <circle cx="42" cy="42" r="42" fill="#FCF7FF" />
    <path
        d="M42 61C36.687 61 32.1921 60.1819 28.5153 58.5458C24.8384 56.9097 23 54.913 23 52.5556V31.4444C23 29.1222 24.856 27.1343 28.5681 25.4806C32.2801 23.8269 36.7574 23 42 23C47.2426 23 51.7199 23.8269 55.4319 25.4806C59.144 27.1343 61 29.1222 61 31.4444V52.5556C61 54.913 59.1616 56.9097 55.4847 58.5458C51.8079 60.1819 47.313 61 42 61ZM42 35.7194C45.1315 35.7194 48.2806 35.2708 51.4472 34.3736C54.6139 33.4764 56.3907 32.5176 56.7778 31.4972C56.3907 30.4769 54.6227 29.5093 51.4736 28.5944C48.3245 27.6796 45.1667 27.2222 42 27.2222C38.7981 27.2222 35.6579 27.6708 32.5792 28.5681C29.5005 29.4653 27.7148 30.4417 27.2222 31.4972C27.7148 32.5528 29.5005 33.5204 32.5792 34.4C35.6579 35.2796 38.7981 35.7194 42 35.7194ZM42 46.2222C43.4778 46.2222 44.9028 46.1519 46.275 46.0111C47.6472 45.8704 48.9579 45.6681 50.2069 45.4042C51.456 45.1403 52.6347 44.8148 53.7431 44.4278C54.8514 44.0407 55.863 43.6009 56.7778 43.1083V36.775C55.863 37.2676 54.8514 37.7074 53.7431 38.0944C52.6347 38.4815 51.456 38.8069 50.2069 39.0708C48.9579 39.3347 47.6472 39.537 46.275 39.6778C44.9028 39.8185 43.4778 39.8889 42 39.8889C40.5222 39.8889 39.0796 39.8185 37.6722 39.6778C36.2648 39.537 34.9366 39.3347 33.6875 39.0708C32.4384 38.8069 31.2685 38.4815 30.1778 38.0944C29.087 37.7074 28.1019 37.2676 27.2222 36.775V43.1083C28.1019 43.6009 29.087 44.0407 30.1778 44.4278C31.2685 44.8148 32.4384 45.1403 33.6875 45.4042C34.9366 45.6681 36.2648 45.8704 37.6722 46.0111C39.0796 46.1519 40.5222 46.2222 42 46.2222ZM42 56.7778C43.6185 56.7778 45.2634 56.6546 46.9347 56.4083C48.606 56.162 50.1454 55.8366 51.5528 55.4319C52.9602 55.0273 54.1389 54.5699 55.0889 54.0597C56.0389 53.5495 56.6019 53.0306 56.7778 52.5028V47.3306C55.863 47.8231 54.8514 48.263 53.7431 48.65C52.6347 49.037 51.456 49.3625 50.2069 49.6264C48.9579 49.8903 47.6472 50.0926 46.275 50.2333C44.9028 50.3741 43.4778 50.4444 42 50.4444C40.5222 50.4444 39.0796 50.3741 37.6722 50.2333C36.2648 50.0926 34.9366 49.8903 33.6875 49.6264C32.4384 49.3625 31.2685 49.037 30.1778 48.65C29.087 48.263 28.1019 47.8231 27.2222 47.3306V52.5556C27.3981 53.0833 27.9523 53.5935 28.8847 54.0861C29.8171 54.5787 30.987 55.0273 32.3944 55.4319C33.8019 55.8366 35.35 56.162 37.0389 56.4083C38.7278 56.6546 40.3815 56.7778 42 56.7778Z"
        fill="#9D4BAD" />
</svg>