<svg width="32" height="32" viewBox="0 0 32 32" fill="none" xmlns="http://www.w3.org/2000/svg">
<path d="M32 16C32 23.4045 26.9704 29.6342 20.1409 31.4589C19.7329 31.5679 19.3183 31.6611 18.8978 31.7381C17.9582 31.9102 16.9896 32 16 32C15.0104 32 14.0205 31.9083 13.0711 31.7324C12.9599 31.712 12.8494 31.6903 12.7391 31.6671C12.3315 31.5829 11.9295 31.4831 11.5341 31.3681C11.4251 31.3364 11.3168 31.3037 11.2087 31.2698C9.63467 30.7767 8.16488 30.0469 6.84207 29.1213C6.56884 28.9304 6.30189 28.7313 6.04153 28.5237C2.35983 25.5926 0 21.072 0 16C0 7.16335 7.16335 0 16 0C24.8367 0 32 7.16335 32 16Z" fill="url(#paint0_linear_850_1035)"/>
<path d="M21.0699 10.1914C21.0335 10.237 21.0099 10.2938 21.0055 10.356L19.123 10.1942L19.5612 9.63962L20.0702 9.29164L20.1689 9.22412L21.0699 10.1914Z" fill="#110C24"/>
<path d="M19.3897 9.1597V9.15436L18.7864 8.56079C18.7669 8.80356 18.7826 9.068 18.8957 9.25517C18.8957 9.25517 19.1165 9.27182 19.3897 9.16001V9.1597Z" fill="#110C24"/>
<path d="M23.5411 8.7996C23.4764 9.03546 23.4073 9.23772 23.3357 9.41108L21.5833 10.2904C21.5801 10.2801 21.5767 10.2703 21.5723 10.2606L22.196 9.07032C22.2993 8.99495 22.413 8.93842 22.5301 8.89665H22.5305C23.0125 8.72423 23.5411 8.7996 23.5411 8.7996Z" fill="#110C24"/>
<path d="M10.7988 28.6136C10.8192 28.6682 10.8387 28.7223 10.8569 28.7753L12.0805 29.2552C12.007 28.9832 11.9357 28.7176 11.8698 28.4685L10.7988 28.6136Z" fill="#110C24"/>
<path d="M19.0695 12.7376L18.2796 13.497L17.9766 13.3987L18.2561 12.3425L18.9373 12.5058C18.9492 12.5997 18.9982 12.682 19.0695 12.7376Z" fill="#110C24"/>
<path d="M21.5221 17.2551C21.5221 17.2881 21.5274 17.3201 21.5368 17.35L18.1189 18.9322C18.0904 18.8995 18.0555 18.8732 18.0156 18.8549L19.2825 15.2719C19.329 15.2342 19.3736 15.1959 19.4166 15.1572L21.5544 17.1179C21.5337 17.1593 21.5221 17.2058 21.5221 17.2551Z" fill="#110C24"/>
<path d="M19.1018 15.4104L17.894 18.8255H17.888C17.7994 18.8255 17.7194 18.8628 17.6628 18.9231L15.8557 17.7451C15.8576 17.731 15.8586 17.7165 15.8586 17.7018C15.8586 17.5972 15.8118 17.5036 15.7383 17.4405L16.6974 16.2072C16.7813 16.1999 16.8657 16.1921 16.9512 16.183C16.959 16.182 16.9672 16.1814 16.975 16.1805C17.8981 16.0815 18.589 15.7782 19.1018 15.4104Z" fill="#110C24"/>
<path d="M15.7212 22.4335C15.6977 22.431 15.6748 22.4284 15.6512 22.4259H15.6509C15.5661 22.4168 15.4804 22.4077 15.394 22.3986L14.4688 20.9778C14.4795 20.9426 14.4851 20.905 14.4851 20.8663C14.4851 20.7234 14.4069 20.5987 14.291 20.5328L15.4094 18.0288C15.4348 18.037 15.4615 18.0423 15.4888 18.0445L15.7212 22.4335Z" fill="#110C24"/>
<path d="M15.2322 22.3815C14.5651 22.3117 13.8578 22.2442 13.1949 22.215H13.1946C13.1186 22.2115 13.0435 22.2087 12.9688 22.2065L13.839 21.1463C13.9075 21.2103 13.9995 21.2496 14.1006 21.2496C14.2222 21.2496 14.3305 21.1931 14.4009 21.1045L15.2322 22.3815Z" fill="#110C24"/>
<path d="M21.6798 17.5231L20.6195 20.5874C20.5702 20.5544 20.5112 20.5349 20.4474 20.5349C20.35 20.5349 20.2634 20.5799 20.2068 20.6502L18.168 19.2614C18.1859 19.2225 18.1956 19.1795 18.1956 19.1339C18.1956 19.1016 18.1906 19.0705 18.1815 19.0413L21.6003 17.4587C21.6229 17.4845 21.6496 17.5062 21.6798 17.5231Z" fill="#110C24"/>
<path d="M22.2178 10.4361C22.2178 10.4361 22.4998 10.9744 22.8572 11.7253L19.6353 12.4307C19.6334 12.4081 19.6293 12.3861 19.623 12.3647L21.2759 10.6701C21.2838 10.6707 21.2916 10.671 21.2998 10.671C21.4452 10.671 21.5658 10.5661 21.59 10.4279L23.2545 9.59253C23.235 9.63336 23.2156 9.6723 23.1961 9.70904C22.7281 10.5919 22.2178 10.4361 22.2178 10.4361Z" fill="#110C24"/>
<path d="M21.143 10.6261L19.5633 12.2461C19.5133 12.181 19.4408 12.1339 19.3579 12.1167L19.0762 10.3162L21.0255 10.4836C21.0485 10.5429 21.0899 10.5925 21.143 10.6261Z" fill="#110C24"/>
<path d="M23.9067 14.171L23.522 14.7269C23.4803 14.7055 23.4331 14.6936 23.3829 14.6936C23.2912 14.6936 23.2086 14.7335 23.1521 14.7972L20.6738 13.6754L23.0048 12.0354C23.3113 12.6934 23.6502 13.465 23.9067 14.171Z" fill="#110C24"/>
<path d="M20.4796 13.5413C20.4806 13.5385 20.4809 13.5369 20.4809 13.5369L20.0315 13.0011L19.2539 13.8133L18.5811 13.595L18.4141 13.5407L19.1866 12.7979C19.2177 12.807 19.2507 12.8117 19.2849 12.8117C19.4464 12.8117 19.5827 12.7027 19.6238 12.5542L22.8746 11.8875L20.4796 13.5413Z" fill="#110C24"/>
<path d="M23.1736 15.2297L21.9648 16.9765C21.9242 16.957 21.879 16.946 21.8313 16.946C21.7559 16.946 21.6865 16.9734 21.6328 17.0186L19.5098 15.0711C19.5465 15.0363 19.582 15.0011 19.6159 14.9656C19.6279 14.9533 19.6395 14.9411 19.6511 14.9288C20.0908 14.4625 20.3163 13.9873 20.4152 13.7307L23.0881 14.9094C23.0787 14.9392 23.0737 14.9703 23.0737 15.0026C23.0737 15.0925 23.112 15.1735 23.1736 15.2297Z" fill="#110C24"/>
<path d="M19.2325 12.1126C19.0912 12.1345 18.9775 12.2407 18.9448 12.3782L18.2891 12.2209L18.2919 12.2109L18.6835 10.7298L18.7366 10.5291L18.958 10.3601L19.2325 12.1126Z" fill="#110C24"/>
<path d="M12.4258 22.8683L12.4227 22.8657L12.3313 22.8692L12.3303 22.8701L12.3297 22.8692L11.4727 22.9009L12.3878 24.0177C12.9886 23.3783 13.4409 22.8284 13.4409 22.8284L12.4283 22.8657L12.4261 22.8686L12.4258 22.8683Z" fill="#110C24"/>
<path d="M8.09964 25.6075L8.10121 25.6113L8.32576 25.7711C8.35591 25.7422 8.38575 25.7143 8.41401 25.6876C8.51954 25.5887 8.61313 25.5042 8.69698 25.4313L7.96836 22.6001C7.91497 22.6896 7.85593 22.7687 7.79029 22.8366C7.06545 23.5888 6.39399 24.1528 6.39399 24.1528C6.39399 24.1528 6.38928 24.1829 6.3808 24.2392C6.37546 24.2737 6.36887 24.3186 6.36133 24.3717L8.09713 25.6085L8.09964 25.6075Z" fill="#110C24"/>
<path d="M10.0295 20.1075C9.93655 20.1731 9.87594 20.2818 9.87594 20.4043H8.47461C8.5459 19.6487 8.58861 18.8189 8.67812 18.03C8.69476 17.8818 8.71235 17.7436 8.73119 17.6145L10.0295 20.1075Z" fill="#110C24"/>
<path d="M7.95977 25.6647L6.34237 24.5125C6.28364 24.9254 6.18785 25.6453 6.11719 26.4037L7.95977 25.665V25.6647Z" fill="#110C24"/>
<path d="M12.1214 29.406L10.9082 28.9302C10.9707 29.1327 11.0134 29.3209 11.0266 29.4873C11.0407 29.6632 11.059 29.8588 11.0794 30.0642L12.4034 30.4405C12.3105 30.1016 12.2147 29.7505 12.1217 29.406H12.1214Z" fill="#110C24"/>
<path d="M6.52148 19.0099C7.09966 19.3384 7.93914 19.3441 7.93914 19.3441L7.98217 18.8984L7.14772 18.2766L6.52148 19.0099Z" fill="#110C24"/>
<path d="M9.0522 23.0743L8.97149 25.2052C8.92093 25.2447 8.86534 25.2893 8.8041 25.3405L8.05664 22.4352C8.11254 22.3161 8.16154 22.1839 8.20456 22.0404C8.21273 22.0121 8.22089 21.9832 8.22874 21.9543L8.87759 22.6541C8.85906 22.6936 8.8487 22.7376 8.8487 22.7844C8.8487 22.9179 8.93349 23.0316 9.0522 23.0743Z" fill="#110C24"/>
<path d="M22.4187 19.8638C21.5412 20.8264 20.5048 22.2811 20.2699 23.2534C20.2096 23.5015 20.1678 23.9397 20.139 24.4918L18.8742 25.5159C18.8752 25.1381 18.8771 24.8404 18.8805 24.6651C18.8871 24.3347 18.8764 24.0153 18.8375 23.7302C18.8249 23.64 18.8095 23.554 18.791 23.4717L20.4992 21.1483C20.6452 21.1238 20.7567 20.9969 20.7567 20.8437C20.7567 20.7887 20.7423 20.7369 20.7168 20.6923L21.8003 17.5618C21.8107 17.5627 21.8214 17.5633 21.8324 17.5633H21.8361L22.4187 19.8638Z" fill="#110C24"/>
<path d="M17.6691 19.3525L16.1029 22.473C16.1029 22.473 16.1004 22.473 16.0994 22.473C16.0165 22.4645 15.9321 22.4557 15.8469 22.4466L15.6133 18.0306C15.6993 18.0049 15.7709 17.9462 15.814 17.8689L17.5962 19.0309C17.5846 19.0633 17.5783 19.0978 17.5783 19.1342C17.5783 19.2197 17.6129 19.2969 17.6691 19.3528V19.3525Z" fill="#110C24"/>
<path d="M10.0856 20.7342L9.22382 22.4838C9.20215 22.4791 9.17985 22.4766 9.15692 22.4766C9.07935 22.4766 9.00837 22.5051 8.95404 22.5529L8.26562 21.8104C8.28101 21.7457 8.29577 21.6795 8.30959 21.6113C8.37617 21.2838 8.4236 20.9176 8.46223 20.53H9.89778C9.93107 20.6202 9.99923 20.6937 10.0856 20.7342Z" fill="#110C24"/>
<path d="M9.88318 26.5592L11.3542 26.5777C11.2019 26.139 11.0731 25.8378 11.1397 25.5228L10.3009 24.0957C9.94096 24.5373 9.61591 25.0058 9.55342 25.3186C9.50034 25.5843 9.65548 26.0356 9.88318 26.5592Z" fill="#110C24"/>
<path d="M11.6437 24.7719C11.7442 24.6758 11.8437 24.5778 11.942 24.4795L10.4122 23.9641C10.3925 23.9877 10.373 24.0112 10.3535 24.0348L11.1817 25.3887C11.253 25.2043 11.3965 25.008 11.644 24.7719H11.6437Z" fill="#110C24"/>
<path d="M11.8142 22.2866C11.2489 22.427 10.9408 22.7272 10.6802 23.1097C10.6667 23.1292 10.6538 23.149 10.6406 23.1688L10.6538 23.1107L9.45975 22.84C9.4632 22.8221 9.46477 22.8032 9.46477 22.7844C9.46477 22.682 9.41483 22.5909 9.33789 22.535L10.2091 20.7659C10.2188 20.7669 10.2286 20.7672 10.2386 20.7672C10.3064 20.7672 10.3699 20.7487 10.4242 20.7163L11.8142 22.2866Z" fill="#110C24"/>
<path d="M11.5554 27.2432C11.507 27.0416 11.453 26.8642 11.3999 26.7043L9.94141 26.6858C9.95208 26.7103 9.96308 26.7345 9.97407 26.759L11.6383 27.5783C11.6062 27.4518 11.5783 27.339 11.5554 27.2429V27.2432Z" fill="#110C24"/>
<path d="M11.836 28.3459C11.7779 28.1261 11.7242 27.9207 11.6774 27.7379L10.0547 26.939C10.2883 27.4471 10.5559 27.9942 10.7519 28.4929L11.8363 28.3459H11.836Z" fill="#110C24"/>
<path d="M12.0264 24.394C12.1203 24.2988 12.2123 24.2037 12.3015 24.1098L11.3458 22.9434C11.2249 23.0652 10.8402 23.4581 10.457 23.91L12.0264 24.3943V24.394Z" fill="#110C24"/>
<path d="M12.5079 18.7535L10.5416 20.2016C10.4986 20.1373 10.4354 20.0876 10.3613 20.0613L10.4807 15.8318C10.5567 15.8265 10.6358 15.8221 10.7187 15.818C10.7234 15.8177 10.7278 15.8177 10.7325 15.8174H10.7385L12.4473 18.3584C12.4184 18.4055 12.4014 18.4611 12.4014 18.5208C12.4014 18.6138 12.4426 18.697 12.5079 18.7535Z" fill="#110C24"/>
<path d="M15.2996 17.9685L14.174 20.4894H14.1737C14.1504 20.4847 14.1269 20.4825 14.1024 20.4825C13.8904 20.4825 13.7186 20.6543 13.7186 20.8663C13.7186 20.9306 13.7343 20.9913 13.7626 21.0443L12.8113 22.2032C12.773 22.2023 12.734 22.2013 12.6963 22.2007C12.4985 22.1982 12.3207 22.207 12.1599 22.2261C12.0889 22.2346 12.0214 22.245 11.9567 22.2569L10.5215 20.6354C10.5733 20.5723 10.6044 20.4919 10.6044 20.4043C10.6044 20.3751 10.6009 20.3471 10.5943 20.3198L12.6326 18.8192C12.6577 18.8258 12.6841 18.8293 12.7111 18.8293C12.8414 18.8293 12.9529 18.7486 12.9981 18.6343L15.1884 17.8042C15.2085 17.8695 15.2477 17.9264 15.2996 17.9685Z" fill="#110C24"/>
<path d="M22.4295 23.0413L22.7398 21.9691L21.52 21.677L20.8359 22.5652C20.8359 22.5652 21.7191 22.8861 22.4298 23.0413H22.4295Z" fill="#110C24"/>
<path d="M12.9451 16.039L12.7149 18.2123H12.7089C12.6445 18.2123 12.5848 18.2321 12.5352 18.266L10.8867 15.8141C10.9659 15.8135 11.0459 15.8148 11.1279 15.8179C11.6678 15.8399 12.2651 15.9401 12.9451 16.039Z" fill="#110C24"/>
<path d="M7.99669 18.753L8.12294 17.4456C7.97345 17.8362 7.62139 18.0627 7.24609 18.194L7.99638 18.7533L7.99669 18.753Z" fill="#110C24"/>
<path d="M16.5278 16.2206L15.628 17.378C15.5929 17.3654 15.5549 17.3588 15.5153 17.3588C15.335 17.3588 15.1871 17.4979 15.1736 17.6751L13.0179 18.4919C13.0076 18.3801 12.9375 18.2853 12.8398 18.2404L13.071 16.0564C13.1523 16.068 13.2343 16.0796 13.3182 16.0909C14.2267 16.2147 15.2794 16.3124 16.5278 16.2206Z" fill="#110C24"/>
<path d="M10.3547 15.8413L10.236 20.04C10.2036 20.0403 10.1722 20.0447 10.1424 20.0531L8.76367 17.4059C8.78471 17.285 8.80701 17.1729 8.83214 17.0699C9.05323 16.1491 9.44518 15.9198 10.3547 15.8413Z" fill="#110C24"/>
<path d="M19.3973 8.98321L19.4306 8.13714C19.2893 8.04386 19.1156 7.96786 18.9058 7.93677C18.9058 7.93677 18.8414 8.14028 18.8047 8.40032L19.3973 8.98321Z" fill="#110C24"/>
<path d="M20.6836 8.69501L20.8613 8.87277L22.0698 7.66427V3.92761C22.2259 3.87516 22.3387 3.72787 22.3387 3.55388C22.3387 3.33592 22.1622 3.15942 21.9442 3.15942C21.7263 3.15942 21.5498 3.33592 21.5498 3.55388C21.5498 3.72787 21.6625 3.87516 21.8186 3.92761V7.56L21.4455 7.9331V5.25231C21.6016 5.19986 21.7143 5.05257 21.7143 4.87858C21.7143 4.66062 21.5378 4.48412 21.3199 4.48412C21.1019 4.48412 20.9254 4.66062 20.9254 4.87858C20.9254 5.05257 21.0382 5.19986 21.1943 5.25231V8.18435L20.6836 8.69501Z" fill="#110C24"/>
<path d="M21.7915 9.57182L21.4891 10.1487C21.4382 10.1063 21.3726 10.0809 21.301 10.0809C21.2539 10.0809 21.2093 10.0919 21.1697 10.1117L20.3164 9.1962L20.5381 9.18898L21.502 9.1582L21.7915 9.57182Z" fill="#110C24"/>
<path d="M19.5195 9.09751C19.6618 9.02026 19.8107 8.90531 19.9454 8.73446C19.9454 8.73446 19.8295 8.45872 19.5538 8.22852L19.5195 9.09751Z" fill="#110C24"/>
<path d="M10.6043 23.2279C10.4184 23.5202 10.2469 23.8525 10.007 24.1942C9.69011 24.6455 9.54407 24.7865 9.36003 24.9225C9.28497 24.9778 9.20332 25.0327 9.10156 25.1075L9.17788 23.0922C9.27555 23.0859 9.36097 23.0341 9.41311 22.9578L10.6043 23.2279Z" fill="#110C24"/>
<path d="M17.8867 22.5795C17.8741 22.5801 17.8613 22.5805 17.8484 22.5814C17.5453 22.6046 17.056 22.5688 16.4684 22.5107C16.3927 22.5035 16.3152 22.4953 16.2363 22.4875L17.7749 19.422L17.7981 19.3755L17.7997 19.4304L17.8867 22.5795Z" fill="#110C24"/>
<path d="M18.8926 30.6418C18.8954 31.0913 18.8976 31.4722 18.8995 31.7388C19.32 31.6619 19.7346 31.5686 20.1425 31.4597C20.1397 31.3447 20.1362 31.2137 20.1328 31.069L18.8926 30.6418Z" fill="#110C24"/>
<path d="M23.0995 25.2483L22.2735 26.3189L22.0254 26.6405C22.3793 26.3566 22.7546 25.9951 23.0995 25.5432V25.2483Z" fill="#110C24"/>
<path d="M12.74 31.6675C12.3323 31.5833 11.9303 31.4835 11.5349 31.3685C11.426 31.3368 11.3176 31.3041 11.2096 31.2702C11.1691 30.9229 11.1276 30.5501 11.0918 30.199L12.441 30.5824C12.5487 30.9756 12.6517 31.3481 12.74 31.6675Z" fill="#110C24"/>
<path d="M6.42258 18.9424L6.99824 18.2681C6.48978 18.3915 6.01367 18.3689 6.01367 18.3689C6.06612 18.6186 6.22126 18.8042 6.42258 18.9424Z" fill="#110C24"/>
<path d="M22.956 3.13806V7.26572L21.5273 8.69437L21.7051 8.87213L24.2933 6.28398V3.72221C24.4493 3.66976 24.5621 3.52247 24.5621 3.34848C24.5621 3.13052 24.3856 2.95402 24.1676 2.95402C23.9497 2.95402 23.7732 3.13052 23.7732 3.34848C23.7732 3.52247 23.8859 3.66976 24.042 3.72221V6.18003L23.2072 7.01448V3.13806C23.3633 3.08561 23.4761 2.93832 23.4761 2.76433C23.4761 2.54637 23.2996 2.36987 23.0816 2.36987C22.8637 2.36987 22.6872 2.54637 22.6872 2.76433C22.6872 2.93832 22.7999 3.08561 22.956 3.13806Z" fill="#110C24"/>
<path d="M6.96968 27.879L6.06802 26.9773C6.02782 27.5467 6.00991 28.0997 6.04163 28.524C6.30199 28.7316 6.56894 28.9307 6.84217 29.1217C6.82992 28.7797 6.8519 28.3444 6.96936 27.879H6.96968Z" fill="#110C24"/>
<path d="M8.08101 25.7515L6.10433 26.5441C6.10244 26.5642 6.10087 26.5843 6.09899 26.6044C6.09302 26.6739 6.08737 26.7433 6.08203 26.8127L7.00944 27.7401C7.02609 27.6832 7.04368 27.6261 7.06315 27.5686C7.22395 27.0972 7.49184 26.6101 7.92587 26.1682C8.03767 26.0545 8.14005 25.9528 8.23459 25.8611L8.08101 25.7518V25.7515Z" fill="#110C24"/>
<path d="M21.6035 21.5677L22.7743 21.8482L22.8619 21.5445L22.1613 20.8435L21.6035 21.5677Z" fill="#110C24"/>
<path d="M22.8365 23.8551C22.769 24.052 22.6786 24.2753 22.5586 24.508L24.0124 23.28L22.8365 23.8551Z" fill="#110C24"/>
<path d="M20.5566 26.4006V27.5199C20.5566 27.5199 20.963 27.373 21.5107 27.0152L20.5566 26.4009V26.4006Z" fill="#110C24"/>
<path d="M22.8965 21.8777L23.2887 21.9716L22.9634 21.6462L22.8965 21.8777Z" fill="#110C24"/>
<path d="M20.3509 21.1368L18.7499 23.3148C18.6557 22.9994 18.5033 22.7608 18.2662 22.6486C18.1905 22.6128 18.1064 22.5902 18.0131 22.5817L17.9258 19.4402C17.9902 19.4324 18.0483 19.4044 18.0941 19.3633L20.1496 20.763C20.1427 20.7885 20.1389 20.8155 20.1389 20.8434C20.1389 20.9801 20.2278 21.0959 20.3509 21.1368Z" fill="#110C24"/>
<path d="M18.8766 27.3541C18.8766 27.4072 18.8769 27.4606 18.8772 27.5143L19.777 28.198L20.0854 27.7771C20.0848 27.6613 20.0844 27.5454 20.0844 27.4292L18.875 26.6858C18.8756 26.9012 18.8763 27.1248 18.8769 27.3535L18.8766 27.3541Z" fill="#110C24"/>
<path d="M23.6892 15.041C23.6908 15.0284 23.6918 15.0158 23.6918 15.003C23.6918 14.9282 23.6651 14.8598 23.6211 14.8064L23.9593 14.3174C23.9772 14.3686 23.9948 14.4191 24.0118 14.4694C24.0206 14.4955 24.0291 14.5215 24.0372 14.5479C24.1044 14.758 24.1569 14.9756 24.1958 15.1967C24.2005 15.2231 24.2049 15.2498 24.2093 15.2762L23.6892 15.041Z" fill="#110C24"/>
<path d="M20.0834 27.1625C20.0844 26.3343 20.095 25.5225 20.1221 24.8404C20.1246 24.7788 20.1271 24.7194 20.1296 24.6604L18.873 25.6779C18.873 25.7345 18.873 25.7923 18.873 25.8513C18.873 26.0294 18.873 26.2194 18.8734 26.4188C18.8734 26.4584 18.8734 26.4983 18.8734 26.5382L20.0831 27.2815C20.0831 27.2416 20.0831 27.2021 20.0831 27.1622L20.0834 27.1625Z" fill="#110C24"/>
<path d="M20.0896 28.4355C20.0893 28.3928 20.0886 28.3504 20.0883 28.3077V28.275C20.0877 28.1799 20.0871 28.0844 20.0864 27.9883L19.877 28.2741L20.0896 28.4355Z" fill="#110C24"/>
<path d="M23.4568 22.1412L22.8598 21.9983L22.5508 23.0667C22.6871 23.0934 22.8143 23.1123 22.9239 23.1198L23.7203 22.4044L23.4572 22.1412H23.4568Z" fill="#110C24"/>
<path d="M18.877 27.6726C18.8792 28.2508 18.882 28.8494 18.8851 29.4134L19.7017 28.2995L18.877 27.6726Z" fill="#110C24"/>
<path d="M23.8092 22.4939L23.0052 23.2162C22.9876 23.3126 22.9524 23.4794 22.8887 23.6892L24.2335 23.0316C24.2401 23.0005 24.2467 22.9694 24.2526 22.938L23.8089 22.4942L23.8092 22.4939Z" fill="#110C24"/>
<path d="M23.8578 18.36C23.5274 18.9467 22.9665 19.2771 22.5202 19.7538L21.959 17.5366C22.0664 17.4882 22.1408 17.3802 22.1408 17.2549C22.1408 17.1779 22.1126 17.1072 22.0658 17.0535L23.2831 15.2945C23.3145 15.3055 23.3484 15.3115 23.3836 15.3115C23.4963 15.3115 23.5952 15.2508 23.6489 15.1604L24.2315 15.4242C24.2767 15.4446 24.2742 15.8441 24.2774 15.9016C24.3229 16.7087 24.262 17.6421 23.8578 18.36Z" fill="#110C24"/>
<path d="M24.1702 23.3108L23.2246 24.1823V25.3729C23.6181 24.818 23.9608 24.1374 24.1702 23.3108Z" fill="#110C24"/>
<path d="M23.0997 25.0432V24.2153L22.3789 24.824C22.1167 25.2442 21.7517 25.6685 21.2461 26.0014L22.2008 26.2077L23.0993 25.0429L23.0997 25.0432Z" fill="#110C24"/>
<path d="M20.1282 30.893C20.1147 30.2796 20.0993 29.4659 20.0905 28.5947L19.8022 28.3755L18.8867 29.6242C18.8873 29.7325 18.888 29.8393 18.8886 29.9439C18.8895 30.1248 18.8905 30.3 18.8914 30.4668C18.8914 30.4809 18.8914 30.4948 18.8914 30.5086L20.1291 30.9351C20.1288 30.9209 20.1285 30.9074 20.1282 30.893Z" fill="#110C24"/>
<path d="M21.0928 26.0969C20.9568 26.177 20.8117 26.2508 20.6562 26.3161L21.6232 26.9389C21.6327 26.9326 21.6421 26.9257 21.6518 26.9191L22.1157 26.318L21.0928 26.0969Z" fill="#110C24"/>
<path d="M17.8597 19.375L17.7734 19.4215C17.8038 19.4246 17.8341 19.4274 17.8655 19.43L17.8597 19.375Z" fill="#FCF7FF"/>
<defs>
<linearGradient id="paint0_linear_850_1035" x1="0" y1="16" x2="32" y2="16" gradientUnits="userSpaceOnUse">
<stop stop-color="#8247FF"/>
<stop offset="1" stop-color="#F5C144"/>
</linearGradient>
</defs>
</svg>
