<svg width="84" height="84" viewBox="0 0 84 84" fill="none" xmlns="http://www.w3.org/2000/svg">
<circle cx="42" cy="42" r="42" fill="#FCF7FF"/>
<path d="M45.4545 38.3728V35.4364C46.4045 35.0334 47.3764 34.7311 48.3702 34.5296C49.3639 34.3281 50.4072 34.2273 51.5 34.2273C52.2485 34.2273 52.9826 34.2849 53.7023 34.4001C54.422 34.5152 55.1273 34.6592 55.8182 34.8319V37.5955C55.1273 37.3364 54.4289 37.1424 53.723 37.0134C53.0171 36.8845 52.2761 36.8194 51.5 36.8182C50.4061 36.8182 49.3553 36.9553 48.3477 37.2293C47.3401 37.5034 46.3757 37.8845 45.4545 38.3728ZM45.4545 47.8728V44.9364C46.4045 44.5334 47.3764 44.2311 48.3702 44.0296C49.3639 43.8281 50.4072 43.7273 51.5 43.7273C52.2485 43.7273 52.9826 43.7849 53.7023 43.9001C54.422 44.0152 55.1273 44.1592 55.8182 44.3319V47.0955C55.1273 46.8364 54.4289 46.6418 53.723 46.5117C53.0171 46.3816 52.2761 46.3171 51.5 46.3182C50.4061 46.3182 49.3553 46.4478 48.3477 46.7069C47.3401 46.966 46.3757 47.3546 45.4545 47.8728ZM45.4545 43.1228V40.1864C46.4045 39.7834 47.3764 39.4811 48.3702 39.2796C49.3639 39.0781 50.4072 38.9773 51.5 38.9773C52.2485 38.9773 52.9826 39.0349 53.7023 39.1501C54.422 39.2652 55.1273 39.4092 55.8182 39.5819V42.3455C55.1273 42.0864 54.4289 41.8918 53.723 41.7617C53.0171 41.6316 52.2761 41.5671 51.5 41.5682C50.4061 41.5682 49.3553 41.7053 48.3477 41.9793C47.3401 42.2534 46.3757 42.6345 45.4545 43.1228ZM32.5 48.9091C33.853 48.9091 35.1704 49.0606 36.452 49.3634C37.7336 49.6663 39.0072 50.1194 40.2727 50.7228V33.7092C39.0924 33.0182 37.8401 32.5001 36.5159 32.1546C35.1917 31.8092 33.853 31.6364 32.5 31.6364C31.4636 31.6364 30.4342 31.7372 29.4116 31.9387C28.3891 32.1402 27.4034 32.4425 26.4545 32.8455V49.9455C27.4621 49.6001 28.4628 49.341 29.4565 49.1682C30.4503 48.9955 31.4648 48.9091 32.5 48.9091ZM43.7273 50.7228C44.9939 50.1182 46.2681 49.6651 47.5497 49.3634C48.8314 49.0617 50.1481 48.9103 51.5 48.9091C52.5364 48.9091 53.5514 48.9955 54.5452 49.1682C55.5389 49.341 56.539 49.6001 57.5454 49.9455V32.8455C56.5954 32.4425 55.6092 32.1402 54.5866 31.9387C53.5641 31.7372 52.5352 31.6364 51.5 31.6364C50.147 31.6364 48.8083 31.8092 47.4841 32.1546C46.1598 32.5001 44.9076 33.0182 43.7273 33.7092V50.7228ZM42 55.8182C40.6182 54.7243 39.1212 53.8751 37.5091 53.2705C35.897 52.666 34.2273 52.3637 32.5 52.3637C31.2909 52.3637 30.1037 52.522 28.9384 52.8387C27.773 53.1554 26.6572 53.6016 25.5909 54.1773C24.9864 54.494 24.4037 54.4796 23.8429 54.1341C23.2821 53.7887 23.0012 53.2849 23 52.6228V31.8092C23 31.4925 23.0795 31.1902 23.2384 30.9023C23.3973 30.6145 23.6345 30.3986 23.95 30.2546C25.2742 29.5637 26.6561 29.0455 28.0955 28.7001C29.5348 28.3546 31.003 28.1819 32.5 28.1819C34.1697 28.1819 35.8037 28.3978 37.402 28.8296C39.0003 29.2614 40.533 29.9092 42 30.7728C43.4682 29.9092 45.0014 29.2614 46.5997 28.8296C48.198 28.3978 49.8314 28.1819 51.5 28.1819C52.997 28.1819 54.4651 28.3546 55.9045 28.7001C57.3439 29.0455 58.7257 29.5637 60.05 30.2546C60.3667 30.3986 60.6044 30.6145 60.7634 30.9023C60.9223 31.1902 61.0011 31.4925 61 31.8092V52.6228C61 53.2849 60.7196 53.7887 60.1588 54.1341C59.598 54.4796 59.0148 54.494 58.4091 54.1773C57.3439 53.6016 56.2287 53.1554 55.0634 52.8387C53.898 52.522 52.7102 52.3637 51.5 52.3637C49.7727 52.3637 48.103 52.666 46.4909 53.2705C44.8788 53.8751 43.3818 54.7243 42 55.8182Z" fill="#6633CC"/>
</svg>
