<svg width="24" height="25" viewBox="0 0 24 25" fill="none" xmlns="http://www.w3.org/2000/svg">
<g clip-path="url(#clip0_389_55)">
<path d="M14.0676 10.3283V8.57C14.6364 8.32867 15.2184 8.14767 15.8134 8.02701C16.4084 7.90634 17.0331 7.84601 17.6875 7.84601C18.1357 7.84601 18.5752 7.88049 19.0062 7.94944C19.4371 8.01839 19.8595 8.10458 20.2732 8.20801V9.86283C19.8595 9.70769 19.4413 9.59151 19.0186 9.51429C18.5959 9.43706 18.1522 9.3981 17.6875 9.39741C17.0325 9.39741 16.4033 9.47947 15.8 9.64357C15.1966 9.80767 14.6192 10.0359 14.0676 10.3283ZM14.0676 16.0167V14.2585C14.6364 14.0171 15.2184 13.8361 15.8134 13.7155C16.4084 13.5948 17.0331 13.5345 17.6875 13.5345C18.1357 13.5345 18.5752 13.569 19.0062 13.6379C19.4371 13.7069 19.8595 13.7931 20.2732 13.8965V15.5513C19.8595 15.3962 19.4413 15.2796 19.0186 15.2017C18.5959 15.1238 18.1522 15.0852 17.6875 15.0859C17.0325 15.0859 16.4033 15.1635 15.8 15.3186C15.1966 15.4737 14.6192 15.7064 14.0676 16.0167ZM14.0676 13.1725V11.4142C14.6364 11.1729 15.2184 10.9919 15.8134 10.8712C16.4084 10.7506 17.0331 10.6902 17.6875 10.6902C18.1357 10.6902 18.5752 10.7247 19.0062 10.7937C19.4371 10.8626 19.8595 10.9488 20.2732 11.0522V12.7071C19.8595 12.5519 19.4413 12.4354 19.0186 12.3575C18.5959 12.2796 18.1522 12.241 17.6875 12.2417C17.0325 12.2417 16.4033 12.3237 15.8 12.4878C15.1966 12.6519 14.6192 12.8801 14.0676 13.1725ZM6.31054 16.6373C7.12072 16.6373 7.90952 16.728 8.67695 16.9093C9.44438 17.0906 10.207 17.362 10.9648 17.7233V7.53573C10.258 7.12202 9.50816 6.81174 8.71522 6.60489C7.92228 6.39804 7.12072 6.29461 6.31054 6.29461C5.68998 6.29461 5.07356 6.35494 4.46127 6.47561C3.84899 6.59627 3.25876 6.77727 2.69061 7.0186V17.2579C3.29393 17.051 3.89312 16.8959 4.48816 16.7924C5.08321 16.689 5.69067 16.6373 6.31054 16.6373ZM13.0333 17.7233C13.7918 17.3613 14.5547 17.09 15.3221 16.9093C16.0896 16.7287 16.878 16.638 17.6875 16.6373C18.3081 16.6373 18.9159 16.689 19.5109 16.7924C20.106 16.8959 20.7048 17.051 21.3074 17.2579V7.0186C20.7386 6.77727 20.148 6.59627 19.5357 6.47561C18.9234 6.35494 18.3074 6.29461 17.6875 6.29461C16.8773 6.29461 16.0758 6.39804 15.2828 6.60489C14.4899 6.81174 13.74 7.12202 13.0333 7.53573V17.7233ZM11.999 20.7744C11.1716 20.1193 10.2752 19.6108 9.30992 19.2488C8.34461 18.8868 7.34481 18.7058 6.31054 18.7058C5.58656 18.7058 4.87567 18.8006 4.17788 18.9902C3.4801 19.1799 2.81196 19.4471 2.17347 19.7918C1.81148 19.9814 1.46259 19.9728 1.12679 19.766C0.791001 19.5591 0.62276 19.2574 0.62207 18.861V6.39804C0.62207 6.20842 0.669647 6.02742 0.764799 5.85505C0.859952 5.68267 1.00199 5.55338 1.19092 5.4672C1.98386 5.05349 2.81127 4.74321 3.67316 4.53635C4.53505 4.3295 5.41418 4.22607 6.31054 4.22607C7.31034 4.22607 8.28876 4.35536 9.2458 4.61392C10.2028 4.87249 11.1206 5.26034 11.999 5.77748C12.8781 5.26034 13.7962 4.87249 14.7533 4.61392C15.7103 4.35536 16.6884 4.22607 17.6875 4.22607C18.5839 4.22607 19.463 4.3295 20.3249 4.53635C21.1868 4.74321 22.0142 5.05349 22.8071 5.4672C22.9967 5.55338 23.1391 5.68267 23.2343 5.85505C23.3294 6.02742 23.3767 6.20842 23.376 6.39804V18.861C23.376 19.2574 23.2081 19.5591 22.8723 19.766C22.5365 19.9728 22.1873 19.9814 21.8246 19.7918C21.1868 19.4471 20.519 19.1799 19.8212 18.9902C19.1234 18.8006 18.4122 18.7058 17.6875 18.7058C16.6532 18.7058 15.6534 18.8868 14.6881 19.2488C13.7228 19.6108 12.8264 20.1193 11.999 20.7744Z" fill="#FCF7FF"/>
</g>
<defs>
<clipPath id="clip0_389_55">
<rect width="24" height="24" fill="white" transform="translate(-0.000976562 0.5)"/>
</clipPath>
</defs>
</svg>
