<svg width="105" height="105" viewBox="0 0 105 105" fill="none" xmlns="http://www.w3.org/2000/svg">
<circle cx="52.5" cy="52.5" r="52.5" fill="#110C24"/>
<path d="M34.5607 69.813C32.3542 67.6061 30.6258 65.0559 29.3755 62.1625C28.1252 59.269 27.5 56.2774 27.5 53.1878C27.5 50.0982 28.0884 47.0453 29.2652 44.0293C30.442 41.0132 32.3542 38.181 35.002 35.5328C36.7182 33.8163 38.8388 32.345 41.364 31.119C43.8892 29.893 46.8802 28.9244 50.337 28.2133C53.7938 27.5022 57.7409 27.0731 62.1784 26.9259C66.6159 26.7788 71.5804 26.9504 77.0721 27.4409C77.4643 32.6393 77.5869 37.4209 77.4398 41.7856C77.2927 46.1503 76.8882 50.0859 76.2263 53.5924C75.5643 57.0989 74.6327 60.164 73.4314 62.7877C72.2301 65.4115 70.7469 67.6061 68.9817 69.3716C66.3829 71.9708 63.6249 73.8712 60.7074 75.0727C57.79 76.2742 54.8112 76.875 51.7712 76.875C48.5841 76.875 45.4705 76.2497 42.4305 74.9992C39.3904 73.7486 36.7672 72.0199 34.5607 69.813ZM42.7982 68.636C44.2202 69.4697 45.6789 70.0704 47.1744 70.4383C48.6699 70.8061 50.2021 70.99 51.7712 70.99C54.0267 70.99 56.2577 70.5363 58.4642 69.6291C60.6706 68.7218 62.779 67.2628 64.7894 65.2521C65.672 64.3693 66.5668 63.131 67.4739 61.5372C68.381 59.9433 69.1656 57.859 69.8275 55.2843C70.4894 52.7097 70.992 49.5955 71.3353 45.9419C71.6785 42.2883 71.7275 37.9358 71.4823 32.8845C69.0797 32.7864 66.3707 32.7496 63.3552 32.7742C60.3397 32.7987 57.3364 33.0316 54.3454 33.473C51.3544 33.9144 48.5105 34.6255 45.8137 35.6063C43.1169 36.5872 40.9104 37.9358 39.1943 39.6523C36.9878 41.8592 35.4678 44.0415 34.6343 46.1994C33.8007 48.3572 33.3839 50.4415 33.3839 52.4522C33.3839 55.3457 33.9355 57.8836 35.0388 60.0659C36.142 62.2483 37.1104 63.7808 37.944 64.6636C40.0033 60.7402 42.7247 56.9763 46.1079 53.3717C49.4912 49.7671 53.4383 46.8124 57.9493 44.5074C54.419 47.597 51.3422 51.0913 48.7189 54.9901C46.0957 58.8889 44.1221 63.4375 42.7982 68.636Z" fill="#ABDF00"/>
</svg>
