<svg width="375" height="813" viewBox="0 0 375 813" fill="none" xmlns="http://www.w3.org/2000/svg">
<g clip-path="url(#clip0_648_4347)">
<rect width="375" height="812" transform="translate(0 0.381836)" fill="#110C24"/>
<path opacity="0.23" d="M-567.268 202.979C-567.268 202.979 -345.735 283.18 -200.305 380.37C-54.8742 477.561 39.0622 481.873 58.518 490.379C77.9737 498.886 214.069 529.484 236.209 533.986C258.349 538.488 617.163 628.704 647.198 646.162C677.232 663.62 979.078 745.101 979.078 745.101L952.148 1136.96L-626.932 1059.82L-567.268 202.979Z" fill="#3C1E77"/>
<path d="M134.397 149.403C134.717 147.892 136.201 146.926 137.712 147.246C139.223 147.565 140.188 149.049 139.87 150.56C139.55 152.071 138.066 153.037 136.556 152.718C135.045 152.398 134.079 150.915 134.397 149.403Z" fill="#FBF7FF" fill-opacity="0.46"/>
<path d="M244.47 110.674C244.789 109.163 246.272 108.197 247.783 108.516C249.294 108.836 250.261 110.319 249.942 111.83C249.622 113.342 248.138 114.308 246.627 113.988C245.116 113.669 244.151 112.185 244.47 110.674Z" fill="#FBF7FF" fill-opacity="0.46"/>
<path d="M197.801 286.22C198.12 284.709 199.604 283.743 201.115 284.063C202.626 284.382 203.592 285.865 203.272 287.376C202.954 288.887 201.47 289.854 199.959 289.534C198.448 289.215 197.481 287.731 197.801 286.22Z" fill="#FBF7FF" fill-opacity="0.46"/>
<path d="M368.799 328.078C369.118 326.567 370.602 325.601 372.113 325.92C373.624 326.239 374.59 327.723 374.27 329.234C373.951 330.745 372.468 331.712 370.957 331.392C369.446 331.073 368.479 329.589 368.799 328.078Z" fill="#FBF7FF" fill-opacity="0.46"/>
<path d="M342.358 305.492C342.497 304.841 343.137 304.424 343.789 304.562C344.44 304.699 344.857 305.34 344.719 305.991C344.582 306.643 343.941 307.06 343.29 306.923C342.638 306.784 342.221 306.144 342.358 305.492Z" fill="#FBF7FF" fill-opacity="0.46"/>
<path d="M307.083 165.788C307.22 165.136 307.861 164.72 308.512 164.858C309.164 164.995 309.581 165.635 309.444 166.287C309.305 166.939 308.665 167.356 308.013 167.218C307.361 167.08 306.945 166.44 307.083 165.788Z" fill="#FBF7FF" fill-opacity="0.46"/>
<path d="M261.948 323.367C262.085 322.715 262.725 322.298 263.377 322.436C264.029 322.574 264.446 323.214 264.308 323.866C264.17 324.518 263.53 324.934 262.878 324.796C262.227 324.659 261.81 324.018 261.948 323.367Z" fill="#FBF7FF" fill-opacity="0.46"/>
<path d="M312.694 217.335C312.831 216.684 313.471 216.267 314.123 216.405C314.775 216.542 315.191 217.183 315.053 217.835C314.916 218.486 314.276 218.903 313.624 218.765C312.972 218.627 312.555 217.987 312.694 217.335Z" fill="#FBF7FF" fill-opacity="0.46"/>
<path d="M239.648 194.695C239.786 194.043 240.426 193.627 241.078 193.765C241.729 193.902 242.145 194.543 242.008 195.194C241.871 195.846 241.231 196.263 240.579 196.125C239.927 195.987 239.51 195.347 239.648 194.695Z" fill="#FBF7FF" fill-opacity="0.46"/>
<path d="M252.351 260.142C252.49 259.49 253.13 259.073 253.781 259.211C254.433 259.349 254.849 259.989 254.712 260.641C254.575 261.293 253.934 261.71 253.283 261.571C252.631 261.434 252.214 260.794 252.351 260.142Z" fill="#FBF7FF" fill-opacity="0.46"/>
<path d="M249.673 272.165C249.812 271.513 250.451 271.096 251.103 271.234C251.754 271.372 252.171 272.012 252.034 272.664C251.896 273.316 251.256 273.732 250.605 273.594C249.953 273.457 249.536 272.817 249.673 272.165Z" fill="#FBF7FF" fill-opacity="0.46"/>
<path d="M240.701 260.822C240.84 260.171 241.48 259.754 242.132 259.891C242.783 260.03 243.2 260.669 243.062 261.321C242.924 261.972 242.284 262.389 241.632 262.252C240.981 262.114 240.564 261.474 240.701 260.822Z" fill="#FBF7FF" fill-opacity="0.46"/>
<path d="M165.673 78.742C165.811 78.09 166.451 77.6739 167.103 77.8114C167.755 77.9488 168.172 78.5896 168.033 79.2407C167.896 79.8926 167.256 80.3096 166.604 80.1722C165.952 80.0338 165.536 79.3939 165.673 78.742Z" fill="#FBF7FF" fill-opacity="0.46"/>
<path d="M166.481 92.4004C166.62 91.7485 167.259 91.3315 167.911 91.4699C168.563 91.6073 168.979 92.2472 168.842 92.8991C168.704 93.5511 168.064 93.9681 167.413 93.8297C166.761 93.6923 166.344 93.0524 166.481 92.4004Z" fill="#FBF7FF" fill-opacity="0.46"/>
<path d="M167.17 105.931C167.308 105.28 167.948 104.863 168.599 105C169.251 105.138 169.668 105.778 169.53 106.43C169.393 107.081 168.753 107.498 168.101 107.361C167.449 107.222 167.033 106.583 167.17 105.931Z" fill="#FBF7FF" fill-opacity="0.46"/>
<path d="M38.0645 23.1043C38.2029 22.4523 38.8427 22.0354 39.4946 22.1737C40.1456 22.3112 40.5626 22.9511 40.4251 23.603C40.2877 24.255 39.6469 24.671 38.996 24.5336C38.344 24.3961 37.9271 23.7562 38.0645 23.1043Z" fill="#FBF7FF" fill-opacity="0.46"/>
<path d="M27.7313 173.761C27.8688 173.109 28.5086 172.693 29.1605 172.831C29.8124 172.968 30.2285 173.609 30.091 174.26C29.9536 174.912 29.3138 175.329 28.6619 175.191C28.01 175.053 27.593 174.413 27.7313 173.761Z" fill="#FBF7FF" fill-opacity="0.46"/>
<path d="M78.8727 236.065C79.0101 235.413 79.65 234.997 80.3019 235.135C80.9538 235.272 81.3707 235.912 81.2324 236.564C81.0949 237.216 80.4551 237.633 79.8032 237.494C79.1513 237.357 78.7343 236.717 78.8727 236.065Z" fill="#FBF7FF" fill-opacity="0.46"/>
<path d="M284.258 35.3222C284.396 34.6702 285.036 34.2533 285.688 34.3907C286.34 34.5291 286.756 35.169 286.618 35.8209C286.481 36.4729 285.84 36.8889 285.189 36.7515C284.537 36.614 284.12 35.9732 284.258 35.3222Z" fill="#FBF7FF" fill-opacity="0.46"/>
<path d="M184.774 14.2954C184.912 13.6435 185.552 13.2274 186.204 13.3649C186.856 13.5023 187.272 14.1422 187.134 14.7941C186.997 15.4461 186.356 15.8631 185.705 15.7247C185.053 15.5873 184.636 14.9474 184.774 14.2954Z" fill="#FBF7FF" fill-opacity="0.46"/>
<path d="M129.298 66.0957C129.436 65.4438 130.075 65.0268 130.727 65.1652C131.379 65.3026 131.796 65.9425 131.658 66.5945C131.52 67.2464 130.881 67.6634 130.229 67.525C129.577 67.3876 129.161 66.7477 129.298 66.0957Z" fill="#FBF7FF" fill-opacity="0.46"/>
<path d="M86.2379 82.4029C86.3754 81.7509 87.0161 81.3348 87.6671 81.4723C88.319 81.6097 88.736 82.2505 88.5985 82.9016C88.4602 83.5535 87.8203 83.9705 87.1684 83.8331C86.5165 83.6947 86.1005 83.0548 86.2379 82.4029Z" fill="#FBF7FF" fill-opacity="0.46"/>
<path d="M13.2388 114.273C13.3772 113.621 14.017 113.204 14.6689 113.343C15.3208 113.48 15.7369 114.12 15.5995 114.772C15.462 115.424 14.8222 115.841 14.1703 115.703C13.5184 115.565 13.1014 114.925 13.2388 114.273Z" fill="#FBF7FF" fill-opacity="0.46"/>
<path d="M337.31 105.78C337.448 105.128 338.088 104.711 338.74 104.849C339.392 104.987 339.808 105.627 339.67 106.279C339.533 106.931 338.893 107.347 338.241 107.209C337.589 107.072 337.173 106.431 337.31 105.78Z" fill="#FBF7FF" fill-opacity="0.46"/>
<path d="M164.397 222.118C164.534 221.466 165.174 221.05 165.826 221.187C166.478 221.325 166.895 221.966 166.756 222.617C166.619 223.269 165.979 223.686 165.327 223.548C164.675 223.41 164.259 222.77 164.397 222.118Z" fill="#FBF7FF" fill-opacity="0.46"/>
<path d="M365.306 64.4435C365.444 63.7916 366.084 63.3746 366.735 63.512C367.387 63.6504 367.803 64.2903 367.666 64.9422C367.529 65.5942 366.889 66.0102 366.237 65.8728C365.585 65.7353 365.168 65.0945 365.306 64.4435Z" fill="#FBF7FF" fill-opacity="0.46"/>
<g opacity="0.2">
<path d="M57.8168 433.243C58.1363 431.732 59.6203 430.766 61.1312 431.085C62.6421 431.405 63.6079 432.889 63.2894 434.4C62.9699 435.911 61.4859 436.877 59.975 436.557C58.4641 436.238 57.4983 434.755 57.8168 433.243Z" fill="#FBF7FF" fill-opacity="0.46"/>
<path d="M167.889 394.513C168.208 393.002 169.692 392.036 171.203 392.355C172.714 392.675 173.68 394.158 173.361 395.669C173.042 397.181 171.558 398.147 170.047 397.827C168.536 397.508 167.57 396.024 167.889 394.513Z" fill="#FBF7FF" fill-opacity="0.46"/>
<path d="M121.22 570.059C121.54 568.548 123.024 567.582 124.535 567.902C126.045 568.221 127.011 569.704 126.692 571.215C126.373 572.726 124.889 573.693 123.378 573.374C121.867 573.054 120.901 571.57 121.22 570.059Z" fill="#FBF7FF" fill-opacity="0.46"/>
<path d="M315.605 487.728C315.925 486.216 317.408 485.25 318.919 485.569C320.43 485.889 321.396 487.373 321.077 488.884C320.757 490.395 319.273 491.361 317.762 491.041C316.252 490.722 315.286 489.239 315.605 487.728Z" fill="#FBF7FF" fill-opacity="0.46"/>
<path d="M316.892 387.372C317.03 386.72 317.67 386.304 318.321 386.442C318.973 386.579 319.389 387.22 319.252 387.871C319.114 388.523 318.475 388.94 317.823 388.802C317.171 388.664 316.754 388.024 316.892 387.372Z" fill="#FBF7FF" fill-opacity="0.46"/>
<path d="M310.372 494.245C310.511 493.594 311.151 493.177 311.802 493.315C312.454 493.453 312.87 494.093 312.733 494.745C312.596 495.396 311.955 495.813 311.304 495.676C310.652 495.537 310.235 494.897 310.372 494.245Z" fill="#FBF7FF" fill-opacity="0.46"/>
<path d="M230.502 449.628C230.64 448.976 231.281 448.56 231.932 448.697C232.583 448.835 233 449.474 232.863 450.126C232.725 450.778 232.085 451.195 231.433 451.057C230.781 450.92 230.365 450.28 230.502 449.628Z" fill="#FBF7FF" fill-opacity="0.46"/>
<path d="M236.113 501.175C236.251 500.523 236.89 500.107 237.542 500.244C238.194 500.381 238.61 501.022 238.473 501.674C238.335 502.325 237.696 502.742 237.044 502.605C236.392 502.466 235.975 501.826 236.113 501.175Z" fill="#FBF7FF" fill-opacity="0.46"/>
<path d="M163.068 478.534C163.205 477.883 163.845 477.466 164.497 477.604C165.149 477.741 165.565 478.382 165.427 479.033C165.29 479.685 164.65 480.102 163.998 479.965C163.346 479.826 162.929 479.186 163.068 478.534Z" fill="#FBF7FF" fill-opacity="0.46"/>
<path d="M175.771 543.981C175.909 543.329 176.549 542.912 177.201 543.051C177.853 543.188 178.269 543.828 178.131 544.48C177.994 545.132 177.353 545.549 176.702 545.411C176.05 545.273 175.633 544.633 175.771 543.981Z" fill="#FBF7FF" fill-opacity="0.46"/>
<path d="M173.093 556.004C173.231 555.352 173.871 554.935 174.523 555.074C175.174 555.211 175.591 555.851 175.453 556.503C175.316 557.155 174.675 557.571 174.024 557.433C173.372 557.296 172.955 556.656 173.093 556.004Z" fill="#FBF7FF" fill-opacity="0.46"/>
<path d="M164.121 544.661C164.259 544.01 164.899 543.593 165.551 543.731C166.202 543.869 166.619 544.509 166.482 545.161C166.343 545.812 165.703 546.229 165.051 546.091C164.4 545.953 163.983 545.313 164.121 544.661Z" fill="#FBF7FF" fill-opacity="0.46"/>
<path d="M89.0929 362.581C89.2303 361.929 89.8702 361.513 90.5221 361.651C91.174 361.788 91.591 362.429 91.4526 363.08C91.3152 363.732 90.6753 364.149 90.0234 364.012C89.3715 363.873 88.9555 363.233 89.0929 362.581Z" fill="#FBF7FF" fill-opacity="0.46"/>
<path d="M89.9007 376.24C90.0391 375.588 90.6789 375.171 91.3308 375.309C91.9827 375.447 92.3988 376.087 92.2613 376.739C92.1239 377.39 91.4831 377.807 90.8321 377.669C90.1802 377.532 89.7633 376.892 89.9007 376.24Z" fill="#FBF7FF" fill-opacity="0.46"/>
<path d="M90.5897 389.77C90.7272 389.119 91.367 388.702 92.0189 388.839C92.6708 388.978 93.0878 389.618 92.9494 390.27C92.812 390.921 92.1721 391.338 91.5202 391.2C90.8683 391.062 90.4523 390.422 90.5897 389.77Z" fill="#FBF7FF" fill-opacity="0.46"/>
<path d="M2.29214 519.905C2.42958 519.253 3.06942 518.837 3.72133 518.974C4.37324 519.111 4.79018 519.751 4.65181 520.403C4.51437 521.055 3.87454 521.472 3.22263 521.334C2.57072 521.196 2.15377 520.556 2.29214 519.905Z" fill="#FBF7FF" fill-opacity="0.46"/>
<path d="M207.677 319.162C207.815 318.51 208.455 318.093 209.107 318.23C209.759 318.368 210.175 319.008 210.038 319.66C209.9 320.312 209.259 320.728 208.609 320.591C207.957 320.453 207.54 319.813 207.677 319.162Z" fill="#FBF7FF" fill-opacity="0.46"/>
<path d="M108.193 298.135C108.332 297.483 108.971 297.067 109.623 297.204C110.275 297.342 110.691 297.982 110.554 298.633C110.416 299.285 109.776 299.702 109.125 299.564C108.473 299.427 108.056 298.787 108.193 298.135Z" fill="#FBF7FF" fill-opacity="0.46"/>
<path d="M52.7176 349.935C52.8551 349.283 53.4949 348.866 54.1468 349.005C54.7987 349.142 55.2157 349.782 55.0773 350.434C54.9399 351.086 54.3001 351.503 53.6482 351.364C52.9963 351.227 52.5802 350.587 52.7176 349.935Z" fill="#FBF7FF" fill-opacity="0.46"/>
<path d="M9.65734 366.242C9.79478 365.59 10.4356 365.174 11.0865 365.312C11.7384 365.449 12.1554 366.09 12.018 366.741C11.8796 367.393 11.2397 367.81 10.5878 367.672C9.93592 367.534 9.5199 366.894 9.65734 366.242Z" fill="#FBF7FF" fill-opacity="0.46"/>
<path d="M34.8116 278.83C34.9491 278.178 35.5889 277.761 36.2408 277.899C36.8927 278.037 37.3097 278.677 37.1713 279.328C37.0339 279.98 36.3941 280.397 35.7422 280.259C35.0902 280.121 34.6742 279.481 34.8116 278.83Z" fill="#FBF7FF" fill-opacity="0.46"/>
<path d="M362.252 455.676C362.39 455.024 363.029 454.608 363.681 454.746C364.333 454.883 364.75 455.523 364.612 456.175C364.474 456.827 363.834 457.244 363.183 457.106C362.531 456.968 362.114 456.328 362.252 455.676Z" fill="#FBF7FF" fill-opacity="0.46"/>
<path d="M325.506 447.91C325.645 447.258 326.285 446.842 326.937 446.98C327.588 447.117 328.004 447.757 327.867 448.409C327.73 449.061 327.089 449.477 326.438 449.34C325.786 449.202 325.369 448.562 325.506 447.91Z" fill="#FBF7FF" fill-opacity="0.46"/>
<path d="M260.73 389.62C260.867 388.968 261.507 388.551 262.159 388.688C262.811 388.826 263.228 389.466 263.09 390.118C262.952 390.77 262.312 391.186 261.66 391.049C261.008 390.911 260.592 390.271 260.73 389.62Z" fill="#FBF7FF" fill-opacity="0.46"/>
<path d="M87.816 505.957C87.9535 505.305 88.5933 504.889 89.2452 505.027C89.8971 505.164 90.3141 505.805 90.1757 506.456C90.0383 507.108 89.3985 507.525 88.7466 507.387C88.0946 507.249 87.6786 506.609 87.816 505.957Z" fill="#FBF7FF" fill-opacity="0.46"/>
<path d="M288.726 348.283C288.863 347.631 289.503 347.214 290.155 347.351C290.807 347.49 291.223 348.13 291.085 348.782C290.948 349.434 290.308 349.85 289.656 349.712C289.004 349.575 288.587 348.934 288.726 348.283Z" fill="#FBF7FF" fill-opacity="0.46"/>
</g>
<path opacity="0.23" d="M1012.67 292.697C1012.19 292.798 1011.68 293.133 1011.13 293.741C978.463 329.629 730.72 349.454 520.737 398.551C310.763 447.65 345.085 468.252 312.519 479.419C279.954 490.587 255.182 494.609 231.113 506.297C207.045 517.985 184.574 522.799 184.574 522.799L182.627 522.535C208.17 528.381 230.949 533.502 238.643 535.067C260.786 539.568 619.601 629.767 649.635 647.225C679.661 664.683 981.498 746.179 981.498 746.179L966.895 958.618C973.309 895.916 980.564 823.776 987.873 746.344C1008.71 525.569 1027.6 289.56 1012.67 292.697ZM-588.509 421.786L-593.972 622.319L-580.068 422.9L-588.509 421.786ZM249.065 1103.55L-605.926 1061.8L-606.491 1083.02L249.065 1103.55Z" fill="url(#paint0_linear_648_4347)"/>
<g opacity="0.32" filter="url(#filter0_f_648_4347)">
<path d="M373.562 724.06C373.562 724.06 346.471 705.076 363.743 652.989C363.743 652.989 396.469 683.17 373.562 724.06Z" fill="#6633CC"/>
<path d="M372.724 741.58C372.724 741.58 341.446 752.345 309.467 707.754C309.467 707.754 353.114 699.011 372.724 741.58Z" fill="#6633CC"/>
<path d="M362.692 731.924C362.692 731.924 331.393 721.23 333.494 666.393C333.494 666.393 373.32 686.272 362.692 731.924Z" fill="#6633CC"/>
</g>
<g opacity="0.32" filter="url(#filter1_f_648_4347)">
<path d="M9.86802 714.427C9.86802 714.427 -1.48634 683.356 42.4846 650.523C42.4846 650.523 52.0522 694.001 9.86802 714.427Z" fill="#6633CC"/>
<path d="M-0.844231 728.315C-0.844231 728.315 -32.6553 719.245 -33.3646 664.378C-33.3646 664.378 7.43314 682.183 -0.844231 728.315Z" fill="#6633CC"/>
<path d="M-3.54625 714.655C-3.54625 714.655 -23.0952 687.976 10.0083 644.206C10.0083 644.206 31.2934 683.299 -3.54625 714.655Z" fill="#6633CC"/>
</g>
<path d="M374.065 -26.792C374.065 -26.792 362.697 -13.1787 342.249 0.888416C322.117 -12.954 317.248 1.62046 317.248 1.62046C324.102 7.7041 331.946 6.28873 337.125 4.22833C331.142 8.07234 324.499 11.833 317.225 15.3234C301.147 -3.12312 292.819 9.81016 292.819 9.81016C298.939 18.8743 309.048 17.9686 314.274 16.7646C307.787 19.7287 300.807 22.3985 293.414 24.657C279.018 4.71205 269.534 16.879 269.534 16.879C274.549 25.9727 283.919 26.4224 289.411 25.8237C281.872 27.9152 273.947 29.5886 265.577 30.559C255.143 8.04673 243.503 18.2973 243.503 18.2973C246.785 28.3344 256.149 30.4476 261.619 30.8335C258.472 31.1177 255.337 31.4305 252.081 31.5199C247.501 31.6456 243.116 31.5502 238.906 31.2682C234.257 7.72663 220.699 14.5914 220.699 14.5914C221.312 24.0278 228.294 28.5799 233.485 30.6734C225.509 29.791 218.22 28.2423 211.596 26.1668C211.391 1.06326 196.453 5.69242 196.453 5.69242C195.046 18.9521 207.203 24.5013 210.337 25.7322C208.808 25.2319 207.221 24.7958 205.762 24.2451C205.363 24.077 204.918 23.925 204.482 23.7648C197.644 21.0828 191.625 17.8648 186.297 14.4084C186.329 14.3902 186.357 14.3808 186.389 14.3626C186.389 14.3626 184.46 12.6519 181.425 11.0455C175.096 6.38697 169.988 1.52151 165.894 -3.0921C165.004 -4.55606 163.599 -6.62992 161.113 -8.90273C155.156 -16.7447 152.559 -22.6057 152.559 -22.6057L148.625 -21.5991C148.625 -21.5991 150.579 -18.123 154.594 -12.9518C151.683 -14.0515 148.294 -14.4852 144.393 -13.5009C144.393 -13.5009 142.118 1.18005 165.139 -1.21621C168.689 2.2751 172.832 5.87386 177.605 9.44414C172.865 7.8133 166.815 7.31463 160.953 11.6174C160.953 11.6174 164.433 26.4324 185.474 14.843C189.911 17.6399 194.79 20.2684 200.09 22.6438C195.442 21.8377 189.967 22.3008 185.039 26.7844C185.039 26.7844 190.162 41.6244 210.611 26.8302C210.611 26.8302 210.251 26.6137 210.2 26.5786C214.952 28.1976 219.97 29.6076 225.32 30.6734C221.102 31.038 216.597 32.7378 213.036 37.3076C213.036 37.3076 220.602 51.0591 238.243 33.0068C238.243 33.0068 237.257 32.6352 236.436 32.3205C241.153 32.8254 246.033 33.0983 251.166 33.0754C247.46 34.5615 243.874 37.2572 241.719 42.2031C241.719 42.2031 252.268 53.3908 264.708 32.3891C269.747 31.8838 274.715 31.1883 279.53 30.2159C276.294 32.3757 273.41 35.5952 272.256 40.6933C272.256 40.6933 284.64 49.6529 292.934 26.8988C296.071 25.9796 299.117 24.9261 302.129 23.8563C299.949 26.173 298.215 29.1918 297.668 33.2813C297.668 33.2813 310.711 41.0333 316.951 17.8626C321.984 15.5679 326.731 13.1322 331.27 10.6108C328.856 13.7538 327.163 17.8396 327.793 23.1471C327.793 23.1471 342.163 27.3507 342.637 3.88517C366.368 -11.2431 380.631 -26.5633 380.631 -26.5633L374.065 -26.792ZM164.407 -26.7005C155.871 -14.1361 168.044 -1.39922 168.044 -1.39922C179.807 -23.7318 164.407 -26.7005 164.407 -26.7005ZM176.873 -8.23926C175.468 -8.34553 174.517 -8.14775 174.517 -8.14775C171.34 6.70636 187.418 13.905 187.418 13.905C189.286 -4.93396 181.088 -7.92053 176.873 -8.23926Z" fill="url(#paint1_radial_648_4347)" fill-opacity="0.72"/>
<path opacity="0.94" d="M523.026 701.761C525.921 700.747 546.592 701.032 544.654 705.112L536.658 707.906C530.698 708.482 523.294 708.091 520.131 708.267C503.393 709.199 487.094 712.93 470.445 714.089C465.742 714.416 462.352 712.656 458.678 711.698C458.573 711.745 458.492 711.852 458.378 711.878C456.091 712.38 453.869 712.007 451.647 711.539L451.522 711.57L451.522 711.571C450.795 711.755 450.077 711.938 449.271 712.28L449.458 711.134C447.431 710.698 445.379 710.306 443.311 710.616C432.566 712.234 421.359 716.824 410.557 716.804C401.978 716.788 393.746 711.928 385.353 710.474C385.313 710.467 385.272 710.481 385.232 710.474C379.214 713.05 356.135 714.266 351.27 714.24C330.623 714.124 308.647 710.633 288.081 713.888C283.354 714.635 207.074 713.432 206.683 713.132C203.845 710.959 258.3 710.182 256.032 706.977C250.184 703.962 245.187 699.562 247.273 694.55C248.556 691.468 254.999 692.794 256.71 694.452C258.098 695.795 258.423 700.812 259.727 699.389C260.262 698.806 259.883 697.823 259.923 697.035C260.021 695.122 260.23 674.686 266.204 673.28C267.058 673.08 268.016 673.276 269.122 673.961C273.631 676.751 271.037 692.108 270.125 696.308C269.793 697.834 269.348 699.337 269.003 700.859C268.89 701.36 268.509 702.835 268.721 702.368C270.286 698.916 278.52 676.745 284.651 679.179C290.628 681.556 281.69 694.893 280.314 697.723C278.765 700.91 279.98 698.56 278.681 701.366C278.316 702.155 276.76 704.038 277.572 703.715C282.03 701.94 294.05 687.326 299.767 691.672C305.022 695.663 295.339 702.921 292.509 705.157C290.822 706.493 285.648 709.803 287.797 709.599C293.677 709.044 298.429 702.638 307.163 702.884C310.836 702.987 313.456 705.143 315.718 707.853C316.051 708.247 316.278 709.374 316.691 709.065C322.246 704.918 318.281 699.446 328.069 699.166C333.826 699.001 340.152 698.905 345.098 702.25C346.915 703.477 346.753 708.696 348.723 707.734C353.37 705.464 354.927 700.529 361.731 699.474C364.674 699.019 368.607 699.097 370.675 701.637C371.559 702.727 370.578 705.958 371.957 705.66C375.703 704.85 376.855 700.324 381.542 701.004C381.793 701.04 382.166 701.405 382.483 701.613C381.591 699.172 381.42 696.789 383.739 695.219C386.48 693.36 390.495 698.207 391.095 696.528C391.5 695.395 391.225 683.537 395.66 685.263C399.172 686.628 398.807 694.616 398.791 697.718C398.791 697.784 398.742 700.57 398.863 700.557C403.567 700.074 408.36 688.786 415.463 694.007C417.896 695.796 416.664 698.72 414.815 700.585C420.548 700.87 427.344 705.301 427.854 705.126C432.177 703.637 434.966 699.406 439.881 698.793C441.997 698.528 444.268 698.36 446.206 699.341C446.62 699.551 447.349 700.564 447.358 700.103C447.431 697.69 436.815 690.214 445.176 688.256C450.05 687.114 450.382 693.362 451.98 696.505C466.869 696.812 456.846 685.043 464.347 684.196C468.458 683.731 465.831 692.134 466.642 692.149C469.731 692.204 471.742 684.346 476.786 685.564C480.76 686.523 480.071 692.006 478.927 694.603C478.262 696.121 475.586 699.856 477.135 699.242C481.222 697.623 486.437 686.467 493.046 690.786C495.9 692.656 493.995 698.967 493.046 701.172C492.559 702.311 489.972 704.182 491.205 704.392C491.205 704.392 495.349 700.88 495.941 700.584C500.263 698.421 504.942 696.843 509.816 696.737C521.031 696.493 513.465 705.111 523.026 701.761Z" fill="#241A4A"/>
<path opacity="0.94" d="M233.704 709.313C236.648 708.448 257.277 709.794 255.132 713.769L247.003 716.149C241.021 716.419 233.647 715.648 230.479 715.661C213.716 715.734 197.246 718.623 180.56 718.926C175.846 719.012 172.551 717.08 168.931 715.935C168.824 715.977 168.737 716.079 168.623 716.099C166.313 716.484 164.113 715.997 161.918 715.415L161.791 715.44L161.791 715.44C161.055 715.587 160.329 715.733 159.507 716.033L159.752 714.898C157.75 714.359 155.721 713.862 153.64 714.066C142.826 715.13 131.398 719.139 120.612 718.565C112.044 718.108 104.073 712.832 95.7658 710.95C95.7256 710.941 95.6844 710.952 95.6443 710.943C89.5028 713.208 66.3916 713.238 61.5337 712.961C40.9204 711.787 19.1521 707.172 -1.55314 709.367C-6.31224 709.871 -82.4301 704.756 -82.8058 704.436C-85.5281 702.12 -31.1046 704.139 -33.2053 700.821C-38.8914 697.51 -43.6561 692.86 -41.3151 687.961C-39.8757 684.948 -33.5093 686.603 -31.8856 688.347C-30.5688 689.76 -30.5015 694.786 -29.1262 693.433C-28.5618 692.878 -28.8904 691.876 -28.8094 691.092C-28.6133 689.187 -27.3556 668.788 -21.318 667.69C-20.4549 667.534 -19.5077 667.779 -18.4382 668.52C-14.0785 671.538 -17.4573 686.741 -18.5839 690.889C-18.9935 692.396 -19.5153 693.874 -19.9376 695.377C-20.0758 695.871 -20.5322 697.324 -20.2968 696.869C-18.5566 693.502 -9.19554 671.783 -3.19784 674.528C2.64894 677.209 -6.96099 690.07 -8.48056 692.825C-10.1909 695.928 -8.85722 693.644 -10.2986 696.38C-10.7035 697.149 -12.3543 698.95 -11.5271 698.669C-6.98329 697.125 5.77049 683.147 11.2571 687.78C16.3002 692.036 6.2579 698.788 3.31674 700.875C1.56362 702.123 -3.77317 705.163 -1.61657 705.07C4.2835 704.817 9.35808 698.664 18.0678 699.357C21.7312 699.649 24.2364 701.936 26.3568 704.759C26.6687 705.169 26.8377 706.306 27.2665 706.019C33.0269 702.163 29.3474 696.495 39.1369 696.717C44.8954 696.848 51.2174 697.076 55.9859 700.67C57.737 701.989 57.3073 707.194 59.3246 706.334C64.0817 704.305 65.8899 699.456 72.7388 698.752C75.702 698.449 79.6258 698.728 81.5606 701.371C82.3875 702.505 81.2417 705.681 82.6337 705.455C86.4169 704.838 87.7992 700.377 92.4454 701.296C92.6946 701.346 93.0484 701.729 93.3536 701.953C92.588 699.47 92.5402 697.08 94.937 695.632C97.7697 693.916 101.53 698.963 102.215 697.317C102.678 696.206 103.012 684.35 107.353 686.3C110.79 687.844 110.015 695.802 109.84 698.9C109.837 698.966 109.645 701.746 109.767 701.739C114.489 701.498 119.855 690.471 126.681 696.05C129.019 697.961 127.638 700.818 125.696 702.586C131.407 703.164 137.966 707.938 138.485 707.79C142.878 706.524 145.882 702.442 150.821 702.082C152.948 701.926 155.224 701.875 157.11 702.954C157.512 703.185 158.189 704.234 158.221 703.774C158.417 701.368 148.2 693.357 156.65 691.83C161.576 690.941 161.587 697.197 163.021 700.418C177.875 701.489 168.469 689.221 176.004 688.76C180.133 688.507 177.078 696.764 177.887 696.82C180.97 697.034 183.382 689.289 188.357 690.764C192.276 691.926 191.306 697.367 190.031 699.901C189.289 701.383 186.425 704.976 188.003 704.442C192.168 703.035 197.948 692.162 204.327 696.814C207.082 698.828 204.854 705.033 203.794 707.186C203.249 708.298 200.57 710.034 201.79 710.307C201.79 710.307 206.109 707.012 206.715 706.748C211.143 704.809 215.897 703.473 220.769 703.617C231.982 703.95 223.984 712.168 233.704 709.313Z" fill="#241A4A"/>
<g filter="url(#filter2_f_648_4347)">
<path d="M-471.183 707.049C-471.183 707.049 -177.879 710.837 -153.223 710.865C-117.511 710.906 -19.8775 698.199 31.9886 704.841C83.8549 711.482 179.421 705.138 201.885 705.138C224.351 705.138 292.932 709.289 321.427 709.289C349.922 709.289 383.437 707.556 414.878 707.556C446.319 707.556 553.551 707.407 574.588 707.556C595.626 707.704 826.038 703.235 848.518 704.161C871.005 705.086 946.218 700.536 946.218 700.536L938.383 896.329L-621.163 889.987L-606.544 699.115L-471.183 707.049Z" fill="#241A4A"/>
</g>
<path d="M108.811 588.915C108.811 588.915 122.996 582.324 124.825 590.626C126.643 598.926 131.749 615.311 122.561 615.867C113.373 616.422 101.511 607.289 108.811 588.915Z" fill="#151226"/>
<path d="M116.556 574.095C116.556 574.095 120.75 566.981 132.054 570.693C132.054 570.693 134.294 571.671 138.717 571.594C138.717 571.594 136.273 576.256 135.053 580.478C133.833 584.699 130.533 588.674 127.712 588.128C127.712 588.128 114.256 576.94 116.567 574.097L116.556 574.095Z" fill="url(#paint2_linear_648_4347)"/>
<path d="M116.556 574.095C116.556 574.095 120.75 566.981 132.054 570.693C132.054 570.693 134.294 571.671 138.717 571.594C138.717 571.594 136.273 576.256 135.053 580.478C133.833 584.699 130.533 588.674 127.712 588.128C127.712 588.128 114.256 576.94 116.567 574.097L116.556 574.095Z" fill="url(#paint3_linear_648_4347)" fill-opacity="0.2"/>
<path d="M113.005 575.487C113.005 575.487 117.788 571.577 115.049 563.11C115.049 563.11 112.424 558.021 116.731 560.489C116.731 560.489 118.214 561.721 118.625 564.702C118.625 564.702 124.494 559.091 118.536 546.154C118.536 546.154 113.41 537.835 119.785 541.838C119.785 541.838 121.834 543.013 123.529 547.632C123.529 547.632 124.562 543.93 126.655 546.625C128.747 549.32 125.539 548.366 124.997 553.686C124.444 559.003 122.522 570.915 117.192 577.009C111.863 583.103 110.938 577.399 113.007 575.476L113.005 575.487Z" fill="url(#paint4_linear_648_4347)"/>
<path d="M113.005 575.487C113.005 575.487 117.788 571.577 115.049 563.11C115.049 563.11 112.424 558.021 116.731 560.489C116.731 560.489 118.214 561.721 118.625 564.702C118.625 564.702 124.494 559.091 118.536 546.154C118.536 546.154 113.41 537.835 119.785 541.838C119.785 541.838 121.834 543.013 123.529 547.632C123.529 547.632 124.562 543.93 126.655 546.625C128.747 549.32 125.539 548.366 124.997 553.686C124.444 559.003 122.522 570.915 117.192 577.009C111.863 583.103 110.938 577.399 113.007 575.476L113.005 575.487Z" fill="url(#paint5_linear_648_4347)" fill-opacity="0.2"/>
<path d="M79.0147 634.594C79.0147 634.594 86.1857 644.575 95.2568 638.083C95.2568 638.083 95.7425 628.906 99.2215 625.8C100.514 624.649 120.478 635.218 129.308 632.748C129.308 632.748 136.445 634.13 137.431 629.218C138.418 624.295 126.129 618.237 128.756 597.457C131.393 576.68 104.941 563.643 88.39 574.89C71.8373 586.148 78.9101 600.801 80.8296 609.444C82.7597 618.088 79.0127 634.604 79.0127 634.604L79.0147 634.594Z" fill="url(#paint6_linear_648_4347)"/>
<path d="M79.0147 634.594C79.0147 634.594 86.1857 644.575 95.2568 638.083C95.2568 638.083 95.7425 628.906 99.2215 625.8C100.514 624.649 120.478 635.218 129.308 632.748C129.308 632.748 136.445 634.13 137.431 629.218C138.418 624.295 126.129 618.237 128.756 597.457C131.393 576.68 104.941 563.643 88.39 574.89C71.8373 586.148 78.9101 600.801 80.8296 609.444C82.7597 618.088 79.0127 634.604 79.0127 634.604L79.0147 634.594Z" fill="url(#paint7_linear_648_4347)" fill-opacity="0.2"/>
<path d="M89.2649 580.583C89.2649 580.583 84.9235 562.501 60.3122 559.748C60.3122 559.748 61.7591 568.488 62.2036 574.799C62.3081 576.353 62.3924 578.248 62.6259 579.238C64.0181 585.4 76.0793 591.081 82.1772 592.162L89.2649 580.583Z" fill="url(#paint8_linear_648_4347)"/>
<path d="M89.2649 580.583C89.2649 580.583 84.9235 562.501 60.3122 559.748C60.3122 559.748 61.7591 568.488 62.2036 574.799C62.3081 576.353 62.3924 578.248 62.6259 579.238C64.0181 585.4 76.0793 591.081 82.1772 592.162L89.2649 580.583Z" fill="url(#paint9_linear_648_4347)" fill-opacity="0.2"/>
<path opacity="0.74" d="M118.075 598.489C116.885 588.977 108.252 582.214 98.7927 583.384C89.3334 584.554 82.6208 593.214 83.8106 602.727C85.0004 612.24 93.6335 619.003 103.103 617.835C112.563 616.665 119.275 608.004 118.086 598.491L118.075 598.489Z" fill="url(#paint10_linear_648_4347)" fill-opacity="0.28"/>
<path d="M84.7498 580.668C84.7498 580.668 77.962 566.381 62.8946 563.942C62.8946 563.942 62.1782 574.864 63.8467 578.689C65.5151 582.513 75.8211 585.998 79.1743 586.014C82.5382 586.032 86.3008 583.592 84.7498 580.668Z" fill="url(#paint11_linear_648_4347)"/>
<path d="M84.7498 580.668C84.7498 580.668 77.962 566.381 62.8946 563.942C62.8946 563.942 62.1782 574.864 63.8467 578.689C65.5151 582.513 75.8211 585.998 79.1743 586.014C82.5382 586.032 86.3008 583.592 84.7498 580.668Z" fill="url(#paint12_linear_648_4347)" fill-opacity="0.2"/>
<path fill-rule="evenodd" clip-rule="evenodd" d="M80.4071 589.298C81.5709 589.317 82.5949 588.689 83.1357 587.746C83.035 587.768 82.9366 587.789 82.8404 587.81C83.7217 584.99 81.7444 583.531 80.5101 583.131C78.8072 583.102 77.4037 584.46 77.3752 586.163C77.3629 586.904 77.613 587.588 78.0399 588.127C78.5938 588.827 79.4454 589.282 80.4071 589.298Z" fill="#D9D9D9"/>
<path d="M83.1357 587.746C83.3862 587.309 83.533 586.805 83.542 586.266C83.5705 584.563 82.213 583.159 80.5101 583.131C81.7444 583.531 83.7217 584.99 82.8404 587.81C82.9366 587.789 83.035 587.768 83.1357 587.746Z" fill="#BDB9B9"/>
<path fill-rule="evenodd" clip-rule="evenodd" d="M80.4071 589.298C81.5709 589.317 82.5949 588.689 83.1357 587.746C82.947 588.08 82.8305 588.236 82.7216 588.382C82.6237 588.513 82.5318 588.636 82.3992 588.873C81.8067 589.847 82.3389 591.646 82.8395 593.339C83.0628 594.094 83.2799 594.828 83.388 595.457L83.3817 595.465C82.5318 596.095 81.9504 596.205 81.7659 596.181C81.3364 595.791 81.0578 594.609 80.7899 593.473C80.6841 593.025 80.58 592.584 80.469 592.201C79.868 589.902 79.3305 589.419 78.7692 588.915C78.5325 588.702 78.2916 588.486 78.0399 588.127C78.5938 588.827 79.4454 589.282 80.4071 589.298Z" fill="#D9D9D9"/>
<path d="M81.7659 596.181C82.3617 596.722 82.9921 595.945 83.3817 595.465C82.5318 596.095 81.9504 596.205 81.7659 596.181Z" fill="#C8C6C6"/>
<path opacity="0.48" d="M121.199 596.204C120.634 594.215 119.73 592.729 119.19 592.891C118.652 593.042 118.677 594.782 119.242 596.77C119.807 598.758 120.711 600.244 121.251 600.082C121.789 599.931 121.764 598.192 121.199 596.204Z" fill="#FFFDF7"/>
<path opacity="0.38" d="M106.634 615.097C104.614 614.706 102.886 614.827 102.782 615.374C102.678 615.921 104.226 616.698 106.243 617.1C108.263 617.491 109.991 617.37 110.095 616.823C110.199 616.276 108.651 615.499 106.634 615.097Z" fill="#FFFDF7"/>
<path opacity="0.38" d="M98.3087 613.496C97.0798 613.258 96.0027 613.505 95.8971 614.063C95.7915 614.621 96.7001 615.263 97.929 615.501C99.1579 615.739 100.235 615.492 100.341 614.934C100.446 614.377 99.5376 613.734 98.3087 613.496Z" fill="#FFFDF7"/>
<path opacity="0.38" d="M102.579 617.556C101.115 617.272 99.865 617.441 99.7609 617.933C99.6676 618.426 100.766 619.061 102.228 619.355C103.691 619.638 104.942 619.469 105.046 618.978C105.139 618.485 104.041 617.85 102.579 617.556Z" fill="#FFFDF7"/>
<path opacity="0.48" d="M128.14 596.403C128.231 594.698 127.976 593.292 127.571 593.269C127.165 593.246 126.762 594.614 126.672 596.319C126.582 598.025 126.836 599.43 127.242 599.453C127.647 599.476 128.05 598.109 128.151 596.405L128.14 596.403Z" fill="#FFFDF7"/>
<path opacity="0.61" d="M137.498 628.83C137.205 626.461 136.296 625.118 134.631 622.794C132.238 619.463 130.807 617.018 125.76 617.642C119.362 618.437 114.576 623.591 113.978 629.79C113.957 629.963 118.243 632.361 122.786 633.174C125.079 633.584 127.546 633.073 129.332 632.707C129.815 632.611 132.45 633.322 134.405 632.589C136.337 631.862 137.611 629.697 137.5 628.819L137.498 628.83Z" fill="url(#paint13_linear_648_4347)"/>
<path d="M129.128 632.613C129.128 632.613 135.869 634.919 137.356 629.349C138.842 623.778 133.342 624.747 130.893 625.807C128.454 626.869 126.083 628.278 129.128 632.613Z" fill="#3A2413"/>
<path d="M111.451 609.604C111.451 609.604 116.23 596.822 104.152 589.592C97.7956 585.783 87.1748 591.274 87.3198 592.381C88.0105 597.45 91.678 611.545 111.449 609.614L111.451 609.604Z" fill="#391F11"/>
<path d="M111.44 609.702C111.44 609.702 115.884 597.811 104.643 591.077C98.7346 587.532 88.8503 592.644 88.9902 593.66C89.6262 598.374 93.0455 611.498 111.442 609.691L111.44 609.702Z" fill="url(#paint14_linear_648_4347)"/>
<path d="M111.523 602.729C112.359 598.316 109.474 594.052 105.086 593.203C100.698 592.353 96.4603 595.238 95.6248 599.651C94.7893 604.065 97.674 608.329 102.062 609.178C106.449 610.028 110.687 607.143 111.523 602.729Z" fill="url(#paint15_linear_648_4347)"/>
<path d="M91.8308 578.315C91.8308 578.315 85.8195 574.261 88.0451 563.908C88.0451 563.908 90.5183 557.573 85.7925 561.004C85.7925 561.004 84.2085 562.643 84.0743 566.219C84.0743 566.219 76.6051 560.271 82.0612 544.263C82.0612 544.263 87.0758 533.806 80.1175 539.318C80.1175 539.318 77.8681 540.961 76.4187 546.628C76.4187 546.628 74.7994 542.368 72.6632 545.812C70.529 549.245 74.1598 547.736 75.4056 553.969C76.6513 560.202 80.2526 574.061 87.1477 580.643C94.0429 587.225 94.4803 580.351 91.8394 578.328L91.8308 578.315Z" fill="url(#paint16_linear_648_4347)"/>
<path d="M91.8308 578.315C91.8308 578.315 85.8195 574.261 88.0451 563.908C88.0451 563.908 90.5183 557.573 85.7925 561.004C85.7925 561.004 84.2085 562.643 84.0743 566.219C84.0743 566.219 76.6051 560.271 82.0612 544.263C82.0612 544.263 87.0758 533.806 80.1175 539.318C80.1175 539.318 77.8681 540.961 76.4187 546.628C76.4187 546.628 74.7994 542.368 72.6632 545.812C70.529 549.245 74.1598 547.736 75.4056 553.969C76.6513 560.202 80.2526 574.061 87.1477 580.643C94.0429 587.225 94.4803 580.351 91.8394 578.328L91.8308 578.315Z" fill="url(#paint17_linear_648_4347)" fill-opacity="0.2"/>
<path d="M138.285 606.061C138.554 599.61 136.077 594.262 132.759 594.12C129.43 593.975 126.525 599.082 126.258 605.523C125.989 611.974 128.466 617.322 131.784 617.465C135.113 617.609 138.018 612.502 138.285 606.061Z" fill="url(#paint18_linear_648_4347)" stroke="#391F11" stroke-width="0.863671" stroke-linecap="round" stroke-linejoin="round"/>
<path d="M126.09 604.243C126.09 604.243 124.407 600.671 119.568 604.525" stroke="#391F11" stroke-width="0.863671" stroke-linecap="round" stroke-linejoin="round"/>
<path d="M119.118 608.322C120.488 601.084 116.28 594.177 109.708 592.905C103.137 591.633 96.7057 596.468 95.3334 603.717C93.961 610.966 98.1716 617.862 104.743 619.134C111.314 620.407 117.745 615.571 119.118 608.322Z" fill="url(#paint19_linear_648_4347)" stroke="#391F11" stroke-width="0.863671" stroke-linecap="round" stroke-linejoin="round"/>
<path d="M177.818 726.992C178.763 724.844 174.032 717.548 169.299 714.013C166.211 711.706 158.717 711.331 158.717 711.331C158.717 711.331 154.966 710.98 150.519 713.694C145.841 716.55 145.719 708.272 144.313 724.861C146.852 726.247 148.008 726.277 151.127 726.824C156.353 727.741 157.48 728.014 158.433 728.379C159.386 728.745 161.091 730.258 162.367 730.442C163.642 730.626 164.434 729.813 164.622 728.668C164.809 727.522 163.98 726.406 162.907 725.538C162.086 724.873 161.26 723.198 159.299 722.244L161.918 721.758C163.092 722.208 162.94 722.165 163.734 722.85C164.891 723.848 165.332 723.862 166.401 725.325C168.053 727.587 167.729 727.606 169.05 728.943C169.778 729.678 172.479 729.592 173.127 728.694C174.206 729.543 175.29 729.272 176.011 727.973C176.188 728.244 177.189 728.425 177.818 726.992Z" fill="url(#paint20_linear_648_4347)"/>
<path d="M148.067 728.02C153.321 732.687 156.626 714.059 157.327 711.54C158.027 709.02 146.16 709.649 142.627 709.287C138.953 707.428 128.863 705.113 122.944 703.471C123.028 694.859 117.753 694.577 114.352 682.924C110.951 671.271 108.401 666.902 108.401 666.902C94.5347 654.801 91.2207 654.039 81.7719 663.979L81.5112 683.51L89.32 703.147L104.295 717.997L118.049 727.621C123.523 728.67 137.191 730.219 148.067 728.02Z" fill="url(#paint21_linear_648_4347)"/>
<path d="M72.4672 660.04C72.4672 660.04 74.5698 682.19 75.908 685.713C77.2463 689.236 78.7854 695.907 80.5284 700.248C82.2714 704.59 82.9495 704.513 83.7984 700.106C84.6471 695.711 93.2428 686.5 106.825 687.481C117.871 688.28 119.631 686.879 117.543 681.119C115.456 675.359 99.7507 632.172 78.748 645.474C74.6745 648.579 72.1487 654.102 72.4672 660.04Z" fill="url(#paint22_linear_648_4347)"/>
<path d="M72.4672 660.04C72.4672 660.04 74.5698 682.19 75.908 685.713C77.2463 689.236 78.7854 695.907 80.5284 700.248C82.2714 704.59 82.9495 704.513 83.7984 700.106C84.6471 695.711 93.2428 686.5 106.825 687.481C117.871 688.28 119.631 686.879 117.543 681.119C115.456 675.359 99.7507 632.172 78.748 645.474C74.6745 648.579 72.1487 654.102 72.4672 660.04Z" fill="url(#paint23_linear_648_4347)" fill-opacity="0.56"/>
<path d="M95.9149 632.316C95.9149 632.316 93.7944 636.973 93.3194 638.351C93.3194 638.351 82.0016 638.413 78.7817 630.212C78.7817 630.212 80.2786 627.336 80.9532 625.47C81.6278 623.604 77.322 624.632 76.5529 625.789C75.7837 626.945 75.2334 629.377 73.8514 630.249C72.4794 631.125 68.2357 632.437 66.7614 633.641C65.2917 634.835 48.7769 659.36 48.7769 659.36L91.6428 677.036C91.6428 677.036 107.995 655.491 96.677 644.654C96.677 644.654 95.6015 644.7 98.9306 638.11C98.9306 638.11 101.371 634.848 95.8905 632.317L95.9149 632.316Z" fill="url(#paint24_linear_648_4347)"/>
<path d="M105.127 658.997C105.127 658.997 118.92 740.791 111.69 752.79C111.69 752.79 114.782 771.66 111.407 774.752C107.905 777.96 91.7458 773.28 80.2143 771.663C57.5533 768.481 29.9676 792.092 29.9676 765.043C31.585 759.062 21.4595 642.602 59.4675 650.429C59.4675 650.429 80.2139 667.572 91.756 662.966C92.9845 663.263 105.127 658.997 105.127 658.997Z" fill="url(#paint25_linear_648_4347)"/>
<path d="M105.128 658.995C105.128 658.995 118.921 740.789 111.691 752.788C111.691 752.788 114.783 771.659 111.408 774.751C107.905 777.959 91.7466 773.278 80.2151 771.661C57.5541 768.48 30.9447 777.632 32.5596 771.662C34.177 765.681 21.4603 642.6 59.4683 650.428C59.4683 650.428 80.2147 667.571 91.7568 662.964C92.9853 663.262 105.128 658.995 105.128 658.995Z" fill="url(#paint26_linear_648_4347)" fill-opacity="0.56"/>
<path d="M129.017 797.841C89.6488 820.011 33.467 802.697 28.3178 799.186C26.0399 784.286 28.8995 778.252 45.6289 774.007C99.6326 746.902 47.1038 764.168 108.046 753.491C168.988 742.814 183.817 765.626 174.162 785.504C164.508 805.381 152.284 804.633 130.263 804.214C124.505 803.289 123.105 801.973 129.017 797.841Z" fill="url(#paint27_linear_648_4347)"/>
<path d="M79.3548 630.204C78.3144 632.214 72.3159 630.46 71.1463 631.688C69.9766 632.917 71.1511 635.452 67.6607 638.086C63.214 641.45 56.5008 641.711 83.8305 662.869C83.8305 662.869 102.047 657.201 98.8296 651.542C95.5773 645.84 95.6727 645.098 95.6727 645.098C95.6727 645.098 96.2048 642.684 96.6205 641.259C97.5357 638.103 100.456 635.378 95.1312 634.598C95.1312 634.598 96.8141 630.091 97.4839 629.484C98.1537 628.878 106.835 635.889 109.462 644.897C109.462 644.897 110.661 647.255 108.793 652.214C106.925 657.173 111.165 661.16 91.7388 664.512L82.8854 666.199C82.8854 666.199 54.5939 664.286 43.5498 654.178C41.8112 652.582 40.4595 643.488 43.0308 638.823C43.7722 637.488 44.9498 635.683 46.7417 633.27C54.8083 622.468 56.0354 619.317 81.6609 624.403C81.6609 624.403 80.3953 628.195 79.3548 630.204Z" fill="url(#paint28_linear_648_4347)"/>
<path d="M79.3548 630.204C78.3144 632.214 72.3159 630.46 71.1463 631.688C69.9766 632.917 71.1511 635.452 67.6607 638.086C63.214 641.45 56.5008 641.711 83.8305 662.869C83.8305 662.869 102.047 657.201 98.8296 651.542C95.5773 645.84 95.6727 645.098 95.6727 645.098C95.6727 645.098 96.2048 642.684 96.6205 641.259C97.5357 638.103 100.456 635.378 95.1312 634.598C95.1312 634.598 96.8141 630.091 97.4839 629.484C98.1537 628.878 106.835 635.889 109.462 644.897C109.462 644.897 110.661 647.255 108.793 652.214C106.925 657.173 111.165 661.16 91.7388 664.512L82.8854 666.199C82.8854 666.199 54.5939 664.286 43.5498 654.178C41.8112 652.582 40.4595 643.488 43.0308 638.823C43.7722 637.488 44.9498 635.683 46.7417 633.27C54.8083 622.468 56.0354 619.317 81.6609 624.403C81.6609 624.403 80.3953 628.195 79.3548 630.204Z" fill="url(#paint29_linear_648_4347)" fill-opacity="0.56"/>
<path d="M200.553 753.221C203.464 750.402 262.554 666.737 261.119 661.288C258.104 660.146 256.35 659.898 253.138 659.862L194.186 743.923L103.95 727.809L89.5419 743.041L88.7716 747.355L182.555 764.103L187.611 765.005C190.955 762.017 198.223 755.476 200.553 753.221Z" fill="url(#paint30_linear_648_4347)"/>
<g filter="url(#filter3_f_648_4347)">
<path d="M253.515 663.04L251.309 662.635L196.319 740.981L198.226 742.252L253.515 663.04Z" fill="url(#paint31_linear_648_4347)" fill-opacity="0.7"/>
</g>
<g style="mix-blend-mode:screen">
<path d="M253.552 662.841L251.346 662.436L196.356 740.783L198.263 742.053L253.552 662.841Z" fill="url(#paint32_linear_648_4347)" fill-opacity="0.09"/>
</g>
<path d="M169.525 752.669L182.342 741.833L130.882 732.644L116.636 743.224L169.525 752.669Z" fill="url(#paint33_linear_648_4347)" fill-opacity="0.53"/>
<path d="M119.6 736.602L127.205 731.987L110.495 729.003L102.397 733.53L119.6 736.602Z" fill="url(#paint34_linear_648_4347)" fill-opacity="0.61"/>
<g filter="url(#filter4_f_648_4347)">
<path d="M132.66 564.027C132.66 564.027 225.033 656.722 241.738 681.442L201.711 734.54L38.3744 678.765L132.66 564.027Z" fill="url(#paint35_linear_648_4347)" fill-opacity="0.11"/>
</g>
<path d="M80.4932 589.676C82.2319 595.252 85.6874 608.39 85.5992 616.331C85.489 626.258 84.6077 638.898 85.9426 647.641M85.9426 647.641C87.2776 656.384 81.4881 670.759 89.1977 689.506M85.9426 647.641C92.9655 641.666 92.1897 634.515 102.477 626.516" stroke="#D9D9D9" stroke-width="0.325989"/>
<path d="M161.972 747.633C162.986 745.378 157.214 737.364 151.583 733.372C147.908 730.767 139.193 730.03 139.193 730.03C139.193 730.03 134.824 729.487 129.766 732.19C124.444 735.035 123.984 726.177 122.989 743.854C125.991 745.45 127.334 745.534 130.977 746.259C133.217 746.456 138.832 746.05 141.359 745.823C142.602 746.15 145.329 746.924 146.287 747.406C147.484 748.007 148.077 749.777 149.033 749.861C149.989 749.945 150.295 748.902 150.193 748.43C150.112 748.052 149.469 746.705 148.652 745.339C150.657 747.832 150.387 747 151.994 748.386C153.6 749.772 154.584 749.365 155.301 748.434C156.587 749.39 158.008 749.095 158.796 747.738C160.203 748.498 161.296 749.137 161.972 747.633Z" fill="url(#paint36_linear_648_4347)"/>
<path d="M52.0271 692.575C52.0271 692.575 45.7897 656.586 77.0425 668.469C77.0425 668.469 78.2281 671.222 84.9644 676.472C91.7007 681.722 87.5368 681.226 88.8865 682.794C90.2472 684.36 92.8073 687.461 93.654 690.323C94.5006 693.185 94.1851 696.123 98.9858 700.105C103.8 704.096 115.079 712.106 119.917 717.843C124.747 723.593 127.093 725.651 130.386 726.865C133.675 728.069 135.922 727.043 135.237 734.635C134.552 742.228 137.389 744.926 134.366 748.373C131.352 751.806 128.606 752.445 123.16 748.385C117.725 744.323 112.154 750.563 102.854 742.857C93.556 735.161 87.7486 734.611 84.3542 730.301C80.9708 725.988 67.9608 722.854 63.6803 711.987C59.3997 701.12 50.9524 698.942 52.016 692.578L52.0271 692.575Z" fill="url(#paint37_linear_648_4347)"/>
<path d="M40.211 671.523C40.211 671.523 48.6066 692.133 50.903 695.122C53.1995 698.11 56.5955 704.057 59.5155 707.714C62.4355 711.37 63.0628 711.102 62.606 706.637C62.1523 702.183 65.6878 688.652 78.9771 685.685C92.2663 682.718 93.1083 683.661 89.4495 678.745C85.7906 673.83 58.3082 636.985 42.0288 655.767C39.0227 659.912 38.1953 665.929 40.211 671.523Z" fill="url(#paint38_linear_648_4347)" fill-opacity="0.56"/>
<path d="M40.211 671.523C40.211 671.523 48.6066 692.133 50.903 695.122C53.1995 698.11 56.5955 704.057 59.5155 707.714C62.4355 711.37 63.0628 711.102 62.606 706.637C62.1523 702.183 65.6878 688.652 78.9771 685.685C92.2663 682.718 93.1083 683.661 89.4495 678.745C85.7906 673.83 58.3082 636.985 42.0288 655.767C39.0227 659.912 38.1953 665.929 40.211 671.523Z" fill="url(#paint39_linear_648_4347)"/>
<path d="M108.514 777.298L111.989 808.779C111.989 808.779 119.357 813.554 131.694 810.289L133.473 777.093C133.473 777.093 121.471 781.492 108.514 777.298Z" fill="url(#paint40_linear_648_4347)"/>
<path d="M107.746 774.115C107.746 773.005 113.659 772.106 120.951 772.106C128.243 772.106 134.155 773.005 134.155 774.115C134.155 775.225 128.243 776.125 120.951 776.125C113.659 776.125 107.746 775.225 107.746 774.115Z" fill="url(#paint41_linear_648_4347)"/>
<path opacity="0.414121" d="M122.022 777.492C122.022 777.492 100.07 770.648 112.508 757.78C124.947 744.912 137.062 740.392 121.111 733.169C105.159 725.947 118.345 721.863 118.345 721.863C118.345 721.863 108.565 727.182 122.269 728.881C135.98 730.581 166.85 740.856 140.949 754.801C129.251 761.098 122.611 766.647 128.928 775.148C130.435 777.174 120.509 775.672 122.212 776.938C124.409 778.568 122.022 777.492 122.022 777.492Z" fill="url(#paint42_linear_648_4347)"/>
<path d="M107.937 773.882C107.937 773.882 119.97 778.42 134.168 773.447C134.168 773.447 135.922 776.007 133.637 778.037C133.637 778.037 118.603 781.832 108.513 778.061C108.513 778.061 105.253 776.123 107.937 773.882Z" fill="url(#paint43_linear_648_4347)"/>
<path d="M-323.822 789.658C-330.446 778.211 -353.474 788.363 -353.474 788.363L-335.468 923.279L532.829 803.687L513.702 673.171C511.81 669.148 505.385 674.497 505.385 674.497C503.753 671.578 501.213 671.507 499.836 671.727C499.538 671.824 499.216 671.905 498.868 671.969C498.868 671.969 499.245 671.821 499.836 671.727C505.528 669.877 502.416 662.417 502.416 662.417C497.419 660.361 492.06 668.384 492.06 668.384C495.641 659.406 488.016 653.086 488.016 653.086C481.72 655.344 484.432 667.978 484.432 667.978C481.811 663.622 478.42 668.666 478.42 668.666C473.156 661.454 467.4 667.519 467.4 667.519C467.408 659.76 458.41 659.969 458.41 659.969C454.97 664.59 459.387 670.697 459.387 670.697C448.83 671.433 453.88 679.929 454.966 681.58C462.955 683.657 455.154 681.857 455.154 681.857C455.154 681.857 455.083 681.758 454.966 681.58C454.768 681.528 454.561 681.475 454.345 681.419C448.95 680.022 445.858 682.624 444.246 684.932C444.001 685.895 443.527 686.884 442.753 687.883C442.753 687.883 443.169 686.473 444.246 684.932C445.74 679.042 438.634 674.127 438.634 674.127C432.166 674.994 431.967 687.126 431.967 687.126C432.191 674.266 415.037 672.426 415.037 672.426C410.34 677.701 413.208 685.432 415.782 690.186C416.926 691.27 417.854 692.659 418.459 694.428C418.459 694.428 417.163 692.735 415.782 690.186C409.193 683.939 395.463 687.843 395.463 687.843C396.44 694.618 400.801 697.906 404.343 699.477C405.752 699.592 407.35 700.017 409.158 700.866C409.158 700.866 406.977 700.646 404.343 699.477C396.783 698.861 394.656 707.194 394.656 707.194C376.546 700.165 383.201 718.885 376.344 714.992C369.487 711.099 364.645 720.957 364.645 720.957C364.645 720.957 370.172 724.835 363.751 721.664C357.329 718.493 350.221 727.421 350.221 727.421C345.355 721.797 339.578 726.543 339.578 726.543C337.862 730.266 342.719 739.042 342.719 739.042C331.676 739.832 335.585 753.462 335.585 753.462C322.907 748.632 322.069 764.01 322.069 764.01C310.768 754.166 304.305 764.61 304.305 764.61C304.305 764.61 299.805 757.946 293.978 761.007C288.153 764.067 291.286 771.597 291.286 771.597C285.167 768.159 281.205 777.68 281.205 777.68C271.819 774.72 270.738 784.407 270.738 784.407C262.262 782.771 261.954 789.127 261.954 789.127C261.492 779.495 250.769 780.07 250.769 780.07C248.685 786.958 252.223 791.662 252.223 791.662C245.848 787.206 244.908 793.863 244.908 793.863C238.312 792.646 239.278 799.054 239.568 800.471C239.595 800.576 239.616 800.667 239.63 800.744C239.63 800.744 239.604 800.646 239.568 800.471C238.791 797.461 232.615 783.587 227.807 786.206C223.058 788.793 226.491 802.87 226.814 804.148C226.822 804.179 226.83 804.21 226.838 804.241C226.838 804.241 226.829 804.209 226.814 804.148C224.838 796.558 216.446 798.103 216.446 798.103C214.954 805.387 219.532 806.619 219.532 806.619C219.532 806.619 212.334 812.744 198.028 810.854C183.721 808.961 186.374 819.731 186.374 819.731C179.044 818.992 177.408 828.366 177.408 828.366C167.61 822.968 166.332 834.205 166.332 834.205C157.874 829.687 156.916 837.1 156.916 837.1C152.45 836.725 148.705 839.633 148.705 839.633C142.444 836.657 133.349 840.446 133.349 840.446C128.857 834.89 120.302 838.659 120.302 838.659C111.52 837.65 115.606 846.885 108.654 846.058C101.703 845.231 93.0262 851.805 85.0241 850.1C77.0219 848.395 66.9349 857.538 62.4868 855.528C58.0387 853.517 51.8724 856.661 51.8724 856.661C52.7646 850.893 48.5863 848.344 48.5863 848.344C40.8611 848.261 42.2832 857.898 42.2832 857.898L40.0647 855.853C35.9716 850.556 28.6012 852.835 28.6012 852.835C26.9759 858.771 33.0951 858.81 33.0951 858.81C33.0951 858.81 29.1244 859.781 25.2659 860.566C21.4074 861.351 15.4754 861.142 13.8329 861.039C12.1895 860.932 2.88675 861.875 -0.107923 861.272C-3.10306 860.666 -10.6387 867.67 -15.932 864.201C-21.2261 860.727 -31.1572 864.78 -37.8615 863.682C-44.565 862.588 -46.0349 866.266 -57.5956 870.162C-69.1561 874.062 -76.4358 864.957 -91.4301 873.382C-105.441 881.251 -92.3176 871.11 -114.862 874.143C-123.085 875.25 -124.343 877.653 -124.343 877.653C-130.269 870.263 -139.74 875.623 -139.74 875.623C-143.829 870.99 -148.012 871.908 -150.461 873.139C-151.012 873.698 -151.722 874.188 -152.624 874.58C-152.624 874.58 -151.803 873.813 -150.461 873.139C-146.385 868.997 -151.064 861.078 -151.064 861.078C-159.443 858.144 -165.549 869.404 -165.549 869.404L-172.964 871.183C-182.369 866.153 -182.592 873.675 -182.592 873.675C-190.584 867.748 -196.897 873.191 -196.897 873.191C-205.559 863.11 -213.689 870.824 -213.689 870.824C-212.408 866.045 -213.212 864.835 -213.212 864.835C-216.448 850.306 -227.917 859.341 -227.917 859.341C-228.221 853.91 -233.353 854.878 -233.353 854.878C-226.587 844.387 -237.287 833.63 -237.287 833.63C-245.387 833.889 -243.901 846.771 -243.798 847.596C-244.736 840.384 -249.278 841.577 -249.278 841.577C-239.574 834.476 -245.612 821.366 -245.612 821.366C-255.537 817.643 -261.709 832.335 -261.709 832.335C-255.477 816.098 -269.575 809.1 -269.575 809.1C-278.719 811.174 -277.075 823.248 -276.723 825.317C-276.705 825.416 -276.686 825.517 -276.668 825.618C-276.668 825.618 -276.69 825.512 -276.723 825.317C-279.418 811.01 -291.31 815.091 -291.31 815.091C-285.446 803.681 -297.141 793.992 -297.141 793.992C-301.432 792.191 -306.175 799.751 -306.175 799.751C-312.742 785.588 -323.822 789.658 -323.822 789.658Z" fill="url(#paint44_linear_648_4347)"/>
<path d="M-25.9561 683.058C-31.0607 670.088 -56.6553 677.049 -56.6553 677.049L-59.0894 820.482L864.603 832.282L865.177 693.258C863.837 688.768 856.301 693.334 856.301 693.334C855.059 690.035 852.423 689.562 850.953 689.575C850.627 689.629 850.279 689.663 849.906 689.675C849.906 689.675 850.322 689.58 850.953 689.575C857.176 688.541 855.105 680.278 855.105 680.278C850.221 677.349 843.374 684.869 843.374 684.869C848.517 676.075 841.564 668.291 841.564 668.291C834.648 669.655 835.489 683.247 835.489 683.247C833.442 678.296 829.116 683.02 829.116 683.02C824.763 674.676 817.811 680.093 817.811 680.093C819.039 672.008 809.628 670.812 809.628 670.812C805.317 675.088 808.961 682.146 808.961 682.146C797.844 681.254 801.771 690.901 802.643 692.793C810.643 696.213 802.796 693.111 802.796 693.111C802.796 693.111 802.738 692.997 802.643 692.793C802.446 692.708 802.239 692.62 802.021 692.527C796.619 690.224 792.987 692.45 790.945 694.602C790.539 695.567 789.889 696.523 788.926 697.442C788.926 697.442 789.581 696.038 790.945 694.602C793.428 688.699 786.794 682.459 786.794 682.459C779.918 682.347 777.804 694.959 777.804 694.959C780.058 681.592 762.47 676.979 762.47 676.979C756.746 681.738 758.52 690.246 760.456 695.605C761.477 696.914 762.227 698.508 762.579 700.446C762.579 700.446 761.494 698.478 760.456 695.605C754.57 688.059 739.649 689.97 739.649 689.97C739.602 697.185 743.63 701.296 747.074 703.49C748.525 703.831 750.123 704.526 751.874 705.694C751.874 705.694 749.636 705.122 747.074 703.49C739.292 701.661 735.767 710.01 735.767 710.01C717.997 699.839 721.991 720.394 715.457 715.259C708.923 710.125 702.328 719.638 702.328 719.638C702.328 719.638 707.479 724.548 701.285 720.234C695.091 715.921 686.28 724.108 686.28 724.108C682.093 717.483 675.327 721.52 675.327 721.52C672.953 725.131 676.636 735.04 676.636 735.04C665.003 734.128 666.935 748.947 666.935 748.947C654.482 741.921 651.192 757.816 651.192 757.816C640.961 745.781 632.585 755.65 632.585 755.65C632.585 755.65 628.943 747.998 622.388 750.272C615.838 752.547 617.919 760.886 617.919 760.886C612.082 756.342 606.458 765.641 606.458 765.641C597.141 761.082 594.493 771.008 594.493 771.008C585.916 767.97 584.597 774.546 584.597 774.546C585.628 764.436 574.363 763.35 574.363 763.35C571.109 770.201 574.057 775.658 574.057 775.658C568.114 770.013 566.088 776.803 566.088 776.803C559.405 774.499 559.405 781.329 559.485 782.851C559.497 782.964 559.504 783.063 559.506 783.145C559.506 783.145 559.495 783.038 559.485 782.851C559.147 779.591 554.891 764.162 549.468 766.137C544.114 768.087 545.479 783.296 545.615 784.679C545.618 784.712 545.622 784.746 545.625 784.78C545.625 784.78 545.621 784.745 545.615 784.679C544.748 776.458 535.759 776.75 535.759 776.75C533.06 784.106 537.637 786.109 537.637 786.109C537.637 786.109 529.174 791.362 514.562 787.145C499.949 782.924 501.021 794.564 501.021 794.564C493.498 792.643 490.321 802.155 490.321 802.155C480.958 794.99 477.86 806.5 477.86 806.5C469.756 800.462 467.593 808.037 467.593 808.037C462.997 806.944 458.638 809.386 458.638 809.386C452.58 805.301 442.507 807.821 442.507 807.821C438.698 801.325 429.191 803.908 429.191 803.908C420.196 801.477 423.003 811.744 415.889 809.79C408.775 807.836 398.699 813.323 390.628 810.289C382.556 807.255 370.607 815.198 366.287 812.404C361.968 809.61 355.048 811.917 355.048 811.917C356.884 806.046 352.93 802.734 352.93 802.734C344.892 801.433 344.86 811.7 344.86 811.7L342.869 809.22C339.436 803.057 331.397 804.273 331.397 804.273C328.77 810.205 335.141 811.206 335.141 811.206C335.141 811.206 330.85 811.595 326.706 811.806C322.561 812.018 316.412 810.869 314.716 810.503C313.021 810.133 303.178 809.654 300.151 808.555C297.125 807.453 288.171 813.569 283.2 809.121C278.229 804.669 267.242 807.333 260.428 805.135C253.613 802.941 251.504 806.543 238.843 808.787C226.183 811.035 220.027 800.402 203.077 806.826C187.239 812.825 202.509 804.319 178.538 803.938C169.794 803.799 168.106 806.106 168.106 806.106C163.09 797.474 152.378 801.571 152.378 801.571C148.845 796.1 144.341 796.4 141.595 797.297C140.934 797.794 140.117 798.193 139.115 798.46C139.115 798.46 140.091 797.789 141.595 797.297C146.494 793.622 142.862 784.634 142.862 784.634C134.591 780.26 126.459 791.035 126.459 791.035L118.451 791.724C109.44 785.003 108.026 792.808 108.026 792.808C100.628 785.376 93.1933 790.055 93.1933 790.055C85.7507 778.188 76.0661 784.95 76.0661 784.95C78.1516 780.171 77.5039 778.784 77.5039 778.784C76.4147 763.134 63.0424 770.747 63.0424 770.747C63.579 765.04 58.0784 765.243 58.0784 765.243C66.778 755.372 57.3177 742.48 57.3177 742.48C48.8355 741.478 48.3592 755.136 48.3374 756.012C48.4928 748.349 43.5723 748.879 43.5723 748.879C54.8005 743.003 50.5678 728.392 50.5678 728.392C40.8096 722.952 32.069 737.293 32.069 737.293C41.1154 721.351 27.5228 711.843 27.5228 711.843C17.667 712.568 17.4831 725.409 17.5248 727.62C17.5287 727.727 17.532 727.835 17.5347 727.943C17.5347 727.943 17.5287 727.829 17.5248 727.62C16.9642 712.287 3.92947 714.672 3.92947 714.672C11.8338 703.701 1.16857 691.767 1.16857 691.767C-3.0208 689.216 -9.15106 696.349 -9.15106 696.349C-13.7702 680.557 -25.9561 683.058 -25.9561 683.058Z" fill="#110C24"/>
<path fill-rule="evenodd" clip-rule="evenodd" d="M272.598 614.106C261.764 625.572 268.001 635.948 272.474 639.703C275.14 636.308 276.366 636.575 278.286 633.37C279.779 628.624 277.001 622.323 272.598 614.106ZM271.816 621.771C270.023 627.743 268.736 634.338 272.474 639.703L271.816 621.771Z" fill="url(#paint45_linear_648_4347)"/>
<path d="M272.474 639.703L271.816 621.771C270.023 627.743 268.736 634.338 272.474 639.703Z" fill="url(#paint46_linear_648_4347)"/>
<path fill-rule="evenodd" clip-rule="evenodd" d="M288.951 627.304C287.009 642.959 277.852 640.638 272.109 639.58C275.366 636.208 275.466 633.367 276.854 631.228C279.563 627.055 279.812 629.141 288.951 627.304ZM283.681 631.927C280.218 637.112 278.627 639.046 272.109 639.58L283.681 631.927Z" fill="url(#paint47_linear_648_4347)"/>
<path d="M272.109 639.58L283.681 631.927C280.218 637.112 278.627 639.046 272.109 639.58Z" fill="url(#paint48_linear_648_4347)"/>
<ellipse cx="272.354" cy="639.114" rx="0.691294" ry="6.20833" transform="rotate(-58.8472 272.354 639.114)" fill="url(#paint49_linear_648_4347)"/>
<path d="M267.705 636.271L267.703 636.279L267.71 636.265L267.705 636.271ZM265.734 633.936C265.747 633.954 265.773 633.958 265.792 633.945C265.81 633.931 265.815 633.905 265.801 633.887C265.787 633.868 265.761 633.864 265.743 633.877C265.724 633.891 265.72 633.917 265.734 633.936ZM264.845 634.255C264.859 634.273 264.885 634.277 264.903 634.264C264.922 634.25 264.926 634.224 264.912 634.206C264.899 634.187 264.873 634.183 264.854 634.197C264.836 634.21 264.831 634.236 264.845 634.255ZM266.017 635.46L266.012 635.466L266.017 635.46ZM267.705 636.271C267.708 636.264 267.708 636.264 267.708 636.264C267.708 636.264 267.708 636.264 267.708 636.264C267.708 636.264 267.708 636.264 267.707 636.264C267.707 636.264 267.707 636.264 267.707 636.264C267.706 636.263 267.706 636.263 267.704 636.263C267.702 636.262 267.699 636.261 267.695 636.26C267.687 636.257 267.675 636.253 267.659 636.247C267.628 636.236 267.582 636.22 267.526 636.199C267.414 636.157 267.257 636.097 267.083 636.024C266.734 635.876 266.313 635.673 266.022 635.453L266.012 635.466C266.305 635.687 266.728 635.89 267.077 636.038C267.252 636.112 267.408 636.172 267.521 636.214C267.577 636.235 267.623 636.251 267.654 636.262C267.67 636.267 267.682 636.272 267.69 636.274C267.694 636.276 267.697 636.277 267.699 636.278C267.701 636.278 267.701 636.278 267.702 636.278C267.702 636.279 267.702 636.279 267.702 636.279C267.703 636.279 267.703 636.279 267.703 636.279C267.703 636.279 267.703 636.279 267.703 636.279C267.703 636.279 267.703 636.279 267.705 636.271ZM266.022 635.453C265.761 635.257 265.477 634.95 265.258 634.692C265.148 634.563 265.055 634.446 264.989 634.362C264.956 634.32 264.93 634.286 264.912 634.262C264.903 634.25 264.897 634.241 264.892 634.235C264.89 634.232 264.888 634.23 264.887 634.228C264.886 634.227 264.886 634.227 264.885 634.226C264.885 634.226 264.885 634.226 264.885 634.226C264.885 634.226 264.885 634.226 264.885 634.226C264.885 634.226 264.885 634.226 264.885 634.226C264.885 634.226 264.885 634.226 264.879 634.23C264.872 634.235 264.872 634.235 264.872 634.235C264.872 634.235 264.872 634.235 264.872 634.235C264.872 634.235 264.872 634.235 264.872 634.235C264.873 634.235 264.873 634.235 264.873 634.235C264.873 634.236 264.874 634.236 264.874 634.237C264.875 634.239 264.877 634.241 264.879 634.244C264.884 634.251 264.891 634.26 264.9 634.272C264.918 634.295 264.944 634.329 264.977 634.372C265.043 634.456 265.136 634.573 265.246 634.702C265.465 634.96 265.75 635.268 266.012 635.466L266.022 635.453ZM267.71 636.265C267.453 636.06 267.058 635.605 266.682 635.135C266.306 634.664 265.95 634.177 265.774 633.907L265.761 633.915C265.937 634.186 266.293 634.673 266.669 635.144C267.045 635.615 267.442 636.07 267.7 636.277L267.71 636.265Z" fill="#D46588"/>
<path d="M61.2913 647.957C61.3791 647.594 61.7445 647.371 62.1076 647.458C62.4706 647.546 62.6935 647.912 62.6057 648.275C62.518 648.638 62.153 648.861 61.79 648.773C61.4269 648.685 61.2036 648.32 61.2913 647.957Z" fill="#FCCA91"/>
<path opacity="0.0391503" d="M59.1849 647.274C59.5595 645.723 61.1204 644.77 62.6707 645.144C64.2214 645.519 65.1743 647.08 64.7997 648.631C64.4249 650.182 62.8646 651.135 61.3139 650.76C59.7636 650.386 58.8102 648.825 59.1849 647.274Z" fill="#F8AC54"/>
<path opacity="0.0329471" d="M56.8982 646.909C57.5736 644.113 60.3865 642.394 63.1814 643.069C65.9763 643.745 67.6942 646.558 67.0188 649.354C66.3435 652.149 63.5306 653.868 60.7357 653.193C57.9408 652.517 56.2229 649.704 56.8982 646.909Z" fill="#F8AC54"/>
<g filter="url(#filter5_f_648_4347)">
<path d="M61.0483 647.899C61.1684 647.402 61.668 647.097 62.1648 647.217C62.6612 647.337 62.9664 647.836 62.8463 648.333C62.7264 648.83 62.2267 649.135 61.7302 649.015C61.2334 648.895 60.9284 648.395 61.0483 647.899Z" fill="#F8AC54"/>
</g>
<path d="M298.577 714.606C298.71 714.057 299.262 713.719 299.812 713.852C300.356 713.984 300.693 714.536 300.561 715.085C300.428 715.634 299.876 715.971 299.332 715.84C298.782 715.707 298.445 715.155 298.577 714.606Z" fill="#FCCA91"/>
<path opacity="0.0391503" d="M295.391 713.572C295.957 711.228 298.317 709.786 300.661 710.352C303.006 710.919 304.446 713.279 303.88 715.623C303.313 717.968 300.954 719.409 298.61 718.843C296.265 718.277 294.824 715.917 295.391 713.572Z" fill="#F8AC54"/>
<path opacity="0.0329471" d="M291.934 713.02C292.955 708.794 297.21 706.196 301.433 707.216C305.66 708.237 308.255 712.49 307.234 716.717C306.213 720.943 301.963 723.542 297.735 722.521C293.513 721.501 290.913 717.246 291.934 713.02Z" fill="#F8AC54"/>
<g filter="url(#filter6_f_648_4347)">
<path d="M298.21 714.518C298.391 713.767 299.144 713.304 299.899 713.487C300.649 713.668 301.108 714.423 300.927 715.174C300.745 715.925 299.993 716.387 299.243 716.206C298.487 716.023 298.028 715.269 298.21 714.518Z" fill="#F8AC54"/>
</g>
<path d="M374.248 677.311C374.336 676.948 374.701 676.725 375.065 676.813C375.425 676.9 375.651 677.266 375.564 677.629C375.476 677.992 375.107 678.214 374.747 678.127C374.383 678.04 374.16 677.674 374.248 677.311Z" fill="#FCCA91"/>
<path opacity="0.0391503" d="M372.142 676.627C372.516 675.076 374.077 674.123 375.627 674.498C377.178 674.872 378.131 676.433 377.756 677.984C377.382 679.534 375.821 680.488 374.271 680.114C372.72 679.739 371.767 678.178 372.142 676.627Z" fill="#F8AC54"/>
<path opacity="0.0329471" d="M369.855 676.262C370.53 673.467 373.345 671.748 376.138 672.423C378.934 673.099 380.65 675.912 379.975 678.707C379.299 681.502 376.489 683.221 373.692 682.546C370.899 681.871 369.18 679.058 369.855 676.262Z" fill="#F8AC54"/>
<g filter="url(#filter7_f_648_4347)">
<path d="M374.006 677.253C374.126 676.756 374.628 676.451 375.124 676.571C375.62 676.691 375.923 677.19 375.803 677.687C375.683 678.184 375.185 678.489 374.689 678.37C374.193 678.25 373.886 677.75 374.006 677.253Z" fill="#F8AC54"/>
</g>
<path d="M220.202 758.749C220.29 758.386 220.655 758.163 221.019 758.251C221.382 758.339 221.605 758.704 221.518 759.067C221.43 759.43 221.065 759.654 220.701 759.566C220.337 759.478 220.114 759.112 220.202 758.749Z" fill="#FCCA91"/>
<path opacity="0.0391503" d="M218.1 758.068C218.475 756.517 220.035 755.564 221.586 755.938C223.133 756.312 224.089 757.874 223.715 759.425C223.34 760.976 221.776 761.928 220.229 761.554C218.678 761.18 217.725 759.619 218.1 758.068Z" fill="#F8AC54"/>
<path opacity="0.0329471" d="M215.808 757.701C216.483 754.905 219.298 753.187 222.094 753.863C224.887 754.537 226.607 757.351 225.931 760.146C225.256 762.941 222.441 764.66 219.649 763.985C216.852 763.31 215.133 760.496 215.808 757.701Z" fill="#F8AC54"/>
<g filter="url(#filter8_f_648_4347)">
<path d="M219.959 758.691C220.079 758.194 220.58 757.889 221.077 758.009C221.573 758.129 221.88 758.629 221.76 759.126C221.64 759.623 221.138 759.928 220.642 759.808C220.146 759.688 219.839 759.188 219.959 758.691Z" fill="#F8AC54"/>
</g>
<path d="M13.5451 702.607C13.6328 702.244 13.9982 702.021 14.3612 702.109C14.7243 702.196 14.9476 702.561 14.8599 702.924C14.7721 703.288 14.4067 703.511 14.0436 703.423C13.6806 703.335 13.4574 702.97 13.5451 702.607Z" fill="#FCCA91"/>
<path opacity="0.0391503" d="M11.4407 701.924C11.8155 700.373 13.3758 699.42 14.9265 699.794C16.4768 700.169 17.4302 701.73 17.0555 703.281C16.6809 704.831 15.1204 705.784 13.5701 705.409C12.0194 705.034 11.0661 703.475 11.4407 701.924Z" fill="#F8AC54"/>
<path opacity="0.0329471" d="M9.15195 701.558C9.82724 698.763 12.6405 697.044 15.4354 697.72C18.2299 698.395 19.9482 701.208 19.2729 704.004C18.5974 706.799 15.7847 708.516 12.9901 707.841C10.1952 707.166 8.47648 704.354 9.15195 701.558Z" fill="#F8AC54"/>
<g filter="url(#filter9_f_648_4347)">
<path d="M13.302 702.549C13.422 702.052 13.922 701.746 14.4184 701.866C14.9153 701.986 15.2203 702.486 15.1003 702.983C14.9803 703.48 14.4807 703.785 13.9839 703.665C13.4874 703.545 13.182 703.045 13.302 702.549Z" fill="#F8AC54"/>
</g>
<path d="M55.6459 765.212C55.7337 764.849 56.099 764.626 56.4621 764.714C56.8251 764.802 57.0484 765.167 56.9607 765.53C56.873 765.893 56.5075 766.116 56.1445 766.029C55.7814 765.941 55.5582 765.575 55.6459 765.212Z" fill="#FCCA91"/>
<path opacity="0.0391503" d="M53.5416 764.53C53.9163 762.979 55.4767 762.025 57.0273 762.4C58.5777 762.774 59.5311 764.335 59.1563 765.886C58.7817 767.437 57.2212 768.389 55.6709 768.014C54.1202 767.64 53.1669 766.08 53.5416 764.53Z" fill="#F8AC54"/>
<path opacity="0.0329471" d="M51.2528 764.164C51.9281 761.369 54.7413 759.65 57.5362 760.325C60.3308 761 62.049 763.814 61.3737 766.609C60.6983 769.405 57.8855 771.122 55.091 770.446C52.2961 769.771 50.5773 766.96 51.2528 764.164Z" fill="#F8AC54"/>
<g filter="url(#filter10_f_648_4347)">
<path d="M55.4028 765.154C55.5228 764.657 56.0228 764.352 56.5193 764.472C57.0161 764.592 57.3211 765.092 57.2012 765.588C57.0811 766.085 56.5815 766.391 56.0847 766.271C55.5883 766.151 55.2828 765.651 55.4028 765.154Z" fill="#F8AC54"/>
</g>
<path d="M28.6566 593.199C28.8272 592.493 29.5351 592.058 30.2443 592.229C30.9499 592.4 31.3847 593.111 31.2141 593.817C31.0434 594.524 30.3321 594.957 29.6266 594.786C28.9174 594.615 28.4859 593.906 28.6566 593.199Z" fill="#FCCA91"/>
<path opacity="0.0391503" d="M24.5629 591.871C25.2917 588.854 28.3262 586.999 31.343 587.728C34.3562 588.456 36.2126 591.493 35.4838 594.509C34.7551 597.526 31.7173 599.379 28.7041 598.651C25.6873 597.922 23.8341 594.887 24.5629 591.871Z" fill="#F8AC54"/>
<path opacity="0.0329471" d="M20.1113 591.159C21.4251 585.721 26.8958 582.377 32.3342 583.691C37.769 585.004 41.1136 590.478 39.7998 595.915C38.4861 601.353 33.0119 604.694 27.5772 603.381C22.1388 602.068 18.7976 596.596 20.1113 591.159Z" fill="#F8AC54"/>
<g filter="url(#filter11_f_648_4347)">
<path d="M28.186 593.085C28.4194 592.119 29.3913 591.525 30.3578 591.758C31.3242 591.992 31.9176 592.964 31.6842 593.93C31.4509 594.896 30.4791 595.49 29.5127 595.256C28.5463 595.023 27.9527 594.051 28.186 593.085Z" fill="#F8AC54"/>
</g>
<path d="M215.973 588.404C216.02 587.912 216.455 587.551 216.949 587.599C217.44 587.646 217.801 588.083 217.754 588.575C217.707 589.067 217.269 589.426 216.778 589.379C216.284 589.332 215.925 588.896 215.973 588.404Z" fill="#FCCA91"/>
<path opacity="0.0391503" d="M213.09 587.902C213.292 585.801 215.157 584.261 217.258 584.463C219.356 584.665 220.897 586.532 220.695 588.633C220.493 590.733 218.626 592.272 216.527 592.07C214.426 591.868 212.888 590.002 213.09 587.902Z" fill="#F8AC54"/>
<path opacity="0.0329471" d="M210.024 587.848C210.388 584.061 213.751 581.286 217.539 581.65C221.323 582.014 224.099 585.379 223.735 589.166C223.371 592.953 220.006 595.726 216.221 595.363C212.433 594.999 209.66 591.635 210.024 587.848Z" fill="#F8AC54"/>
<g filter="url(#filter12_f_648_4347)">
<path d="M215.644 588.372C215.709 587.699 216.307 587.206 216.98 587.271C217.653 587.336 218.145 587.933 218.081 588.606C218.016 589.279 217.419 589.771 216.746 589.707C216.072 589.642 215.58 589.045 215.644 588.372Z" fill="#F8AC54"/>
</g>
<path d="M-93.8726 590.298L-45.1328 270.903C-45.1328 270.903 -108.99 -3.41147 -109.124 -39.6167C-109.258 -75.8218 -61.6584 -44.5835 -61.6584 -44.5835C-61.6584 -44.5835 -32.8525 188.928 -20.9067 206.456C-20.9067 206.456 26.963 -33.3673 44.9017 -62.6773C62.8403 -91.9874 160.808 -56.4941 160.808 -56.4941C160.808 -56.4941 87.747 104.717 87.9789 117.497C88.2107 130.277 28.358 326.085 28.5592 337.177C28.7605 348.27 121.601 331.092 132.282 316.371C142.962 301.65 209.893 232.327 214.989 232.234C218.248 232.175 229.972 229.542 238.894 236.568C241.5 238.619 251.358 234.581 253.253 239.058C255.016 243.224 257.393 247.934 257.393 247.934C257.393 247.934 139.555 358.731 105.367 364.06C71.1793 369.389 29.3888 373.982 29.8292 410.793C30.2705 447.604 -26.3943 647.688 -26.3943 647.688L-90.7455 590.576L-93.8726 590.298Z" fill="url(#paint50_linear_648_4347)" fill-opacity="0.42"/>
<path opacity="0.04" d="M131.861 123.037C131.861 7.93211 225.152 -85.3789 340.231 -85.3789C455.314 -85.3789 548.605 7.93211 548.605 123.037C548.605 238.142 455.314 331.453 340.231 331.453C225.152 331.453 131.861 238.142 131.861 123.037Z" fill="#979499"/>
<path opacity="0.04" d="M193.129 123.037C193.129 41.7761 258.99 -24.0986 340.232 -24.0986C421.477 -24.0986 487.337 41.7761 487.337 123.037C487.337 204.298 421.477 270.173 340.232 270.173C258.99 270.173 193.129 204.298 193.129 123.037Z" fill="#979499"/>
<path opacity="0.03" d="M242.009 126.312C242.009 72.0529 285.987 28.0674 340.233 28.0674C394.481 28.0674 438.456 72.0529 438.456 126.312C438.456 180.571 394.481 224.556 340.233 224.556C285.987 224.556 242.009 180.571 242.009 126.312Z" fill="#979499"/>
<path opacity="0.780606" d="M291.054 123.038C291.054 95.8714 313.071 73.8486 340.232 73.8486C367.393 73.8486 389.41 95.8714 389.41 123.038C389.41 150.204 367.393 172.227 340.232 172.227C313.071 172.227 291.054 150.204 291.054 123.038Z" fill="url(#paint51_linear_648_4347)"/>
<path fill-rule="evenodd" clip-rule="evenodd" d="M361.141 788.346C359.017 788.718 354.641 789.009 346.173 787.083C335.274 784.602 328.524 773.071 328.524 773.071C329.847 773.793 336.985 779.641 346.361 779.766C350.927 779.824 354.551 781.707 357.493 783.684C355.766 781.375 354.199 779.138 352.787 776.991C346.763 777.849 341.605 775.367 330.964 769.517C320.125 763.554 318.85 754.429 318.85 754.429C318.85 754.429 328.434 764.213 338.587 765.826C343.259 766.568 346.645 768.958 349.283 771.374C348.639 770.281 348.037 769.221 347.48 768.207C346.727 766.841 346.039 765.521 345.4 764.247C338.604 762.659 333.872 758.982 325.931 747.316C317.792 735.353 320.611 729.424 320.611 729.424C320.611 729.424 322.086 736.928 330.13 744.168C335.063 748.603 340.196 755.338 343.255 759.747C341.503 755.925 340.026 751.984 338.834 747.952C334.056 741.231 329.051 730.099 328.593 723.571C328.086 716.399 328.169 710.68 328.169 710.68C334.889 717.196 336.92 726.989 337.401 729.734C335.447 716.204 342.569 703.756 342.569 703.756C341.562 708.994 349.35 722.266 346.068 731.6C343.838 737.928 341.824 744.161 340.915 747.392C341.771 750.363 343.971 757.003 348.48 765.526C347.956 763.126 347.174 760.082 345.441 751.839C342.977 740.09 350.991 729.214 350.991 729.214C348.521 736.865 351.966 746.904 352.461 755.909C352.666 760.51 352.06 765.113 350.676 769.503C352.073 771.911 353.687 774.518 355.548 777.262C354.554 771.286 353.661 761.762 355.886 755.366C357.47 750.804 357.595 741.977 357.595 741.977C357.595 741.977 364.358 747.221 362.458 759.023C360.744 769.671 359.946 774.598 357.798 780.471C359.703 783.115 361.832 785.863 364.197 788.671C362.181 783.992 360.456 777.562 363.314 771.899C368.427 761.763 365.797 755.903 365.797 755.903C365.797 755.903 371.274 757.994 371.206 776.371C371.166 786.896 369.917 791.715 368.801 793.867C370.507 795.709 372.324 797.559 374.246 799.422C372.648 794.663 370.801 785.645 374.7 777.978C376.739 773.966 378.671 767.955 378.671 767.955C378.671 767.955 381.824 779.413 380.682 789.826C379.679 798.995 378.327 800.952 376.876 801.901L388.306 811.319C388.781 811.676 388.877 812.35 388.519 812.824C388.161 813.298 387.486 813.393 387.011 813.036C383.448 810.341 380.008 807.608 376.937 804.858C375.473 806.38 373.473 807.268 371.366 807.334C367.059 807.475 365.275 804.316 363.546 805.009C363.546 805.009 366.047 801.552 368.616 802.263C371.186 802.973 372.033 803.957 374.26 803.798C374.666 803.734 375.066 803.64 375.46 803.514C373.576 801.78 371.78 800.048 370.081 798.315C366.749 799.989 360.857 800.952 351.799 801.09C341.786 801.248 333.752 788.779 333.752 788.779C333.752 788.779 338.006 792.906 351.974 793.342C360.131 793.598 365.364 795.266 368.187 796.348L361.141 788.346Z" fill="url(#paint52_linear_648_4347)"/>
<path fill-rule="evenodd" clip-rule="evenodd" d="M-11.0367 558.315C-10.1596 557.387 -11.0354 554.148 -9.56987 544.801C-7.54434 543.39 -0.392938 538.247 4.19768 533.394C8.08452 529.284 10.4946 525.026 8.28322 522.933C5.8009 520.583 1.00258 524.134 -2.38405 527.76C-4.3974 529.895 -6.0845 532.315 -7.39089 534.942C-6.87643 532.636 -4.46535 522.417 -3.51095 520.137C-1.41399 519.989 5.73629 519.898 9.92961 519.149C14.7769 518.283 21.5323 516.326 23.8645 513.86C25.1317 512.521 25.1582 510.88 23.2168 509.042C18.8084 504.869 3.31114 512.501 2.71938 512.92C2.70344 512.932 -1.15765 515.833 -1.18127 515.785C1.17656 511.292 3.07402 508.13 6.15518 504.251C8.64553 504.446 27.1938 505.404 30.87 501.417C31.1844 501.072 31.3862 500.639 31.4482 500.176C31.5828 499.494 31.3278 498.793 30.7863 498.357C27.8844 495.611 16.1781 496.815 11.7904 497.664L17.7399 491.374C21.7369 491.735 25.756 491.783 29.7607 491.516C34.0262 491.168 40.2772 488.393 42.6853 485.778C43.7225 484.649 44.0853 483.58 43.2133 482.701C42.858 482.371 42.4433 482.111 41.9918 481.934C36.9623 479.779 27.4394 484.397 23.7229 486.307C25.4237 484.671 27.3426 483.278 29.4252 482.167C30.095 481.826 37.2924 476.926 42.3003 471.703C46.1453 467.694 48.8654 463.024 46.9092 461.164C44.6862 459.051 39.8738 461.683 35.7184 466.07C31.1559 470.887 26.9786 477.837 24.8458 482.602C21.9499 485.464 20.3753 486.673 17.6897 489.538C17.6897 489.538 27.3794 474.271 23.2876 470.398C19.0654 466.402 11.1529 489.788 11.7402 495.828C9.74944 497.925 7.86852 500.124 6.10498 502.415C7.6637 497.109 11.5694 485.533 8.31345 482.452C7.00572 481.214 5.0972 482.075 4.04838 483.183C-0.82614 488.337 1.08129 508.986 1.08129 508.986C-0.520155 511.288 -1.98751 513.68 -3.31387 516.151C-3.31387 516.151 1.16086 498.08 -6.23709 497.126C-13.5533 496.183 -10.0726 517.295 -6.18812 522.967C-6.51098 523.942 -9.64593 537.043 -10.8769 541.776C-10.8812 541.677 -11.2915 537.807 -11.2915 537.807C-11.2915 537.807 -12.7726 516.31 -20.391 518.466C-27.0785 520.358 -20.1412 541.948 -12.8253 548.873C-13.8347 555.175 -13.2027 557.457 -13.2027 557.457C-13.0872 557.905 -12.8659 558.318 -12.5575 558.663C-12.1652 559.051 -11.7579 559.077 -11.0367 558.315Z" fill="url(#paint53_linear_648_4347)"/>
<path d="M-2.06722 -10.8867C-2.06722 -10.8867 -42.4391 40.5779 -32.3236 41.6329C-22.2083 42.6879 -6.25085 -10.0688 -8.54858 10.9268C-10.8462 31.9224 -13.4727 66.9488 -4.88903 67.677C3.69454 68.4053 -9.16808 0.540918 -4.58398 8.46631C0.000110626 16.3917 9.49502 71.9812 19.8475 64.4287C30.2 56.8764 -10.2296 -4.84281 -1.39666 -1.33016C7.43625 2.18248 33.1832 34.6416 34.744 47.3972C36.3055 60.1529 43.5558 53.9673 41.1806 43.8931C38.8054 33.8189 -5.28949 -15.3052 15.2728 1.18885C35.8353 17.6829 39.7158 0.924391 -0.955643 -10.8443L-2.06722 -10.8867Z" fill="url(#paint54_linear_648_4347)"/>
<path fill-rule="evenodd" clip-rule="evenodd" d="M51.6809 13.1024C49.9078 10.4739 47.9467 7.97684 45.8138 5.63079C44.3444 3.99245 44.0819 3.31953 42.5955 1.92184C45.0817 4.1899 50.156 6.36679 53.8784 6.01479C57.8569 5.63854 62.1893 2.93558 62.1893 2.93558C62.1893 2.93558 59.404 -1.88198 55.8605 -3.34585C51.1349 -5.29835 42.5818 -4.21599 38.8091 -1.73336C31.3922 -8.46225 26.5544 -10.845 26.4747 -10.8867L25.499 -9.07451C25.5757 -9.03414 30.6125 -6.94944 37.7798 -0.489382C32.6435 3.61286 31.8749 9.83961 32.2484 13.7935C32.6788 18.3394 35.8429 21.4801 35.8429 21.4801C35.8429 21.4801 40.2843 17.8477 41.5578 15.2064C42.8371 12.5532 43.2453 7.12351 41.5663 3.16583C42.5171 4.1234 43.2055 5.29497 44.1622 6.36029C46.2611 8.69758 47.9859 11.2985 50.0835 14.4002C47.5757 16.9879 45.6218 19.0666 44.0153 23.0006C41.693 28.6869 45.7113 34.8799 45.7113 34.8799C45.7113 34.8799 51.2636 33.4003 53.1313 28.445C53.93 26.3274 53.6401 21.6936 53.3553 18.6774C55.7677 22.8584 57.7243 27.2864 59.1917 31.8852C56.4965 33.2403 50.8561 35.896 49.0908 40.2936C47.7488 43.6355 47.5888 47.6872 48.9746 51.1977C52.3196 50.8858 55.6489 49.5525 57.7465 46.9283C60.157 43.9116 60.6108 39.1967 60.812 36.8919C62.5818 41.3891 61.8752 47.81 61.8014 53.4247C58.1965 53.9302 54.0358 53.9986 50.6484 56.7727C45.9255 60.6408 45.3632 67.5921 45.3632 67.5921C45.3632 67.5921 53.0778 66.8456 56.5697 64.8126C58.8854 63.4643 60.7983 60.025 62.124 56.8341C61.9836 63.1276 62.1958 69.4242 62.7601 75.6937C60.5148 76.5323 53.1477 80.1161 50.954 84.2636C47.7521 90.3149 50.2154 94.6531 50.2154 94.6531C50.2154 94.6531 56.0995 94.3331 59.0951 91.52C62.3219 88.4894 62.8665 82.8423 63.1898 80.2396C63.8239 85.8207 64.8616 92.3691 65.9378 97.1795C63.7357 98.83 58.1462 103.397 57.2423 108.321C56.1191 114.444 59.2923 117.874 59.2923 117.874C59.2923 117.874 63.1924 116.771 66.1978 112.061C68.0962 109.086 67.5816 104.143 67.6123 102.754C68.172 106.657 70.764 112.481 72.1504 114.365C72.4045 116.497 73.9209 124.742 78.0404 128.141C81.5238 131.014 87.5104 131.259 87.5104 131.259C87.5104 131.259 88.3875 126.18 86.5974 121.599C84.8113 117.028 76.7238 114.387 73.802 113.635C71.5607 110.637 70.7411 109.3 68.6415 101.51C70.0084 103.535 73.6694 106.693 77.896 107.135C84.3764 107.813 88.4495 104.797 88.4495 104.797C88.4495 104.797 87.5535 99.8306 81.9796 96.8333C77.0941 94.2057 70.3597 95.5342 67.5894 96.4499C66.4094 91.0641 65.7909 86.6671 64.8949 80.0782C66.4303 83.517 68.7708 86.6515 72.0067 88.5789C75.1858 90.473 81.8836 89.9381 81.8836 89.9381C81.8836 89.9381 81.0928 81.7013 76.2085 78.4349C71.4307 75.2404 66.6771 75.5944 64.4652 75.5324C63.8788 69.2641 63.6665 62.9665 63.8285 56.6729C64.3751 60.083 65.5689 64.5688 67.6378 66.6326C71.3955 70.3817 78.3519 70.7794 78.3519 70.7794C78.3519 70.7794 77.6152 63.0054 75.0043 59.6294C72.1935 55.9957 67.9695 54.354 63.5065 53.2634C63.5953 46.9244 64.2647 41.9299 62.5171 36.7306C63.773 39.1752 65.61 41.0206 68.2771 43.0658C71.8082 45.774 78.7764 44.9395 78.7764 44.9395C78.7764 44.9395 76.556 38.1093 73.8307 35.0874C70.2337 31.0982 63.6534 31.4718 60.8969 31.724C60.859 31.3749 56.8257 21.6469 54.2507 17.395C56.5024 19.9845 59.7351 22.0222 62.3107 22.4171C67.4085 23.1987 72.5416 21.4496 72.5416 21.4496C72.5416 21.4496 69.7432 15.5312 64.9152 13.5709C60.5854 11.8131 53.386 12.9412 51.6809 13.1024Z" fill="url(#paint55_linear_648_4347)" fill-opacity="0.79"/>
</g>
<defs>
<filter id="filter0_f_648_4347" x="306.667" y="650.189" width="77.8327" height="95.3319" filterUnits="userSpaceOnUse" color-interpolation-filters="sRGB">
<feFlood flood-opacity="0" result="BackgroundImageFix"/>
<feBlend mode="normal" in="SourceGraphic" in2="BackgroundImageFix" result="shape"/>
<feGaussianBlur stdDeviation="1.4" result="effect1_foregroundBlur_648_4347"/>
</filter>
<filter id="filter1_f_648_4347" x="-36.1647" y="641.406" width="82.381" height="89.7089" filterUnits="userSpaceOnUse" color-interpolation-filters="sRGB">
<feFlood flood-opacity="0" result="BackgroundImageFix"/>
<feBlend mode="normal" in="SourceGraphic" in2="BackgroundImageFix" result="shape"/>
<feGaussianBlur stdDeviation="1.4" result="effect1_foregroundBlur_648_4347"/>
</filter>
<filter id="filter2_f_648_4347" x="-626.563" y="693.715" width="1578.18" height="208.014" filterUnits="userSpaceOnUse" color-interpolation-filters="sRGB">
<feFlood flood-opacity="0" result="BackgroundImageFix"/>
<feBlend mode="normal" in="SourceGraphic" in2="BackgroundImageFix" result="shape"/>
<feGaussianBlur stdDeviation="2.7" result="effect1_foregroundBlur_648_4347"/>
</filter>
<filter id="filter3_f_648_4347" x="195.58" y="661.896" width="58.6731" height="81.0942" filterUnits="userSpaceOnUse" color-interpolation-filters="sRGB">
<feFlood flood-opacity="0" result="BackgroundImageFix"/>
<feBlend mode="normal" in="SourceGraphic" in2="BackgroundImageFix" result="shape"/>
<feGaussianBlur stdDeviation="0.369388" result="effect1_foregroundBlur_648_4347"/>
</filter>
<filter id="filter4_f_648_4347" x="19.2481" y="544.901" width="241.616" height="208.765" filterUnits="userSpaceOnUse" color-interpolation-filters="sRGB">
<feFlood flood-opacity="0" result="BackgroundImageFix"/>
<feBlend mode="normal" in="SourceGraphic" in2="BackgroundImageFix" result="shape"/>
<feGaussianBlur stdDeviation="9.56308" result="effect1_foregroundBlur_648_4347"/>
</filter>
<filter id="filter5_f_648_4347" x="56.0972" y="642.266" width="11.7004" height="11.7009" filterUnits="userSpaceOnUse" color-interpolation-filters="sRGB">
<feFlood flood-opacity="0" result="BackgroundImageFix"/>
<feBlend mode="normal" in="SourceGraphic" in2="BackgroundImageFix" result="shape"/>
<feGaussianBlur stdDeviation="2.46252" result="effect1_foregroundBlur_648_4347"/>
</filter>
<filter id="filter6_f_648_4347" x="293.245" y="708.522" width="12.6462" height="12.6482" filterUnits="userSpaceOnUse" color-interpolation-filters="sRGB">
<feFlood flood-opacity="0" result="BackgroundImageFix"/>
<feBlend mode="normal" in="SourceGraphic" in2="BackgroundImageFix" result="shape"/>
<feGaussianBlur stdDeviation="2.46252" result="effect1_foregroundBlur_648_4347"/>
</filter>
<filter id="filter7_f_648_4347" x="369.055" y="671.62" width="11.6992" height="11.7009" filterUnits="userSpaceOnUse" color-interpolation-filters="sRGB">
<feFlood flood-opacity="0" result="BackgroundImageFix"/>
<feBlend mode="normal" in="SourceGraphic" in2="BackgroundImageFix" result="shape"/>
<feGaussianBlur stdDeviation="2.46252" result="effect1_foregroundBlur_648_4347"/>
</filter>
<filter id="filter8_f_648_4347" x="215.008" y="753.058" width="11.7024" height="11.7009" filterUnits="userSpaceOnUse" color-interpolation-filters="sRGB">
<feFlood flood-opacity="0" result="BackgroundImageFix"/>
<feBlend mode="normal" in="SourceGraphic" in2="BackgroundImageFix" result="shape"/>
<feGaussianBlur stdDeviation="2.46252" result="effect1_foregroundBlur_648_4347"/>
</filter>
<filter id="filter9_f_648_4347" x="8.35085" y="696.915" width="11.7007" height="11.7009" filterUnits="userSpaceOnUse" color-interpolation-filters="sRGB">
<feFlood flood-opacity="0" result="BackgroundImageFix"/>
<feBlend mode="normal" in="SourceGraphic" in2="BackgroundImageFix" result="shape"/>
<feGaussianBlur stdDeviation="2.46252" result="effect1_foregroundBlur_648_4347"/>
</filter>
<filter id="filter10_f_648_4347" x="50.4517" y="759.521" width="11.7007" height="11.7009" filterUnits="userSpaceOnUse" color-interpolation-filters="sRGB">
<feFlood flood-opacity="0" result="BackgroundImageFix"/>
<feBlend mode="normal" in="SourceGraphic" in2="BackgroundImageFix" result="shape"/>
<feGaussianBlur stdDeviation="2.46252" result="effect1_foregroundBlur_648_4347"/>
</filter>
<filter id="filter11_f_648_4347" x="23.2102" y="586.782" width="13.4497" height="13.4494" filterUnits="userSpaceOnUse" color-interpolation-filters="sRGB">
<feFlood flood-opacity="0" result="BackgroundImageFix"/>
<feBlend mode="normal" in="SourceGraphic" in2="BackgroundImageFix" result="shape"/>
<feGaussianBlur stdDeviation="2.46252" result="effect1_foregroundBlur_648_4347"/>
</filter>
<filter id="filter12_f_648_4347" x="210.714" y="582.34" width="12.2978" height="12.2976" filterUnits="userSpaceOnUse" color-interpolation-filters="sRGB">
<feFlood flood-opacity="0" result="BackgroundImageFix"/>
<feBlend mode="normal" in="SourceGraphic" in2="BackgroundImageFix" result="shape"/>
<feGaussianBlur stdDeviation="2.46252" result="effect1_foregroundBlur_648_4347"/>
</filter>
<linearGradient id="paint0_linear_648_4347" x1="395.132" y1="602.143" x2="1362.1" y2="597.409" gradientUnits="userSpaceOnUse">
<stop stop-color="#2C185A"/>
<stop offset="1" stop-color="#5840A1"/>
</linearGradient>
<radialGradient id="paint1_radial_648_4347" cx="0" cy="0" r="1" gradientUnits="userSpaceOnUse" gradientTransform="translate(230.107 80.8548) rotate(-37.0424) scale(180.13 180.136)">
<stop stop-color="#FF9CAA"/>
<stop offset="0.396043" stop-color="#6633CC"/>
<stop offset="1"/>
</radialGradient>
<linearGradient id="paint2_linear_648_4347" x1="137.003" y1="580.589" x2="115.949" y2="576.603" gradientUnits="userSpaceOnUse">
<stop stop-color="#DDA165"/>
<stop offset="1" stop-color="#BE5D28"/>
</linearGradient>
<linearGradient id="paint3_linear_648_4347" x1="127.23" y1="574.225" x2="135.114" y2="585.418" gradientUnits="userSpaceOnUse">
<stop stop-opacity="0"/>
<stop offset="1" stop-color="#E40676"/>
</linearGradient>
<linearGradient id="paint4_linear_648_4347" x1="122.157" y1="543.82" x2="115.257" y2="578.189" gradientUnits="userSpaceOnUse">
<stop stop-color="#D59861"/>
<stop offset="0.86" stop-color="#FEDCB9"/>
<stop offset="1" stop-color="#FEDCB9" stop-opacity="0"/>
</linearGradient>
<linearGradient id="paint5_linear_648_4347" x1="120.609" y1="551.729" x2="129.863" y2="556.001" gradientUnits="userSpaceOnUse">
<stop stop-opacity="0"/>
<stop offset="1" stop-color="#E40676"/>
</linearGradient>
<linearGradient id="paint6_linear_648_4347" x1="108.892" y1="588.408" x2="105.356" y2="645.399" gradientUnits="userSpaceOnUse">
<stop stop-color="#DDA165"/>
<stop offset="1" stop-color="#BE5D28"/>
</linearGradient>
<linearGradient id="paint7_linear_648_4347" x1="110.975" y1="590.855" x2="142.063" y2="625.429" gradientUnits="userSpaceOnUse">
<stop stop-opacity="0"/>
<stop offset="1" stop-color="#E40676"/>
</linearGradient>
<linearGradient id="paint8_linear_648_4347" x1="83.3545" y1="589.044" x2="61.7342" y2="560.422" gradientUnits="userSpaceOnUse">
<stop stop-color="#A06C4A"/>
<stop offset="1" stop-color="#BE5D28"/>
</linearGradient>
<linearGradient id="paint9_linear_648_4347" x1="79.8133" y1="572.995" x2="57.5053" y2="580.697" gradientUnits="userSpaceOnUse">
<stop stop-opacity="0"/>
<stop offset="1" stop-color="#100030"/>
</linearGradient>
<linearGradient id="paint10_linear_648_4347" x1="119.899" y1="590.494" x2="84.5428" y2="609.257" gradientUnits="userSpaceOnUse">
<stop stop-color="#FBE2A7"/>
<stop offset="1" stop-color="#FBE2A7" stop-opacity="0"/>
</linearGradient>
<linearGradient id="paint11_linear_648_4347" x1="65.2224" y1="566.682" x2="77.673" y2="584.12" gradientUnits="userSpaceOnUse">
<stop stop-color="#FBE2A7"/>
<stop offset="1" stop-color="#FBE2A7" stop-opacity="0"/>
</linearGradient>
<linearGradient id="paint12_linear_648_4347" x1="77.8127" y1="572.377" x2="61.7274" y2="579.351" gradientUnits="userSpaceOnUse">
<stop stop-opacity="0"/>
<stop offset="1" stop-color="#100030"/>
</linearGradient>
<linearGradient id="paint13_linear_648_4347" x1="129.831" y1="613.572" x2="123.587" y2="636.845" gradientUnits="userSpaceOnUse">
<stop stop-color="#FBE2A7"/>
<stop offset="1" stop-color="#FBE2A7" stop-opacity="0"/>
</linearGradient>
<linearGradient id="paint14_linear_648_4347" x1="112.945" y1="601.755" x2="87.901" y2="597.014" gradientUnits="userSpaceOnUse">
<stop stop-color="#FCF9F6"/>
<stop offset="1" stop-color="#E5D5AF"/>
</linearGradient>
<linearGradient id="paint15_linear_648_4347" x1="104.811" y1="597.673" x2="100.856" y2="608.731" gradientUnits="userSpaceOnUse">
<stop stop-color="#010101"/>
<stop offset="1" stop-color="#86644C"/>
</linearGradient>
<linearGradient id="paint16_linear_648_4347" x1="76.1984" y1="537.903" x2="90.5793" y2="581.748" gradientUnits="userSpaceOnUse">
<stop stop-color="#D59861"/>
<stop offset="0.86" stop-color="#FEDCB9"/>
<stop offset="1" stop-color="#FEDCB9" stop-opacity="0"/>
</linearGradient>
<linearGradient id="paint17_linear_648_4347" x1="90.5749" y1="560.141" x2="68.577" y2="563.186" gradientUnits="userSpaceOnUse">
<stop stop-opacity="0"/>
<stop offset="1" stop-color="#100030"/>
</linearGradient>
<linearGradient id="paint18_linear_648_4347" x1="134.427" y1="594.407" x2="130.022" y2="617.159" gradientUnits="userSpaceOnUse">
<stop stop-color="#6D3B87" stop-opacity="0"/>
<stop offset="1" stop-color="#744998" stop-opacity="0.38"/>
</linearGradient>
<linearGradient id="paint19_linear_648_4347" x1="109.708" y1="592.905" x2="104.634" y2="619.113" gradientUnits="userSpaceOnUse">
<stop stop-color="#6D3B87" stop-opacity="0"/>
<stop offset="1" stop-color="#744998" stop-opacity="0.38"/>
</linearGradient>
<linearGradient id="paint20_linear_648_4347" x1="149.153" y1="705.977" x2="168.872" y2="733.327" gradientUnits="userSpaceOnUse">
<stop stop-color="#DEA163"/>
<stop offset="1" stop-color="#CC7A3C"/>
</linearGradient>
<linearGradient id="paint21_linear_648_4347" x1="115.87" y1="717.424" x2="85.015" y2="640.098" gradientUnits="userSpaceOnUse">
<stop stop-color="#EDE3DC"/>
<stop offset="1" stop-color="#010101"/>
</linearGradient>
<linearGradient id="paint22_linear_648_4347" x1="88.0236" y1="669.624" x2="60.8777" y2="622.597" gradientUnits="userSpaceOnUse">
<stop stop-color="#E5B740"/>
<stop offset="1" stop-color="#743C19"/>
</linearGradient>
<linearGradient id="paint23_linear_648_4347" x1="85.7821" y1="674.236" x2="123.408" y2="657.462" gradientUnits="userSpaceOnUse">
<stop stop-color="#6D3B87" stop-opacity="0"/>
<stop offset="1" stop-color="#CD39C3"/>
</linearGradient>
<linearGradient id="paint24_linear_648_4347" x1="81.8303" y1="641.457" x2="70.4136" y2="680.639" gradientUnits="userSpaceOnUse">
<stop stop-color="#EDE3DC"/>
<stop offset="1" stop-color="#010101"/>
</linearGradient>
<linearGradient id="paint25_linear_648_4347" x1="186.061" y1="649.391" x2="-142.777" y2="690.218" gradientUnits="userSpaceOnUse">
<stop stop-color="#E5B740"/>
<stop offset="1" stop-color="#743C19"/>
</linearGradient>
<linearGradient id="paint26_linear_648_4347" x1="66.6875" y1="690.619" x2="189.822" y2="691.258" gradientUnits="userSpaceOnUse">
<stop stop-color="#6D3B87" stop-opacity="0"/>
<stop offset="1" stop-color="#CD39C3"/>
</linearGradient>
<linearGradient id="paint27_linear_648_4347" x1="148.846" y1="713.81" x2="67.1543" y2="807.056" gradientUnits="userSpaceOnUse">
<stop stop-color="#6633CC"/>
<stop offset="1" stop-color="#9D4BAD"/>
</linearGradient>
<linearGradient id="paint28_linear_648_4347" x1="74.7156" y1="642.574" x2="69.2577" y2="617.288" gradientUnits="userSpaceOnUse">
<stop stop-color="#E5B740"/>
<stop offset="1" stop-color="#743C19"/>
</linearGradient>
<linearGradient id="paint29_linear_648_4347" x1="62.408" y1="642.012" x2="102.339" y2="617.558" gradientUnits="userSpaceOnUse">
<stop stop-color="#6D3B87" stop-opacity="0"/>
<stop offset="1" stop-color="#CD39C3"/>
</linearGradient>
<linearGradient id="paint30_linear_648_4347" x1="217.871" y1="740.881" x2="30.7793" y2="749.854" gradientUnits="userSpaceOnUse">
<stop stop-color="#110C24"/>
<stop offset="1" stop-color="#23104A"/>
</linearGradient>
<linearGradient id="paint31_linear_648_4347" x1="240.868" y1="735.717" x2="178.494" y2="708.457" gradientUnits="userSpaceOnUse">
<stop stop-color="#C28AFF"/>
<stop offset="1" stop-color="#C42374"/>
</linearGradient>
<linearGradient id="paint32_linear_648_4347" x1="240.905" y1="735.518" x2="178.531" y2="708.258" gradientUnits="userSpaceOnUse">
<stop stop-color="#C28AFF"/>
<stop offset="1" stop-color="#250C57"/>
</linearGradient>
<linearGradient id="paint33_linear_648_4347" x1="183.079" y1="737.703" x2="131.197" y2="747.238" gradientUnits="userSpaceOnUse">
<stop stop-color="#441F5D"/>
<stop offset="1" stop-color="#412E8A"/>
</linearGradient>
<linearGradient id="paint34_linear_648_4347" x1="136.922" y1="732.455" x2="111.16" y2="732.808" gradientUnits="userSpaceOnUse">
<stop stop-color="#412E8A"/>
<stop offset="1" stop-color="#110C24"/>
</linearGradient>
<linearGradient id="paint35_linear_648_4347" x1="-33.7382" y1="536.195" x2="228.958" y2="701.604" gradientUnits="userSpaceOnUse">
<stop stop-color="#F5C144"/>
<stop offset="1" stop-color="#8F7128"/>
</linearGradient>
<linearGradient id="paint36_linear_648_4347" x1="163.861" y1="750.07" x2="129.703" y2="715.892" gradientUnits="userSpaceOnUse">
<stop stop-color="#DEA163"/>
<stop offset="1" stop-color="#CC7A3C"/>
</linearGradient>
<linearGradient id="paint37_linear_648_4347" x1="88.2999" y1="708.574" x2="16.4559" y2="626.081" gradientUnits="userSpaceOnUse">
<stop stop-color="#EDE3DC"/>
<stop offset="1" stop-color="#010101"/>
</linearGradient>
<linearGradient id="paint38_linear_648_4347" x1="40.7063" y1="658.724" x2="124.522" y2="681.774" gradientUnits="userSpaceOnUse">
<stop stop-color="#6D3B87" stop-opacity="0"/>
<stop offset="1" stop-color="#CD39C3"/>
</linearGradient>
<linearGradient id="paint39_linear_648_4347" x1="57.8692" y1="676.227" x2="18.3242" y2="638.998" gradientUnits="userSpaceOnUse">
<stop stop-color="#E5B740"/>
<stop offset="1" stop-color="#743C19"/>
</linearGradient>
<linearGradient id="paint40_linear_648_4347" x1="107.284" y1="782.407" x2="146.547" y2="810.747" gradientUnits="userSpaceOnUse">
<stop stop-color="#4A219B"/>
<stop offset="1" stop-color="#9D4BAD"/>
</linearGradient>
<linearGradient id="paint41_linear_648_4347" x1="107.746" y1="774.115" x2="141.261" y2="774.44" gradientUnits="userSpaceOnUse">
<stop/>
<stop offset="0.60345" stop-color="#6633CC"/>
<stop offset="1" stop-color="#FF9CAA"/>
</linearGradient>
<linearGradient id="paint42_linear_648_4347" x1="123.136" y1="775.599" x2="109.889" y2="718.004" gradientUnits="userSpaceOnUse">
<stop stop-color="#D498F4"/>
<stop offset="1" stop-color="#4A219B" stop-opacity="0"/>
</linearGradient>
<linearGradient id="paint43_linear_648_4347" x1="130.117" y1="775.954" x2="105.097" y2="783.783" gradientUnits="userSpaceOnUse">
<stop/>
<stop offset="0.60345" stop-color="#6633CC"/>
<stop offset="1" stop-color="#FF9CAA"/>
</linearGradient>
<linearGradient id="paint44_linear_648_4347" x1="105.362" y1="739.66" x2="269.453" y2="992.489" gradientUnits="userSpaceOnUse">
<stop stop-color="#3A1A7B"/>
<stop offset="1" stop-color="#9D4BAD"/>
</linearGradient>
<linearGradient id="paint45_linear_648_4347" x1="272.729" y1="619.431" x2="262.818" y2="635.155" gradientUnits="userSpaceOnUse">
<stop offset="0.294" stop-color="#A47092"/>
<stop offset="1" stop-color="#F5C144"/>
</linearGradient>
<linearGradient id="paint46_linear_648_4347" x1="272.729" y1="619.431" x2="262.818" y2="635.155" gradientUnits="userSpaceOnUse">
<stop stop-color="#CC499E"/>
<stop offset="1" stop-color="#F5C144"/>
</linearGradient>
<linearGradient id="paint47_linear_648_4347" x1="286.908" y1="627.491" x2="281.096" y2="645.145" gradientUnits="userSpaceOnUse">
<stop offset="0.244" stop-color="#A47092"/>
<stop offset="1" stop-color="#F5C144"/>
</linearGradient>
<linearGradient id="paint48_linear_648_4347" x1="285.317" y1="629.522" x2="280.165" y2="644.606" gradientUnits="userSpaceOnUse">
<stop stop-color="#CC499E"/>
<stop offset="1" stop-color="#F5C144"/>
</linearGradient>
<linearGradient id="paint49_linear_648_4347" x1="272.354" y1="632.906" x2="272.354" y2="645.323" gradientUnits="userSpaceOnUse">
<stop stop-color="#D35F8D"/>
<stop offset="1" stop-color="#E6B252"/>
</linearGradient>
<linearGradient id="paint50_linear_648_4347" x1="31.7945" y1="9.42298" x2="-167.887" y2="692.466" gradientUnits="userSpaceOnUse">
<stop offset="0.180668" stop-color="#110C24"/>
<stop offset="0.477168" stop-color="#6633CC"/>
<stop offset="0.752778" stop-color="#9D4BAD"/>
</linearGradient>
<linearGradient id="paint51_linear_648_4347" x1="318.043" y1="159.609" x2="438.11" y2="77.9179" gradientUnits="userSpaceOnUse">
<stop stop-color="white"/>
<stop offset="1" stop-color="#2E2168"/>
</linearGradient>
<linearGradient id="paint52_linear_648_4347" x1="386.759" y1="815.442" x2="307.878" y2="588.212" gradientUnits="userSpaceOnUse">
<stop/>
<stop offset="0.293771" stop-color="#6633CC"/>
<stop offset="0.614577" stop-color="#FF9CAA"/>
</linearGradient>
<linearGradient id="paint53_linear_648_4347" x1="-44.6134" y1="545.962" x2="29.7725" y2="473.732" gradientUnits="userSpaceOnUse">
<stop/>
<stop offset="0.60345" stop-color="#6633CC"/>
<stop offset="1" stop-color="#FF9CAA"/>
</linearGradient>
<linearGradient id="paint54_linear_648_4347" x1="-30.2977" y1="-3.67062" x2="40.7981" y2="118.391" gradientUnits="userSpaceOnUse">
<stop/>
<stop offset="1" stop-color="#6633CC"/>
</linearGradient>
<linearGradient id="paint55_linear_648_4347" x1="31.6548" y1="-32.4684" x2="115.695" y2="184.544" gradientUnits="userSpaceOnUse">
<stop/>
<stop offset="0.60345" stop-color="#6633CC"/>
<stop offset="1" stop-color="#FF9CAA"/>
</linearGradient>
<clipPath id="clip0_648_4347">
<rect width="375" height="812" fill="white" transform="translate(0 0.381836)"/>
</clipPath>
</defs>
</svg>
