<svg width="30" height="30" viewBox="0 0 30 30" fill="none" xmlns="http://www.w3.org/2000/svg">
<path d="M9.75 2.49951H20.25C24.25 2.49951 27.5 5.74951 27.5 9.74951V20.2495C27.5 22.1723 26.7362 24.0164 25.3765 25.376C24.0169 26.7357 22.1728 27.4995 20.25 27.4995H9.75C5.75 27.4995 2.5 24.2495 2.5 20.2495V9.74951C2.5 7.82669 3.26384 5.98263 4.62348 4.62299C5.98311 3.26335 7.82718 2.49951 9.75 2.49951ZM9.5 4.99951C8.30653 4.99951 7.16193 5.47362 6.31802 6.31753C5.47411 7.16145 5 8.30604 5 9.49951V20.4995C5 22.987 7.0125 24.9995 9.5 24.9995H20.5C21.6935 24.9995 22.8381 24.5254 23.682 23.6815C24.5259 22.8376 25 21.693 25 20.4995V9.49951C25 7.01201 22.9875 4.99951 20.5 4.99951H9.5ZM21.5625 6.87451C21.9769 6.87451 22.3743 7.03913 22.6674 7.33216C22.9604 7.62518 23.125 8.02261 23.125 8.43701C23.125 8.85141 22.9604 9.24884 22.6674 9.54187C22.3743 9.83489 21.9769 9.99951 21.5625 9.99951C21.1481 9.99951 20.7507 9.83489 20.4576 9.54187C20.1646 9.24884 20 8.85141 20 8.43701C20 8.02261 20.1646 7.62518 20.4576 7.33216C20.7507 7.03913 21.1481 6.87451 21.5625 6.87451ZM15 8.74951C16.6576 8.74951 18.2473 9.40799 19.4194 10.5801C20.5915 11.7522 21.25 13.3419 21.25 14.9995C21.25 16.6571 20.5915 18.2468 19.4194 19.4189C18.2473 20.591 16.6576 21.2495 15 21.2495C13.3424 21.2495 11.7527 20.591 10.5806 19.4189C9.40848 18.2468 8.75 16.6571 8.75 14.9995C8.75 13.3419 9.40848 11.7522 10.5806 10.5801C11.7527 9.40799 13.3424 8.74951 15 8.74951ZM15 11.2495C14.0054 11.2495 13.0516 11.6446 12.3483 12.3479C11.6451 13.0511 11.25 14.0049 11.25 14.9995C11.25 15.9941 11.6451 16.9479 12.3483 17.6512C13.0516 18.3544 14.0054 18.7495 15 18.7495C15.9946 18.7495 16.9484 18.3544 17.6517 17.6512C18.3549 16.9479 18.75 15.9941 18.75 14.9995C18.75 14.0049 18.3549 13.0511 17.6517 12.3479C16.9484 11.6446 15.9946 11.2495 15 11.2495Z" fill="#FCF7FF"/>
</svg>
