<svg width="366" height="483" viewBox="0 0 366 483" fill="none" xmlns="http://www.w3.org/2000/svg">
<g id="Buttons">
<g id="Line Top" filter="url(#filter0_d_55_946)">
<path d="M103.695 216.018L196.773 129.086" stroke="#FCF7FF" stroke-width="7.35376"/>
</g>
<g id="Line Bottom" filter="url(#filter1_d_55_946)">
<line x1="197.935" y1="419.97" x2="106.23" y2="312.029" stroke="#FCF7FF" stroke-width="7.35376"/>
</g>
<g id="Deerhack" filter="url(#filter2_d_55_946)">
<g id="Layer 1">
<g id="Group">
<path id="Vector" d="M342.164 89.2589C344.731 130.565 318.833 167.06 281.367 179.606C279.129 180.355 276.849 181.019 274.53 181.594C269.348 182.88 263.976 183.717 258.455 184.06C252.935 184.403 247.381 184.234 242.024 183.582C241.397 183.507 240.773 183.424 240.15 183.333C237.846 183.005 235.569 182.587 233.324 182.083C232.705 181.944 232.089 181.799 231.475 181.647C222.523 179.442 214.071 175.88 206.371 171.176C204.78 170.205 203.222 169.187 201.698 168.119C180.144 153.044 165.413 128.645 163.655 100.351C160.592 51.056 198.069 8.61287 247.364 5.54995C296.658 2.48703 339.102 39.9643 342.164 89.2589Z" fill="url(#paint0_linear_55_946)"/>
<g id="Group_2">
<path id="Vector_2" d="M279.177 60.6408C278.989 60.9075 278.878 61.2328 278.875 61.5812L268.317 61.3314L270.569 58.0856L273.288 55.968L273.815 55.5572L279.177 60.6408Z" fill="#110C24"/>
<path id="Vector_3" d="M269.443 55.4645L269.442 55.4347L265.87 52.3326C265.846 53.6936 266.025 55.1633 266.721 56.1683C266.721 56.1683 267.958 56.1846 269.444 55.4662L269.443 55.4645Z" fill="#110C24"/>
<path id="Vector_4" d="M292.472 52.0232C292.193 53.3614 291.878 54.5136 291.538 55.5055L282.067 61.0183C282.046 60.9616 282.023 60.9085 281.995 60.8557L285.062 53.9996C285.613 53.5433 286.227 53.1886 286.866 52.915L286.868 52.9149C289.497 51.786 292.472 52.0232 292.472 52.0232Z" fill="#110C24"/>
<path id="Vector_5" d="M228.258 166.97C228.391 167.268 228.518 167.562 228.638 167.852L235.63 170.105C235.126 168.613 234.636 167.156 234.182 165.789L228.258 166.97Z" fill="#110C24"/>
<path id="Vector_6" d="M268.894 75.5413L264.751 80.0513L263.026 79.608L264.219 73.6193L268.076 74.2942C268.175 74.8139 268.477 75.2559 268.894 75.5413Z" fill="#110C24"/>
<path id="Vector_7" d="M284.147 99.887C284.158 100.071 284.199 100.248 284.262 100.411L265.744 110.422C265.573 110.25 265.37 110.115 265.141 110.027L270.966 89.5997C271.212 89.3733 271.448 89.1441 271.675 88.9137L284.28 99.1102C284.178 99.3486 284.13 99.6119 284.147 99.887Z" fill="#110C24"/>
<path id="Vector_8" d="M269.996 90.4402L264.441 109.91L264.408 109.912C263.914 109.942 263.48 110.179 263.186 110.535L252.697 104.589C252.702 104.51 252.703 104.429 252.697 104.347C252.661 103.763 252.368 103.257 251.936 102.931L256.859 95.7183C257.324 95.649 257.793 95.5759 258.266 95.4955C258.309 95.4875 258.355 95.4812 258.398 95.4732C263.513 94.6014 267.262 92.6695 269.996 90.4402Z" fill="#110C24"/>
<path id="Vector_9" d="M253.575 130.786C253.443 130.78 253.314 130.774 253.182 130.768L253.18 130.768C252.704 130.747 252.223 130.726 251.738 130.705L246.084 123.1C246.131 122.9 246.15 122.688 246.137 122.472C246.087 121.675 245.608 121.007 244.938 120.679L250.309 106.323C250.454 106.36 250.605 106.38 250.758 106.383L253.575 130.786Z" fill="#110C24"/>
<path id="Vector_10" d="M250.835 130.668C247.089 130.51 243.121 130.378 239.412 130.445L239.41 130.445C238.985 130.452 238.566 130.463 238.148 130.476L242.635 124.26C243.039 124.594 243.566 124.781 244.13 124.746C244.808 124.704 245.393 124.351 245.755 123.832L250.835 130.668Z" fill="#110C24"/>
<path id="Vector_11" d="M285.116 101.331L280.264 118.793C279.977 118.626 279.641 118.538 279.286 118.56C278.742 118.593 278.274 118.874 277.984 119.286L266.129 112.246C266.215 112.022 266.254 111.779 266.238 111.525C266.227 111.344 266.188 111.173 266.128 111.013L284.651 101C284.786 101.136 284.942 101.247 285.116 101.331Z" fill="#110C24"/>
<path id="Vector_12" d="M285.665 61.6075C285.665 61.6075 287.425 64.5126 289.679 68.5776L271.95 73.6293C271.932 73.5038 271.901 73.3826 271.859 73.2656L280.492 63.2392C280.536 63.24 280.58 63.239 280.625 63.2362C281.437 63.1858 282.073 62.5588 282.16 61.7796L291.156 56.5425C291.061 56.777 290.966 57.0009 290.87 57.2127C288.566 62.2996 285.665 61.6075 285.665 61.6075Z" fill="#110C24"/>
<path id="Vector_13" d="M279.735 63.0397L271.484 72.6238C271.183 72.2785 270.762 72.0408 270.294 71.9732L268.098 62.0269L279.031 62.285C279.179 62.6082 279.427 62.8706 279.735 63.0397Z" fill="#110C24"/>
<path id="Vector_14" d="M296.376 81.862L294.423 85.0963C294.182 84.9917 293.915 84.9414 293.635 84.9588C293.123 84.9906 292.677 85.2417 292.383 85.617L278.17 80.218L290.604 70.2614C292.542 73.8255 294.7 78.0126 296.376 81.862Z" fill="#110C24"/>
<path id="Vector_15" d="M277.045 79.534C277.049 79.5179 277.05 79.509 277.05 79.509L274.357 76.676L270.301 81.4761L266.473 80.4916L265.522 80.2465L269.574 75.8353C269.751 75.8753 269.936 75.8902 270.127 75.8783C271.028 75.8224 271.75 75.1672 271.928 74.3243L289.832 69.4781L277.045 79.534Z" fill="#110C24"/>
<path id="Vector_16" d="M292.655 88.0215L286.517 98.1849C286.284 98.0903 286.028 98.0447 285.762 98.0612C285.341 98.0873 284.964 98.2638 284.68 98.5347L272.162 88.4067C272.355 88.1995 272.54 87.991 272.717 87.7813C272.78 87.7088 272.84 87.6365 272.901 87.5641C275.192 84.8101 276.285 82.0812 276.748 80.6156L292.067 86.2642C292.025 86.4339 292.008 86.609 292.019 86.7895C292.05 87.2905 292.292 87.7293 292.655 88.0215Z" fill="#110C24"/>
<path id="Vector_17" d="M269.581 71.9959C268.8 72.1676 268.203 72.7991 268.068 73.5778L264.355 72.9274L264.368 72.8703L266.039 64.4724L266.266 63.3345L267.442 62.3152L269.581 71.9959Z" fill="#110C24"/>
<path id="Vector_18" d="M235.347 134.356L235.329 134.343L234.82 134.394L234.815 134.399L234.811 134.394L230.041 134.868L235.534 140.781C238.663 137.006 240.996 133.782 240.996 133.782L235.36 134.341L235.349 134.357L235.347 134.356Z" fill="#110C24"/>
<path id="Vector_19" d="M212.162 151.14L212.172 151.16L213.48 151.974C213.639 151.802 213.795 151.636 213.944 151.477C214.498 150.889 214.991 150.385 215.433 149.95L210.388 134.408C210.121 134.926 209.819 135.388 209.476 135.789C205.693 140.236 202.143 143.616 202.143 143.616C202.143 143.616 202.127 143.786 202.1 144.102C202.082 144.297 202.061 144.549 202.037 144.848L212.149 151.146L212.162 151.14Z" fill="#110C24"/>
<path id="Vector_20" d="M221.018 119.783C220.522 120.182 220.222 120.809 220.264 121.492L212.447 121.978C212.583 117.738 212.533 113.094 212.759 108.662C212.801 107.83 212.851 107.053 212.911 106.326L221.018 119.783Z" fill="#110C24"/>
<path id="Vector_21" d="M211.395 151.502L201.973 145.635C201.789 147.959 201.504 152.008 201.373 156.263L211.395 151.504L211.395 151.502Z" fill="#110C24"/>
<path id="Vector_22" d="M235.909 170.933L228.976 168.7C229.395 169.808 229.698 170.842 229.829 171.766C229.969 172.743 230.139 173.828 230.324 174.967L237.84 176.606C237.204 174.748 236.548 172.823 235.91 170.933L235.909 170.933Z" fill="#110C24"/>
<path id="Vector_23" d="M201.073 114.878C204.412 116.511 209.097 116.251 209.097 116.251L209.182 113.75L204.312 110.571L201.073 114.878Z" fill="#110C24"/>
<path id="Vector_24" d="M216.595 136.676L216.883 148.591C216.615 148.829 216.32 149.097 215.996 149.404L210.82 133.456C211.09 132.772 211.318 132.018 211.508 131.202C211.544 131.042 211.579 130.878 211.613 130.714L215.475 134.392C215.386 134.619 215.343 134.868 215.359 135.129C215.405 135.874 215.918 136.479 216.595 136.676Z" fill="#110C24"/>
<path id="Vector_25" d="M290.044 114.131C285.483 119.805 280.205 128.279 279.232 133.784C278.982 135.189 278.901 137.648 278.931 140.738L272.231 146.889C272.105 144.781 272.012 143.12 271.971 142.141C271.893 140.296 271.723 138.518 271.407 136.94C271.305 136.442 271.19 135.967 271.058 135.515L279.781 121.962C280.587 121.774 281.165 121.028 281.112 120.173C281.093 119.866 280.995 119.582 280.837 119.342L285.796 101.503C285.855 101.505 285.914 101.505 285.976 101.501L285.997 101.5L290.044 114.131Z" fill="#110C24"/>
<path id="Vector_26" d="M263.378 112.928L255.722 130.879C255.722 130.879 255.708 130.879 255.703 130.88C255.238 130.861 254.763 130.841 254.285 130.82L251.451 106.267C251.922 106.093 252.302 105.741 252.515 105.295L262.86 111.16C262.806 111.344 262.783 111.539 262.796 111.742C262.825 112.219 263.045 112.638 263.378 112.93L263.378 112.928Z" fill="#110C24"/>
<path id="Vector_27" d="M221.55 123.259L217.35 133.318C217.227 133.299 217.102 133.293 216.974 133.3C216.541 133.327 216.155 133.511 215.869 133.797L211.771 129.894C211.834 129.527 211.894 129.153 211.947 128.768C212.205 126.917 212.343 124.858 212.424 122.683L220.432 122.185C220.649 122.676 221.055 123.063 221.55 123.259Z" fill="#110C24"/>
<path id="Vector_28" d="M222.449 155.826L230.662 155.419C229.66 153.024 228.837 151.389 229.1 149.609L223.925 141.938C222.071 144.526 220.42 147.253 220.18 149.02C219.976 150.52 220.998 152.984 222.449 155.826Z" fill="#110C24"/>
<path id="Vector_29" d="M231.637 145.244C232.165 144.673 232.686 144.092 233.2 143.51L224.488 141.165C224.386 141.303 224.285 141.442 224.185 141.58L229.274 148.845C229.608 147.792 230.34 146.647 231.639 145.244L231.637 145.244Z" fill="#110C24"/>
<path id="Vector_30" d="M231.734 131.326C228.63 132.305 227.015 134.087 225.693 136.311C225.625 136.425 225.56 136.539 225.493 136.654L225.547 136.326L218.792 135.229C218.805 135.128 218.807 135.023 218.801 134.917C218.765 134.346 218.455 133.856 218.006 133.57L222.253 123.4C222.308 123.402 222.362 123.4 222.418 123.396C222.797 123.373 223.144 123.248 223.436 123.048L231.734 131.326Z" fill="#110C24"/>
<path id="Vector_31" d="M231.999 159.059C231.66 157.951 231.297 156.98 230.945 156.106L222.803 156.509C222.871 156.642 222.941 156.773 223.011 156.905L232.578 160.899C232.356 160.205 232.161 159.585 231.999 159.057L231.999 159.059Z" fill="#110C24"/>
<path id="Vector_32" d="M233.959 165.12C233.559 163.914 233.188 162.786 232.864 161.783L223.534 157.888C225.014 160.642 226.696 163.601 227.962 166.315L233.961 165.12L233.959 165.12Z" fill="#110C24"/>
<path id="Vector_33" d="M233.643 143.006C234.134 142.443 234.614 141.88 235.079 141.325L229.344 135.15C228.712 135.871 226.702 138.196 224.721 140.85L233.643 143.008L233.643 143.006Z" fill="#110C24"/>
<path id="Vector_34" d="M234.378 111.373L223.911 120.133C223.648 119.789 223.279 119.534 222.856 119.413L222.056 95.7777C222.478 95.7216 222.918 95.6696 223.379 95.6181C223.405 95.6147 223.43 95.6132 223.456 95.6098L223.489 95.6077L233.902 109.19C233.758 109.463 233.682 109.779 233.703 110.112C233.735 110.631 233.994 111.081 234.378 111.373Z" fill="#110C24"/>
<path id="Vector_35" d="M249.671 106.025L244.266 120.478L244.264 120.478C244.133 120.46 244.001 120.456 243.864 120.464C242.681 120.538 241.783 121.556 241.856 122.738C241.878 123.098 241.987 123.43 242.163 123.716L237.258 130.511C237.044 130.519 236.827 130.527 236.616 130.537C235.512 130.591 234.523 130.702 233.633 130.865C233.24 130.936 232.867 131.018 232.51 131.107L223.941 122.559C224.209 122.189 224.354 121.729 224.324 121.241C224.314 121.078 224.285 120.923 224.238 120.773L235.088 111.696C235.231 111.724 235.379 111.734 235.53 111.724C236.257 111.679 236.851 111.19 237.064 110.537L248.994 105.147C249.129 105.505 249.367 105.808 249.671 106.025Z" fill="#110C24"/>
<path id="Vector_36" d="M291.207 131.855L292.566 125.766L285.66 124.559L282.152 129.751C282.152 129.751 287.19 131.235 291.209 131.855L291.207 131.855Z" fill="#110C24"/>
<path id="Vector_37" d="M235.879 96.0772L235.348 108.28L235.314 108.283C234.955 108.305 234.629 108.436 234.364 108.642L224.318 95.5362C224.76 95.5053 225.207 95.4845 225.665 95.4737C228.684 95.4092 232.051 95.761 235.879 96.0772Z" fill="#110C24"/>
<path id="Vector_38" d="M209.211 112.93L209.462 105.593C208.763 107.824 206.878 109.21 204.83 110.072L209.209 112.932L209.211 112.93Z" fill="#110C24"/>
<path id="Vector_39" d="M255.921 95.8514L251.302 102.619C251.102 102.561 250.888 102.538 250.667 102.551C249.661 102.614 248.884 103.441 248.87 104.434L237.128 109.738C237.032 109.118 236.608 108.613 236.048 108.397L236.58 96.1334C237.038 96.17 237.499 96.2064 237.971 96.2404C243.082 96.6158 248.988 96.7957 255.921 95.8514Z" fill="#110C24"/>
<path id="Vector_40" d="M221.358 95.8734L222.151 119.336C221.97 119.349 221.797 119.385 221.633 119.442L213.025 105.153C213.1 104.471 213.186 103.838 213.29 103.255C214.204 98.0414 216.311 96.6266 221.358 95.8734Z" fill="#110C24"/>
<path id="Vector_41" d="M269.421 54.4873L269.313 49.756C268.492 49.2846 267.497 48.9209 266.316 48.8201C266.316 48.8201 266.027 49.9777 265.913 51.4411L269.421 54.4873Z" fill="#110C24"/>
<path id="Vector_42" d="M276.498 52.4252L277.551 53.3552L283.873 46.1948L282.578 25.3501C283.431 25.0034 284.009 24.1427 283.948 23.1721C283.873 21.9562 282.827 21.0328 281.611 21.1084C280.395 21.1839 279.472 22.2297 279.547 23.4455C279.608 24.4161 280.288 25.1987 281.177 25.4372L282.436 45.7002L280.484 47.9109L279.555 32.9562C280.407 32.6096 280.985 31.7488 280.925 30.7782C280.849 29.5624 279.803 28.639 278.587 28.7145C277.372 28.7901 276.448 29.8358 276.524 31.0517C276.584 32.0223 277.264 32.8048 278.153 33.0433L279.169 49.3995L276.498 52.4252Z" fill="#110C24"/>
<path id="Vector_43" d="M282.981 56.938L281.494 60.2612C281.195 60.0423 280.82 59.9231 280.421 59.948C280.158 59.9643 279.913 60.0411 279.699 60.1652L274.622 55.354L275.856 55.2368L281.222 54.7311L282.981 56.938Z" fill="#110C24"/>
<path id="Vector_44" d="M270.137 55.0796C270.904 54.5993 271.695 53.9065 272.387 52.9067C272.387 52.9067 271.645 51.4087 270.027 50.2201L270.137 55.0796Z" fill="#110C24"/>
<path id="Vector_45" d="M225.302 136.995C224.366 138.69 223.524 140.603 222.304 142.592C220.693 145.22 219.927 146.057 218.948 146.879C218.548 147.214 218.112 147.549 217.57 148.001L217.297 136.732C217.84 136.663 218.299 136.345 218.563 135.901L225.302 136.995Z" fill="#110C24"/>
<path id="Vector_46" d="M265.711 130.852C265.641 130.86 265.57 130.866 265.498 130.876C263.816 131.11 261.074 131.08 257.776 130.96C257.351 130.946 256.915 130.927 256.473 130.911L263.993 113.276L264.107 113.009L264.135 113.315L265.711 130.852Z" fill="#110C24"/>
<path id="Vector_47" d="M274.112 175.476C274.284 177.982 274.428 180.106 274.531 181.593C276.85 181.018 279.13 180.354 281.368 179.605C281.313 178.964 281.248 178.235 281.179 177.428L274.112 175.476Z" fill="#110C24"/>
<path id="Vector_48" d="M295.712 143.935L291.476 150.194L290.203 152.074C292.079 150.367 294.047 148.221 295.814 145.58L295.712 143.935Z" fill="#110C24"/>
<path id="Vector_49" d="M240.148 183.334C237.845 183.005 235.568 182.588 233.322 182.083C232.704 181.944 232.088 181.8 231.473 181.648C231.127 179.724 230.766 177.659 230.445 175.713L238.104 177.384C238.842 179.54 239.545 181.582 240.148 183.334Z" fill="#110C24"/>
<path id="Vector_50" d="M200.45 114.541L203.427 110.58C200.634 111.444 197.97 111.483 197.97 111.483C198.349 112.858 199.279 113.84 200.45 114.541Z" fill="#110C24"/>
<path id="Vector_51" d="M287.25 20.6439L288.681 43.6698L281.206 52.1346L282.259 53.0646L295.8 37.7297L294.912 23.439C295.765 23.0923 296.343 22.2316 296.282 21.261C296.207 20.0451 295.161 19.1217 293.945 19.1973C292.729 19.2728 291.806 20.3186 291.881 21.5345C291.942 22.505 292.622 23.2876 293.511 23.5261L294.362 37.2369L289.995 42.1811L288.651 20.5568C289.504 20.2101 290.082 19.3494 290.021 18.3788C289.946 17.1629 288.9 16.2395 287.684 16.3151C286.468 16.3906 285.545 17.4364 285.621 18.6523C285.681 19.6228 286.361 20.4054 287.25 20.6439Z" fill="#110C24"/>
<path id="Vector_52" d="M206.651 164.198L201.309 159.48C201.282 162.67 201.374 165.762 201.698 168.118C203.222 169.186 204.78 170.204 206.371 171.174C206.184 169.271 206.156 166.835 206.649 164.198L206.651 164.198Z" fill="#110C24"/>
<path id="Vector_53" d="M212.103 151.945L201.351 157.052C201.348 157.165 201.346 157.277 201.342 157.39C201.333 157.779 201.326 158.169 201.32 158.558L206.815 163.41C206.888 163.087 206.966 162.762 207.055 162.435C207.789 159.749 209.114 156.939 211.382 154.324C211.967 153.651 212.502 153.047 212.998 152.503L212.103 151.947L212.103 151.945Z" fill="#110C24"/>
<path id="Vector_54" d="M286.088 123.919L292.717 125.078L293.1 123.353L288.949 119.686L286.088 123.919Z" fill="#110C24"/>
<path id="Vector_55" d="M293.761 136.251C293.453 137.373 293.025 138.65 292.437 139.989L300.121 132.635L293.761 136.251Z" fill="#110C24"/>
<path id="Vector_56" d="M281.922 151.242L282.31 157.485C282.31 157.485 284.526 156.525 287.458 154.339L281.922 151.243L281.922 151.242Z" fill="#110C24"/>
<path id="Vector_57" d="M293.408 125.199L295.628 125.587L293.701 123.885L293.408 125.199Z" fill="#110C24"/>
<path id="Vector_58" d="M278.956 121.95L270.779 134.654C270.144 132.928 269.212 131.649 267.85 131.106C267.416 130.933 266.938 130.836 266.415 130.821L264.839 113.326C265.195 113.26 265.51 113.084 265.751 112.839L277.703 119.935C277.673 120.079 277.662 120.231 277.671 120.387C277.719 121.149 278.255 121.765 278.956 121.95Z" fill="#110C24"/>
<path id="Vector_59" d="M272.882 157.142C272.901 157.438 272.921 157.736 272.942 158.035L278.198 161.537L279.772 159.083C279.729 158.437 279.687 157.79 279.647 157.142L272.642 153.414C272.72 154.616 272.801 155.863 272.884 157.138L272.882 157.142Z" fill="#110C24"/>
<path id="Vector_60" d="M295.462 86.7879C295.466 86.7173 295.467 86.6469 295.462 86.575C295.436 86.1581 295.264 85.7854 295 85.5028L296.717 82.6578C296.835 82.9371 296.951 83.2131 297.063 83.4876C297.121 83.6299 297.177 83.7724 297.232 83.9167C297.68 85.0655 298.048 86.2614 298.341 87.4813C298.377 87.6268 298.411 87.7742 298.444 87.9198L295.462 86.7879Z" fill="#110C24"/>
<path id="Vector_61" d="M279.552 155.657C279.271 151.037 279.049 146.505 278.963 142.69C278.956 142.346 278.949 142.014 278.943 141.684L272.286 147.795C272.305 148.111 272.325 148.433 272.346 148.762C272.408 149.756 272.473 150.816 272.544 151.928C272.558 152.149 272.572 152.371 272.586 152.594L279.592 156.321C279.578 156.099 279.564 155.878 279.551 155.656L279.552 155.657Z" fill="#110C24"/>
<path id="Vector_62" d="M280.023 162.755C280.006 162.517 279.988 162.281 279.971 162.043L279.96 161.86C279.924 161.33 279.887 160.797 279.85 160.262L278.781 161.929L280.023 162.755Z" fill="#110C24"/>
<path id="Vector_63" d="M296.636 126.477L293.256 125.887L291.903 131.954C292.672 132.056 293.388 132.117 294.002 132.121L298.197 127.854L296.638 126.477L296.636 126.477Z" fill="#110C24"/>
<path id="Vector_64" d="M272.999 158.918C273.212 162.143 273.435 165.481 273.648 168.627L277.817 162.129L272.999 158.918Z" fill="#110C24"/>
<path id="Vector_65" d="M298.722 128.318L294.488 132.627C294.423 133.171 294.284 134.113 294.001 135.305L301.275 131.171C301.301 130.995 301.327 130.819 301.35 130.642L298.72 128.32L298.722 128.318Z" fill="#110C24"/>
<path id="Vector_66" d="M297.553 105.244C295.913 108.631 292.899 110.669 290.574 113.483L286.675 101.309C287.258 101.002 287.635 100.373 287.592 99.6741C287.565 99.2449 287.383 98.8605 287.103 98.5771L293.284 88.3425C293.463 88.3929 293.655 88.4145 293.851 88.4023C294.48 88.3632 295.011 87.9908 295.279 87.4676L298.62 88.7373C298.879 88.8355 299.004 91.0649 299.041 91.3844C299.575 95.8711 299.559 101.099 297.553 105.244Z" fill="#110C24"/>
<path id="Vector_67" d="M301.016 132.75L296.043 137.939L296.455 144.581C298.458 141.349 300.134 137.434 301.016 132.75Z" fill="#110C24"/>
<path id="Vector_68" d="M295.64 142.786L295.353 138.168L291.544 141.813C290.226 144.248 288.338 146.742 285.633 148.774L291.03 149.594L295.639 142.785L295.64 142.786Z" fill="#110C24"/>
<path id="Vector_69" d="M281.092 176.451C280.805 173.034 280.437 168.5 280.086 163.643L278.401 162.52L273.727 169.803C273.768 170.407 273.809 171.003 273.849 171.586C273.917 172.595 273.983 173.572 274.046 174.502C274.05 174.581 274.055 174.658 274.06 174.735L281.112 176.685C281.106 176.606 281.099 176.531 281.092 176.451Z" fill="#110C24"/>
<path id="Vector_70" d="M284.813 149.363C284.082 149.856 283.298 150.318 282.454 150.737L288.064 153.876C288.114 153.837 288.165 153.796 288.217 153.755L290.596 150.241L284.813 149.363Z" fill="#110C24"/>
</g>
<path id="Vector_71" d="M264.107 113.011L263.993 113.278C264.04 113.293 264.086 113.306 264.135 113.317L264.107 113.011Z" fill="#FCF7FF"/>
</g>
</g>
</g>
<g id="Deerwalk" filter="url(#filter3_d_55_946)">
<circle id="Ellipse 314" cx="199.61" cy="421.547" r="50.5017" transform="rotate(-3.55551 199.61 421.547)" fill="#241A4A"/>
<path id="Vector_72" d="M176.074 446.009V409.453H186.518V399.009H212.63V419.898H223.074V446.009H202.185V435.565H196.963V446.009H176.074ZM181.296 440.787H186.518V435.565H181.296V440.787ZM181.296 430.342H186.518V425.12H181.296V430.342ZM181.296 419.898H186.518V414.676H181.296V419.898ZM191.741 430.342H196.963V425.12H191.741V430.342ZM191.741 419.898H196.963V414.676H191.741V419.898ZM191.741 409.453H196.963V404.231H191.741V409.453ZM202.185 430.342H207.407V425.12H202.185V430.342ZM202.185 419.898H207.407V414.676H202.185V419.898ZM202.185 409.453H207.407V404.231H202.185V409.453ZM212.63 440.787H217.852V435.565H212.63V440.787ZM212.63 430.342H217.852V425.12H212.63V430.342Z" fill="url(#paint1_linear_55_946)"/>
</g>
<g id="Software Club" filter="url(#filter4_d_55_946)">
<circle id="Ellipse 313" cx="78.7876" cy="259.005" r="63.871" transform="rotate(-3.55551 78.7876 259.005)" fill="#241A4A"/>
<g id="Deer">
<g id="Vector_73">
<path d="M54.4615 250.861L67.751 258.406L71.6478 258.164L62.5208 252.983L61.9268 243.476C63.4712 242.959 64.5388 241.461 64.4328 239.765C64.3062 237.739 62.5534 236.199 60.518 236.325C58.4826 236.451 56.9352 238.196 57.0618 240.222C57.1677 241.918 58.4136 243.273 60.0105 243.595L60.5264 251.851L56.2986 249.45L55.4179 235.357C56.9623 234.84 58.0299 233.342 57.9239 231.645C57.7973 229.619 56.0446 228.079 54.0092 228.205C51.9738 228.332 50.4263 230.076 50.5529 232.102L50.5513 232.102C50.6573 233.799 51.9032 235.153 53.5001 235.476L54.4615 250.861ZM58.7849 240.114C58.7175 239.035 59.5415 238.106 60.6252 238.039C61.7088 237.972 62.6421 238.792 62.7095 239.871C62.7769 240.949 61.9529 241.878 60.8693 241.946C59.7856 242.013 58.8523 241.193 58.7849 240.114ZM52.2753 231.995C52.2079 230.917 53.0319 229.988 54.1156 229.921C55.1992 229.853 56.1325 230.674 56.1999 231.752C56.2673 232.831 55.4433 233.76 54.3597 233.827C53.276 233.894 52.3427 233.074 52.2753 231.995Z" fill="url(#paint2_linear_55_946)"/>
<path d="M74.9965 255.327L73.7501 235.376C75.2942 234.859 76.3616 233.361 76.2556 231.664C76.1291 229.638 74.3767 228.098 72.3417 228.224C70.3067 228.351 68.7595 230.095 68.8861 232.121C68.9921 233.817 70.2377 235.172 71.8343 235.495L73.0025 254.195L67.7951 251.238L66.003 222.552C67.5471 222.034 68.6145 220.536 68.5085 218.84C68.382 216.814 66.6296 215.274 64.5946 215.4C62.5596 215.526 61.0124 217.271 61.139 219.297C61.245 220.993 62.4906 222.348 64.0871 222.67L65.96 252.649L75.2728 257.938L79.1689 257.696L74.9965 255.327ZM70.6304 232.013C70.563 230.934 71.3869 230.005 72.4703 229.938C73.5537 229.871 74.4869 230.691 74.5542 231.77C74.6216 232.848 73.7978 233.778 72.7143 233.845C71.6309 233.912 70.6978 233.092 70.6304 232.013ZM62.888 219.188C62.8207 218.11 63.6445 217.181 64.7279 217.114C65.8114 217.046 66.7445 217.866 66.8119 218.945C66.8793 220.024 66.0554 220.953 64.972 221.02C63.8886 221.087 62.9554 220.267 62.888 219.188Z" fill="url(#paint3_linear_55_946)"/>
<path d="M90.0211 215.77C87.9861 215.896 86.4389 217.641 86.5654 219.667C86.6714 221.363 87.9171 222.718 89.5137 223.04L91.1766 249.658L86.4229 253.201L85.6084 240.162C87.1525 239.645 88.2199 238.147 88.114 236.451C87.9874 234.425 86.235 232.885 84.1999 233.011C82.1649 233.137 80.6177 234.882 80.7443 236.908C80.8502 238.604 82.0959 239.959 83.6925 240.281L84.5852 254.571L80.499 257.616L84.3951 257.374L93.1732 250.832L91.4296 222.922C92.9737 222.404 94.0411 220.906 93.9352 219.21C93.8086 217.184 92.0562 215.644 90.0211 215.77ZM82.4671 236.8C82.3997 235.721 83.2236 234.792 84.307 234.725C85.3905 234.658 86.3237 235.478 86.391 236.557C86.4584 237.635 85.6346 238.564 84.5511 238.632C83.4676 238.699 82.5345 237.879 82.4671 236.8ZM92.2115 219.317C92.2789 220.395 91.455 221.324 90.3715 221.392C89.2881 221.459 88.3549 220.639 88.2875 219.56C88.2201 218.481 89.044 217.552 90.1275 217.485C91.2109 217.418 92.1441 218.238 92.2115 219.317Z" fill="url(#paint4_linear_55_946)"/>
<path d="M101.222 222.259C99.1862 222.386 97.6389 224.13 97.7655 226.156C97.8714 227.853 99.1173 229.207 100.714 229.53L101.837 247.496L98.4746 250.001L98.2302 246.089C99.7745 245.572 100.842 244.074 100.736 242.378C100.61 240.352 98.8569 238.812 96.8216 238.938C94.7862 239.064 93.2389 240.809 93.3655 242.834C93.4714 244.531 94.7173 245.886 96.3141 246.208L96.6367 251.371L88.9632 257.09L92.8598 256.849L103.834 248.671L102.63 229.411C104.175 228.894 105.242 227.396 105.136 225.699C105.009 223.673 103.257 222.133 101.222 222.259ZM97.1466 244.561C96.0773 244.627 95.1559 243.806 95.0886 242.728C95.0212 241.649 95.8332 240.721 96.9025 240.654C97.9718 240.588 98.8932 241.409 98.9606 242.488C99.028 243.566 98.2159 244.495 97.1466 244.561ZM103.412 225.807C103.48 226.886 102.656 227.815 101.572 227.882C100.488 227.949 99.5552 227.129 99.4878 226.05C99.4204 224.972 100.244 224.043 101.328 223.976C102.412 223.908 103.345 224.728 103.412 225.807Z" fill="url(#paint5_linear_55_946)"/>
<path d="M72.8717 276.523L69.4875 276.878L69.6893 280.107L76.0686 285.154L75.6699 281.059L72.8717 276.523Z" fill="url(#paint6_linear_55_946)"/>
<path d="M103.01 256.525C101.554 256.823 99.136 257.686 91.7665 261.508C90.5426 260.764 85.474 257.956 80.3141 258.242C72.7049 258.714 67.7893 265.055 67.7893 265.055C67.3202 264.619 66.587 263.992 65.6024 263.375C63.5616 262.094 61.9016 261.763 59.5808 261.068C58.1866 260.65 56.2034 259.996 53.8277 258.997C54.8731 260.856 55.7786 262.339 56.4236 263.367C58.3292 266.402 58.7998 266.797 59.3336 268.23C59.4591 268.565 59.6929 269.243 60.2347 270.025C60.8134 270.86 61.4663 271.416 61.9212 271.751L66.5003 271.616C65.9275 271.169 63.3976 269.183 61.3882 267.281C60.9083 266.827 60.2608 266.191 59.6658 265.198C59.2731 264.543 59.0352 263.953 58.8932 263.544C60.4655 263.749 61.7164 264.134 62.5881 264.463C63.9801 264.988 64.7979 265.296 65.5499 266.109C65.8074 266.387 66.1992 267.054 66.9727 268.376C67.1763 268.724 67.9006 269.963 68.1204 270.339C70.7803 273.332 73.6914 274.026 74.2103 274.301C74.7292 274.576 76.3148 274.929 76.5737 278.14C76.8326 281.351 79.3857 283.758 79.3857 283.758C79.3857 283.758 79.6812 284.185 79.5996 284.398C79.4769 284.719 78.5561 284.409 77.6827 284.92C77.4372 285.064 77.312 285.205 77.2781 285.376C77.231 285.62 77.3872 285.833 77.4443 285.905C78.3287 286.936 79.6092 287.346 79.9496 288.007C79.6753 287.919 78.6464 287.615 78.2753 288.046C77.812 288.585 78.6364 289.969 79.0778 290.561C79.3747 290.959 79.677 291.24 79.8824 291.411L82.3775 291.257L80.6165 263.081C80.6165 263.081 84.85 272.986 84.89 274.087C84.9292 275.187 84.3484 280.251 83.3315 281.582C83.1139 281.942 82.8846 282.434 82.7711 283.043C82.7341 283.243 82.7205 283.394 82.7123 283.494C82.5885 284.984 82.6229 286.007 82.6229 286.007C82.6582 287.044 82.6651 288.775 82.6635 291.086L84.5801 290.967C84.6554 290.129 84.8351 289.099 85.2388 287.977C86.1196 285.529 87.6072 283.918 88.5404 283.061C89.7915 281.855 91.0435 280.649 92.2947 279.442L92.1398 274.591L88.1689 274.987C88.1689 274.987 85.9346 282.9 84.8515 283.438C83.7683 283.976 86.2157 276.435 86.2789 275.544C87.6124 274.863 89.9891 273.415 91.8953 270.679C93.0168 269.069 93.6249 267.517 93.9676 266.362C94.188 265.946 94.7201 265.078 95.7689 264.412C96.7256 263.803 97.6451 263.659 98.1124 263.618C98.0117 264.444 97.8004 265.071 97.6315 265.483C97.0187 266.974 96.0195 267.924 94.1849 269.635C93.6136 270.168 93.1262 270.591 92.7952 270.871C94.6076 270.669 95.9591 270.556 96.8786 270.489C97.3162 270.457 98.9792 270.341 98.9792 270.341C100.084 268.213 100.995 266.365 101.702 264.894C102.983 262.228 103.447 261.111 103.832 259.692C104.211 258.298 104.379 257.112 104.463 256.303C103.986 256.362 103.5 256.427 103.01 256.527L103.01 256.525ZM88.7024 276.426L91.044 275.985L91.2183 278.774L86.7375 282.882L88.7024 276.426ZM89.9031 269.996C88.7948 272.02 86.8932 272.813 86.2694 273.043L82.0999 260.779C87.1186 262.316 88.5385 263.452 88.5385 263.452C89.348 264.101 90.1788 264.784 90.5494 265.978C91.1108 267.788 90.2045 269.445 89.9031 269.996ZM102.091 260.711C101.784 261.524 101.329 262.72 100.654 264.152C100.11 265.305 99.3374 266.793 98.2696 268.469L97.0888 268.542C97.7919 267.757 98.2906 267.032 98.6282 266.485C99.1439 265.65 99.8257 264.522 100.152 262.921C100.29 262.244 100.327 261.669 100.334 261.274C98.7745 261.244 97.6049 261.638 96.9621 261.908C95.3369 262.592 94.3713 263.632 93.7355 264.333C92.8055 265.357 92.2361 266.368 91.894 267.097L91.3334 264.036C92.3368 263.538 93.8523 262.756 95.668 261.7C96.8918 260.987 97.367 260.665 98.3598 260.11C99.4427 259.504 101.031 258.684 103.082 257.861C102.843 258.615 102.516 259.588 102.091 260.711Z" fill="url(#paint7_linear_55_946)"/>
<path d="M93.0085 280.133C93.0085 280.133 92.3209 280.864 91.326 281.915C90.15 283.157 86.458 287.069 86.2065 287.591C85.8682 288.293 85.841 288.754 85.5119 289.849C85.2152 290.838 84.8883 291.622 84.6526 292.141L82.449 292.422L80.5345 292.541C80.5345 292.541 80.4743 292.766 80.3219 292.997C80.3219 292.997 80.0465 293.365 79.557 293.487C78.8634 293.66 77.8249 292.153 76.9254 290.904C74.0591 286.924 73.0677 286.198 72.6371 285.907C72.1423 285.571 71.8104 285.417 71.1255 284.886C69.9981 284.013 69.2172 283.131 68.7343 282.525L64.9352 289.24C64.9352 289.24 66.977 296.814 68.1461 298.023C68.7225 298.619 69.3377 299.21 69.3377 299.21C71.2465 300.894 72.9333 301.462 74.7495 302.315C75.9593 302.883 77.6315 303.767 79.5421 305.123L85.4382 304.758L95.0916 298.12L98.3167 288.12L93.0086 280.135L93.0085 280.133ZM92.841 282.209L96.0268 287.016L88.4887 287.188L92.841 282.209ZM82.0314 297.605L82.4033 294.047L84.1442 293.497L84.1716 293.937L83.3602 297.522L82.0314 297.605ZM84.6181 303.63L83.4482 303.702L83.4119 303.119L86.7884 289.503L93.1441 297.799L84.6181 303.63ZM94.1713 296.41L87.6856 288.563L97.0118 288.573L94.1713 296.41Z" fill="url(#paint8_linear_55_946)"/>
</g>
</g>
</g>
</g>
<defs>
<filter id="filter0_d_55_946" x="97.1848" y="126.399" width="106.098" height="100.306" filterUnits="userSpaceOnUse" color-interpolation-filters="sRGB">
<feFlood flood-opacity="0" result="BackgroundImageFix"/>
<feColorMatrix in="SourceAlpha" type="matrix" values="0 0 0 0 0 0 0 0 0 0 0 0 0 0 0 0 0 0 127 0" result="hardAlpha"/>
<feOffset dy="4"/>
<feGaussianBlur stdDeviation="2"/>
<feComposite in2="hardAlpha" operator="out"/>
<feColorMatrix type="matrix" values="0 0 0 0 0 0 0 0 0 0 0 0 0 0 0 0 0 0 0.25 0"/>
<feBlend mode="normal" in2="BackgroundImageFix" result="effect1_dropShadow_55_946"/>
<feBlend mode="normal" in="SourceGraphic" in2="effect1_dropShadow_55_946" result="shape"/>
</filter>
<filter id="filter1_d_55_946" x="99.4277" y="309.648" width="105.31" height="120.702" filterUnits="userSpaceOnUse" color-interpolation-filters="sRGB">
<feFlood flood-opacity="0" result="BackgroundImageFix"/>
<feColorMatrix in="SourceAlpha" type="matrix" values="0 0 0 0 0 0 0 0 0 0 0 0 0 0 0 0 0 0 127 0" result="hardAlpha"/>
<feOffset dy="4"/>
<feGaussianBlur stdDeviation="2"/>
<feComposite in2="hardAlpha" operator="out"/>
<feColorMatrix type="matrix" values="0 0 0 0 0 0 0 0 0 0 0 0 0 0 0 0 0 0 0.25 0"/>
<feBlend mode="normal" in2="BackgroundImageFix" result="effect1_dropShadow_55_946"/>
<feBlend mode="normal" in="SourceGraphic" in2="effect1_dropShadow_55_946" result="shape"/>
</filter>
<filter id="filter2_d_55_946" x="154.11" y="0.00013112" width="197.601" height="197.601" filterUnits="userSpaceOnUse" color-interpolation-filters="sRGB">
<feFlood flood-opacity="0" result="BackgroundImageFix"/>
<feColorMatrix in="SourceAlpha" type="matrix" values="0 0 0 0 0 0 0 0 0 0 0 0 0 0 0 0 0 0 127 0" result="hardAlpha"/>
<feOffset dy="4"/>
<feGaussianBlur stdDeviation="2"/>
<feComposite in2="hardAlpha" operator="out"/>
<feColorMatrix type="matrix" values="0 0 0 0 0 0 0 0 0 0 0 0 0 0 0 0 0 0 0.25 0"/>
<feBlend mode="normal" in2="BackgroundImageFix" result="effect1_dropShadow_55_946"/>
<feBlend mode="normal" in="SourceGraphic" in2="effect1_dropShadow_55_946" result="shape"/>
</filter>
<filter id="filter3_d_55_946" x="145.107" y="371.044" width="109.007" height="109.007" filterUnits="userSpaceOnUse" color-interpolation-filters="sRGB">
<feFlood flood-opacity="0" result="BackgroundImageFix"/>
<feColorMatrix in="SourceAlpha" type="matrix" values="0 0 0 0 0 0 0 0 0 0 0 0 0 0 0 0 0 0 127 0" result="hardAlpha"/>
<feOffset dy="4"/>
<feGaussianBlur stdDeviation="2"/>
<feComposite in2="hardAlpha" operator="out"/>
<feColorMatrix type="matrix" values="0 0 0 0 0 0 0 0 0 0 0 0 0 0 0 0 0 0 0.25 0"/>
<feBlend mode="normal" in2="BackgroundImageFix" result="effect1_dropShadow_55_946"/>
<feBlend mode="normal" in="SourceGraphic" in2="effect1_dropShadow_55_946" result="shape"/>
</filter>
<filter id="filter4_d_55_946" x="10.9146" y="195.132" width="135.746" height="135.746" filterUnits="userSpaceOnUse" color-interpolation-filters="sRGB">
<feFlood flood-opacity="0" result="BackgroundImageFix"/>
<feColorMatrix in="SourceAlpha" type="matrix" values="0 0 0 0 0 0 0 0 0 0 0 0 0 0 0 0 0 0 127 0" result="hardAlpha"/>
<feOffset dy="4"/>
<feGaussianBlur stdDeviation="2"/>
<feComposite in2="hardAlpha" operator="out"/>
<feColorMatrix type="matrix" values="0 0 0 0 0 0 0 0 0 0 0 0 0 0 0 0 0 0 0.25 0"/>
<feBlend mode="normal" in2="BackgroundImageFix" result="effect1_dropShadow_55_946"/>
<feBlend mode="normal" in="SourceGraphic" in2="effect1_dropShadow_55_946" result="shape"/>
</filter>
<linearGradient id="paint0_linear_55_946" x1="163.655" y1="100.351" x2="342.164" y2="89.2589" gradientUnits="userSpaceOnUse">
<stop stop-color="#8247FF"/>
<stop offset="1" stop-color="#F5C144"/>
</linearGradient>
<linearGradient id="paint1_linear_55_946" x1="167.581" y1="392.385" x2="204.973" y2="437.429" gradientUnits="userSpaceOnUse">
<stop stop-color="#6633CC"/>
<stop offset="1" stop-color="#F5C144"/>
</linearGradient>
<linearGradient id="paint2_linear_55_946" x1="77.8445" y1="215.393" x2="77.8445" y2="305.123" gradientUnits="userSpaceOnUse">
<stop stop-color="#6633CC"/>
<stop offset="1" stop-color="#F5C144"/>
</linearGradient>
<linearGradient id="paint3_linear_55_946" x1="77.8445" y1="215.393" x2="77.8445" y2="305.123" gradientUnits="userSpaceOnUse">
<stop stop-color="#6633CC"/>
<stop offset="1" stop-color="#F5C144"/>
</linearGradient>
<linearGradient id="paint4_linear_55_946" x1="77.8445" y1="215.393" x2="77.8445" y2="305.123" gradientUnits="userSpaceOnUse">
<stop stop-color="#6633CC"/>
<stop offset="1" stop-color="#F5C144"/>
</linearGradient>
<linearGradient id="paint5_linear_55_946" x1="77.8445" y1="215.393" x2="77.8445" y2="305.123" gradientUnits="userSpaceOnUse">
<stop stop-color="#6633CC"/>
<stop offset="1" stop-color="#F5C144"/>
</linearGradient>
<linearGradient id="paint6_linear_55_946" x1="77.8445" y1="215.393" x2="77.8445" y2="305.123" gradientUnits="userSpaceOnUse">
<stop stop-color="#6633CC"/>
<stop offset="1" stop-color="#F5C144"/>
</linearGradient>
<linearGradient id="paint7_linear_55_946" x1="77.8445" y1="215.393" x2="77.8445" y2="305.123" gradientUnits="userSpaceOnUse">
<stop stop-color="#6633CC"/>
<stop offset="1" stop-color="#F5C144"/>
</linearGradient>
<linearGradient id="paint8_linear_55_946" x1="77.8445" y1="215.393" x2="77.8445" y2="305.123" gradientUnits="userSpaceOnUse">
<stop stop-color="#6633CC"/>
<stop offset="1" stop-color="#F5C144"/>
</linearGradient>
</defs>
</svg>
