<svg width="18" height="16" viewBox="0 0 18 16" fill="none" xmlns="http://www.w3.org/2000/svg">
<path d="M8.708 14.4C8.76133 14.4 8.81467 14.3867 8.868 14.36C8.92133 14.3333 8.96133 14.3067 8.988 14.28L15.548 7.72C15.708 7.56 15.8247 7.38 15.898 7.18C15.9713 6.98 16.008 6.78 16.008 6.58C16.008 6.36667 15.9713 6.16333 15.898 5.97C15.8247 5.77667 15.708 5.60667 15.548 5.46L12.148 2.06C12.0013 1.9 11.8313 1.78333 11.638 1.71C11.4447 1.63667 11.2413 1.6 11.028 1.6C10.828 1.6 10.628 1.63667 10.428 1.71C10.228 1.78333 10.048 1.9 9.888 2.06L9.668 2.28L11.148 3.78C11.348 3.96667 11.4947 4.18 11.588 4.42C11.6813 4.66 11.728 4.91333 11.728 5.18C11.728 5.74 11.538 6.21 11.158 6.59C10.778 6.97 10.308 7.16 9.748 7.16C9.48133 7.16 9.22467 7.11333 8.978 7.02C8.73133 6.92667 8.51467 6.78667 8.328 6.6L6.828 5.12L3.328 8.62C3.288 8.66 3.258 8.70333 3.238 8.75C3.218 8.79667 3.208 8.84667 3.208 8.9C3.208 9.00667 3.248 9.10333 3.328 9.19C3.408 9.27667 3.50133 9.32 3.608 9.32C3.66133 9.32 3.71467 9.30667 3.768 9.28C3.82133 9.25333 3.86133 9.22667 3.888 9.2L6.608 6.48L7.728 7.6L5.028 10.32C4.988 10.36 4.958 10.4033 4.938 10.45C4.918 10.4967 4.908 10.5467 4.908 10.6C4.908 10.7067 4.948 10.8 5.028 10.88C5.108 10.96 5.20133 11 5.308 11C5.36133 11 5.41467 10.9867 5.468 10.96C5.52133 10.9333 5.56133 10.9067 5.588 10.88L8.308 8.18L9.428 9.3L6.728 12.02C6.688 12.0467 6.658 12.0867 6.638 12.14C6.618 12.1933 6.608 12.2467 6.608 12.3C6.608 12.4067 6.648 12.5 6.728 12.58C6.808 12.66 6.90133 12.7 7.008 12.7C7.06133 12.7 7.11133 12.69 7.158 12.67C7.20467 12.65 7.248 12.62 7.288 12.58L10.008 9.88L11.128 11L8.408 13.72C8.368 13.76 8.338 13.8033 8.318 13.85C8.298 13.8967 8.288 13.9467 8.288 14C8.288 14.1067 8.33133 14.2 8.418 14.28C8.50467 14.36 8.60133 14.4 8.708 14.4ZM8.688 16C8.19467 16 7.758 15.8367 7.378 15.51C6.998 15.1833 6.77467 14.7733 6.708 14.28C6.25467 14.2133 5.87467 14.0267 5.568 13.72C5.26133 13.4133 5.07467 13.0333 5.008 12.58C4.55467 12.5133 4.178 12.3233 3.878 12.01C3.578 11.6967 3.39467 11.32 3.328 10.88C2.82133 10.8133 2.408 10.5933 2.088 10.22C1.768 9.84667 1.608 9.40667 1.608 8.9C1.608 8.63333 1.658 8.37667 1.758 8.13C1.858 7.88333 2.00133 7.66667 2.188 7.48L6.828 2.86L9.448 5.48C9.47467 5.52 9.51467 5.55 9.568 5.57C9.62133 5.59 9.67467 5.6 9.728 5.6C9.848 5.6 9.948 5.56333 10.028 5.49C10.108 5.41667 10.148 5.32 10.148 5.2C10.148 5.14667 10.138 5.09333 10.118 5.04C10.098 4.98667 10.068 4.94667 10.028 4.92L7.168 2.06C7.02133 1.9 6.85133 1.78333 6.658 1.71C6.46467 1.63667 6.26133 1.6 6.048 1.6C5.848 1.6 5.648 1.63667 5.448 1.71C5.248 1.78333 5.068 1.9 4.908 2.06L2.088 4.9C1.968 5.02 1.868 5.16 1.788 5.32C1.708 5.48 1.65467 5.64 1.628 5.8C1.60133 5.96 1.60133 6.12333 1.628 6.29C1.65467 6.45667 1.708 6.61333 1.788 6.76L0.628 7.92C0.401333 7.61333 0.234667 7.27667 0.128 6.91C0.0213333 6.54333 -0.0186667 6.17333 0.008 5.8C0.0346667 5.42667 0.128 5.06333 0.288 4.71C0.448 4.35667 0.668 4.04 0.948 3.76L3.768 0.94C4.088 0.633333 4.44467 0.4 4.838 0.24C5.23133 0.08 5.63467 0 6.048 0C6.46133 0 6.86467 0.08 7.258 0.24C7.65133 0.4 8.00133 0.633333 8.308 0.94L8.528 1.16L8.748 0.94C9.068 0.633333 9.42467 0.4 9.818 0.24C10.2113 0.08 10.6147 0 11.028 0C11.4413 0 11.8447 0.08 12.238 0.24C12.6313 0.4 12.9813 0.633333 13.288 0.94L16.668 4.32C16.9747 4.62667 17.208 4.98 17.368 5.38C17.528 5.78 17.608 6.18667 17.608 6.6C17.608 7.01333 17.528 7.41667 17.368 7.81C17.208 8.20333 16.9747 8.55333 16.668 8.86L10.108 15.4C9.92133 15.5867 9.70467 15.7333 9.458 15.84C9.21133 15.9467 8.95467 16 8.688 16Z" fill="#FCF7FF"/>
</svg>
