<svg width="14" height="14" viewBox="0 0 14 14" fill="none" xmlns="http://www.w3.org/2000/svg">
<path d="M6.41667 12.2495V6.41618H12.25V7.58285H8.4L12.25 11.4328L11.4333 12.2495L7.58333 8.39951V12.2495H6.41667ZM4.08333 12.2495V11.0828H5.25V12.2495H4.08333ZM2.91667 2.91618H1.75C1.75 2.59535 1.86424 2.32069 2.09271 2.09222C2.32118 1.86375 2.59583 1.74951 2.91667 1.74951V2.91618ZM4.08333 2.91618V1.74951H5.25V2.91618H4.08333ZM6.41667 2.91618V1.74951H7.58333V2.91618H6.41667ZM8.75 2.91618V1.74951H9.91667V2.91618H8.75ZM11.0833 2.91618V1.74951C11.4042 1.74951 11.6788 1.86375 11.9073 2.09222C12.1358 2.32069 12.25 2.59535 12.25 2.91618H11.0833ZM2.91667 11.0828V12.2495C2.59583 12.2495 2.32118 12.1353 2.09271 11.9068C1.86424 11.6783 1.75 11.4037 1.75 11.0828H2.91667ZM1.75 9.91618V8.74951H2.91667V9.91618H1.75ZM1.75 7.58285V6.41618H2.91667V7.58285H1.75ZM1.75 5.24951V4.08284H2.91667V5.24951H1.75ZM11.0833 5.24951V4.08284H12.25V5.24951H11.0833Z" fill="#FCF7FF"/>
</svg>
