<svg width="32" height="32" viewBox="0 0 32 32" fill="none" xmlns="http://www.w3.org/2000/svg">
<circle cx="16" cy="16" r="16" fill="#241A4A"/>
<path d="M10.0433 13.587L13.2487 15.6797L14.2268 15.6798L12.0253 14.2427L12.0245 11.8566C12.4187 11.7512 12.7089 11.3932 12.7087 10.9675C12.7085 10.459 12.2942 10.0467 11.7834 10.0466C11.2725 10.0465 10.8585 10.4587 10.8587 10.9672C10.8588 11.3929 11.1493 11.751 11.5435 11.8565L11.5443 13.9286L10.5245 13.2628L10.5233 9.72545C10.9174 9.62012 11.2076 9.2621 11.2075 8.83636C11.2073 8.32786 10.793 7.91555 10.2821 7.91547C9.77129 7.91539 9.35728 8.32757 9.35746 8.83607L9.35706 8.83607C9.35721 9.26181 9.64766 9.61992 10.0419 9.72537L10.0433 13.587ZM11.2912 10.9671C11.2911 10.6963 11.5115 10.4769 11.7835 10.4769C12.0555 10.4769 12.2761 10.6965 12.2762 10.9672C12.2763 11.2379 12.0559 11.4574 11.7839 11.4574C11.5119 11.4573 11.2913 11.2378 11.2912 10.9671ZM9.78976 8.83614C9.78966 8.56541 10.0101 8.34593 10.2821 8.34597C10.5541 8.34601 10.7747 8.56557 10.7748 8.83629C10.7749 9.10702 10.5544 9.32651 10.2824 9.32646C10.0105 9.32642 9.78985 9.10687 9.78976 8.83614Z" fill="url(#paint0_linear_1867_547)"/>
<path d="M15.1081 15.0226L15.1064 10.015C15.5005 9.90965 15.7907 9.55164 15.7905 9.1259C15.7904 8.6174 15.3762 8.2051 14.8654 8.20502C14.3546 8.20494 13.9407 8.61712 13.9409 9.12562C13.941 9.55136 14.2314 9.90946 14.6256 10.0149L14.6272 14.7085L13.3711 13.8884L13.3687 6.68822C13.7628 6.58289 14.053 6.22488 14.0528 5.79914C14.0526 5.29064 13.6384 4.87834 13.1277 4.87826C12.6169 4.87819 12.203 5.29037 12.2032 5.79887C12.2033 6.2246 12.4937 6.5827 12.8879 6.68815L12.8904 14.2127L15.1366 15.6796L16.1145 15.6797L15.1081 15.0226ZM14.3787 9.12569C14.3786 8.85497 14.599 8.63548 14.8709 8.63552C15.1429 8.63556 15.3634 8.85511 15.3635 9.12584C15.3636 9.39656 15.1432 9.61604 14.8713 9.616C14.5993 9.61596 14.3788 9.39641 14.3787 9.12569ZM12.6421 5.79893C12.6421 5.52821 12.8625 5.30872 13.1344 5.30876C13.4063 5.3088 13.6269 5.52835 13.627 5.79908C13.6271 6.0698 13.4067 6.28929 13.1347 6.28925C12.8628 6.28921 12.6422 6.06966 12.6421 5.79893Z" fill="url(#paint1_linear_1867_547)"/>
<path d="M19.4791 5.36576C18.9684 5.36568 18.5544 5.77786 18.5546 6.28637C18.5548 6.7121 18.8451 7.0702 19.2393 7.17565L19.2416 13.8564L17.998 14.6684L17.9969 11.3959C18.391 11.2906 18.6812 10.9326 18.681 10.5068C18.6809 9.99833 18.2666 9.58603 17.7559 9.58595C17.2451 9.58588 16.8312 9.99806 16.8313 10.5066C16.8315 10.9323 17.1219 11.2904 17.5161 11.3958L17.5173 14.9824L16.4483 15.6802L17.4262 15.6804L19.7226 14.181L19.7202 7.17572C20.1143 7.07039 20.4044 6.71238 20.4043 6.28664C20.4041 5.77814 19.9899 5.36584 19.4791 5.36576ZM17.2638 10.5064C17.2637 10.2357 17.4841 10.0162 17.756 10.0163C18.028 10.0163 18.2485 10.2358 18.2486 10.5066C18.2487 10.7773 18.0283 10.9968 17.7564 10.9967C17.4844 10.9967 17.2639 10.7772 17.2638 10.5064ZM19.9717 6.28658C19.9718 6.5573 19.7514 6.77679 19.4794 6.77675C19.2075 6.7767 18.9869 6.55715 18.9868 6.28643C18.9867 6.0157 19.2072 5.79622 19.4791 5.79626C19.751 5.7963 19.9716 6.01585 19.9717 6.28658Z" fill="url(#paint2_linear_1867_547)"/>
<path d="M22.1787 7.1623C21.6679 7.16223 21.2539 7.5744 21.2541 8.08291C21.2542 8.50865 21.5446 8.86675 21.9389 8.9722L21.9404 13.4815L21.0609 14.0555L21.0606 13.0739C21.4547 12.9685 21.7449 12.6105 21.7448 12.1848C21.7446 11.6763 21.3303 11.264 20.8195 11.2639C20.3087 11.2638 19.8947 11.676 19.8949 12.1845C19.895 12.6102 20.1854 12.9683 20.5797 13.0738L20.5801 14.3697L18.5727 15.6803L19.5507 15.6805L22.4215 13.8063L22.4198 8.97228C22.8139 8.86695 23.1041 8.50893 23.104 8.08319C23.1038 7.57469 22.6895 7.16238 22.1787 7.1623ZM20.8134 12.6749C20.545 12.6748 20.3274 12.4553 20.3273 12.1845C20.3272 11.9138 20.5447 11.6943 20.8131 11.6944C21.0814 11.6944 21.299 11.914 21.2991 12.1847C21.2992 12.4554 21.0818 12.6749 20.8134 12.6749ZM22.6713 8.08333C22.6714 8.35405 22.451 8.57354 22.179 8.5735C21.907 8.57345 21.6864 8.3539 21.6863 8.08317C21.6862 7.81245 21.9067 7.59296 22.1786 7.59301C22.4506 7.59305 22.6712 7.8126 22.6713 8.08333Z" fill="url(#paint3_linear_1867_547)"/>
<path d="M14.2476 20.2889L13.3959 20.3251L13.3962 21.1357L14.9128 22.4967L14.8767 21.4666L14.2476 20.2889Z" fill="url(#paint4_linear_1867_547)"/>
<path d="M22.0936 15.7573C21.7249 15.8091 21.1069 15.9874 19.205 16.8285C18.9105 16.6234 17.6869 15.8425 16.3924 15.834C14.4825 15.8337 13.155 17.3427 13.155 17.3427C13.0445 17.2264 12.8709 17.0585 12.6343 16.8887C12.144 16.5367 11.7341 16.4283 11.1647 16.2184C10.8226 16.0923 10.3369 15.8979 9.7584 15.6114C9.99092 16.0923 10.1943 16.477 10.3396 16.7442C10.7688 17.5327 10.8804 17.6387 10.9916 18.0051C11.0177 18.0911 11.0657 18.2642 11.189 18.468C11.3207 18.6858 11.4753 18.8349 11.5839 18.9258L12.7308 18.9631C12.5946 18.8424 11.9929 18.3066 11.52 17.8C11.4071 17.6789 11.2551 17.5099 11.1217 17.2523C11.0337 17.0826 10.9834 16.9313 10.9543 16.8269C11.3442 16.9024 11.651 17.0182 11.8638 17.1139C12.2037 17.2668 12.4034 17.3565 12.5788 17.5715C12.6388 17.6451 12.7264 17.8178 12.8993 18.1605C12.9448 18.2506 13.1066 18.5716 13.1557 18.669C13.7743 19.4587 14.4913 19.6774 14.6168 19.7542C14.7423 19.831 15.1332 19.944 15.1481 20.7509C15.1629 21.5577 15.7638 22.1991 15.7638 22.1991C15.7638 22.1991 15.8311 22.3105 15.8074 22.3625C15.7717 22.4407 15.5463 22.349 15.32 22.4633C15.2564 22.4954 15.2229 22.5287 15.2117 22.571C15.1962 22.6312 15.2319 22.6869 15.2451 22.7058C15.4502 22.9772 15.764 23.0997 15.8388 23.2702C15.7716 23.244 15.5191 23.152 15.4196 23.254C15.2954 23.3816 15.48 23.7403 15.5812 23.8952C15.6492 23.9994 15.7204 24.0742 15.7691 24.1203L16.3954 24.1204L16.3928 17.0485C16.3928 17.0485 17.2974 19.5909 17.2903 19.8666C17.283 20.1423 17.0591 21.3995 16.7842 21.7164C16.7242 21.8031 16.6592 21.9224 16.6214 22.073C16.609 22.1223 16.6033 22.16 16.5997 22.1848C16.5456 22.5554 16.5383 22.8116 16.5383 22.8116C16.531 23.0716 16.5058 23.5043 16.4695 24.0821L16.9506 24.0822C16.9824 23.8738 17.0433 23.6191 17.1617 23.3448C17.42 22.7464 17.8169 22.3668 18.0635 22.1672C18.3951 21.885 18.7269 21.6028 19.0584 21.3206L19.0951 20.1053L18.0961 20.1426C18.0961 20.1426 17.4145 22.0863 17.1354 22.2041C16.8562 22.3218 17.5853 20.4742 17.6149 20.2525C17.9589 20.1031 18.5756 19.7779 19.0947 19.1233C19.4001 18.7383 19.5763 18.3597 19.6799 18.0762C19.7415 17.9756 19.888 17.767 20.1606 17.6166C20.4092 17.4793 20.6413 17.4575 20.7588 17.4546C20.7208 17.6596 20.6582 17.813 20.6096 17.9134C20.4332 18.2766 20.1687 18.4987 19.6834 18.898C19.5322 19.0224 19.4038 19.1204 19.3167 19.1853C19.773 19.163 20.1127 19.1557 20.3436 19.1533C20.4535 19.1522 20.8711 19.1489 20.8711 19.1489C21.1805 18.634 21.437 18.1861 21.6365 17.8294C21.9982 17.1828 22.1315 16.9105 22.2499 16.5618C22.3662 16.2192 22.4267 15.9253 22.4602 15.7244C22.3401 15.7318 22.2175 15.7403 22.0934 15.7577L22.0936 15.7573ZM18.2071 20.5106L18.7994 20.4369L18.7997 21.1369L17.6156 22.0942L18.2071 20.5106ZM18.6072 18.9216C18.2987 19.4106 17.8109 19.5793 17.6514 19.6271L16.7994 16.496C18.0303 16.9583 18.3677 17.2644 18.3677 17.2644C18.56 17.4391 18.7571 17.6227 18.8312 17.9272C18.9435 18.3885 18.6911 18.7886 18.6072 18.9216ZM21.7988 16.7896C21.7094 16.9881 21.577 17.28 21.3859 17.6275C21.232 17.9074 21.0158 18.2674 20.7228 18.6699L20.4264 18.6698C20.6144 18.4845 20.7503 18.3108 20.8432 18.1794C20.9852 17.9786 21.1731 17.7073 21.2797 17.3119C21.3247 17.1448 21.3428 17.0017 21.3507 16.9031C20.9612 16.8714 20.6627 16.9516 20.4978 17.0091C20.0808 17.1549 19.8232 17.4 19.6534 17.5653C19.405 17.8068 19.2469 18.0508 19.15 18.2278L19.0574 17.4537C19.316 17.3447 19.7071 17.1729 20.1775 16.937C20.4945 16.7779 20.6183 16.7046 20.8752 16.5814C21.1553 16.4467 21.5651 16.2663 22.0908 16.0924C22.0194 16.2771 21.9224 16.5155 21.7988 16.7896Z" fill="url(#paint5_linear_1867_547)"/>
<path d="M19.2262 21.5045C19.2262 21.5045 19.0429 21.6766 18.7778 21.9238C18.4645 22.2161 17.4807 23.1367 17.4097 23.2633C17.3141 23.4338 17.3002 23.5485 17.2009 23.8172C17.1114 24.0597 17.0174 24.2507 16.9504 24.3769L16.3951 24.4129L15.9146 24.4129C15.9146 24.4129 15.8961 24.4682 15.8544 24.5236C15.8544 24.5236 15.7798 24.6113 15.6555 24.6343C15.4794 24.6668 15.2432 24.2738 15.0377 23.9475C14.3829 22.9078 14.1463 22.7111 14.0432 22.6315C13.9247 22.54 13.8441 22.4961 13.6811 22.3528C13.4128 22.117 13.2312 21.8843 13.1199 21.7253L12.0657 23.3451C12.0657 23.3451 12.4586 25.2706 12.7321 25.5912C12.8669 25.749 13.0116 25.9064 13.0116 25.9064C13.4626 26.3572 13.8755 26.5253 14.3164 26.7667C14.61 26.9275 15.0144 27.1747 15.471 27.5433L16.9509 27.5435L19.4676 26.0339L20.4292 23.5839L19.2262 21.5049L19.2262 21.5045ZM19.152 22.0209L19.8739 23.2722L17.9865 23.1981L19.152 22.0209ZM16.2102 25.7022L16.3585 24.8184L16.8023 24.7079L16.8023 24.8185L16.5437 25.7022L16.2102 25.7022ZM16.7633 27.2488L16.4697 27.2487L16.4697 27.1024L17.5254 23.7506L18.9856 25.9235L16.7633 27.2488ZM19.264 25.5921L17.7644 23.5295L20.0959 23.6769L19.264 25.5921Z" fill="url(#paint6_linear_1867_547)"/>
<defs>
<linearGradient id="paint0_linear_1867_547" x1="16.4406" y1="5.0823" x2="15.0466" y2="27.5169" gradientUnits="userSpaceOnUse">
<stop stop-color="#6633CC"/>
<stop offset="1" stop-color="#F5C144"/>
</linearGradient>
<linearGradient id="paint1_linear_1867_547" x1="16.4406" y1="5.0823" x2="15.0466" y2="27.5169" gradientUnits="userSpaceOnUse">
<stop stop-color="#6633CC"/>
<stop offset="1" stop-color="#F5C144"/>
</linearGradient>
<linearGradient id="paint2_linear_1867_547" x1="16.4406" y1="5.0823" x2="15.0466" y2="27.5169" gradientUnits="userSpaceOnUse">
<stop stop-color="#6633CC"/>
<stop offset="1" stop-color="#F5C144"/>
</linearGradient>
<linearGradient id="paint3_linear_1867_547" x1="16.4406" y1="5.0823" x2="15.0466" y2="27.5169" gradientUnits="userSpaceOnUse">
<stop stop-color="#6633CC"/>
<stop offset="1" stop-color="#F5C144"/>
</linearGradient>
<linearGradient id="paint4_linear_1867_547" x1="16.4406" y1="5.0823" x2="15.0466" y2="27.5169" gradientUnits="userSpaceOnUse">
<stop stop-color="#6633CC"/>
<stop offset="1" stop-color="#F5C144"/>
</linearGradient>
<linearGradient id="paint5_linear_1867_547" x1="16.4406" y1="5.0823" x2="15.0466" y2="27.5169" gradientUnits="userSpaceOnUse">
<stop stop-color="#6633CC"/>
<stop offset="1" stop-color="#F5C144"/>
</linearGradient>
<linearGradient id="paint6_linear_1867_547" x1="16.4406" y1="5.0823" x2="15.0466" y2="27.5169" gradientUnits="userSpaceOnUse">
<stop stop-color="#6633CC"/>
<stop offset="1" stop-color="#F5C144"/>
</linearGradient>
</defs>
</svg>
