<svg width="1080" height="1920" viewBox="0 0 1080 1920" fill="none" xmlns="http://www.w3.org/2000/svg">
<g clip-path="url(#clip0_651_18427)">
<rect width="1080" height="1920" fill="#110C24"/>
<path opacity="0.23" d="M-1371.92 385.599C-1371.92 385.599 -818.092 586.101 -454.517 829.078C-90.9399 1072.05 143.901 1082.83 192.541 1104.1C241.18 1125.37 581.419 1201.86 636.767 1213.12C692.119 1224.37 1589.15 1449.91 1664.24 1493.56C1739.33 1537.2 2493.94 1740.91 2493.94 1740.91L2426.62 2720.55L-1521.08 2527.7L-1371.92 385.599Z" fill="#3C1E77"/>
<path d="M382.24 251.66C383.038 247.882 386.748 245.468 390.526 246.266C394.303 247.065 396.717 250.775 395.921 254.553C395.122 258.33 391.412 260.745 387.635 259.946C383.858 259.148 381.443 255.44 382.24 251.66Z" fill="#FBF7FF" fill-opacity="0.46"/>
<path d="M657.421 154.836C658.217 151.058 661.927 148.643 665.704 149.442C669.481 150.241 671.898 153.949 671.1 157.726C670.301 161.506 666.591 163.921 662.814 163.122C659.037 162.323 656.622 158.613 657.421 154.836Z" fill="#FBF7FF" fill-opacity="0.46"/>
<path d="M540.748 593.701C541.546 589.924 545.256 587.509 549.033 588.308C552.811 589.107 555.225 592.814 554.426 596.592C553.63 600.369 549.92 602.786 546.143 601.988C542.366 601.189 539.949 597.479 540.748 593.701Z" fill="#FBF7FF" fill-opacity="0.46"/>
<path d="M1026.71 387.873C1027.51 384.093 1031.22 381.678 1034.99 382.477C1038.77 383.276 1041.19 386.986 1040.39 390.763C1039.59 394.541 1035.88 396.955 1032.1 396.157C1028.33 395.358 1025.91 391.65 1026.71 387.873Z" fill="#FBF7FF" fill-opacity="0.46"/>
<path d="M968.243 698.346C969.041 694.568 972.751 692.154 976.529 692.952C980.306 693.749 982.72 697.459 981.922 701.236C981.123 705.014 977.415 707.431 973.638 706.632C969.861 705.833 967.444 702.123 968.243 698.346Z" fill="#FBF7FF" fill-opacity="0.46"/>
<path d="M1029.93 136.984C1030.27 135.354 1031.87 134.314 1033.5 134.657C1035.13 135.001 1036.17 136.603 1035.83 138.23C1035.48 139.86 1033.88 140.903 1032.25 140.559C1030.62 140.213 1029.58 138.613 1029.93 136.984Z" fill="#FBF7FF" fill-opacity="0.46"/>
<path d="M1013.63 404.167C1013.97 402.539 1015.57 401.497 1017.2 401.84C1018.83 402.186 1019.87 403.786 1019.53 405.416C1019.19 407.043 1017.58 408.086 1015.96 407.742C1014.33 407.396 1013.28 405.797 1013.63 404.167Z" fill="#FBF7FF" fill-opacity="0.46"/>
<path d="M902.142 641.883C902.488 640.253 904.087 639.213 905.717 639.556C907.344 639.9 908.387 641.502 908.043 643.13C907.7 644.759 906.098 645.802 904.47 645.458C902.84 645.112 901.798 643.513 902.142 641.883Z" fill="#FBF7FF" fill-opacity="0.46"/>
<path d="M813.953 292.622C814.296 290.993 815.898 289.952 817.526 290.296C819.156 290.64 820.198 292.239 819.854 293.869C819.509 295.499 817.909 296.542 816.279 296.196C814.649 295.852 813.609 294.252 813.953 292.622Z" fill="#FBF7FF" fill-opacity="0.46"/>
<path d="M701.115 686.569C701.459 684.94 703.059 683.897 704.688 684.241C706.318 684.587 707.361 686.186 707.015 687.816C706.671 689.446 705.071 690.486 703.442 690.143C701.812 689.799 700.769 688.197 701.115 686.569Z" fill="#FBF7FF" fill-opacity="0.46"/>
<path d="M827.98 421.49C828.323 419.862 829.923 418.82 831.553 419.163C833.182 419.507 834.223 421.109 833.879 422.739C833.535 424.366 831.936 425.409 830.306 425.065C828.676 424.719 827.634 423.119 827.98 421.49Z" fill="#FBF7FF" fill-opacity="0.46"/>
<path d="M645.367 364.89C645.71 363.26 647.31 362.22 648.94 362.563C650.569 362.907 651.609 364.509 651.266 366.136C650.922 367.766 649.323 368.809 647.693 368.465C646.063 368.119 645.021 366.519 645.367 364.89Z" fill="#FBF7FF" fill-opacity="0.46"/>
<path d="M677.124 528.506C677.47 526.877 679.07 525.834 680.699 526.18C682.329 526.524 683.369 528.123 683.026 529.753C682.682 531.383 681.08 532.426 679.453 532.08C677.823 531.736 676.78 530.136 677.124 528.506Z" fill="#FBF7FF" fill-opacity="0.46"/>
<path d="M670.429 558.564C670.774 556.934 672.374 555.891 674.004 556.237C675.631 556.581 676.674 558.181 676.33 559.811C675.986 561.44 674.385 562.481 672.757 562.137C671.127 561.793 670.085 560.194 670.429 558.564Z" fill="#FBF7FF" fill-opacity="0.46"/>
<path d="M647.999 530.206C648.345 528.579 649.945 527.536 651.575 527.88C653.202 528.226 654.244 529.825 653.901 531.455C653.555 533.083 651.955 534.125 650.326 533.782C648.698 533.436 647.656 531.836 647.999 530.206Z" fill="#FBF7FF" fill-opacity="0.46"/>
<path d="M460.429 75.0066C460.772 73.3768 462.372 72.3366 464.002 72.6802C465.631 73.0238 466.674 74.6258 466.328 76.2534C465.984 77.8833 464.385 78.9257 462.755 78.5821C461.125 78.2362 460.085 76.6365 460.429 75.0066Z" fill="#FBF7FF" fill-opacity="0.46"/>
<path d="M462.449 109.153C462.795 107.523 464.394 106.48 466.024 106.826C467.654 107.17 468.694 108.77 468.35 110.4C468.007 112.029 466.405 113.072 464.777 112.726C463.148 112.382 462.105 110.783 462.449 109.153Z" fill="#FBF7FF" fill-opacity="0.46"/>
<path d="M464.171 142.978C464.515 141.351 466.115 140.308 467.744 140.652C469.374 140.998 470.416 142.598 470.071 144.227C469.727 145.855 468.127 146.897 466.498 146.554C464.868 146.208 463.828 144.608 464.171 142.978Z" fill="#FBF7FF" fill-opacity="0.46"/>
<path d="M115.575 312.555C115.918 310.925 117.518 309.885 119.148 310.228C120.777 310.572 121.817 312.174 121.474 313.802C121.13 315.432 119.531 316.474 117.901 316.13C116.271 315.784 115.229 314.185 115.575 312.555Z" fill="#FBF7FF" fill-opacity="0.46"/>
<path d="M243.427 468.315C243.771 466.685 245.371 465.645 247 465.988C248.63 466.332 249.672 467.932 249.327 469.562C248.983 471.192 247.383 472.234 245.754 471.888C244.124 471.544 243.081 469.945 243.427 468.315Z" fill="#FBF7FF" fill-opacity="0.46"/>
<path d="M369.491 43.3911C369.835 41.7612 371.434 40.7188 373.064 41.0647C374.694 41.4083 375.736 43.008 375.39 44.6379C375.047 46.2678 373.447 47.3102 371.817 46.9643C370.188 46.6207 369.148 45.021 369.491 43.3911Z" fill="#FBF7FF" fill-opacity="0.46"/>
<path d="M261.841 84.1589C262.185 82.529 263.787 81.4888 265.414 81.8324C267.044 82.1761 268.086 83.7781 267.743 85.4056C267.397 87.0355 265.797 88.078 264.167 87.7344C262.537 87.3884 261.497 85.7888 261.841 84.1589Z" fill="#FBF7FF" fill-opacity="0.46"/>
<path d="M79.3433 163.835C79.6892 162.205 81.2888 161.162 82.9186 161.508C84.5483 161.852 85.5885 163.452 85.2449 165.082C84.9013 166.711 83.3017 167.754 81.6719 167.408C80.0421 167.064 78.9997 165.465 79.3433 163.835Z" fill="#FBF7FF" fill-opacity="0.46"/>
<path d="M1051.46 288.329C1051.81 286.7 1053.41 285.657 1055.04 286.003C1056.67 286.347 1057.71 287.946 1057.36 289.576C1057.02 291.206 1055.42 292.246 1053.79 291.903C1052.16 291.559 1051.12 289.959 1051.46 288.329Z" fill="#FBF7FF" fill-opacity="0.46"/>
<path d="M889.522 142.602C889.865 140.972 891.465 139.93 893.095 140.274C894.724 140.619 895.767 142.219 895.421 143.849C895.077 145.479 893.478 146.519 891.848 146.175C890.218 145.832 889.178 144.23 889.522 142.602Z" fill="#FBF7FF" fill-opacity="0.46"/>
<path d="M457.236 433.447C457.58 431.817 459.18 430.777 460.809 431.12C462.439 431.464 463.482 433.066 463.136 434.693C462.792 436.323 461.193 437.366 459.563 437.022C457.933 436.676 456.893 435.077 457.236 433.447Z" fill="#FBF7FF" fill-opacity="0.46"/>
<path d="M959.511 39.2605C959.855 37.6307 961.455 36.5882 963.084 36.9318C964.714 37.2778 965.754 38.8775 965.411 40.5073C965.067 42.1372 963.467 43.1773 961.838 42.8337C960.208 42.4901 959.165 40.8881 959.511 39.2605Z" fill="#FBF7FF" fill-opacity="0.46"/>
<g opacity="0.2">
<path d="M190.788 961.258C191.587 957.48 195.297 955.066 199.074 955.865C202.851 956.663 205.266 960.373 204.469 964.151C203.671 967.928 199.961 970.343 196.184 969.544C192.406 968.746 189.992 965.038 190.788 961.258Z" fill="#FBF7FF" fill-opacity="0.46"/>
<path d="M465.968 864.434C466.765 860.656 470.475 858.242 474.252 859.04C478.029 859.839 480.446 863.547 479.647 867.324C478.849 871.104 475.139 873.519 471.361 872.72C467.584 871.921 465.17 868.211 465.968 864.434Z" fill="#FBF7FF" fill-opacity="0.46"/>
<path d="M349.296 1303.3C350.094 1299.52 353.804 1297.11 357.582 1297.91C361.359 1298.7 363.773 1302.41 362.975 1306.19C362.178 1309.97 358.468 1312.38 354.691 1311.59C350.914 1310.79 348.497 1307.08 349.296 1303.3Z" fill="#FBF7FF" fill-opacity="0.46"/>
<path d="M835.258 1097.47C836.057 1093.69 839.764 1091.28 843.542 1092.08C847.319 1092.87 849.736 1096.58 848.937 1100.36C848.138 1104.14 844.428 1106.55 840.651 1105.75C836.874 1104.96 834.459 1101.25 835.258 1097.47Z" fill="#FBF7FF" fill-opacity="0.46"/>
<path d="M1064.86 830.877C1065.21 829.247 1066.81 828.205 1068.44 828.548C1070.07 828.894 1071.11 830.494 1070.76 832.124C1070.42 833.754 1068.82 834.794 1067.19 834.45C1065.56 834.107 1064.52 832.505 1064.86 830.877Z" fill="#FBF7FF" fill-opacity="0.46"/>
<path d="M1001.71 1135.45C1002.05 1133.82 1003.65 1132.78 1005.28 1133.13C1006.91 1133.47 1007.95 1135.07 1007.61 1136.7C1007.26 1138.33 1005.66 1139.37 1004.04 1139.03C1002.41 1138.68 1001.36 1137.08 1001.71 1135.45Z" fill="#FBF7FF" fill-opacity="0.46"/>
<path d="M838.476 846.582C838.819 844.952 840.419 843.912 842.049 844.256C843.678 844.599 844.719 846.201 844.375 847.829C844.031 849.459 842.432 850.501 840.802 850.157C839.172 849.811 838.13 848.212 838.476 846.582Z" fill="#FBF7FF" fill-opacity="0.46"/>
<path d="M822.176 1113.76C822.522 1112.14 824.122 1111.09 825.751 1111.44C827.381 1111.78 828.421 1113.38 828.078 1115.01C827.734 1116.64 826.132 1117.68 824.505 1117.34C822.875 1116.99 821.832 1115.39 822.176 1113.76Z" fill="#FBF7FF" fill-opacity="0.46"/>
<path d="M1001.15 1381.61C1001.5 1379.98 1003.1 1378.94 1004.72 1379.28C1006.35 1379.63 1007.4 1381.22 1007.05 1382.85C1006.71 1384.48 1005.11 1385.52 1003.48 1385.18C1001.85 1384.84 1000.81 1383.24 1001.15 1381.61Z" fill="#FBF7FF" fill-opacity="0.46"/>
<path d="M622.501 1002.22C622.844 1000.59 624.446 999.551 626.074 999.894C627.704 1000.24 628.746 1001.84 628.403 1003.47C628.057 1005.1 626.457 1006.14 624.827 1005.79C623.197 1005.45 622.157 1003.85 622.501 1002.22Z" fill="#FBF7FF" fill-opacity="0.46"/>
<path d="M636.528 1131.09C636.872 1129.46 638.471 1128.42 640.101 1128.76C641.731 1129.11 642.771 1130.71 642.427 1132.34C642.084 1133.96 640.484 1135.01 638.854 1134.66C637.225 1134.32 636.182 1132.72 636.528 1131.09Z" fill="#FBF7FF" fill-opacity="0.46"/>
<path d="M453.915 1074.49C454.259 1072.86 455.859 1071.82 457.488 1072.16C459.118 1072.5 460.158 1074.11 459.815 1075.73C459.471 1077.36 457.871 1078.41 456.242 1078.06C454.612 1077.72 453.569 1076.12 453.915 1074.49Z" fill="#FBF7FF" fill-opacity="0.46"/>
<path d="M485.672 1238.1C486.018 1236.47 487.618 1235.43 489.248 1235.78C490.877 1236.12 491.918 1237.72 491.574 1239.35C491.23 1240.98 489.628 1242.02 488.001 1241.68C486.371 1241.33 485.329 1239.73 485.672 1238.1Z" fill="#FBF7FF" fill-opacity="0.46"/>
<path d="M478.977 1268.16C479.323 1266.53 480.922 1265.49 482.552 1265.84C484.18 1266.18 485.222 1267.78 484.878 1269.41C484.535 1271.04 482.933 1272.08 481.305 1271.74C479.676 1271.39 478.633 1269.79 478.977 1268.16Z" fill="#FBF7FF" fill-opacity="0.46"/>
<path d="M456.548 1239.8C456.894 1238.18 458.493 1237.13 460.123 1237.48C461.751 1237.82 462.793 1239.42 462.449 1241.05C462.103 1242.68 460.504 1243.72 458.874 1243.38C457.247 1243.03 456.204 1241.43 456.548 1239.8Z" fill="#FBF7FF" fill-opacity="0.46"/>
<path d="M268.977 784.605C269.321 782.975 270.92 781.935 272.55 782.278C274.18 782.622 275.222 784.224 274.876 785.852C274.533 787.482 272.933 788.524 271.303 788.18C269.673 787.834 268.633 786.235 268.977 784.605Z" fill="#FBF7FF" fill-opacity="0.46"/>
<path d="M270.997 818.751C271.343 817.121 272.943 816.079 274.572 816.425C276.202 816.768 277.242 818.368 276.899 819.998C276.555 821.628 274.953 822.67 273.326 822.324C271.696 821.981 270.654 820.381 270.997 818.751Z" fill="#FBF7FF" fill-opacity="0.46"/>
<path d="M272.72 852.577C273.063 850.949 274.663 849.906 276.293 850.25C277.922 850.596 278.965 852.196 278.619 853.826C278.275 855.453 276.676 856.496 275.046 856.152C273.416 855.806 272.376 854.206 272.72 852.577Z" fill="#FBF7FF" fill-opacity="0.46"/>
<path d="M51.9757 1177.91C52.3193 1176.28 53.9189 1175.24 55.5487 1175.59C57.1784 1175.93 58.2208 1177.53 57.8749 1179.16C57.5313 1180.79 55.9317 1181.83 54.3019 1181.49C52.6722 1181.14 51.6298 1179.54 51.9757 1177.91Z" fill="#FBF7FF" fill-opacity="0.46"/>
<path d="M565.438 676.055C565.784 674.425 567.384 673.383 569.013 673.727C570.643 674.073 571.683 675.672 571.34 677.302C570.996 678.932 569.394 679.972 567.767 679.629C566.137 679.285 565.094 677.683 565.438 676.055Z" fill="#FBF7FF" fill-opacity="0.46"/>
<path d="M316.728 623.489C317.074 621.859 318.674 620.819 320.304 621.162C321.933 621.506 322.973 623.106 322.63 624.735C322.286 626.365 320.684 627.408 319.057 627.062C317.427 626.718 316.385 625.119 316.728 623.489Z" fill="#FBF7FF" fill-opacity="0.46"/>
<path d="M178.039 752.989C178.383 751.359 179.983 750.317 181.612 750.663C183.242 751.007 184.285 752.606 183.939 754.236C183.595 755.866 181.996 756.908 180.366 756.563C178.736 756.219 177.696 754.619 178.039 752.989Z" fill="#FBF7FF" fill-opacity="0.46"/>
<path d="M70.3893 793.757C70.7329 792.127 72.3348 791.087 73.9623 791.431C75.5921 791.774 76.6345 793.376 76.2909 795.004C75.9449 796.634 74.3453 797.676 72.7156 797.333C71.0858 796.987 70.0457 795.387 70.3893 793.757Z" fill="#FBF7FF" fill-opacity="0.46"/>
<path d="M133.274 575.226C133.617 573.596 135.217 572.554 136.847 572.899C138.477 573.243 139.519 574.843 139.173 576.473C138.83 578.102 137.23 579.144 135.6 578.8C133.97 578.455 132.93 576.855 133.274 575.226Z" fill="#FBF7FF" fill-opacity="0.46"/>
<path d="M951.875 1017.34C952.219 1015.71 953.819 1014.67 955.448 1015.02C957.078 1015.36 958.12 1016.96 957.774 1018.59C957.431 1020.22 955.831 1021.26 954.202 1020.92C952.572 1020.57 951.529 1018.97 951.875 1017.34Z" fill="#FBF7FF" fill-opacity="0.46"/>
<path d="M860.011 997.928C860.357 996.298 861.957 995.256 863.587 995.601C865.216 995.945 866.256 997.545 865.913 999.175C865.569 1000.8 863.967 1001.84 862.34 1001.5C860.71 1001.16 859.668 999.558 860.011 997.928Z" fill="#FBF7FF" fill-opacity="0.46"/>
<path d="M698.07 852.2C698.413 850.571 700.013 849.528 701.643 849.872C703.272 850.218 704.315 851.817 703.969 853.447C703.625 855.077 702.026 856.117 700.396 855.774C698.766 855.43 697.726 853.828 698.07 852.2Z" fill="#FBF7FF" fill-opacity="0.46"/>
<path d="M265.785 1143.04C266.128 1141.41 267.728 1140.37 269.358 1140.72C270.988 1141.06 272.03 1142.66 271.684 1144.29C271.34 1145.92 269.741 1146.96 268.111 1146.62C266.481 1146.27 265.441 1144.67 265.785 1143.04Z" fill="#FBF7FF" fill-opacity="0.46"/>
<path d="M768.059 748.859C768.403 747.229 770.003 746.186 771.632 746.53C773.262 746.876 774.302 748.476 773.959 750.106C773.615 751.735 772.016 752.776 770.386 752.432C768.756 752.088 767.714 750.486 768.059 748.859Z" fill="#FBF7FF" fill-opacity="0.46"/>
</g>
<path opacity="0.23" d="M2577.92 609.894C2576.72 610.147 2575.44 610.984 2574.07 612.503C2492.4 702.225 1873.05 751.788 1348.09 874.531C823.152 997.276 908.957 1048.78 827.543 1076.7C746.13 1104.62 684.201 1114.67 624.028 1143.89C563.858 1173.11 507.68 1185.15 507.68 1185.15L502.813 1184.49C566.671 1199.1 623.617 1211.91 642.854 1215.82C698.21 1227.07 1595.25 1452.57 1670.33 1496.22C1745.4 1539.86 2499.99 1743.6 2499.99 1743.6L2463.48 2274.7C2479.52 2117.94 2497.66 1937.59 2515.93 1744.01C2568.03 1192.08 2615.25 602.052 2577.92 609.894ZM-1425.03 932.616L-1438.69 1433.95L-1403.93 935.402L-1425.03 932.616ZM668.909 2637.03L-1468.57 2532.66L-1469.98 2585.69L668.909 2637.03Z" fill="url(#paint0_linear_651_18427)"/>
<g opacity="0.32" filter="url(#filter0_f_651_18427)">
<path d="M980.15 1688.3C980.15 1688.3 912.422 1640.84 955.603 1510.62C955.603 1510.62 1037.42 1586.08 980.15 1688.3Z" fill="#6633CC"/>
<path d="M978.056 1732.1C978.056 1732.1 899.861 1759.01 819.914 1647.54C819.914 1647.54 929.031 1625.68 978.056 1732.1Z" fill="#6633CC"/>
<path d="M952.975 1707.96C952.975 1707.96 874.727 1681.23 879.981 1544.13C879.981 1544.13 979.547 1593.83 952.975 1707.96Z" fill="#6633CC"/>
</g>
<g opacity="0.32" filter="url(#filter1_f_651_18427)">
<path d="M70.9163 1664.22C70.9163 1664.22 42.5304 1586.54 152.458 1504.46C152.458 1504.46 176.377 1613.16 70.9163 1664.22Z" fill="#6633CC"/>
<path d="M44.1356 1698.94C44.1356 1698.94 -35.3921 1676.27 -37.1654 1539.1C-37.1654 1539.1 64.8291 1583.61 44.1356 1698.94Z" fill="#6633CC"/>
<path d="M37.38 1664.79C37.38 1664.79 -11.4923 1598.09 71.2664 1488.67C71.2664 1488.67 124.479 1586.4 37.38 1664.79Z" fill="#6633CC"/>
</g>
<path d="M981.409 -188.828C981.409 -188.828 952.989 -154.795 901.868 -119.627C851.538 -154.233 839.365 -117.797 839.365 -117.797C856.5 -102.588 876.109 -106.126 889.058 -111.277C874.1 -101.667 857.492 -92.2657 839.308 -83.5398C799.113 -129.656 778.292 -97.3229 778.292 -97.3229C793.594 -74.6626 818.865 -76.9268 831.931 -79.9369C815.713 -72.5266 798.263 -65.852 779.78 -60.2059C743.789 -110.068 720.08 -79.6508 720.08 -79.6508C732.619 -56.9165 756.043 -55.7923 769.773 -57.2891C750.926 -52.0602 731.114 -47.8767 710.188 -45.4507C684.103 -101.731 655.004 -76.105 655.004 -76.105C663.208 -51.0122 686.619 -45.7293 700.294 -44.7645C692.425 -44.054 684.588 -43.272 676.449 -43.0486C664.998 -42.7343 654.036 -42.9729 643.51 -43.6778C631.888 -102.532 597.992 -85.3699 597.992 -85.3699C599.525 -61.7787 616.981 -50.3985 629.958 -45.1647C610.018 -47.3708 591.796 -51.2425 575.234 -56.4314C574.723 -119.19 537.378 -107.617 537.378 -107.617C533.86 -74.4679 564.253 -60.595 572.088 -57.5179C568.265 -58.7685 564.299 -59.8587 560.652 -61.2354C559.652 -61.6557 558.541 -62.0358 557.45 -62.4364C540.356 -69.1412 525.308 -77.1863 511.989 -85.8274C512.067 -85.8728 512.137 -85.8963 512.217 -85.9418C512.217 -85.9418 507.395 -90.2185 499.808 -94.2345C483.986 -105.881 471.215 -118.045 460.98 -129.579C458.756 -133.238 455.244 -138.423 449.029 -144.105C434.136 -163.71 427.643 -178.362 427.643 -178.362L417.808 -175.846C417.808 -175.846 422.694 -167.156 432.732 -154.228C425.453 -156.977 416.98 -158.061 407.228 -155.6C407.228 -155.6 401.542 -118.898 459.094 -124.889C467.969 -116.161 478.327 -107.164 490.258 -98.2379C478.408 -102.315 463.282 -103.562 448.629 -92.8048C448.629 -92.8048 457.329 -55.7673 509.93 -84.7409C521.022 -77.7485 533.221 -71.1774 546.47 -65.2387C534.851 -67.2541 521.163 -66.0963 508.843 -54.8872C508.843 -54.8872 521.651 -17.7872 572.774 -54.7727C572.774 -54.7727 571.873 -55.314 571.745 -55.4019C583.625 -51.3542 596.17 -47.8293 609.545 -45.1647C598.999 -44.2534 587.737 -40.0037 578.836 -28.5794C578.836 -28.5794 597.75 5.79945 641.853 -39.3313C641.853 -39.3313 639.388 -40.2604 637.336 -41.0469C649.128 -39.7849 661.329 -39.1025 674.162 -39.1597C664.895 -35.4446 655.93 -28.7053 650.544 -16.3405C650.544 -16.3405 676.916 11.6288 708.015 -40.8755C720.614 -42.1388 733.032 -43.8776 745.069 -46.3085C736.981 -40.9091 729.772 -32.8602 726.885 -20.1151C726.885 -20.1151 757.847 2.28392 778.58 -54.6013C786.423 -56.8992 794.039 -59.533 801.567 -62.2076C796.119 -56.4159 791.783 -48.8688 790.416 -38.645C790.416 -38.645 823.024 -19.2649 838.622 -77.1917C851.205 -82.9286 863.073 -89.0177 874.42 -95.3212C868.385 -87.4638 864.153 -77.2493 865.727 -63.9806C865.727 -63.9806 901.652 -53.4715 902.839 -112.135C962.165 -149.956 997.822 -188.256 997.822 -188.256L981.409 -188.828ZM457.264 -188.599C435.924 -157.189 466.356 -125.346 466.356 -125.346C495.764 -181.178 457.264 -188.599 457.264 -188.599ZM488.428 -142.446C484.916 -142.712 482.539 -142.218 482.539 -142.218C474.595 -105.082 514.79 -87.0857 514.79 -87.0857C519.46 -134.183 498.965 -141.65 488.428 -142.446Z" fill="url(#paint1_radial_651_18427)" fill-opacity="0.72"/>
<path opacity="0.94" d="M1353.81 1632.56C1361.05 1630.02 1412.73 1630.73 1407.88 1640.93L1387.89 1647.92C1372.99 1649.36 1354.48 1648.38 1346.57 1648.82C1304.73 1651.15 1263.98 1660.48 1222.36 1663.37C1210.6 1664.19 1202.12 1659.79 1192.94 1657.4C1192.68 1657.52 1192.47 1657.78 1192.19 1657.85C1186.47 1659.1 1180.92 1658.17 1175.36 1657L1175.05 1657.08C1173.23 1657.54 1171.44 1658 1169.42 1658.85L1169.89 1655.99C1164.82 1654.9 1159.69 1653.92 1154.52 1654.69C1127.66 1658.74 1099.64 1670.21 1072.64 1670.16C1051.19 1670.12 1030.61 1657.97 1009.63 1654.34C1009.53 1654.32 1009.43 1654.35 1009.32 1654.34C994.282 1660.78 936.583 1663.82 924.419 1663.75C872.803 1663.46 817.862 1654.73 766.449 1662.87C754.631 1664.74 563.931 1661.73 562.952 1660.98C555.858 1655.55 691.997 1653.61 686.326 1645.59C671.705 1638.06 659.212 1627.06 664.429 1614.53C667.636 1606.82 683.743 1610.14 688.021 1614.28C691.49 1617.64 692.303 1630.18 695.563 1626.62C696.901 1625.17 695.952 1622.71 696.053 1620.74C696.299 1615.96 696.822 1564.87 711.755 1561.35C713.89 1560.85 716.286 1561.34 719.051 1563.05C730.324 1570.03 723.838 1608.42 721.557 1618.92C720.728 1622.74 719.615 1626.49 718.754 1630.3C718.472 1631.55 717.519 1635.24 718.048 1634.07C721.961 1625.44 742.546 1570.01 757.873 1576.1C772.815 1582.04 750.471 1615.38 747.031 1622.46C743.159 1630.43 746.196 1624.55 742.948 1631.57C742.035 1633.54 738.145 1638.25 740.174 1637.44C751.321 1633 781.37 1596.47 795.663 1607.33C808.8 1617.31 784.593 1635.45 777.518 1641.04C773.301 1644.39 760.367 1652.66 765.739 1652.15C780.437 1650.76 792.318 1634.75 814.152 1635.36C823.336 1635.62 829.884 1641.01 835.541 1647.78C836.372 1648.77 836.94 1651.59 837.974 1650.82C851.861 1640.45 841.947 1626.77 866.417 1626.07C880.811 1625.65 896.624 1625.41 908.991 1633.78C913.532 1636.84 913.127 1649.89 918.054 1647.49C929.67 1641.81 933.563 1629.47 950.572 1626.84C957.931 1625.7 967.764 1625.89 972.934 1632.24C975.144 1634.97 972.69 1643.05 976.137 1642.3C985.503 1640.28 988.382 1628.96 1000.1 1630.66C1000.73 1630.75 1001.66 1631.66 1002.45 1632.18C1000.22 1626.08 999.796 1620.12 1005.59 1616.2C1012.45 1611.55 1022.48 1623.67 1023.98 1619.47C1025 1616.64 1024.31 1587 1035.4 1591.31C1044.17 1594.72 1043.26 1614.69 1043.22 1622.45C1043.22 1622.61 1043.1 1629.58 1043.4 1629.54C1055.16 1628.34 1067.14 1600.12 1084.9 1613.17C1090.99 1617.64 1087.9 1624.95 1083.28 1629.61C1097.62 1630.33 1114.6 1641.4 1115.88 1640.97C1126.69 1637.24 1133.66 1626.67 1145.95 1625.13C1151.24 1624.47 1156.92 1624.05 1161.76 1626.5C1162.79 1627.03 1164.62 1629.56 1164.64 1628.41C1164.82 1622.38 1138.28 1603.69 1159.19 1598.79C1171.37 1595.94 1172.2 1611.56 1176.2 1619.42C1213.42 1620.18 1188.36 1590.76 1207.11 1588.64C1217.39 1587.48 1210.82 1608.49 1212.85 1608.52C1220.57 1608.66 1225.6 1589.02 1238.21 1592.06C1248.15 1594.46 1246.42 1608.17 1243.56 1614.66C1241.9 1618.45 1235.21 1627.79 1239.08 1626.26C1249.3 1622.21 1262.34 1594.32 1278.86 1605.12C1286 1609.79 1281.23 1625.57 1278.86 1631.08C1277.64 1633.93 1271.18 1638.61 1274.26 1639.13C1274.26 1639.13 1284.62 1630.35 1286.1 1629.61C1296.9 1624.2 1308.6 1620.26 1320.79 1619.99C1348.82 1619.38 1329.91 1640.93 1353.81 1632.56Z" fill="#241A4A"/>
<path opacity="0.94" d="M630.506 1651.43C637.864 1649.27 689.436 1652.64 684.074 1662.58L663.752 1668.52C648.797 1669.2 630.362 1667.27 622.443 1667.3C580.534 1667.49 539.36 1674.71 497.645 1675.47C485.86 1675.68 477.622 1670.85 468.573 1667.99C468.304 1668.09 468.088 1668.35 467.801 1668.4C462.027 1669.36 456.527 1668.14 451.04 1666.69L450.722 1666.75C448.883 1667.12 447.067 1667.48 445.013 1668.23L445.625 1665.4C440.619 1664.05 435.547 1662.81 430.344 1663.32C403.31 1665.98 374.74 1676 347.774 1674.56C326.355 1673.42 306.428 1660.23 285.659 1655.53C285.559 1655.5 285.456 1655.53 285.356 1655.51C270.002 1661.17 212.224 1661.25 200.079 1660.55C148.546 1657.62 94.1253 1646.08 42.3621 1651.57C30.4644 1652.83 -159.83 1640.04 -160.77 1639.24C-167.575 1633.45 -31.5166 1638.5 -36.7684 1630.2C-50.9835 1621.93 -62.8952 1610.3 -57.0426 1598.05C-53.4442 1590.52 -37.5283 1594.66 -33.4689 1599.02C-30.177 1602.55 -30.0087 1615.12 -26.5706 1611.73C-25.1595 1610.35 -25.9809 1607.84 -25.7786 1605.88C-25.2883 1601.12 -22.1441 1550.12 -7.05002 1547.38C-4.89233 1546.99 -2.52436 1547.6 0.149475 1549.45C11.0487 1557 2.60171 1595 -0.214853 1605.37C-1.23879 1609.14 -2.54315 1612.84 -3.59894 1616.59C-3.94458 1617.83 -5.08539 1621.46 -4.49711 1620.32C-0.146634 1611.91 23.2562 1557.61 38.2504 1564.47C52.8674 1571.17 28.8425 1603.33 25.0436 1610.21C20.7676 1617.97 24.1019 1612.26 20.4984 1619.1C19.4861 1621.02 15.3592 1625.53 17.4273 1624.82C28.7868 1620.96 60.6712 1586.02 74.3876 1597.6C86.9956 1608.24 61.8897 1625.12 54.5369 1630.34C50.154 1633.46 36.8121 1641.06 42.2036 1640.83C56.9537 1640.19 69.6402 1624.81 91.4144 1626.54C100.573 1627.27 106.836 1632.99 112.137 1640.05C112.917 1641.07 113.339 1643.92 114.411 1643.2C128.812 1633.56 119.613 1619.39 144.087 1619.94C158.484 1620.27 174.288 1620.84 186.21 1629.83C190.588 1633.12 189.513 1646.14 194.557 1643.99C206.449 1638.91 210.97 1626.79 228.092 1625.03C235.5 1624.27 245.31 1624.97 250.147 1631.58C252.214 1634.42 249.349 1642.36 252.829 1641.79C262.287 1640.25 265.743 1629.09 277.359 1631.39C277.981 1631.52 278.866 1632.48 279.629 1633.03C277.715 1626.83 277.596 1620.85 283.587 1617.23C290.669 1612.94 300.07 1625.56 301.783 1621.44C302.941 1618.67 303.774 1589.03 314.628 1593.9C323.219 1597.76 321.283 1617.66 320.845 1625.4C320.836 1625.57 320.357 1632.52 320.663 1632.5C332.468 1631.9 345.882 1604.33 362.948 1618.28C368.793 1623.05 365.34 1630.2 360.485 1634.62C374.762 1636.06 391.161 1648 392.459 1647.63C403.441 1644.46 410.949 1634.26 423.297 1633.36C428.615 1632.97 434.306 1632.84 439.019 1635.54C440.025 1636.11 441.717 1638.74 441.797 1637.59C442.288 1631.57 416.744 1611.54 437.87 1607.73C450.185 1605.5 450.213 1621.14 453.799 1629.2C490.932 1631.87 467.417 1601.2 486.254 1600.05C496.579 1599.42 488.941 1620.06 490.964 1620.2C498.67 1620.74 504.7 1601.37 517.137 1605.06C526.935 1607.97 524.51 1621.57 521.323 1627.9C519.468 1631.61 512.307 1640.59 516.253 1639.26C526.665 1635.74 541.115 1608.56 557.062 1620.19C563.949 1625.22 558.381 1640.73 555.729 1646.12C554.369 1648.9 547.67 1653.24 550.72 1653.92C550.72 1653.92 561.517 1645.68 563.033 1645.02C574.102 1640.18 585.987 1636.83 598.169 1637.19C626.201 1638.03 606.205 1658.57 630.506 1651.43Z" fill="#241A4A"/>
<g filter="url(#filter2_f_651_18427)">
<path d="M-1131.71 1645.77C-1131.71 1645.77 -398.453 1655.24 -336.812 1655.31C-247.533 1655.42 -3.44873 1623.65 126.217 1640.25C255.882 1656.86 494.798 1641 550.959 1641C607.124 1641 778.575 1651.37 849.812 1651.37C921.05 1651.37 1004.84 1647.04 1083.44 1647.04C1162.04 1647.04 1430.12 1646.67 1482.72 1647.04C1535.31 1647.41 2111.34 1636.24 2167.54 1638.55C2223.76 1640.87 2411.79 1629.49 2411.79 1629.49L2392.2 2118.97L-1506.66 2103.12L-1470.11 1625.94L-1131.71 1645.77Z" fill="#241A4A"/>
</g>
<path d="M318.273 1350.44C318.273 1350.44 353.736 1333.96 358.308 1354.72C362.853 1375.47 375.618 1416.43 352.648 1417.82C329.678 1419.21 300.024 1396.37 318.273 1350.44Z" fill="#151226"/>
<path d="M337.636 1313.39C337.636 1313.39 348.12 1295.6 376.38 1304.88C376.38 1304.88 381.982 1307.33 393.039 1307.14C393.039 1307.14 386.928 1318.79 383.878 1329.35C380.828 1339.9 372.578 1349.84 365.526 1348.47C365.526 1348.47 331.887 1320.5 337.663 1313.39L337.636 1313.39Z" fill="url(#paint2_linear_651_18427)"/>
<path d="M337.636 1313.39C337.636 1313.39 348.12 1295.6 376.38 1304.88C376.38 1304.88 381.982 1307.33 393.039 1307.14C393.039 1307.14 386.928 1318.79 383.878 1329.35C380.828 1339.9 372.578 1349.84 365.526 1348.47C365.526 1348.47 331.887 1320.5 337.663 1313.39L337.636 1313.39Z" fill="url(#paint3_linear_651_18427)" fill-opacity="0.2"/>
<path d="M328.758 1316.87C328.758 1316.87 340.716 1307.09 333.868 1285.93C333.868 1285.93 327.305 1273.2 338.071 1279.37C338.071 1279.37 341.78 1282.45 342.806 1289.91C342.806 1289.91 357.48 1275.88 342.585 1243.54C342.585 1243.54 329.769 1222.74 345.708 1232.75C345.708 1232.75 350.829 1235.68 355.067 1247.23C355.067 1247.23 357.65 1237.98 362.881 1244.71C368.113 1251.45 360.092 1249.07 358.737 1262.37C357.355 1275.66 352.549 1305.44 339.225 1320.67C325.901 1335.91 323.589 1321.65 328.763 1316.84L328.758 1316.87Z" fill="url(#paint4_linear_651_18427)"/>
<path d="M328.758 1316.87C328.758 1316.87 340.716 1307.09 333.868 1285.93C333.868 1285.93 327.305 1273.2 338.071 1279.37C338.071 1279.37 341.78 1282.45 342.806 1289.91C342.806 1289.91 357.48 1275.88 342.585 1243.54C342.585 1243.54 329.769 1222.74 345.708 1232.75C345.708 1232.75 350.829 1235.68 355.067 1247.23C355.067 1247.23 357.65 1237.98 362.881 1244.71C368.113 1251.45 360.092 1249.07 358.737 1262.37C357.355 1275.66 352.549 1305.44 339.225 1320.67C325.901 1335.91 323.589 1321.65 328.763 1316.84L328.758 1316.87Z" fill="url(#paint5_linear_651_18427)" fill-opacity="0.2"/>
<path d="M243.782 1464.64C243.782 1464.64 261.709 1489.59 284.387 1473.36C284.387 1473.36 285.602 1450.42 294.299 1442.65C297.53 1439.77 347.439 1466.2 369.515 1460.02C369.515 1460.02 387.359 1463.48 389.822 1451.2C392.29 1438.89 361.568 1423.74 368.135 1371.79C374.729 1319.85 308.597 1287.26 267.22 1315.38C225.839 1343.52 243.521 1380.15 248.319 1401.76C253.145 1423.37 243.777 1464.66 243.777 1464.66L243.782 1464.64Z" fill="url(#paint6_linear_651_18427)"/>
<path d="M243.782 1464.64C243.782 1464.64 261.709 1489.59 284.387 1473.36C284.387 1473.36 285.602 1450.42 294.299 1442.65C297.53 1439.77 347.439 1466.2 369.515 1460.02C369.515 1460.02 387.359 1463.48 389.822 1451.2C392.29 1438.89 361.568 1423.74 368.135 1371.79C374.729 1319.85 308.597 1287.26 267.22 1315.38C225.839 1343.52 243.521 1380.15 248.319 1401.76C253.145 1423.37 243.777 1464.66 243.777 1464.66L243.782 1464.64Z" fill="url(#paint7_linear_651_18427)" fill-opacity="0.2"/>
<path d="M269.407 1329.61C269.407 1329.61 258.554 1284.4 197.025 1277.52C197.025 1277.52 200.642 1299.37 201.754 1315.15C202.015 1319.04 202.226 1323.77 202.809 1326.25C206.29 1341.65 236.443 1355.85 251.688 1358.56L269.407 1329.61Z" fill="url(#paint8_linear_651_18427)"/>
<path d="M269.407 1329.61C269.407 1329.61 258.554 1284.4 197.025 1277.52C197.025 1277.52 200.642 1299.37 201.754 1315.15C202.015 1319.04 202.226 1323.77 202.809 1326.25C206.29 1341.65 236.443 1355.85 251.688 1358.56L269.407 1329.61Z" fill="url(#paint9_linear_651_18427)" fill-opacity="0.2"/>
<path opacity="0.74" d="M341.432 1374.37C338.457 1350.59 316.875 1333.69 293.226 1336.61C269.578 1339.54 252.797 1361.19 255.771 1384.97C258.746 1408.75 280.329 1425.66 304.003 1422.74C327.652 1419.81 344.433 1398.16 341.459 1374.38L341.432 1374.37Z" fill="url(#paint10_linear_651_18427)" fill-opacity="0.28"/>
<path d="M258.12 1329.82C258.12 1329.82 241.15 1294.1 203.482 1288.01C203.482 1288.01 201.691 1315.31 205.862 1324.87C210.033 1334.44 235.798 1343.15 244.181 1343.19C252.591 1343.23 261.997 1337.13 258.12 1329.82Z" fill="url(#paint11_linear_651_18427)"/>
<path d="M258.12 1329.82C258.12 1329.82 241.15 1294.1 203.482 1288.01C203.482 1288.01 201.691 1315.31 205.862 1324.87C210.033 1334.44 235.798 1343.15 244.181 1343.19C252.591 1343.23 261.997 1337.13 258.12 1329.82Z" fill="url(#paint12_linear_651_18427)" fill-opacity="0.2"/>
<path fill-rule="evenodd" clip-rule="evenodd" d="M247.263 1351.4C250.173 1351.44 252.733 1349.87 254.085 1347.52C253.833 1347.57 253.587 1347.63 253.347 1347.68C255.55 1340.63 250.607 1336.98 247.521 1335.98C243.264 1335.91 239.755 1339.3 239.684 1343.56C239.653 1345.41 240.278 1347.12 241.345 1348.47C242.73 1350.22 244.859 1351.36 247.263 1351.4Z" fill="#D9D9D9"/>
<path d="M254.085 1347.52C254.711 1346.43 255.078 1345.16 255.101 1343.82C255.172 1339.56 251.778 1336.05 247.521 1335.98C250.607 1336.98 255.55 1340.63 253.347 1347.68C253.587 1347.63 253.833 1347.57 254.085 1347.52Z" fill="#BDB9B9"/>
<path fill-rule="evenodd" clip-rule="evenodd" d="M247.263 1351.4C250.173 1351.44 252.733 1349.87 254.085 1347.52C253.613 1348.35 253.322 1348.74 253.05 1349.11C252.805 1349.43 252.575 1349.74 252.244 1350.33C250.762 1352.77 252.093 1357.27 253.344 1361.5C253.903 1363.39 254.445 1365.22 254.716 1366.8L254.7 1366.81C252.575 1368.39 251.122 1368.66 250.66 1368.6C249.587 1367.63 248.89 1364.67 248.22 1361.84C247.956 1360.71 247.696 1359.61 247.418 1358.65C245.915 1352.91 244.572 1351.7 243.169 1350.44C242.577 1349.91 241.975 1349.37 241.345 1348.47C242.73 1350.22 244.859 1351.36 247.263 1351.4Z" fill="#D9D9D9"/>
<path d="M250.66 1368.6C252.15 1369.96 253.726 1368.01 254.7 1366.81C252.575 1368.39 251.122 1368.66 250.66 1368.6Z" fill="#C8C6C6"/>
<path opacity="0.48" d="M349.242 1368.66C347.829 1363.69 345.57 1359.97 344.22 1360.38C342.874 1360.76 342.937 1365.11 344.35 1370.08C345.763 1375.05 348.022 1378.76 349.373 1378.36C350.718 1377.98 350.655 1373.63 349.242 1368.66Z" fill="#FFFDF7"/>
<path opacity="0.38" d="M312.829 1415.89C307.781 1414.92 303.459 1415.22 303.2 1416.59C302.941 1417.95 306.81 1419.9 311.854 1420.9C316.902 1421.88 321.224 1421.58 321.483 1420.21C321.742 1418.84 317.873 1416.9 312.829 1415.89Z" fill="#FFFDF7"/>
<path opacity="0.38" d="M292.017 1411.89C288.945 1411.3 286.252 1411.91 285.988 1413.31C285.724 1414.7 287.996 1416.31 291.068 1416.9C294.14 1417.5 296.833 1416.88 297.097 1415.49C297.361 1414.09 295.089 1412.49 292.017 1411.89Z" fill="#FFFDF7"/>
<path opacity="0.38" d="M302.694 1422.04C299.035 1421.33 295.909 1421.75 295.648 1422.98C295.415 1424.22 298.16 1425.8 301.815 1426.54C305.474 1427.25 308.6 1426.82 308.861 1425.6C309.094 1424.36 306.349 1422.78 302.694 1422.04Z" fill="#FFFDF7"/>
<path opacity="0.48" d="M366.596 1369.16C366.822 1364.9 366.186 1361.38 365.172 1361.33C364.158 1361.27 363.151 1364.69 362.926 1368.95C362.7 1373.21 363.336 1376.73 364.35 1376.78C365.364 1376.84 366.371 1373.42 366.623 1369.17L366.596 1369.16Z" fill="#FFFDF7"/>
<path opacity="0.61" d="M389.99 1450.23C389.256 1444.3 386.984 1440.95 382.822 1435.14C376.839 1426.81 373.261 1420.7 360.644 1422.26C344.649 1424.24 332.684 1437.13 331.191 1452.63C331.136 1453.06 341.853 1459.05 353.21 1461.09C358.941 1462.11 365.109 1460.83 369.574 1459.92C370.783 1459.68 377.369 1461.46 382.258 1459.62C387.087 1457.81 390.272 1452.39 389.995 1450.2L389.99 1450.23Z" fill="url(#paint13_linear_651_18427)"/>
<path d="M369.065 1459.69C369.065 1459.69 385.918 1465.45 389.634 1451.52C393.351 1437.6 379.6 1440.02 373.477 1442.67C367.381 1445.32 361.453 1448.85 369.065 1459.69Z" fill="#3A2413"/>
<path d="M324.875 1402.16C324.875 1402.16 336.822 1370.21 306.627 1352.13C290.735 1342.61 264.183 1356.34 264.546 1359.1C266.272 1371.78 275.441 1407.01 324.869 1402.19L324.875 1402.16Z" fill="#391F11"/>
<path d="M324.847 1402.41C324.847 1402.41 335.957 1372.68 307.853 1355.84C293.082 1346.98 268.372 1359.76 268.721 1362.3C270.312 1374.09 278.86 1406.9 324.852 1402.38L324.847 1402.41Z" fill="url(#paint14_linear_651_18427)"/>
<path d="M325.052 1384.98C327.141 1373.94 319.929 1363.28 308.96 1361.16C297.991 1359.03 287.396 1366.25 285.307 1377.28C283.218 1388.31 290.43 1398.97 301.399 1401.1C312.368 1403.22 322.963 1396.01 325.052 1384.98Z" fill="url(#paint15_linear_651_18427)"/>
<path d="M275.822 1323.94C275.822 1323.94 260.793 1313.8 266.358 1287.92C266.358 1287.92 272.54 1272.08 260.726 1280.66C260.726 1280.66 256.766 1284.76 256.431 1293.7C256.431 1293.7 237.757 1278.83 251.398 1238.81C251.398 1238.81 263.934 1212.67 246.539 1226.45C246.539 1226.45 240.915 1230.55 237.291 1244.72C237.291 1244.72 233.243 1234.07 227.903 1242.68C222.567 1251.26 231.644 1247.49 234.759 1263.07C237.873 1278.66 246.876 1313.3 264.114 1329.76C281.352 1346.21 282.445 1329.03 275.843 1323.97L275.822 1323.94Z" fill="url(#paint16_linear_651_18427)"/>
<path d="M275.822 1323.94C275.822 1323.94 260.793 1313.8 266.358 1287.92C266.358 1287.92 272.54 1272.08 260.726 1280.66C260.726 1280.66 256.766 1284.76 256.431 1293.7C256.431 1293.7 237.757 1278.83 251.398 1238.81C251.398 1238.81 263.934 1212.67 246.539 1226.45C246.539 1226.45 240.915 1230.55 237.291 1244.72C237.291 1244.72 233.243 1234.07 227.903 1242.68C222.567 1251.26 231.644 1247.49 234.759 1263.07C237.873 1278.66 246.876 1313.3 264.114 1329.76C281.352 1346.21 282.445 1329.03 275.843 1323.97L275.822 1323.94Z" fill="url(#paint17_linear_651_18427)" fill-opacity="0.2"/>
<path d="M391.958 1393.31C392.63 1377.18 386.439 1363.81 378.143 1363.45C369.821 1363.09 362.558 1375.86 361.891 1391.96C361.22 1408.09 367.411 1421.46 375.706 1421.81C384.029 1422.17 391.292 1409.41 391.958 1393.31Z" fill="url(#paint18_linear_651_18427)" stroke="#391F11" stroke-width="2.15918" stroke-linecap="round" stroke-linejoin="round"/>
<path d="M361.471 1388.76C361.471 1388.76 357.263 1379.83 345.165 1389.46" stroke="#391F11" stroke-width="2.15918" stroke-linecap="round" stroke-linejoin="round"/>
<path d="M344.04 1398.96C347.466 1380.86 336.945 1363.59 320.517 1360.41C304.089 1357.23 288.01 1369.32 284.579 1387.44C281.149 1405.57 291.675 1422.81 308.103 1425.99C324.531 1429.17 340.61 1417.08 344.04 1398.96Z" fill="url(#paint19_linear_651_18427)" stroke="#391F11" stroke-width="2.15918" stroke-linecap="round" stroke-linejoin="round"/>
<path d="M490.791 1695.63C493.152 1690.26 481.326 1672.02 469.494 1663.18C461.772 1657.42 443.037 1656.48 443.037 1656.48C443.037 1656.48 433.659 1655.6 422.542 1662.39C410.847 1669.53 410.542 1648.83 407.027 1690.3C413.376 1693.77 416.265 1693.84 424.063 1695.21C437.129 1697.5 439.944 1698.19 442.328 1699.1C444.711 1700.01 448.974 1703.8 452.162 1704.26C455.35 1704.72 457.331 1702.68 457.8 1699.82C458.269 1696.96 456.195 1694.17 453.514 1692C451.46 1690.33 449.395 1686.15 444.493 1683.76L451.041 1682.55C453.974 1683.67 453.595 1683.56 455.579 1685.28C458.473 1687.77 459.575 1687.81 462.247 1691.46C466.377 1697.12 465.567 1697.17 468.871 1700.51C470.689 1702.35 477.443 1702.13 479.062 1699.89C481.76 1702.01 484.47 1701.33 486.274 1698.09C486.715 1698.76 489.217 1699.21 490.791 1695.63Z" fill="url(#paint20_linear_651_18427)"/>
<path d="M416.414 1698.2C429.548 1709.87 437.811 1663.3 439.562 1657C441.314 1650.7 411.644 1652.28 402.814 1651.37C393.628 1646.72 368.403 1640.93 353.607 1636.83C353.815 1615.3 340.628 1614.59 332.126 1585.46C323.624 1556.33 317.247 1545.41 317.247 1545.41C282.582 1515.15 274.297 1513.25 250.675 1538.1L250.024 1586.93L269.546 1636.02L306.984 1673.14L341.368 1697.2C355.053 1699.83 389.222 1703.7 416.414 1698.2Z" fill="url(#paint21_linear_651_18427)"/>
<path d="M227.413 1528.25C227.413 1528.25 232.67 1583.63 236.015 1592.43C239.361 1601.24 243.209 1617.92 247.566 1628.77C251.924 1639.63 253.619 1639.43 255.741 1628.42C257.863 1617.43 279.352 1594.4 313.308 1596.86C340.923 1598.85 345.323 1595.35 340.104 1580.95C334.884 1566.55 295.622 1458.58 243.115 1491.84C232.931 1499.6 226.617 1513.41 227.413 1528.25Z" fill="url(#paint22_linear_651_18427)"/>
<path d="M227.413 1528.25C227.413 1528.25 232.67 1583.63 236.015 1592.43C239.361 1601.24 243.209 1617.92 247.566 1628.77C251.924 1639.63 253.619 1639.43 255.741 1628.42C257.863 1617.43 279.352 1594.4 313.308 1596.86C340.923 1598.85 345.323 1595.35 340.104 1580.95C334.884 1566.55 295.622 1458.58 243.115 1491.84C232.931 1499.6 226.617 1513.41 227.413 1528.25Z" fill="url(#paint23_linear_651_18427)" fill-opacity="0.56"/>
<path d="M286.032 1458.94C286.032 1458.94 280.731 1470.58 279.544 1474.03C279.544 1474.03 251.249 1474.18 243.199 1453.68C243.199 1453.68 246.942 1446.49 248.628 1441.83C250.315 1437.16 239.55 1439.73 237.627 1442.62C235.704 1445.51 234.329 1451.59 230.874 1453.77C227.444 1455.96 216.834 1459.24 213.149 1462.25C209.474 1465.24 168.187 1526.55 168.187 1526.55L275.352 1570.74C275.352 1570.74 316.233 1516.88 287.938 1489.79C287.938 1489.79 285.249 1489.9 293.572 1473.43C293.572 1473.43 299.672 1465.27 285.971 1458.94L286.032 1458.94Z" fill="url(#paint24_linear_651_18427)"/>
<path d="M309.064 1525.64C309.064 1525.64 343.545 1730.13 325.47 1760.13C325.47 1760.13 333.201 1807.3 324.764 1815.03C316.007 1823.05 275.61 1811.35 246.781 1807.31C190.129 1799.35 121.164 1858.38 121.164 1790.76C125.208 1775.81 99.8941 1484.66 194.914 1504.22C194.914 1504.22 246.78 1547.08 275.635 1535.57C278.707 1536.31 309.064 1525.64 309.064 1525.64Z" fill="url(#paint25_linear_651_18427)"/>
<path d="M309.066 1525.64C309.066 1525.64 343.547 1730.12 325.472 1760.12C325.472 1760.12 333.203 1807.3 324.766 1815.03C316.009 1823.05 275.612 1811.35 246.783 1807.31C190.131 1799.35 123.607 1822.23 127.644 1807.31C131.688 1792.36 99.8961 1484.65 194.916 1504.22C194.916 1504.22 246.782 1547.08 275.637 1535.56C278.709 1536.31 309.066 1525.64 309.066 1525.64Z" fill="url(#paint26_linear_651_18427)" fill-opacity="0.56"/>
<path d="M368.788 1872.75C270.367 1928.18 129.912 1884.89 117.039 1876.12C111.344 1838.87 118.494 1823.78 160.317 1813.17C295.326 1745.41 164.004 1788.57 316.36 1761.88C468.715 1735.19 505.787 1792.22 481.651 1841.91C457.515 1891.6 426.955 1889.73 371.903 1888.69C357.508 1886.37 354.007 1883.08 368.788 1872.75Z" fill="url(#paint27_linear_651_18427)"/>
<path d="M244.633 1453.66C242.032 1458.69 227.036 1454.3 224.112 1457.37C221.188 1460.44 224.124 1466.78 215.398 1473.37C204.281 1481.78 187.498 1482.43 255.822 1535.32C255.822 1535.32 301.364 1521.15 293.32 1507.01C285.189 1492.75 285.428 1490.9 285.428 1490.9C285.428 1490.9 286.758 1484.86 287.797 1481.3C290.085 1473.41 297.385 1466.6 284.074 1464.65C284.074 1464.65 288.281 1453.38 289.956 1451.86C291.63 1450.35 313.334 1467.87 319.9 1490.39C319.9 1490.39 322.899 1496.29 318.228 1508.69C313.558 1521.09 324.159 1531.05 275.593 1539.43L253.459 1543.65C253.459 1543.65 182.731 1538.87 155.12 1513.6C150.774 1509.61 147.395 1486.87 153.823 1475.21C155.677 1471.87 158.62 1467.36 163.1 1461.33C183.267 1434.32 186.334 1426.44 250.398 1439.16C250.398 1439.16 247.234 1448.64 244.633 1453.66Z" fill="url(#paint28_linear_651_18427)"/>
<path d="M244.633 1453.66C242.032 1458.69 227.036 1454.3 224.112 1457.37C221.188 1460.44 224.124 1466.78 215.398 1473.37C204.281 1481.78 187.498 1482.43 255.822 1535.32C255.822 1535.32 301.364 1521.15 293.32 1507.01C285.189 1492.75 285.428 1490.9 285.428 1490.9C285.428 1490.9 286.758 1484.86 287.797 1481.3C290.085 1473.41 297.385 1466.6 284.074 1464.65C284.074 1464.65 288.281 1453.38 289.956 1451.86C291.63 1450.35 313.334 1467.87 319.9 1490.39C319.9 1490.39 322.899 1496.29 318.228 1508.69C313.558 1521.09 324.159 1531.05 275.593 1539.43L253.459 1543.65C253.459 1543.65 182.731 1538.87 155.12 1513.6C150.774 1509.61 147.395 1486.87 153.823 1475.21C155.677 1471.87 158.62 1467.36 163.1 1461.33C183.267 1434.32 186.334 1426.44 250.398 1439.16C250.398 1439.16 247.234 1448.64 244.633 1453.66Z" fill="url(#paint29_linear_651_18427)" fill-opacity="0.56"/>
<path d="M547.626 1761.2C554.905 1754.16 702.629 1544.99 699.042 1531.37C691.505 1528.52 687.119 1527.9 679.09 1527.81L531.709 1737.96L306.12 1697.67L270.1 1735.75L268.174 1746.54L502.633 1788.41L515.273 1790.67C523.631 1783.19 541.803 1766.84 547.626 1761.2Z" fill="url(#paint30_linear_651_18427)"/>
<g filter="url(#filter3_f_651_18427)">
<path d="M680.031 1535.75L674.517 1534.74L537.043 1730.6L541.81 1733.78L680.031 1535.75Z" fill="url(#paint31_linear_651_18427)" fill-opacity="0.7"/>
</g>
<g style="mix-blend-mode:screen">
<path d="M680.124 1535.25L674.609 1534.24L537.135 1730.11L541.902 1733.28L680.124 1535.25Z" fill="url(#paint32_linear_651_18427)" fill-opacity="0.09"/>
</g>
<path d="M470.058 1759.82L502.099 1732.73L373.451 1709.76L337.836 1736.21L470.058 1759.82Z" fill="url(#paint33_linear_651_18427)" fill-opacity="0.53"/>
<path d="M345.244 1719.66L364.256 1708.12L322.481 1700.66L302.236 1711.98L345.244 1719.66Z" fill="url(#paint34_linear_651_18427)" fill-opacity="0.61"/>
<g filter="url(#filter4_f_651_18427)">
<path d="M377.894 1288.22C377.894 1288.22 608.828 1519.96 650.59 1581.76L550.523 1714.5L142.181 1575.06L377.894 1288.22Z" fill="url(#paint35_linear_651_18427)" fill-opacity="0.11"/>
</g>
<path d="M247.478 1352.34C251.825 1366.28 260.464 1399.13 260.243 1418.98C259.968 1443.8 257.765 1475.4 261.102 1497.25M261.102 1497.25C264.439 1519.11 249.966 1555.05 269.24 1601.92M261.102 1497.25C278.659 1482.32 276.72 1464.44 302.439 1444.44" stroke="#D9D9D9" stroke-width="0.814973"/>
<path d="M451.176 1747.23C453.711 1741.6 439.28 1721.56 425.202 1711.58C416.015 1705.07 394.227 1703.23 394.227 1703.23C394.227 1703.23 383.306 1701.87 370.66 1708.63C357.355 1715.74 356.206 1693.59 353.719 1737.79C361.224 1741.78 364.58 1741.99 373.687 1743.8C379.289 1744.29 393.324 1743.28 399.642 1742.71C402.751 1743.53 409.567 1745.46 411.962 1746.67C414.956 1748.17 416.438 1752.59 418.828 1752.8C421.218 1753.01 421.982 1750.41 421.728 1749.23C421.526 1748.28 419.919 1744.91 417.875 1741.5C422.888 1747.73 422.214 1745.65 426.229 1749.12C430.245 1752.58 432.705 1751.56 434.499 1749.24C437.712 1751.63 441.265 1750.89 443.234 1747.5C446.754 1749.4 449.486 1750.99 451.176 1747.23Z" fill="url(#paint36_linear_651_18427)"/>
<path d="M176.314 1609.59C176.314 1609.59 160.72 1519.62 238.852 1549.32C238.852 1549.32 241.816 1556.21 258.657 1569.33C275.498 1582.46 265.088 1581.22 268.462 1585.14C271.864 1589.05 278.264 1596.8 280.381 1603.96C282.497 1611.11 281.709 1618.46 293.71 1628.41C305.747 1638.39 333.942 1658.42 346.038 1672.76C358.113 1687.13 363.979 1692.28 372.21 1695.31C380.434 1698.32 386.052 1695.76 384.339 1714.74C382.625 1733.72 389.718 1740.47 382.162 1749.08C374.626 1757.67 367.762 1759.26 354.147 1749.11C340.559 1738.96 326.631 1754.56 303.38 1735.29C280.136 1716.05 265.617 1714.68 257.131 1703.9C248.673 1693.12 216.148 1685.29 205.447 1658.12C194.745 1630.95 173.627 1625.51 176.286 1609.6L176.314 1609.59Z" fill="url(#paint37_linear_651_18427)"/>
<path d="M146.772 1556.96C146.772 1556.96 167.761 1608.48 173.502 1615.96C179.243 1623.43 187.734 1638.29 195.034 1647.44C202.333 1656.58 203.902 1655.91 202.76 1644.74C201.625 1633.61 210.464 1599.78 243.687 1592.36C276.91 1584.95 279.016 1587.3 269.868 1575.01C260.721 1562.73 192.015 1470.61 151.317 1517.57C143.802 1527.93 141.733 1542.97 146.772 1556.96Z" fill="url(#paint38_linear_651_18427)" fill-opacity="0.56"/>
<path d="M146.772 1556.96C146.772 1556.96 167.761 1608.48 173.502 1615.96C179.243 1623.43 187.734 1638.29 195.034 1647.44C202.333 1656.58 203.902 1655.91 202.76 1644.74C201.625 1633.61 210.464 1599.78 243.687 1592.36C276.91 1584.95 279.016 1587.3 269.868 1575.01C260.721 1562.73 192.015 1470.61 151.317 1517.57C143.802 1527.93 141.733 1542.97 146.772 1556.96Z" fill="url(#paint39_linear_651_18427)"/>
<path d="M317.531 1821.4L326.219 1900.1C326.219 1900.1 344.639 1912.04 375.481 1903.87L379.928 1820.88C379.928 1820.88 349.924 1831.88 317.531 1821.4Z" fill="url(#paint40_linear_651_18427)"/>
<path d="M315.611 1813.44C315.611 1810.67 330.392 1808.42 348.622 1808.42C366.852 1808.42 381.632 1810.67 381.632 1813.44C381.632 1816.21 366.852 1818.46 348.622 1818.46C330.392 1818.46 315.611 1816.21 315.611 1813.44Z" fill="url(#paint41_linear_651_18427)"/>
<path opacity="0.414121" d="M351.301 1821.88C351.301 1821.88 296.421 1804.77 327.516 1772.6C358.612 1740.43 388.9 1729.13 349.022 1711.08C309.144 1693.02 342.107 1682.81 342.107 1682.81C342.107 1682.81 317.657 1696.11 351.918 1700.35C386.194 1704.6 463.371 1730.29 398.617 1765.15C369.373 1780.9 352.772 1794.77 368.566 1816.02C372.332 1821.09 347.519 1817.33 351.776 1820.5C357.267 1824.57 351.301 1821.88 351.301 1821.88Z" fill="url(#paint42_linear_651_18427)"/>
<path d="M316.089 1812.86C316.089 1812.86 346.172 1824.2 381.667 1811.77C381.667 1811.77 386.05 1818.17 380.337 1823.24C380.337 1823.24 342.754 1832.73 317.529 1823.3C317.529 1823.3 309.379 1818.46 316.089 1812.86Z" fill="url(#paint43_linear_651_18427)"/>
<path d="M-763.31 1828.3C-779.869 1799.69 -837.441 1825.07 -837.441 1825.07L-792.426 2162.36L1378.32 1863.38L1330.5 1537.09C1325.77 1527.03 1309.71 1540.4 1309.71 1540.4C1305.63 1533.1 1299.28 1532.92 1295.83 1533.48C1295.09 1533.72 1294.28 1533.92 1293.41 1534.08C1293.41 1534.08 1294.36 1533.71 1295.83 1533.48C1310.07 1528.85 1302.29 1510.2 1302.29 1510.2C1289.79 1505.06 1276.39 1525.12 1276.39 1525.12C1285.35 1502.67 1266.28 1486.87 1266.28 1486.87C1250.54 1492.52 1257.33 1524.1 1257.33 1524.1C1250.77 1513.21 1242.3 1525.82 1242.3 1525.82C1229.13 1507.79 1214.74 1522.96 1214.74 1522.96C1214.76 1503.56 1192.27 1504.08 1192.27 1504.08C1183.67 1515.63 1194.71 1530.9 1194.71 1530.9C1168.32 1532.74 1180.94 1553.98 1183.66 1558.11C1203.63 1563.3 1184.13 1558.8 1184.13 1558.8C1184.13 1558.8 1183.95 1558.55 1183.66 1558.11C1183.17 1557.98 1182.65 1557.84 1182.11 1557.7C1168.62 1554.21 1160.89 1560.72 1156.86 1566.49C1156.25 1568.9 1155.06 1571.37 1153.13 1573.86C1153.13 1573.86 1154.17 1570.34 1156.86 1566.49C1160.6 1551.76 1142.83 1539.47 1142.83 1539.47C1126.66 1541.64 1126.16 1571.97 1126.16 1571.97C1126.72 1539.82 1083.84 1535.22 1083.84 1535.22C1072.1 1548.41 1079.27 1567.74 1085.7 1579.62C1088.56 1582.33 1090.88 1585.81 1092.39 1590.23C1092.39 1590.23 1089.15 1586 1085.7 1579.62C1069.23 1564.01 1034.9 1573.77 1034.9 1573.77C1037.34 1590.7 1048.25 1598.92 1057.1 1602.85C1060.62 1603.14 1064.62 1604.2 1069.14 1606.32C1069.14 1606.32 1063.69 1605.77 1057.1 1602.85C1038.2 1601.31 1032.88 1622.14 1032.88 1622.14C987.609 1604.57 1004.25 1651.37 987.104 1641.64C969.962 1631.9 957.857 1656.55 957.857 1656.55C957.857 1656.55 971.676 1666.25 955.622 1658.32C939.568 1650.39 921.797 1672.71 921.797 1672.71C909.633 1658.65 895.191 1670.51 895.191 1670.51C890.899 1679.82 903.042 1701.76 903.042 1701.76C875.434 1703.74 885.207 1737.81 885.207 1737.81C853.513 1725.74 851.418 1764.18 851.418 1764.18C823.164 1739.57 807.007 1765.68 807.007 1765.68C807.007 1765.68 795.758 1749.02 781.189 1756.68C766.628 1764.33 774.459 1783.15 774.459 1783.15C759.161 1774.56 749.257 1798.36 749.257 1798.36C725.792 1790.96 723.09 1815.18 723.09 1815.18C701.899 1811.08 701.13 1826.98 701.13 1826.98C699.975 1802.9 673.168 1804.33 673.168 1804.33C667.958 1821.55 676.802 1833.31 676.802 1833.31C660.866 1822.17 658.515 1838.82 658.515 1838.82C642.025 1835.77 644.44 1851.79 645.166 1855.34C645.233 1855.6 645.285 1855.83 645.319 1856.02C645.319 1856.02 645.255 1855.77 645.166 1855.34C643.221 1847.81 627.782 1813.12 615.761 1819.67C603.89 1826.14 612.472 1861.33 613.28 1864.53C613.3 1864.61 613.319 1864.68 613.339 1864.76C613.339 1864.76 613.318 1864.68 613.28 1864.53C608.34 1845.55 587.359 1849.42 587.359 1849.42C583.629 1867.62 595.074 1870.7 595.074 1870.7C595.074 1870.7 577.079 1886.02 541.314 1881.29C505.548 1876.56 512.179 1903.49 512.179 1903.49C493.854 1901.64 489.765 1925.07 489.765 1925.07C465.269 1911.58 462.074 1939.67 462.074 1939.67C440.931 1928.38 438.536 1946.91 438.536 1946.91C427.369 1945.97 418.008 1953.24 418.008 1953.24C402.354 1945.8 379.617 1955.27 379.617 1955.27C368.387 1941.38 347 1950.8 347 1950.8C325.044 1948.28 335.259 1971.37 317.88 1969.3C300.502 1967.24 278.81 1983.67 258.805 1979.41C238.8 1975.15 213.582 1998 202.462 1992.98C191.341 1987.95 175.926 1995.81 175.926 1995.81C178.156 1981.39 167.711 1975.02 167.711 1975.02C148.397 1974.81 151.953 1998.9 151.953 1998.9L146.407 1993.79C136.174 1980.55 117.748 1986.24 117.748 1986.24C113.685 2001.09 128.982 2001.18 128.982 2001.18C128.982 2001.18 119.056 2003.61 109.409 2005.57C99.7632 2007.54 84.9333 2007.01 80.8269 2006.76C76.7184 2006.49 53.4616 2008.84 45.975 2007.34C38.4872 2005.82 19.648 2023.33 6.41478 2014.66C-6.82059 2005.98 -31.6481 2016.11 -48.409 2013.36C-65.1678 2010.63 -68.8424 2019.82 -97.7441 2029.56C-126.646 2039.31 -144.845 2016.55 -182.33 2037.61C-217.357 2057.28 -184.549 2031.93 -240.909 2039.52C-261.467 2042.28 -264.612 2048.29 -264.612 2048.29C-279.428 2029.82 -303.105 2043.22 -303.105 2043.22C-313.327 2031.63 -323.786 2033.93 -329.908 2037C-331.284 2038.4 -333.059 2039.63 -335.315 2040.61C-335.315 2040.61 -333.262 2038.69 -329.908 2037C-319.718 2026.65 -331.416 2006.85 -331.416 2006.85C-352.362 1999.52 -367.627 2027.67 -367.627 2027.67L-386.165 2032.12C-409.679 2019.54 -410.236 2038.35 -410.236 2038.35C-430.215 2023.53 -445.999 2037.14 -445.999 2037.14C-467.653 2011.93 -487.977 2031.22 -487.977 2031.22C-484.776 2019.27 -486.785 2016.25 -486.785 2016.25C-494.875 1979.92 -523.548 2002.51 -523.548 2002.51C-524.307 1988.93 -537.138 1991.35 -537.138 1991.35C-520.223 1965.12 -546.972 1938.23 -546.972 1938.23C-567.222 1938.88 -563.509 1971.08 -563.25 1973.15C-565.596 1955.12 -576.95 1958.1 -576.95 1958.1C-552.691 1940.35 -567.786 1907.57 -567.786 1907.57C-592.599 1898.26 -608.028 1934.99 -608.028 1934.99C-592.447 1894.4 -627.692 1876.91 -627.692 1876.91C-650.553 1882.09 -646.443 1912.28 -645.563 1917.45C-645.517 1917.7 -645.471 1917.95 -645.426 1918.2C-645.426 1918.2 -645.48 1917.94 -645.563 1917.45C-652.301 1881.68 -682.031 1891.89 -682.031 1891.89C-667.371 1863.36 -696.607 1839.14 -696.607 1839.14C-707.336 1834.64 -719.192 1853.54 -719.192 1853.54C-735.611 1818.13 -763.31 1828.3 -763.31 1828.3Z" fill="url(#paint44_linear_651_18427)"/>
<path d="M-10.3311 1580C-23.0926 1547.57 -87.079 1564.97 -87.079 1564.97L-93.1642 1923.56L2216.07 1953.06L2217.5 1605.5C2214.15 1594.27 2195.31 1605.69 2195.31 1605.69C2192.21 1597.44 2185.62 1596.26 2181.94 1596.29C2181.13 1596.42 2180.26 1596.51 2179.32 1596.54C2179.32 1596.54 2180.37 1596.3 2181.94 1596.29C2197.5 1593.71 2192.32 1573.05 2192.32 1573.05C2180.11 1565.73 2163 1584.53 2163 1584.53C2175.85 1562.54 2158.47 1543.08 2158.47 1543.08C2141.18 1546.49 2143.28 1580.47 2143.28 1580.47C2138.16 1568.09 2127.35 1579.9 2127.35 1579.9C2116.47 1559.04 2099.09 1572.58 2099.09 1572.58C2102.16 1552.37 2078.63 1549.38 2078.63 1549.38C2067.85 1560.07 2076.96 1577.72 2076.96 1577.72C2049.17 1575.49 2058.99 1599.61 2061.17 1604.33C2081.17 1612.88 2061.55 1605.13 2061.55 1605.13C2061.55 1605.13 2061.4 1604.85 2061.17 1604.33C2060.67 1604.12 2060.16 1603.9 2059.61 1603.67C2046.11 1597.91 2037.03 1603.48 2031.92 1608.86C2030.91 1611.27 2029.28 1613.66 2026.87 1615.96C2026.87 1615.96 2028.51 1612.45 2031.92 1608.86C2038.13 1594.1 2021.54 1578.5 2021.54 1578.5C2004.35 1578.22 1999.07 1609.75 1999.07 1609.75C2004.7 1576.33 1960.73 1564.8 1960.73 1564.8C1946.42 1576.7 1950.86 1597.97 1955.7 1611.36C1958.25 1614.64 1960.13 1618.62 1961.01 1623.47C1961.01 1623.47 1958.29 1618.55 1955.7 1611.36C1940.99 1592.5 1903.68 1597.28 1903.68 1597.28C1903.56 1615.31 1913.63 1625.59 1922.25 1631.08C1925.87 1631.93 1929.87 1633.67 1934.24 1636.59C1934.24 1636.59 1928.65 1635.16 1922.25 1631.08C1902.79 1626.5 1893.98 1647.38 1893.98 1647.38C1849.55 1621.95 1859.54 1673.34 1843.2 1660.5C1826.87 1647.66 1810.38 1671.45 1810.38 1671.45C1810.38 1671.45 1823.26 1683.72 1807.77 1672.94C1792.29 1662.15 1770.26 1682.62 1770.26 1682.62C1759.79 1666.06 1742.88 1676.15 1742.88 1676.15C1736.94 1685.18 1746.15 1709.95 1746.15 1709.95C1717.07 1707.67 1721.9 1744.72 1721.9 1744.72C1690.76 1727.16 1682.54 1766.89 1682.54 1766.89C1656.96 1736.81 1636.02 1761.48 1636.02 1761.48C1636.02 1761.48 1626.92 1742.35 1610.53 1748.03C1594.15 1753.72 1599.36 1774.57 1599.36 1774.57C1584.76 1763.21 1570.7 1786.46 1570.7 1786.46C1547.41 1775.06 1540.79 1799.87 1540.79 1799.87C1519.35 1792.28 1516.05 1808.72 1516.05 1808.72C1518.63 1783.44 1490.47 1780.73 1490.47 1780.73C1482.33 1797.86 1489.7 1811.5 1489.7 1811.5C1474.84 1797.39 1469.78 1814.36 1469.78 1814.36C1453.07 1808.6 1453.07 1825.67 1453.27 1829.48C1453.3 1829.76 1453.32 1830.01 1453.32 1830.22C1453.32 1830.22 1453.3 1829.95 1453.27 1829.48C1452.43 1821.33 1441.79 1782.76 1428.23 1787.69C1414.84 1792.57 1418.26 1830.59 1418.6 1834.05C1418.61 1834.13 1418.61 1834.22 1418.62 1834.3C1418.62 1834.3 1418.61 1834.22 1418.6 1834.05C1416.43 1813.5 1393.96 1814.23 1393.96 1814.23C1387.21 1832.62 1398.65 1837.63 1398.65 1837.63C1398.65 1837.63 1377.49 1850.76 1340.96 1840.21C1304.43 1829.66 1307.11 1858.76 1307.11 1858.76C1288.31 1853.96 1280.36 1877.74 1280.36 1877.74C1256.95 1859.83 1249.21 1888.6 1249.21 1888.6C1228.95 1873.51 1223.54 1892.45 1223.54 1892.45C1212.05 1889.71 1201.15 1895.82 1201.15 1895.82C1186.01 1885.61 1160.83 1891.9 1160.83 1891.9C1151.3 1875.67 1127.54 1882.12 1127.54 1882.12C1105.05 1876.04 1112.07 1901.71 1094.28 1896.83C1076.5 1891.94 1051.31 1905.66 1031.13 1898.08C1010.95 1890.49 981.077 1910.35 970.278 1903.36C959.478 1896.38 942.178 1902.14 942.178 1902.14C946.768 1887.47 936.883 1879.19 936.883 1879.19C916.789 1875.93 916.709 1901.6 916.709 1901.6L911.732 1895.4C903.148 1879.99 883.051 1883.04 883.051 1883.04C876.484 1897.86 892.412 1900.37 892.412 1900.37C892.412 1900.37 881.685 1901.34 871.323 1901.87C860.962 1902.4 845.589 1899.52 841.35 1898.61C837.111 1897.69 812.503 1896.49 804.938 1893.74C797.372 1890.99 774.987 1906.27 762.559 1895.15C750.131 1884.03 722.664 1890.68 705.628 1885.19C688.593 1879.71 683.319 1888.71 651.668 1894.32C620.016 1899.94 604.626 1873.36 562.251 1889.42C522.657 1904.42 560.831 1883.15 500.903 1882.2C479.045 1881.85 474.823 1887.62 474.823 1887.62C462.285 1866.04 435.505 1876.28 435.505 1876.28C426.672 1862.6 415.412 1863.35 408.547 1865.6C406.894 1866.84 404.852 1867.83 402.346 1868.5C402.346 1868.5 404.787 1866.83 408.547 1865.6C420.795 1856.41 411.714 1833.94 411.714 1833.94C391.037 1823 370.706 1849.94 370.706 1849.94L350.687 1851.66C328.159 1834.86 324.623 1854.37 324.623 1854.37C306.129 1835.79 287.543 1847.49 287.543 1847.49C268.936 1817.82 244.724 1834.73 244.724 1834.73C249.938 1822.78 248.319 1819.31 248.319 1819.31C245.596 1780.19 212.165 1799.22 212.165 1799.22C213.507 1784.95 199.755 1785.46 199.755 1785.46C221.504 1760.78 197.854 1728.55 197.854 1728.55C176.648 1726.05 175.457 1760.19 175.403 1762.38C175.791 1743.22 163.49 1744.55 163.49 1744.55C191.561 1729.86 180.979 1693.33 180.979 1693.33C156.583 1679.73 134.732 1715.59 134.732 1715.59C157.348 1675.73 123.366 1651.96 123.366 1651.96C98.7268 1653.77 98.267 1685.87 98.3712 1691.4C98.3809 1691.67 98.3892 1691.94 98.3959 1692.21C98.3959 1692.21 98.381 1691.93 98.3712 1691.4C96.9696 1653.07 64.3829 1659.03 64.3829 1659.03C84.1437 1631.61 57.4806 1601.77 57.4806 1601.77C47.0072 1595.39 31.6816 1613.23 31.6816 1613.23C20.1338 1573.75 -10.3311 1580 -10.3311 1580Z" fill="#110C24"/>
<path fill-rule="evenodd" clip-rule="evenodd" d="M727.74 1413.42C700.656 1442.08 716.249 1468.02 727.432 1477.41C734.095 1468.92 737.161 1469.59 741.96 1461.58C745.692 1449.71 738.749 1433.96 727.74 1413.42ZM725.786 1432.58C721.302 1447.51 718.085 1464 727.432 1477.41L725.786 1432.58Z" fill="url(#paint45_linear_651_18427)"/>
<path d="M727.432 1477.41L725.786 1432.58C721.302 1447.51 718.085 1464 727.432 1477.41Z" fill="url(#paint46_linear_651_18427)"/>
<path fill-rule="evenodd" clip-rule="evenodd" d="M768.624 1446.41C763.768 1485.55 740.877 1479.75 726.519 1477.1C734.661 1468.67 734.912 1461.57 738.382 1456.22C745.155 1445.79 745.776 1451 768.624 1446.41ZM755.448 1457.97C746.791 1470.93 742.812 1475.77 726.519 1477.1L755.448 1457.97Z" fill="url(#paint47_linear_651_18427)"/>
<path d="M726.519 1477.1L755.448 1457.97C746.791 1470.93 742.812 1475.77 726.519 1477.1Z" fill="url(#paint48_linear_651_18427)"/>
<ellipse cx="727.13" cy="1475.94" rx="1.72824" ry="15.5208" transform="rotate(-58.8472 727.13 1475.94)" fill="url(#paint49_linear_651_18427)"/>
<path d="M715.509 1468.83L715.502 1468.85L715.521 1468.82L715.509 1468.83ZM710.58 1462.99C710.614 1463.04 710.679 1463.05 710.725 1463.01C710.772 1462.98 710.782 1462.92 710.748 1462.87C710.714 1462.82 710.649 1462.81 710.603 1462.85C710.556 1462.88 710.546 1462.94 710.58 1462.99ZM708.358 1463.79C708.392 1463.84 708.457 1463.85 708.504 1463.81C708.55 1463.78 708.56 1463.71 708.527 1463.67C708.493 1463.62 708.428 1463.61 708.381 1463.64C708.335 1463.68 708.324 1463.74 708.358 1463.79ZM711.288 1466.8L711.276 1466.82L711.288 1466.8ZM715.509 1468.83C715.515 1468.81 715.515 1468.81 715.515 1468.81C715.515 1468.81 715.515 1468.81 715.515 1468.81C715.515 1468.81 715.515 1468.81 715.514 1468.81C715.514 1468.81 715.514 1468.81 715.513 1468.81C715.512 1468.81 715.51 1468.81 715.507 1468.81C715.502 1468.81 715.494 1468.8 715.484 1468.8C715.463 1468.79 715.433 1468.78 715.394 1468.77C715.315 1468.74 715.202 1468.7 715.061 1468.65C714.78 1468.55 714.389 1468.4 713.953 1468.21C713.081 1467.84 712.028 1467.34 711.3 1466.79L711.276 1466.82C712.008 1467.37 713.065 1467.88 713.938 1468.25C714.375 1468.43 714.766 1468.58 715.048 1468.69C715.189 1468.74 715.302 1468.78 715.381 1468.81C715.42 1468.82 715.45 1468.83 715.471 1468.84C715.481 1468.84 715.489 1468.84 715.494 1468.85C715.497 1468.85 715.499 1468.85 715.5 1468.85C715.501 1468.85 715.502 1468.85 715.502 1468.85C715.502 1468.85 715.502 1468.85 715.502 1468.85C715.502 1468.85 715.502 1468.85 715.502 1468.85C715.502 1468.85 715.502 1468.85 715.509 1468.83ZM711.3 1466.79C710.649 1466.29 709.939 1465.53 709.391 1464.88C709.117 1464.56 708.883 1464.27 708.719 1464.06C708.637 1463.95 708.571 1463.87 708.527 1463.81C708.504 1463.78 708.487 1463.76 708.476 1463.74C708.47 1463.73 708.465 1463.73 708.463 1463.72C708.461 1463.72 708.46 1463.72 708.459 1463.72C708.459 1463.72 708.459 1463.72 708.458 1463.72C708.458 1463.72 708.458 1463.72 708.458 1463.72C708.458 1463.72 708.458 1463.72 708.458 1463.72C708.458 1463.72 708.458 1463.72 708.442 1463.73C708.427 1463.74 708.427 1463.74 708.427 1463.74C708.427 1463.74 708.427 1463.74 708.427 1463.74C708.427 1463.74 708.427 1463.74 708.427 1463.74C708.427 1463.74 708.427 1463.74 708.428 1463.74C708.429 1463.74 708.43 1463.74 708.431 1463.75C708.434 1463.75 708.439 1463.76 708.444 1463.76C708.456 1463.78 708.473 1463.8 708.496 1463.83C708.54 1463.89 708.606 1463.98 708.688 1464.08C708.853 1464.29 709.086 1464.58 709.361 1464.91C709.909 1465.55 710.622 1466.32 711.276 1466.82L711.3 1466.79ZM715.521 1468.82C714.879 1468.3 713.89 1467.17 712.95 1465.99C712.01 1464.81 711.121 1463.6 710.68 1462.92L710.648 1462.94C711.089 1463.62 711.979 1464.84 712.919 1466.01C713.859 1467.19 714.851 1468.33 715.496 1468.85L715.521 1468.82Z" fill="#D46588"/>
<path d="M199.476 1498.04C199.695 1497.14 200.609 1496.58 201.517 1496.8C202.424 1497.02 202.981 1497.93 202.762 1498.84C202.543 1499.75 201.63 1500.3 200.722 1500.08C199.815 1499.87 199.257 1498.95 199.476 1498.04Z" fill="#FCCA91"/>
<path opacity="0.0391503" d="M194.21 1496.34C195.146 1492.46 199.048 1490.08 202.924 1491.01C206.801 1491.95 209.183 1495.85 208.247 1499.73C207.31 1503.61 203.409 1505.99 199.532 1505.05C195.656 1504.12 193.273 1500.21 194.21 1496.34Z" fill="#F8AC54"/>
<path opacity="0.0329471" d="M188.493 1495.42C190.181 1488.43 197.214 1484.14 204.201 1485.83C211.188 1487.51 215.483 1494.55 213.794 1501.54C212.106 1508.52 205.074 1512.82 198.087 1511.13C191.099 1509.45 186.805 1502.41 188.493 1495.42Z" fill="#F8AC54"/>
<g filter="url(#filter5_f_651_18427)">
<path d="M198.868 1497.9C199.169 1496.66 200.418 1495.89 201.66 1496.19C202.901 1496.49 203.664 1497.74 203.363 1498.98C203.063 1500.23 201.814 1500.99 200.573 1500.69C199.331 1500.39 198.569 1499.14 198.868 1497.9Z" fill="#F8AC54"/>
</g>
<path d="M792.69 1664.67C793.021 1663.29 794.401 1662.45 795.776 1662.78C797.137 1663.11 797.98 1664.49 797.648 1665.86C797.316 1667.24 795.937 1668.08 794.576 1667.75C793.201 1667.42 792.358 1666.04 792.69 1664.67Z" fill="#FCCA91"/>
<path opacity="0.0391503" d="M784.724 1662.08C786.14 1656.22 792.038 1652.62 797.899 1654.03C803.76 1655.45 807.362 1661.35 805.946 1667.21C804.53 1673.07 798.632 1676.68 792.771 1675.26C786.91 1673.84 783.307 1667.94 784.724 1662.08Z" fill="#F8AC54"/>
<path opacity="0.0329471" d="M776.081 1660.7C778.633 1650.14 789.273 1643.64 799.828 1646.19C810.398 1648.74 816.884 1659.38 814.331 1669.94C811.779 1680.51 801.154 1687.01 790.584 1684.45C780.028 1681.9 773.528 1671.27 776.081 1660.7Z" fill="#F8AC54"/>
<g filter="url(#filter6_f_651_18427)">
<path d="M791.771 1664.45C792.225 1662.57 794.106 1661.41 795.995 1661.87C797.87 1662.32 799.017 1664.21 798.563 1666.09C798.11 1667.96 796.228 1669.12 794.353 1668.67C792.464 1668.21 791.318 1666.32 791.771 1664.45Z" fill="#F8AC54"/>
</g>
<path d="M981.867 1571.43C982.087 1570.52 982.999 1569.96 983.909 1570.18C984.809 1570.4 985.375 1571.32 985.156 1572.22C984.937 1573.13 984.015 1573.69 983.115 1573.47C982.205 1573.25 981.648 1572.34 981.867 1571.43Z" fill="#FCCA91"/>
<path opacity="0.0391503" d="M976.601 1569.72C977.538 1565.84 981.439 1563.46 985.315 1564.4C989.192 1565.33 991.575 1569.23 990.638 1573.11C989.701 1576.99 985.8 1579.37 981.923 1578.44C978.047 1577.5 975.664 1573.6 976.601 1569.72Z" fill="#F8AC54"/>
<path opacity="0.0329471" d="M970.884 1568.81C972.573 1561.82 979.609 1557.52 986.591 1559.21C993.582 1560.9 997.872 1567.93 996.184 1574.92C994.495 1581.91 987.468 1586.21 980.477 1584.52C973.495 1582.83 969.196 1575.8 970.884 1568.81Z" fill="#F8AC54"/>
<g filter="url(#filter7_f_651_18427)">
<path d="M981.262 1571.28C981.562 1570.04 982.816 1569.28 984.056 1569.58C985.296 1569.88 986.054 1571.13 985.754 1572.37C985.454 1573.61 984.21 1574.38 982.97 1574.08C981.729 1573.78 980.962 1572.53 981.262 1571.28Z" fill="#F8AC54"/>
</g>
<path d="M596.752 1775.03C596.971 1774.12 597.884 1773.56 598.793 1773.78C599.703 1774 600.26 1774.91 600.04 1775.82C599.821 1776.73 598.908 1777.29 597.999 1777.07C597.089 1776.85 596.532 1775.93 596.752 1775.03Z" fill="#FCCA91"/>
<path opacity="0.0391503" d="M591.497 1773.32C592.433 1769.45 596.334 1767.06 600.211 1768C604.079 1768.93 606.47 1772.84 605.534 1776.71C604.597 1780.59 600.687 1782.97 596.819 1782.04C592.942 1781.1 590.56 1777.2 591.497 1773.32Z" fill="#F8AC54"/>
<path opacity="0.0329471" d="M585.767 1772.4C587.455 1765.41 594.492 1761.12 601.483 1762.81C608.464 1764.49 612.764 1771.53 611.075 1778.52C609.387 1785.51 602.35 1789.8 595.369 1788.11C588.378 1786.43 584.078 1779.39 585.767 1772.4Z" fill="#F8AC54"/>
<g filter="url(#filter8_f_651_18427)">
<path d="M596.144 1774.88C596.444 1773.64 597.698 1772.88 598.938 1773.17C600.178 1773.47 600.946 1774.72 600.646 1775.97C600.346 1777.21 599.092 1777.97 597.852 1777.67C596.612 1777.37 595.844 1776.12 596.144 1774.88Z" fill="#F8AC54"/>
</g>
<path d="M80.1094 1634.67C80.3288 1633.76 81.2422 1633.2 82.1498 1633.42C83.0574 1633.64 83.6157 1634.56 83.3964 1635.46C83.177 1636.37 82.2634 1636.93 81.3558 1636.71C80.4481 1636.49 79.8901 1635.58 80.1094 1634.67Z" fill="#FCCA91"/>
<path opacity="0.0391503" d="M74.8479 1632.96C75.7847 1629.08 79.6857 1626.7 83.5624 1627.64C87.4382 1628.57 89.8217 1632.48 88.8849 1636.35C87.9483 1640.23 84.0471 1642.61 80.1713 1641.67C76.2946 1640.74 73.9114 1636.84 74.8479 1632.96Z" fill="#F8AC54"/>
<path opacity="0.0329471" d="M69.1266 1632.05C70.8148 1625.06 77.848 1620.76 84.8352 1622.45C91.8215 1624.14 96.1172 1631.17 94.429 1638.16C92.7403 1645.15 85.7084 1649.44 78.7221 1647.75C71.7348 1646.07 67.4379 1639.04 69.1266 1632.05Z" fill="#F8AC54"/>
<g filter="url(#filter9_f_651_18427)">
<path d="M79.5017 1634.52C79.8016 1633.28 81.0517 1632.52 82.2928 1632.82C83.5348 1633.12 84.2975 1634.37 83.9976 1635.61C83.6974 1636.85 82.4484 1637.61 81.2064 1637.31C79.9653 1637.01 79.2016 1635.77 79.5017 1634.52Z" fill="#F8AC54"/>
</g>
<path d="M185.362 1791.18C185.581 1790.27 186.495 1789.72 187.402 1789.94C188.31 1790.16 188.868 1791.07 188.649 1791.98C188.429 1792.88 187.516 1793.44 186.608 1793.22C185.701 1793 185.143 1792.09 185.362 1791.18Z" fill="#FCCA91"/>
<path opacity="0.0391503" d="M180.1 1789.48C181.037 1785.6 184.938 1783.22 188.815 1784.15C192.691 1785.09 195.074 1788.99 194.137 1792.87C193.201 1796.74 189.299 1799.12 185.424 1798.19C181.547 1797.25 179.164 1793.35 180.1 1789.48Z" fill="#F8AC54"/>
<path opacity="0.0329471" d="M174.379 1788.56C176.067 1781.57 183.101 1777.28 190.088 1778.96C197.074 1780.65 201.37 1787.69 199.682 1794.67C197.993 1801.66 190.961 1805.96 183.975 1804.27C176.988 1802.58 172.691 1795.55 174.379 1788.56Z" fill="#F8AC54"/>
<g filter="url(#filter10_f_651_18427)">
<path d="M184.754 1791.04C185.054 1789.8 186.304 1789.03 187.545 1789.33C188.787 1789.63 189.55 1790.88 189.25 1792.12C188.95 1793.37 187.701 1794.13 186.459 1793.83C185.218 1793.53 184.454 1792.28 184.754 1791.04Z" fill="#F8AC54"/>
</g>
<path d="M117.888 1361.15C118.315 1359.38 120.085 1358.3 121.858 1358.73C123.621 1359.15 124.709 1360.93 124.282 1362.7C123.855 1364.46 122.077 1365.54 120.313 1365.12C118.54 1364.69 117.461 1362.92 117.888 1361.15Z" fill="#FCCA91"/>
<path opacity="0.0391503" d="M107.654 1357.83C109.476 1350.29 117.062 1345.65 124.604 1347.47C132.137 1349.29 136.778 1356.88 134.956 1364.42C133.134 1371.97 125.54 1376.6 118.007 1374.78C110.465 1372.96 105.832 1365.37 107.654 1357.83Z" fill="#F8AC54"/>
<path opacity="0.0329471" d="M96.525 1356.05C99.8094 1342.45 113.486 1334.1 127.082 1337.38C140.669 1340.66 149.031 1354.35 145.746 1367.94C142.462 1381.53 128.776 1389.89 115.19 1386.61C101.594 1383.32 93.2407 1369.64 96.525 1356.05Z" fill="#F8AC54"/>
<g filter="url(#filter11_f_651_18427)">
<path d="M116.712 1360.86C117.295 1358.45 119.725 1356.96 122.141 1357.55C124.557 1358.13 126.041 1360.56 125.457 1362.98C124.874 1365.39 122.444 1366.88 120.028 1366.29C117.612 1365.71 116.128 1363.28 116.712 1360.86Z" fill="#F8AC54"/>
</g>
<path d="M586.179 1349.16C586.297 1347.93 587.384 1347.03 588.619 1347.15C589.847 1347.27 590.749 1348.36 590.631 1349.59C590.513 1350.82 589.419 1351.72 588.191 1351.6C586.956 1351.48 586.06 1350.39 586.179 1349.16Z" fill="#FCCA91"/>
<path opacity="0.0391503" d="M578.971 1347.91C579.476 1342.65 584.139 1338.8 589.392 1339.31C594.638 1339.81 598.49 1344.48 597.985 1349.73C597.48 1354.98 592.811 1358.83 587.564 1358.33C582.312 1357.82 578.467 1353.16 578.971 1347.91Z" fill="#F8AC54"/>
<path opacity="0.0329471" d="M571.307 1347.77C572.216 1338.3 580.625 1331.37 590.093 1332.28C599.555 1333.19 606.495 1341.6 605.585 1351.07C604.675 1360.53 596.261 1367.47 586.799 1366.56C577.33 1365.65 570.397 1357.24 571.307 1347.77Z" fill="#F8AC54"/>
<g filter="url(#filter12_f_651_18427)">
<path d="M585.358 1349.08C585.519 1347.4 587.013 1346.17 588.696 1346.33C590.378 1346.49 591.61 1347.99 591.448 1349.67C591.287 1351.35 589.793 1352.58 588.11 1352.42C586.428 1352.26 585.196 1350.76 585.358 1349.08Z" fill="#F8AC54"/>
</g>
<path d="M1023.18 1384.14C1023.68 1382.07 1025.76 1380.8 1027.81 1381.3C1029.88 1381.8 1031.15 1383.88 1030.65 1385.94C1030.15 1388 1028.08 1389.27 1026.01 1388.77C1023.95 1388.28 1022.68 1386.2 1023.18 1384.14Z" fill="#FCCA91"/>
<path opacity="0.0391503" d="M1011.23 1380.26C1013.36 1371.45 1022.22 1366.03 1031.03 1368.16C1039.84 1370.29 1045.25 1379.15 1043.12 1387.97C1040.99 1396.78 1032.13 1402.2 1023.32 1400.07C1014.51 1397.94 1009.1 1389.07 1011.23 1380.26Z" fill="#F8AC54"/>
<path opacity="0.0329471" d="M998.222 1378.18C1002.06 1362.29 1018.04 1352.53 1033.92 1356.36C1049.8 1360.2 1059.56 1376.19 1055.72 1392.07C1051.88 1407.95 1035.9 1417.72 1020.03 1413.88C1004.14 1410.04 994.385 1394.06 998.222 1378.18Z" fill="#F8AC54"/>
<g filter="url(#filter13_f_651_18427)">
<path d="M1021.8 1383.8C1022.48 1380.98 1025.32 1379.25 1028.14 1379.93C1030.96 1380.61 1032.7 1383.45 1032.02 1386.27C1031.33 1389.09 1028.49 1390.83 1025.67 1390.15C1022.85 1389.46 1021.12 1386.62 1021.8 1383.8Z" fill="#F8AC54"/>
</g>
<path d="M-188.436 1353.9L-66.5863 555.409C-66.5863 555.409 -226.23 -130.377 -226.565 -220.89C-226.899 -311.403 -107.9 -233.307 -107.9 -233.307C-107.9 -233.307 -35.8856 350.472 -6.0211 394.291C-6.0211 394.291 113.653 -205.266 158.5 -278.541C203.346 -351.817 448.266 -263.083 448.266 -263.083C448.266 -263.083 265.613 139.945 266.193 171.895C266.772 203.845 117.141 693.365 117.644 721.095C118.147 748.827 350.247 705.882 376.95 669.08C403.651 632.277 570.978 458.968 583.718 458.737C591.865 458.589 621.176 452.007 643.481 469.571C649.995 474.699 674.641 464.603 679.379 475.796C683.787 486.212 689.727 497.987 689.727 497.987C689.727 497.987 395.133 774.979 309.663 788.302C224.194 801.625 119.718 813.107 120.819 905.134C121.922 997.161 -19.7402 1497.37 -19.7402 1497.37L-180.618 1354.59L-188.436 1353.9Z" fill="url(#paint50_linear_651_18427)" fill-opacity="0.42"/>
<path opacity="0.04" d="M375.898 185.745C375.898 -102.018 609.126 -335.296 896.824 -335.296C1184.53 -335.296 1417.76 -102.018 1417.76 185.745C1417.76 473.507 1184.53 706.785 896.824 706.785C609.126 706.785 375.898 473.507 375.898 185.745Z" fill="#979499"/>
<path opacity="0.04" d="M529.068 185.744C529.068 -17.4081 693.719 -182.095 896.826 -182.095C1099.94 -182.095 1264.59 -17.4081 1264.59 185.744C1264.59 388.896 1099.94 553.584 896.826 553.584C693.719 553.584 529.068 388.896 529.068 185.744Z" fill="#979499"/>
<path opacity="0.03" d="M651.269 193.931C651.269 58.284 761.213 -51.6798 896.827 -51.6798C1032.45 -51.6798 1142.39 58.284 1142.39 193.931C1142.39 329.578 1032.45 439.542 896.827 439.542C761.213 439.542 651.269 329.578 651.269 193.931Z" fill="#979499"/>
<path opacity="0.780606" d="M773.881 185.746C773.881 117.83 828.922 62.7733 896.826 62.7733C964.729 62.7733 1019.77 117.83 1019.77 185.746C1019.77 253.662 964.729 308.719 896.826 308.719C828.922 308.719 773.881 253.662 773.881 185.746Z" fill="url(#paint51_linear_651_18427)"/>
<path fill-rule="evenodd" clip-rule="evenodd" d="M949.099 1849.02C943.788 1849.95 932.848 1850.67 911.679 1845.86C884.431 1839.66 867.556 1810.83 867.556 1810.83C870.863 1812.63 888.708 1827.25 912.148 1827.57C923.562 1827.71 932.622 1832.42 939.979 1837.36C935.66 1831.59 931.742 1826 928.213 1820.63C913.153 1822.77 900.259 1816.57 873.656 1801.94C846.559 1787.04 843.372 1764.22 843.372 1764.22C843.372 1764.22 867.33 1788.68 892.713 1792.72C904.392 1794.57 912.858 1800.55 919.454 1806.59C917.842 1803.85 916.338 1801.2 914.945 1798.67C913.062 1795.25 911.342 1791.95 909.746 1788.77C892.755 1784.8 880.926 1775.61 861.074 1746.44C840.725 1716.53 847.773 1701.71 847.773 1701.71C847.773 1701.71 851.461 1720.47 871.57 1738.57C883.904 1749.66 896.735 1766.5 904.382 1777.52C900.004 1767.96 896.312 1758.11 893.331 1748.03C881.386 1731.23 868.873 1703.4 867.729 1687.08C866.461 1669.15 866.668 1654.85 866.668 1654.85C883.467 1671.14 888.547 1695.62 889.748 1702.49C884.864 1668.66 902.667 1637.54 902.667 1637.54C900.15 1650.64 919.621 1683.82 911.415 1707.15C905.84 1722.97 900.805 1738.55 898.533 1746.63C900.674 1754.06 906.172 1770.66 917.444 1791.97C916.136 1785.97 914.181 1778.36 909.848 1757.75C903.689 1728.38 923.724 1701.19 923.724 1701.19C917.548 1720.31 926.16 1745.41 927.399 1767.92C927.912 1779.43 926.395 1790.93 922.936 1801.91C926.427 1807.93 930.463 1814.45 935.115 1821.31C932.631 1806.37 930.399 1782.56 935.96 1766.57C939.921 1755.16 940.234 1733.09 940.234 1733.09C940.234 1733.09 957.14 1746.2 952.39 1775.71C948.107 1802.33 946.111 1814.65 940.74 1829.33C945.503 1835.94 950.824 1842.81 956.737 1849.83C951.698 1838.13 947.386 1822.06 954.53 1807.9C967.313 1782.56 960.738 1767.91 960.738 1767.91C960.738 1767.91 974.431 1773.14 974.262 1819.08C974.161 1845.39 971.039 1857.44 968.248 1862.82C972.513 1867.42 977.057 1872.05 981.859 1876.71C977.866 1864.81 973.248 1842.26 982.995 1823.1C988.093 1813.07 992.924 1798.04 992.924 1798.04C992.924 1798.04 1000.81 1826.68 997.951 1852.72C995.444 1875.64 992.063 1880.53 988.436 1882.9L1017.01 1906.45C1018.2 1907.34 1018.44 1909.03 1017.54 1910.21C1016.65 1911.4 1014.96 1911.63 1013.77 1910.74C1004.87 1904 996.265 1897.17 988.589 1890.3C984.927 1894.1 979.929 1896.32 974.66 1896.49C963.893 1896.84 959.434 1888.94 955.11 1890.67C955.11 1890.67 961.363 1882.03 967.787 1883.81C974.21 1885.58 976.329 1888.04 981.896 1887.65C982.91 1887.49 983.91 1887.25 984.895 1886.94C980.185 1882.6 975.696 1878.27 971.448 1873.94C963.118 1878.12 948.388 1880.53 925.744 1880.88C900.71 1881.27 880.625 1850.1 880.625 1850.1C880.625 1850.1 891.261 1860.42 926.181 1861.51C946.573 1862.15 959.656 1866.32 966.712 1869.02L949.099 1849.02Z" fill="url(#paint52_linear_651_18427)"/>
<path fill-rule="evenodd" clip-rule="evenodd" d="M18.6534 1273.94C20.8462 1271.62 18.6567 1263.52 22.3206 1240.16C27.3844 1236.63 45.2629 1223.77 56.7394 1211.64C66.4565 1201.36 72.4818 1190.72 66.9533 1185.48C60.7475 1179.61 48.7517 1188.49 40.2851 1197.55C35.2517 1202.89 31.034 1208.94 27.768 1215.51C29.0541 1209.74 35.0819 1184.19 37.4679 1178.49C42.7103 1178.12 60.586 1177.9 71.0693 1176.02C83.1875 1173.86 100.076 1168.97 105.906 1162.8C109.075 1159.45 109.141 1155.35 104.287 1150.76C93.2663 1140.32 54.5231 1159.41 53.0437 1160.45C53.0038 1160.48 43.3511 1167.74 43.2921 1167.61C49.1866 1156.38 53.9303 1148.48 61.6332 1138.78C67.8591 1139.27 114.23 1141.66 123.42 1131.69C124.206 1130.83 124.711 1129.75 124.866 1128.59C125.202 1126.89 124.565 1125.14 123.211 1124.05C115.956 1117.18 86.6906 1120.19 75.7212 1122.31L90.595 1106.59C100.587 1107.49 110.635 1107.61 120.647 1106.94C131.311 1106.07 146.938 1099.13 152.959 1092.6C155.551 1089.78 156.458 1087.1 154.279 1084.9C153.39 1084.08 152.354 1083.43 151.225 1082.99C138.651 1077.6 114.844 1089.14 105.553 1093.92C109.804 1089.83 114.602 1086.35 119.808 1083.57C121.483 1082.72 139.476 1070.47 151.996 1057.41C161.609 1047.39 168.409 1035.71 163.518 1031.06C157.961 1025.78 145.93 1032.36 135.541 1043.33C124.135 1055.37 113.692 1072.74 108.36 1084.66C101.12 1091.81 97.1834 1094.84 90.4694 1102C90.4694 1102 114.694 1063.83 104.464 1054.15C93.9088 1044.16 74.1276 1102.62 75.5956 1117.72C70.6188 1122.96 65.9165 1128.46 61.5077 1134.19C65.4045 1120.93 75.1687 1091.98 67.0289 1084.28C63.7595 1081.19 58.9882 1083.34 56.3662 1086.11C44.1799 1098.99 48.9485 1150.62 48.9485 1150.62C44.9448 1156.37 41.2765 1162.35 37.9606 1168.53C37.9606 1168.53 49.1474 1123.35 30.6525 1120.97C12.3619 1118.61 21.0637 1171.39 30.7749 1185.57C29.9678 1188.01 22.1304 1220.76 19.0529 1232.59C19.0422 1232.35 18.0164 1222.67 18.0164 1222.67C18.0164 1222.67 14.3138 1168.93 -4.73221 1174.32C-21.4509 1179.05 -4.10788 1233.02 14.1819 1250.33C11.6584 1266.09 13.2385 1271.79 13.2385 1271.79C13.5273 1272.91 14.0804 1273.95 14.8515 1274.81C15.8322 1275.78 16.8504 1275.84 18.6534 1273.94Z" fill="url(#paint53_linear_651_18427)"/>
<path d="M89.0727 -29.9041C89.0727 -29.9041 -11.8569 98.7575 13.4316 101.395C38.7201 104.033 78.6136 -27.8592 72.8693 24.6297C67.1251 77.1187 60.5591 164.685 82.0182 166.505C103.477 168.326 71.3205 -1.33496 82.7808 18.4785C94.241 38.2921 117.978 177.266 143.859 158.385C169.741 139.504 68.6668 -14.7943 90.7491 -6.01266C112.831 2.76895 177.199 83.9168 181.101 115.806C185.005 147.695 203.13 132.231 197.192 107.046C191.254 81.86 81.017 -40.9502 132.423 0.28488C183.829 41.5199 193.53 -0.37628 91.8516 -29.7979L89.0727 -29.9041Z" fill="url(#paint54_linear_651_18427)"/>
<path fill-rule="evenodd" clip-rule="evenodd" d="M223.443 30.0689C219.01 23.4974 214.107 17.2549 208.775 11.3897C205.102 7.29388 204.445 5.61156 200.729 2.11734C206.945 7.78749 219.631 13.2297 228.937 12.3497C238.883 11.4091 249.714 4.65168 249.714 4.65168C249.714 4.65168 242.751 -7.3922 233.892 -11.0519C222.078 -15.9331 200.695 -13.2272 191.263 -7.02065C172.721 -23.8429 160.627 -29.7997 160.427 -29.9041L157.988 -25.3735C158.18 -25.2726 170.772 -20.0609 188.69 -3.91071C175.849 6.34489 173.928 21.9118 174.862 31.7964C175.938 43.1613 183.848 51.0131 183.848 51.0131C183.848 51.0131 194.952 41.9321 198.135 35.3288C201.334 28.6958 202.354 15.1215 198.156 5.22733C200.534 7.62125 202.254 10.5502 204.646 13.2135C209.894 19.0567 214.205 25.5589 219.449 33.3132C213.18 39.7826 208.295 44.9793 204.279 54.8142C198.473 69.03 208.519 84.5126 208.519 84.5126C208.519 84.5126 222.4 80.8135 227.069 68.4252C229.066 63.1311 228.341 51.5467 227.629 44.0061C233.66 54.4587 238.551 65.5287 242.22 77.0258C235.482 80.4135 221.381 87.0527 216.968 98.0467C213.613 106.401 213.213 116.531 216.677 125.307C225.04 124.527 233.363 121.194 238.607 114.633C244.633 107.092 245.768 95.3045 246.271 89.5425C250.695 100.786 248.929 116.838 248.744 130.875C239.732 132.138 229.33 132.309 220.862 139.244C209.054 148.915 207.649 166.293 207.649 166.293C207.649 166.293 226.935 164.427 235.665 159.344C241.454 155.973 246.236 147.375 249.551 139.398C249.2 155.132 249.73 170.873 251.141 186.547C245.528 188.644 227.11 197.603 221.626 207.972C213.621 223.1 219.779 233.946 219.779 233.946C219.779 233.946 234.489 233.145 241.978 226.113C250.045 218.536 251.407 204.419 252.215 197.912C253.8 211.864 256.395 228.235 259.085 240.261C253.58 244.388 239.606 255.806 237.347 268.116C234.538 283.423 242.471 291.999 242.471 291.999C242.471 291.999 252.222 289.241 259.735 277.466C264.481 270.028 263.195 257.669 263.271 254.198C264.671 263.956 271.151 278.514 274.617 283.225C275.252 288.557 279.043 309.168 289.342 317.665C298.05 324.847 313.017 325.459 313.017 325.459C313.017 325.459 315.209 312.762 310.734 301.309C306.269 289.882 286.05 283.279 278.746 281.401C273.142 273.905 271.094 270.562 265.845 251.089C269.262 256.151 278.414 264.046 288.981 265.151C305.182 266.846 315.365 259.305 315.365 259.305C315.365 259.305 313.125 246.889 299.19 239.396C286.976 232.827 270.14 236.148 263.214 238.438C260.264 224.973 258.718 213.981 256.478 197.508C260.316 206.105 266.168 213.941 274.258 218.76C282.205 223.495 298.95 222.158 298.95 222.158C298.95 222.158 296.973 201.566 284.762 193.4C272.818 185.414 260.934 186.299 255.404 186.144C253.938 170.473 253.407 154.729 253.812 138.995C255.178 147.52 258.163 158.735 263.335 163.894C272.729 173.267 290.12 174.261 290.12 174.261C290.12 174.261 288.279 154.826 281.751 146.386C274.725 137.302 264.165 133.198 253.007 130.471C253.229 114.624 254.903 102.138 250.534 89.1393C253.673 95.2508 258.266 99.8642 264.934 104.977C273.761 111.748 291.182 109.662 291.182 109.662C291.182 109.662 285.631 92.5861 278.818 85.0312C269.825 75.0582 253.374 75.9924 246.483 76.6226C246.388 75.75 236.305 51.4301 229.867 40.8003C235.497 47.274 243.578 52.3683 250.018 53.3554C262.762 55.3096 275.595 50.9366 275.595 50.9366C275.595 50.9366 268.599 36.1406 256.529 31.2401C245.704 26.8456 227.706 29.6657 223.443 30.0689Z" fill="url(#paint55_linear_651_18427)" fill-opacity="0.79"/>
</g>
<defs>
<filter id="filter0_f_651_18427" x="812.914" y="1503.62" width="194.582" height="238.33" filterUnits="userSpaceOnUse" color-interpolation-filters="sRGB">
<feFlood flood-opacity="0" result="BackgroundImageFix"/>
<feBlend mode="normal" in="SourceGraphic" in2="BackgroundImageFix" result="shape"/>
<feGaussianBlur stdDeviation="3.5" result="effect1_foregroundBlur_651_18427"/>
</filter>
<filter id="filter1_f_651_18427" x="-44.1655" y="1481.67" width="205.952" height="224.272" filterUnits="userSpaceOnUse" color-interpolation-filters="sRGB">
<feFlood flood-opacity="0" result="BackgroundImageFix"/>
<feBlend mode="normal" in="SourceGraphic" in2="BackgroundImageFix" result="shape"/>
<feGaussianBlur stdDeviation="3.5" result="effect1_foregroundBlur_651_18427"/>
</filter>
<filter id="filter2_f_651_18427" x="-1520.16" y="1612.44" width="3945.45" height="520.036" filterUnits="userSpaceOnUse" color-interpolation-filters="sRGB">
<feFlood flood-opacity="0" result="BackgroundImageFix"/>
<feBlend mode="normal" in="SourceGraphic" in2="BackgroundImageFix" result="shape"/>
<feGaussianBlur stdDeviation="6.75" result="effect1_foregroundBlur_651_18427"/>
</filter>
<filter id="filter3_f_651_18427" x="535.196" y="1532.89" width="146.683" height="202.736" filterUnits="userSpaceOnUse" color-interpolation-filters="sRGB">
<feFlood flood-opacity="0" result="BackgroundImageFix"/>
<feBlend mode="normal" in="SourceGraphic" in2="BackgroundImageFix" result="shape"/>
<feGaussianBlur stdDeviation="0.923469" result="effect1_foregroundBlur_651_18427"/>
</filter>
<filter id="filter4_f_651_18427" x="94.365" y="1240.4" width="604.041" height="521.912" filterUnits="userSpaceOnUse" color-interpolation-filters="sRGB">
<feFlood flood-opacity="0" result="BackgroundImageFix"/>
<feBlend mode="normal" in="SourceGraphic" in2="BackgroundImageFix" result="shape"/>
<feGaussianBlur stdDeviation="23.9077" result="effect1_foregroundBlur_651_18427"/>
</filter>
<filter id="filter5_f_651_18427" x="186.491" y="1483.82" width="29.2507" height="29.2524" filterUnits="userSpaceOnUse" color-interpolation-filters="sRGB">
<feFlood flood-opacity="0" result="BackgroundImageFix"/>
<feBlend mode="normal" in="SourceGraphic" in2="BackgroundImageFix" result="shape"/>
<feGaussianBlur stdDeviation="6.15629" result="effect1_foregroundBlur_651_18427"/>
</filter>
<filter id="filter6_f_651_18427" x="779.36" y="1649.46" width="31.6149" height="31.6205" filterUnits="userSpaceOnUse" color-interpolation-filters="sRGB">
<feFlood flood-opacity="0" result="BackgroundImageFix"/>
<feBlend mode="normal" in="SourceGraphic" in2="BackgroundImageFix" result="shape"/>
<feGaussianBlur stdDeviation="6.15629" result="effect1_foregroundBlur_651_18427"/>
</filter>
<filter id="filter7_f_651_18427" x="968.884" y="1557.2" width="29.2477" height="29.2521" filterUnits="userSpaceOnUse" color-interpolation-filters="sRGB">
<feFlood flood-opacity="0" result="BackgroundImageFix"/>
<feBlend mode="normal" in="SourceGraphic" in2="BackgroundImageFix" result="shape"/>
<feGaussianBlur stdDeviation="6.15629" result="effect1_foregroundBlur_651_18427"/>
</filter>
<filter id="filter8_f_651_18427" x="583.767" y="1760.8" width="29.2565" height="29.2524" filterUnits="userSpaceOnUse" color-interpolation-filters="sRGB">
<feFlood flood-opacity="0" result="BackgroundImageFix"/>
<feBlend mode="normal" in="SourceGraphic" in2="BackgroundImageFix" result="shape"/>
<feGaussianBlur stdDeviation="6.15629" result="effect1_foregroundBlur_651_18427"/>
</filter>
<filter id="filter9_f_651_18427" x="67.1239" y="1620.44" width="29.2514" height="29.2524" filterUnits="userSpaceOnUse" color-interpolation-filters="sRGB">
<feFlood flood-opacity="0" result="BackgroundImageFix"/>
<feBlend mode="normal" in="SourceGraphic" in2="BackgroundImageFix" result="shape"/>
<feGaussianBlur stdDeviation="6.15629" result="effect1_foregroundBlur_651_18427"/>
</filter>
<filter id="filter10_f_651_18427" x="172.376" y="1776.95" width="29.2514" height="29.2524" filterUnits="userSpaceOnUse" color-interpolation-filters="sRGB">
<feFlood flood-opacity="0" result="BackgroundImageFix"/>
<feBlend mode="normal" in="SourceGraphic" in2="BackgroundImageFix" result="shape"/>
<feGaussianBlur stdDeviation="6.15629" result="effect1_foregroundBlur_651_18427"/>
</filter>
<filter id="filter11_f_651_18427" x="104.272" y="1345.11" width="33.6244" height="33.6237" filterUnits="userSpaceOnUse" color-interpolation-filters="sRGB">
<feFlood flood-opacity="0" result="BackgroundImageFix"/>
<feBlend mode="normal" in="SourceGraphic" in2="BackgroundImageFix" result="shape"/>
<feGaussianBlur stdDeviation="6.15629" result="effect1_foregroundBlur_651_18427"/>
</filter>
<filter id="filter12_f_651_18427" x="573.031" y="1334" width="30.7441" height="30.7436" filterUnits="userSpaceOnUse" color-interpolation-filters="sRGB">
<feFlood flood-opacity="0" result="BackgroundImageFix"/>
<feBlend mode="normal" in="SourceGraphic" in2="BackgroundImageFix" result="shape"/>
<feGaussianBlur stdDeviation="6.15629" result="effect1_foregroundBlur_651_18427"/>
</filter>
<filter id="filter13_f_651_18427" x="1009.34" y="1367.47" width="35.1371" height="35.1408" filterUnits="userSpaceOnUse" color-interpolation-filters="sRGB">
<feFlood flood-opacity="0" result="BackgroundImageFix"/>
<feBlend mode="normal" in="SourceGraphic" in2="BackgroundImageFix" result="shape"/>
<feGaussianBlur stdDeviation="6.15629" result="effect1_foregroundBlur_651_18427"/>
</filter>
<linearGradient id="paint0_linear_651_18427" x1="1034.08" y1="1383.51" x2="3451.5" y2="1371.67" gradientUnits="userSpaceOnUse">
<stop stop-color="#2C185A"/>
<stop offset="1" stop-color="#5840A1"/>
</linearGradient>
<radialGradient id="paint1_radial_651_18427" cx="0" cy="0" r="1" gradientUnits="userSpaceOnUse" gradientTransform="translate(621.512 80.2888) rotate(-37.0424) scale(450.325 450.34)">
<stop stop-color="#FF9CAA"/>
<stop offset="0.396043" stop-color="#6633CC"/>
<stop offset="1"/>
</radialGradient>
<linearGradient id="paint2_linear_651_18427" x1="388.755" y1="1329.62" x2="336.117" y2="1319.66" gradientUnits="userSpaceOnUse">
<stop stop-color="#DDA165"/>
<stop offset="1" stop-color="#BE5D28"/>
</linearGradient>
<linearGradient id="paint3_linear_651_18427" x1="364.32" y1="1313.71" x2="384.031" y2="1341.7" gradientUnits="userSpaceOnUse">
<stop stop-opacity="0"/>
<stop offset="1" stop-color="#E40676"/>
</linearGradient>
<linearGradient id="paint4_linear_651_18427" x1="351.637" y1="1237.7" x2="334.388" y2="1323.63" gradientUnits="userSpaceOnUse">
<stop stop-color="#D59861"/>
<stop offset="0.86" stop-color="#FEDCB9"/>
<stop offset="1" stop-color="#FEDCB9" stop-opacity="0"/>
</linearGradient>
<linearGradient id="paint5_linear_651_18427" x1="347.768" y1="1257.48" x2="370.902" y2="1268.15" gradientUnits="userSpaceOnUse">
<stop stop-opacity="0"/>
<stop offset="1" stop-color="#E40676"/>
</linearGradient>
<linearGradient id="paint6_linear_651_18427" x1="318.475" y1="1349.17" x2="309.636" y2="1491.65" gradientUnits="userSpaceOnUse">
<stop stop-color="#DDA165"/>
<stop offset="1" stop-color="#BE5D28"/>
</linearGradient>
<linearGradient id="paint7_linear_651_18427" x1="323.684" y1="1355.29" x2="401.402" y2="1441.72" gradientUnits="userSpaceOnUse">
<stop stop-opacity="0"/>
<stop offset="1" stop-color="#E40676"/>
</linearGradient>
<linearGradient id="paint8_linear_651_18427" x1="254.631" y1="1350.76" x2="200.58" y2="1279.21" gradientUnits="userSpaceOnUse">
<stop stop-color="#A06C4A"/>
<stop offset="1" stop-color="#BE5D28"/>
</linearGradient>
<linearGradient id="paint9_linear_651_18427" x1="245.778" y1="1310.64" x2="190.008" y2="1329.89" gradientUnits="userSpaceOnUse">
<stop stop-opacity="0"/>
<stop offset="1" stop-color="#100030"/>
</linearGradient>
<linearGradient id="paint10_linear_651_18427" x1="345.991" y1="1354.39" x2="257.602" y2="1401.29" gradientUnits="userSpaceOnUse">
<stop stop-color="#FBE2A7"/>
<stop offset="1" stop-color="#FBE2A7" stop-opacity="0"/>
</linearGradient>
<linearGradient id="paint11_linear_651_18427" x1="209.301" y1="1294.86" x2="240.428" y2="1338.45" gradientUnits="userSpaceOnUse">
<stop stop-color="#FBE2A7"/>
<stop offset="1" stop-color="#FBE2A7" stop-opacity="0"/>
</linearGradient>
<linearGradient id="paint12_linear_651_18427" x1="240.777" y1="1309.09" x2="200.564" y2="1326.53" gradientUnits="userSpaceOnUse">
<stop stop-opacity="0"/>
<stop offset="1" stop-color="#100030"/>
</linearGradient>
<linearGradient id="paint13_linear_651_18427" x1="370.822" y1="1412.08" x2="355.212" y2="1470.26" gradientUnits="userSpaceOnUse">
<stop stop-color="#FBE2A7"/>
<stop offset="1" stop-color="#FBE2A7" stop-opacity="0"/>
</linearGradient>
<linearGradient id="paint14_linear_651_18427" x1="328.607" y1="1382.54" x2="265.999" y2="1370.69" gradientUnits="userSpaceOnUse">
<stop stop-color="#FCF9F6"/>
<stop offset="1" stop-color="#E5D5AF"/>
</linearGradient>
<linearGradient id="paint15_linear_651_18427" x1="308.272" y1="1372.34" x2="298.384" y2="1399.98" gradientUnits="userSpaceOnUse">
<stop stop-color="#010101"/>
<stop offset="1" stop-color="#86644C"/>
</linearGradient>
<linearGradient id="paint16_linear_651_18427" x1="236.741" y1="1222.91" x2="272.693" y2="1332.52" gradientUnits="userSpaceOnUse">
<stop stop-color="#D59861"/>
<stop offset="0.86" stop-color="#FEDCB9"/>
<stop offset="1" stop-color="#FEDCB9" stop-opacity="0"/>
</linearGradient>
<linearGradient id="paint17_linear_651_18427" x1="272.682" y1="1278.5" x2="217.687" y2="1286.12" gradientUnits="userSpaceOnUse">
<stop stop-opacity="0"/>
<stop offset="1" stop-color="#100030"/>
</linearGradient>
<linearGradient id="paint18_linear_651_18427" x1="382.313" y1="1364.17" x2="371.3" y2="1421.05" gradientUnits="userSpaceOnUse">
<stop stop-color="#6D3B87" stop-opacity="0"/>
<stop offset="1" stop-color="#744998" stop-opacity="0.38"/>
</linearGradient>
<linearGradient id="paint19_linear_651_18427" x1="320.517" y1="1360.41" x2="307.831" y2="1425.93" gradientUnits="userSpaceOnUse">
<stop stop-color="#6D3B87" stop-opacity="0"/>
<stop offset="1" stop-color="#744998" stop-opacity="0.38"/>
</linearGradient>
<linearGradient id="paint20_linear_651_18427" x1="419.127" y1="1643.09" x2="468.425" y2="1711.47" gradientUnits="userSpaceOnUse">
<stop stop-color="#DEA163"/>
<stop offset="1" stop-color="#CC7A3C"/>
</linearGradient>
<linearGradient id="paint21_linear_651_18427" x1="335.921" y1="1671.71" x2="258.783" y2="1478.4" gradientUnits="userSpaceOnUse">
<stop stop-color="#EDE3DC"/>
<stop offset="1" stop-color="#010101"/>
</linearGradient>
<linearGradient id="paint22_linear_651_18427" x1="266.304" y1="1552.21" x2="198.439" y2="1434.64" gradientUnits="userSpaceOnUse">
<stop stop-color="#E5B740"/>
<stop offset="1" stop-color="#743C19"/>
</linearGradient>
<linearGradient id="paint23_linear_651_18427" x1="260.7" y1="1563.74" x2="354.764" y2="1521.81" gradientUnits="userSpaceOnUse">
<stop stop-color="#6D3B87" stop-opacity="0"/>
<stop offset="1" stop-color="#CD39C3"/>
</linearGradient>
<linearGradient id="paint24_linear_651_18427" x1="250.821" y1="1481.79" x2="222.279" y2="1579.75" gradientUnits="userSpaceOnUse">
<stop stop-color="#EDE3DC"/>
<stop offset="1" stop-color="#010101"/>
</linearGradient>
<linearGradient id="paint25_linear_651_18427" x1="511.397" y1="1501.63" x2="-310.696" y2="1603.7" gradientUnits="userSpaceOnUse">
<stop stop-color="#E5B740"/>
<stop offset="1" stop-color="#743C19"/>
</linearGradient>
<linearGradient id="paint26_linear_651_18427" x1="212.964" y1="1604.7" x2="520.799" y2="1606.3" gradientUnits="userSpaceOnUse">
<stop stop-color="#6D3B87" stop-opacity="0"/>
<stop offset="1" stop-color="#CD39C3"/>
</linearGradient>
<linearGradient id="paint27_linear_651_18427" x1="418.359" y1="1662.68" x2="214.131" y2="1895.79" gradientUnits="userSpaceOnUse">
<stop stop-color="#6633CC"/>
<stop offset="1" stop-color="#9D4BAD"/>
</linearGradient>
<linearGradient id="paint28_linear_651_18427" x1="233.035" y1="1484.59" x2="219.39" y2="1421.37" gradientUnits="userSpaceOnUse">
<stop stop-color="#E5B740"/>
<stop offset="1" stop-color="#743C19"/>
</linearGradient>
<linearGradient id="paint29_linear_651_18427" x1="202.266" y1="1483.18" x2="302.093" y2="1422.05" gradientUnits="userSpaceOnUse">
<stop stop-color="#6D3B87" stop-opacity="0"/>
<stop offset="1" stop-color="#CD39C3"/>
</linearGradient>
<linearGradient id="paint30_linear_651_18427" x1="590.921" y1="1730.36" x2="123.193" y2="1752.79" gradientUnits="userSpaceOnUse">
<stop stop-color="#110C24"/>
<stop offset="1" stop-color="#23104A"/>
</linearGradient>
<linearGradient id="paint31_linear_651_18427" x1="648.414" y1="1717.44" x2="492.481" y2="1649.29" gradientUnits="userSpaceOnUse">
<stop stop-color="#C28AFF"/>
<stop offset="1" stop-color="#C42374"/>
</linearGradient>
<linearGradient id="paint32_linear_651_18427" x1="648.506" y1="1716.95" x2="492.573" y2="1648.8" gradientUnits="userSpaceOnUse">
<stop stop-color="#C28AFF"/>
<stop offset="1" stop-color="#250C57"/>
</linearGradient>
<linearGradient id="paint33_linear_651_18427" x1="503.943" y1="1722.41" x2="374.236" y2="1746.25" gradientUnits="userSpaceOnUse">
<stop stop-color="#441F5D"/>
<stop offset="1" stop-color="#412E8A"/>
</linearGradient>
<linearGradient id="paint34_linear_651_18427" x1="388.549" y1="1709.29" x2="324.144" y2="1710.17" gradientUnits="userSpaceOnUse">
<stop stop-color="#412E8A"/>
<stop offset="1" stop-color="#110C24"/>
</linearGradient>
<linearGradient id="paint35_linear_651_18427" x1="-38.101" y1="1218.64" x2="618.64" y2="1632.16" gradientUnits="userSpaceOnUse">
<stop stop-color="#F5C144"/>
<stop offset="1" stop-color="#8F7128"/>
</linearGradient>
<linearGradient id="paint36_linear_651_18427" x1="455.899" y1="1753.33" x2="370.503" y2="1667.88" gradientUnits="userSpaceOnUse">
<stop stop-color="#DEA163"/>
<stop offset="1" stop-color="#CC7A3C"/>
</linearGradient>
<linearGradient id="paint37_linear_651_18427" x1="266.996" y1="1649.59" x2="87.3858" y2="1443.35" gradientUnits="userSpaceOnUse">
<stop stop-color="#EDE3DC"/>
<stop offset="1" stop-color="#010101"/>
</linearGradient>
<linearGradient id="paint38_linear_651_18427" x1="148.011" y1="1524.96" x2="357.55" y2="1582.59" gradientUnits="userSpaceOnUse">
<stop stop-color="#6D3B87" stop-opacity="0"/>
<stop offset="1" stop-color="#CD39C3"/>
</linearGradient>
<linearGradient id="paint39_linear_651_18427" x1="190.918" y1="1568.72" x2="92.0552" y2="1475.65" gradientUnits="userSpaceOnUse">
<stop stop-color="#E5B740"/>
<stop offset="1" stop-color="#743C19"/>
</linearGradient>
<linearGradient id="paint40_linear_651_18427" x1="314.457" y1="1834.17" x2="412.615" y2="1905.02" gradientUnits="userSpaceOnUse">
<stop stop-color="#4A219B"/>
<stop offset="1" stop-color="#9D4BAD"/>
</linearGradient>
<linearGradient id="paint41_linear_651_18427" x1="315.611" y1="1813.44" x2="399.397" y2="1814.25" gradientUnits="userSpaceOnUse">
<stop/>
<stop offset="0.60345" stop-color="#6633CC"/>
<stop offset="1" stop-color="#FF9CAA"/>
</linearGradient>
<linearGradient id="paint42_linear_651_18427" x1="354.086" y1="1817.15" x2="320.968" y2="1673.16" gradientUnits="userSpaceOnUse">
<stop stop-color="#D498F4"/>
<stop offset="1" stop-color="#4A219B" stop-opacity="0"/>
</linearGradient>
<linearGradient id="paint43_linear_651_18427" x1="371.539" y1="1818.04" x2="308.987" y2="1837.61" gradientUnits="userSpaceOnUse">
<stop/>
<stop offset="0.60345" stop-color="#6633CC"/>
<stop offset="1" stop-color="#FF9CAA"/>
</linearGradient>
<linearGradient id="paint44_linear_651_18427" x1="309.65" y1="1703.31" x2="719.878" y2="2335.38" gradientUnits="userSpaceOnUse">
<stop stop-color="#3A1A7B"/>
<stop offset="1" stop-color="#9D4BAD"/>
</linearGradient>
<linearGradient id="paint45_linear_651_18427" x1="728.069" y1="1426.73" x2="703.291" y2="1466.04" gradientUnits="userSpaceOnUse">
<stop offset="0.294" stop-color="#A47092"/>
<stop offset="1" stop-color="#F5C144"/>
</linearGradient>
<linearGradient id="paint46_linear_651_18427" x1="728.069" y1="1426.73" x2="703.291" y2="1466.04" gradientUnits="userSpaceOnUse">
<stop stop-color="#CC499E"/>
<stop offset="1" stop-color="#F5C144"/>
</linearGradient>
<linearGradient id="paint47_linear_651_18427" x1="763.517" y1="1446.88" x2="748.985" y2="1491.01" gradientUnits="userSpaceOnUse">
<stop offset="0.244" stop-color="#A47092"/>
<stop offset="1" stop-color="#F5C144"/>
</linearGradient>
<linearGradient id="paint48_linear_651_18427" x1="759.537" y1="1451.96" x2="746.659" y2="1489.67" gradientUnits="userSpaceOnUse">
<stop stop-color="#CC499E"/>
<stop offset="1" stop-color="#F5C144"/>
</linearGradient>
<linearGradient id="paint49_linear_651_18427" x1="727.13" y1="1460.42" x2="727.13" y2="1491.46" gradientUnits="userSpaceOnUse">
<stop stop-color="#D35F8D"/>
<stop offset="1" stop-color="#E6B252"/>
</linearGradient>
<linearGradient id="paint50_linear_651_18427" x1="125.732" y1="-98.2908" x2="-373.473" y2="1609.32" gradientUnits="userSpaceOnUse">
<stop offset="0.180668" stop-color="#110C24"/>
<stop offset="0.477168" stop-color="#6633CC"/>
<stop offset="0.752778" stop-color="#9D4BAD"/>
</linearGradient>
<linearGradient id="paint51_linear_651_18427" x1="841.354" y1="277.175" x2="1141.52" y2="72.9465" gradientUnits="userSpaceOnUse">
<stop stop-color="white"/>
<stop offset="1" stop-color="#2E2168"/>
</linearGradient>
<linearGradient id="paint52_linear_651_18427" x1="1013.14" y1="1916.76" x2="815.942" y2="1348.68" gradientUnits="userSpaceOnUse">
<stop/>
<stop offset="0.293771" stop-color="#6633CC"/>
<stop offset="0.614577" stop-color="#FF9CAA"/>
</linearGradient>
<linearGradient id="paint53_linear_651_18427" x1="-65.2881" y1="1243.06" x2="120.677" y2="1062.48" gradientUnits="userSpaceOnUse">
<stop/>
<stop offset="0.60345" stop-color="#6633CC"/>
<stop offset="1" stop-color="#FF9CAA"/>
</linearGradient>
<linearGradient id="paint54_linear_651_18427" x1="18.4964" y1="-11.8638" x2="196.236" y2="293.291" gradientUnits="userSpaceOnUse">
<stop/>
<stop offset="1" stop-color="#6633CC"/>
</linearGradient>
<linearGradient id="paint55_linear_651_18427" x1="173.378" y1="-83.8583" x2="383.478" y2="458.672" gradientUnits="userSpaceOnUse">
<stop/>
<stop offset="0.60345" stop-color="#6633CC"/>
<stop offset="1" stop-color="#FF9CAA"/>
</linearGradient>
<clipPath id="clip0_651_18427">
<rect width="1080" height="1920" fill="white"/>
</clipPath>
</defs>
</svg>
