<svg width="294" height="177" viewBox="0 0 294 177" fill="none" xmlns="http://www.w3.org/2000/svg">
<path d="M190.049 18.9301C187.729 18.5501 185.389 18.3501 183.059 18.3501C167.569 18.3501 150.409 27.0801 145.299 46.4701C130.039 47.5301 116.689 57.6201 111.459 72.0201C102.589 73.5401 94.3587 78.3601 88.5287 85.5301C82.1787 93.3401 79.1486 103.39 80.1686 113.17H76.3288C60.3088 113.17 47.4086 99.5901 48.7186 83.6301C49.9686 68.3201 61.0486 53.7001 78.7086 52.5801C82.7286 33.7501 103.779 21.2501 122.619 27.2901C130.519 -6.63991 176.269 -7.54992 190.059 18.9401L190.049 18.9301Z" fill="#192049"/>
<path d="M217.518 48.7302C216.158 48.5902 214.798 48.5202 213.428 48.5202C197.858 48.5202 181.138 57.4502 176.848 77.2802C175.908 77.2102 174.968 77.1602 174.028 77.1602C154.308 77.1602 137.258 93.6002 136.788 113.05V113.15H84.5178C82.3378 94.7202 96.2778 77.5902 114.728 75.9502C118.938 60.9502 133.138 50.3302 148.798 50.7102C155.448 13.1302 209.778 14.1902 217.518 48.7202V48.7302Z" fill="#3C3969"/>
<path d="M246.908 85.7602C246.908 86.1702 246.908 86.5702 246.888 86.9702C246.358 101.67 233.959 113.16 219.259 113.16H141.148C141.628 93.3302 161.188 78.0602 180.458 82.1902C185.138 41.2502 246.358 43.8502 246.918 85.7502L246.908 85.7602Z" fill="#7164A3"/>
<path d="M25.8289 161.76C25.4389 160.7 24.8887 159.75 24.1787 158.92C23.4687 158.09 22.6287 157.4 21.6487 156.84C21.3887 156.69 21.1189 156.55 20.8489 156.42C21.1089 156.27 21.3589 156.1 21.5989 155.93C22.3689 155.37 23.0289 154.76 23.5689 154.11C24.1189 153.45 24.5188 152.71 24.7888 151.9C25.6288 149.39 25.1589 146.42 23.5689 144.35C18.9489 138.1 7.4589 138.09 2.8589 144.35C1.3189 146.42 0.818741 149.4 1.69874 151.9C1.97874 152.71 2.39873 153.46 2.93873 154.16C3.47873 154.85 4.13871 155.47 4.91871 156.01C5.09871 156.13 5.27876 156.25 5.46876 156.37C5.19876 156.5 4.93873 156.64 4.68873 156.79C3.68873 157.38 2.84869 158.09 2.14869 158.92C1.45869 159.75 0.938898 160.7 0.608898 161.76C-0.291102 164.61 -0.0810927 168.25 1.86891 170.71C3.05891 172.3 4.63891 173.56 6.61891 174.49C10.4589 176.35 16.0189 176.33 19.8689 174.51C21.8689 173.6 23.4587 172.35 24.6387 170.76C26.5687 168.31 26.8589 164.6 25.8289 161.76ZM9.42872 147.74C9.79872 147.17 10.3188 146.71 10.9688 146.37C12.2388 145.71 14.1487 145.69 15.4387 146.37C16.0987 146.71 16.6088 147.17 16.9788 147.74C17.7188 148.84 17.7388 150.58 16.9788 151.67C16.6088 152.23 16.0987 152.67 15.4387 152.99C14.1487 153.64 12.2488 153.62 10.9688 152.99C8.97876 152.13 8.25872 149.52 9.42872 147.74ZM17.5388 167.01C17.0988 167.65 16.5088 168.16 15.7688 168.53C14.3188 169.27 12.1387 169.29 10.6987 168.5C9.94874 168.12 9.35871 167.6 8.91871 166.96C8.00871 165.7 8.06871 163.71 8.91871 162.47C9.35871 161.81 9.94874 161.29 10.6987 160.9C12.1487 160.12 14.3288 160.13 15.7888 160.9C16.5488 161.29 17.1389 161.81 17.5689 162.47C18.3889 163.72 18.4388 165.76 17.5388 167.01Z" fill="#192049"/>
<path d="M32.6992 175.73V141.89H47.2993C58.8693 141.73 62.4692 157.17 52.9792 162.92C51.3192 163.92 49.4293 164.42 47.2993 164.42H40.9192V175.73H32.6992ZM40.7693 157.21H46.1392C47.5492 157.22 48.7792 156.44 49.4792 155.23C50.1892 154.08 50.1892 152.1 49.4792 150.98C48.7692 149.81 47.5292 149.13 46.1392 149.14H40.7693V157.21Z" fill="#192049"/>
<path d="M79.6387 160.21V161.13L80.4587 160.21H79.6387Z" fill="#192049"/>
<path d="M86.7998 162.48C86.9298 158.98 85.8297 155.67 83.5097 153.2C82.4097 152.04 81.1198 151.14 79.6198 150.49C76.5998 149.16 72.4296 149.23 69.4196 150.52C67.8196 151.18 66.4397 152.11 65.2797 153.32C64.1197 154.53 63.2198 155.96 62.5798 157.6C61.0898 161.3 61.2798 166.42 63.3498 169.81C64.5098 171.79 66.1397 173.35 68.2297 174.5C71.1897 176.15 75.5296 176.66 79.1296 175.8C81.5596 175.24 83.8597 174.13 85.7797 172.44L82.1596 167.32C81.1596 168.09 80.2296 168.64 79.3796 168.96C77.3496 169.74 74.1998 169.55 72.3698 168.57C71.2198 167.99 70.3497 167.18 69.7597 166.13C69.4797 165.65 69.2696 165.13 69.1296 164.56H86.7497L86.7998 162.48ZM79.6396 161.13V160.21H69.0998C69.2098 159.75 69.3598 159.32 69.5398 158.93C69.9898 157.98 70.6598 157.25 71.5398 156.75C73.0098 155.9 75.5696 155.7 77.1796 156.53C77.8796 156.89 78.4596 157.38 78.8896 158.01C79.3296 158.64 79.5796 159.36 79.6396 160.16V160.21H80.4597L79.6396 161.13Z" fill="#192049"/>
<path d="M109.089 150.06V153.18C108.629 152.57 108.089 152.02 107.489 151.53C106.719 150.9 105.819 150.41 104.809 150.06C101.849 149.02 98.049 149.5 95.499 151.24C93.759 152.39 92.3889 153.96 91.3889 155.96C88.4689 161.77 89.7589 170.75 95.4289 174.45C97.9389 176.19 101.559 176.65 104.489 175.63C105.529 175.28 106.459 174.79 107.299 174.18C107.909 173.73 108.459 173.23 108.939 172.67V175.73H116.769V150.06H109.089ZM108.459 166.47C107.969 167.49 107.299 168.27 106.429 168.82C104.779 169.9 101.969 169.93 100.309 168.82C99.459 168.27 98.789 167.49 98.299 166.47C97.339 164.54 97.339 161.2 98.299 159.27C98.789 158.25 99.459 157.46 100.309 156.9C101.969 155.75 104.779 155.78 106.429 156.9C107.299 157.46 107.969 158.25 108.459 159.27C109.419 161.2 109.419 164.54 108.459 166.47Z" fill="#192049"/>
<path d="M138.53 161.17L150.13 175.73H141L133.43 165.95L131.33 167.92V175.73H123.59V139.95H131.33V159.15L140.17 150.06H150.38L138.53 161.17Z" fill="#192049"/>
<path d="M172.949 167.75C172.949 169.4 172.499 170.85 171.579 172.13C170.659 173.4 169.389 174.4 167.779 175.13C164.319 176.74 158.979 176.44 155.619 175C153.699 174.2 152.179 173.12 151.049 171.76L155.739 167.7C156.739 168.7 157.869 169.44 159.129 169.9C160.789 170.49 162.349 170.81 163.909 170.46C165.549 170.19 166.229 167.96 164.689 167.07C164.399 166.91 163.909 166.72 163.239 166.49C162.559 166.27 161.689 166.01 160.629 165.72C159.109 165.33 157.799 164.88 156.689 164.34C155.569 163.81 154.659 163.19 153.949 162.48C153.309 161.8 152.809 161.05 152.449 160.23C151.679 158.45 151.719 155.91 152.769 154.21C153.329 153.25 154.089 152.41 155.039 151.7C159.239 148.62 165.399 149.07 169.839 151.36C170.949 151.94 171.939 152.64 172.809 153.44L168.749 157.99C168.169 157.44 167.519 156.95 166.789 156.51C166.059 156.08 165.309 155.73 164.539 155.47C163.349 155.06 162.229 154.97 161.129 155.21C160.759 155.29 160.449 155.42 160.189 155.59C159.929 155.77 159.739 155.98 159.609 156.22C158.859 157.91 160.339 158.91 161.979 159.36C162.689 159.6 163.649 159.9 164.879 160.26C166.399 160.68 167.699 161.15 168.799 161.66C169.889 162.18 170.759 162.79 171.409 163.5C171.919 164.05 172.309 164.68 172.569 165.41C172.829 166.13 172.949 166.91 172.949 167.75Z" fill="#192049"/>
<path d="M188.279 176.21C185.889 176.21 183.769 175.64 181.899 174.49C180.029 173.35 178.559 171.78 177.479 169.8C175.319 165.97 175.319 160.14 177.479 156.31C178.559 154.33 180.029 152.77 181.899 151.65C185.339 149.49 190.599 149.45 194.229 151.24C195.999 152.09 197.419 153.28 198.479 154.79L196.349 157.4C195.739 156.59 194.999 155.89 194.149 155.27C191.229 153.09 186.929 152.62 183.879 154.62C182.529 155.47 181.449 156.63 180.669 158.08C179.079 160.89 179.099 165.24 180.669 168.06C181.459 169.53 182.529 170.68 183.879 171.52C186.009 172.87 188.839 173.13 191.279 172.32C192.209 172.01 193.099 171.57 193.939 170.99C194.779 170.41 195.549 169.68 196.259 168.81L198.389 171.42C197.289 172.87 195.829 174.03 193.989 174.9C192.149 175.77 190.249 176.2 188.289 176.2L188.279 176.21Z" fill="#192049"/>
<path d="M203.168 175.73V139.95H206.798V175.73H203.168Z" fill="#192049"/>
<path d="M224.638 176.21C222.128 176.21 219.888 175.65 217.938 174.52C215.988 173.39 214.458 171.83 213.348 169.83C211.138 166 211.108 160.12 213.348 156.29C214.458 154.32 215.988 152.78 217.938 151.65C221.698 149.4 227.508 149.39 231.278 151.65C233.228 152.78 234.758 154.33 235.868 156.29C238.108 160.12 238.078 166 235.868 169.83C234.758 171.83 233.228 173.39 231.278 174.52C229.328 175.65 227.108 176.21 224.628 176.21H224.638ZM224.638 172.78C226.408 172.78 227.988 172.35 229.378 171.5C230.768 170.65 231.848 169.49 232.618 168.02C234.158 165.2 234.168 160.85 232.618 158.04C231.848 156.59 230.768 155.45 229.378 154.63C226.688 152.98 222.578 152.99 219.878 154.63C218.478 155.45 217.378 156.6 216.588 158.06C215.798 159.53 215.418 161.18 215.448 163.02C215.418 164.89 215.798 166.56 216.588 168.02C217.378 169.49 218.478 170.65 219.878 171.5C221.278 172.35 222.868 172.78 224.638 172.78Z" fill="#192049"/>
<path d="M263.899 150.49V175.73H260.32L260.199 171.37C259.839 172.01 259.38 172.62 258.82 173.19C257.92 174.11 256.85 174.84 255.61 175.39C252.92 176.63 249.19 176.42 246.85 175.03C245.52 174.24 244.5 173.09 243.81 171.57C243.11 170.06 242.77 168.17 242.77 165.91V150.49H246.439V165.19C246.439 166.9 246.679 168.32 247.139 169.47C247.609 170.61 248.32 171.47 249.27 172.05C250.94 173.13 253.819 173.19 255.719 172.37C256.629 172 257.42 171.49 258.09 170.85C259.45 169.56 260.29 167.71 260.27 165.82V150.49H263.899Z" fill="#192049"/>
<path d="M290.289 139.95V154.53C289.679 153.64 288.909 152.85 287.969 152.16C287.039 151.47 285.979 150.93 284.809 150.54C281.619 149.48 277.839 149.88 275.059 151.65C273.259 152.78 271.819 154.33 270.759 156.32C268.649 160.13 268.639 166.01 270.739 169.85C273.259 174.93 279.369 177.46 284.759 175.63C285.899 175.25 286.919 174.71 287.829 174.04C288.729 173.36 289.479 172.59 290.079 171.74C290.149 171.64 290.219 171.54 290.279 171.44L290.339 175.73H293.919V139.95H290.289ZM289.349 168.14C288.589 169.62 287.549 170.78 286.229 171.62C283.659 173.32 279.669 173.28 277.139 171.6C275.819 170.74 274.789 169.57 274.049 168.09C272.569 165.23 272.569 160.85 274.069 158.01C274.829 156.54 275.859 155.38 277.169 154.53C281.209 151.85 287.299 153.53 289.349 158.01C290.879 160.85 290.859 165.29 289.349 168.14Z" fill="#192049"/>
</svg>
