<svg width="734" height="142" viewBox="0 0 734 142" fill="none" xmlns="http://www.w3.org/2000/svg">
<g clip-path="url(#clip0_2043_543)">
<path d="M85.8214 104.307C88.9971 103.674 91.9875 103.211 94.9032 102.467C102.963 100.411 109.721 96.4322 113.903 88.9307C117.318 82.8095 118.301 76.1236 118.393 69.2197C118.465 63.8841 117.473 58.8264 114.758 54.1958C113.882 52.7021 112.726 51.3727 111.809 49.8999C111.498 49.401 111.295 48.6183 111.451 48.0836C113.124 42.273 112.664 36.5819 110.734 30.9237C110.396 29.9319 109.781 29.8034 108.932 29.8034C105.252 29.8064 101.891 31.0373 98.6794 32.6535C96.1968 33.9022 93.8606 35.4348 91.4199 36.7731C90.924 37.045 90.204 37.1973 89.6693 37.0659C78.3857 34.2936 67.1171 34.2488 55.8276 37.039C55.2152 37.1914 54.3578 37.0271 53.8141 36.6865C49.2821 33.8664 44.7024 31.1866 39.3878 30.0902C35.3607 29.2597 34.8498 29.5585 33.8401 33.478C32.5734 38.3923 32.439 43.2977 33.9596 48.2001C34.103 48.6631 33.9715 49.4219 33.6638 49.7864C28.4836 55.9435 26.5448 63.1014 26.957 71.0151C27.2408 76.4642 28.0594 81.7997 30.3508 86.8127C34.088 94.9922 40.6485 99.7841 49.1029 102.15C52.3891 103.07 55.7858 103.599 59.1347 104.307C58.3819 105.487 57.39 106.727 56.7507 108.125C56.0785 109.601 55.7977 111.25 55.2271 112.776C55.018 113.341 54.5669 114.028 54.0561 114.231C46.5397 117.24 39.0651 116.03 34.3241 108.101C31.9819 104.188 28.7764 101.32 24.104 100.579C23.0674 100.414 21.9232 100.585 20.8866 100.833C19.8171 101.09 19.602 101.941 20.2951 102.78C20.8567 103.462 21.5229 104.122 22.2757 104.564C26.1146 106.817 28.5703 110.237 30.1148 114.246C32.902 121.476 38.4975 124.433 45.748 124.822C48.6518 124.977 51.5884 124.523 54.7402 124.332C54.7402 125.539 54.7282 126.955 54.7402 128.371C54.7671 131.257 54.8418 134.146 54.8268 137.031C54.8089 140.231 52.7117 141.758 49.6406 140.748C43.5104 138.731 37.7656 135.884 32.4898 132.183C15.091 119.973 4.68871 103.336 1.61165 82.2957C-2.87846 51.6028 13.2328 21.1429 41.0368 7.37977C68.345 -6.13837 101.497 -0.752025 122.955 20.8083C137.773 35.6977 144.743 53.7686 144.289 74.7285C143.652 104.038 123.747 131.239 96.146 140.572C95.9578 140.634 95.7696 140.7 95.5784 140.757C92.4984 141.698 90.3982 140.219 90.4012 137.014C90.4072 130.591 90.5326 124.171 90.4878 117.748C90.4729 115.722 90.2219 113.67 89.8186 111.683C89.26 108.914 88.0112 106.428 85.8185 104.301L85.8214 104.307Z" fill="white"/>
<path d="M202.932 81.8259V108.474H244.583V119.745H189.841V32.9844H244.105V44.1783H202.953V70.6649H241.296V81.8259H202.929H202.932Z" fill="white"/>
<path d="M316.04 119.771H303.875V109.799C303.737 109.7 303.6 109.604 303.463 109.506C303.035 109.891 302.48 110.199 302.202 110.671C299.068 116.015 294.662 119.633 288.448 120.688C276.689 122.683 266.197 117.375 260.823 106.733C257.148 99.456 256.27 91.6588 256.784 83.6465C257.178 77.5193 258.603 71.6639 261.782 66.3314C267.775 56.2757 279.485 51.5436 290.59 54.6595C295.785 56.1173 299.4 59.4872 302.073 64.0281C302.342 64.4822 302.728 64.8675 303.059 65.2858C303.182 65.232 303.304 65.1782 303.427 65.1244V33.0215H316.037V119.771H316.04ZM303.734 87.3271C303.651 83.1446 303.253 79.1445 301.769 75.3325C299.295 68.9812 294.886 65.0408 287.895 64.6136C280.901 64.1834 275.393 66.9796 272.447 73.3787C268.118 82.7832 268.172 92.4326 272.749 101.762C275.736 107.851 281.015 110.608 287.784 110.226C294.252 109.858 298.548 106.33 301.186 100.573C303.134 96.3222 303.645 91.7963 303.731 87.33L303.734 87.3271Z" fill="white"/>
<path d="M520.598 119.774H508.344V110.985C508.164 110.899 507.982 110.812 507.803 110.728C507.746 110.922 507.722 111.135 507.624 111.308C504.442 116.915 499.438 119.831 493.242 120.871C487.715 121.797 482.293 121.313 477.206 118.869C470.329 115.565 466.863 109.928 466.6 102.357C466.287 93.2816 470.248 87.6413 478.98 84.5374C484.041 82.739 489.341 82.2042 494.625 81.5649C497.831 81.1765 501.051 80.8031 504.2 80.122C507.334 79.4438 508.105 78.1682 507.97 75.0224C507.645 67.4821 502.542 63.4312 494.33 64.0765C488.059 64.5694 483.192 67.1595 480.396 73.1194C476.468 72.2262 472.605 71.3449 468.593 70.4337C469.895 66.5381 472.011 63.2997 474.989 60.6529C480.092 56.1149 486.261 54.2508 492.923 53.8714C499.22 53.5129 505.368 54.2239 510.958 57.4473C517.584 61.2683 520.535 67.3835 520.643 74.7087C520.864 89.5921 520.721 104.479 520.724 119.365C520.724 119.458 520.67 119.547 520.598 119.783V119.774ZM507.8 88.2448C503.408 90.097 498.739 90.4914 494.126 91.1336C490.53 91.6355 486.918 92.0657 483.664 93.8462C480.447 95.6058 478.798 98.3184 478.986 102.02C479.177 105.76 481.071 108.362 484.507 109.814C487.763 111.188 491.157 111.296 494.613 110.848C501.299 109.981 506.772 105.327 507.707 98.9936C508.221 95.5013 507.8 91.8715 507.8 88.2478V88.2448Z" fill="white"/>
<path d="M666.123 86.4566C666.04 95.159 664.576 102.466 660.146 108.862C654.012 117.723 645.241 121.344 634.702 121.084C619.92 120.717 608.983 111.279 606.198 96.4645C604.466 87.2483 604.974 78.1994 609.207 69.6822C614.214 59.6056 622.641 54.506 633.734 53.8548C642.669 53.329 650.69 55.7458 657.086 62.3122C662.093 67.4536 664.621 73.8049 665.61 80.8164C665.923 83.0271 666.019 85.2706 666.12 86.4566H666.123ZM653.295 86.9316C653.152 82.5879 652.59 78.6594 650.986 74.955C648.196 68.5141 643.517 64.6095 636.276 64.4243C629.178 64.2421 623.902 67.4088 621.016 73.8347C616.959 82.8657 616.938 92.1208 621.031 101.155C623.863 107.408 629.028 110.538 635.908 110.482C642.89 110.425 647.745 106.95 650.672 100.698C652.764 96.2285 653.316 91.4606 653.295 86.9316Z" fill="white"/>
<path d="M374.375 54.7285H387.048V119.732H374.65V108.616C374.525 108.565 374.402 108.517 374.277 108.466C374.02 108.813 373.703 109.13 373.518 109.512C366.954 122.956 348.943 123.156 340.805 116.072C336.27 112.123 334.209 106.964 333.456 101.183C333.205 99.2652 333.146 97.3144 333.143 95.3785C333.116 82.4848 333.128 69.594 333.128 56.7002V54.7913H345.764V56.5718C345.764 68.868 345.714 81.1643 345.809 93.4576C345.827 95.8117 346.081 98.2763 346.813 100.496C349.248 107.863 357.176 111.095 364.762 108.036C370.757 105.616 374.357 100.117 374.369 93.2216C374.39 81.0269 374.375 68.8292 374.375 56.6345V54.7285Z" fill="white"/>
<path d="M733.469 119.765H720.811V117.999C720.811 105.404 720.865 92.8062 720.764 80.2111C720.746 77.9078 720.384 75.5239 719.694 73.3311C718.108 68.2763 713.854 65.1873 708.56 64.8498C698.391 64.2015 691.806 70.4721 691.779 80.9012C691.75 93.2483 691.773 105.595 691.773 117.942C691.773 118.528 691.773 119.113 691.773 119.759H679.167V54.7522H691.287V65.1336C691.415 65.1873 691.543 65.2411 691.672 65.2919C691.923 65.0141 692.263 64.7751 692.413 64.4494C698.645 50.9671 718.708 51.4362 726.562 59.1916C730.503 63.0842 732.453 67.8641 733.123 73.2325C733.385 75.3476 733.448 77.4985 733.454 79.6346C733.484 92.379 733.469 105.126 733.469 117.871V119.762V119.765Z" fill="white"/>
<path d="M444.928 99.2807H457.186C456.573 104.616 454.632 109.253 450.975 113.089C445.06 119.293 437.555 121.316 429.271 121.089C414.636 120.686 403.848 111.413 400.977 96.7443C399.319 88.263 399.699 79.9102 402.997 71.8232C408.267 58.8995 420.112 52.6797 433.63 53.9464C440.549 54.5946 446.664 57.0533 451.423 62.3142C454.799 66.0455 456.639 70.4609 457.192 75.6531C454.097 75.6531 451.109 75.4947 448.152 75.7038C445.896 75.8622 444.818 75.3065 443.898 72.9972C439.757 62.5711 425.994 62.4187 419.544 68.6386C415.98 72.0771 414.161 76.3461 413.393 81.1171C412.356 87.5699 412.667 93.9362 415.281 100.019C420.118 111.275 431.309 112.046 437.8 108.712C440.958 107.09 443.049 104.521 444.268 101.214C444.507 100.568 444.716 99.911 444.931 99.2837L444.928 99.2807Z" fill="white"/>
<path d="M553.501 64.7713C553.501 65.5361 553.501 66.0709 553.501 66.6086C553.501 77.8593 553.492 89.11 553.513 100.361C553.513 101.547 553.57 102.763 553.82 103.916C554.6 107.524 556.736 109.281 560.438 109.335C562.164 109.362 563.894 109.144 565.782 109.024C566.511 112.361 567.261 115.785 568.002 119.181C560.993 122.002 548.291 121.458 543.108 112.511C541.381 109.532 540.768 106.306 540.768 102.921C540.768 90.8725 540.768 78.8242 540.768 66.7789C540.768 66.1904 540.768 65.6018 540.768 64.8699H531.355V54.6857H540.721V39.1152H553.474V54.614H566.696V64.7713H553.501Z" fill="white"/>
<path d="M592.309 119.744H579.771V54.7402H592.309V119.744Z" fill="white"/>
<path d="M586.101 44.5498C581.659 44.5498 578.1 41.189 578.106 37.0036C578.112 32.8421 581.694 29.4633 586.119 29.4454C590.474 29.4275 594.17 32.9138 594.143 37.0185C594.119 41.189 590.528 44.5528 586.101 44.5498Z" fill="white"/>
<path d="M36.8937 116.034C36.2245 115.153 35.6988 114.561 35.3343 113.883C35.2716 113.767 35.8511 113.073 36.2006 113.008C37.0192 112.852 38.0738 113.895 37.9095 114.66C37.8258 115.045 37.4106 115.359 36.8967 116.034H36.8937Z" fill="white"/>
<path d="M43.1842 117.657C42.7062 117.854 42.1117 118.326 41.7801 118.185C41.1468 117.917 40.6658 117.295 40.1221 116.817C40.5433 116.551 41.0183 116.008 41.3708 116.076C42.034 116.205 42.6255 116.692 43.2499 117.029C43.229 117.238 43.2081 117.447 43.1872 117.657H43.1842Z" fill="white"/>
<path d="M47.4266 119.486C46.7903 118.909 46.3273 118.491 45.8672 118.076C46.3691 117.7 46.868 117.03 47.3729 117.027C47.8718 117.027 48.3707 117.697 48.8696 118.073C48.4543 118.479 48.0391 118.886 47.4266 119.486Z" fill="white"/>
<path d="M52.7493 118.796C52.1727 118.15 51.7993 117.729 51.4229 117.311C51.9516 116.952 52.4625 116.358 53.0181 116.31C53.4394 116.274 53.9174 116.94 54.3685 117.296C53.9054 117.723 53.4424 118.153 52.7463 118.796H52.7493Z" fill="white"/>
<path d="M34.5557 110.447C33.9552 110.869 33.4294 111.329 33.3607 111.269C32.8498 110.818 32.3778 110.292 32.0253 109.712C31.9685 109.62 32.7811 108.84 32.8229 108.87C33.3726 109.279 33.8536 109.778 34.5527 110.444L34.5557 110.447Z" fill="white"/>
<path d="M29.881 104.51C30.4247 105.34 30.831 105.848 31.082 106.425C31.1387 106.556 30.6667 106.918 30.4397 107.175C30.0035 106.694 29.5136 106.248 29.17 105.711C29.0893 105.582 29.4956 105.143 29.881 104.51Z" fill="white"/>
<path d="M28.4578 103.52C27.9201 103.825 27.5855 104.153 27.4122 104.085C27.006 103.92 26.6803 103.562 26.3188 103.281C26.5758 103.06 26.8865 102.618 27.0806 102.666C27.4899 102.761 27.8395 103.114 28.4549 103.52H28.4578Z" fill="white"/>
</g>
<defs>
<clipPath id="clip0_2043_543">
<rect width="732.599" height="141.055" fill="white" transform="translate(0.865723)"/>
</clipPath>
</defs>
</svg>
