<svg width="440" height="125" viewBox="0 0 440 125" fill="none" xmlns="http://www.w3.org/2000/svg">
<path d="M109.66 30.5081L60.8737 0.578125V9.01936L102.741 34.6104L109.65 30.4978L109.66 30.5081ZM90.9578 40.543L60.8737 22.1799V30.6212L84.0485 44.6556L90.9578 40.543ZM103.645 90.2034L62.1691 115.661L62.7244 123.68L111.182 94.0179L103.645 90.2034ZM61.5317 94.1002L61.9532 102.13L92.2225 84.0755L84.7477 80.1376L61.5317 94.1002ZM4.81802 96.8865L54.5813 124.287V116.072L11.6656 92.9897L4.80774 96.8865H4.81802ZM54.3859 94.2544L29.9567 81.6285L23.3353 86.1936L54.5916 102.49L54.3859 94.2544ZM7.93336 39.083L0.900702 35.1759L0.242676 89.8538L7.54266 85.6075L7.93336 39.083ZM26.4506 49.4983L19.3357 45.7352L19.2843 79.6544L26.4918 75.624L26.4404 49.4983H26.4506ZM53.3166 9.12219L53.1521 1.16417L5.07506 28.2769L12.3442 32.5849L53.3166 9.12219ZM53.6765 30.4464L53.5017 22.4061L23.3661 39.4223L30.3988 43.7611L53.6868 30.4566L53.6765 30.4464ZM60.6269 22.1902V9.21472L57.0489 6.65458L53.4709 9.21472V22.1902L57.1414 20.0105L60.6166 22.1902H60.6269ZM11.9124 32.8111L7.90252 34.6207L8.32407 39.0007L19.5619 45.4987L19.5105 41.2215L23.1399 39.3092L11.9021 32.8111H11.9124ZM11.7684 92.8458L22.8623 86.1113L19.089 84.1064L19.1507 80.004L8.05674 86.7385L7.72773 91.1287L11.7684 92.8561V92.8458ZM58.1182 104.762L54.5916 102.654L54.8692 115.63L58.4986 118.118L62.0252 115.486L61.7476 102.511L58.1182 104.772V104.762Z" fill="url(#paint0_linear_1246_489)"/>
<path d="M139.011 80.8977H131.772V66.1127H118.211V80.8977H110.931V46.6289H118.211V60.0568H131.772V46.6289H139.011V80.8977Z" fill="#FCF7FF"/>
<path d="M168.638 80.8986L166.149 72.7349H153.637L151.149 80.8986H143.334L155.436 46.4961H164.309L176.452 80.8986H168.638ZM164.422 66.6584C162.119 59.2659 160.824 55.0813 160.525 54.1045C160.238 53.1381 160.042 52.3669 159.929 51.8117C159.415 53.8167 157.934 58.7621 155.498 66.6584H164.432H164.422Z" fill="#FCF7FF"/>
<path d="M195.276 80.8977L187.03 54.0112H186.814C187.102 59.481 187.246 63.131 187.246 64.9611V80.8977H180.758V46.6289H190.66L198.782 72.8472H198.916L207.532 46.6289H217.433V80.8977H210.647V64.6835C210.647 63.9124 210.657 63.0282 210.688 62.0308C210.719 61.0335 210.822 58.3808 211.007 54.0625H210.791L201.949 80.8977H195.307H195.276Z" fill="#FCF7FF"/>
<path d="M233.269 61.8355H235.603C237.896 61.8355 239.592 61.4654 240.682 60.7045C241.782 59.9334 242.327 58.7304 242.327 57.0854C242.327 55.4403 241.772 54.299 240.651 53.6102C239.531 52.9213 237.803 52.582 235.449 52.582H233.259V61.8355H233.269ZM233.269 67.7475V80.8977H225.99V46.6289H235.973C240.641 46.6289 244.096 47.4823 246.317 49.1788C248.558 50.8855 249.679 53.4559 249.679 56.89C249.679 58.9155 249.123 60.7148 248.003 62.2879C246.892 63.861 245.319 65.0845 243.294 65.9687L253.36 80.8977H245.309L237.125 67.7475H233.269Z" fill="#FCF7FF"/>
<path d="M288.765 63.717C288.765 69.3925 287.356 73.752 284.549 76.8056C281.732 79.849 277.702 81.3707 272.468 81.3707C267.235 81.3707 263.174 79.849 260.367 76.8056C257.55 73.752 256.151 69.372 256.151 63.6759C256.151 57.9799 257.55 53.6102 260.367 50.6079C263.194 47.5954 267.245 46.084 272.509 46.084C277.774 46.084 281.804 47.6057 284.59 50.649C287.377 53.6821 288.765 58.0313 288.765 63.717ZM263.77 63.717C263.77 67.5418 264.49 70.431 265.929 72.3742C267.389 74.3072 269.559 75.2634 272.458 75.2634C278.257 75.2634 281.156 71.418 281.156 63.717C281.156 56.0161 278.267 52.1296 272.499 52.1296C269.61 52.1296 267.43 53.1064 265.97 55.0599C264.5 57.0031 263.76 59.8923 263.76 63.717H263.77Z" fill="#FCF7FF"/>
<path d="M320.899 81.7005H315.861L297.508 53.2511H297.313L297.446 55.1326C297.631 57.9806 297.724 60.4482 297.724 62.5457V81.7005H293.735V47.4316H298.721L299.77 49.1076L311.018 66.5041L316.992 75.7988H317.187C317.156 75.4286 317.095 74.092 316.992 71.7889C316.909 69.4755 316.858 67.7996 316.858 66.7715V47.4316H320.888V81.7005H320.899Z" fill="#FCF7FF"/>
<path d="M360.098 64.5183C360.098 69.9985 358.71 74.3168 355.944 77.4527C353.168 80.5989 349.292 82.1617 344.295 82.1617C339.298 82.1617 335.35 80.6194 332.594 77.5349C329.839 74.4504 328.461 70.1013 328.461 64.4669C328.461 58.8326 329.828 54.5554 332.574 51.4812C335.319 48.4172 339.236 46.875 344.356 46.875C349.477 46.875 353.188 48.4378 355.944 51.5634C358.71 54.6788 360.098 58.9868 360.098 64.4978V64.5183ZM333.005 64.5183C333.005 69.0526 333.962 72.5072 335.874 74.8822C337.807 77.2573 340.604 78.4397 344.295 78.4397C347.986 78.4397 350.772 77.2676 352.674 74.9234C354.587 72.5792 355.543 69.1142 355.543 64.508C355.543 59.9019 354.587 56.4781 352.695 54.1647C350.813 51.841 348.027 50.6689 344.367 50.6689C340.706 50.6689 337.807 51.8513 335.884 54.2058C333.972 56.5603 333.016 60.0047 333.016 64.508L333.005 64.5183Z" fill="#FCF7FF"/>
<path d="M377.817 81.699H373.489V51.2139H362.775V47.4199H388.459V51.2139H377.817V81.699Z" fill="#FCF7FF"/>
<path d="M412.824 81.7004H393.669V47.4316H412.824V51.2256H397.977V61.9185H411.94V65.6919H397.977V77.9271H412.824V81.721V81.7004Z" fill="#FCF7FF"/>
<path d="M439.792 72.5291C439.792 75.521 438.712 77.8755 436.553 79.6029C434.394 81.3199 431.392 82.1733 427.556 82.1733C423.485 82.1733 420.339 81.6283 418.128 80.5488V76.4361C419.588 77.0633 421.172 77.5568 422.889 77.9167C424.616 78.2765 426.23 78.4513 427.731 78.4513C430.302 78.4513 432.235 77.9578 433.54 76.9708C434.836 75.9837 435.494 74.6368 435.494 72.9198C435.494 71.7785 435.257 70.8429 434.784 70.1129C434.312 69.3726 433.53 68.6735 432.43 68.036C431.33 67.3882 429.654 66.6685 427.413 65.846C424.246 64.6842 421.974 63.327 420.627 61.7539C419.269 60.1808 418.591 58.1553 418.591 55.6671C418.591 53.0042 419.588 50.8759 421.593 49.3028C423.608 47.7194 426.251 46.9277 429.541 46.9277C432.831 46.9277 436.101 47.5755 438.99 48.8607L437.643 52.5621C434.702 51.3488 431.967 50.7422 429.438 50.7422C427.413 50.7422 425.819 51.1843 424.657 52.048C423.516 52.9219 422.94 54.1455 422.94 55.7288C422.94 56.8393 423.156 57.7749 423.608 58.5152C424.05 59.2554 424.77 59.9443 425.747 60.5509C426.744 61.1678 428.307 61.8567 430.435 62.6278C432.985 63.5737 434.887 64.4888 436.131 65.373C437.386 66.2572 438.301 67.2751 438.897 68.437C439.493 69.5782 439.802 70.9457 439.802 72.5291H439.792Z" fill="#FCF7FF"/>
<defs>
<linearGradient id="paint0_linear_1246_489" x1="55.7123" y1="124.287" x2="55.7123" y2="4.94442" gradientUnits="userSpaceOnUse">
<stop stop-color="#9D09FF"/>
<stop offset="1" stop-color="#16B2C8"/>
</linearGradient>
</defs>
</svg>
