<svg width="333" height="134" viewBox="0 0 333 134" fill="none" xmlns="http://www.w3.org/2000/svg">
<g clip-path="url(#clip0_2247_740)">
<path d="M332.22 0.380859H0.123779V133.09H332.22V0.380859Z" fill="#A72C32"/>
<path d="M326.166 6.5293H6.17993V126.937H326.166V6.5293Z" fill="white"/>
<path d="M318.906 36.209H13.4397V97.262H318.906V36.209Z" fill="#A72C32"/>
<path fill-rule="evenodd" clip-rule="evenodd" d="M22.4688 78.973V54.2422H27.6001V63.4604H37.8282V54.2422H42.9595V78.973H37.8282V68.0015H27.6001V78.973H22.4688Z" fill="white"/>
<path fill-rule="evenodd" clip-rule="evenodd" d="M47.0922 78.9734V54.2402H58.7662C61.2985 54.2402 63.2288 54.7748 64.5572 55.8438C65.8856 56.9128 66.5497 58.4634 66.5497 60.5001C66.5497 61.7535 66.303 62.7995 65.8118 63.6381C65.3205 64.4768 64.5825 65.1265 63.5978 65.585C64.8731 66.1011 65.8279 66.843 66.4598 67.8106C67.0917 68.7806 67.4077 69.9856 67.4077 71.4302C67.4077 73.8378 66.6235 75.6971 65.053 77.0081C63.4825 78.3191 61.257 78.9734 58.3765 78.9734H47.0898H47.0922ZM51.9813 63.804H57.7907C59.0453 63.804 59.9632 63.5898 60.5443 63.1589C61.1255 62.7281 61.4184 62.0507 61.4184 61.1222C61.4184 60.1937 61.1347 59.5601 60.5697 59.1523C60.0047 58.7445 59.0661 58.5418 57.7584 58.5418H51.9836V63.804H51.9813ZM51.9813 74.5014H58.0098C59.4374 74.5014 60.4775 74.2433 61.1278 73.7295C61.7805 73.2135 62.1057 72.4025 62.1057 71.2943C62.1057 70.186 61.7851 69.3082 61.144 68.799C60.5028 68.2899 59.4466 68.0341 57.9729 68.0341H51.979V74.5014H51.9813Z" fill="white"/>
<path fill-rule="evenodd" clip-rule="evenodd" d="M70.4246 78.973V54.2422H75.5213V74.3997H87.6105V78.973H70.4246Z" fill="white"/>
<path d="M315.998 39.0078H94.7664V94.2133H315.998V39.0078Z" fill="white"/>
<path d="M142.556 56.0329V57.307H143.889V56.0329H142.556ZM153.142 56.8231L153.151 56.9936L153.16 57.1641C153.16 57.3024 153.132 57.4291 153.079 57.542C152.95 57.8161 152.733 57.9912 152.434 58.0696C152.611 58.2447 152.754 58.3322 152.865 58.3322C152.913 58.3322 152.985 58.3184 153.079 58.2885C153.241 58.2378 153.444 58.1203 153.686 57.9359C153.877 57.7908 154.039 57.6387 154.17 57.4798V56.0306H153.006C153.091 56.2978 153.135 56.5628 153.142 56.8208V56.8231ZM155.658 56.0329V55.3739C155.648 56.0329 155.658 56.0329 155.658 56.0329ZM155.658 55.3739H159.299V56.0329H158.7V59.7676L157.867 58.9589V57.5973H156.721V58.4935C156.721 58.5811 156.691 58.6271 156.631 58.6271C156.488 58.6271 156.285 58.452 156.027 58.1018C155.918 57.9567 155.849 57.83 155.819 57.7217C155.771 57.5535 155.748 57.4245 155.748 57.3346C155.748 57.0627 155.845 56.8945 156.038 56.8277C156.13 56.7955 156.253 56.7817 156.4 56.7817H157.869V56.0352H154.906V59.7699L154.173 59.0396V58.5212C153.958 58.687 153.727 58.7907 153.483 58.8299C153.377 58.846 153.275 58.8552 153.179 58.8552C152.927 58.8552 152.69 58.7815 152.461 58.6364C152.208 58.4728 152.037 58.2746 151.952 58.0373C151.899 57.8899 151.871 57.7562 151.871 57.6341C151.871 57.5535 151.887 57.4498 151.917 57.3254C152.171 57.3254 152.341 57.2724 152.427 57.1687C152.496 57.0835 152.53 56.9153 152.526 56.6665C152.524 56.4499 152.468 56.2379 152.364 56.0329H151.158V59.7676L150.335 58.9681V57.4222C150.206 57.4613 150.063 57.5304 149.904 57.6249C149.839 57.6641 149.747 57.7424 149.625 57.8599C149.495 57.982 149.417 58.0696 149.387 58.1249L148.831 57.5535L149.071 57.307C148.967 57.2148 148.843 57.1687 148.695 57.1664C148.635 57.1664 148.575 57.1756 148.515 57.1918C148.259 57.2655 148.13 57.4682 148.13 57.7977C148.13 57.9567 148.192 58.0972 148.319 58.217L149.099 58.9727L148.847 59.2538L148.086 58.4981L147.766 58.1894C147.519 57.9475 147.397 57.7148 147.397 57.4959C147.397 57.4636 147.401 57.4176 147.415 57.3576C147.491 56.966 147.759 56.7079 148.222 56.5835C148.435 56.5835 148.649 56.6181 148.866 56.6849C149.127 56.7655 149.306 56.8761 149.403 57.0144C149.544 56.8945 149.687 56.8116 149.832 56.7678C149.943 56.7333 150.111 56.7171 150.335 56.7171V56.0306H146.585V59.7653L145.842 58.9405V56.0329H144.643V59.7676L143.891 59.0303V58.0719H142.558V58.7239C142.558 58.8184 142.528 58.8737 142.468 58.8898C142.42 58.8898 142.344 58.8368 142.242 58.7331L141.322 57.7839C141.251 57.7102 141.216 57.6019 141.216 57.459C141.237 57.36 141.299 57.3093 141.405 57.3093H141.841V56.0352H141.145L140.457 56.0098V57.2217H139.016C138.942 57.2217 138.878 57.2448 138.818 57.2908C138.753 57.3392 138.721 57.3991 138.721 57.4682C138.721 57.6203 138.808 57.6963 138.981 57.6963C139.26 57.5927 139.457 57.5397 139.572 57.5397C139.616 57.5397 139.669 57.5443 139.733 57.5558C140.012 57.6065 140.241 57.7378 140.418 57.9498C140.596 58.1617 140.686 58.4083 140.688 58.687C140.69 59.0303 140.534 59.3114 140.213 59.5303L139.756 59.0649C139.793 59.0649 139.874 59.0188 140.003 58.9244C140.111 58.846 140.188 58.7838 140.231 58.7377C140.321 58.6479 140.365 58.5557 140.365 58.4589C140.365 58.429 140.356 58.3921 140.34 58.353C140.261 58.1779 140.1 58.088 139.855 58.088C139.756 58.088 139.673 58.0995 139.606 58.1226C139.09 58.3023 138.795 58.5718 138.719 58.9313C138.719 59.1709 138.815 59.3621 139.011 59.5026C139.161 59.6109 139.383 59.733 139.676 59.8713L139.576 60.1892C139.307 60.0717 139.011 59.8966 138.695 59.6662C138.352 59.4151 138.179 59.1271 138.179 58.7999C138.216 58.4037 138.368 58.0926 138.635 57.8691C138.548 57.8323 138.451 57.7194 138.347 57.5327C138.246 57.3507 138.197 57.2079 138.197 57.1065C138.197 57.0535 138.202 57.0121 138.213 56.9821C138.324 56.701 138.509 56.5628 138.772 56.5628H139.844V56.0098H138.045L137.328 56.0352V59.7699L136.585 59.0396V56.0352H135.995V55.3762H136.567C136.41 55.1712 136.336 54.8809 136.343 54.5076C136.35 54.1505 136.611 53.8395 137.12 53.5768C137.222 53.5238 137.356 53.4985 137.522 53.4985C137.96 53.4985 138.386 53.6206 138.802 53.8671C139.332 54.1805 139.678 54.6297 139.839 55.2173H139.643C139.579 54.9477 139.399 54.6758 139.106 54.4016C138.958 54.2634 138.804 54.1689 138.64 54.1183C138.361 54.0307 138.133 53.9869 137.953 53.9869C137.69 53.9869 137.475 54.0745 137.305 54.2519C137.134 54.427 137.049 54.6436 137.049 54.9016C137.049 55.0652 137.09 55.2242 137.173 55.3762H155.653L155.658 55.3739ZM164.043 58.088C164.163 58.0465 164.285 57.9636 164.41 57.8415C164.481 57.7724 164.546 57.6894 164.597 57.595C164.491 57.4429 164.35 57.3392 164.175 57.2885C164.112 57.2701 164.052 57.2609 163.995 57.2609C163.75 57.2609 163.561 57.3116 163.432 57.4106L164.041 58.088H164.043ZM162.789 57.9475C162.786 58.0673 162.837 58.1686 162.941 58.2539C163.033 58.3299 163.141 58.376 163.271 58.3944C163.324 58.3944 163.416 58.376 163.54 58.3391C163.681 58.2977 163.757 58.2608 163.771 58.2285L163.162 57.5604C163.093 57.5604 163.012 57.6065 162.922 57.7009C162.832 57.7954 162.789 57.876 162.786 57.9452L162.789 57.9475ZM170.879 55.3739V56.0329H168.748V56.8323C168.921 56.7171 169.098 56.6595 169.276 56.6595C169.539 56.6595 169.744 56.7356 169.894 56.8899C169.97 56.9683 170.051 57.0696 170.134 57.1941C170.314 57.4636 170.406 57.7678 170.411 58.1087C170.418 58.5073 170.318 58.8644 170.115 59.1801L169.488 58.5995L169.749 58.1433C169.843 57.9774 169.892 57.8138 169.892 57.6526C169.892 57.5028 169.836 57.4014 169.723 57.3461C169.673 57.3231 169.62 57.3093 169.562 57.3093C169.5 57.3093 169.368 57.3507 169.168 57.4337C168.999 57.5028 168.859 57.6111 168.746 57.7562V59.8298L167.913 59.0119V58.2216C167.717 58.3967 167.459 58.4843 167.136 58.4843C167.05 58.4843 166.979 58.4751 166.921 58.4589C166.698 58.3921 166.49 58.1756 166.296 57.8115C166.206 57.6433 166.16 57.4867 166.158 57.3438C166.156 57.1434 166.225 56.9683 166.368 56.8139C166.499 56.6711 166.67 56.5743 166.875 56.5259C166.924 56.5144 166.972 56.5098 167.02 56.5098C167.101 56.5098 167.267 56.5536 167.519 56.6457C167.782 56.7425 167.913 56.8116 167.913 56.8531V56.0329H165.282V59.7676L164.61 59.1087V58.4843C164.371 58.8368 164.002 59.0119 163.501 59.0119C163.326 59.0119 163.139 58.929 162.938 58.7608C162.775 58.6225 162.636 58.4659 162.528 58.2838C162.399 58.0696 162.334 57.8599 162.337 57.6572C162.339 57.4544 162.413 57.2701 162.556 57.1042C162.853 56.7517 163.211 56.5766 163.626 56.5766C163.778 56.5766 163.96 56.6342 164.17 56.7494C164.38 56.8646 164.527 56.9844 164.61 57.1111V56.0329H162.293V55.3739H164.414C164.175 55.2219 163.893 55.0998 163.563 55.0145C163.386 54.9684 163.206 54.9431 163.026 54.9431C162.876 54.9431 162.722 54.9546 162.56 54.9799L162.399 54.0215C162.641 54.0215 162.867 54.0514 163.079 54.109C163.254 54.1574 163.508 54.2934 163.843 54.5145C164.073 54.6666 164.278 54.8371 164.458 55.0237C164.384 54.6482 164.202 54.3371 163.912 54.0929C163.776 53.9777 163.64 53.8902 163.501 53.8303L163.455 53.1621C163.753 53.1921 164.025 53.3257 164.269 53.5653C164.442 53.7335 164.569 54.0077 164.654 54.3901C164.691 54.556 164.71 54.7127 164.71 54.8578C164.71 55.026 164.689 55.1965 164.647 55.3739H170.876H170.879ZM167.835 57.4314V57.2816C167.761 57.224 167.622 57.1941 167.424 57.1941C167.226 57.1941 167.057 57.224 166.949 57.2816C166.758 57.3853 166.663 57.5097 166.663 57.6503C166.663 57.6917 166.675 57.7332 166.698 57.7724C166.739 57.8415 166.806 57.8783 166.903 57.8783C167.023 57.8783 167.187 57.8277 167.399 57.724C167.606 57.6226 167.749 57.5258 167.832 57.4314H167.835ZM165.159 54.0929L165.591 54.4869L165.159 54.9362L164.73 54.5168L165.159 54.0952V54.0929ZM183.89 56.0329V57.307H185.223V56.0329H183.89ZM186.619 55.3739H194.822V56.0329H194.054V57.5005H192.46C192.241 57.5005 192.131 57.5742 192.131 57.7217C192.184 57.9083 192.292 58.0028 192.46 58.0028H193.007C193.459 58.0028 193.807 58.1871 194.052 58.5557C194.176 58.7423 194.234 58.9428 194.225 59.1524C194.204 59.6847 193.782 59.9957 192.963 60.0856C192.29 60.0856 191.646 59.6593 191.035 58.8092C190.805 58.4866 190.687 58.2908 190.687 58.2216L190.982 58.0373C190.982 58.1249 191.111 58.3092 191.372 58.5903C191.589 58.8253 191.759 58.9912 191.886 59.0902C192.135 59.2838 192.387 59.3828 192.64 59.3828C192.859 59.3552 193.058 59.2953 193.238 59.2008C193.475 59.0741 193.593 58.922 193.588 58.7423C193.588 58.6502 193.528 58.5741 193.413 58.5188C193.318 58.4728 193.219 58.452 193.113 58.452C193.023 58.452 192.901 58.4728 192.751 58.5073C192.571 58.5511 192.449 58.5741 192.389 58.5834C192.248 58.5834 192.061 58.4152 191.826 58.0811C191.727 57.9406 191.658 57.8046 191.621 57.6687C191.501 57.5235 191.441 57.3761 191.441 57.2194C191.441 57.1848 191.448 57.1388 191.46 57.0789C191.501 56.8623 191.683 56.754 192.006 56.754H193.358V56.0329H189.312V57.7885H188.069C187.855 57.7885 187.636 57.9014 187.41 58.1295C187.301 58.2401 187.248 58.3553 187.255 58.4751C187.274 58.8621 187.509 59.0534 187.961 59.0534C188.113 59.0534 188.381 59.005 188.766 58.9082C189.19 58.7999 189.432 58.7032 189.495 58.6133L189.97 59.3598C189.894 59.4128 189.693 59.4934 189.365 59.6017C189.017 59.7169 188.715 59.7722 188.457 59.7653C188.171 59.7584 187.889 59.6847 187.613 59.5441C187.048 59.2584 186.764 58.8322 186.764 58.2631C186.764 57.8922 186.852 57.5834 187.025 57.3392C187.223 57.0604 187.502 56.9199 187.864 56.9199H188.517V56.0329H185.975V59.7676L185.223 59.0303V58.0719H183.89V58.7239C183.89 58.8184 183.861 58.8737 183.801 58.8898C183.752 58.8898 183.676 58.8368 183.575 58.7331L182.654 57.7839C182.583 57.7102 182.548 57.6019 182.548 57.459C182.569 57.36 182.631 57.3093 182.735 57.3093H183.173V56.0352H181.76V59.7699L181.017 59.0396V56.0352H179.811V59.7699L178.987 58.9704V57.4245C178.858 57.4636 178.715 57.5327 178.556 57.6272C178.492 57.6664 178.399 57.7447 178.277 57.8622C178.15 57.9843 178.07 58.0719 178.04 58.1272L177.484 57.5558L177.724 57.3093C177.62 57.2171 177.495 57.171 177.348 57.1687C177.288 57.1687 177.228 57.1779 177.168 57.1941C176.912 57.2678 176.783 57.4705 176.783 57.8C176.783 57.959 176.845 58.0995 176.972 58.2193L177.751 58.975L177.5 59.2561L176.739 58.5004L176.418 58.1917C176.172 57.9498 176.049 57.7171 176.049 57.4982C176.049 57.4659 176.054 57.4199 176.068 57.36C176.144 56.9683 176.411 56.7102 176.875 56.5858C177.087 56.5858 177.302 56.6204 177.518 56.6872C177.779 56.7678 177.959 56.8784 178.056 57.0167C178.196 56.8969 178.339 56.8139 178.485 56.7701C178.595 56.7356 178.764 56.7194 178.987 56.7194V56.0329H175.21V59.7676L174.467 59.0372V56.0329H173.877V55.3739H174.449C174.292 55.1689 174.218 54.8786 174.225 54.5053C174.232 54.1482 174.49 53.8372 175.002 53.5745C175.104 53.5215 175.238 53.4962 175.404 53.4962C175.842 53.4962 176.268 53.6183 176.684 53.8648C177.214 54.1782 177.56 54.6274 177.721 55.215H177.525C177.461 54.9454 177.281 54.6735 176.988 54.3993C176.84 54.2611 176.686 54.1666 176.522 54.116C176.243 54.0284 176.015 53.9846 175.835 53.9846C175.572 53.9846 175.355 54.0722 175.187 54.2496C175.016 54.4247 174.931 54.6413 174.931 54.8993C174.931 55.0629 174.972 55.2219 175.055 55.3739H180.998C180.842 55.1689 180.768 54.8786 180.775 54.5053C180.782 54.1482 181.04 53.8372 181.552 53.5745C181.653 53.5215 181.787 53.4962 181.953 53.4962C182.389 53.4962 182.818 53.6183 183.233 53.8648C183.764 54.1782 184.11 54.6274 184.271 55.215H184.075C184.01 54.9454 183.831 54.6735 183.538 54.3993C183.39 54.2611 183.236 54.1666 183.072 54.116C182.793 54.0284 182.564 53.9846 182.385 53.9846C182.122 53.9846 181.905 54.0722 181.736 54.2496C181.566 54.4247 181.48 54.6413 181.48 54.8993C181.48 55.0629 181.522 55.2219 181.605 55.3739H186.616H186.619ZM187.44 53.9777C187.555 53.9616 187.659 53.9524 187.753 53.9524C188.056 53.9524 188.365 54.0422 188.676 54.2242C188.798 54.2957 188.895 54.3671 188.964 54.4385C189.029 54.5053 189.128 54.6182 189.259 54.7772C189.439 54.9961 189.573 55.1873 189.661 55.3486H189.319C189.239 55.2103 189.137 55.0928 189.015 54.9961C188.743 54.7795 188.478 54.6712 188.217 54.6712C188.148 54.6712 188.065 54.6804 187.968 54.6989L187.44 53.9777Z" fill="#A72C32"/>
<path fill-rule="evenodd" clip-rule="evenodd" d="M144.883 68.7803H139.415V75.0356H136.576V61.2578H139.415V66.4164H144.865V61.2578H147.722V75.0356H144.883V68.7803Z" fill="#A72C32"/>
<path fill-rule="evenodd" clip-rule="evenodd" d="M152.288 64.829V75.0356H149.638V64.829H152.288ZM152.288 61.2578V63.6194H149.638V61.2578H152.288Z" fill="#A72C32"/>
<path fill-rule="evenodd" clip-rule="evenodd" d="M154.212 64.8303H156.843V66.0975C157.523 65.2796 158.255 64.8119 159.039 64.699C159.228 64.6736 159.431 64.6621 159.643 64.6621C160.854 64.6621 161.73 65.0837 162.272 65.9293L162.29 65.9477C162.341 66.0238 162.385 66.0998 162.422 66.1735C163.254 65.2035 164.251 64.699 165.411 64.6621C166.898 64.6621 167.89 65.2174 168.381 66.3256C168.57 66.7541 168.665 67.2518 168.665 67.8186V75.0369H166.015V68.2333C166.015 67.5651 165.706 67.1435 165.088 66.9661C164.936 66.9292 164.765 66.9085 164.576 66.9085C163.693 66.9085 163.125 67.3117 162.872 68.1181C162.796 68.3577 162.759 68.6226 162.759 68.9106V75.0346H160.109V68.231C160.109 67.5628 159.8 67.1412 159.182 66.9638C159.029 66.9269 158.861 66.9062 158.67 66.9062C157.786 66.9062 157.219 67.3094 156.968 68.1158C156.892 68.3554 156.855 68.6203 156.855 68.9083V75.0323H154.205V64.8257L154.212 64.8303Z" fill="#A72C32"/>
<path fill-rule="evenodd" clip-rule="evenodd" d="M179.227 74.715V75.0353H176.351C176.148 74.7335 176.049 74.3925 176.049 74.0146C175.115 74.9846 174.082 75.4708 172.947 75.4708C171.977 75.4708 171.181 75.1482 170.563 74.5077C170.083 73.9916 169.843 73.2912 169.843 72.4111C169.843 70.6094 170.846 69.538 172.851 69.197L173.911 69.0081C174.769 68.8699 175.293 68.757 175.482 68.6671C175.494 68.6556 175.526 68.6349 175.577 68.6095C175.879 68.4459 176.031 68.181 176.031 67.8169C176.031 67.1373 175.519 66.7963 174.497 66.7963C173.639 66.7963 173.09 66.999 172.851 67.3999V67.4184C172.738 67.6073 172.661 67.8653 172.625 68.1925H170.069C170.233 65.8609 171.691 64.6835 174.44 64.6582C177.228 64.6582 178.621 65.7042 178.621 67.7962V73.4663C178.621 73.8948 178.784 74.2727 179.112 74.5998C179.149 74.6367 179.188 74.6759 179.225 74.7127L179.227 74.715ZM176.031 70.9342V70.2154C175.791 70.3283 175.42 70.4366 174.915 70.5356L174.006 70.7061C173.173 70.8835 172.687 71.1969 172.548 71.6508V71.6692C172.512 71.7821 172.491 71.9272 172.491 72.1046C172.491 72.7221 172.8 73.1138 173.418 73.2774C173.57 73.3142 173.738 73.335 173.928 73.335C175.025 73.335 175.694 72.812 175.934 71.766C175.996 71.5148 176.029 71.236 176.029 70.9342H176.031Z" fill="#A72C32"/>
<path d="M183.206 61.2578H180.556V75.0356H183.206V61.2578Z" fill="#A72C32"/>
<path fill-rule="evenodd" clip-rule="evenodd" d="M193.909 74.715V75.0353H191.033C190.83 74.7335 190.731 74.3925 190.731 74.0146C189.797 74.9846 188.764 75.4708 187.627 75.4708C186.656 75.4708 185.86 75.1482 185.242 74.5077C184.762 73.9916 184.522 73.2912 184.522 72.4111C184.522 70.6094 185.526 69.538 187.53 69.197L188.591 69.0081C189.449 68.8699 189.972 68.757 190.161 68.6671C190.175 68.6556 190.205 68.6349 190.256 68.6095C190.558 68.4459 190.71 68.181 190.71 67.8169C190.71 67.1373 190.198 66.7963 189.176 66.7963C188.319 66.7963 187.77 66.999 187.53 67.3999V67.4184C187.417 67.6073 187.341 67.8653 187.304 68.1925H184.748C184.912 65.8609 186.37 64.6835 189.119 64.6582C191.907 64.6582 193.3 65.7042 193.3 67.7962V73.4663C193.3 73.8948 193.464 74.2727 193.791 74.5998C193.83 74.6367 193.867 74.6759 193.904 74.7127L193.909 74.715ZM190.71 70.9342V70.2154C190.47 70.3283 190.099 70.4366 189.594 70.5356L188.685 70.7061C187.853 70.8835 187.366 71.1969 187.228 71.6508V71.6692C187.191 71.7821 187.17 71.9272 187.17 72.1046C187.17 72.7221 187.479 73.1138 188.097 73.2774C188.249 73.3142 188.418 73.335 188.609 73.335C189.707 73.335 190.376 72.812 190.615 71.766C190.678 71.5148 190.71 71.236 190.71 70.9342Z" fill="#A72C32"/>
<path fill-rule="evenodd" clip-rule="evenodd" d="M201.427 64.8281H204.151L199.951 76.9056C199.635 77.7742 199.289 78.3409 198.911 78.6059C198.784 78.6934 198.634 78.7764 198.456 78.8524C197.94 79.0667 197.301 79.1727 196.545 79.1727C196.268 79.1727 195.952 79.1473 195.599 79.0966V77.1129C195.876 77.1889 196.111 77.2258 196.3 77.2258C196.944 77.2258 197.416 76.9493 197.718 76.3941C197.871 76.1291 197.947 75.8388 197.947 75.5255V75.4494L194.144 64.8281H197.059L199.31 72.2561L201.429 64.8281H201.427Z" fill="#A72C32"/>
<path fill-rule="evenodd" clip-rule="evenodd" d="M213.862 74.715V75.0353H210.986C210.786 74.7335 210.684 74.3925 210.684 74.0146C209.75 74.9846 208.717 75.4708 207.58 75.4708C206.609 75.4708 205.813 75.1482 205.195 74.5077C204.716 73.9916 204.476 73.2912 204.476 72.4111C204.476 70.6094 205.479 69.538 207.485 69.197L208.544 69.0081C209.402 68.8699 209.925 68.757 210.115 68.6671C210.128 68.6556 210.158 68.6349 210.209 68.6095C210.511 68.4459 210.663 68.181 210.663 67.8169C210.663 67.1373 210.151 66.7963 209.13 66.7963C208.272 66.7963 207.723 66.999 207.483 67.3999V67.4184C207.37 67.6073 207.294 67.8653 207.257 68.1925H204.702C204.866 65.8609 206.323 64.6835 209.072 64.6582C211.86 64.6582 213.253 65.7042 213.253 67.7962V73.4663C213.253 73.8948 213.417 74.2727 213.745 74.5998C213.781 74.6367 213.821 74.6759 213.858 74.7127L213.862 74.715ZM210.663 70.9342V70.2154C210.424 70.3283 210.052 70.4366 209.547 70.5356L208.639 70.7061C207.806 70.8835 207.319 71.1969 207.181 71.6508V71.6692C207.144 71.7821 207.123 71.9272 207.123 72.1046C207.123 72.7221 207.432 73.1138 208.05 73.2774C208.203 73.3142 208.371 73.335 208.56 73.335C209.658 73.335 210.327 72.812 210.567 71.766C210.629 71.5148 210.661 71.236 210.661 70.9342H210.663Z" fill="#A72C32"/>
<path fill-rule="evenodd" clip-rule="evenodd" d="M215.117 64.8307H217.767V66.3052C218.461 65.273 219.399 64.7247 220.587 64.6602H220.834C222.437 64.6602 223.488 65.2961 223.993 66.5702C224.171 67.0494 224.259 67.5908 224.259 68.1945V75.0373H221.609V68.7428C221.609 67.5194 221.041 66.9088 219.904 66.9088C218.97 66.9088 218.327 67.2613 217.974 67.9664C217.836 68.2428 217.767 68.5585 217.767 68.911V75.035H215.117V64.8283V64.8307Z" fill="#A72C32"/>
<path fill-rule="evenodd" clip-rule="evenodd" d="M231.193 75.0356V61.2578H237.342C238.73 61.2578 239.814 61.5919 240.596 62.26C241.352 62.9144 241.77 63.7162 241.846 64.6608V64.8889C241.846 65.7966 241.449 66.5777 240.653 67.232H240.635C240.446 67.3956 240.218 67.5592 239.955 67.7228C241.481 68.6167 242.245 69.7318 242.245 71.0681C242.245 72.0634 241.903 72.939 241.223 73.6947C241.147 73.796 241.059 73.8836 240.958 73.9596C240.933 73.985 240.907 74.0103 240.882 74.0357C240.088 74.7038 238.926 75.0379 237.399 75.0379H231.193V75.0356ZM234.032 63.6194V66.7367H237.116C238.389 66.6491 239.058 66.133 239.122 65.1861C239.122 64.2023 238.523 63.6793 237.326 63.6171H234.032V63.6194ZM234.032 69.1005V72.6717H237.42C238.783 72.6095 239.482 72.0174 239.521 70.8953C239.521 69.6973 238.82 69.1005 237.42 69.1005H234.032Z" fill="#A72C32"/>
<path fill-rule="evenodd" clip-rule="evenodd" d="M252.639 74.715V75.0353H249.763C249.562 74.7335 249.461 74.3925 249.461 74.0146C248.527 74.9846 247.494 75.4708 246.359 75.4708C245.388 75.4708 244.592 75.1482 243.974 74.5077C243.495 73.9916 243.255 73.2912 243.255 72.4111C243.255 70.6094 244.258 69.538 246.262 69.197L247.323 69.0081C248.181 68.8699 248.704 68.757 248.894 68.6671C248.905 68.6556 248.937 68.6349 248.988 68.6095C249.29 68.4459 249.442 68.181 249.442 67.8169C249.442 67.1373 248.931 66.7963 247.909 66.7963C247.051 66.7963 246.502 66.999 246.262 67.3999V67.4184C246.149 67.6073 246.073 67.8653 246.036 68.1925H243.481C243.645 65.8609 245.102 64.6835 247.851 64.6582C250.639 64.6582 252.032 65.7042 252.032 67.7962V73.4663C252.032 73.8948 252.196 74.2727 252.524 74.5998C252.563 74.6367 252.6 74.6759 252.637 74.7127L252.639 74.715ZM249.44 70.9342V70.2154C249.2 70.3283 248.829 70.4366 248.324 70.5356L247.415 70.7061C246.583 70.8835 246.098 71.1969 245.958 71.6508V71.6692C245.921 71.7821 245.9 71.9272 245.9 72.1046C245.9 72.7221 246.209 73.1138 246.827 73.2774C246.979 73.3142 247.148 73.335 247.337 73.335C248.435 73.335 249.103 72.812 249.343 71.766C249.406 71.5148 249.438 71.236 249.438 70.9342H249.44Z" fill="#A72C32"/>
<path fill-rule="evenodd" clip-rule="evenodd" d="M253.894 64.8307H256.543V66.3052C257.238 65.273 258.176 64.7247 259.362 64.6602H259.608C261.211 64.6602 262.263 65.2961 262.768 66.5702C262.943 67.0494 263.033 67.5908 263.033 68.1945V75.0373H260.383V68.7428C260.383 67.5194 259.816 66.9088 258.681 66.9088C257.747 66.9088 257.104 67.2613 256.751 67.9664C256.613 68.2428 256.543 68.5585 256.543 68.911V75.035H253.894V64.8283V64.8307Z" fill="#A72C32"/>
<path fill-rule="evenodd" clip-rule="evenodd" d="M267.477 68.7987L270.828 64.829H273.835L270.355 68.6858L274.082 75.0356H270.978L268.538 70.5382L267.479 71.6902V75.0356H264.83V61.2578H267.477V68.7987Z" fill="#A72C32"/>
<path fill-rule="evenodd" clip-rule="evenodd" d="M281.667 61.2578V73.485H288.48V75.0356H279.908V61.2578H281.667Z" fill="#A72C32"/>
<path fill-rule="evenodd" clip-rule="evenodd" d="M293.159 65.1331V66.4187H291.531V73.2039C291.531 73.6831 291.67 73.9596 291.949 74.0357C292.062 74.0725 292.214 74.0933 292.403 74.0933C292.719 74.0933 292.97 74.0679 293.159 74.0172V75.3397C292.668 75.4273 292.239 75.471 291.873 75.471C290.749 75.471 290.12 75.0494 289.979 74.2039C289.968 74.1163 289.961 74.0149 289.961 73.902V66.4187H288.618V65.1331H289.961V62.4121H291.531V65.1331H293.159Z" fill="#A72C32"/>
<path fill-rule="evenodd" clip-rule="evenodd" d="M302.414 61.2578V75.0356H301.014V73.7315C300.283 74.7775 299.375 75.3512 298.291 75.4503C298.152 75.4618 298.007 75.4687 297.855 75.4687C296.215 75.4687 295.016 74.7637 294.259 73.3514C293.78 72.4574 293.54 71.3607 293.54 70.0636C293.54 68.1237 294.1 66.6814 295.223 65.7367C295.943 65.1446 296.801 64.8474 297.797 64.8474C299.16 64.8474 300.175 65.3566 300.844 66.3795V61.2578H302.414ZM298.062 66.3219C296.99 66.3219 296.197 66.838 295.678 67.8725C295.426 68.3517 295.267 68.9116 295.205 69.5544C295.193 69.7572 295.186 69.9576 295.186 70.1581C295.186 71.6948 295.629 72.803 296.51 73.485C296.965 73.826 297.488 73.9942 298.081 73.9942C299.116 73.9942 299.877 73.485 300.371 72.462C300.687 71.833 300.844 71.075 300.844 70.1949C300.844 68.5453 300.389 67.3979 299.481 66.7551C299.063 66.4648 298.59 66.3196 298.062 66.3196V66.3219Z" fill="#A72C32"/>
<path d="M306.618 73.0703H304.651V75.0356H306.618V73.0703Z" fill="#A72C32"/>
<path fill-rule="evenodd" clip-rule="evenodd" d="M104.905 66.6106C104.905 58.7794 111.26 52.4297 119.102 52.4297C126.943 52.4297 133.299 58.7794 133.299 66.6106C133.299 74.4419 126.943 80.7916 119.102 80.7916C111.26 80.7916 104.905 74.4419 104.905 66.6106Z" fill="white"/>
<path d="M119.102 52.649C111.394 52.649 105.124 58.9112 105.124 66.6088C105.124 74.3064 111.394 80.5686 119.102 80.5686C126.809 80.5686 133.08 74.3064 133.08 66.6088C133.08 58.9112 126.809 52.649 119.102 52.649ZM119.102 81.0087C111.152 81.0087 104.683 74.5483 104.683 66.6088C104.683 58.6693 111.15 52.209 119.102 52.209C127.053 52.209 133.52 58.6693 133.52 66.6088C133.52 74.5483 127.051 81.0087 119.102 81.0087Z" fill="#A72C32"/>
<path fill-rule="evenodd" clip-rule="evenodd" d="M110.59 66.578C110.59 61.8686 114.413 58.0487 119.129 58.0487C123.846 58.0487 127.669 61.8663 127.669 66.578C127.669 71.2896 123.846 75.1073 119.129 75.1073C114.413 75.1073 110.59 71.2896 110.59 66.578ZM105.594 66.578C105.594 59.1131 111.653 53.0605 119.129 53.0605C126.606 53.0605 132.665 59.1131 132.665 66.578C132.665 74.0428 126.604 80.0954 119.129 80.0954C111.655 80.0954 105.594 74.0428 105.594 66.578Z" fill="#A72C32"/>
<path d="M119.129 58.1348C114.466 58.1348 110.673 61.9225 110.673 66.5789C110.673 71.2352 114.466 75.0229 119.129 75.0229C123.793 75.0229 127.584 71.2352 127.584 66.5789C127.584 61.9225 123.79 58.1348 119.129 58.1348ZM119.129 75.1911C114.374 75.1911 110.507 71.3274 110.507 66.5789C110.507 61.8304 114.374 57.9666 119.129 57.9666C123.885 57.9666 127.752 61.8304 127.752 66.5789C127.752 71.3274 123.885 75.1911 119.129 75.1911ZM119.129 53.1444C111.713 53.1444 105.68 59.1716 105.68 66.5789C105.68 73.9862 111.713 80.0134 119.129 80.0134C126.546 80.0134 132.579 73.9862 132.579 66.5789C132.579 59.1716 126.546 53.1444 119.129 53.1444ZM119.129 80.1792C111.62 80.1792 105.511 74.0783 105.511 66.5789C105.511 59.0794 111.62 52.9785 119.129 52.9785C126.639 52.9785 132.748 59.0794 132.748 66.5789C132.748 74.0783 126.639 80.1792 119.129 80.1792Z" fill="#A72C32"/>
<mask id="mask0_2247_740" style="mask-type:luminance" maskUnits="userSpaceOnUse" x="105" y="53" width="28" height="28">
<path d="M131.627 61.4431C130.877 63.2816 130.963 65.0027 132.621 66.6178C131.184 67.6338 130.838 69.3434 131.585 71.751C129.809 72.4215 128.663 73.8223 128.643 76.0986C126.569 76.0433 125.132 77.0363 124.332 79.08C122.097 78.2828 120.356 78.6007 119.109 80.0315C117.845 78.6146 116.117 78.269 113.927 78.997C113.029 76.9695 111.579 75.9765 109.575 76.0157C109.697 74.0527 108.744 72.6173 106.715 71.7096C107.541 69.5968 107.181 67.8988 105.638 66.6178C107.192 65.2723 107.552 63.2425 106.632 61.4431C108.728 60.5422 109.725 59.0792 109.616 57.054C111.669 57.236 113.105 56.2568 113.927 54.1141C116.081 54.9551 117.822 54.6233 119.15 53.1211C120.469 54.621 122.197 54.9942 124.332 54.2385C125.116 55.9619 126.405 57.1784 128.684 57.0954C128.541 58.964 129.521 60.4132 131.627 61.4431Z" fill="white"/>
</mask>
<g mask="url(#mask0_2247_740)">
<path d="M114.635 55.7075L113.322 55.3296L113.368 55.1684L114.545 55.507L115.063 54.4219L115.216 54.4933L114.635 55.7075Z" fill="white"/>
<path d="M115.838 58.8709L114.512 55.6407L114.666 55.5762L115.995 58.8063L115.838 58.8709Z" fill="white"/>
<path d="M123.642 55.6595L123.142 54.4844L123.296 54.4199L123.741 55.4636L124.881 55.1941L124.92 55.3576L123.642 55.6595Z" fill="white"/>
<path d="M122.462 58.7852L122.305 58.7207L123.615 55.5273L123.769 55.5919L122.462 58.7852Z" fill="white"/>
<path d="M131.216 62.6796L130.095 62.1082L130.49 60.8203L130.651 60.8687L130.298 62.023L131.292 62.5299L131.216 62.6796Z" fill="white"/>
<path d="M126.871 63.4866L126.809 63.3322L130.166 61.9844L130.229 62.141L126.871 63.4866Z" fill="white"/>
<path d="M130.513 72.3404L130.093 71.1331L131.257 70.541L131.334 70.6908L130.3 71.2161L130.669 72.2851L130.513 72.3404Z" fill="white"/>
<path d="M127.063 69.7342L126.997 69.8887L130.169 71.2549L130.236 71.1005L127.063 69.7342Z" fill="white"/>
<path d="M107.042 62.7188L106.966 62.5713L108.022 62.023L107.69 60.8687L107.852 60.8203L108.223 62.1082L107.042 62.7188Z" fill="white"/>
<path d="M108.149 61.9833L108.085 62.1387L111.239 63.4425L111.303 63.2871L108.149 61.9833Z" fill="white"/>
<path d="M107.787 72.3189L107.628 72.2659L107.978 71.2153L106.924 70.6693L107 70.5195L108.184 71.1324L107.787 72.3189Z" fill="white"/>
<path d="M111.281 69.7365L108.005 71.1426L108.071 71.2971L111.347 69.8911L111.281 69.7365Z" fill="white"/>
<path d="M115.054 78.7466L114.507 77.696L113.499 78.0831L113.439 77.9264L114.588 77.4863L115.204 78.6706L115.054 78.7466Z" fill="white"/>
<path d="M114.625 77.7069L114.47 77.6447L115.797 74.373L115.953 74.4353L114.625 77.7069Z" fill="white"/>
<path d="M123.204 78.7866L123.054 78.7151L123.624 77.5332L125.059 77.9249L125.015 78.0862L123.714 77.7313L123.204 78.7866Z" fill="white"/>
<path d="M122.502 74.3734L122.346 74.4355L123.63 77.6642L123.787 77.602L122.502 74.3734Z" fill="white"/>
</g>
<path d="M115.995 78.4889C117.22 78.4889 118.265 78.9382 119.109 79.8252C120.359 78.482 122.091 78.1686 124.252 78.9059C125.061 76.9498 126.484 75.9591 128.481 75.9591H128.504C128.567 73.8948 129.57 72.4156 131.413 71.6714C130.723 69.3513 131.057 67.6487 132.407 66.605C130.974 65.1443 130.67 63.52 131.449 61.5155C129.436 60.4948 128.456 59.0595 128.537 57.2462C126.572 57.2647 125.172 56.3431 124.261 54.4193C122.188 55.1151 120.47 54.7487 119.155 53.3364C117.834 54.7464 116.102 55.0759 114.014 54.3018C113.184 56.3523 111.75 57.3338 109.771 57.2117C109.819 59.1654 108.83 60.6123 106.831 61.5178C107.679 63.3103 107.303 65.2825 105.86 66.6211C107.313 67.9021 107.663 69.5909 106.902 71.6415C108.849 72.5515 109.799 73.9754 109.732 75.8785C111.674 75.89 113.113 76.8807 114.012 78.8276C114.72 78.6041 115.389 78.4889 116.002 78.4889H115.995ZM119.111 80.2514L119.003 80.1316C117.783 78.7631 116.095 78.4336 113.973 79.1363L113.851 79.1778L113.798 79.0603C112.935 77.1111 111.593 76.1642 109.693 76.1642L109.423 76.1688L109.432 76.0144C109.552 74.0998 108.643 72.7359 106.655 71.8465L106.531 71.7912L106.579 71.6645C107.386 69.5955 107.047 67.9828 105.544 66.734L105.415 66.6257L105.541 66.5151C107.022 65.2318 107.4 63.2688 106.503 61.5132L106.434 61.3773L106.575 61.3174C108.629 60.4349 109.577 59.0433 109.474 57.0665L109.464 56.9029L109.628 56.9168C111.625 57.0942 112.99 56.1634 113.793 54.0691L113.844 53.9354L113.978 53.9884C116.062 54.8017 117.76 54.4838 119.042 53.0323L119.148 52.9102L119.254 53.0323C120.53 54.4815 122.215 54.8409 124.282 54.1105L124.404 54.0667L124.457 54.1866C125.338 56.1265 126.701 57.0251 128.675 56.9605L128.834 56.9559L128.823 57.1149C128.684 58.935 129.621 60.3128 131.687 61.3243L131.807 61.3819L131.756 61.504C130.944 63.4969 131.249 65.0913 132.718 66.522L132.84 66.6418L132.699 66.7409C131.325 67.7109 130.993 69.3859 131.717 71.7152L131.756 71.8442L131.632 71.8926C129.787 72.5907 128.8 74.0491 128.781 76.1089V76.254L128.636 76.2494C126.611 76.1872 125.246 77.1411 124.462 79.1409L124.411 79.2699L124.279 79.2238C122.116 78.452 120.417 78.7538 119.213 80.1362L119.107 80.2583L119.111 80.2514Z" fill="white"/>
<path fill-rule="evenodd" clip-rule="evenodd" d="M107.963 66.582C107.875 66.5959 107.81 66.6189 107.73 66.6511C107.605 66.7018 107.522 66.7456 107.421 66.8263C107.335 66.8931 107.28 66.9461 107.215 67.029C107.135 67.135 107.07 67.2179 107.042 67.3539C107.015 67.4875 106.999 67.5981 107.056 67.7225C107.114 67.8469 107.211 67.9183 107.342 67.9598C107.478 68.0013 107.587 67.9736 107.72 67.9368C107.82 67.9091 107.88 67.8769 107.965 67.8193L107.97 68.0451H108.177L108.175 67.8515L109.879 67.8216L110.13 67.5658L108.17 67.6004L108.166 67.2755L107.958 67.2801L107.965 67.6534C107.914 67.7156 107.868 67.7501 107.79 67.7778C107.704 67.8101 107.626 67.8147 107.534 67.7916C107.411 67.7594 107.338 67.6787 107.282 67.5612C107.234 67.4575 107.222 67.3631 107.241 67.2502C107.262 67.1327 107.328 67.0613 107.404 66.9737C107.476 66.8908 107.55 66.8447 107.644 66.7917C107.755 66.7249 107.838 66.6834 107.963 66.6465V66.5866V66.582Z" fill="white"/>
<path fill-rule="evenodd" clip-rule="evenodd" d="M108.163 65.5554L107.956 65.5508L107.926 67.2834L108.133 67.288L108.152 66.2258L108.468 66.2305L108.458 66.7327C108.458 66.8203 108.456 66.8894 108.493 66.9631C108.523 67.0253 108.564 67.0691 108.624 67.0991C108.74 67.1613 108.85 67.1336 108.977 67.0921C109.069 67.0645 109.134 67.0161 109.196 66.9447C109.277 67.0368 109.367 67.0898 109.498 67.106C109.637 67.1221 109.743 67.0967 109.86 67.0253C109.978 66.9539 110.024 66.8594 110.091 66.7442C110.149 66.6452 110.186 66.5691 110.213 66.4562L110.14 66.4171C110.126 66.4908 110.098 66.5461 110.063 66.6106C110.02 66.6912 109.983 66.7488 109.909 66.8018C109.83 66.8571 109.764 66.894 109.664 66.894C109.565 66.894 109.496 66.8479 109.418 66.7949C109.293 66.7074 109.238 66.6014 109.205 66.4493C109.182 66.3364 109.136 66.2305 109.21 66.1406C109.249 66.0899 109.307 66.0507 109.376 66.053C109.436 66.053 109.489 66.0807 109.535 66.1083C109.604 66.1521 109.646 66.2005 109.671 66.2765L109.851 66.1245C109.812 66.0669 109.761 66.0231 109.701 65.9862C109.602 65.9286 109.521 65.9056 109.404 65.9171C109.277 65.9286 109.189 65.9793 109.111 66.0715C109.033 66.1659 109 66.2512 108.993 66.3779C108.986 66.4816 109.007 66.5507 109.037 66.6475C109.063 66.7258 109.095 66.788 109.136 66.8571C109.092 66.9078 109.044 66.9424 108.982 66.9631C108.92 66.9839 108.871 67.0092 108.811 66.9908C108.733 66.9677 108.7 66.894 108.68 66.8157C108.664 66.7558 108.673 66.7074 108.675 66.6429L108.687 65.9885L108.154 65.9793L108.161 65.56L108.163 65.5554Z" fill="white"/>
<path fill-rule="evenodd" clip-rule="evenodd" d="M112.043 58.151L111.893 58.0059L110.447 59.5034L110.597 59.6486L110.938 59.2961L111.505 59.8444L111.36 59.9942C111.328 60.0287 111.279 60.0771 111.298 60.114C111.321 60.1532 111.39 60.1555 111.427 60.1601L112.01 60.2177C112.059 60.2223 112.123 60.1808 112.133 60.1486C112.142 60.114 112.1 60.0817 112.073 60.0541L111.86 59.849L112.31 59.3836L112.79 59.8467L113.14 59.8352L111.729 58.4736L112.043 58.1487V58.151ZM112.123 59.2039L111.674 59.6693L111.106 59.121L111.556 58.6556L112.123 59.2039Z" fill="white"/>
<path fill-rule="evenodd" clip-rule="evenodd" d="M112.72 57.6538L112.591 57.4902L111.895 58.034L112.024 58.1976L112.187 58.0708L113.248 59.4256L113.59 59.4624L112.381 57.9188L112.72 57.6538Z" fill="white"/>
<path fill-rule="evenodd" clip-rule="evenodd" d="M121.214 55.8123L121.233 55.6049L119.058 55.416L119.039 55.6234L120.513 55.7524L120.476 56.1832C120.432 56.1832 120.393 56.1971 120.347 56.2063C120.271 56.2247 120.211 56.2593 120.144 56.2938C120.061 56.3353 120.001 56.3814 119.932 56.4367C119.907 56.3699 119.881 56.3238 119.833 56.2662C119.773 56.1948 119.722 56.151 119.637 56.1141C119.533 56.0657 119.452 56.0404 119.337 56.0611C119.212 56.0842 119.134 56.1464 119.076 56.2547C119.005 56.3837 119.042 56.5035 119.076 56.6509C119.12 56.833 119.222 56.9297 119.353 57.068C119.473 57.1924 119.646 57.3537 119.662 57.3652L119.729 57.2938C119.729 57.2938 119.632 57.1993 119.581 57.1463C119.482 57.0426 119.402 56.9643 119.339 56.8284C119.312 56.7615 119.272 56.7039 119.275 56.6279C119.275 56.5242 119.291 56.4459 119.367 56.3745C119.411 56.3307 119.459 56.3077 119.521 56.2961C119.602 56.2823 119.667 56.2869 119.736 56.3238C119.803 56.3606 119.849 56.4159 119.87 56.4874L119.715 56.644L119.946 56.8468C119.973 56.7846 120.003 56.7385 120.043 56.6855C120.098 56.6118 120.146 56.5542 120.22 56.5058C120.294 56.4551 120.363 56.4229 120.455 56.4044L120.363 57.4666L120.594 57.7269L120.764 55.7754L121.214 55.8146V55.8123Z" fill="white"/>
<path fill-rule="evenodd" clip-rule="evenodd" d="M127.907 60.022L128.062 59.8838L126.807 58.4922L126.652 58.6304L126.853 58.8516C126.883 59.0221 126.791 59.1696 126.641 59.2571C126.486 59.3447 126.297 59.2917 126.18 59.1534C126.041 59.2709 125.977 59.3953 125.951 59.5681C125.933 59.7018 125.949 59.8055 126.009 59.923C126.122 60.1603 126.334 60.2962 126.592 60.2962L126.177 60.6694L126.166 61.0127L127.623 59.7018L127.907 60.0174V60.022ZM127.031 59.8999C126.943 59.9783 126.871 60.0197 126.758 60.052C126.509 60.1188 126.233 60.0773 126.117 59.8469C126.048 59.7041 126.05 59.5635 126.131 59.4276C126.323 59.5635 126.602 59.5543 126.754 59.4576C126.878 59.3815 127.003 59.241 127.04 59.0613L127.455 59.5221L127.033 59.9022L127.031 59.8999Z" fill="white"/>
<path fill-rule="evenodd" clip-rule="evenodd" d="M130.015 67.88L130.222 67.8869L130.289 65.9815L130.082 65.9746L130.038 67.1911L129.521 67.1727L129.549 66.3502C129.549 66.3064 129.565 66.2672 129.549 66.228C129.526 66.1612 129.452 66.1336 129.378 66.1313C129.33 66.1313 129.286 66.1359 129.247 66.152L128.832 66.3502C128.793 66.3663 128.751 66.4078 128.763 66.4561C128.769 66.4953 128.818 66.5091 128.857 66.5114L129.304 66.5276L129.281 67.1635L128.315 67.1289L128.068 67.3754L130.029 67.4445L130.013 67.8777L130.015 67.88Z" fill="white"/>
<path fill-rule="evenodd" clip-rule="evenodd" d="M125.93 75.2087L126.073 75.3608L127.531 74.0037L127.388 73.8517L126.424 74.7502L125.248 73.4923H124.902L126.239 74.923L125.932 75.211L125.93 75.2087ZM125.679 73.96L125.891 74.1881C125.886 74.1328 125.886 74.0383 125.898 73.9554C125.909 73.8862 125.921 73.8217 125.944 73.7572L126.551 73.8978C126.498 73.9761 126.458 74.059 126.306 74.1258C126.232 74.1604 126.182 74.1834 126.101 74.1996V74.2641C126.246 74.2848 126.352 74.2641 126.484 74.2042C126.645 74.1235 126.763 74.0383 126.82 73.8655C126.883 73.6904 126.855 73.5199 126.73 73.3748C126.613 73.2365 126.468 73.1812 126.292 73.1904C126.152 73.1973 126.05 73.2365 125.944 73.331C125.849 73.4139 125.81 73.4992 125.76 73.6098C125.702 73.7273 125.683 73.8701 125.676 73.96H125.679ZM125.967 73.6904C125.981 73.6167 126.041 73.4969 126.133 73.4116C126.218 73.331 126.334 73.2895 126.426 73.3125C126.521 73.3379 126.569 73.4162 126.606 73.5061C126.652 73.619 126.634 73.7411 126.583 73.824L125.967 73.6927V73.6904Z" fill="white"/>
<path fill-rule="evenodd" clip-rule="evenodd" d="M126.362 74.9924C126.486 75.1744 126.59 75.2735 126.763 75.4025C126.874 75.4854 126.959 75.5545 127.093 75.5914C127.25 75.6329 127.381 75.6421 127.529 75.5776C127.632 75.5315 127.699 75.4831 127.773 75.3979L127.494 75.2896C127.409 75.3495 127.337 75.3748 127.24 75.3933C127.134 75.4117 127.042 75.3818 126.943 75.3495C126.818 75.3103 126.735 75.2781 126.636 75.1974C126.572 75.1467 126.535 75.1145 126.486 75.0477C126.548 75.0546 126.592 75.0615 126.655 75.0684C126.784 75.0822 126.878 75.103 127.007 75.103C127.132 75.103 127.22 75.1099 127.342 75.0822C127.519 75.0454 127.632 74.997 127.787 74.8979L127.552 74.709C127.466 74.785 127.39 74.8288 127.289 74.8795C127.167 74.9371 127.06 74.9394 126.927 74.9601C126.809 74.9786 126.724 74.9878 126.604 74.9832C126.546 74.9809 126.482 74.9693 126.424 74.9555L126.359 74.997L126.362 74.9924Z" fill="white"/>
<path d="M126.373 75.3505L126.325 75.5781L126.553 75.6265L126.601 75.3989L126.373 75.3505Z" fill="white"/>
<path fill-rule="evenodd" clip-rule="evenodd" d="M118.142 77.5761L118.147 77.7834L120.568 77.742L120.564 77.5346L119.372 77.5553L119.358 76.7628C119.378 76.6706 119.461 76.5001 119.591 76.4126C119.745 76.3066 119.955 76.1845 120.084 76.325C120.209 76.4609 120.107 76.6706 119.98 76.7996C119.814 76.9632 119.535 76.9724 119.36 76.8158V76.9056C119.478 77.0899 119.683 77.1729 119.9 77.1314C120.151 77.0784 120.319 76.8549 120.308 76.5946C120.294 76.3227 120.061 76.1177 119.787 76.1061C119.604 76.1015 119.415 76.2167 119.351 76.2905L119.344 75.8366L119.088 75.6016L119.104 76.59C119.104 76.59 118.917 76.8618 118.763 76.878C118.634 76.8895 118.497 76.8872 118.435 76.7743C118.364 76.6545 118.41 76.4932 118.56 76.3826C118.636 76.3296 118.783 76.2582 118.793 76.2582L118.689 76.0647C118.564 76.1015 118.486 76.1683 118.405 76.2743C118.265 76.4494 118.26 76.6314 118.35 76.8158C118.431 76.984 118.576 77.0807 118.767 77.0853C118.896 77.0922 119.049 77.0277 119.113 76.9793L119.122 77.5599L118.147 77.5761H118.142Z" fill="white"/>
<path fill-rule="evenodd" clip-rule="evenodd" d="M111.201 74.5471C111.157 74.6231 111.131 74.6876 111.104 74.7706C111.062 74.8973 111.044 74.9895 111.039 75.1185C111.035 75.2268 111.039 75.3028 111.062 75.4065C111.092 75.5355 111.115 75.6392 111.201 75.7475C111.286 75.8558 111.36 75.9364 111.494 75.9733C111.627 76.0078 111.745 75.9802 111.86 75.9064C111.978 75.8304 112.026 75.729 112.084 75.6023C112.128 75.5079 112.142 75.4433 112.153 75.3397L112.328 75.4825L112.46 75.3212L112.312 75.2014L113.385 73.8766L113.35 73.5195L112.116 75.0425L111.863 74.8374L111.731 74.9987L112.022 75.2337C112.035 75.312 112.033 75.3719 112.003 75.448C111.973 75.5332 111.927 75.5977 111.849 75.653C111.745 75.7244 111.634 75.7313 111.512 75.6968C111.401 75.6691 111.321 75.6161 111.247 75.5263C111.168 75.4364 111.159 75.3374 111.141 75.2222C111.122 75.1139 111.136 75.0286 111.155 74.9227C111.175 74.7936 111.196 74.7061 111.249 74.5863L111.203 74.5471H111.201Z" fill="white"/>
<path fill-rule="evenodd" clip-rule="evenodd" d="M110.338 73.2757L110.186 73.4185L111.674 75.0129L111.826 74.87L110.816 73.7894L111.134 73.4945C111.166 73.5222 111.205 73.5406 111.245 73.5637C111.314 73.6005 111.381 73.6144 111.454 73.6351C111.542 73.6604 111.618 73.665 111.708 73.6719C111.68 73.7388 111.671 73.7895 111.667 73.8632C111.664 73.9553 111.674 74.0222 111.71 74.1074C111.757 74.2134 111.8 74.2848 111.9 74.347C112.008 74.4115 112.109 74.4184 112.225 74.377C112.365 74.3309 112.418 74.2157 112.49 74.0821C112.578 73.9162 112.568 73.7779 112.561 73.5867C112.555 73.4139 112.536 73.1789 112.529 73.1605L112.43 73.1697C112.43 73.1697 112.437 73.3056 112.442 73.3793C112.446 73.5245 112.453 73.6351 112.409 73.7779C112.386 73.8471 112.377 73.9139 112.322 73.9715C112.252 74.0498 112.188 74.0959 112.084 74.0982C112.022 74.1028 111.971 74.0844 111.918 74.0521C111.849 74.0106 111.805 73.9622 111.777 73.8885C111.752 73.8171 111.754 73.7434 111.787 73.6766L112.006 73.6627L111.971 73.3586C111.909 73.3863 111.856 73.4001 111.791 73.4139C111.701 73.4323 111.627 73.4415 111.54 73.43C111.452 73.4185 111.378 73.3978 111.298 73.3471L112.079 72.619V72.2734L110.647 73.6097L110.341 73.2803L110.338 73.2757Z" fill="white"/>
<path fill-rule="evenodd" clip-rule="evenodd" d="M118.952 70.3603C118.952 70.2889 118.989 70.229 119.03 70.229C119.072 70.229 119.109 70.2912 119.109 70.3603C119.109 70.4294 119.072 70.4917 119.03 70.4917C118.989 70.4917 118.952 70.4294 118.952 70.3603ZM119.189 70.3603C119.189 70.2428 119.12 70.1484 119.03 70.1484C118.94 70.1484 118.871 70.2405 118.871 70.3603C118.871 70.4801 118.94 70.5723 119.03 70.5723C119.12 70.5723 119.189 70.4801 119.189 70.3603ZM119.508 69.2521C119.473 69.2521 119.441 69.2106 119.441 69.16C119.441 69.1093 119.471 69.0678 119.508 69.0678C119.545 69.0678 119.575 69.1093 119.575 69.16C119.575 69.2106 119.545 69.2521 119.508 69.2521ZM119.508 68.9872C119.427 68.9872 119.362 69.0632 119.362 69.16C119.362 69.2567 119.427 69.3304 119.508 69.3304C119.588 69.3304 119.653 69.2544 119.653 69.16C119.653 69.0655 119.588 68.9872 119.508 68.9872ZM119.203 71.1782C119.129 71.1782 119.072 71.1022 119.072 71.0077C119.072 70.9133 119.132 70.8372 119.203 70.8372C119.275 70.8372 119.335 70.9133 119.335 71.0077C119.335 71.1022 119.275 71.1782 119.203 71.1782ZM119.415 71.0077C119.415 70.8695 119.321 70.7566 119.203 70.7566C119.086 70.7566 118.991 70.8695 118.991 71.0077C118.991 71.146 119.086 71.2589 119.203 71.2589C119.321 71.2589 119.415 71.146 119.415 71.0077ZM119.837 73.0813C119.729 73.0813 119.639 73.0283 119.639 72.9638C119.639 72.8993 119.729 72.844 119.837 72.844C119.946 72.844 120.036 72.8993 120.036 72.9638C120.036 73.0283 119.946 73.0813 119.837 73.0813ZM119.837 72.7657C119.683 72.7657 119.561 72.8532 119.561 72.9638C119.561 73.0744 119.683 73.162 119.837 73.162C119.992 73.162 120.114 73.0744 120.114 72.9638C120.114 72.8532 119.992 72.7657 119.837 72.7657ZM119.242 73.1481C119.169 73.1481 119.111 73.0652 119.111 72.9638C119.111 72.8624 119.171 72.7795 119.242 72.7795C119.314 72.7795 119.374 72.8624 119.374 72.9638C119.374 73.0652 119.314 73.1481 119.242 73.1481ZM119.242 72.6989C119.125 72.6989 119.03 72.8164 119.03 72.9638C119.03 73.1113 119.125 73.2265 119.242 73.2265C119.36 73.2265 119.455 73.109 119.455 72.9638C119.455 72.8187 119.36 72.6989 119.242 72.6989ZM118.56 62.0199C118.834 61.9554 118.652 61.8978 119.012 62.0407C119.019 61.8448 118.583 61.8656 118.56 62.0199ZM119.346 62.483V62.5867L119.079 62.6051C119.284 62.7111 119.531 62.5614 119.346 62.4853V62.483ZM118.659 62.1881C118.719 62.2872 118.908 62.2895 118.959 62.1927C118.857 62.2434 118.76 62.2342 118.659 62.1881ZM119.113 62.2665C119.113 62.2204 119.111 62.172 119.074 62.1328L119.093 62.407C119.123 62.3632 119.116 62.3148 119.116 62.2665H119.113ZM119.226 61.8379C119.222 61.7965 119.222 61.7619 119.189 61.7273C119.166 61.7711 119.15 61.8126 119.155 61.8679L119.226 61.8379ZM119.016 62.5959C119.016 62.566 119.016 62.5452 119.016 62.5245C119.016 62.513 119.016 62.5015 119.012 62.4899C118.968 62.5268 118.968 62.5406 119.016 62.5959ZM119.623 62.0914L119.462 62.0798C119.524 62.0499 119.57 62.0591 119.623 62.0914ZM119.293 62.5291C119.3 62.4116 119.279 62.1904 119.432 62.1651L119.489 62.2342L119.385 62.2112C119.549 62.4254 119.667 62.1766 119.807 62.1743C119.66 62.0292 119.533 61.9739 119.355 62.1075C119.323 61.8494 119.69 62.0453 119.778 62.0292C119.704 61.9462 119.609 61.9024 119.496 61.9163C119.185 61.9554 119.249 62.2987 119.277 62.5268H119.293V62.5291ZM118.837 62.0683L118.737 62.0729V62.0591C118.767 62.0361 118.802 62.0361 118.837 62.0683ZM118.765 62.1858C118.79 62.2066 118.818 62.2135 118.85 62.2043L118.993 62.1697C118.915 61.8748 118.694 62.043 118.541 62.1443C118.617 62.2089 118.675 62.1144 118.765 62.1835V62.1858ZM119.086 62.8171L119.293 62.8309C119.24 62.8954 119.15 62.8908 119.086 62.8171ZM119.194 62.7319C119.12 62.7388 119.044 62.725 118.982 62.7756L119.072 62.8793C119.097 62.9093 119.127 62.9323 119.171 62.93C119.231 62.9254 119.282 62.9001 119.323 62.8609C119.355 62.8309 119.383 62.7918 119.413 62.7572C119.339 62.7549 119.27 62.725 119.192 62.7342L119.194 62.7319ZM119.286 65.3192C119.238 65.34 119.247 65.3953 119.259 65.4344C119.27 65.4736 119.335 65.4736 119.342 65.416C119.349 65.3584 119.335 65.2962 119.286 65.3192ZM119.268 65.1741L119.284 65.2409C119.284 65.2409 119.3 65.2132 119.33 65.1741C119.36 65.1349 119.406 65.1349 119.422 65.1695C119.438 65.204 119.392 65.2202 119.374 65.2086C119.355 65.1971 119.344 65.2156 119.349 65.2524C119.355 65.2893 119.445 65.3008 119.478 65.2132C119.508 65.1234 119.434 65.0888 119.379 65.0842C119.321 65.0819 119.27 65.1764 119.27 65.1764L119.268 65.1741ZM119.019 65.4344C119.03 65.3953 119.04 65.34 118.991 65.3192C118.943 65.2985 118.929 65.3584 118.936 65.416C118.943 65.4736 119.007 65.4736 119.019 65.4344ZM118.947 65.1741C118.977 65.2132 118.993 65.2409 118.993 65.2409L119.01 65.1741C119.01 65.1741 118.959 65.0796 118.901 65.0819C118.843 65.0842 118.77 65.1211 118.802 65.2109C118.832 65.3008 118.924 65.287 118.931 65.2501C118.938 65.2132 118.924 65.1948 118.906 65.2063C118.887 65.2179 118.841 65.2017 118.857 65.1672C118.873 65.1326 118.92 65.1326 118.95 65.1718L118.947 65.1741ZM119.284 65.6833C119.305 65.7224 119.277 65.7869 119.21 65.8307C119.226 65.8906 119.185 65.9782 119.185 65.9782C119.185 65.9782 119.259 65.9344 119.268 65.8676C119.332 65.8468 119.369 65.7478 119.344 65.681C119.379 65.6326 119.319 65.5865 119.319 65.5865C119.319 65.5865 119.335 65.6418 119.282 65.6833H119.284ZM119.123 65.5519C119.123 65.5519 118.98 65.6648 119.123 65.7939C119.254 65.6648 119.123 65.5519 119.123 65.5519ZM119.067 65.8307C119 65.7892 118.973 65.7247 118.993 65.6833C118.94 65.6395 118.956 65.5865 118.956 65.5865C118.956 65.5865 118.899 65.6326 118.931 65.681C118.906 65.7478 118.945 65.8468 119.007 65.8676C119.016 65.9344 119.09 65.9782 119.09 65.9782C119.09 65.9782 119.051 65.8906 119.065 65.8307H119.067ZM119.155 66.5242C119.155 66.5242 119.049 66.5772 119.148 66.7892C119.247 66.6302 119.155 66.5242 119.155 66.5242ZM124.256 71.1483C123.876 71.4455 123.548 71.8303 123.057 71.9409L122.743 71.8533L122.637 71.8303L122.582 71.8187H122.577C122.665 71.7012 122.808 71.6068 122.9 71.4847C123.006 71.3464 123.094 71.1068 123.202 70.9939C123.394 70.7935 124.122 71.0446 124.256 71.1483ZM123.825 72.3602C123.366 72.6712 122.872 72.7841 122.321 72.7495C122.063 72.7334 121.812 72.6781 121.581 72.5606L121.33 72.4408L121.237 72.4016L121.221 72.3947C121.39 72.298 121.701 72.2588 121.895 72.1805C122.07 72.1113 122.247 71.9846 122.418 71.9247C122.547 71.8786 123.802 72.351 123.823 72.3556L123.825 72.3602ZM122.326 73.1574C121.89 73.2564 120.981 73.4914 120.603 73.2357C120.705 72.9615 120.582 72.7334 120.368 72.5606C121.21 72.321 121.567 72.6989 122.326 73.1574ZM119.272 73.92C118.887 73.814 117.07 73.397 117.999 72.6689C117.942 72.8671 117.889 72.8786 117.942 73.0882L117.999 73.1067L118.029 73.1643C118.082 73.2126 118.159 73.2818 118.232 73.2864C118.255 73.261 118.29 73.3117 118.292 73.3301C118.313 73.3509 118.352 73.3601 118.405 73.3601L118.447 73.3371L118.548 73.4292C118.825 73.5698 118.8 72.7542 118.797 72.7035C119.109 72.6643 119.9 72.5698 120.188 72.5998C120.432 72.6251 120.543 73.0352 120.46 73.2265C120.363 73.4569 119.914 73.6343 119.697 73.731L119.27 73.92H119.272ZM117.688 72.8763C116.992 73.291 116.291 73.1044 115.557 72.9223C115.707 72.7403 116.314 72.3279 116.533 72.2173C116.959 72.3026 117.391 72.3671 117.81 72.4869L117.817 72.4731L117.909 72.5698C117.808 72.6505 117.732 72.7518 117.688 72.874V72.8763ZM114.162 72.3141C114.261 72.2473 114.655 72.0399 114.766 72.033C115.075 72.01 115.437 72.116 115.776 72.0929C115.949 72.0814 116.046 72.0929 116.212 72.139L116.36 72.1782H116.364C116.233 72.3003 115.998 72.4155 115.834 72.4823C115.631 72.5652 115.43 72.6251 115.211 72.6251C114.833 72.6251 114.494 72.4685 114.16 72.3141H114.162ZM113.433 70.8096C113.712 70.7405 114.005 70.7727 114.27 70.8764C114.63 71.4132 114.997 71.6989 115.631 71.9501C115.645 71.9547 115.682 71.9547 115.672 71.9662C115.636 72.0238 115.534 71.9708 115.465 71.9708C114.455 71.9754 113.945 71.6436 113.431 70.8073L113.433 70.8096ZM113.629 69.077C114.063 69.0678 114.501 69.1761 114.868 69.4088C115.103 70.4686 115.541 71.5791 116.576 72.0929C114.759 71.7243 114.118 70.7796 113.629 69.0793V69.077ZM114.148 68.3029C114.291 68.3904 114.609 68.5909 114.759 68.7775C114.771 68.872 114.794 69.0332 114.833 69.2337C114.577 69.0908 114.321 69.0171 114.102 68.9802C114.097 68.8512 114.095 68.5402 114.15 68.3029H114.148ZM114.623 67.9227C114.798 67.9665 114.925 68.0702 114.976 68.1209C114.937 68.3167 114.918 68.5171 114.909 68.6277C114.858 68.6139 114.826 68.6093 114.821 68.6093L114.778 68.6047C114.695 68.5241 114.595 68.4434 114.499 68.3743C114.51 68.2914 114.545 68.0702 114.623 67.9227ZM117.508 72.2772C115.746 71.9501 115.096 70.4156 114.888 68.7591C116.766 69.2775 116.309 71.3026 117.508 72.2772ZM115.195 67.8237C115.435 67.8582 115.675 67.9642 115.848 68.1347L115.843 68.4019C115.714 68.3121 115.576 68.2637 115.419 68.2476C115.38 68.4342 115.366 68.6254 115.363 68.8167C115.26 68.7591 115.154 68.7061 115.041 68.6669C115.061 68.3881 115.087 68.084 115.197 67.8237H115.195ZM116.009 68.7383C116.023 68.9365 116.058 69.1669 116.108 69.4042C115.885 69.1761 115.675 69.0125 115.493 68.895C115.493 68.8121 115.497 68.5794 115.525 68.395C115.772 68.4549 115.97 68.6876 116.009 68.736V68.7383ZM116.094 67.5518C116.228 67.6117 116.346 67.7038 116.443 67.8144C116.127 68.0425 116.016 68.1186 116 68.5356L115.975 68.5125C115.958 68.1946 115.97 67.849 116.092 67.5518H116.094ZM116.659 67.7937C117.128 67.7177 117.418 68.2775 117.831 68.3904C117.683 68.4434 117.54 68.531 117.462 68.6715C117.227 68.7291 117.042 68.8697 117.231 69.1093L117.301 69.13C117.314 69.2429 117.411 69.312 117.517 69.3397L117.531 69.3673C117.361 69.4479 117.206 69.5194 117.028 69.5793C117.234 69.6392 117.451 69.5977 117.547 69.3834L117.619 69.4088C117.635 69.5793 117.135 69.9387 116.989 70.0286C117.605 70.0078 117.6 69.3581 117.82 69.4134C117.776 69.6853 117.796 69.9548 117.739 70.2267L117.713 70.3419L117.704 70.3857L117.732 70.3488L117.831 70.1714C117.926 69.9917 117.944 69.5862 117.873 69.395C117.946 69.3489 118.025 69.3074 118.103 69.2705C118.119 69.4595 118.135 69.6714 118.235 69.8396C118.177 70.2705 117.937 71.5653 117.404 71.6183C117.13 71.3211 116.443 70.1299 116.327 69.7429C116.438 69.8673 116.606 69.9733 116.777 69.9825H116.904L116.95 69.9779L116.906 69.9617C116.83 69.9364 116.752 69.9111 116.68 69.8742C116.53 69.8005 116.399 69.6876 116.302 69.5539C116.177 69.3811 116.104 68.5771 116.145 68.3628C116.198 68.0932 116.475 67.9665 116.659 67.796V67.7937ZM117.116 67.4205C117.974 67.6002 117.884 68.054 118.304 68.2384C118.175 68.3213 118.009 68.342 117.863 68.3789C117.536 68.2361 117.169 67.5933 116.729 67.7292C116.851 67.6186 116.98 67.5103 117.118 67.4181L117.116 67.4205ZM117.181 67.3652C117.688 67.3375 118.059 67.6739 118.525 67.7776C118.652 67.8052 118.784 67.8052 118.906 67.7614L118.966 67.7384L118.986 67.7292H118.963L118.857 67.743C118.754 67.7499 118.645 67.7384 118.546 67.6992C118.115 67.5357 117.697 67.2269 117.211 67.3329C117.43 67.1186 117.527 67.0034 117.847 66.8974L117.891 66.8836C117.976 66.773 117.965 66.6417 118.119 66.5173C118.248 66.5772 118.558 66.5841 118.705 66.591C118.677 66.7385 118.643 66.7961 118.592 66.9251L118.659 67.0126L118.717 67.0311C118.878 67.0034 118.913 66.7247 118.917 66.5933H118.982C118.883 67.1785 119.402 67.0587 119.316 66.6002H119.409C119.438 66.7546 119.494 67.0541 119.713 66.962C119.704 67.0633 119.734 67.1647 119.784 67.25C119.279 67.5518 118.894 67.6923 118.502 67.1578C118.601 67.4827 118.947 67.7038 119.279 67.6048C119.409 67.5656 119.531 67.4896 119.635 67.4066C119.69 67.3629 119.828 67.2223 119.814 67.2937C119.775 67.326 119.743 67.3744 119.727 67.4228C119.492 67.6186 119.233 67.7937 118.936 67.8789C118.823 67.9112 118.707 67.9412 118.59 67.9527H118.511H118.461H118.442L118.458 67.9573L118.587 67.9918C118.742 68.0172 118.915 67.9849 119.063 67.9435C119.226 67.8974 119.376 67.8075 119.508 67.7015L119.611 67.6094L119.699 67.5195L119.711 67.508C119.794 67.5656 119.475 68.0955 119.339 68.1715L119.344 68.1808L118.915 68.3397C118.714 67.8859 118.364 68.2268 118.313 68.2268C118.205 68.2268 117.928 67.3168 117.13 67.4043L117.178 67.3629L117.181 67.3652ZM117.227 66.5012C117.1 66.5703 116.952 66.5841 116.826 66.538C116.514 66.3445 116.572 65.9252 116.613 65.7524C116.616 65.7409 116.62 65.727 116.623 65.7155C116.65 65.7155 116.694 65.7109 116.743 65.6994C116.738 65.704 116.733 65.7063 116.731 65.7109C116.726 65.7155 116.722 65.7224 116.719 65.727C116.717 65.7316 116.715 65.7362 116.713 65.7409C116.708 65.7478 116.708 65.7547 116.708 65.7547C116.708 65.7547 116.713 65.7547 116.722 65.7547C116.731 65.7547 116.743 65.7524 116.756 65.7501C116.763 65.7501 116.77 65.7501 116.775 65.7478C116.782 65.7478 116.789 65.7478 116.796 65.7478C116.802 65.7478 116.809 65.7478 116.814 65.7478H116.823H116.835C116.849 65.7478 116.865 65.7478 116.881 65.7478C116.897 65.7478 116.911 65.7455 116.925 65.7432C116.92 65.7616 116.918 65.7846 116.918 65.8077C116.918 66.0081 117.19 66.2293 117.439 66.2293C117.446 66.2293 117.451 66.2293 117.457 66.2293C117.427 66.3422 117.344 66.4436 117.225 66.5058L117.227 66.5012ZM116.523 65.7316C116.519 65.7547 116.512 65.7846 116.507 65.8146C116.392 65.5934 116.166 65.1211 116.108 64.7432C116.173 64.7432 116.251 64.7317 116.341 64.711C116.404 64.6972 116.459 64.6626 116.505 64.6188C116.556 64.7594 116.701 64.9414 116.763 65.0174C116.565 65.3008 116.546 65.5865 116.544 65.6579C116.535 65.6833 116.528 65.7086 116.523 65.7293V65.7316ZM115.951 64.6027C115.933 64.5543 115.951 64.5359 115.965 64.529C116.007 64.5428 116.06 64.552 116.127 64.552C116.152 64.552 116.18 64.552 116.207 64.5474C116.346 64.5336 116.459 64.4668 116.521 64.3861C116.521 64.3907 116.523 64.3953 116.526 64.4022C116.526 64.4691 116.436 64.5958 116.32 64.6211C116.115 64.6672 115.975 64.6603 115.951 64.6027ZM115.91 64.3654C115.901 64.3423 115.91 64.3239 115.924 64.3101L115.935 64.3331V64.3377C115.935 64.3377 116.007 64.446 116.136 64.446C116.166 64.446 116.198 64.4391 116.231 64.4276C116.353 64.3838 116.433 64.2732 116.473 64.211C116.482 64.2225 116.489 64.2387 116.487 64.2617C116.477 64.3239 116.371 64.4414 116.203 64.4552C116.177 64.4575 116.154 64.4598 116.131 64.4598C116.062 64.4598 115.94 64.4483 115.912 64.3677L115.91 64.3654ZM115.908 63.7617C115.915 63.7848 115.97 63.7963 115.988 63.8032L116.032 63.794L116.083 63.7295C116.124 63.7364 116.03 63.953 116.023 64.0244L116.03 64.1027L116.039 64.1304V64.1027L116.044 64.0267C116.06 63.9645 116.078 63.9046 116.108 63.847C116.184 63.7018 116.404 63.6097 116.404 63.4438C116.404 63.3424 116.392 63.241 116.404 63.1374L116.415 63.0936L116.427 63.0775C116.687 63.2526 116.535 64.3009 116.138 64.3516L116.021 64.2894C115.919 64.0797 115.887 64.0106 115.912 63.7617H115.908ZM115.898 63.4184C115.908 63.4069 115.919 63.4023 115.928 63.4C115.942 63.4807 115.965 63.5982 116.002 63.665H115.993C115.998 63.6995 115.991 63.7111 115.988 63.7134C115.965 63.6926 115.94 63.635 115.924 63.5959C115.922 63.5843 115.919 63.5751 115.915 63.5613C115.905 63.529 115.88 63.4415 115.898 63.4208V63.4184ZM116.041 63.2618C116.058 63.248 116.069 63.248 116.078 63.248C116.092 63.3286 116.122 63.5129 116.141 63.5636H116.136C116.141 63.6005 116.127 63.6281 116.111 63.6373C116.106 63.6396 116.099 63.6419 116.092 63.6373C116.069 63.6166 116.032 63.4807 116.014 63.3424C116.014 63.3217 116.021 63.2802 116.041 63.2618ZM116.286 63.5406C116.286 63.5406 116.27 63.559 116.261 63.5682L116.256 63.5544L116.244 63.5567C116.244 63.5567 116.237 63.5521 116.231 63.5313C116.219 63.5037 116.189 63.3401 116.171 63.2226C116.173 63.1973 116.184 63.1581 116.201 63.1512C116.201 63.1512 116.207 63.1512 116.212 63.1512C116.24 63.4023 116.267 63.4991 116.288 63.5383L116.286 63.5406ZM116.007 62.9415C115.97 62.9415 115.931 62.9369 115.894 62.9277C115.963 62.8724 116.053 62.8425 116.164 62.8425C116.207 62.8425 116.247 62.8471 116.279 62.8517C116.221 62.8931 116.127 62.9415 116.007 62.9415ZM115.956 62.5038C116.002 62.5061 116.007 62.5107 116.014 62.5153C116.021 62.5199 116.032 62.5291 116.053 62.536C116.053 62.536 116.053 62.536 116.058 62.5406C116.076 62.6328 116.097 62.6973 116.141 62.748C116.131 62.748 116.122 62.748 116.111 62.748L116.097 62.7434C116.058 62.7388 115.975 62.672 115.956 62.5015V62.5038ZM116.339 63.0337C116.339 63.0337 116.33 63.0498 116.327 63.0567C116.318 63.0798 116.314 63.1028 116.311 63.1235C116.309 63.142 116.309 63.1627 116.307 63.1788C116.307 63.1604 116.302 63.142 116.3 63.1258V63.1189C116.3 63.0682 116.318 63.0383 116.332 63.0314H116.337L116.339 63.0337ZM116.254 62.5061L116.35 62.771C116.177 62.7111 116.166 62.6535 116.127 62.4001C116.201 62.4347 116.244 62.4923 116.254 62.5061ZM116.286 62.2158C116.314 62.2503 116.334 62.2964 116.344 62.3218C116.323 62.3517 116.307 62.3794 116.295 62.4093C116.281 62.3955 116.265 62.3794 116.244 62.3632C116.244 62.3448 116.244 62.2918 116.288 62.2181L116.286 62.2158ZM116.487 62.2849C116.51 62.3287 116.523 62.3724 116.53 62.4162C116.468 62.5038 116.431 62.6074 116.424 62.7065L116.353 62.5107C116.371 62.4416 116.415 62.3655 116.484 62.2849H116.487ZM116.713 62.3678C116.722 62.46 116.713 62.6051 116.648 62.6996C116.616 62.7457 116.574 62.7756 116.521 62.7872C116.503 62.6443 116.57 62.46 116.715 62.3655L116.713 62.3678ZM116.8 62.5499C116.83 62.5383 116.872 62.5222 116.918 62.5176C116.883 62.6604 116.837 62.7918 116.754 62.8355C116.719 62.854 116.676 62.8563 116.623 62.8471C116.662 62.824 116.696 62.7941 116.726 62.7526C116.768 62.695 116.791 62.6213 116.802 62.5499H116.8ZM116.844 63.0176C116.733 63.0106 116.708 63.006 116.666 62.9715C116.662 62.9623 116.657 62.953 116.653 62.9438C116.659 62.9438 116.666 62.9438 116.676 62.9438C116.699 62.9438 116.719 62.9415 116.743 62.9369C116.775 62.953 116.816 62.9807 116.844 63.0176ZM116.519 63.0406C116.519 63.0406 116.505 63.0176 116.493 63.006C116.468 62.9692 116.447 62.9254 116.433 62.877L116.447 62.8816L116.457 62.8862C116.521 62.9162 116.6 62.9784 116.613 63.1166C116.581 63.0982 116.549 63.0729 116.519 63.0383V63.0406ZM116.906 64.9621C116.964 65.0151 117.086 65.1603 116.999 65.3837C116.915 65.5957 116.717 65.628 116.625 65.6303C116.632 65.5266 116.673 65.2248 116.904 64.9621H116.906ZM117.024 65.7086C117.019 65.7247 117.015 65.7455 117.015 65.7662C117.015 65.8468 117.065 65.9298 117.167 66.0104C117.259 66.0841 117.361 66.1164 117.451 66.1164C117.499 66.1164 117.545 66.1072 117.584 66.0911C117.557 66.1256 117.51 66.1394 117.444 66.1394C117.225 66.1394 117.001 65.939 117.001 65.7962C117.001 65.757 117.01 65.7293 117.024 65.7086ZM117.1 65.7339C117.1 65.7339 117.107 65.7547 117.112 65.7662C117.121 65.7892 117.13 65.81 117.141 65.833V65.8376L117.148 65.8445L117.155 65.8537C117.155 65.8537 117.162 65.863 117.167 65.8699C117.176 65.8791 117.183 65.8883 117.192 65.8975C117.229 65.9321 117.273 65.962 117.321 65.9782C117.37 65.9943 117.425 66.0012 117.476 65.992C117.527 65.9851 117.575 65.9666 117.619 65.9413H117.623C117.619 65.9643 117.605 65.9874 117.58 66.0058C117.501 66.0588 117.344 66.0542 117.218 65.9528C117.139 65.8883 117.098 65.8261 117.095 65.7708C117.095 65.7593 117.095 65.7478 117.1 65.7386V65.7339ZM117.176 64.5543C117.176 64.6856 117.167 64.8239 117.204 64.9506H117.213C117.022 65.0358 117.112 64.6027 117.176 64.5543ZM117.31 64.3308C117.326 64.5221 117.308 64.7133 117.344 64.9022L117.282 64.9229C117.271 64.8054 117.218 64.4414 117.31 64.3308ZM117.139 65.0773C117.183 65.0105 117.404 64.916 117.49 64.8792L117.485 64.863L117.423 64.8792C117.411 64.7271 117.37 64.3746 117.416 64.2479C117.427 64.2156 117.462 64.3009 117.467 64.3331L117.474 64.5105L117.478 64.6027L117.51 64.87L117.55 64.8653C117.531 64.6856 117.52 64.5105 117.52 64.3308C117.531 64.3216 117.54 64.34 117.545 64.347C117.557 64.3654 117.575 64.5912 117.58 64.6257C117.594 64.7732 117.617 64.9137 117.644 65.0589C117.561 65.0589 117.478 65.0865 117.409 65.1303C117.386 65.1441 117.331 65.1556 117.344 65.1787C117.358 65.2017 117.393 65.1556 117.416 65.1464C117.478 65.1257 117.557 65.1119 117.621 65.128C117.573 65.1925 117.552 65.2939 117.55 65.3722L117.628 65.3653C117.635 65.3284 117.635 65.2847 117.647 65.2501C117.66 65.2109 117.69 65.1718 117.709 65.1349C117.734 65.0865 117.838 64.7432 117.873 64.7502C117.794 65.0658 117.916 65.5312 117.665 65.7939C117.139 66.3422 117.072 65.3884 117.139 65.0796V65.0773ZM118.223 63.4691C118.255 63.6995 118.318 63.9484 118.463 64.135C118.219 64.2548 118.018 64.4529 117.856 64.6695C117.757 64.6695 117.716 64.8746 117.704 64.946C117.66 64.7386 117.656 64.5267 117.621 64.3193L117.566 64.2548C117.497 64.2594 117.397 64.0451 117.347 64.2571H117.271C117.197 64.3124 117.206 64.4046 117.141 64.4622C117.421 63.8516 117.432 63.5106 118.223 63.4645V63.4691ZM118.325 62.1467L118.387 62.096L118.431 62.1213C118.463 62.1858 118.463 62.2803 118.456 62.3494C118.451 62.3402 118.419 62.3563 118.412 62.3586C118.415 62.49 118.5 62.5522 118.514 62.6604C118.521 62.6904 118.475 62.7111 118.454 62.695C118.428 62.6397 118.318 62.202 118.327 62.1467H118.325ZM118.412 61.9209L118.477 61.8771C118.585 61.6006 118.631 61.2804 119.019 61.4094C118.68 61.3518 118.622 61.5522 118.516 61.8333H118.509L118.44 61.9508C118.426 61.9508 118.394 61.9301 118.389 61.9209H118.396H118.412ZM118.712 60.1837C118.945 60.0523 119.471 59.974 119.678 60.1675C119.685 60.1975 119.646 60.2274 119.621 60.2274C119.39 60.1952 118.846 60.2666 118.717 60.2251L118.71 60.186L118.712 60.1837ZM119.351 59.845L119.445 59.9118C119.279 59.9072 119.111 59.921 118.945 59.9302C119.06 59.8289 119.201 59.8358 119.351 59.8473V59.845ZM119.914 61.9255C119.953 61.9508 120.052 61.8886 120.082 61.8656C120.047 61.8955 119.969 61.9669 119.923 61.9623C119.784 61.8587 119.771 61.6582 119.727 61.5015C119.538 61.3149 119.346 61.4854 119.132 61.4301C119.27 61.4486 119.575 61.308 119.681 61.4071C119.831 61.5453 119.78 61.7711 119.911 61.9209L119.914 61.9255ZM120.529 63.5705C120.202 63.8677 119.916 64.2133 119.605 64.5267C119.773 64.1327 120.008 63.8977 120.073 63.4461C120.23 63.4714 120.382 63.5129 120.529 63.5705ZM118.511 63.4392C118.525 63.5544 118.587 63.8378 118.834 63.9783C118.781 63.9968 118.735 64.0152 118.682 64.0382C118.677 64.029 118.671 64.0221 118.664 64.0129C118.544 63.847 118.445 63.5659 118.408 63.453L118.511 63.4392ZM118.615 63.0337L118.571 63.089C118.537 63.0982 118.311 63.0959 118.364 63.0314C118.424 63.0314 118.594 62.9922 118.615 63.0337ZM118.504 62.7503C118.525 62.8033 118.576 62.8978 118.553 62.9484L118.493 62.9715L118.389 62.953C118.417 62.8839 118.398 62.8079 118.44 62.7457L118.502 62.7503H118.504ZM119.98 62.9323C119.902 62.9945 119.895 62.9807 119.807 62.9323C119.837 62.8724 119.854 62.8079 119.884 62.7457L119.948 62.7549C119.974 62.8125 119.962 62.8747 119.98 62.9346V62.9323ZM119.807 63.0913L119.764 63.036C119.835 63.0706 119.923 63.036 119.997 63.0245H120.01C120.068 63.1074 119.833 63.0982 119.807 63.0913ZM119.04 63.7295C119.063 63.7295 119.088 63.7295 119.123 63.7295L119.118 63.7341C119.118 63.7341 119.019 63.8447 119.026 63.9783C119.03 64.0567 119.065 64.1258 119.132 64.1857L119.155 64.2064C119.095 64.1718 118.989 64.0889 118.959 64.0037C118.927 63.9115 119.005 63.7756 119.04 63.7295ZM119.328 63.6581C119.143 63.6442 119.081 63.6465 119.016 63.6512C118.989 63.6512 118.961 63.6535 118.922 63.6535C118.742 63.6535 118.689 63.4553 118.677 63.3816C118.717 63.3655 118.749 63.347 118.765 63.3309C118.795 63.301 118.809 63.2157 118.816 63.1282C118.913 63.2042 119.03 63.2549 119.173 63.2549C119.316 63.2549 119.436 63.2042 119.538 63.1258C119.545 63.2065 119.556 63.2963 119.586 63.3263C119.591 63.4023 119.547 63.5221 119.475 63.5959C119.432 63.6419 119.381 63.6627 119.328 63.6581ZM119.176 63.7318C119.199 63.7295 119.231 63.7318 119.27 63.7318C119.284 63.7502 119.335 63.8332 119.339 63.9438C119.344 64.0451 119.254 64.1304 119.192 64.1788C119.355 64.0175 119.254 63.8147 119.178 63.7295L119.176 63.7318ZM119.256 64.7893C119.166 64.7594 119.081 64.7801 119.03 64.7985C118.982 64.575 118.853 64.3055 118.726 64.105C118.784 64.082 118.832 64.0636 118.89 64.0428C118.947 64.1811 119.125 64.2847 119.134 64.2894L119.153 64.3009L119.171 64.2894C119.171 64.2894 119.372 64.1719 119.409 64.006C119.625 63.9138 119.72 63.7134 119.764 63.5613H119.768C119.791 63.529 119.819 63.483 119.854 63.4208H119.874C119.84 63.5383 119.743 63.8447 119.621 64.0129C119.475 64.211 119.312 64.5313 119.254 64.7893H119.256ZM119.967 62.3586L119.941 62.3448C119.934 62.2734 119.93 62.1766 119.964 62.1098L119.994 62.0891L120.052 62.1467C120.061 62.2158 119.948 62.6397 119.914 62.6996C119.888 62.7042 119.861 62.6743 119.861 62.6512C119.881 62.5475 119.962 62.5291 119.964 62.3586H119.967ZM119.113 61.5131H119.12C119.143 61.5223 119.166 61.5269 119.206 61.5269C119.238 61.5269 119.275 61.5223 119.328 61.5131C119.39 61.5015 119.462 61.4877 119.524 61.4877C119.595 61.4877 119.639 61.5038 119.655 61.5361C119.676 61.5845 119.69 61.6467 119.701 61.7135C119.715 61.7872 119.731 61.8633 119.759 61.9301C119.771 61.9554 119.782 61.9808 119.794 62.0038C119.84 62.0937 119.884 62.1789 119.861 62.354C119.84 62.5176 119.653 63.1765 119.171 63.1765C118.689 63.1765 118.548 62.5752 118.534 62.4254C118.523 62.3125 118.509 62.0222 118.608 61.8057L118.631 61.7527C118.701 61.5983 118.749 61.4877 118.83 61.4762C118.846 61.4739 118.864 61.4716 118.883 61.4716C118.945 61.4716 119.023 61.4831 119.111 61.5085L119.113 61.5131ZM119.263 61.2642C119.263 61.2988 119.226 61.3311 119.21 61.3426C119.194 61.3311 119.155 61.3011 119.155 61.2642C119.155 61.2274 119.194 61.202 119.21 61.1928C119.224 61.202 119.263 61.2297 119.263 61.2642ZM119.346 60.8656C119.337 60.9993 119.284 61.0914 119.196 61.1283H119.192H119.187C119.099 61.0914 119.046 61.0016 119.037 60.8656C119.023 60.6767 119.178 60.5477 119.185 60.5408L119.194 60.5339L119.203 60.5408C119.203 60.5408 119.365 60.6767 119.351 60.8656H119.346ZM119.565 60.8334C119.51 60.9716 119.524 60.9808 119.505 61.0753C119.457 61.1329 119.358 61.1652 119.284 61.1467C119.508 60.9624 119.425 60.7366 119.27 60.5454L119.381 60.6076C119.45 60.4855 119.459 60.8403 119.565 60.8357V60.8334ZM118.823 60.8334C118.927 60.8403 118.938 60.4855 119.007 60.6053L119.118 60.5431C118.963 60.7343 118.88 60.9578 119.104 61.1444C119.03 61.1629 118.931 61.1306 118.883 61.073C118.864 60.9785 118.88 60.9693 118.823 60.8311V60.8334ZM117.935 64.6902C118.089 64.4898 118.276 64.3101 118.507 64.1995C118.647 64.3976 118.751 64.6442 118.802 64.8815L118.765 64.916C118.765 64.9575 118.765 65.0381 118.73 65.0681C118.456 65.1948 118.124 65.4552 117.983 65.7224C117.935 65.393 117.877 65.0911 117.956 64.7525C117.96 64.7317 117.956 64.7041 117.937 64.6902H117.935ZM118.733 66.5012C118.387 66.4827 118.195 66.4551 118.159 66.4344C118.133 66.4205 118.119 66.4044 118.115 66.3837C118.108 66.3583 118.117 66.3284 118.129 66.3076C118.272 66.4067 118.537 66.4159 118.772 66.4159H118.777C118.76 66.4413 118.747 66.4712 118.735 66.5035L118.733 66.5012ZM118.906 66.4136C118.809 66.5634 118.818 66.7799 118.728 66.9504C118.636 66.9735 118.832 66.3998 118.906 66.4136ZM119.561 66.4228L119.591 66.3837L119.688 66.4228C119.701 66.6233 119.628 66.5219 119.561 66.4228ZM119.367 66.4067H119.406C119.492 66.4966 119.718 66.9136 119.632 66.909C119.489 66.826 119.547 66.5565 119.367 66.4067ZM119.206 66.4205C119.233 66.4251 119.302 66.4413 119.367 66.5127C119.369 66.515 119.372 66.5196 119.374 66.5219C119.349 66.5219 119.319 66.5219 119.291 66.5219C119.266 66.4735 119.231 66.4413 119.206 66.4205ZM119.072 66.5772C119.09 66.5219 119.129 66.492 119.15 66.4781C119.176 66.4966 119.226 66.5403 119.24 66.6141C119.256 66.6993 119.222 66.7984 119.136 66.9113C119.065 66.7753 119.042 66.6601 119.07 66.5772H119.072ZM119.037 66.4113H119.109C119.081 66.4274 119.037 66.462 119.01 66.5173C118.984 66.5173 118.959 66.5173 118.933 66.515C118.963 66.4367 119.028 66.4251 119.037 66.4251V66.4113ZM120.541 63.5774C120.742 63.6581 120.928 63.7733 121.085 63.923C120.587 64.6626 120.093 65.2271 119.489 65.8722L119.515 65.8584L119.581 65.8123L119.683 65.7339C119.833 65.6141 119.98 65.4897 120.119 65.3561C120.525 64.969 120.878 64.446 121.09 63.9276C121.177 64.0129 121.256 64.1073 121.32 64.211C121.182 64.7617 120.905 65.4828 120.469 65.863C120.156 65.863 119.881 66.0335 119.736 66.3076C119.035 66.3192 118.138 66.6072 117.983 65.7363C118.244 65.5588 118.479 65.3377 118.707 65.1257L118.712 65.234C118.774 65.2778 118.86 65.3976 118.853 65.4805C118.707 65.6372 118.837 65.7639 118.869 65.9413C119.337 66.2593 118.943 66.2593 119.411 65.9413C119.443 65.7639 119.572 65.6395 119.427 65.4805C119.422 65.3999 119.508 65.2801 119.568 65.234C119.572 65.1211 119.522 65.0266 119.517 64.916L119.48 64.8815C119.508 64.7824 119.538 64.6833 119.575 64.5866C119.925 64.3746 120.349 63.9415 120.539 63.5774H120.541ZM121.39 64.2594C121.436 64.3055 121.466 64.3631 121.477 64.3884C121.436 64.5267 121.113 65.5496 120.718 65.8998C120.672 65.886 120.626 65.8768 120.58 65.8699C120.688 65.7639 120.901 65.5243 121.074 65.1418C121.256 64.7363 121.355 64.3953 121.39 64.2594ZM121.606 65.8399C121.574 65.8353 121.537 65.833 121.503 65.833C121.413 65.8008 121.304 65.7293 121.263 65.575C121.198 65.3423 121.337 65.2109 121.399 65.1649C121.59 65.4344 121.611 65.7201 121.609 65.8399H121.606ZM121.461 65.1165C121.461 65.1165 121.685 64.8607 121.747 64.6856C121.793 64.7271 121.849 64.7617 121.911 64.7755C122.001 64.7962 122.079 64.8078 122.144 64.8078C122.081 65.2248 121.812 65.757 121.712 65.9367C121.701 65.9137 121.689 65.8975 121.682 65.886C121.689 65.8008 121.699 65.4482 121.456 65.1119H121.461V65.1165ZM121.731 64.4529C121.793 64.5336 121.906 64.6027 122.045 64.6142C122.072 64.6165 122.1 64.6188 122.125 64.6188C122.192 64.6188 122.245 64.6096 122.287 64.5958C122.296 64.6004 122.321 64.6165 122.301 64.6695C122.277 64.7294 122.137 64.7363 121.932 64.6879C121.816 64.6626 121.724 64.5336 121.726 64.4668C121.726 64.4598 121.726 64.4552 121.731 64.4506V64.4529ZM121.782 64.2778C121.821 64.34 121.902 64.4506 122.024 64.4944C122.056 64.5059 122.088 64.5128 122.118 64.5128C122.247 64.5128 122.314 64.4092 122.317 64.4046L122.331 64.3769C122.342 64.3907 122.351 64.4092 122.344 64.4322C122.317 64.5128 122.194 64.5244 122.125 64.5244C122.102 64.5244 122.079 64.5244 122.054 64.5198C121.883 64.5036 121.779 64.3861 121.77 64.3262C121.765 64.3055 121.772 64.287 121.784 64.2778H121.782ZM122.171 63.7963L122.222 63.8608L122.266 63.87C122.284 63.8608 122.34 63.8516 122.347 63.8286C122.377 64.1166 122.324 64.1235 122.238 64.3562L122.121 64.4184C121.742 64.37 121.558 63.347 121.828 63.1443C121.842 63.1351 121.855 63.2019 121.855 63.2042C121.865 63.3033 121.855 63.4046 121.855 63.5037C121.853 63.6742 122.075 63.7664 122.151 63.9138C122.181 63.9691 122.199 64.0313 122.215 64.0935L122.222 64.1695V64.1972L122.227 64.1719L122.234 64.0935C122.227 64.0221 122.132 63.8055 122.174 63.7986L122.171 63.7963ZM121.641 63.1904C121.655 63.0521 121.735 62.9876 121.8 62.96H121.807L121.821 62.9507C121.807 62.9991 121.786 63.0429 121.761 63.0775C121.749 63.089 121.74 63.1005 121.735 63.112C121.706 63.1466 121.673 63.1719 121.641 63.1904ZM121.503 62.907C121.42 62.8632 121.373 62.7319 121.339 62.589C121.383 62.5936 121.426 62.6098 121.456 62.6213C121.468 62.6927 121.491 62.7664 121.533 62.824C121.56 62.8632 121.595 62.8954 121.636 62.9185C121.583 62.93 121.539 62.9254 121.505 62.907H121.503ZM121.581 63.0567C121.539 63.089 121.507 63.0913 121.399 63.0982C121.426 63.0567 121.47 63.0268 121.505 63.0083C121.528 63.0153 121.553 63.0199 121.579 63.0199C121.586 63.0199 121.595 63.0199 121.602 63.0199C121.595 63.0337 121.588 63.0452 121.581 63.0613V63.0567ZM121.542 62.4393C121.687 62.5337 121.754 62.7157 121.735 62.8609C121.682 62.8494 121.641 62.8194 121.609 62.7733C121.542 62.6789 121.533 62.5337 121.542 62.4416V62.4393ZM121.77 62.3563C121.839 62.437 121.885 62.513 121.904 62.5844L121.832 62.7802C121.825 62.6812 121.791 62.5775 121.726 62.4899C121.733 62.4462 121.749 62.4001 121.77 62.3586V62.3563ZM121.957 63.1927V63.1996L121.95 63.2526C121.95 63.2341 121.95 63.2157 121.945 63.195C121.943 63.1742 121.938 63.1512 121.929 63.1282C121.925 63.1212 121.922 63.112 121.918 63.1051H121.922C121.936 63.1097 121.957 63.142 121.957 63.1927ZM122.003 62.5775C122.012 62.5637 122.056 62.5061 122.13 62.4715C122.091 62.725 122.079 62.7802 121.906 62.8425L122.003 62.5775ZM121.971 62.2872C122.015 62.3632 122.017 62.4162 122.015 62.4323C121.994 62.4485 121.978 62.4646 121.964 62.4784C121.95 62.4508 121.934 62.4208 121.913 62.3909C121.922 62.3655 121.943 62.3218 121.971 62.2849V62.2872ZM122.199 62.6121C122.224 62.6005 122.236 62.5913 122.243 62.5867C122.247 62.5821 122.254 62.5775 122.301 62.5752C122.282 62.7457 122.199 62.8125 122.16 62.8171H122.146C122.146 62.8171 122.128 62.8194 122.116 62.8194C122.16 62.7687 122.181 62.7019 122.199 62.6098V62.6121ZM122.086 63.294C122.068 63.4138 122.038 63.5751 122.026 63.6028C122.017 63.6235 122.012 63.6281 122.012 63.6281C122.012 63.6281 122.008 63.6281 122.001 63.6258L121.996 63.6396C121.996 63.6396 121.978 63.6212 121.971 63.612C121.994 63.5728 122.021 63.476 122.047 63.2249C122.051 63.2249 122.056 63.2249 122.058 63.2249C122.072 63.2318 122.084 63.2687 122.088 63.2963L122.086 63.294ZM122.363 62.9968C122.324 63.006 122.287 63.0106 122.25 63.0106C122.132 63.0106 122.038 62.9623 121.978 62.9208C122.01 62.9162 122.049 62.9116 122.093 62.9116C122.204 62.9116 122.294 62.9392 122.363 62.9968ZM122.176 63.3171C122.176 63.3171 122.197 63.3171 122.213 63.3309C122.234 63.3493 122.241 63.3885 122.241 63.4115C122.222 63.5475 122.185 63.6857 122.162 63.7041C122.153 63.7111 122.148 63.7088 122.144 63.7041C122.128 63.6949 122.114 63.6673 122.118 63.6327H122.114C122.132 63.582 122.162 63.3977 122.176 63.3171ZM122.326 63.4691C122.326 63.4691 122.344 63.4761 122.356 63.4876C122.374 63.5083 122.349 63.5959 122.34 63.6281C122.335 63.6419 122.333 63.6535 122.331 63.6627C122.317 63.7018 122.289 63.7594 122.271 63.7779C122.264 63.7779 122.257 63.7664 122.261 63.7341H122.252C122.289 63.665 122.312 63.5475 122.326 63.4668V63.4691ZM121.837 66.8767C121.812 67.0011 121.754 67.1209 121.666 67.2338V67.2223C121.65 67.1209 121.581 67.0173 121.48 66.9458C121.429 66.909 121.376 66.8882 121.33 66.8813C121.385 66.5979 121.283 66.2915 121.053 66.0865C121.173 65.9759 121.38 65.9206 121.544 65.9298C121.569 65.9367 121.593 65.939 121.609 65.9413C121.662 66.0265 121.855 66.3767 121.837 66.8744V66.8767ZM119.759 68.0011C119.741 68.0241 119.727 68.0448 119.713 68.0679C119.688 68.0748 119.662 68.0817 119.637 68.0886C119.602 68.1001 119.565 68.1116 119.528 68.1232C119.586 68.0587 119.635 67.9826 119.676 67.902C119.692 67.9435 119.722 67.978 119.757 67.9987L119.759 68.0011ZM119.796 67.7177C119.796 67.7177 119.81 67.7015 119.821 67.7015C119.824 67.7015 119.826 67.7015 119.828 67.7015C119.907 67.6877 119.934 67.7614 119.934 67.8283C119.934 67.8674 119.934 67.902 119.904 67.9319C119.881 67.9527 119.837 67.9573 119.812 67.9411C119.771 67.9296 119.741 67.8836 119.741 67.826C119.741 67.7776 119.761 67.7384 119.794 67.72L119.796 67.7177ZM119.893 67.614C119.909 67.6186 119.932 67.6232 119.939 67.6278C119.948 67.6485 119.98 67.7015 120.059 67.743C120.043 67.7545 120.024 67.766 120.004 67.7822C119.985 67.6946 119.918 67.6278 119.837 67.6278C119.819 67.6278 119.798 67.6324 119.782 67.6393C119.789 67.614 119.794 67.5886 119.796 67.5656C119.81 67.5979 119.854 67.6071 119.895 67.6163L119.893 67.614ZM119.872 67.3629C119.888 67.3767 119.907 67.3951 119.925 67.4089C119.93 67.4112 119.934 67.4158 119.937 67.4181C119.877 67.4274 119.826 67.455 119.801 67.4919C119.814 67.3813 119.87 67.3629 119.87 67.3629H119.872ZM119.851 66.8399C119.902 66.7776 119.983 66.7431 120.077 66.7431C120.179 66.7523 120.375 66.856 120.375 66.856C120.453 66.9182 120.509 66.9988 120.536 67.0841C120.513 67.0449 120.46 67.0196 120.398 67.0196C120.389 67.0196 120.379 67.0196 120.37 67.0196C120.363 66.962 120.303 66.9182 120.227 66.9182C120.163 66.9182 120.112 66.9481 120.091 66.9919C120.059 66.9735 120.02 66.9643 119.976 66.9643C119.893 66.9643 119.824 67.0011 119.801 67.0541C119.789 66.9758 119.805 66.8974 119.854 66.8399H119.851ZM119.828 66.5426C120.004 66.3284 120.359 66.3261 120.622 66.5403C120.7 66.6048 120.762 66.6809 120.806 66.7615C120.771 66.7477 120.735 66.7454 120.705 66.7431C120.695 66.7431 120.622 66.7339 120.622 66.7339C120.599 66.7108 120.575 66.6878 120.55 66.6648C120.324 66.4827 120.027 66.4758 119.884 66.6509C119.858 66.6809 119.842 66.7154 119.828 66.75C119.814 66.7615 119.801 66.7753 119.789 66.7915C119.778 66.8053 119.768 66.8191 119.761 66.8329C119.752 66.7984 119.748 66.7638 119.743 66.7293C119.757 66.6624 119.784 66.5979 119.828 66.5449V66.5426ZM121.189 66.9021L121.258 66.8214C121.251 66.8744 121.237 66.9274 121.219 66.9781L121.189 66.9044V66.9021ZM120.352 66.7247C120.352 66.7247 120.352 66.7316 120.352 66.7362V66.7431C120.266 66.6901 120.17 66.6624 120.075 66.6624C119.997 66.6624 119.927 66.6809 119.87 66.7177C119.997 66.5611 120.241 66.5496 120.444 66.6763C120.428 66.6717 120.414 66.6671 120.405 66.6671C120.384 66.6671 120.37 66.6763 120.366 66.6832C120.356 66.6947 120.352 66.7062 120.354 66.7224L120.352 66.7247ZM120.622 67.0979C120.612 67.0564 120.596 67.0173 120.578 66.9804L120.642 67.015C120.658 67.0311 120.686 67.0656 120.707 67.1002C120.707 67.1163 120.707 67.1302 120.707 67.144C120.679 67.1901 120.652 67.2338 120.624 67.273C120.635 67.2177 120.635 67.1601 120.624 67.0979H120.622ZM120.306 67.0541C120.266 67.091 120.204 67.1025 120.153 67.0887C120.103 67.0749 120.105 67.0219 120.147 66.9965C120.188 66.9712 120.303 66.9527 120.31 67.0196C120.317 67.0311 120.317 67.0449 120.306 67.0541ZM120.483 67.2891C120.446 67.3168 120.414 67.3421 120.366 67.3352C120.329 67.3306 120.292 67.3122 120.299 67.2684C120.308 67.2039 120.407 67.2177 120.453 67.2246C120.465 67.2246 120.469 67.2315 120.474 67.2384C120.492 67.2454 120.506 67.2707 120.486 67.2868L120.483 67.2891ZM120.476 67.1532C120.46 67.1924 120.398 67.197 120.363 67.197C120.324 67.197 120.26 67.197 120.257 67.144C120.253 67.0633 120.432 67.0726 120.474 67.1025C120.492 67.1163 120.49 67.1394 120.479 67.1532H120.476ZM119.865 67.0933C119.865 67.0679 119.911 67.0403 119.971 67.0403C120.031 67.0403 120.077 67.0679 120.077 67.0933C120.077 67.114 120.045 67.1371 119.999 67.144C119.987 67.1417 119.978 67.1394 119.964 67.1394C119.955 67.1394 119.946 67.1394 119.937 67.1417C119.895 67.1325 119.865 67.1117 119.865 67.0933ZM119.918 67.22C119.946 67.1808 119.997 67.1831 120.04 67.1831C120.047 67.1831 120.052 67.1855 120.057 67.1901C120.075 67.1901 120.093 67.1993 120.098 67.2223C120.098 67.2269 120.098 67.2315 120.098 67.2338C120.114 67.1993 120.142 67.1716 120.172 67.1716C120.216 67.1716 120.25 67.22 120.25 67.2776C120.25 67.3352 120.213 67.3836 120.172 67.3836C120.133 67.3836 120.1 67.3444 120.093 67.296C120.084 67.296 120.077 67.2937 120.068 67.2914C120.047 67.3076 120.02 67.3168 119.997 67.3191C119.971 67.3191 119.944 67.3122 119.925 67.296C119.907 67.2776 119.895 67.2454 119.911 67.2223L119.918 67.22ZM120.548 67.7707C120.585 67.7269 120.513 67.7269 120.497 67.7269C120.361 67.72 120.22 67.7246 120.093 67.667C120.234 67.7038 120.375 67.6946 120.516 67.6624V67.6209C120.28 67.5979 120.098 67.5679 119.872 67.5241C119.98 67.4389 120.209 67.5426 120.349 67.531C120.476 67.5218 120.85 67.2338 120.801 67.1094C120.705 66.8675 120.552 66.9481 120.435 66.7569C120.506 66.8122 120.705 66.8122 120.806 66.8537C121 67.0864 121.396 67.1255 121.334 67.5172C121.136 67.7384 120.845 67.902 120.539 67.8766L120.532 67.8167C120.243 67.8167 120.345 67.8075 120.552 67.7753L120.548 67.7707ZM120.43 67.9365C120.407 67.9365 120.386 67.9412 120.363 67.9458C120.287 67.955 120.209 67.9711 120.13 67.9895C120.093 67.9988 120.052 68.008 120.017 68.0149C119.983 68.0241 119.937 68.0264 119.9 68.031L119.831 68.0402H119.826C119.826 68.0402 119.837 68.0264 119.844 68.0195C119.918 68.0149 119.978 67.9573 119.999 67.8789C120.061 67.8306 120.119 67.7937 120.147 67.7776C120.167 67.8029 120.218 67.8536 120.308 67.8766V67.8836C120.308 67.8836 120.379 67.9204 120.435 67.9389L120.43 67.9365ZM121.456 67.3836C121.456 67.4665 121.433 67.531 121.394 67.561C121.394 67.561 121.394 67.5564 121.399 67.5518C121.438 67.4804 121.443 67.349 121.362 67.2177C121.327 67.1624 121.288 67.1186 121.251 67.0864L121.258 67.0749H121.265C121.357 67.1163 121.456 67.2361 121.459 67.3836H121.456ZM121.295 67.0034H121.29C121.295 66.9873 121.302 66.9712 121.307 66.9574C121.339 66.9574 121.385 66.9781 121.431 67.008C121.496 67.0541 121.572 67.1371 121.583 67.2315C121.602 67.3582 121.569 67.4435 121.526 67.4919C121.535 67.4596 121.537 67.4228 121.537 67.3836C121.537 67.1993 121.415 67.0541 121.295 67.0034ZM120.889 66.0634C121.154 66.2293 121.29 66.5265 121.256 66.8099L121.189 66.7408L121.251 66.6025L121.131 66.538L121.177 66.4044L121.032 66.3629V66.2201L120.871 66.2109L120.857 66.0703L120.695 66.1095L120.615 65.9666L120.453 66.0196L120.384 65.9482C120.552 65.9298 120.732 65.9666 120.889 66.0657V66.0634ZM121.272 65.7708C121.297 65.8031 121.327 65.8284 121.357 65.8491C121.214 65.8745 121.071 65.9344 120.977 66.0289C120.963 66.0173 120.947 66.0081 120.931 65.9989C120.894 65.9759 120.855 65.9551 120.813 65.9367C120.836 65.9137 120.859 65.8906 120.88 65.863C121.046 65.8215 121.23 65.7777 121.27 65.7708H121.272ZM120.2 65.9897C120.248 65.9713 120.296 65.9597 120.349 65.9505L120.26 66.0219L120.202 65.9897H120.2ZM120.045 66.068C120.077 66.0473 120.112 66.0265 120.147 66.0127L120.08 66.0726H120.047L120.045 66.068ZM120.815 66.2685C121.051 66.4597 121.157 66.7431 121.111 66.9942L121.076 66.9712C121.083 66.9527 121.09 66.9343 121.087 66.9136C121.083 66.8145 120.965 66.8629 120.965 66.8629C120.965 66.8629 121.104 66.7846 121.048 66.6763C120.993 66.568 120.871 66.6348 120.871 66.6348C120.871 66.6348 120.984 66.5334 120.908 66.4367C120.815 66.3215 120.688 66.432 120.688 66.432C120.688 66.432 120.788 66.2892 120.652 66.2155C120.516 66.1417 120.43 66.2823 120.43 66.2823C120.43 66.2823 120.474 66.1417 120.349 66.1164C120.211 66.0888 120.172 66.2569 120.172 66.2569C120.172 66.2569 120.188 66.1325 120.077 66.1579C119.967 66.1832 119.937 66.3353 119.937 66.3353C119.937 66.3353 119.937 66.2685 119.87 66.2869C119.849 66.2938 119.831 66.3076 119.812 66.3261C119.821 66.3076 119.831 66.2915 119.842 66.2731C119.851 66.2593 119.861 66.2477 119.867 66.2339C120.114 66.0173 120.516 66.0265 120.813 66.2662L120.815 66.2685ZM119.501 68.5425C119.501 68.4688 119.549 68.4112 119.607 68.4112C119.665 68.4112 119.713 68.4711 119.713 68.5425C119.713 68.6139 119.665 68.6738 119.607 68.6738C119.549 68.6738 119.501 68.6139 119.501 68.5425ZM122.699 69.0286C122.455 68.7591 122.314 68.9319 122.061 69.1576C122.026 69.0816 121.985 69.0102 121.941 68.9411C121.761 69.0586 121.593 69.1945 121.438 69.3443C121.263 68.8374 120.972 69.1899 120.732 69.4433C120.661 69.259 120.571 69.0839 120.46 68.9226C120.137 69.1369 119.842 69.4157 119.628 69.7383C119.531 69.7313 119.434 69.7083 119.335 69.7129L119.282 69.6553C119.374 69.5217 119.443 69.2245 119.171 69.2705C119.18 68.9895 119.302 68.713 119.436 68.4711C119.358 68.7982 119.796 68.8558 119.796 68.5425C119.796 68.3374 119.637 68.3006 119.482 68.3904L119.575 68.2407C119.814 68.1577 120.073 68.1301 120.319 68.0817C120.04 68.683 120.732 68.9756 121.212 69.0217C120.735 68.8028 120.243 68.6922 120.343 68.0817C120.458 68.0448 121.311 68.0448 121.512 68.054C121.279 67.9941 121.041 67.9619 120.804 67.9296C120.993 67.8789 121.173 67.7868 121.316 67.6532C121.334 67.6624 121.537 67.5909 121.565 67.5633C122.162 67.7131 123.244 68.2844 122.702 69.0309L122.699 69.0286ZM122.902 67.796C123.025 67.9342 123.059 68.0633 123.068 68.1232C122.99 68.1762 122.921 68.2268 122.875 68.2614C122.87 68.2545 122.868 68.2476 122.863 68.2407C122.813 68.1531 122.75 68.0748 122.681 68.0034C122.739 67.9412 122.831 67.849 122.902 67.7937V67.796ZM123.338 68.1163C123.472 68.4941 123.463 68.9065 123.458 69.0355C123.209 69.0701 122.999 69.1507 122.824 69.2498C122.815 69.2199 122.799 69.1853 122.778 69.1461C122.969 68.9019 123.022 68.6393 122.93 68.3858C122.999 68.3328 123.177 68.1969 123.338 68.1163ZM122.116 69.2844C122.174 69.2291 122.321 69.1024 122.515 69.0148C122.649 69.1507 122.693 69.2636 122.706 69.3189C122.48 69.4687 122.328 69.6415 122.245 69.7521C122.213 69.5655 122.164 69.4065 122.116 69.2844ZM120.781 69.5816C120.843 69.5102 121.014 69.3304 121.207 69.2176C121.311 69.3351 121.325 69.4226 121.327 69.4549C121.168 69.6231 121.009 69.8304 120.891 70.07C120.871 69.8926 120.829 69.729 120.783 69.5839L120.781 69.5816ZM119.734 72.5076C119.784 72.4731 119.831 72.4224 119.849 72.3648C121.21 71.3925 120.412 70.2037 121.897 69.1254C122.773 70.7843 121.447 72.3855 119.731 72.5122V72.5076H119.734ZM119.699 72.1436C119.731 72.1436 119.768 72.1897 119.778 72.2588C119.778 72.2703 119.778 72.2795 119.778 72.2887C119.778 72.374 119.736 72.4339 119.699 72.4339C119.662 72.4339 119.621 72.374 119.621 72.2887C119.621 72.2035 119.662 72.1436 119.699 72.1436ZM119.579 71.5492C119.579 71.6068 119.542 71.6552 119.501 71.6552C119.459 71.6552 119.422 71.6068 119.422 71.5492C119.422 71.4916 119.459 71.4432 119.501 71.4432C119.542 71.4432 119.579 71.4916 119.579 71.5492ZM119.434 70.0447C119.434 70.123 119.392 70.1898 119.342 70.1898C119.291 70.1898 119.249 70.123 119.249 70.0447C119.249 69.9663 119.291 69.8995 119.342 69.8995C119.392 69.8995 119.434 69.9663 119.434 70.0447ZM119.637 69.971C119.819 69.6277 120.107 69.3351 120.419 69.107C121 70.0908 120.806 71.51 119.844 72.2058C119.821 72.1413 119.757 72.0929 119.697 72.0653L119.621 72.0929L119.676 71.9201C119.754 71.9132 119.886 71.9201 119.932 71.8395V71.7381L119.787 71.5238V71.5123C119.482 70.9939 119.558 70.5746 119.632 70.0124C119.632 70.0032 119.646 69.9779 119.639 69.971H119.637ZM118.511 69.9963C118.555 70.464 118.897 72.4961 118.147 72.5629C117.969 72.4569 117.873 72.3348 117.766 72.1574C118.56 71.9823 118.488 70.7405 118.458 70.1576C118.449 69.9663 118.366 69.9986 118.511 69.9963ZM119.189 69.3443C119.252 69.3443 119.302 69.3996 119.302 69.4687C119.302 69.5378 119.252 69.5931 119.189 69.5931C119.127 69.5931 119.076 69.5378 119.076 69.4687C119.076 69.3996 119.127 69.3443 119.189 69.3443ZM119.231 69.7198C119.106 69.7406 118.977 69.759 118.857 69.7959C118.375 69.5724 118.802 68.5056 119.45 68.2775C119.203 68.6738 119.155 69.0563 118.998 69.4687C118.94 69.6184 119.18 69.6392 119.231 69.7175V69.7198ZM118.973 68.4526C118.726 68.7545 118.371 69.5009 118.751 69.8235C118.334 69.9226 118.308 69.812 118.251 69.4019C118.17 68.8236 118.433 68.66 118.973 68.4526ZM118.099 69.1738C117.965 69.236 117.84 69.3258 117.7 69.3719C117.617 69.3443 117.769 69.259 117.801 69.2452L117.746 69.2383C117.607 69.3696 117.513 69.2936 117.665 69.2268V69.2014C117.559 69.2682 117.404 69.2406 117.607 69.1185L117.584 69.1024C117.568 69.1162 117.361 69.2268 117.379 69.1231C117.444 69.0563 117.57 68.9595 117.653 68.9157L117.573 68.8973L117.462 68.9549V68.9503L117.432 68.9733C117.397 68.9342 117.335 68.9319 117.291 68.9503L117.331 69.0309L117.273 69.0263L117.227 68.8927C117.204 68.819 117.451 68.7406 117.499 68.7291C117.605 68.7038 117.637 68.5563 117.734 68.501C117.923 68.3927 118.622 68.16 118.79 68.2407L118.843 68.3582C118.495 68.5033 118.078 68.7406 118.099 69.1692V69.1738ZM117.642 72.2035C117.278 71.9247 117.017 71.5354 116.867 71.04C117.065 71.4063 117.245 71.6229 117.289 71.6736C117.368 71.9086 117.568 72.1252 117.64 72.1966L117.644 72.2035H117.642ZM117.409 71.6206C118.094 71.4801 118.29 70.4387 118.258 69.8673C118.29 69.918 118.343 69.9364 118.373 69.9894C118.463 70.1368 118.366 70.3281 118.355 70.5009C118.327 70.8649 118.329 71.2773 118.232 71.6298C118.034 72.3464 117.596 72.2081 117.409 71.6206ZM118.696 73.1712C118.698 73.1942 118.684 73.2702 118.643 73.3117C118.661 73.2103 118.643 73.1919 118.576 73.1988C118.509 73.2057 118.53 73.3002 118.53 73.3002C118.53 73.3002 118.601 73.291 118.641 73.3117C118.617 73.3348 118.592 73.3417 118.562 73.3371C118.502 73.3255 118.511 73.2196 118.528 73.1021C118.534 73.0629 118.539 73.0283 118.537 73.0007L118.474 72.9523C118.463 73.0767 118.417 73.2495 118.391 73.2656C118.378 73.2656 118.357 73.2679 118.348 73.2587C118.338 73.2495 118.336 73.2242 118.341 73.1919C118.345 73.1597 118.35 73.1297 118.355 73.1067C118.361 73.0767 118.366 73.0491 118.368 73.0329L118.329 72.9684C118.329 72.9684 118.285 73.0468 118.278 73.0905C118.267 73.1389 118.253 73.1804 118.242 73.1942C118.198 73.185 118.193 73.162 118.193 73.1389C118.193 73.132 118.193 73.1205 118.195 73.109C118.214 73.0675 118.225 73.0122 118.232 72.9638L118.209 72.9108C118.209 72.9108 118.131 73.0283 118.122 73.0859C118.119 73.0928 118.115 73.0974 118.112 73.0998C118.105 73.0998 118.094 73.0997 118.089 73.0951C118.082 73.0859 118.078 73.0675 118.082 73.0422V73.0283C118.101 72.9869 118.103 72.9362 118.103 72.9223L118.064 72.8763C118.064 72.8763 118.057 72.9753 118.022 73.0145C118.022 73.0191 118.002 73.0145 117.999 73.0145C117.995 73.0076 117.988 72.9846 117.992 72.9477C117.997 72.9108 118.036 72.8048 118.057 72.7403C118.064 72.7196 118.071 72.7012 118.076 72.6873L118.08 72.6712C118.11 72.6896 118.142 72.6989 118.179 72.6989C118.221 72.6989 118.267 72.6873 118.315 72.6643C118.468 72.5883 118.636 72.3878 118.666 72.109C118.666 72.086 118.671 72.063 118.675 72.0399C118.68 72.0607 118.682 72.0837 118.68 72.1067C118.677 72.1782 118.684 72.2542 118.696 72.351C118.707 72.4592 118.724 72.5929 118.726 72.768C118.73 72.9869 118.714 73.0629 118.705 73.1044C118.701 73.1274 118.696 73.1458 118.7 73.1689L118.696 73.1712ZM119.429 71.9385C119.159 71.7865 119.081 72.0169 119.159 72.245C119.06 72.2818 118.95 72.3003 118.843 72.3026L118.76 72.2519C118.751 72.1229 118.756 72.0077 118.694 71.8902C118.83 71.1644 118.707 70.699 118.645 69.9825C118.977 69.918 119.266 69.7751 119.605 69.7521C119.584 69.8258 119.533 69.8857 119.501 69.9548C119.293 69.3857 118.91 70.5723 119.471 70.199C119.385 70.6207 119.418 70.9524 119.575 71.3487L119.563 71.381C119.439 71.3418 119.344 71.4225 119.344 71.5515C119.344 71.7934 119.667 71.7911 119.662 71.5515V71.5192L119.84 71.7865C119.729 71.8095 119.457 71.798 119.429 71.9409V71.9385ZM119.199 72.1044C119.199 72.0261 119.247 71.9593 119.305 71.9593C119.362 71.9593 119.411 72.0261 119.411 72.1044C119.411 72.1828 119.362 72.2496 119.305 72.2496C119.247 72.2496 119.199 72.1828 119.199 72.1044ZM119.254 72.321C119.33 72.3371 119.427 72.2888 119.464 72.2196C119.415 72.4892 118.986 72.6827 118.788 72.4984L118.777 72.3855C118.862 72.4546 119.173 72.3602 119.254 72.321ZM123.673 69.1484C123.521 69.7429 123.368 70.3465 123.096 70.9018C122.792 71.5238 122.471 71.8003 121.858 72.0468C121.676 72.1206 121.489 72.1805 121.3 72.2311L121.129 72.2749L121.067 72.2887L121.039 72.2957H121.03C122.091 71.4916 122.114 71.2266 122.271 69.9525C122.321 69.5493 123.338 69.1623 123.673 69.1507V69.1484ZM124.235 68.4549C124.279 68.6623 124.286 68.8835 124.245 69.0908C124.09 69.1001 123.933 69.1346 123.793 69.206L123.841 69.0148L123.59 69.0194C123.594 68.895 123.59 68.7706 123.58 68.6462C123.795 68.577 124.012 68.5033 124.233 68.4549H124.235ZM124.378 69.0908C124.425 68.8328 124.399 68.5678 124.337 68.3144C124.116 68.3144 123.781 68.4411 123.564 68.5102C123.537 68.3121 123.484 68.1232 123.408 67.9365C123.329 67.9688 123.255 68.0011 123.182 68.0448C123.14 67.8789 123.039 67.743 122.919 67.6232C122.787 67.6946 122.681 67.8006 122.58 67.9089C122.312 67.6762 122.141 67.614 121.862 67.4757C121.883 67.3951 121.731 67.2592 121.759 67.2246C121.874 67.0795 121.874 67.0564 121.92 66.8813C121.978 66.6624 121.855 66.2431 121.759 66.0335C121.957 65.6786 122.178 65.1971 122.231 64.7962C122.349 64.7755 122.453 64.6511 122.365 64.5382C122.446 64.4622 122.462 64.3516 122.365 64.2824C122.418 64.1718 122.453 64.0543 122.444 63.9299C122.439 63.87 122.42 63.4184 122.416 63.4138C122.39 63.3885 122.356 63.3724 122.321 63.3655C122.31 63.2733 122.25 63.218 122.155 63.2134L122.137 63.1742C122.206 63.1834 122.273 63.1834 122.342 63.1742L122.296 63.0867C122.372 63.0775 122.441 63.0521 122.51 63.0222C122.441 62.9369 122.374 62.8724 122.268 62.8355C122.365 62.7388 122.384 62.5959 122.386 62.4669C122.326 62.4669 122.266 62.4669 122.206 62.4807L122.229 62.3333C122.183 62.3402 122.134 62.3517 122.091 62.3678C122.077 62.2803 122.028 62.2066 121.975 62.1397C121.915 62.1812 121.869 62.2296 121.837 62.2964L121.742 62.1927C121.701 62.2549 121.662 62.3195 121.639 62.3932C121.588 62.3494 121.528 62.3195 121.468 62.2941C121.447 62.3655 121.433 62.4347 121.436 62.5084C121.362 62.483 121.29 62.483 121.212 62.4946C121.247 62.6443 121.283 62.854 121.41 62.9554C121.325 63.0153 121.295 63.0729 121.274 63.1742C121.362 63.1696 121.454 63.1742 121.539 63.1512C121.535 63.2019 121.535 63.2549 121.537 63.3079C121.588 63.2986 121.639 63.2848 121.685 63.2595C121.595 63.6926 121.602 63.8608 121.763 64.1695C121.673 64.2018 121.639 64.264 121.676 64.3654C121.595 64.4184 121.627 64.5267 121.666 64.5935C121.634 64.7432 121.523 64.8815 121.429 64.9967C121.307 64.5497 121.809 64.5405 121.378 64.1373C121.327 64.0889 121.283 64.0037 121.233 63.9484C121.041 63.7341 120.795 63.5751 120.527 63.4737C120.499 63.3033 120.419 63.1466 120.356 62.9876C120.248 62.7157 120.234 62.3955 120.206 62.1075C120.2 62.0384 120.186 61.96 120.14 61.9024C120.172 61.8748 120.16 61.8126 120.167 61.7757C120.262 61.1629 120.188 61.3933 120.013 60.9186C119.976 60.8173 120.013 60.7021 119.946 60.5938C119.907 60.5316 119.842 60.4947 119.803 60.4348C120.036 59.9371 119.683 60.0731 119.498 59.7782C119.445 59.6929 119.609 59.6284 119.526 59.4556C119.485 59.3704 119.289 59.1699 119.189 59.1699C119.09 59.1699 118.894 59.3727 118.853 59.4556C118.77 59.6284 118.933 59.6929 118.88 59.7782C118.696 60.0731 118.343 59.9371 118.576 60.4348C118.537 60.4947 118.472 60.5339 118.433 60.5938C118.366 60.7021 118.403 60.8173 118.366 60.9186C118.193 61.384 118.085 61.2182 118.214 61.8494C118.041 62.1927 118.122 62.6627 117.967 62.9461C117.926 63.0222 117.85 63.1166 117.847 63.2042C117.785 63.2848 117.688 63.3562 117.693 63.4668C117.153 63.6995 117.001 64.764 116.809 64.9345C116.713 64.817 116.597 64.6741 116.565 64.5221C116.604 64.4552 116.636 64.347 116.556 64.294C116.593 64.1926 116.556 64.1281 116.463 64.0935C116.655 63.824 116.627 63.347 116.546 63.188C116.593 63.2134 116.641 63.2272 116.694 63.2364C116.696 63.1881 116.694 63.1374 116.692 63.089C116.779 63.112 116.874 63.1074 116.964 63.112C116.943 63.0083 116.915 62.9461 116.826 62.8816C116.95 62.7779 116.985 62.5752 117.019 62.4254C116.943 62.4139 116.872 62.4139 116.796 62.4393C116.796 62.3655 116.784 62.2964 116.763 62.225C116.701 62.2503 116.643 62.2803 116.593 62.3241C116.57 62.2503 116.53 62.1881 116.489 62.1236L116.394 62.2273C116.362 62.1605 116.316 62.1121 116.256 62.0706C116.203 62.1397 116.154 62.2135 116.141 62.301C116.097 62.2849 116.048 62.2711 116.002 62.2665L116.025 62.4139C115.968 62.4001 115.905 62.4001 115.845 62.4001C115.85 62.5291 115.866 62.672 115.963 62.7687C115.855 62.8056 115.79 62.8701 115.721 62.9554C115.79 62.9853 115.859 63.0106 115.935 63.0199L115.889 63.1074C115.958 63.1143 116.025 63.1166 116.094 63.1074L116.076 63.1466C115.981 63.1489 115.924 63.2042 115.91 63.2963C115.875 63.3056 115.841 63.3217 115.815 63.347C115.811 63.3516 115.792 63.8032 115.788 63.8631C115.779 63.9875 115.811 64.105 115.866 64.2156C115.769 64.2847 115.783 64.3976 115.866 64.4714C115.776 64.5843 115.88 64.7087 116 64.7294C116.055 65.1257 116.277 65.6164 116.475 65.9689C116.457 66.409 116.736 66.803 117.211 66.5956C117.195 66.6463 117.195 66.6947 117.211 66.7454C117.255 66.879 117.141 67.061 117.125 67.2108C116.95 67.3905 116.715 67.538 116.526 67.7131C116.383 67.5495 116.217 67.4458 116.011 67.3721C115.919 67.561 115.868 67.7499 115.845 67.9573C115.631 67.7845 115.373 67.6946 115.1 67.667C115.052 67.7614 115.017 67.8559 114.992 67.9573C114.861 67.8513 114.708 67.7891 114.542 67.7591C114.441 67.9135 114.392 68.0932 114.363 68.2752C114.261 68.2084 114.157 68.1485 114.051 68.0886C113.964 68.3697 113.945 68.6531 113.952 68.9457C113.784 68.925 113.615 68.9249 113.445 68.9434C113.599 69.5447 113.834 70.1507 114.148 70.6875C113.816 70.593 113.541 70.6138 113.216 70.7197C113.569 71.2934 113.851 71.7335 114.531 71.9593C114.289 72.0537 114.088 72.1736 113.887 72.3348C114.455 72.5652 114.904 72.8578 115.55 72.7035C115.463 72.791 115.391 72.8878 115.322 72.9915C116.108 73.1873 116.879 73.4384 117.64 73.0329C117.619 73.496 118.255 73.8163 118.641 73.8969C118.79 73.9269 119.141 74.0536 119.266 74.0467C119.473 74.0352 120.391 73.5283 120.525 73.3394C120.998 73.6527 122.144 73.3255 122.67 73.1942C122.46 73.0836 122.259 72.9592 122.056 72.8348C122.831 72.9638 123.521 72.7864 124.116 72.2703C123.809 72.2196 123.532 72.1298 123.244 72.0054C123.73 71.8257 124.042 71.4271 124.457 71.1437C124.265 70.9755 124.086 70.8534 123.832 70.8004C124.404 70.4317 124.607 69.7613 124.923 69.1968C124.741 69.1415 124.556 69.0954 124.362 69.0885L124.378 69.0908ZM123.278 70.8211C123.64 69.9686 123.472 68.9434 124.743 69.2798C124.293 70.1414 124.275 70.5792 123.278 70.8211ZM119.189 60.5638C119.157 60.5938 119.049 60.7067 119.06 60.8587C119.069 60.9808 119.113 61.0615 119.189 61.096C119.266 61.0615 119.309 60.9808 119.319 60.8587C119.33 60.709 119.222 60.5938 119.189 60.5638Z" fill="#A72C32"/>
</g>
<defs>
<clipPath id="clip0_2247_740">
<rect width="332.096" height="132.709" fill="white" transform="translate(0.123779 0.380859)"/>
</clipPath>
</defs>
</svg>
