<svg width="202" height="180" viewBox="0 0 202 180" fill="none" xmlns="http://www.w3.org/2000/svg">
<path d="M30.21 157.5C30.1 157.39 30.04 157.23 30.04 157.04V128.77C30.04 128.57 30.1 128.42 30.21 128.31C30.32 128.2 30.48 128.14 30.67 128.14H37.34C37.54 128.14 37.69 128.2 37.8 128.31C37.91 128.42 37.97 128.58 37.97 128.77V138.86C37.97 138.94 38 139 38.05 139.03C38.11 139.06 38.16 139.03 38.22 138.95L45.56 128.53C45.73 128.28 46 128.15 46.36 128.15H53.91C54.25 128.15 54.42 128.28 54.42 128.53C54.42 128.64 54.38 128.77 54.29 128.91L45.51 141.11C45.45 141.19 45.45 141.29 45.51 141.41L54.58 156.94C54.66 157.05 54.71 157.18 54.71 157.32C54.71 157.57 54.53 157.7 54.16 157.7H46.69C46.32 157.7 46.07 157.56 45.93 157.28L40.11 146.9C40.08 146.82 40.04 146.77 39.98 146.77C39.92 146.77 39.87 146.81 39.81 146.9L38.04 149.6C37.98 149.71 37.96 149.8 37.96 149.85V157.07C37.96 157.27 37.9 157.42 37.79 157.53C37.68 157.64 37.52 157.7 37.33 157.7H30.66C30.46 157.7 30.31 157.64 30.2 157.53L30.21 157.5Z" fill="white"/>
<path d="M79.41 128.3C79.52 128.41 79.58 128.57 79.58 128.76V134.33C79.58 134.53 79.52 134.68 79.41 134.79C79.3 134.9 79.14 134.96 78.95 134.96H71.86C71.72 134.96 71.65 135.03 71.65 135.17V157.03C71.65 157.23 71.59 157.38 71.48 157.49C71.37 157.6 71.21 157.66 71.02 157.66H64.35C64.15 157.66 64 157.6 63.89 157.49C63.78 157.38 63.72 157.22 63.72 157.03V135.17C63.72 135.03 63.65 134.96 63.51 134.96H56.63C56.43 134.96 56.28 134.9 56.17 134.79C56.06 134.68 56 134.52 56 134.33V128.76C56 128.56 56.06 128.41 56.17 128.3C56.28 128.19 56.44 128.13 56.63 128.13H78.95C79.15 128.13 79.3 128.19 79.41 128.3Z" fill="white"/>
<path d="M101.6 128.13H108.18C108.38 128.13 108.53 128.19 108.64 128.3C108.75 128.41 108.81 128.57 108.81 128.76V157.03C108.81 157.23 108.75 157.38 108.64 157.49C108.53 157.6 108.37 157.66 108.18 157.66H101.51C101.31 157.66 101.16 157.6 101.05 157.49C100.94 157.38 100.88 157.22 100.88 157.03V141.71C100.88 141.6 100.85 141.53 100.8 141.52C100.74 141.51 100.69 141.54 100.63 141.63L97.76 146.31C97.59 146.59 97.34 146.73 97 146.73H93.79C93.45 146.73 93.2 146.59 93.03 146.31L90.16 141.63C90.1 141.55 90.05 141.51 89.99 141.52C89.93 141.53 89.91 141.6 89.91 141.71V157.03C89.91 157.23 89.85 157.38 89.74 157.49C89.63 157.6 89.47 157.66 89.28 157.66H82.61C82.41 157.66 82.26 157.6 82.15 157.49C82.04 157.38 81.98 157.22 81.98 157.03V128.76C81.98 128.56 82.04 128.41 82.15 128.3C82.26 128.19 82.42 128.13 82.61 128.13H89.19C89.53 128.13 89.78 128.27 89.95 128.55L95.27 137.12C95.35 137.29 95.44 137.29 95.52 137.12L100.84 128.55C101.01 128.27 101.26 128.13 101.6 128.13Z" fill="white"/>
<path d="M119.66 156.47C118.25 155.43 117.29 154.03 116.78 152.28C116.47 151.15 116.32 149.39 116.32 146.99C116.32 144.59 116.47 142.85 116.78 141.75C117.29 140 118.24 138.61 119.63 137.58C121.03 136.55 122.74 136.04 124.77 136.04C126.8 136.04 128.44 136.56 129.87 137.6C131.29 138.64 132.24 140.02 132.72 141.74C132.89 142.39 133 143.11 133.06 143.92C133.12 144.72 133.14 145.75 133.14 146.99C133.14 148.23 133.11 149.33 133.06 150.12C133 150.91 132.89 151.63 132.72 152.28C132.24 154.03 131.29 155.42 129.87 156.47C128.45 157.51 126.73 158.03 124.73 158.03C122.73 158.03 121.06 157.51 119.66 156.47ZM128.57 154.8C129.63 153.97 130.31 152.88 130.62 151.52C130.82 150.76 130.92 149.26 130.92 147.04C130.92 144.82 130.84 143.29 130.67 142.56C130.36 141.18 129.68 140.08 128.62 139.26C127.56 138.44 126.27 138.03 124.75 138.03C123.23 138.03 121.94 138.44 120.9 139.26C119.86 140.08 119.18 141.18 118.87 142.56C118.67 143.43 118.57 144.93 118.57 147.04C118.57 149.15 118.67 150.65 118.87 151.52C119.18 152.9 119.86 154 120.9 154.82C121.94 155.64 123.23 156.05 124.75 156.05C126.27 156.05 127.52 155.63 128.58 154.8H128.57Z" fill="white"/>
<path d="M150.07 138.09C151.41 139.41 152.07 141.16 152.07 143.32V157.25C152.07 157.53 151.93 157.67 151.65 157.67H150.26C149.98 157.67 149.84 157.53 149.84 157.25V143.75C149.84 142.09 149.33 140.73 148.32 139.68C147.31 138.63 145.98 138.1 144.35 138.1C142.72 138.1 141.3 138.61 140.26 139.64C139.22 140.67 138.7 142.01 138.7 143.67V157.26C138.7 157.54 138.56 157.68 138.28 157.68H136.89C136.61 157.68 136.47 157.54 136.47 157.26V136.84C136.47 136.56 136.61 136.42 136.89 136.42H138.28C138.56 136.42 138.7 136.56 138.7 136.84V138.91C138.7 138.99 138.72 139.04 138.76 139.06C138.8 139.07 138.84 139.06 138.87 139C139.49 138.07 140.3 137.36 141.32 136.87C142.33 136.38 143.5 136.13 144.82 136.13C146.99 136.13 148.74 136.79 150.07 138.11V138.09Z" fill="white"/>
<path d="M166.74 155.11C167.68 154.51 168.42 153.67 168.96 152.6C169.1 152.35 169.28 152.28 169.51 152.39L170.61 152.94C170.86 153.08 170.93 153.26 170.82 153.49C170.2 154.87 169.22 155.97 167.89 156.78C166.55 157.6 164.98 158 163.18 158C161.21 158 159.54 157.52 158.16 156.57C156.78 155.61 155.84 154.31 155.33 152.65C155.1 151.95 154.95 151.16 154.87 150.29C154.79 149.42 154.74 148.32 154.74 147C154.74 145.68 154.76 144.58 154.8 143.88C154.84 143.18 154.93 142.53 155.07 141.94C155.52 140.17 156.44 138.75 157.83 137.68C159.22 136.61 160.93 136.08 162.96 136.08C165.27 136.08 167.11 136.68 168.49 137.87C169.87 139.07 170.73 140.72 171.06 142.83C171.14 143.36 171.2 143.99 171.23 144.71C171.26 145.43 171.27 146.32 171.27 147.39C171.27 147.67 171.13 147.81 170.85 147.81H157.09C156.98 147.81 156.92 147.87 156.92 147.98C156.92 149.78 156.99 150.98 157.13 151.57C157.44 152.95 158.14 154.04 159.22 154.84C160.3 155.64 161.67 156.04 163.33 156.04C164.65 156.04 165.78 155.74 166.73 155.13L166.74 155.11ZM156.92 145.72C156.92 145.83 156.98 145.89 157.09 145.89H168.86C168.97 145.89 169.03 145.83 169.03 145.72C169.03 144.31 168.96 143.26 168.82 142.56C168.51 141.21 167.84 140.12 166.79 139.29C165.75 138.46 164.47 138.05 162.95 138.05C161.43 138.05 160.16 138.45 159.15 139.25C158.14 140.05 157.49 141.11 157.21 142.44C157.07 142.97 156.97 144.07 156.91 145.73L156.92 145.72Z" fill="white"/>
<path d="M113.76 154.58H113.51C112.428 154.58 111.55 155.458 111.55 156.54V156.79C111.55 157.873 112.428 158.75 113.51 158.75H113.76C114.842 158.75 115.72 157.873 115.72 156.79V156.54C115.72 155.458 114.842 154.58 113.76 154.58Z" fill="white"/>
<path d="M140.46 20.6902C140.46 21.4602 140.37 22.2202 140.19 22.9502C139.69 24.9802 138.54 26.7602 136.96 28.0402C135.33 29.3602 133.26 30.1502 131 30.1502C126.67 30.1502 123.02 27.2402 121.9 23.2702C121.87 23.1602 121.84 23.0602 121.82 22.9602C121.64 22.2302 121.55 21.4702 121.55 20.7002C121.55 15.4802 125.78 11.2402 131.01 11.2402C136.24 11.2402 140.47 15.4802 140.47 20.7002L140.46 20.6902Z" fill="#F7BC1A"/>
<path d="M141.28 36.9702C140.93 34.4602 138.75 32.6002 136.22 32.6002C134.19 32.6002 132.12 33.0802 130.2 34.1002C123.98 37.4102 121.6 45.1102 124.85 51.3402C124.85 51.3402 124.85 51.3402 124.85 51.3502C124.87 51.4002 124.9 51.4402 124.93 51.5002C125.58 52.7402 126 54.1202 126.14 55.5802C126.17 55.9302 126.19 56.2802 126.19 56.6402C126.19 62.6602 121.39 67.5702 115.4 67.7302C108.63 68.0802 103.24 73.6802 103.24 80.5302C103.24 85.6102 99.12 89.7302 94.05 89.7302C93.47 89.7302 92.91 89.6802 92.36 89.5802C88.08 88.7902 84.85 85.0402 84.85 80.5402C84.85 78.7102 85.39 77.0102 86.31 75.5702C87.95 73.0302 90.8 71.3502 94.05 71.3502C94.36 71.3502 94.68 71.3702 94.99 71.4002C95.04 71.4002 95.1 71.4002 95.15 71.4202C95.45 71.4502 95.75 71.4602 96.06 71.4602C100.96 71.4602 104.93 67.4902 104.93 62.6002C104.93 61.7702 104.81 60.9702 104.6 60.2102C104.54 60.0402 104.49 59.8702 104.44 59.6902C104.17 58.7302 104.02 57.7002 104.02 56.6502C104.02 52.1802 106.67 48.3202 110.48 46.5702C111.05 46.3102 111.65 46.0902 112.26 45.9302C112.38 45.9002 112.49 45.8702 112.61 45.8402C114.52 45.3402 116.34 44.3902 117.9 42.9702C123.16 38.2302 123.59 30.1302 118.85 24.8702C118.7 24.7102 118.55 24.5402 118.39 24.3902C118.39 24.3902 118.38 24.3802 118.37 24.3702C117.44 23.4402 116.15 22.9502 114.83 22.9502H76.08C67.06 22.9502 59.74 30.2602 59.74 39.2902V88.3102C59.74 97.3402 67.06 104.65 76.08 104.65H125.11C134.13 104.65 141.45 97.3402 141.45 88.3102V39.2902C141.45 38.5102 141.4 37.7302 141.29 36.9802L141.28 36.9702ZM72 100.57C67.49 100.57 63.83 96.9102 63.83 92.4002C63.83 87.8902 67.49 84.2302 72 84.2302C76.51 84.2302 80.17 87.8902 80.17 92.4002C80.17 96.9102 76.51 100.57 72 100.57Z" fill="white"/>
</svg>
