<svg width="362" height="72" viewBox="0 0 362 72" fill="none" xmlns="http://www.w3.org/2000/svg">
<g clip-path="url(#clip0_2155_632)">
<path d="M192.57 44.2403C190.474 44.2403 188.837 42.6247 188.837 40.5598V27.1563C188.837 22.8671 186.895 20.5004 183.386 20.5004C179.814 20.5004 177.6 23.0917 177.6 27.2673V40.5598C177.6 42.6223 175.984 44.2403 173.921 44.2403C171.82 44.2403 170.185 42.6247 170.185 40.5598V27.1031C170.185 22.9033 168.193 20.5004 164.732 20.5004C161.218 20.5004 158.948 23.1521 158.948 27.2673V40.5598C158.948 42.6223 157.308 44.2403 155.21 44.2403C153.145 44.2403 151.529 42.6247 151.529 40.5598V17.6941C151.529 15.5954 153.145 13.958 155.21 13.958C157.308 13.958 158.948 15.5978 158.948 17.6941V17.8897C160.67 15.7717 163.182 13.6875 167.355 13.6875C171.226 13.6875 174.291 15.3708 176.061 18.4476C178.64 15.2452 181.811 13.6875 185.731 13.6875C192.322 13.6875 196.256 17.9694 196.256 25.1373V40.5622C196.251 42.6247 194.635 44.2403 192.57 44.2403Z" fill="white"/>
<path d="M234.751 44.2398C232.686 44.2398 231.071 42.6241 231.071 40.5592V17.6935C231.071 15.5948 232.686 13.9574 234.751 13.9574C236.85 13.9574 238.487 15.5973 238.487 17.6935V18.9421C240.228 15.8726 242.858 13.9043 245.363 13.9043C247.558 13.9043 249.039 15.3799 249.039 17.5848C249.039 19.413 247.884 20.8162 246.09 21.1495C241.182 22.0068 238.487 25.8709 238.487 32.0293V40.5592C238.49 42.5903 236.809 44.2398 234.751 44.2398Z" fill="white"/>
<path d="M264.065 44.6229C255.26 44.6229 248.36 37.8897 248.36 29.2945V29.1786C248.36 20.494 255.311 13.6836 264.184 13.6836C273.025 13.6836 279.947 20.4433 279.947 29.0675V29.1762C279.947 37.8366 272.972 44.6229 264.065 44.6229ZM264.065 20.2767C259.264 20.2767 255.777 23.979 255.777 29.0675V29.1762C255.777 34.1391 259.462 38.0249 264.181 38.0249C269.016 38.0249 272.53 34.3516 272.53 29.2921V29.1762C272.53 24.107 268.891 20.2767 264.065 20.2767Z" fill="white"/>
<path d="M282.074 52.8832C279.555 52.8156 278.06 51.6419 278.06 49.7461C278.06 47.9662 279.357 46.6113 281.079 46.6113C281.163 46.6113 281.296 46.6379 281.407 46.6596L281.489 46.6717C282.839 46.6717 283.53 45.754 283.53 43.9499V17.6935C283.53 15.5948 285.153 13.9574 287.216 13.9574C289.305 13.9574 290.944 15.5972 290.944 17.6935V43.9499C290.944 49.7098 287.974 52.8832 282.562 52.8832H282.074ZM287.213 10.9265C284.791 10.9265 283.037 9.38086 283.037 7.24595V6.91992C283.037 4.78501 284.75 3.29492 287.213 3.29492C289.669 3.29492 291.386 4.78742 291.386 6.91992V7.24595C291.386 9.38086 289.631 10.9265 287.213 10.9265Z" fill="white"/>
<path d="M283.435 6.92033C283.435 4.95206 285.075 3.69141 287.212 3.69141C289.345 3.69141 290.984 4.95206 290.984 6.92033V7.24637C290.984 9.21705 289.345 10.5308 287.212 10.5308C285.075 10.5308 283.435 9.21705 283.435 7.24637V6.92033Z" fill="white"/>
<path d="M310.191 44.6229C301.376 44.6229 294.476 37.8897 294.476 29.2945V29.1786C294.476 20.494 301.424 13.6836 310.297 13.6836C319.139 13.6836 326.065 20.4433 326.065 29.0675V29.1762C326.065 37.8366 319.085 44.6229 310.191 44.6229ZM310.191 20.2767C305.38 20.2767 301.888 23.979 301.888 29.0675V29.1762C301.888 34.1391 305.578 38.0249 310.297 38.0249C315.132 38.0249 318.646 34.3516 318.646 29.2921V29.1762C318.646 24.107 315.009 20.2767 310.191 20.2767Z" fill="white"/>
<path d="M346.122 44.5685C342.313 44.5685 339.21 43.1412 336.676 40.2118V40.5619C336.676 42.593 335 44.2425 332.945 44.2425C330.914 44.2425 329.265 42.593 329.265 40.5619V6.64251C329.265 4.58247 330.878 2.9668 332.945 2.9668C335.039 2.9668 336.676 4.58488 336.676 6.64251V18.3145C339.21 15.2015 342.313 13.6848 346.122 13.6848C352.983 13.6848 359.924 18.9714 359.924 29.0687V29.175C359.924 39.2844 352.983 44.5685 346.122 44.5685ZM344.537 20.2272C339.959 20.2272 336.512 24.0285 336.512 29.0687V29.175C336.512 34.2224 339.959 38.0285 344.537 38.0285C349.167 38.0285 352.401 34.3891 352.401 29.175V29.0687C352.401 24.0285 349.017 20.2272 344.537 20.2272Z" fill="white"/>
<path d="M209.427 29.2969C209.427 30.7242 210.494 31.8762 211.803 31.8762H220.314H221.367H224.292C226.274 31.8762 227.815 30.3064 227.815 28.3043C227.815 21.2137 222.862 13.6836 213.687 13.6836C205.413 13.6836 199.173 20.3226 199.173 29.1255V29.2341C199.173 38.1457 205.585 44.6204 214.397 44.6204C218.619 44.6204 222.104 43.3356 225.076 40.6767C225.714 40.0342 226.064 39.2155 226.064 38.3703C226.064 36.6411 224.734 35.2911 223.045 35.2911C222.164 35.2911 221.645 35.5519 221.096 35.9842C219.111 37.6144 216.962 38.4089 214.506 38.4089C210.427 38.4089 207.454 35.9238 206.662 31.8762H206.696L206.596 31.398C206.437 30.6276 206.36 29.8572 206.36 29.1061C206.36 28.1594 206.468 27.2248 206.703 26.3167C207.529 22.3536 210.18 19.8951 213.632 19.8951C218.01 19.8951 220.039 23.3366 220.512 26.7032H220.411L220.413 26.7176H211.803C210.494 26.7201 209.427 27.8769 209.427 29.2969Z" fill="white"/>
<mask id="mask0_2155_632" style="mask-type:luminance" maskUnits="userSpaceOnUse" x="0" y="0" width="130" height="72">
<path d="M70.3177 7.30736C69.7163 7.98841 63.6328 15.1152 62.8841 15.9919L28.5493 57.683C26.8515 59.7309 24.4534 61.0037 21.7992 61.2524C19.1523 61.5012 16.5586 60.6994 14.5082 58.9992C12.4481 57.3014 11.1851 54.9033 10.9363 52.2539C10.6876 49.5974 11.487 47.0109 13.1872 44.9581L38.4438 14.4559C41.9625 10.2223 48.261 9.62582 52.4946 13.1373C54.6029 14.881 57.7256 14.5863 59.4741 12.4804C61.2226 10.3697 60.9231 7.24457 58.8148 5.5009C50.3717 -1.49068 37.8159 -0.307303 30.8219 8.13331L5.56041 38.6379C2.17209 42.7265 0.573323 47.8948 1.07324 53.1789C1.57074 58.4679 4.09447 63.2497 8.18074 66.6332C11.7864 69.6158 16.2156 71.2121 20.8308 71.2121C21.4611 71.2121 22.0915 71.1807 22.729 71.1203C28.0156 70.6228 32.7926 68.0991 36.1905 64.0008L70.4746 22.3725C73.1819 19.2063 77.3479 14.3303 77.7705 13.8546C80.1324 11.1594 83.0305 10.6329 85.0616 10.6595C87.9572 10.7005 90.7635 11.937 92.3792 13.8811L117.641 44.3784C121.145 48.6169 120.556 54.9202 116.329 58.4268C114.272 60.1246 111.685 60.9288 109.031 60.6776C106.374 60.4265 103.984 59.161 102.276 57.1082L87.0298 38.7006L80.3957 30.1634C78.7172 28.0044 75.6066 27.6107 73.4403 29.294C71.2813 30.9773 70.8949 34.0831 72.5661 36.247L79.251 44.8421L94.6469 63.426C98.0304 67.5195 102.807 70.0432 108.094 70.5431C113.378 71.0406 118.546 69.4491 122.642 66.0608C131.083 59.0644 132.266 46.5037 125.275 38.0582L100.006 7.55611C96.5427 3.37807 91.0074 0.827773 85.2041 0.752906C85.0664 0.748076 84.9287 0.748076 84.7959 0.748076C79.1399 0.738416 74.0151 3.09309 70.3177 7.30736Z" fill="white"/>
</mask>
<g mask="url(#mask0_2155_632)">
<path d="M132.265 -1.49219H0.569824V71.2082H132.265V-1.49219Z" fill="url(#paint0_linear_2155_632)"/>
</g>
<path d="M151.615 68.0838L156.742 56.8779C156.918 56.4843 157.196 56.25 157.643 56.25H157.718C158.153 56.25 158.433 56.4843 158.599 56.8779L163.719 68.062C163.777 68.1924 163.811 68.3156 163.811 68.4243C163.811 68.8035 163.504 69.1102 163.125 69.1102C162.785 69.1102 162.546 68.8759 162.42 68.5861L161.104 65.6832H154.18L152.868 68.6272C152.738 68.9339 152.499 69.1126 152.173 69.1126C151.815 69.1126 151.523 68.8204 151.523 68.4629C151.523 68.3542 151.545 68.2263 151.615 68.0838ZM160.546 64.3839L157.641 57.9285L154.735 64.3839H160.546Z" fill="white"/>
<path d="M166.664 57.0268C166.664 56.6307 166.99 56.3047 167.369 56.3047C167.763 56.3047 168.089 56.6307 168.089 57.0268V68.3944C168.089 68.7881 167.763 69.1117 167.369 69.1117C166.99 69.1117 166.664 68.7881 166.664 68.3944V57.0268Z" fill="white"/>
<path d="M171.792 57.0426C171.792 56.6635 172.115 56.3398 172.492 56.3398H172.656C172.965 56.3398 173.183 56.4992 173.323 56.719L177.834 63.4981L182.346 56.719C182.493 56.4848 182.722 56.3398 183.012 56.3398H183.176C183.555 56.3398 183.879 56.6635 183.879 57.0426V68.3934C183.879 68.787 183.555 69.1107 183.176 69.1107C182.78 69.1107 182.452 68.7701 182.452 68.3934V58.9747L178.411 64.9109C178.252 65.1427 178.071 65.2683 177.817 65.2683C177.564 65.2683 177.363 65.1427 177.204 64.9109L173.183 58.9964V68.4079C173.183 68.8064 172.874 69.1107 172.475 69.1107C172.103 69.1107 171.792 68.8064 171.792 68.4079V57.0426Z" fill="white"/>
<path d="M192.868 57.0268C192.868 56.6307 193.197 56.3047 193.569 56.3047C193.97 56.3047 194.293 56.6307 194.293 57.0268V62.0042H201.584V57.0268C201.584 56.6307 201.913 56.3047 202.299 56.3047C202.686 56.3047 203.009 56.6307 203.009 57.0268V68.3944C203.009 68.7881 202.686 69.1117 202.299 69.1117C201.91 69.1117 201.584 68.7881 201.584 68.3944V63.3397H194.293V68.3944C194.293 68.7881 193.97 69.1117 193.569 69.1117C193.197 69.1117 192.868 68.7881 192.868 68.3944V57.0268Z" fill="white"/>
<path d="M206.707 57.0268C206.707 56.6307 207.033 56.3047 207.407 56.3047C207.808 56.3047 208.132 56.6307 208.132 57.0268V68.3944C208.132 68.7881 207.808 69.1117 207.407 69.1117C207.035 69.1117 206.707 68.7881 206.707 68.3944V57.0268Z" fill="white"/>
<path d="M211.274 62.7452V62.7041C211.274 59.2409 213.824 56.1738 217.609 56.1738C219.522 56.1738 220.763 56.6834 221.92 57.5263C222.079 57.6518 222.214 57.8499 222.214 58.1059C222.214 58.5019 221.888 58.828 221.502 58.828C221.347 58.828 221.198 58.7555 221.055 58.6493C220.154 57.961 219.14 57.4924 217.558 57.4924C214.759 57.4924 212.757 59.8568 212.757 62.6751V62.709C212.757 65.7229 214.687 67.9593 217.749 67.9593C219.198 67.9593 220.531 67.4014 221.396 66.6986V63.5591H218.01C217.667 63.5591 217.377 63.2668 217.377 62.9287C217.377 62.5713 217.667 62.2767 218.01 62.2767H222.062C222.444 62.2767 222.767 62.6027 222.767 63.0012V66.8411C222.767 67.1841 222.603 67.4883 222.275 67.7057C221.123 68.5558 219.57 69.2417 217.701 69.2417C213.728 69.2393 211.274 66.3533 211.274 62.7452Z" fill="white"/>
<path d="M225.981 57.0268C225.981 56.6307 226.305 56.3047 226.691 56.3047C227.085 56.3047 227.406 56.6307 227.406 57.0268V62.0042H234.697V57.0268C234.697 56.6307 235.02 56.3047 235.421 56.3047C235.796 56.3047 236.119 56.6307 236.119 57.0268V68.3944C236.119 68.7881 235.796 69.1117 235.421 69.1117C235.02 69.1117 234.697 68.7881 234.697 68.3944V63.3397H227.406V68.3944C227.406 68.7881 227.085 69.1117 226.691 69.1117C226.305 69.1117 225.981 68.7881 225.981 68.3944V57.0268Z" fill="white"/>
<path d="M239.704 68.3012V57.1147C239.704 56.721 240.025 56.3926 240.402 56.3926H248.251C248.611 56.3926 248.903 56.6872 248.903 57.0446C248.903 57.4045 248.611 57.6967 248.251 57.6967H241.124V62.0052H247.444C247.799 62.0052 248.087 62.3143 248.087 62.6548C248.087 63.0171 247.799 63.3045 247.444 63.3045H241.124V67.7288H248.343C248.703 67.7288 248.995 68.0162 248.995 68.3785C248.995 68.7408 248.703 69.0281 248.343 69.0281H240.404C240.025 69.0233 239.704 68.6973 239.704 68.3012Z" fill="white"/>
<path d="M251.789 57.1195C251.789 56.7186 252.111 56.3926 252.492 56.3926H257.223C258.771 56.3926 260.022 56.8659 260.812 57.6532C261.425 58.2715 261.785 59.153 261.785 60.1456V60.1818C261.785 62.2539 260.375 63.4639 258.411 63.843L261.549 67.8834C261.696 68.0476 261.785 68.2119 261.785 68.4075C261.785 68.7866 261.428 69.1103 261.061 69.1103C260.776 69.1103 260.558 68.9509 260.394 68.7311L256.842 64.1111H253.219V68.3906C253.219 68.7842 252.891 69.1078 252.495 69.1078C252.113 69.1078 251.792 68.7842 251.792 68.3906L251.789 57.1195ZM257.098 62.8359C258.986 62.8359 260.346 61.8651 260.346 60.2374V60.2035C260.346 58.6507 259.153 57.7088 257.115 57.7088H253.219V62.8359H257.098Z" fill="white"/>
</g>
<defs>
<linearGradient id="paint0_linear_2155_632" x1="66.5041" y1="0.70778" x2="66.5041" y2="71.2038" gradientUnits="userSpaceOnUse">
<stop stop-color="#00AFDB"/>
<stop offset="0.2193" stop-color="#008EBA"/>
<stop offset="0.4049" stop-color="#0075A2"/>
<stop offset="0.638" stop-color="#004C7D"/>
<stop offset="1" stop-color="#262262"/>
</linearGradient>
<clipPath id="clip0_2155_632">
<rect width="361.212" height="72" fill="white" transform="translate(0.56543)"/>
</clipPath>
</defs>
</svg>
