<svg width="250" height="249" viewBox="0 0 250 249" fill="none" xmlns="http://www.w3.org/2000/svg">
<g clip-path="url(#clip0_1673_427)">
<path d="M125.063 0.29144C56.7151 0.113851 1.20085 55.6652 0.768437 123.668C0.329938 192.58 56.1033 248.357 124.21 248.767C193.099 249.18 248.879 193.421 249.277 125.292C249.681 56.2782 193.626 0.131488 125.063 0.29144ZM75.199 180.474C75.1521 181.066 74.7568 181.348 74.2161 181.372C73.3908 181.409 72.5625 181.382 71.6599 181.382V179.478C72.5412 179.478 73.3908 179.428 74.2307 179.494C74.8936 179.547 75.2403 179.957 75.199 180.474ZM71.6666 178.362V176.495C72.4037 176.495 73.1019 176.456 73.7934 176.508C74.325 176.547 74.8006 176.764 74.834 177.413C74.8608 177.934 74.4746 178.301 73.7588 178.352C73.0867 178.399 72.408 178.362 71.6666 178.362ZM71.9701 170.706C70.0239 170.69 68.6628 169.249 68.6841 167.225C68.7048 165.24 70.0878 163.844 72.0188 163.86C74.0039 163.877 75.3735 165.316 75.3601 167.371C75.348 169.284 73.8859 170.722 71.9701 170.706ZM80.1739 179.769C80.5947 178.779 80.9882 177.853 81.4352 176.802C81.889 177.863 82.2855 178.79 82.7033 179.769H80.1739Z" fill="#8B1C2E"/>
<path d="M82.6984 179.77H80.1689C80.5898 178.78 80.9833 177.854 81.4303 176.803C81.884 177.864 82.2806 178.791 82.6984 179.77Z" fill="#8B1C2E"/>
<path d="M75.2033 180.473C75.1565 181.065 74.7612 181.348 74.2205 181.371C73.3952 181.408 72.5668 181.381 71.6643 181.381V179.477C72.5456 179.477 73.3952 179.427 74.2351 179.493C74.898 179.546 75.2447 179.957 75.2033 180.473Z" fill="#8B1C2E"/>
<path d="M73.7565 178.351C73.0844 178.398 72.4057 178.361 71.6643 178.361V176.495C72.4014 176.495 73.0996 176.456 73.7911 176.507C74.3227 176.547 74.7983 176.763 74.8317 177.413C74.8585 177.933 74.4723 178.301 73.7565 178.351Z" fill="#8B1C2E"/>
<path d="M75.3611 167.368C75.3489 169.281 73.8868 170.72 71.9711 170.704C70.0249 170.687 68.6638 169.246 68.6851 167.223C68.7057 165.237 70.0887 163.842 72.0197 163.858C74.0048 163.875 75.3745 165.313 75.3611 167.368Z" fill="#8B1C2E"/>
<path d="M125.063 0.291443C193.627 0.130883 249.681 56.277 249.277 125.291C248.879 193.42 193.098 249.18 124.209 248.766C56.1032 248.357 0.330539 192.58 0.76843 123.668C1.20146 55.6646 56.7151 0.113246 125.063 0.291443ZM245.481 124.499C245.478 58.2463 191.725 4.3693 125.632 4.05183C58.9368 3.73193 4.86636 57.7561 4.56044 123.916C4.2521 190.603 58.3037 244.74 124.57 244.973C191.294 245.208 245.506 190.979 245.481 124.499Z" fill="white"/>
<path d="M245.479 124.497C245.503 190.977 191.291 245.206 124.567 244.971C58.3012 244.738 4.24961 190.601 4.55795 123.914C4.86387 57.7539 58.9343 3.72974 125.63 4.05025C191.722 4.36772 245.476 58.2447 245.479 124.498V124.497ZM166.547 62.0264C166.219 62.1401 165.957 62.2241 165.701 62.3214C163.824 63.0311 161.945 63.7354 160.073 64.4561C156.267 65.9206 152.472 67.404 148.918 69.4395C144.245 72.1161 140.891 75.8838 139.152 81.0242C137.972 84.5115 137.448 88.118 137.212 91.7738C137.181 92.2567 137.019 92.5778 136.659 92.9166C134.696 94.7569 132.758 96.6241 130.842 98.5119C130.137 99.2058 129.514 99.9818 128.853 100.721C130.243 96.1095 130.447 91.477 129.359 86.7454C129.592 86.7697 129.736 86.7812 129.879 86.8007C131.663 87.0391 133.207 86.5106 134.565 85.3544C137.878 82.5337 138.531 76.7505 135.925 73.2687C134.263 71.0488 131.536 70.2478 129.152 71.2823C127.951 71.8035 127.011 72.652 126.233 73.6664C126.175 73.6482 126.146 73.6482 126.137 73.6342C125.967 73.3885 125.806 73.1367 125.631 72.8952C124.252 70.994 122.48 69.6676 120.155 69.1452C116.755 68.3807 113.602 70.3403 113.008 73.6603C112.642 75.7123 113.143 77.6208 114.33 79.317C114.882 80.1058 115.566 80.8028 116.206 81.5588C114.586 82.8639 113.728 84.6009 113.732 86.7113C113.739 90.1451 115.33 92.7992 118.069 94.7205C120.831 96.6587 123.805 97.1878 126.917 95.4454C126.944 95.4302 126.993 95.4527 127.071 95.463C127.043 95.6735 127.019 95.8827 126.988 96.0913C126.565 98.9254 125.606 101.597 124.412 104.178C122.557 108.189 120.633 112.167 118.749 116.164C118.362 116.985 118.023 117.83 117.645 118.705C117.182 117.106 116.754 115.568 116.287 114.04C115.982 113.041 115.552 112.077 115.298 111.067C114.653 108.502 114.153 105.899 113.455 103.349C112.26 98.9862 110.637 94.7898 108.083 91.0136C105.401 87.0476 101.883 84.1563 97.2558 82.7344C93.7491 81.6573 90.1559 81.5186 86.5324 81.844C85.2631 81.9577 83.9999 82.1432 82.7081 82.2989C82.7434 82.4625 82.7501 82.5483 82.7799 82.6249C84.6908 87.5828 86.5287 92.5699 88.5448 97.4846C89.6919 100.28 91.3449 102.815 93.4559 105.016C96.2134 107.891 99.6259 109.612 103.42 110.662C106.189 111.428 109.016 111.841 111.872 112.078C112.246 112.109 112.594 112.083 112.786 112.575C114.677 117.403 115.804 122.365 115.497 127.585C115.33 130.426 115.72 133.187 116.841 135.796C117.486 137.299 118.316 138.729 119.139 140.147C119.523 140.809 120.407 140.916 121.005 140.519C121.636 140.101 121.822 139.363 121.465 138.662C121.378 138.491 121.268 138.333 121.167 138.17C118.955 134.626 117.941 130.797 118.467 126.618C119.036 122.094 120.718 117.93 122.951 114.027C126.976 106.99 131.923 100.659 138.1 95.3487C138.345 95.1383 138.672 94.9759 138.987 94.9041C140.61 94.535 142.25 94.2375 143.868 93.8501C148.66 92.7025 153.329 91.2204 157.578 88.6429C162.369 85.737 165.622 81.6828 166.806 76.1265C167.803 71.4435 167.343 66.7775 166.547 62.0258V62.0264ZM126.36 203.415C126.166 203.207 126.003 203.039 125.848 202.864C124.269 201.093 122.693 199.32 121.113 197.551C120.344 196.689 119.634 196.706 118.86 197.575C115.036 201.868 111.206 206.155 107.391 210.455C107.066 210.821 106.731 210.973 106.237 210.967C103.864 210.943 101.491 210.949 99.1169 210.962C98.3877 210.965 97.8981 211.455 97.8622 212.149C97.8287 212.801 98.3402 213.35 99.0554 213.405C99.3528 213.428 99.6539 213.413 99.9531 213.413C109.81 213.413 119.667 213.413 129.523 213.413C130.72 213.413 131.292 213.805 131.281 214.614C131.271 215.397 130.677 215.789 129.493 215.789C125.986 215.791 122.48 215.794 118.973 215.787C118.165 215.785 117.398 215.901 116.719 216.374C115.379 217.309 114.815 218.861 115.269 220.365C115.724 221.871 117.108 222.888 118.751 222.895C121.189 222.905 123.627 222.889 126.064 222.907C126.39 222.909 126.767 222.968 127.029 223.14C127.477 223.434 127.619 223.92 127.444 224.443C127.259 224.997 126.841 225.242 126.266 225.242C124.62 225.241 122.973 225.236 121.327 225.243C120.404 225.247 119.879 225.679 119.872 226.416C119.864 227.194 120.384 227.633 121.341 227.636C122.923 227.64 124.505 227.638 126.088 227.637C128.268 227.636 129.893 226.11 129.891 224.067C129.89 222.05 128.29 220.525 126.141 220.516C123.789 220.506 121.437 220.517 119.085 220.515C118.851 220.515 118.611 220.517 118.385 220.466C117.842 220.345 117.464 219.832 117.486 219.292C117.508 218.754 117.928 218.263 118.469 218.18C118.699 218.144 118.938 218.156 119.173 218.156C122.786 218.155 126.4 218.159 130.013 218.153C131.756 218.151 133.207 217.048 133.544 215.381C133.666 214.772 133.564 214.117 133.564 213.411C133.798 213.411 134.072 213.411 134.345 213.411C139.798 213.411 145.249 213.412 150.702 213.409C151.604 213.409 152.199 212.901 152.177 212.172C152.154 211.4 151.617 210.957 150.689 210.957C148.444 210.954 146.198 210.93 143.954 210.972C143.333 210.984 142.932 210.779 142.535 210.329C139.366 206.741 136.178 203.17 132.994 199.595C132.289 198.803 131.652 198.77 130.846 199.476C129.368 200.772 127.892 202.069 126.361 203.414L126.36 203.415ZM158.51 101.428C156.139 101.773 153.858 102.093 151.581 102.438C147.76 103.018 143.949 103.633 140.228 104.727C134.392 106.442 129.917 109.826 127.018 115.234C125.629 117.825 124.565 120.54 123.71 123.341C123.288 124.724 122.914 126.122 122.508 127.551C122.744 127.574 122.89 127.606 123.035 127.601C126.643 127.467 130.259 127.441 133.855 127.162C137.721 126.862 141.497 126.025 145.089 124.5C150.19 122.335 153.96 118.815 156.128 113.657C157.511 110.367 158.115 106.911 158.385 103.38C158.433 102.748 158.467 102.116 158.51 101.428ZM125.409 68.8095C140.859 57.9844 139.558 38.5731 126.589 29.2028C126.534 29.2618 126.472 29.3184 126.423 29.3847C124.523 31.9682 122.762 34.6394 121.339 37.5203C119.643 40.9535 118.453 44.5418 118.098 48.3745C117.698 52.6793 118.435 56.7979 120.193 60.7371C121.508 63.6825 123.303 66.3196 125.409 68.8095ZM84.2231 53.7643C84.501 55.4477 84.7224 56.9438 84.9979 58.4302C85.7515 62.4929 86.775 66.4759 88.6336 70.1961C90.7428 74.4181 93.7655 77.6871 98.3171 79.3091C101.708 80.5176 105.215 80.6246 108.757 80.3242C109.257 80.2816 109.756 80.2226 110.283 80.1679C110.268 79.8826 110.275 79.6692 110.243 79.4612C109.954 77.6056 109.723 75.7385 109.353 73.8993C108.147 67.9154 105.19 63.0749 99.9695 59.7348C96.6282 57.5964 92.9827 56.1702 89.1889 55.0919C87.5937 54.6388 85.985 54.2332 84.2231 53.763V53.7643ZM158.656 49.2522C158.665 48.4421 158.142 47.9677 157.189 47.9208C154.258 47.7773 152.018 45.5562 151.854 42.6321C151.799 41.6535 151.354 41.1305 150.568 41.1226C149.766 41.1141 149.383 41.6712 149.237 42.6765C149.117 43.5054 148.921 44.377 148.526 45.1019C147.531 46.9271 145.909 47.8448 143.821 47.9281C142.991 47.961 142.458 48.4877 142.46 49.2357C142.463 49.9643 142.975 50.4904 143.773 50.508C146.964 50.5786 149.282 53.1816 149.278 56.0425C149.277 56.8344 149.834 57.3239 150.586 57.3209C151.29 57.3179 151.778 56.8192 151.849 56.0626C151.892 55.5967 151.929 55.1235 152.045 54.6729C152.667 52.2554 154.706 50.6431 157.267 50.5141C158.131 50.4703 158.648 50.0014 158.657 49.2528L158.656 49.2522ZM57.1389 168.528C55.9974 166.64 54.8564 164.906 53.8846 163.082C53.3597 162.098 52.7503 161.682 51.6471 161.827C51.169 161.891 50.9908 161.965 50.9945 162.484C51.017 165.69 51.0042 168.896 51.006 172.102C51.006 172.285 51.0377 172.468 51.0602 172.704C51.6842 172.704 52.2595 172.678 52.8312 172.712C53.3031 172.74 53.4053 172.532 53.3992 172.107C53.3804 170.761 53.3937 169.414 53.3944 168.068C53.3944 167.612 53.3944 167.157 53.3944 166.702C54.4453 168.142 55.3539 169.603 56.2309 171.084C56.431 171.421 56.6548 171.537 57.0404 171.558C57.5154 171.583 57.7617 171.402 57.9934 171.004C58.857 169.519 59.7596 168.056 60.6481 166.585C60.7053 166.596 60.7619 166.608 60.819 166.618V172.66H63.163V161.942C61.4558 161.592 61.1438 161.727 60.3209 163.148C60.1713 163.407 60.0168 163.663 59.8648 163.921C58.9763 165.423 58.0883 166.924 57.1395 168.528L57.1389 168.528ZM96.5187 166.275C96.7693 166.556 96.9104 166.704 97.0393 166.861C98.5178 168.66 99.9902 170.465 101.477 172.258C101.63 172.442 101.855 172.666 102.065 172.686C102.652 172.745 103.248 172.706 103.879 172.706V161.891H101.401V168.292C101.211 168.085 101.123 167.999 101.046 167.905C99.5006 166.022 97.9589 164.137 96.408 162.258C96.2791 162.102 96.1009 161.892 95.933 161.88C95.3036 161.835 94.6692 161.862 94.0173 161.862V172.704C94.6492 172.704 95.2446 172.674 95.8351 172.713C96.3533 172.747 96.5479 172.594 96.5297 172.043C96.4901 170.826 96.5181 169.606 96.5187 168.388C96.5187 167.736 96.5187 167.084 96.5187 166.275V166.275ZM143.866 161.89V168.265C143.701 168.115 143.635 168.068 143.585 168.007C142.214 166.342 140.78 164.724 139.501 162.991C138.824 162.073 138.093 161.69 136.989 161.835C136.599 161.886 136.427 161.946 136.429 162.38C136.443 165.67 136.436 168.96 136.439 172.25C136.439 172.374 136.463 172.498 136.479 172.654H138.98V166.244C139.228 166.538 139.366 166.698 139.5 166.862C140.975 168.662 142.447 170.465 143.928 172.259C144.07 172.431 144.265 172.661 144.45 172.677C145.075 172.729 145.708 172.697 146.34 172.697V161.889H143.865L143.866 161.89ZM72.0096 161.693C68.4262 161.692 66.005 164.13 66.1072 167.638C66.1753 169.982 67.8393 171.994 70.2513 172.65C73.2722 173.472 76.3922 172.131 77.4765 169.546C79.1241 165.617 76.3928 161.694 72.0102 161.693L72.0096 161.693ZM187.257 172.702C187.952 172.702 188.503 172.664 189.048 172.712C189.637 172.764 190.016 172.606 190.177 171.992C190.274 171.624 190.497 171.29 190.599 170.923C190.727 170.459 191.003 170.356 191.447 170.376C192.236 170.411 193.027 170.382 193.817 170.39C194.456 170.396 195.238 170.198 195.693 170.494C196.142 170.786 196.26 171.586 196.522 172.163C196.566 172.261 196.588 172.373 196.652 172.454C196.724 172.548 196.829 172.681 196.922 172.683C197.72 172.702 198.519 172.694 199.388 172.694C199.275 172.396 199.218 172.216 199.142 172.044C197.876 169.222 196.509 166.44 195.382 163.564C194.829 162.153 194.095 161.593 192.628 161.83C192.214 161.897 192 161.993 191.834 162.383C191.145 163.991 190.419 165.582 189.709 167.179C188.912 168.97 188.119 170.761 187.258 172.703L187.257 172.702ZM128.225 172.696C128.074 172.343 127.985 172.128 127.889 171.916C126.641 169.135 125.295 166.391 124.183 163.556C123.644 162.182 122.958 161.579 121.494 161.829C121.072 161.901 120.826 161.968 120.64 162.393C119.38 165.285 118.084 168.163 116.803 171.045C116.574 171.56 116.358 172.079 116.09 172.703C116.681 172.703 117.151 172.655 117.607 172.714C118.394 172.814 118.907 172.597 119.079 171.756C119.142 171.45 119.352 171.176 119.441 170.871C119.56 170.466 119.808 170.367 120.204 170.376C121.228 170.4 122.253 170.37 123.278 170.389C124.92 170.42 124.456 170.136 125.1 171.582C125.221 171.855 125.311 172.144 125.457 172.402C125.527 172.528 125.69 172.677 125.816 172.681C126.577 172.708 127.34 172.694 128.224 172.694L128.225 172.696ZM175.191 172.692C175.031 172.301 174.927 172.023 174.806 171.753C173.574 169.007 172.257 166.296 171.139 163.505C170.617 162.202 169.968 161.585 168.535 161.825C168.06 161.904 167.789 161.987 167.586 162.453C166.233 165.565 164.848 168.662 163.474 171.764C163.35 172.043 163.229 172.324 163.08 172.665C163.994 172.665 164.87 172.857 165.574 172.591C165.983 172.437 166.114 171.548 166.37 170.99C166.388 170.951 166.415 170.914 166.424 170.873C166.522 170.465 166.79 170.372 167.185 170.378C168.467 170.398 169.75 170.407 171.031 170.373C171.479 170.362 171.683 170.524 171.815 170.926C171.968 171.391 172.161 171.846 172.376 172.286C172.456 172.449 172.644 172.666 172.791 172.674C173.554 172.712 174.319 172.692 175.191 172.692H175.191ZM80.7857 161.89C80.7613 162.015 80.7321 162.097 80.7321 162.178C80.7364 164.335 80.6725 166.497 80.7881 168.649C80.8313 169.461 81.1427 170.346 81.5891 171.03C82.688 172.712 84.4518 173.008 86.2946 172.848C88.6792 172.64 90.1559 171.323 90.4041 168.948C90.6029 167.045 90.491 165.109 90.5147 163.187C90.5202 162.766 90.5154 162.346 90.5154 161.894H88.0236C88.0236 162.336 88.0273 162.737 88.023 163.137C88.0017 164.974 88.0115 166.812 87.9415 168.646C87.9075 169.532 87.4738 170.234 86.5804 170.56C84.8927 171.177 83.4008 170.246 83.3297 168.446C83.2561 166.569 83.2926 164.687 83.2816 162.806C83.2798 162.514 83.2816 162.221 83.2816 161.889H80.7844L80.7857 161.89ZM175.345 161.856C175.435 162.12 175.484 162.301 175.558 162.471C176.777 165.29 177.996 168.108 179.222 170.923C179.476 171.506 179.618 172.294 180.071 172.589C180.527 172.886 181.308 172.664 181.943 172.71C182.352 172.739 182.543 172.577 182.699 172.208C183.59 170.108 184.509 168.019 185.414 165.925C185.987 164.601 186.554 163.274 187.166 161.852C186.407 161.852 185.752 161.876 185.1 161.843C184.731 161.824 184.567 161.982 184.438 162.294C184.055 163.221 183.652 164.138 183.254 165.059C182.631 166.498 182.007 167.937 181.324 169.511C181.156 169.127 181.047 168.882 180.942 168.635C180.056 166.556 179.177 164.473 178.278 162.4C178.188 162.193 177.99 161.893 177.825 161.881C177.025 161.827 176.219 161.857 175.343 161.857L175.345 161.856ZM154.983 163.932H158.679C158.679 165.833 158.755 167.669 158.652 169.496C158.585 170.674 157.402 171.141 156.277 170.522C155.879 170.303 155.547 169.965 155.156 169.659C154.711 170.193 154.277 170.713 153.811 171.274C154.027 171.5 154.195 171.722 154.405 171.89C155.609 172.853 156.99 173.048 158.461 172.772C160.081 172.468 161.049 171.393 161.208 169.752C161.239 169.434 161.264 169.113 161.264 168.793C161.266 166.719 161.262 164.646 161.257 162.572C161.257 162.347 161.238 162.12 161.227 161.887H154.982V163.932H154.983ZM112.246 163.933H115.65V161.909H106.307V163.938C107.258 163.938 108.171 163.966 109.081 163.927C109.594 163.905 109.736 164.079 109.731 164.58C109.708 167.014 109.719 169.448 109.718 171.882C109.718 172.132 109.718 172.382 109.718 172.66H112.247V163.933H112.246ZM175.618 175.484C174.903 175.284 174.443 175.409 174.078 176.107C173.392 177.424 172.59 178.681 171.79 180.04C170.967 178.673 170.153 177.421 169.449 176.11C169.082 175.425 168.629 175.28 167.92 175.482V182.449H169.203V177.993C169.917 179.163 170.525 180.163 171.136 181.162C171.616 181.948 171.914 181.947 172.392 181.158C173.004 180.146 173.612 179.131 174.221 178.117C174.272 178.129 174.323 178.141 174.375 178.152V182.461H175.618V175.484ZM70.2702 182.501C71.0961 182.501 71.8612 182.519 72.6245 182.496C73.4321 182.472 74.2538 182.49 75.0426 182.344C76.1933 182.13 76.8313 181.127 76.4852 180.057C76.3246 179.562 75.8776 179.16 75.5516 178.703C76.6786 177.692 76.4019 175.771 74.6175 175.539C73.2016 175.354 71.7426 175.502 70.2708 175.502V182.502L70.2702 182.501ZM130.405 161.892V172.654H132.843V161.892H130.405ZM151.5 175.459V182.48C152.746 182.48 153.944 182.553 155.13 182.463C157.086 182.314 158.369 180.924 158.418 179.038C158.468 177.163 157.286 175.696 155.362 175.485C154.101 175.347 152.814 175.459 151.5 175.459ZM91.3285 180.205C91.4635 180.113 91.5444 180.05 91.6332 179.999C92.5369 179.477 92.8459 178.651 92.765 177.667C92.6793 176.621 92.0942 175.809 91.0968 175.64C89.7119 175.404 88.2845 175.423 86.8705 175.333V182.458H88.2073V180.557C89.4863 180.177 90.3682 180.518 90.8705 181.68C90.8955 181.738 90.9387 181.788 90.9757 181.84C91.4903 182.562 91.8679 182.676 92.8191 182.377C92.3326 181.669 91.8521 180.969 91.3279 180.205H91.3285ZM165.169 178.316H161.875V176.562C162.862 176.562 163.8 176.563 164.737 176.562C165.752 176.56 165.835 176.445 165.545 175.458H160.495V182.449H165.753V181.341H161.865V179.444H165.169V178.316V178.316ZM111.075 182.501C111.522 182.501 111.846 182.539 112.154 182.486C112.324 182.457 112.578 182.298 112.604 182.161C112.846 180.913 113.666 180.68 114.758 180.857C114.945 180.887 115.147 180.892 115.333 180.857C116.332 180.664 116.945 181.031 117.187 182.042C117.23 182.218 117.451 182.443 117.624 182.478C117.964 182.547 118.329 182.498 118.747 182.498C118.678 182.299 118.647 182.179 118.597 182.068C117.677 180.027 116.739 177.994 115.845 175.942C115.659 175.515 115.425 175.412 114.987 175.392C114.431 175.366 114.116 175.536 113.952 176.074C113.84 176.438 113.643 176.776 113.486 177.126C112.702 178.873 111.918 180.619 111.075 182.501ZM126.288 182.435C127.152 182.559 127.738 182.256 128.047 181.526C128.072 181.467 128.101 181.409 128.117 181.347C128.22 180.948 128.477 180.831 128.877 180.853C129.452 180.884 130.04 180.93 130.604 180.845C131.552 180.702 132.076 181.057 132.309 181.971C132.36 182.171 132.579 182.427 132.765 182.472C133.102 182.553 133.472 182.495 133.923 182.495C133.802 182.202 133.722 181.989 133.628 181.782C132.741 179.82 131.824 177.869 130.98 175.888C130.758 175.365 130.413 175.432 130.018 175.402C129.612 175.371 129.366 175.471 129.184 175.89C128.318 177.885 127.409 179.863 126.519 181.848C126.435 182.035 126.368 182.231 126.288 182.434V182.435ZM85.2363 182.417C85.2035 182.316 85.181 182.216 85.139 182.123C84.2103 180.065 83.2573 178.016 82.3645 175.942C82.1431 175.427 81.8165 175.418 81.3726 175.398C80.9152 175.378 80.6944 175.546 80.5144 175.957C79.652 177.928 78.7574 179.885 77.8773 181.849C77.7934 182.036 77.7344 182.234 77.659 182.439C78.5149 182.552 79.0998 182.244 79.4136 181.515C79.447 181.437 79.4896 181.361 79.5121 181.279C79.6088 180.935 79.829 180.84 80.1805 180.852C80.9474 180.88 81.7198 180.903 82.4837 180.848C83.0353 180.807 83.2756 181.027 83.4653 181.513C83.9081 182.646 83.9665 182.656 85.2357 182.417L85.2363 182.417ZM149.878 182.501C149.772 182.213 149.706 181.993 149.612 181.785C148.738 179.84 147.844 177.905 146.992 175.95C146.807 175.527 146.576 175.39 146.131 175.398C145.674 175.406 145.355 175.449 145.139 175.952C144.273 177.97 143.353 179.964 142.457 181.969C142.392 182.115 142.357 182.274 142.306 182.437C143.577 182.608 143.604 182.618 144.01 181.546C144.204 181.037 144.454 180.784 145.032 180.85C145.516 180.906 146.023 180.926 146.501 180.847C147.486 180.685 148.083 181.029 148.301 182.011C148.39 182.415 148.65 182.552 149.052 182.505C149.3 182.477 149.555 182.5 149.879 182.5L149.878 182.501ZM103.161 176.81C103.17 176.522 103.924 176.116 103.212 175.762C101.996 175.157 100.706 175.078 99.4441 175.682C98.6528 176.062 98.277 176.717 98.3335 177.6C98.3871 178.433 98.8864 178.92 99.6314 179.17C100.297 179.393 100.982 179.562 101.654 179.767C102.093 179.902 102.552 180.071 102.498 180.646C102.445 181.195 101.979 181.329 101.528 181.423C101.342 181.461 101.135 181.494 100.955 181.454C100.178 181.283 99.4064 181.084 98.5683 180.878C98.5105 181.001 98.367 181.222 98.311 181.462C98.2782 181.602 98.3347 181.838 98.4387 181.922C99.4982 182.78 101.873 182.846 103.007 182.068C103.623 181.644 103.897 181.047 103.849 180.307C103.801 179.56 103.359 179.087 102.706 178.819C102.254 178.634 101.77 178.53 101.303 178.384C100.897 178.257 100.47 178.167 100.097 177.976C99.5584 177.7 99.5304 177.063 100.037 176.736C100.275 176.582 100.598 176.455 100.87 176.478C101.621 176.54 102.366 176.688 103.161 176.809V176.81ZM140.642 180.594C139.244 181.632 137.828 181.64 136.884 180.661C136.044 179.79 136.013 178.258 136.817 177.318C137.715 176.269 139.102 176.245 140.654 177.28C140.918 177.034 141.188 176.78 141.455 176.531C140.129 174.938 137.408 174.893 135.904 176.38C134.422 177.846 134.531 180.36 136.135 181.735C137.659 183.04 140.37 182.859 141.437 181.35C141.182 181.107 140.923 180.86 140.643 180.594H140.642ZM177.196 175.498C178.047 176.916 178.878 178.28 179.681 179.66C179.822 179.902 179.896 180.211 179.91 180.494C179.943 181.146 179.921 181.801 179.921 182.456H181.215C181.235 182.31 181.277 182.201 181.261 182.103C180.979 180.434 181.685 179.081 182.612 177.789C182.873 177.425 183.084 177.026 183.312 176.64C183.536 176.262 183.753 175.881 183.989 175.475C183.169 175.371 182.568 175.634 182.186 176.264C181.684 177.089 181.18 177.911 180.638 178.798C180.107 177.915 179.564 177.161 179.179 176.335C178.767 175.453 178.159 175.232 177.196 175.497L177.196 175.498ZM98.2301 143.756V148.61C99.1199 148.61 99.9531 148.664 100.777 148.597C102.163 148.485 103.066 147.526 103.088 146.245C103.111 144.936 102.296 143.91 100.99 143.774C100.089 143.68 99.1692 143.756 98.2301 143.756ZM108.468 176.539H110.751V175.452H104.845C104.653 176.554 104.669 176.574 105.658 176.574C106.123 176.574 106.587 176.574 107.14 176.574V182.46H108.468V176.539ZM83.6161 146.598C83.6989 145.98 83.4688 145.67 82.9258 145.668C82.4411 145.666 81.9564 145.668 81.4547 145.668V144.639H83.9427V143.771H80.3028V148.626C81.4474 148.626 82.5354 148.627 83.6234 148.624C83.7463 148.624 83.8691 148.601 84.0303 148.584V147.668H81.4559V146.599H83.6167L83.6161 146.598ZM152.925 146.083C152.983 146.109 153.041 146.136 153.1 146.162C153.108 148.083 154.559 149.234 156.069 148.516C157.207 147.975 157.689 146.207 157.066 144.861C156.448 143.527 154.687 143.146 153.786 144.232C153.365 144.738 153.204 145.459 152.926 146.083H152.925ZM193.361 180.91C194.535 180.91 195.71 180.91 196.884 180.91C197.588 180.909 198.296 180.936 198.996 180.882C199.182 180.868 199.349 180.599 199.524 180.446C199.354 180.286 199.199 180.104 199.008 179.977C198.918 179.916 198.758 179.959 198.63 179.959C195.128 179.959 191.627 179.957 188.125 179.961C187.937 179.961 187.717 179.955 187.57 180.045C187.434 180.129 187.308 180.337 187.304 180.494C187.301 180.614 187.474 180.791 187.608 180.849C187.775 180.92 187.983 180.907 188.173 180.908C189.903 180.911 191.632 180.91 193.361 180.91H193.361ZM57.0891 180.908V180.905C58.84 180.905 60.5916 180.905 62.3425 180.905C62.4915 180.905 62.6728 180.953 62.7835 180.886C62.9604 180.78 63.2086 180.596 63.2086 180.445C63.2086 180.286 62.9696 180.104 62.7993 179.98C62.7141 179.918 62.5511 179.959 62.4234 179.959C58.8996 179.959 55.3758 179.958 51.852 179.962C51.6635 179.962 51.4433 179.957 51.2955 180.047C51.1599 180.13 51.0364 180.34 51.0328 180.496C51.0297 180.615 51.2006 180.791 51.3344 180.848C51.5017 180.918 51.7097 180.905 51.9001 180.906C53.6297 180.91 55.36 180.908 57.0897 180.908H57.0891ZM86.4083 147.433C85.9753 148.184 85.9874 148.304 86.9021 148.511C87.5115 148.649 88.1696 148.672 88.7942 148.617C89.5623 148.549 90.0902 147.956 90.1352 147.292C90.1845 146.573 89.8622 146.148 89.0253 145.873C88.6823 145.76 88.307 145.73 87.9798 145.587C87.7384 145.481 87.5517 145.251 87.3406 145.075C87.5863 144.913 87.8296 144.621 88.079 144.616C88.5722 144.605 89.0685 144.753 89.6207 144.844C89.7089 144.62 89.8135 144.355 89.9266 144.07C88.9882 143.566 88.0771 143.487 87.1497 143.811C86.5287 144.028 86.1814 144.507 86.1675 145.173C86.1535 145.844 86.5616 146.23 87.1533 146.434C87.5754 146.578 88.0255 146.647 88.4378 146.811C88.6422 146.893 88.7912 147.114 88.9651 147.272C88.7614 147.424 88.5515 147.71 88.3545 147.702C87.7311 147.675 87.1126 147.539 86.4083 147.433V147.433ZM166.949 144.636C166.593 145.049 166.317 145.291 166.146 145.594C166.022 145.812 165.99 146.115 166.019 146.368C166.028 146.449 166.363 146.523 166.556 146.547C166.947 146.595 167.391 146.601 167.359 147.143C167.329 147.645 166.886 147.74 166.504 147.705C166.03 147.661 165.566 147.502 165.058 147.384C164.937 147.62 164.804 147.877 164.651 148.174C165.578 148.718 166.505 148.841 167.467 148.56C168.115 148.371 168.507 147.906 168.58 147.219C168.646 146.601 168.316 146.121 167.631 145.782C167.547 145.741 167.47 145.684 167.398 145.64C167.725 145.002 168.611 144.681 168.305 143.782H164.945V144.637H166.95L166.949 144.636ZM149.14 147.658C149.702 147.092 150.163 146.68 150.561 146.215C151.2 145.468 151.106 144.436 150.397 143.956C149.438 143.308 147.957 143.588 147.276 144.551C147.633 144.925 147.947 145.148 148.518 144.785C148.781 144.617 149.426 144.689 149.654 144.907C150.022 145.258 149.698 145.693 149.377 146.004C148.87 146.493 148.367 146.988 147.833 147.447C147.462 147.765 147.335 148.108 147.511 148.57H151.118V147.658H149.14H149.14ZM160.973 147.654C161.549 147.079 162.011 146.67 162.413 146.207C162.974 145.564 162.981 144.695 162.485 144.161C161.667 143.281 159.747 143.508 159.131 144.576C159.483 144.878 159.772 145.207 160.319 144.79C160.673 144.52 161.216 144.464 161.53 144.897C161.843 145.328 161.53 145.708 161.217 146.016C160.698 146.525 160.184 147.039 159.631 147.508C159.267 147.816 159.18 148.141 159.341 148.576H162.958V147.654H160.973V147.654ZM94.9186 175.444V182.468H96.1897V175.444H94.9186ZM94.519 148.625V144.655H96.0133V143.77H91.8327V144.696H93.3756V148.593C93.5745 148.607 93.7016 148.621 93.8287 148.624C94.0191 148.628 94.2094 148.625 94.5196 148.625H94.519Z" fill="#8B1C2E"/>
<path d="M166.554 62.0273C167.35 66.7791 167.811 71.445 166.813 76.128C165.629 81.6838 162.376 85.7379 157.585 88.6444C153.336 91.2225 148.666 92.7046 143.875 93.8517C142.257 94.2391 140.617 94.5359 138.994 94.9057C138.679 94.9774 138.352 95.1398 138.106 95.3502C131.93 100.66 126.983 106.991 122.958 114.029C120.725 117.932 119.042 122.096 118.474 126.619C117.948 130.799 118.962 134.627 121.173 138.171C121.275 138.334 121.386 138.493 121.472 138.664C121.828 139.365 121.642 140.102 121.012 140.521C120.414 140.918 119.53 140.811 119.146 140.148C118.323 138.73 117.493 137.3 116.847 135.797C115.727 133.188 115.337 130.427 115.504 127.586C115.811 122.366 114.684 117.404 112.793 112.577C112.601 112.085 112.253 112.111 111.879 112.079C109.022 111.843 106.195 111.43 103.427 110.663C99.6329 109.613 96.2204 107.892 93.4629 105.017C91.3519 102.817 89.6982 100.281 88.5518 97.4862C86.5357 92.5715 84.6978 87.5844 82.7869 82.6265C82.7571 82.5498 82.7504 82.4641 82.7151 82.3005C84.0075 82.1448 85.2701 81.9593 86.5393 81.8456C90.1635 81.5202 93.756 81.6588 97.2628 82.7359C101.89 84.1573 105.408 87.0492 108.09 91.0151C110.645 94.7919 112.267 98.9884 113.462 103.351C114.16 105.9 114.66 108.503 115.305 111.069C115.558 112.079 115.989 113.043 116.294 114.041C116.761 115.569 117.189 117.108 117.651 118.707C118.03 117.832 118.369 116.987 118.756 116.165C120.639 112.168 122.563 108.19 124.419 104.18C125.613 101.597 126.572 98.927 126.995 96.0928C127.026 95.8842 127.05 95.675 127.078 95.4646C127 95.4542 126.951 95.4317 126.924 95.4469C123.812 97.1894 120.838 96.6603 118.076 94.722C115.337 92.8001 113.747 90.1466 113.739 86.7128C113.735 84.6024 114.593 82.8655 116.213 81.5603C115.574 80.8044 114.889 80.1074 114.337 79.3186C113.15 77.6223 112.648 75.7139 113.015 73.6619C113.609 70.3424 116.762 68.3822 120.162 69.1467C122.487 69.6698 124.259 70.9962 125.638 72.8968C125.813 73.1382 125.974 73.39 126.144 73.6357C126.153 73.6497 126.182 73.6497 126.24 73.6679C127.018 72.6535 127.958 71.8051 129.159 71.2839C131.542 70.2488 134.27 71.0497 135.932 73.2702C138.539 76.752 137.885 82.5352 134.572 85.356C133.214 86.5115 131.671 87.0406 129.886 86.8022C129.743 86.7834 129.599 86.7718 129.366 86.7469C130.454 91.4779 130.25 96.1105 128.86 100.722C129.52 99.9834 130.144 99.2073 130.849 98.5134C132.765 96.6256 134.703 94.7585 136.666 92.9181C137.027 92.5794 137.188 92.2582 137.219 91.7753C137.456 88.1196 137.979 84.513 139.159 81.0257C140.899 75.8854 144.252 72.1177 148.925 69.4411C152.478 67.4055 156.273 65.9215 160.079 64.4576C161.952 63.7369 163.831 63.0327 165.708 62.3229C165.964 62.2256 166.226 62.1417 166.554 62.028V62.0273ZM140.236 90.1351C148.875 83.5229 156.624 76.0855 162.403 66.6641C162.225 66.6799 162.136 66.6672 162.065 66.697C159.187 67.886 156.28 69.0105 153.444 70.2907C150.768 71.4986 148.289 73.0549 146.191 75.1501C142.06 79.2754 140.794 84.552 140.235 90.1351H140.236ZM87.5769 87.3247C87.5769 87.5576 87.5653 87.6026 87.5787 87.6391C88.8407 91.1106 90.1313 94.5699 91.8974 97.828C93.8114 101.358 96.3353 104.301 99.9491 106.198C102.648 107.615 105.546 108.382 108.535 108.851C109.379 108.983 110.228 109.079 111.075 109.192C111.101 109.129 111.128 109.066 111.155 109.003C104.599 100.424 96.1182 93.9368 87.5763 87.3247H87.5769ZM164.505 68.5908C159.019 77.3785 151.904 84.4382 144.081 90.8619C148.969 89.6516 153.708 88.1311 157.815 85.1176C160.714 82.9908 162.742 80.2357 163.747 76.7624C164.504 74.1478 164.646 71.4736 164.505 68.5908ZM88.5208 84.5185C91.1986 86.6113 93.7907 88.5641 96.3 90.6186C98.8283 92.6882 101.331 94.7956 103.739 97.0015C106.11 99.1733 108.349 101.49 110.693 103.79C109.28 99.0973 107.573 94.6058 104.427 90.8102C100.312 85.8444 94.8234 84.3239 88.5202 84.5185H88.5208ZM126.958 89.865C126.957 86.7883 124.405 83.844 121.164 83.1799C118.51 82.6362 116.531 84.2491 116.548 86.9433C116.567 90.0907 119.421 93.2186 122.644 93.6242C125.166 93.9411 126.959 92.3793 126.958 89.8657V89.865ZM127.322 78.8405C127.317 80.5805 127.619 81.8273 128.48 82.8855C129.637 84.3069 131.308 84.4534 132.705 83.2742C134.896 81.4253 135.413 77.4216 133.763 75.0747C132.543 73.3395 130.609 73.1583 129.109 74.6526C127.84 75.9158 127.354 77.4922 127.322 78.8405ZM124.424 77.4648C124.393 75.0935 122.068 72.3853 119.657 71.914C117.046 71.4037 115.351 73.0038 115.79 75.6111C116.174 77.8918 118.144 80.4066 121.473 80.35C123.215 80.3202 124.444 79.1087 124.423 77.4648H124.424Z" fill="white"/>
<path d="M126.362 203.417C127.893 202.072 129.369 200.774 130.847 199.479C131.653 198.773 132.29 198.805 132.995 199.597C136.18 203.172 139.367 206.743 142.536 210.332C142.933 210.781 143.334 210.986 143.955 210.975C146.199 210.933 148.444 210.957 150.69 210.959C151.618 210.96 152.155 211.402 152.178 212.175C152.2 212.903 151.605 213.411 150.702 213.412C145.25 213.415 139.798 213.413 134.346 213.413C134.073 213.413 133.799 213.413 133.564 213.413C133.564 214.12 133.668 214.775 133.544 215.384C133.208 217.051 131.758 218.154 130.014 218.156C126.401 218.162 122.787 218.157 119.174 218.158C118.939 218.158 118.7 218.147 118.469 218.182C117.929 218.266 117.508 218.756 117.487 219.295C117.465 219.835 117.843 220.348 118.385 220.469C118.612 220.519 118.852 220.518 119.086 220.518C121.438 220.52 123.79 220.509 126.142 220.519C128.29 220.527 129.891 222.053 129.892 224.069C129.894 226.112 128.269 227.638 126.089 227.639C124.506 227.641 122.924 227.643 121.342 227.638C120.385 227.635 119.865 227.197 119.872 226.418C119.88 225.682 120.405 225.249 121.328 225.246C122.974 225.239 124.621 225.243 126.267 225.244C126.842 225.244 127.26 224.999 127.445 224.446C127.619 223.923 127.478 223.436 127.03 223.143C126.768 222.97 126.39 222.912 126.064 222.91C123.627 222.891 121.19 222.907 118.752 222.897C117.109 222.891 115.725 221.874 115.27 220.368C114.815 218.865 115.379 217.312 116.72 216.377C117.399 215.904 118.166 215.788 118.974 215.79C122.48 215.796 125.986 215.793 129.493 215.792C130.677 215.792 131.272 215.399 131.282 214.616C131.292 213.808 130.721 213.416 129.524 213.416C119.667 213.416 109.81 213.416 99.9539 213.416C99.6546 213.416 99.3536 213.431 99.0562 213.408C98.341 213.353 97.8289 212.804 97.8629 212.151C97.8988 211.458 98.3884 210.968 99.1176 210.964C101.491 210.952 103.864 210.945 106.238 210.97C106.731 210.975 107.067 210.823 107.391 210.458C111.207 206.158 115.037 201.871 118.86 197.578C119.635 196.708 120.344 196.691 121.114 197.553C122.694 199.322 124.27 201.096 125.848 202.867C126.004 203.041 126.167 203.209 126.361 203.418L126.362 203.417ZM119.992 199.998C116.735 203.655 113.535 207.246 110.279 210.902H129.712C126.442 207.233 123.25 203.652 119.992 199.998ZM139.813 210.958C137.06 207.868 134.427 204.912 131.772 201.932C130.485 203.069 129.26 204.151 127.993 205.27C129.664 207.142 131.28 208.96 132.909 210.767C133.007 210.875 133.203 210.949 133.354 210.95C135.444 210.961 137.535 210.958 139.813 210.958H139.813Z" fill="white"/>
<path d="M158.511 101.43C158.467 102.118 158.434 102.75 158.386 103.381C158.116 106.912 157.512 110.368 156.129 113.658C153.96 118.817 150.19 122.337 145.09 124.502C141.498 126.026 137.721 126.864 133.856 127.164C130.259 127.443 126.643 127.468 123.036 127.602C122.891 127.608 122.744 127.576 122.509 127.553C122.915 126.124 123.288 124.726 123.711 123.343C124.566 120.541 125.629 117.826 127.018 115.235C129.918 109.827 134.393 106.444 140.229 104.728C143.949 103.635 147.761 103.019 151.582 102.44C153.859 102.094 156.14 101.775 158.511 101.43ZM126.509 124.074C137.192 120.089 145.955 113.404 153.74 105.021C153.454 105.021 153.367 105.008 153.286 105.023C149.764 105.678 146.219 106.238 142.726 107.024C139.556 107.738 136.605 109.042 134.071 111.148C130.002 114.53 128.022 119.148 126.509 124.074ZM154.952 107.828C148.573 114.608 141.434 120.112 133.323 124.351C133.583 124.387 133.817 124.391 134.048 124.362C137.339 123.948 140.58 123.328 143.668 122.068C148.016 120.294 151.346 117.426 153.308 113.092C154.047 111.46 154.586 109.765 154.952 107.828V107.828Z" fill="white"/>
<path d="M125.406 68.8117C123.3 66.3218 121.505 63.6847 120.191 60.7393C118.432 56.8001 117.695 52.6815 118.095 48.3768C118.451 44.5446 119.641 40.9558 121.336 37.5226C122.76 34.6422 124.52 31.9705 126.42 29.3869C126.469 29.3206 126.531 29.2641 126.586 29.2051C139.555 38.5747 140.857 57.9867 125.406 68.8117ZM125.128 63.6829C127.022 54.3187 126.458 44.8998 125.772 35.4614C125.181 36.333 124.662 37.2124 124.194 38.118C121.816 42.7158 120.38 47.5296 120.915 52.78C121.324 56.7782 122.811 60.3689 125.127 63.6835L125.128 63.6829ZM128.24 62.6508C131.767 58.6362 133.734 54.1624 133.848 48.954C133.966 43.6287 132.15 38.9956 128.743 34.9542C128.902 39.5819 129.128 44.1645 129.198 48.7502C129.268 53.3432 129.043 57.9295 128.24 62.6514V62.6508Z" fill="white"/>
<path d="M84.2278 53.7656C85.9897 54.2351 87.5983 54.6414 89.1936 55.0945C92.988 56.1722 96.6329 57.599 99.9742 59.7374C105.194 63.0775 108.152 67.918 109.357 73.9019C109.728 75.7411 109.959 77.6082 110.248 79.4637C110.28 79.6717 110.273 79.8858 110.288 80.1705C109.76 80.2246 109.262 80.2842 108.761 80.3268C105.219 80.6272 101.712 80.5202 98.3218 79.3117C93.7702 77.6897 90.7475 74.4201 88.6383 70.1987C86.7797 66.4784 85.7561 62.4949 85.0026 58.4328C84.7271 56.9464 84.5057 55.4497 84.2278 53.7668V53.7656ZM106.807 75.4285C106.718 74.9973 106.637 74.5648 106.54 74.1355C105.593 69.9122 103.739 66.2188 100.308 63.4412C97.716 61.3436 94.7548 59.9417 91.6433 58.8239C90.7846 58.5155 89.9143 58.2412 89.0488 57.9511C89.0215 58.0047 88.9941 58.0576 88.9673 58.1111C93.9885 64.8132 100.304 70.1938 106.806 75.4285H106.807ZM104.858 77.6289C99.1197 72.8881 93.6832 68.0871 88.8275 62.4614C88.8706 62.7199 88.8798 62.8239 88.9059 62.923C89.5427 65.3028 90.3923 67.6012 91.5698 69.7699C94.3881 74.9626 98.8217 77.4659 104.858 77.6289Z" fill="white"/>
<path d="M158.658 49.2514C158.649 50 158.132 50.4689 157.268 50.5127C154.707 50.6417 152.668 52.254 152.046 54.6715C151.929 55.1221 151.893 55.5953 151.85 56.0612C151.779 56.8172 151.291 57.3165 150.587 57.3195C149.835 57.3232 149.279 56.833 149.28 56.0411C149.283 53.1802 146.966 50.5772 143.774 50.5067C142.976 50.489 142.464 49.9629 142.461 49.2343C142.459 48.4863 142.993 47.9602 143.822 47.9267C145.91 47.8434 147.532 46.9263 148.527 45.1005C148.923 44.3756 149.118 43.504 149.238 42.6751C149.384 41.6698 149.766 41.1127 150.569 41.1212C151.355 41.1297 151.8 41.6521 151.855 42.6307C152.019 45.5554 154.259 47.7759 157.19 47.9194C158.143 47.9663 158.666 48.4407 158.657 49.2508L158.658 49.2514Z" fill="white"/>
<path d="M57.1373 168.526C58.0855 166.923 58.974 165.421 59.8626 163.919C60.0146 163.662 60.1691 163.405 60.3187 163.146C61.1416 161.725 61.4536 161.59 63.1607 161.94V172.658H60.8168V166.617C60.7596 166.606 60.7031 166.594 60.6459 166.583C59.758 168.054 58.8554 169.517 57.9912 171.002C57.7595 171.401 57.5132 171.581 57.0382 171.556C56.6526 171.536 56.4288 171.42 56.2287 171.082C55.3517 169.602 54.4431 168.14 53.3921 166.7C53.3921 167.156 53.3921 167.61 53.3921 168.066C53.3915 169.412 53.3775 170.759 53.397 172.106C53.4031 172.531 53.3009 172.738 52.829 172.71C52.2573 172.676 51.6819 172.702 51.0579 172.702C51.036 172.466 51.0044 172.283 51.0038 172.101C51.0014 168.894 51.0147 165.688 50.9922 162.482C50.9886 161.963 51.1668 161.889 51.6448 161.825C52.7481 161.68 53.3575 162.096 53.8823 163.08C54.8548 164.904 55.9958 166.638 57.1367 168.526L57.1373 168.526Z" fill="white"/>
<path d="M96.5256 166.278C96.5256 167.088 96.5256 167.74 96.5256 168.391C96.5256 169.609 96.497 170.829 96.5366 172.046C96.5548 172.598 96.3602 172.751 95.842 172.717C95.2515 172.678 94.6561 172.707 94.0242 172.707V161.865C94.6761 161.865 95.3111 161.839 95.9399 161.884C96.1078 161.896 96.286 162.106 96.4149 162.262C97.9658 164.14 99.5075 166.026 101.053 167.908C101.13 168.002 101.218 168.089 101.407 168.296V161.895H103.886V172.71C103.255 172.71 102.659 172.748 102.072 172.69C101.862 172.669 101.637 172.446 101.484 172.262C99.9971 170.469 98.5247 168.664 97.0462 166.864C96.9173 166.707 96.7762 166.559 96.5256 166.279V166.278Z" fill="white"/>
<path d="M143.865 161.891H146.34V172.699C145.708 172.699 145.076 172.731 144.45 172.678C144.264 172.663 144.07 172.433 143.928 172.261C142.446 170.467 140.974 168.664 139.499 166.864C139.365 166.7 139.227 166.54 138.979 166.246V172.656H136.479C136.463 172.5 136.438 172.376 136.438 172.252C136.436 168.962 136.443 165.672 136.428 162.382C136.427 161.949 136.598 161.887 136.989 161.836C138.092 161.692 138.823 162.075 139.5 162.993C140.779 164.725 142.213 166.344 143.584 168.009C143.634 168.07 143.701 168.116 143.865 168.267V161.892L143.865 161.891Z" fill="white"/>
<path d="M72.0079 161.692C76.3911 161.693 79.1218 165.616 77.4742 169.545C76.3905 172.13 73.2699 173.471 70.249 172.649C67.837 171.993 66.173 169.98 66.1049 167.637C66.0033 164.129 68.4239 161.691 72.0073 161.691L72.0079 161.692ZM68.6799 167.223C68.6586 169.246 70.0198 170.688 71.9659 170.704C73.8817 170.72 75.3438 169.281 75.3559 167.368C75.3687 165.313 73.9997 163.875 72.0146 163.858C70.0836 163.842 68.7006 165.238 68.6799 167.223Z" fill="white"/>
<path d="M187.255 172.703C188.116 170.762 188.91 168.97 189.706 167.179C190.416 165.582 191.143 163.991 191.831 162.383C191.998 161.994 192.212 161.897 192.626 161.83C194.093 161.593 194.827 162.153 195.38 163.564C196.506 166.44 197.873 169.222 199.139 172.044C199.216 172.216 199.273 172.396 199.385 172.694C198.517 172.694 197.718 172.702 196.919 172.683C196.826 172.681 196.721 172.548 196.649 172.454C196.586 172.373 196.563 172.26 196.519 172.163C196.257 171.586 196.139 170.786 195.69 170.494C195.235 170.198 194.453 170.396 193.814 170.39C193.024 170.382 192.233 170.411 191.445 170.376C191.001 170.357 190.725 170.459 190.596 170.923C190.495 171.29 190.271 171.625 190.174 171.993C190.013 172.607 189.635 172.765 189.045 172.713C188.501 172.665 187.949 172.702 187.254 172.702L187.255 172.703ZM193.309 164.432C192.727 165.834 192.209 167.08 191.665 168.39H194.955C194.409 167.078 193.889 165.827 193.309 164.432Z" fill="white"/>
<path d="M128.223 172.698C127.338 172.698 126.575 172.71 125.815 172.685C125.689 172.681 125.526 172.53 125.455 172.406C125.31 172.147 125.219 171.858 125.098 171.586C124.455 170.14 124.919 170.423 123.276 170.393C122.252 170.374 121.227 170.404 120.202 170.379C119.806 170.37 119.559 170.469 119.44 170.874C119.35 171.179 119.141 171.453 119.078 171.76C118.905 172.6 118.392 172.818 117.605 172.717C117.149 172.659 116.679 172.707 116.089 172.707C116.356 172.083 116.573 171.563 116.801 171.049C118.083 168.166 119.378 165.289 120.639 162.397C120.825 161.971 121.071 161.904 121.492 161.833C122.956 161.583 123.643 162.186 124.182 163.56C125.293 166.395 126.639 169.138 127.888 171.919C127.983 172.131 128.072 172.346 128.224 172.7L128.223 172.698ZM123.782 168.414C123.22 167.069 122.698 165.819 122.118 164.431C121.535 165.842 121.016 167.101 120.473 168.414H123.782Z" fill="white"/>
<path d="M175.189 172.691C174.317 172.691 173.552 172.712 172.789 172.673C172.641 172.665 172.454 172.448 172.373 172.285C172.158 171.845 171.965 171.39 171.813 170.925C171.68 170.523 171.476 170.361 171.029 170.373C169.747 170.406 168.465 170.398 167.183 170.377C166.788 170.371 166.519 170.464 166.422 170.873C166.412 170.913 166.386 170.95 166.368 170.989C166.112 171.547 165.98 172.437 165.572 172.591C164.868 172.856 163.992 172.664 163.077 172.664C163.226 172.323 163.347 172.043 163.472 171.763C164.846 168.661 166.231 165.564 167.583 162.452C167.786 161.986 168.058 161.904 168.533 161.824C169.966 161.585 170.614 162.201 171.136 163.504C172.255 166.295 173.571 169.007 174.803 171.752C174.925 172.023 175.029 172.301 175.188 172.691H175.189ZM170.757 168.406C170.199 167.068 169.676 165.816 169.1 164.436C168.515 165.843 167.995 167.093 167.45 168.406H170.757Z" fill="white"/>
<path d="M80.7881 161.893H83.2853C83.2853 162.225 83.284 162.517 83.2853 162.81C83.2962 164.69 83.2591 166.571 83.3333 168.449C83.4039 170.25 84.8957 171.18 86.584 170.563C87.4775 170.237 87.9111 169.536 87.9452 168.649C88.0151 166.815 88.0054 164.977 88.0267 163.141C88.0315 162.74 88.0273 162.34 88.0273 161.897H90.519C90.519 162.349 90.5232 162.77 90.5184 163.19C90.4947 165.112 90.606 167.048 90.4077 168.951C90.1596 171.326 88.6829 172.643 86.2982 172.851C84.4554 173.011 82.6923 172.715 81.5927 171.033C81.1463 170.349 80.8349 169.464 80.7917 168.653C80.6768 166.5 80.7406 164.339 80.7358 162.181C80.7358 162.1 80.765 162.018 80.7893 161.893L80.7881 161.893Z" fill="white"/>
<path d="M175.346 161.859C176.222 161.859 177.028 161.829 177.827 161.883C177.992 161.894 178.19 162.195 178.28 162.402C179.179 164.476 180.059 166.558 180.944 168.637C181.049 168.884 181.159 169.129 181.327 169.513C182.009 167.939 182.634 166.5 183.257 165.061C183.654 164.14 184.057 163.223 184.441 162.296C184.57 161.985 184.734 161.827 185.102 161.845C185.754 161.878 186.409 161.854 187.168 161.854C186.557 163.276 185.99 164.603 185.417 165.927C184.511 168.021 183.593 170.11 182.702 172.21C182.546 172.579 182.355 172.742 181.946 172.712C181.31 172.667 180.529 172.888 180.074 172.591C179.621 172.296 179.479 171.508 179.225 170.925C177.998 168.11 176.779 165.292 175.561 162.473C175.487 162.303 175.438 162.122 175.347 161.859L175.346 161.859Z" fill="white"/>
<path d="M154.988 163.933V161.889H161.233C161.244 162.122 161.262 162.348 161.263 162.574C161.268 164.647 161.272 166.721 161.27 168.795C161.27 169.114 161.245 169.436 161.214 169.754C161.055 171.395 160.087 172.47 158.467 172.774C156.996 173.05 155.614 172.855 154.411 171.892C154.201 171.724 154.032 171.502 153.816 171.275C154.283 170.715 154.717 170.194 155.162 169.661C155.553 169.967 155.885 170.305 156.283 170.524C157.407 171.143 158.591 170.677 158.658 169.498C158.761 167.671 158.685 165.835 158.685 163.933H154.988H154.988Z" fill="white"/>
<path d="M112.25 163.934V172.66H109.721C109.721 172.383 109.721 172.133 109.721 171.883C109.723 169.449 109.711 167.015 109.734 164.581C109.739 164.081 109.597 163.907 109.085 163.928C108.174 163.966 107.261 163.939 106.311 163.939V161.91H115.653V163.934H112.25H112.25Z" fill="white"/>
<path d="M175.619 175.482V182.459H174.375V178.15C174.324 178.139 174.273 178.127 174.222 178.116C173.612 179.129 173.005 180.144 172.393 181.156C171.915 181.946 171.617 181.946 171.136 181.16C170.526 180.162 169.917 179.162 169.203 177.991V182.448H167.92V175.48C168.629 175.279 169.082 175.423 169.45 176.108C170.153 177.419 170.967 178.671 171.79 180.039C172.59 178.679 173.392 177.423 174.079 176.106C174.443 175.407 174.903 175.283 175.619 175.482Z" fill="white"/>
<path d="M70.2716 182.501V175.501C71.7434 175.501 73.2024 175.354 74.6183 175.538C76.4027 175.771 76.6794 177.691 75.5524 178.702C75.8784 179.159 76.3255 179.562 76.486 180.057C76.8321 181.126 76.1941 182.13 75.0434 182.343C74.2546 182.49 73.4329 182.471 72.6253 182.496C71.862 182.519 71.0969 182.501 70.271 182.501L70.2716 182.501ZM71.6595 181.38C72.562 181.38 73.3904 181.407 74.2157 181.371C74.7563 181.347 75.1517 181.065 75.1985 180.472C75.2392 179.956 74.8932 179.545 74.2303 179.492C73.3904 179.426 72.5407 179.477 71.6595 179.477V181.38ZM71.6662 178.361C72.4075 178.361 73.0863 178.398 73.7589 178.35C74.4741 178.3 74.8603 177.932 74.8336 177.413C74.8001 176.763 74.3245 176.546 73.793 176.506C73.1015 176.455 72.4033 176.494 71.6662 176.494V178.36V178.361Z" fill="white"/>
<path d="M130.405 161.893H132.843V172.655H130.405V161.893Z" fill="white"/>
<path d="M151.501 175.457C152.815 175.457 154.103 175.345 155.363 175.483C157.287 175.693 158.468 177.161 158.419 179.036C158.37 180.921 157.087 182.312 155.131 182.461C153.946 182.551 152.748 182.478 151.501 182.478V175.457ZM152.86 176.592V181.322C153.568 181.322 154.23 181.36 154.886 181.314C156.199 181.219 157.07 180.243 157.064 178.933C157.058 177.641 156.212 176.697 154.914 176.601C154.24 176.551 153.559 176.592 152.861 176.592L152.86 176.592Z" fill="white"/>
<path d="M91.3324 180.203C91.8566 180.967 92.3371 181.667 92.8236 182.375C91.8724 182.674 91.4947 182.56 90.9802 181.838C90.9431 181.785 90.8999 181.735 90.875 181.678C90.3727 180.515 89.4908 180.174 88.2118 180.554V182.456H86.875V175.33C88.289 175.42 89.717 175.402 91.1013 175.637C92.0987 175.807 92.6837 176.619 92.7695 177.665C92.8504 178.648 92.5414 179.474 91.6377 179.996C91.5495 180.047 91.468 180.111 91.333 180.203H91.3324ZM88.2325 176.604V179.303C88.7123 179.303 89.1551 179.306 89.5984 179.301C89.8119 179.299 90.0284 179.303 90.237 179.267C90.9863 179.137 91.3993 178.67 91.4078 177.97C91.4169 177.229 91.0015 176.696 90.2334 176.618C89.5845 176.551 88.9228 176.604 88.2325 176.604V176.604Z" fill="white"/>
<path d="M165.169 178.313V179.44H161.864V181.337H165.753V182.446H160.495V175.455C162.19 175.455 163.867 175.455 165.545 175.455C165.835 176.442 165.751 176.557 164.737 176.558C163.799 176.56 162.862 176.558 161.874 176.558V178.312H165.169V178.313Z" fill="white"/>
<path d="M111.08 182.5C111.924 180.619 112.708 178.872 113.491 177.125C113.648 176.775 113.845 176.437 113.957 176.073C114.122 175.535 114.436 175.365 114.993 175.391C115.43 175.412 115.664 175.514 115.85 175.941C116.745 177.993 117.682 180.026 118.602 182.067C118.653 182.179 118.684 182.298 118.752 182.497C118.333 182.497 117.969 182.546 117.629 182.477C117.456 182.442 117.235 182.217 117.192 182.041C116.95 181.031 116.337 180.664 115.338 180.856C115.152 180.891 114.951 180.886 114.763 180.856C113.672 180.679 112.851 180.912 112.609 182.16C112.582 182.297 112.329 182.456 112.16 182.485C111.851 182.537 111.527 182.5 111.08 182.5ZM114.923 176.81C114.476 177.855 114.081 178.779 113.659 179.765H116.194C115.772 178.785 115.375 177.861 114.924 176.81H114.923Z" fill="white"/>
<path d="M126.291 182.434C126.371 182.23 126.438 182.035 126.522 181.848C127.413 179.863 128.321 177.885 129.187 175.889C129.369 175.47 129.614 175.371 130.021 175.402C130.416 175.432 130.76 175.365 130.983 175.888C131.826 177.869 132.744 179.82 133.631 181.782C133.725 181.989 133.805 182.202 133.926 182.495C133.475 182.495 133.104 182.553 132.768 182.472C132.582 182.427 132.363 182.171 132.312 181.971C132.079 181.057 131.555 180.701 130.607 180.845C130.043 180.93 129.455 180.883 128.88 180.853C128.48 180.832 128.222 180.948 128.12 181.347C128.104 181.409 128.075 181.467 128.05 181.526C127.741 182.256 127.155 182.558 126.291 182.435V182.434ZM131.346 179.761C130.921 178.773 130.522 177.846 130.076 176.809C129.633 177.85 129.237 178.78 128.82 179.761H131.345H131.346Z" fill="white"/>
<path d="M85.2369 182.417C83.9676 182.656 83.9092 182.646 83.4665 181.513C83.2767 181.027 83.0365 180.807 82.4849 180.848C81.721 180.903 80.9486 180.881 80.1817 180.852C79.8295 180.84 79.61 180.935 79.5133 181.279C79.4902 181.361 79.4482 181.437 79.4148 181.515C79.1009 182.244 78.5161 182.552 77.6602 182.439C77.7356 182.234 77.7952 182.036 77.8785 181.849C78.7585 179.885 79.6532 177.928 80.5156 175.957C80.6956 175.546 80.9164 175.377 81.3737 175.398C81.8183 175.418 82.1443 175.427 82.3657 175.942C83.2579 178.016 84.2109 180.065 85.1402 182.124C85.1815 182.215 85.2047 182.316 85.2375 182.417L85.2369 182.417ZM82.702 179.768C82.2836 178.789 81.887 177.862 81.4333 176.801C80.9863 177.852 80.5928 178.778 80.172 179.768H82.702Z" fill="white"/>
<path d="M149.878 182.499C149.554 182.499 149.299 182.476 149.05 182.505C148.649 182.551 148.388 182.415 148.299 182.01C148.081 181.029 147.484 180.684 146.499 180.846C146.021 180.925 145.514 180.905 145.03 180.849C144.452 180.782 144.202 181.036 144.009 181.546C143.602 182.617 143.576 182.607 142.304 182.437C142.356 182.274 142.391 182.114 142.456 181.968C143.352 179.964 144.272 177.969 145.138 175.951C145.354 175.448 145.674 175.405 146.13 175.397C146.575 175.389 146.807 175.526 146.991 175.95C147.843 177.904 148.736 179.84 149.611 181.784C149.705 181.992 149.771 182.212 149.877 182.5L149.878 182.499ZM147.332 179.769C146.911 178.796 146.515 177.881 146.051 176.807C145.59 177.893 145.205 178.803 144.796 179.769H147.333H147.332Z" fill="white"/>
<path d="M103.163 176.808C102.368 176.687 101.624 176.54 100.872 176.477C100.601 176.454 100.277 176.581 100.04 176.735C99.5329 177.063 99.5609 177.699 100.099 177.975C100.473 178.166 100.9 178.256 101.305 178.383C101.773 178.529 102.257 178.633 102.708 178.818C103.361 179.087 103.804 179.559 103.852 180.306C103.899 181.046 103.627 181.643 103.009 182.067C101.876 182.845 99.5007 182.779 98.4412 181.921C98.3372 181.837 98.2807 181.601 98.3135 181.462C98.3695 181.221 98.5136 181.001 98.5708 180.877C99.4089 181.082 100.181 181.282 100.958 181.454C101.139 181.493 101.344 181.461 101.53 181.422C101.981 181.328 102.447 181.194 102.5 180.645C102.555 180.071 102.096 179.902 101.657 179.767C100.985 179.56 100.3 179.392 99.6339 179.169C98.8889 178.919 98.3895 178.432 98.336 177.6C98.2795 176.716 98.6553 176.06 99.4466 175.681C100.708 175.077 101.998 175.156 103.214 175.761C103.926 176.116 103.173 176.521 103.163 176.809V176.808Z" fill="white"/>
<path d="M140.644 180.594C140.924 180.86 141.183 181.107 141.438 181.349C140.371 182.859 137.66 183.04 136.137 181.734C134.532 180.36 134.424 177.845 135.906 176.38C137.41 174.892 140.131 174.937 141.457 176.53C141.19 176.78 140.919 177.033 140.656 177.28C139.104 176.244 137.716 176.269 136.819 177.318C136.015 178.257 136.045 179.79 136.885 180.66C137.829 181.64 139.246 181.632 140.644 180.594H140.644Z" fill="white"/>
<path d="M177.201 175.496C178.164 175.23 178.772 175.452 179.183 176.334C179.568 177.16 180.111 177.914 180.643 178.797C181.184 177.91 181.689 177.087 182.19 176.263C182.573 175.633 183.174 175.37 183.993 175.474C183.758 175.879 183.54 176.261 183.317 176.638C183.088 177.024 182.878 177.424 182.617 177.788C181.689 179.079 180.983 180.433 181.265 182.102C181.282 182.2 181.24 182.308 181.219 182.455H179.925C179.925 181.8 179.947 181.145 179.915 180.492C179.9 180.209 179.826 179.901 179.685 179.658C178.882 178.279 178.051 176.915 177.2 175.497L177.201 175.496Z" fill="white"/>
<path d="M98.2302 143.756C99.1699 143.756 100.089 143.68 100.99 143.774C102.297 143.91 103.111 144.936 103.088 146.245C103.066 147.526 102.163 148.485 100.777 148.597C99.9532 148.664 99.12 148.609 98.2302 148.609V143.756ZM99.356 147.627C100.266 147.631 101.148 147.836 101.69 146.958C102.032 146.403 102.023 145.79 101.629 145.271C101.053 144.512 100.217 144.656 99.3876 144.704C99.3754 144.917 99.3578 145.083 99.3572 145.25C99.3541 146.014 99.356 146.778 99.356 147.627Z" fill="white"/>
<path d="M108.471 176.536V182.457H107.143V176.571C106.59 176.571 106.125 176.571 105.661 176.571C104.672 176.571 104.656 176.551 104.848 175.449H110.754V176.536H108.471Z" fill="white"/>
<path d="M83.6211 146.598H81.4602V147.666H84.0347V148.583C83.8735 148.599 83.7507 148.622 83.6278 148.623C82.5398 148.626 81.4517 148.625 80.3071 148.625V143.77H83.9471V144.638H81.459V145.666C81.9608 145.666 82.4455 145.665 82.9302 145.666C83.4731 145.668 83.7032 145.978 83.6205 146.597L83.6211 146.598Z" fill="white"/>
<path d="M152.923 146.083C153.201 145.459 153.362 144.738 153.783 144.232C154.684 143.145 156.445 143.527 157.063 144.861C157.686 146.208 157.204 147.975 156.066 148.516C154.556 149.233 153.105 148.083 153.097 146.161C153.038 146.135 152.98 146.109 152.921 146.083H152.923ZM156.136 146.108C156.1 145.905 156.123 145.543 155.968 145.29C155.802 145.02 155.469 144.688 155.207 144.687C154.943 144.685 154.557 145.006 154.441 145.278C154.281 145.649 154.279 146.11 154.295 146.529C154.323 147.223 154.694 147.682 155.159 147.706C155.68 147.733 156.001 147.332 156.091 146.541C156.103 146.436 156.113 146.329 156.136 146.107V146.108Z" fill="white"/>
<path d="M193.367 180.908C191.637 180.908 189.908 180.91 188.178 180.906C187.988 180.906 187.78 180.919 187.613 180.847C187.479 180.79 187.307 180.613 187.31 180.492C187.313 180.336 187.439 180.128 187.576 180.044C187.723 179.953 187.942 179.96 188.13 179.96C191.632 179.956 195.133 179.957 198.635 179.958C198.763 179.958 198.923 179.916 199.013 179.975C199.205 180.103 199.36 180.285 199.529 180.445C199.354 180.597 199.188 180.866 199.002 180.881C198.301 180.935 197.594 180.908 196.889 180.908C195.715 180.91 194.541 180.908 193.366 180.908H193.367Z" fill="white"/>
<path d="M57.0955 180.906C55.3658 180.906 53.6355 180.907 51.9059 180.904C51.7155 180.904 51.5075 180.916 51.3403 180.845C51.2071 180.789 51.0362 180.613 51.0386 180.494C51.0422 180.337 51.1657 180.128 51.3013 180.045C51.4491 179.954 51.6693 179.96 51.8578 179.96C55.3816 179.956 58.9054 179.956 62.4292 179.957C62.557 179.957 62.7206 179.916 62.8051 179.978C62.9748 180.102 63.2138 180.284 63.2144 180.443C63.2144 180.594 62.9663 180.778 62.7893 180.884C62.6786 180.951 62.498 180.903 62.3484 180.903C60.5974 180.903 58.8458 180.903 57.0949 180.903V180.906H57.0955Z" fill="white"/>
<path d="M86.4041 147.431C87.1084 147.537 87.7269 147.674 88.3503 147.7C88.5473 147.708 88.7572 147.422 88.9609 147.27C88.787 147.112 88.638 146.891 88.4336 146.809C88.0207 146.645 87.5706 146.577 87.1491 146.432C86.5574 146.229 86.1493 145.842 86.1633 145.171C86.1773 144.506 86.5245 144.026 87.1455 143.809C88.0736 143.485 88.984 143.564 89.9224 144.068C89.8099 144.354 89.7053 144.618 89.6165 144.842C89.0643 144.751 88.5674 144.603 88.0748 144.614C87.8254 144.619 87.5822 144.911 87.3365 145.074C87.5475 145.249 87.7342 145.479 87.9757 145.585C88.3029 145.729 88.6781 145.759 89.0211 145.871C89.858 146.147 90.1803 146.572 90.1311 147.291C90.0854 147.954 89.5575 148.547 88.79 148.615C88.1654 148.67 87.5074 148.647 86.898 148.509C85.9832 148.303 85.9717 148.183 86.4041 147.432V147.431Z" fill="white"/>
<path d="M166.954 144.636H164.949V143.781H168.309C168.615 144.68 167.729 145.001 167.402 145.639C167.474 145.684 167.551 145.74 167.635 145.781C168.321 146.12 168.65 146.6 168.584 147.217C168.511 147.905 168.118 148.37 167.471 148.559C166.509 148.839 165.583 148.717 164.655 148.173C164.808 147.876 164.941 147.618 165.062 147.383C165.569 147.501 166.033 147.66 166.508 147.703C166.89 147.739 167.333 147.644 167.363 147.141C167.395 146.601 166.952 146.594 166.56 146.545C166.367 146.522 166.032 146.448 166.023 146.367C165.993 146.114 166.026 145.811 166.15 145.592C166.322 145.29 166.597 145.048 166.953 144.635L166.954 144.636Z" fill="white"/>
<path d="M149.14 147.658H151.118V148.57H147.51C147.334 148.108 147.462 147.765 147.833 147.447C148.367 146.988 148.871 146.494 149.377 146.003C149.697 145.693 150.021 145.257 149.654 144.907C149.425 144.688 148.781 144.617 148.517 144.785C147.947 145.148 147.633 144.925 147.276 144.551C147.957 143.588 149.438 143.308 150.397 143.956C151.106 144.436 151.2 145.468 150.56 146.215C150.162 146.68 149.702 147.092 149.14 147.658H149.14Z" fill="white"/>
<path d="M160.971 147.651H162.957V148.573H159.34C159.178 148.137 159.266 147.812 159.63 147.504C160.183 147.036 160.697 146.521 161.215 146.013C161.529 145.704 161.842 145.325 161.529 144.894C161.215 144.46 160.672 144.516 160.318 144.787C159.771 145.205 159.483 144.875 159.13 144.573C159.746 143.505 161.665 143.278 162.484 144.158C162.98 144.692 162.972 145.56 162.412 146.204C162.01 146.666 161.548 147.076 160.971 147.65V147.651Z" fill="white"/>
<path d="M94.9187 175.443H96.1898V182.468H94.9187V175.443Z" fill="white"/>
<path d="M94.5246 148.625C94.215 148.625 94.0241 148.628 93.8337 148.624C93.7066 148.621 93.5795 148.607 93.3806 148.593V144.696H91.8376V143.77H96.0183V144.654H94.524V148.625H94.5246Z" fill="white"/>
<path d="M119.991 199.998C123.248 203.653 126.44 207.234 129.71 210.902H110.277C113.534 207.246 116.733 203.654 119.991 199.998Z" fill="#8B1C2E"/>
<path d="M139.817 210.951C137.538 210.951 135.448 210.955 133.358 210.943C133.207 210.943 133.01 210.869 132.912 210.76C131.284 208.954 129.667 207.136 127.997 205.264C129.263 204.145 130.489 203.062 131.775 201.926C134.43 204.906 137.064 207.862 139.816 210.951H139.817Z" fill="#8B1C2E"/>
<path d="M193.317 164.432C193.897 165.827 194.417 167.077 194.964 168.39H191.673C192.218 167.08 192.735 165.833 193.317 164.432Z" fill="#8B1C2E"/>
<path d="M123.788 168.411H120.479C121.022 167.098 121.541 165.839 122.125 164.428C122.704 165.816 123.226 167.066 123.788 168.411Z" fill="#8B1C2E"/>
<path d="M170.767 168.408H167.459C168.005 167.095 168.525 165.845 169.11 164.438C169.686 165.818 170.208 167.07 170.767 168.408Z" fill="#8B1C2E"/>
<path d="M152.867 176.59C153.566 176.59 154.246 176.549 154.92 176.599C156.219 176.695 157.065 177.639 157.071 178.931C157.077 180.24 156.205 181.217 154.892 181.312C154.237 181.358 153.575 181.32 152.866 181.32V176.59L152.867 176.59Z" fill="#8B1C2E"/>
<path d="M88.2312 176.608C88.9215 176.608 89.5826 176.555 90.2321 176.621C91.0003 176.699 91.4156 177.232 91.4065 177.973C91.398 178.673 90.985 179.14 90.2358 179.271C90.0272 179.307 89.81 179.303 89.5972 179.305C89.1538 179.31 88.7111 179.306 88.2312 179.306V176.607V176.608Z" fill="#8B1C2E"/>
<path d="M114.918 176.811C115.37 177.861 115.767 178.785 116.188 179.766H113.653C114.075 178.779 114.47 177.855 114.917 176.811H114.918Z" fill="#8B1C2E"/>
<path d="M131.344 179.763H128.818C129.236 178.782 129.631 177.851 130.074 176.811C130.52 177.847 130.919 178.775 131.344 179.763H131.344Z" fill="#8B1C2E"/>
<path d="M147.332 179.772H144.795C145.204 178.806 145.589 177.897 146.05 176.811C146.515 177.885 146.91 178.8 147.331 179.772H147.332Z" fill="#8B1C2E"/>
<path d="M99.3563 147.624C99.3563 146.775 99.3544 146.011 99.3575 145.247C99.3581 145.08 99.3757 144.914 99.3879 144.701C100.217 144.653 101.053 144.509 101.63 145.268C102.023 145.787 102.032 146.4 101.69 146.955C101.148 147.834 100.267 147.629 99.3563 147.624Z" fill="#8B1C2E"/>
<path d="M156.144 146.106C156.12 146.328 156.111 146.435 156.099 146.541C156.009 147.331 155.687 147.733 155.167 147.705C154.701 147.681 154.33 147.222 154.303 146.528C154.286 146.109 154.289 145.648 154.448 145.277C154.565 145.005 154.95 144.684 155.214 144.686C155.476 144.687 155.809 145.019 155.976 145.289C156.131 145.542 156.108 145.904 156.144 146.107V146.106Z" fill="#8B1C2E"/>
</g>
<defs>
<clipPath id="clip0_1673_427">
<rect width="248.513" height="248.477" fill="white" transform="translate(0.765869 0.287109)"/>
</clipPath>
</defs>
</svg>
