<svg width="38" height="38" viewBox="0 0 38 38" fill="none" xmlns="http://www.w3.org/2000/svg">
<circle cx="18.975" cy="18.975" r="18.975" fill="#110C24"/>
<path d="M18.9766 27.4746H16.2422L16.0928 27.2949L13.7422 24.4746H9.97656V14.4746H13.7188L16.0693 11.1836L16.2197 10.9746H18.9766V27.4746ZM14.3838 15.2656L14.2334 15.4746H10.9766V23.4746H14.2109L14.3604 23.6543L16.7109 26.4746H17.9766V11.9746H16.7344L14.3838 15.2656ZM26.916 13.2354C28.1525 15.5095 28.7879 17.3497 28.7783 19.2246C28.7687 21.097 28.1158 22.9367 26.9189 25.208L26.7783 25.4746H23.9766V23.8555L24.0303 23.749C24.9032 22.0177 25.3336 20.7269 25.3467 19.4688C25.3597 18.2156 24.9589 16.9293 24.0361 15.2109L23.9766 15.1006V12.9746H26.7734L26.916 13.2354ZM24.9766 14.8535C25.8964 16.5899 26.3617 18.0179 26.3467 19.4785C26.3316 20.9355 25.8389 22.3615 24.9766 24.0898V24.4746H26.1699C27.2459 22.3861 27.7703 20.7875 27.7783 19.2197C27.7863 17.6536 27.2805 16.057 26.1758 13.9746H24.9766V14.8535ZM22.4307 15.2656C23.0485 16.6121 23.3503 17.7302 23.3359 18.8984C23.3216 20.0575 22.9966 21.2208 22.4434 22.6543L22.3193 22.9746H19.1367L19.5371 22.2363C20.138 21.128 20.44 20.3295 20.46 19.541C20.4797 18.76 20.223 17.9163 19.542 16.7227L19.4766 16.6074V14.9746H22.2969L22.4307 15.2656ZM20.4766 16.3467C21.1539 17.5594 21.4855 18.5578 21.46 19.5664C21.4396 20.3708 21.1924 21.1369 20.793 21.9746H21.6299C22.0897 20.7355 22.3248 19.7892 22.3359 18.8857C22.347 17.9909 22.138 17.1002 21.6504 15.9746H20.4766V16.3467Z" fill="#FBF7FF"/>
</svg>
