<svg width="222" height="200" viewBox="0 0 222 200" fill="none" xmlns="http://www.w3.org/2000/svg">
<path d="M133.215 171.156H125.331V169.354H127.841L136.176 148.629H139.587L147.214 169.354H149.628V171.156H140.424V169.354H143.288L141.196 163.69H132.636L130.448 169.354H133.215V171.156ZM133.376 161.888H140.649L138.01 154.454L137.206 151.042H137.077L136.144 154.518L133.376 161.888Z" fill="#8E1E32"/>
<path d="M123.102 150.431H120.174V148.629H128.155V150.431H125.516L118.05 171.156H114.478L106.111 150.431H103.343V148.629H113.223V150.431H110.133L115.926 165.46L116.859 168.517H116.988L117.953 165.395L123.102 150.431Z" fill="#8E1E32"/>
<path d="M91.6397 171.156H83.7554V169.354H86.2655L94.6004 148.629H98.0116L105.639 169.354H108.052V171.156H98.8483V169.354H101.712L99.6207 163.69H91.0605L88.8722 169.354H91.6397V171.156ZM91.8006 161.888H99.0736L96.4347 154.454L95.6302 151.042H95.5015L94.5682 154.518L91.8006 161.888Z" fill="#8E1E32"/>
<path d="M73.6521 174.792C74.0168 174.621 74.3708 174.406 74.7141 174.149C75.0573 173.913 75.3577 173.569 75.6151 173.119C75.894 172.69 76.1086 172.121 76.2588 171.413C76.4304 170.705 76.5162 169.783 76.5162 168.646V150.431H73.8452V148.629H83.049V150.431H80.1205V168.324C80.1205 169.847 79.9167 171.091 79.5091 172.057C79.1229 173.044 78.6402 173.827 78.0609 174.406C77.4817 175.007 76.8595 175.447 76.1944 175.725C75.5293 176.004 74.9286 176.197 74.3923 176.305L73.6521 174.792Z" fill="#8E1E32"/>
<path d="M207.2 138.378L191.174 119.101C191.196 120.239 191.206 121.354 191.206 122.448C191.228 123.521 191.249 124.647 191.271 125.827C191.292 127.007 191.303 128.316 191.303 129.753C191.324 131.169 191.335 132.8 191.335 134.645C191.335 135.267 191.399 135.75 191.528 136.093C191.678 136.436 191.936 136.683 192.3 136.833C192.687 136.983 193.212 137.08 193.877 137.123L194.553 137.155V138.121H186.894V137.155L187.57 137.091C188.171 137.026 188.632 136.919 188.954 136.769C189.275 136.597 189.49 136.351 189.597 136.029C189.726 135.685 189.79 135.224 189.79 134.645L189.887 119.069C189.887 118.19 189.715 117.589 189.372 117.267C189.05 116.924 188.396 116.709 187.409 116.624L186.733 116.559V115.594H192.107L206.782 133.197C206.761 131.738 206.739 130.451 206.718 129.335C206.696 128.219 206.675 127.168 206.653 126.181C206.653 125.173 206.653 124.132 206.653 123.06C206.653 121.987 206.653 120.764 206.653 119.391C206.653 118.662 206.578 118.104 206.428 117.718C206.299 117.332 206.053 117.053 205.688 116.881C205.323 116.709 204.797 116.613 204.111 116.591L203.435 116.559V115.594H211.094V116.559L210.418 116.624C209.818 116.688 209.356 116.806 209.035 116.978C208.713 117.128 208.488 117.396 208.359 117.782C208.252 118.147 208.198 118.683 208.198 119.391L208.101 138.378H207.2Z" fill="#8E1E32"/>
<path d="M172.701 138.121V137.155L174.021 137.026C174.557 136.962 174.954 136.844 175.212 136.672C175.49 136.501 175.673 136.265 175.759 135.964C175.866 135.664 175.92 135.289 175.92 134.838V118.876C175.92 118.426 175.866 118.05 175.759 117.75C175.673 117.45 175.49 117.214 175.212 117.042C174.954 116.849 174.557 116.731 174.021 116.688L172.701 116.559V115.594H182.163V116.559L180.843 116.688C180.328 116.731 179.931 116.849 179.653 117.042C179.374 117.214 179.181 117.45 179.073 117.75C178.987 118.05 178.945 118.426 178.945 118.876V134.838C178.945 135.289 178.987 135.664 179.073 135.964C179.181 136.265 179.374 136.501 179.653 136.672C179.931 136.844 180.328 136.962 180.843 137.026L182.163 137.155V138.121H172.701Z" fill="#8E1E32"/>
<path d="M145.991 137.863V136.898C146.806 136.769 147.429 136.619 147.858 136.448C148.308 136.276 148.673 135.976 148.952 135.546C149.231 135.096 149.553 134.42 149.917 133.519L157.416 115.176H158.477L166.008 133.97C166.394 134.956 166.834 135.664 167.327 136.094C167.821 136.523 168.582 136.791 169.612 136.898V137.863H160.441V136.898L161.76 136.737C162.446 136.651 162.876 136.405 163.047 135.997C163.24 135.568 163.176 134.956 162.854 134.163L156.547 118.201H157.544L151.462 133.776C151.054 134.806 150.958 135.546 151.172 135.997C151.387 136.448 151.902 136.716 152.717 136.801L153.65 136.898V137.863H145.991ZM152.781 129.142V127.855H162.5V129.142H152.781Z" fill="#8E1E32"/>
<path d="M134.149 134.613V116.624L130.737 116.753C129.708 116.796 128.903 116.935 128.324 117.171C127.766 117.407 127.337 117.836 127.037 118.458C126.758 119.059 126.522 119.939 126.329 121.097H125.331L125.621 115.176C126.243 115.24 126.962 115.294 127.777 115.337C128.614 115.358 129.44 115.369 130.255 115.369H141.068C141.754 115.369 142.516 115.358 143.352 115.337C144.211 115.294 144.994 115.24 145.702 115.176L145.991 121.097H144.994C144.801 119.939 144.554 119.059 144.254 118.458C143.975 117.836 143.546 117.407 142.966 117.171C142.409 116.935 141.615 116.796 140.585 116.753L137.174 116.624V134.613C137.174 135.107 137.238 135.514 137.367 135.836C137.496 136.136 137.732 136.362 138.075 136.512C138.44 136.662 138.933 136.769 139.555 136.834L140.553 136.93V137.896H130.77V136.93L131.767 136.834C132.411 136.769 132.904 136.662 133.248 136.512C133.591 136.362 133.827 136.136 133.956 135.836C134.084 135.514 134.149 135.107 134.149 134.613Z" fill="#8E1E32"/>
<path d="M119.459 138.12L103.433 118.844C103.454 119.981 103.465 121.096 103.465 122.191C103.487 123.263 103.508 124.39 103.529 125.57C103.551 126.75 103.562 128.058 103.562 129.496C103.583 130.912 103.594 132.542 103.594 134.387C103.594 135.009 103.658 135.492 103.787 135.835C103.937 136.179 104.195 136.425 104.559 136.575C104.945 136.726 105.471 136.822 106.136 136.865L106.812 136.897V137.863H99.1528V136.897L99.8286 136.833C100.429 136.769 100.891 136.661 101.212 136.511C101.534 136.339 101.749 136.093 101.856 135.771C101.985 135.428 102.049 134.966 102.049 134.387L102.146 118.811C102.146 117.932 101.974 117.331 101.631 117.009C101.309 116.666 100.655 116.452 99.6677 116.366L98.9919 116.301V115.336H104.366L119.041 132.939C119.019 131.48 118.998 130.193 118.976 129.077C118.955 127.962 118.934 126.91 118.912 125.924C118.912 124.915 118.912 123.875 118.912 122.802C118.912 121.729 118.912 120.506 118.912 119.133C118.912 118.404 118.837 117.846 118.687 117.46C118.558 117.074 118.311 116.795 117.947 116.623C117.582 116.452 117.056 116.355 116.37 116.334L115.694 116.301V115.336H123.353V116.301L122.677 116.366C122.077 116.43 121.615 116.548 121.293 116.72C120.972 116.87 120.746 117.138 120.618 117.524C120.51 117.889 120.457 118.425 120.457 119.133L120.36 138.12H119.459Z" fill="#8E1E32"/>
<path d="M84.1898 138.282C78.2041 138.282 75.2112 135.075 75.2112 128.66V118.909C75.2112 118.008 75.0503 117.375 74.7285 117.01C74.4067 116.646 73.8275 116.453 72.9907 116.431L72.3149 116.399V115.434H81.1326V116.399L80.4568 116.431C79.6201 116.453 79.0408 116.646 78.719 117.01C78.3972 117.375 78.2363 118.008 78.2363 118.909V128.145C78.2363 133.852 80.4889 136.705 84.9943 136.705C87.2255 136.705 88.8668 135.944 89.918 134.42C90.9907 132.897 91.5271 130.527 91.5271 127.308V118.909C91.5271 118.008 91.3554 117.386 91.0122 117.043C90.6904 116.678 90.0789 116.474 89.1779 116.431L88.502 116.399V115.434H95.9037V116.399L95.2279 116.431C94.3912 116.453 93.8119 116.646 93.4901 117.01C93.1683 117.375 93.0074 118.008 93.0074 118.909V127.727C93.0074 131.353 92.2994 134.024 90.8834 135.74C89.4675 137.435 87.2363 138.282 84.1898 138.282Z" fill="#8E1E32"/>
<path d="M57.6093 138.122C55.2494 138.122 53.1791 137.639 51.3984 136.673C49.6392 135.708 48.2661 134.356 47.2792 132.619C46.3138 130.881 45.8311 128.853 45.8311 126.536C45.8311 124.241 46.3352 122.224 47.3436 120.486C48.3734 118.749 49.8001 117.397 51.6237 116.432C53.4687 115.445 55.5927 114.951 57.9955 114.951C60.3555 114.951 62.4043 115.434 64.1421 116.399C65.9013 117.365 67.2637 118.716 68.2291 120.454C69.216 122.192 69.7094 124.23 69.7094 126.569C69.7094 128.843 69.1945 130.849 68.1647 132.586C67.1564 134.324 65.7404 135.687 63.9168 136.673C62.1147 137.639 60.0122 138.122 57.6093 138.122ZM58.5104 136.77C60.1195 136.77 61.514 136.416 62.694 135.708C63.8954 134.979 64.8179 133.938 65.4615 132.586C66.1266 131.213 66.4592 129.583 66.4592 127.695C66.4592 125.421 66.0515 123.436 65.2363 121.741C64.421 120.025 63.3054 118.695 61.8894 117.751C60.4735 116.785 58.8537 116.303 57.0301 116.303C55.421 116.303 54.0158 116.667 52.8144 117.397C51.6344 118.105 50.7119 119.135 50.0468 120.486C49.4032 121.838 49.0813 123.468 49.0813 125.378C49.0813 127.652 49.489 129.647 50.3042 131.364C51.1195 133.058 52.2351 134.389 53.6511 135.354C55.067 136.298 56.6868 136.77 58.5104 136.77Z" fill="#8E1E32"/>
<path d="M12.6343 138.121V137.155L13.3101 137.091C13.8893 137.026 14.3399 136.908 14.6617 136.737C14.9835 136.565 15.2195 136.286 15.3697 135.9C15.5413 135.514 15.6486 134.988 15.6915 134.323L16.9144 119.391C17.0002 118.404 16.8715 117.728 16.5282 117.364C16.2064 116.978 15.5091 116.731 14.4364 116.624L13.7606 116.559V115.594H20.0681L27.341 134.774H26.4722L33.3267 115.594H39.4411V116.559L38.7653 116.624C38.1003 116.688 37.5961 116.806 37.2528 116.978C36.931 117.149 36.7272 117.428 36.6414 117.814C36.5556 118.179 36.5448 118.705 36.6092 119.391L37.9286 133.905C37.993 134.656 38.111 135.256 38.2826 135.707C38.4757 136.136 38.7546 136.458 39.1193 136.672C39.4841 136.865 39.9775 137.005 40.5997 137.091L41.3398 137.155V138.121H32.1039V137.155L33.1658 137.059C34.0025 136.973 34.5389 136.726 34.7749 136.318C35.0109 135.889 35.0752 135.085 34.968 133.905L33.5198 117.525L33.9704 117.621L26.6331 138.121H25.5711L18.2338 118.973L17.2362 134.323C17.1933 135.01 17.2362 135.557 17.3649 135.964C17.5151 136.351 17.7833 136.629 18.1694 136.801C18.5771 136.973 19.1456 137.08 19.875 137.123L20.5508 137.155V138.121H12.6343Z" fill="#8E1E32"/>
<path d="M198.564 101.061C192.343 102.505 186.104 103.04 179.685 102.127C176.766 101.713 173.721 102.235 170.734 102.257C168.723 102.271 166.704 102.217 164.698 102.078C163.074 101.965 161.679 101.979 160.02 102.734C158.265 103.535 155.895 103.297 153.839 103.076C148.554 102.509 143.3 101.673 138.028 101.007C136.481 100.809 134.907 100.769 133.341 100.751C131.866 100.728 131.133 100.35 131.961 98.7535C133.067 96.6304 133.71 94.071 135.321 92.4652C136.85 90.9358 138.393 88.7183 141.294 89.0376C142.153 89.1321 143.453 88.5203 143.966 87.8096C145.135 86.1903 145.981 84.3281 146.854 82.5109C147.02 82.1645 146.791 81.2334 146.584 81.175C146.071 81.04 145.351 81.076 144.91 81.3594C142.58 82.8528 140.318 84.4406 138.024 85.9924C137.849 86.1094 137.646 86.1948 137.237 86.4062C137.745 82.6234 138.015 79.1014 142.275 77.5135C144.245 76.7803 145.995 75.3679 147.695 74.0635C148.068 73.7756 148.104 72.4577 147.78 71.9494C146.773 70.3886 145.608 68.8997 144.33 67.5503C142.311 65.4182 140.592 63.2231 139.472 60.3893C138.735 58.5271 136.85 57.0922 135.406 55.5359C134.479 54.5373 133.422 53.6647 132.419 52.7381C132.622 52.4367 132.824 52.1354 133.027 51.834C134.466 52.6571 136.211 53.2014 137.277 54.3664C139.076 56.3321 140.304 58.815 142.041 60.8481C144.11 63.2726 146.39 65.5351 148.747 67.6807C149.292 68.1755 150.78 68.3015 151.397 67.9101C153.214 66.7586 154.86 67.2714 156.21 68.3015C160.177 71.3287 163.955 74.5988 167.864 77.7069C171.903 80.9186 175.871 84.2517 180.13 87.1439C183.383 89.3525 187.246 90.6659 190.472 92.9105C193.535 95.0426 196.117 97.8673 198.91 100.386C198.793 100.611 198.676 100.836 198.559 101.056L198.564 101.061ZM150.326 76.4655C150.38 76.6364 150.434 76.8028 150.488 76.9738C151.226 76.8028 151.999 76.7219 152.697 76.443C155.45 75.3455 157.645 76.0876 159.07 78.6336C159.354 79.1418 159.682 79.7221 160.15 80.01C163.177 81.8767 166.177 83.8018 169.331 85.4302C170.932 86.2578 172.835 86.5007 174.602 87.009C174.688 86.7931 174.778 86.5727 174.863 86.3568C174.58 85.9519 174.364 85.4706 174.004 85.1558C168.885 80.7162 163.798 76.2316 158.558 71.9359C157.757 71.2792 155.782 70.9373 155.112 71.4501C153.299 72.8355 151.892 74.7607 150.326 76.47V76.4655Z" fill="#8D1C30"/>
<path d="M28.4862 98.7713C33.5105 94.3182 38.5304 89.8651 43.5593 85.421C43.9461 85.0792 44.3734 84.6743 44.8457 84.5439C51.7053 82.6457 55.7266 76.9017 60.8409 72.6735C63.2204 70.7078 68.2132 70.5549 70.2824 72.9973C71.3304 74.2343 72.3335 74.3602 73.5929 73.6226C74.3621 73.1727 75.1808 72.7274 75.7925 72.0977C79.4404 68.3508 83.0254 64.5454 86.6464 60.767C87.1232 60.2722 87.6539 59.8314 88.3466 59.5391C87.9238 66.5291 81.6895 69.1425 77.6727 73.852C78.3204 74.1758 78.8377 74.5357 79.409 74.6976C81.3611 75.2599 83.3268 75.7861 85.3014 76.2674C86.6554 76.5958 86.9028 77.3874 86.5519 78.6154C86.0976 80.1853 85.5983 81.7641 85.3824 83.3744C85.3149 83.8872 86.0526 84.5574 86.5069 85.0792C87.0557 85.7089 87.8699 86.1632 88.2747 86.8604C90.5867 90.8547 92.7997 94.903 95.0803 98.9198C95.4221 99.518 95.9304 100.026 96.6681 100.962C95.2197 101.101 94.2886 101.254 93.353 101.272C87.0647 101.407 80.7719 101.497 74.4836 101.65C72.8418 101.691 71.1505 101.7 69.5672 102.086C65.4334 103.094 61.4256 102.487 57.3324 101.763C54.0488 101.182 50.6617 101.16 47.3197 100.926C44.8592 100.75 42.3943 100.607 39.9293 100.499C37.5543 100.4 35.1748 100.445 32.8043 100.278C31.3695 100.179 29.9526 99.8059 28.5312 99.554C28.5132 99.2886 28.4997 99.0277 28.4817 98.7623L28.4862 98.7713ZM48.7051 85.1826C48.9345 85.5964 49.1594 86.0058 49.3888 86.4196C51.0935 85.502 52.8073 84.5934 54.5031 83.6623C56.7926 82.4028 59.0237 81.0219 61.3807 79.9064C62.3208 79.4611 63.994 78.7054 64.2909 80.5451C64.6328 82.6502 65.5819 82.5692 67.0482 81.917C68.3212 81.3458 69.1264 81.4132 69.3558 83.1135C69.5717 84.7238 71.1505 85.1916 72.5224 84.211C73.9033 83.2215 74.1912 81.1119 73.0622 79.596C72.0906 78.2871 71.0425 77.0276 69.981 75.7906C68.9689 74.6121 64.9656 73.5686 63.7152 74.4322C58.6548 77.9362 53.7024 81.5887 48.7141 85.1871L48.7051 85.1826Z" fill="#8D1C30"/>
<path d="M118.052 59.0081C117.237 55.0768 116.54 51.2669 115.632 47.511C115.083 45.2395 115.663 44.3848 118.029 44.6997C123.517 45.4374 127.138 48.9369 130.228 53.1246C134.402 58.7697 135.864 65.3189 135.958 72.156C136.062 79.4609 135.095 86.6578 132 93.3734C130.354 96.9494 128.006 100.067 124.502 102.073C117.8 105.91 110.855 101.11 109.919 95.0152C109.474 92.123 110.072 88.9113 110.859 86.0281C112.182 81.2016 114.273 76.5911 115.596 71.7647C116.734 67.6129 117.255 63.2903 118.056 59.0036L118.052 59.0081ZM122.275 96.5356C122.631 96.6436 122.99 96.756 123.346 96.864C126.863 89.4016 131.321 82.3172 131.973 73.7168C132.315 69.2187 131.528 64.9501 129.337 60.9378C129.072 61.6305 129.022 62.3142 129.207 62.9259C130.664 67.8064 130.628 72.7452 129.099 77.5132C127.439 82.6905 125.253 87.7014 123.346 92.8022C122.896 94.0077 122.631 95.2851 122.28 96.5311L122.275 96.5356Z" fill="#8D1C30"/>
<path fill-rule="evenodd" clip-rule="evenodd" d="M112.36 68.651C109.724 75.1822 107.843 81.8844 107.843 88.9194C107.843 92.4593 108.608 96.0353 109.323 99.5348C110.115 103.408 109.832 104.073 106.053 103.21C103.818 102.697 101.524 101.536 99.7469 100.07C93.1887 94.6454 90.3144 87.354 89.6577 79.0056C88.983 70.4098 89.9501 62.1018 93.7015 54.2661C95.5592 50.3843 98.276 47.1277 102.392 45.5668C109.26 42.9625 115.976 48.4996 115.724 56.3847C115.347 58.3361 113.324 65.3753 112.36 68.651ZM102.392 51.5673C102.648 51.7652 102.909 51.9631 103.165 52.161L103.161 52.1655C101.897 55.4851 100.638 58.8047 99.3736 62.1243C97.1965 67.8458 94.4257 73.4415 95.1994 79.8467C95.5097 82.4151 95.9775 84.961 96.0225 87.7409C95.6761 87.1201 95.2443 86.5354 94.9924 85.8787C92.8649 80.3775 92.442 74.7279 94.4662 69.1728C96.5353 63.4827 99.0182 57.9456 101.366 52.359C101.515 52.0126 102.041 51.8282 102.392 51.5673Z" fill="#8D1C30"/>
<path d="M23.6646 77.3121L23.9866 76.2666L26.5513 77.0565C26.6324 77.4511 26.6474 77.9445 26.5961 78.5368C26.5449 79.1291 26.4354 79.6976 26.2677 80.2421C25.9592 81.244 25.5682 82.1072 25.0946 82.8318C24.6211 83.5564 24.0592 84.1226 23.409 84.5304C22.7513 84.924 22.0068 85.1538 21.1757 85.2198C20.3446 85.2858 19.4118 85.1595 18.3772 84.8409C17.3099 84.5122 16.4563 84.0705 15.8164 83.5157C15.1656 82.9576 14.6915 82.3287 14.3943 81.6291C14.0861 80.9261 13.9355 80.1763 13.9424 79.3795C13.9493 78.5828 14.0768 77.7815 14.325 76.9756C14.4458 76.5836 14.5711 76.2346 14.701 75.9289C14.8201 75.6198 14.9454 75.3484 15.077 75.1146C15.2119 74.87 15.351 74.6506 15.4943 74.4562C15.6377 74.2619 15.7847 74.0747 15.9356 73.8946L18.729 74.7549L18.407 75.8003L16.6918 75.2721L16.2946 75.4002C16.2033 75.5032 16.0792 75.6737 15.9225 75.9116C15.7692 76.1386 15.6053 76.5352 15.4309 77.1015C15.2498 77.6896 15.173 78.2681 15.2005 78.837C15.228 79.4058 15.3791 79.9412 15.6538 80.4431C15.9318 80.9341 16.3476 81.3841 16.9013 81.7931C17.4441 82.1987 18.1457 82.534 19.006 82.7989C20.5633 83.2785 21.8875 83.2571 22.9784 82.7345C24.0618 82.1978 24.8232 81.2161 25.2625 79.7894C25.3832 79.3974 25.4566 79.0623 25.4827 78.7841C25.5012 78.4918 25.4815 78.2651 25.4238 78.1043L25.1838 77.78L23.6646 77.3121ZM23.2054 69.3796C22.4387 68.9299 21.8002 68.3968 21.2899 67.7804C20.7697 67.1582 20.4035 66.4876 20.1912 65.7685C19.9748 65.0339 19.9241 64.2644 20.0393 63.46C20.1602 62.6458 20.4657 61.821 20.9558 60.9855C21.4459 60.1501 22.0167 59.4809 22.6684 58.978C23.3201 58.4752 24.0194 58.1389 24.7662 57.9693C25.5032 57.7939 26.2701 57.7815 27.0671 57.9319C27.8541 58.0765 28.631 58.3737 29.3977 58.8234C30.1643 59.2731 30.8077 59.8091 31.3279 60.4313C31.8382 61.0477 32.2016 61.7232 32.418 62.4579C32.6245 63.1868 32.6673 63.9583 32.5464 64.7725C32.4255 65.5867 32.12 66.4115 31.6299 67.247C31.1399 68.0824 30.569 68.7516 29.9173 69.2545C29.2714 69.7475 28.5799 70.0817 27.8429 70.2571C27.1019 70.4169 26.3378 70.4244 25.5507 70.2798C24.7538 70.1294 23.972 69.8293 23.2054 69.3796ZM24.2864 67.5367C24.9155 67.9057 25.5456 68.1828 26.1767 68.3681C26.8136 68.5435 27.42 68.602 27.996 68.5436C28.5719 68.4851 29.1076 68.3039 29.6029 68C30.104 67.6862 30.5333 67.2246 30.8908 66.6152C31.2194 66.055 31.3869 65.4993 31.3932 64.9481C31.3994 64.3969 31.2789 63.8704 31.0316 63.3687C30.79 62.8571 30.4344 62.371 29.9647 61.9105C29.495 61.4501 28.9456 61.0353 28.3166 60.6663C27.6875 60.2973 27.0546 60.0251 26.4177 59.8497C25.7865 59.6644 25.183 59.601 24.607 59.6595C24.0311 59.7179 23.4926 59.904 22.9914 60.2178C22.4961 60.5217 22.0668 60.9833 21.7036 61.6025C21.3576 62.1922 21.1787 62.7676 21.1666 63.3286C21.1604 63.8798 21.2809 64.4063 21.5282 64.9081C21.7755 65.4098 22.1398 65.8811 22.621 66.322C23.1022 66.7628 23.6574 67.1677 24.2864 67.5367ZM38.6398 54.1859L39.8776 52.8395L40.5822 53.4873L36.9962 57.3882L36.2916 56.7404L37.3442 55.5953L29.9451 48.7934L28.8924 49.9386L28.1877 49.2908L34.4459 42.483L36.5096 44.3801L35.7693 45.1855L34.6871 44.1907L34.1789 44.1878L31.2406 47.3841L34.6886 50.5537L36.7823 48.276L36.7671 47.9137L36.1631 47.3585L36.9034 46.5531L39.2062 48.67L38.4659 49.4754L37.8619 48.9201L37.487 48.9238L35.3932 51.2014L38.6398 54.1859ZM49.0193 43.6928L50.4774 42.5888L51.0552 43.3519L46.8309 46.5506L46.253 45.7875L47.4931 44.8485L41.4259 36.8359L40.1858 37.7749L39.608 37.0117L46.9802 31.4295L48.6724 33.6643L47.8002 34.3247L46.9129 33.1528L46.4133 33.0594L42.9521 35.6802L45.7793 39.414L48.2458 37.5464L48.2954 37.1872L47.8001 36.5331L48.6723 35.8727L50.5605 38.3664L49.6884 39.0268L49.1931 38.3727L48.8236 38.3095L46.3572 40.1771L49.0193 43.6928ZM61.1175 22.7895L62.4032 25.2804L61.4312 25.7822L60.7569 24.4759L60.2807 24.2986L56.5595 26.2194L58.59 30.1532L61.1569 28.8283L61.2671 28.4829L60.9378 27.8449L61.9099 27.3432L63.2505 29.9404L62.2785 30.4422L61.9492 29.8043L61.5959 29.6788L59.029 31.0038L61.1693 35.1503L65.1488 33.0962L65.2957 32.6357L64.5274 31.1472L65.4995 30.6454L66.8637 33.2883L58.5251 37.5924L58.086 36.7418L59.4682 36.0284L54.8583 27.0974L53.4762 27.8109L53.0371 26.9603L61.1175 22.7895ZM76.962 16.3774L77.8251 19.0444L76.7843 19.3812L76.3317 17.9826L75.8907 17.7301L71.9064 19.0194L73.2693 23.2313L76.0177 22.342L76.1827 22.0191L75.9617 21.3361L77.0025 20.9993L77.9023 23.7802L76.8615 24.117L76.6405 23.434L76.3124 23.2527L73.564 24.142L75.0006 28.5817L79.2614 27.203L79.4814 26.7725L78.9657 25.1788L80.0065 24.842L80.9221 27.6717L71.994 30.5607L71.6993 29.65L73.1792 29.1711L70.085 19.6087L68.6051 20.0876L68.3104 19.1769L76.962 16.3774ZM100.684 22.7269L102.153 22.6754L102.187 23.632L97.2499 23.8049L97.2164 22.8483L98.7708 22.7938L98.4192 12.7495L96.8647 12.8039L96.8312 11.8473L98.5565 11.7869C99.069 11.769 99.6262 11.7266 100.228 11.66C100.83 11.5933 101.422 11.5498 102.002 11.5294C102.629 11.5075 103.218 11.5553 103.769 11.6728C104.331 11.7785 104.817 11.9611 105.225 12.2205C105.633 12.4798 105.959 12.8219 106.201 13.2467C106.455 13.6596 106.593 14.1622 106.613 14.7544C106.642 15.5744 106.41 16.2837 105.918 16.8824C105.437 17.4694 104.791 17.8968 103.979 18.1647L107.534 22.487L108.593 22.4499L108.627 23.4066L105.859 23.5034L102.279 18.4636L100.537 18.5246L100.684 22.7269ZM101.855 17.5891C102.732 17.5584 103.407 17.2953 103.88 16.7999C104.364 16.304 104.592 15.6461 104.564 14.8262C104.534 13.9835 104.251 13.3777 103.713 13.0088C103.176 12.64 102.474 12.4707 101.609 12.501C101.313 12.5114 101.063 12.5315 100.858 12.5615C100.666 12.591 100.49 12.62 100.331 12.6483L100.506 17.6364L101.855 17.5891ZM115.571 17.2556C115.695 16.3755 115.945 15.5823 116.322 14.8758C116.699 14.1581 117.18 13.5644 117.764 13.0946C118.362 12.615 119.054 12.2756 119.842 12.0762C120.641 11.8784 121.52 11.8472 122.479 11.9828C123.438 12.1183 124.274 12.3918 124.987 12.8033C125.7 13.2147 126.277 13.7336 126.717 14.3598C127.16 14.9747 127.463 15.6793 127.627 16.4735C127.793 17.2565 127.813 18.088 127.689 18.9681C127.565 19.8482 127.314 20.647 126.936 21.3647C126.56 22.0711 126.073 22.6641 125.476 23.1436C124.881 23.6119 124.183 23.9449 123.384 24.1427C122.585 24.3405 121.706 24.3717 120.747 24.2361C119.788 24.1006 118.952 23.8271 118.239 23.4156C117.538 23.0057 116.966 22.4933 116.523 21.8784C116.093 21.2538 115.796 20.55 115.63 19.767C115.466 18.9728 115.447 18.1357 115.571 17.2556ZM117.686 17.5545C117.584 18.2767 117.568 18.9648 117.636 19.619C117.716 20.2747 117.893 20.8578 118.166 21.3683C118.439 21.8787 118.81 22.3052 119.28 22.6478C119.761 22.9919 120.351 23.2134 121.05 23.3123C121.693 23.4032 122.271 23.3467 122.783 23.1429C123.295 22.939 123.737 22.6273 124.107 22.2078C124.488 21.7898 124.802 21.2761 125.049 20.6666C125.297 20.057 125.471 19.3912 125.573 18.6691C125.675 17.947 125.686 17.2581 125.606 16.6023C125.538 15.9481 125.367 15.3658 125.094 14.8554C124.821 14.3449 124.444 13.9176 123.963 13.5735C123.494 13.231 122.903 13.0095 122.193 12.909C121.516 12.8133 120.915 12.8666 120.392 13.0688C119.88 13.2727 119.439 13.5843 119.069 14.0039C118.699 14.4235 118.401 14.9396 118.177 15.5523C117.952 16.165 117.789 16.8324 117.686 17.5545ZM136.18 26.7869L132.216 25.4375L132.524 24.5314L133.786 24.961L141.524 15.9669L143.239 16.5507L143.527 28.2766L144.741 28.6897L144.433 29.5958L139.805 28.0206L140.113 27.1145L141.553 27.6046L141.471 24.3988L137.167 22.9337L135.097 25.4071L136.489 25.8807L136.18 26.7869ZM137.847 22.1543L141.504 23.399L141.45 19.2096L141.629 17.3567L141.564 17.3346L140.5 18.9225L137.847 22.1543ZM152.429 30.7792L152.499 31.2872C152.606 31.5163 152.789 31.7613 153.048 32.0224C153.323 32.279 153.65 32.5124 154.028 32.7225C154.387 32.9215 154.735 33.0691 155.073 33.1652C155.426 33.2569 155.759 33.2915 156.071 33.2692C156.383 33.2469 156.667 33.1571 156.924 32.9998C157.181 32.8425 157.397 32.6044 157.574 32.2856C157.801 31.8771 157.849 31.4609 157.72 31.0371C157.6 30.6187 157.394 30.1916 157.101 29.7557C156.809 29.3198 156.479 28.8695 156.111 28.4049C155.744 27.9402 155.43 27.46 155.171 26.9643C154.912 26.4686 154.747 25.954 154.679 25.4206C154.62 24.8927 154.75 24.3398 155.071 23.7619C155.541 22.9149 156.225 22.4342 157.122 22.3197C158.035 22.2008 159.04 22.4454 160.136 23.0536C160.824 23.435 161.392 23.8088 161.84 24.1749C162.288 24.541 162.646 24.8956 162.911 25.2385L161.485 27.8093L160.528 27.2785L161.424 25.6644L161.392 25.158C161.247 24.9733 161.006 24.7614 160.67 24.5225C160.333 24.2837 159.99 24.0675 159.642 23.874C159.044 23.5422 158.498 23.4219 158.005 23.5129C157.517 23.594 157.134 23.8836 156.858 24.3818C156.631 24.7903 156.575 25.2087 156.689 25.637C156.819 26.0608 157.027 26.4957 157.314 26.9416C157.601 27.3875 157.926 27.8477 158.288 28.3223C158.655 28.787 158.969 29.2672 159.228 29.7629C159.493 30.2486 159.658 30.7505 159.722 31.2684C159.796 31.7919 159.682 32.3276 159.378 32.8757C158.841 33.8422 158.056 34.3772 157.021 34.4807C155.992 34.5742 154.829 34.2616 153.534 33.5429C152.827 33.1503 152.255 32.7356 151.82 32.2986C151.385 31.8617 151.095 31.4922 150.95 31.1901L152.459 28.4699L153.415 29.0006L152.429 30.7792ZM170.187 44.1502L166.004 40.6786L166.616 39.942L167.97 41.0665L174.39 33.3331L172.035 31.3789L171.532 31.4499L170.124 33.1465L169.177 32.3605L171.437 29.638L180.038 36.7778L177.778 39.5003L176.831 38.7143L178.24 37.0176L178.217 36.5099L175.863 34.5558L169.443 42.2892L170.798 43.4137L170.187 44.1502ZM192.27 49.4207L190.086 51.1788L189.4 50.3268L190.545 49.4049L190.624 48.9028L187.997 45.641L184.549 48.4176L186.361 50.6675L186.721 50.7064L187.281 50.2561L187.967 51.1082L185.69 52.9413L185.004 52.0893L185.563 51.639L185.615 51.2678L183.804 49.0179L180.169 51.9445L182.978 55.4325L183.459 55.4844L184.763 54.4338L185.449 55.2858L183.133 57.1511L177.247 49.8422L177.993 49.2419L178.969 50.4534L186.797 44.15L185.821 42.9385L186.567 42.3381L192.27 49.4207ZM189.92 65.0038L190.582 66.3159L189.728 66.7474L187.501 62.338L188.356 61.9065L189.057 63.2949L198.028 58.7643L197.327 57.3759L198.181 56.9444L198.96 58.4854C199.191 58.9432 199.463 59.4313 199.776 59.9499C200.089 60.4684 200.376 60.9871 200.638 61.5058C200.921 62.0653 201.124 62.6199 201.249 63.1698C201.389 63.7247 201.426 64.2418 201.362 64.7211C201.298 65.2004 201.124 65.6394 200.84 66.038C200.571 66.4417 200.173 66.777 199.644 67.0442C198.911 67.414 198.17 67.501 197.42 67.3053C196.686 67.1146 196.027 66.707 195.443 66.0825L193.009 71.122L193.487 72.068L192.633 72.4995L191.385 70.0278L194.459 64.6646L193.673 63.1083L189.92 65.0038ZM195.075 63.913C195.471 64.6962 195.993 65.1987 196.641 65.4203C197.294 65.6521 197.987 65.5831 198.719 65.2133C199.472 64.8331 199.903 64.3218 200.012 63.6793C200.122 63.0367 199.982 62.3289 199.591 61.5559C199.458 61.2914 199.334 61.0728 199.222 60.8999C199.114 60.7373 199.014 60.5899 198.922 60.4578L194.466 62.7077L195.075 63.913ZM208.553 80.8514L209.732 84.941L208.813 85.2061L208.41 83.8101L201.703 81.9549L197.744 83.0961L198.175 84.5907L197.256 84.8558L195.864 80.0272L196.783 79.7621L197.214 81.2566L201.156 80.1202L205.801 74.7606L205.37 73.2661L206.29 73.0009L207.72 77.9609L206.8 78.226L206.403 76.8464L202.48 81.197L208.069 82.6276L207.634 81.1166L208.553 80.8514Z" fill="#8E1934"/>
</svg>
