<svg width="211" height="163" viewBox="0 0 211 163" fill="none" xmlns="http://www.w3.org/2000/svg">
<path d="M78.3913 95.6383C78.3913 97.4952 77.3625 98.4258 75.3093 98.4258H67.1349V109.251H62.0893V79.3748H75.3093C77.3668 79.3748 78.3913 80.2926 78.3913 82.1238V95.6383ZM73.3031 94.5882V83.2123H67.1349V94.5882H73.3031Z" fill="white"/>
<path d="M87.1035 109.249H82.058V79.373H87.1035V109.249Z" fill="white"/>
<path d="M111.644 109.249H106.79V94.5139C106.79 93.737 106.888 92.657 107.093 91.2697L102.735 106.522H100.17L95.7943 91.2697C95.9949 92.6826 96.0974 93.7626 96.0974 94.5139V109.249H91.2439V79.373H96.0077L101.314 95.8841C101.369 96.0634 101.416 96.5159 101.442 97.2373C101.442 96.9214 101.484 96.4689 101.57 95.8841L106.876 79.373H111.639V109.249H111.644Z" fill="white"/>
<path d="M132.236 106.517C132.236 108.336 131.207 109.249 129.154 109.249H115.678V79.373H129.068C131.066 79.373 132.065 80.2908 132.065 82.122V89.8141C132.065 90.8343 131.706 91.6198 130.985 92.1832C130.883 92.26 130.008 92.7509 128.356 93.6516C130.067 94.5822 130.972 95.0902 131.075 95.1798C131.852 95.7774 132.24 96.597 132.24 97.6428V106.517H132.236ZM127.041 90.369V83.1337H120.723V91.8972H124.603L127.041 90.369ZM127.169 105.489V96.9726L124.689 95.5213H120.719V105.484H127.165L127.169 105.489Z" fill="white"/>
<path d="M148.303 109.252L147.291 103.583H140.974L139.962 109.252H134.98V109.175L141.516 79.3372H146.822L153.314 109.252H148.303ZM146.578 99.7456L144.12 86.2695L141.639 99.7456H146.578Z" fill="white"/>
<path d="M173.099 109.249H168.011V95.85H161.177V109.249H156.132V79.373H161.177V91.6838H168.011V79.373H173.099V109.249Z" fill="white"/>
<path d="M189.209 109.252L188.198 103.583H181.88L180.868 109.252H175.887V109.175L182.422 79.3372H187.728L194.221 109.252H189.209ZM187.485 99.7456L185.026 86.2695L182.546 99.7456H187.485Z" fill="white"/>
<path d="M210.296 109.249H197.034V79.373H202.079V105.258H210.296V109.249Z" fill="white"/>
<path d="M143.117 62.3258C133.61 56.2856 115.857 46.741 91.5258 43.3901C65.2993 39.7788 44.2763 45.1402 33.3913 48.7387C28.8921 50.8773 15.8856 57.7754 7.55747 73.2791C-1.59876 90.3451 0.953889 106.574 1.85457 111.219C1.90153 112.218 2.30705 118.424 7.56601 122.659C14.1909 127.999 22.3398 125.224 22.805 125.058C24.8284 124.2 27.6628 122.753 30.5313 120.319C35.0176 116.512 37.1178 112.38 39.0942 108.508C42.6628 101.516 46.0819 94.8699 50.0005 87.2162C51.8446 82.4396 56.0279 73.6974 65.0219 66.6328C82.869 52.6189 104.477 57.1479 107.742 57.8907C119.532 59.3676 131.327 60.8488 143.117 62.3258Z" fill="url(#paint0_linear_2160_836)"/>
<path d="M63.8271 41.0022C88.8286 35.342 116.34 43.9647 140.816 57.0139C200.334 78.8736 144.854 -22.6304 63.8271 41.0022Z" fill="url(#paint1_linear_2160_836)"/>
<path d="M54.6404 114.37H64.9193V118.148H58.7127V125.089H64.6248V128.866H58.7127V140.754H54.6447V114.37H54.6404Z" fill="black"/>
<path d="M71.3861 128.956V140.754H67.3181V114.37H72.9527C76.9695 114.37 79.3386 115.979 79.3386 120.726V121.729C79.3386 125.784 77.6738 126.813 76.6536 127.231C78.1946 127.953 79.0739 129.063 79.0739 132.644C79.0739 134.864 79.0355 139.154 79.3172 140.75H75.3858C75.0358 139.158 75.1084 134.821 75.1084 132.904C75.1084 129.686 74.6943 128.952 72.3338 128.952H71.3904L71.3861 128.956ZM71.3861 125.596H72.321C74.4723 125.596 75.2663 124.785 75.2663 121.917V121.012C75.2663 118.972 74.8437 117.729 72.5387 117.729H71.3904V125.596H71.3861Z" fill="black"/>
<path d="M92.2 128.705H86.3989V137.016H93.0836L92.5671 140.76H82.3266V114.375H92.5158V118.153H86.3946V124.966H92.1957V128.709L92.2 128.705Z" fill="black"/>
<path d="M98.5989 132.989V134.619C98.5989 136.583 99.188 137.676 100.733 137.676C102.278 137.676 102.731 136.173 102.731 134.462C102.731 131.627 102.121 130.748 99.2904 128.515C96.4518 126.274 94.9364 124.84 94.9364 120.934C94.9364 117.455 95.9865 113.946 100.75 113.951C105.621 113.955 106.372 117.425 106.372 120.29V121.698H102.338V120.396C102.338 118.561 102.027 117.447 100.678 117.447C99.3288 117.447 99.0044 118.595 99.0044 120.345C99.0044 122.211 99.3587 123.124 101.677 124.819C105.625 127.738 106.833 129.433 106.833 133.847C106.833 137.59 105.523 141.138 100.597 141.138C95.6706 141.138 94.5266 138.03 94.5266 134.551V132.985H98.5946L98.5989 132.989Z" fill="black"/>
<path d="M109.339 114.37H113.407V124.785H117.786V114.37H121.854V140.754H117.786V128.529H113.407V140.754H109.339V114.37Z" fill="black"/>
<path d="M130.588 114.37H136.457C140.649 114.37 142.784 116.44 142.784 121.106V122.66C142.784 127.014 141.23 129.908 136.231 129.908H134.66V140.754H130.592V114.37H130.588ZM134.656 126.583H135.77C138.306 126.583 138.741 125.101 138.741 122.527V121.23C138.741 119.313 138.391 117.729 136.133 117.729H134.656V126.583Z" fill="black"/>
<path d="M157.831 121.374V133.694C157.831 138.748 155.684 141.138 151.214 141.138C146.745 141.138 144.995 138.688 144.995 133.762V121.34C144.995 116.286 147.539 113.981 151.47 113.981C155.402 113.981 157.826 116.291 157.826 121.37L157.831 121.374ZM149.14 120.978V134.249C149.14 136.443 149.929 137.472 151.398 137.472C152.977 137.472 153.686 136.511 153.686 134.189V120.948C153.686 118.852 153.041 117.695 151.394 117.695C149.929 117.695 149.14 118.745 149.14 120.978Z" fill="black"/>
<path d="M158.906 118.148V114.37H171.473V118.148H167.213V140.754H163.145V118.148H158.906Z" fill="black"/>
<path d="M175.375 133.698L174.452 140.754H170.312L174.563 114.37H180.313L184.727 140.754H180.476L179.438 133.698H175.375ZM178.952 129.955C178.35 125.473 177.773 121.221 177.47 118.237H177.321C177.206 120.41 176.416 126.062 175.887 129.955H178.952Z" fill="black"/>
<path d="M183.434 118.148V114.37H196.001V118.148H191.74V140.754H187.672V118.148H183.434Z" fill="black"/>
<path d="M210.04 121.374V133.694C210.04 138.748 207.893 141.138 203.424 141.138C198.955 141.138 197.204 138.688 197.204 133.762V121.34C197.204 116.286 199.749 113.981 203.68 113.981C207.611 113.981 210.036 116.291 210.036 121.37L210.04 121.374ZM201.349 120.978V134.249C201.349 136.443 202.139 137.472 203.607 137.472C205.187 137.472 205.895 136.511 205.895 134.189V120.948C205.895 118.852 205.251 117.695 203.603 117.695C202.139 117.695 201.349 118.745 201.349 120.978Z" fill="black"/>
<path d="M54.6404 114.37H64.9193V118.148H58.7127V125.089H64.6248V128.866H58.7127V140.754H54.6447V114.37H54.6404Z" fill="url(#paint2_linear_2160_836)"/>
<path d="M71.3861 128.956V140.754H67.3181V114.37H72.9527C76.9695 114.37 79.3386 115.979 79.3386 120.726V121.729C79.3386 125.784 77.6738 126.813 76.6536 127.231C78.1946 127.953 79.0739 129.063 79.0739 132.644C79.0739 134.864 79.0355 139.154 79.3172 140.75H75.3858C75.0358 139.158 75.1084 134.821 75.1084 132.904C75.1084 129.686 74.6943 128.952 72.3338 128.952H71.3904L71.3861 128.956ZM71.3861 125.596H72.321C74.4723 125.596 75.2663 124.785 75.2663 121.917V121.012C75.2663 118.972 74.8437 117.729 72.5387 117.729H71.3904V125.596H71.3861Z" fill="url(#paint3_linear_2160_836)"/>
<path d="M92.2 128.705H86.3989V137.016H93.0836L92.5671 140.76H82.3266V114.375H92.5158V118.153H86.3946V124.966H92.1957V128.709L92.2 128.705Z" fill="url(#paint4_linear_2160_836)"/>
<path d="M98.5989 132.989V134.619C98.5989 136.583 99.188 137.676 100.733 137.676C102.278 137.676 102.731 136.173 102.731 134.462C102.731 131.627 102.121 130.748 99.2904 128.515C96.4518 126.274 94.9364 124.84 94.9364 120.934C94.9364 117.455 95.9865 113.946 100.75 113.951C105.621 113.955 106.372 117.425 106.372 120.29V121.698H102.338V120.396C102.338 118.561 102.027 117.447 100.678 117.447C99.3288 117.447 99.0044 118.595 99.0044 120.345C99.0044 122.211 99.3587 123.124 101.677 124.819C105.625 127.738 106.833 129.433 106.833 133.847C106.833 137.59 105.523 141.138 100.597 141.138C95.6706 141.138 94.5266 138.03 94.5266 134.551V132.985H98.5946L98.5989 132.989Z" fill="url(#paint5_linear_2160_836)"/>
<path d="M109.339 114.37H113.407V124.785H117.786V114.37H121.854V140.754H117.786V128.529H113.407V140.754H109.339V114.37Z" fill="url(#paint6_linear_2160_836)"/>
<path d="M130.588 114.37H136.457C140.649 114.37 142.784 116.44 142.784 121.106V122.66C142.784 127.014 141.23 129.908 136.231 129.908H134.66V140.754H130.592V114.37H130.588ZM134.656 126.583H135.77C138.306 126.583 138.741 125.101 138.741 122.527V121.23C138.741 119.313 138.391 117.729 136.133 117.729H134.656V126.583Z" fill="url(#paint7_linear_2160_836)"/>
<path d="M157.831 121.374V133.694C157.831 138.748 155.684 141.138 151.214 141.138C146.745 141.138 144.995 138.688 144.995 133.762V121.34C144.995 116.286 147.539 113.981 151.47 113.981C155.402 113.981 157.826 116.291 157.826 121.37L157.831 121.374ZM149.14 120.978V134.249C149.14 136.443 149.929 137.472 151.398 137.472C152.977 137.472 153.686 136.511 153.686 134.189V120.948C153.686 118.852 153.041 117.695 151.394 117.695C149.929 117.695 149.14 118.745 149.14 120.978Z" fill="url(#paint8_linear_2160_836)"/>
<path d="M158.906 118.148V114.37H171.473V118.148H167.213V140.754H163.145V118.148H158.906Z" fill="url(#paint9_linear_2160_836)"/>
<path d="M175.375 133.698L174.452 140.754H170.312L174.563 114.37H180.313L184.727 140.754H180.476L179.438 133.698H175.375ZM178.952 129.955C178.35 125.473 177.773 121.221 177.47 118.237H177.321C177.206 120.41 176.416 126.062 175.887 129.955H178.952Z" fill="url(#paint10_linear_2160_836)"/>
<path d="M183.434 118.148V114.37H196.001V118.148H191.74V140.754H187.672V118.148H183.434Z" fill="url(#paint11_linear_2160_836)"/>
<path d="M210.04 121.374V133.694C210.04 138.748 207.893 141.138 203.424 141.138C198.955 141.138 197.204 138.688 197.204 133.762V121.34C197.204 116.286 199.749 113.981 203.68 113.981C207.611 113.981 210.036 116.291 210.036 121.37L210.04 121.374ZM201.349 120.978V134.249C201.349 136.443 202.139 137.472 203.607 137.472C205.187 137.472 205.895 136.511 205.895 134.189V120.948C205.895 118.852 205.251 117.695 203.603 117.695C202.139 117.695 201.349 118.745 201.349 120.978Z" fill="url(#paint12_linear_2160_836)"/>
<path d="M61.4881 162.932C60.2976 162.932 59.2717 162.818 58.4105 162.595C57.5493 162.372 56.8388 161.964 56.2788 161.38C55.7188 160.791 55.3046 159.946 55.0411 158.844C54.7729 157.742 54.6411 156.312 54.6411 154.558C54.6411 152.905 54.7776 151.543 55.0552 150.462C55.3282 149.381 55.7517 148.54 56.3211 147.926C56.8905 147.316 57.6199 146.887 58.5046 146.643C59.3893 146.399 60.4482 146.273 61.6764 146.273C62.1376 146.273 62.6834 146.294 63.314 146.341C63.9446 146.387 64.5987 146.446 65.2717 146.517C65.9446 146.593 66.5705 146.69 67.1352 146.807V147.766C66.8528 147.707 66.4246 147.657 65.8552 147.611C65.2858 147.564 64.6505 147.526 63.9493 147.489C63.2481 147.451 62.5517 147.434 61.8552 147.434C60.8246 147.434 59.9493 147.535 59.2293 147.737C58.5093 147.939 57.9258 148.296 57.4835 148.809C57.0411 149.322 56.7117 150.046 56.4952 150.975C56.2788 151.905 56.1752 153.099 56.1752 154.558C56.1752 156.089 56.2788 157.334 56.4811 158.284C56.6835 159.239 57.0035 159.963 57.4411 160.463C57.874 160.963 58.4482 161.304 59.1587 161.489C59.8693 161.674 60.7305 161.767 61.7423 161.767C63.074 161.767 64.1705 161.733 65.0364 161.666C65.8975 161.599 66.594 161.535 67.1305 161.477V162.435C66.5799 162.524 65.9728 162.608 65.3187 162.679C64.6599 162.755 64.0058 162.814 63.347 162.856C62.6881 162.902 62.067 162.923 61.4834 162.923L61.4881 162.932Z" fill="white"/>
<path d="M70.5514 162.803V146.418H72.0996V154.253H82.6549V146.418H84.1984V162.803H82.6549V155.414H72.0996V162.803H70.5514Z" fill="white"/>
<path d="M88.5422 162.803V146.418H90.0904V162.803H88.5422Z" fill="white"/>
<path d="M94.4336 162.803V146.418H102.057C102.627 146.418 103.201 146.481 103.775 146.607C104.354 146.733 104.89 146.973 105.389 147.322C105.888 147.671 106.283 148.184 106.575 148.861C106.867 149.538 107.012 150.426 107.012 151.528C107.012 152.63 106.852 153.546 106.532 154.24C106.212 154.934 105.794 155.464 105.281 155.839C104.763 156.209 104.208 156.465 103.615 156.596C103.017 156.73 102.457 156.797 101.921 156.797C101.652 156.797 101.248 156.797 100.707 156.785C100.165 156.776 99.5819 156.764 98.9607 156.739C98.3395 156.717 97.756 156.692 97.2148 156.671C96.6736 156.65 96.2595 156.625 95.9772 156.591V162.799H94.4289L94.4336 162.803ZM101.737 155.637C102.41 155.637 103.036 155.519 103.601 155.279C104.17 155.039 104.622 154.627 104.961 154.038C105.299 153.45 105.469 152.613 105.469 151.528C105.469 150.443 105.299 149.656 104.961 149.084C104.622 148.512 104.194 148.117 103.667 147.902C103.144 147.688 102.57 147.579 101.949 147.579H95.9772V155.637H101.737Z" fill="white"/>
<path d="M115.86 162.933C115.488 162.933 115.036 162.925 114.514 162.912C113.991 162.895 113.441 162.87 112.862 162.832C112.283 162.794 111.742 162.757 111.234 162.719C110.726 162.681 110.316 162.635 109.996 162.572V161.592C110.406 161.621 110.923 161.651 111.554 161.68C112.184 161.709 112.867 161.73 113.606 161.747C114.344 161.764 115.074 161.768 115.803 161.768C116.636 161.768 117.403 161.697 118.095 161.558C118.787 161.415 119.337 161.15 119.747 160.755C120.156 160.359 120.359 159.783 120.359 159.026V157.777C120.359 156.944 120.109 156.305 119.61 155.855C119.111 155.409 118.297 155.186 117.159 155.186H114.895C113.366 155.186 112.166 154.909 111.286 154.35C110.406 153.79 109.968 152.806 109.968 151.393V150.434C109.968 148.903 110.448 147.827 111.408 147.208C112.368 146.59 113.709 146.283 115.431 146.283C115.963 146.283 116.58 146.304 117.286 146.35C117.987 146.397 118.674 146.447 119.351 146.506C120.024 146.565 120.57 146.624 120.98 146.683V147.667C120.217 147.621 119.347 147.574 118.368 147.52C117.389 147.469 116.457 147.44 115.568 147.44C114.679 147.44 113.982 147.524 113.37 147.696C112.759 147.869 112.288 148.171 111.959 148.613C111.629 149.05 111.464 149.673 111.464 150.476V151.347C111.464 152.343 111.77 153.025 112.382 153.391C112.994 153.757 113.841 153.937 114.928 153.937H117.3C118.349 153.937 119.21 154.097 119.883 154.417C120.556 154.736 121.055 155.174 121.375 155.733C121.695 156.293 121.855 156.928 121.855 157.643V159.005C121.855 160.061 121.577 160.872 121.027 161.44C120.476 162.008 119.747 162.395 118.843 162.614C117.94 162.832 116.942 162.937 115.86 162.937V162.933Z" fill="white"/>
<path d="M136.258 162.932C135.272 162.932 134.422 162.818 133.709 162.595C132.996 162.373 132.408 161.965 131.944 161.38C131.481 160.791 131.138 159.946 130.92 158.844C130.698 157.742 130.589 156.312 130.589 154.558C130.589 152.906 130.702 151.543 130.931 150.462C131.157 149.381 131.508 148.54 131.98 147.926C132.451 147.316 133.055 146.887 133.787 146.643C134.52 146.4 135.396 146.273 136.413 146.273C136.795 146.273 137.247 146.294 137.769 146.341C138.291 146.387 138.833 146.446 139.39 146.517C139.947 146.593 140.465 146.69 140.933 146.807V147.766C140.699 147.707 140.345 147.657 139.873 147.611C139.402 147.564 138.876 147.527 138.295 147.489C137.715 147.451 137.138 147.434 136.561 147.434C135.708 147.434 134.984 147.535 134.387 147.737C133.791 147.939 133.308 148.296 132.942 148.809C132.576 149.322 132.303 150.046 132.124 150.975C131.944 151.905 131.859 153.099 131.859 154.558C131.859 156.089 131.944 157.334 132.112 158.285C132.28 159.239 132.544 159.963 132.907 160.463C133.265 160.964 133.741 161.304 134.329 161.489C134.917 161.674 135.63 161.767 136.468 161.767C137.571 161.767 138.478 161.733 139.191 161.666C139.904 161.599 140.481 161.536 140.925 161.477V162.436C140.469 162.524 139.967 162.608 139.425 162.68C138.88 162.755 138.338 162.814 137.793 162.856C137.247 162.902 136.733 162.923 136.25 162.923L136.258 162.932Z" fill="white"/>
<path d="M149.279 162.932C148.262 162.932 147.369 162.835 146.598 162.641C145.827 162.448 145.188 162.074 144.677 161.514C144.167 160.955 143.785 160.126 143.528 159.025C143.271 157.923 143.142 156.48 143.142 154.693C143.142 152.905 143.271 151.438 143.528 150.327C143.785 149.217 144.175 148.372 144.697 147.783C145.219 147.194 145.862 146.799 146.629 146.589C147.393 146.378 148.277 146.277 149.279 146.277C150.28 146.277 151.231 146.382 152.006 146.589C152.777 146.799 153.416 147.194 153.927 147.783C154.437 148.372 154.807 149.221 155.053 150.327C155.294 151.438 155.415 152.893 155.415 154.693C155.415 156.493 155.29 157.923 155.041 159.025C154.792 160.126 154.41 160.955 153.896 161.514C153.381 162.074 152.742 162.448 151.975 162.641C151.211 162.835 150.311 162.932 149.283 162.932H149.279ZM149.279 161.771C150.147 161.771 150.888 161.687 151.507 161.514C152.127 161.342 152.629 161.014 153.019 160.522C153.409 160.03 153.693 159.319 153.868 158.389C154.044 157.46 154.133 156.228 154.133 154.693C154.133 153.158 154.04 151.799 153.857 150.832C153.674 149.865 153.385 149.137 152.996 148.653C152.606 148.17 152.103 147.846 151.496 147.682C150.884 147.518 150.147 147.438 149.279 147.438C148.484 147.438 147.782 147.522 147.171 147.682C146.559 147.846 146.053 148.17 145.647 148.653C145.242 149.137 144.938 149.865 144.732 150.832C144.525 151.799 144.424 153.086 144.424 154.693C144.424 156.299 144.51 157.456 144.677 158.389C144.845 159.319 145.121 160.03 145.503 160.522C145.885 161.014 146.384 161.346 147.003 161.514C147.623 161.687 148.379 161.771 149.275 161.771H149.279Z" fill="white"/>
<path d="M158.591 162.803V146.418H164.879C165.366 146.418 165.849 146.473 166.336 146.586C166.823 146.7 167.264 146.914 167.661 147.234C168.058 147.553 168.374 148.024 168.612 148.651C168.845 149.278 168.966 150.094 168.966 151.107C168.966 152.045 168.865 152.806 168.658 153.395C168.452 153.984 168.187 154.442 167.864 154.766C167.54 155.094 167.186 155.33 166.804 155.468C166.422 155.611 166.06 155.704 165.721 155.746L169.118 162.799H167.836L164.505 155.876C164.256 155.876 163.932 155.876 163.535 155.864C163.138 155.851 162.717 155.847 162.276 155.843C161.836 155.834 161.4 155.826 160.975 155.809C160.547 155.792 160.18 155.788 159.873 155.788V162.799H158.591V162.803ZM159.873 154.812H164.727C165.125 154.812 165.499 154.766 165.853 154.678C166.208 154.589 166.523 154.413 166.804 154.152C167.084 153.891 167.299 153.517 167.455 153.025C167.61 152.533 167.684 151.894 167.684 151.103C167.684 150.312 167.603 149.732 167.443 149.274C167.279 148.811 167.061 148.458 166.78 148.214C166.5 147.97 166.184 147.802 165.83 147.713C165.475 147.625 165.109 147.579 164.727 147.579H159.873V154.812Z" fill="white"/>
<path d="M172.227 162.803V146.418H173.31L182.271 160.549V146.418H183.549V162.803H182.49L173.509 148.672V162.803H172.227Z" fill="white"/>
<path d="M190.08 162.89C189.713 162.89 189.339 162.856 188.965 162.789C188.591 162.721 188.237 162.587 187.905 162.385C187.574 162.183 187.305 161.88 187.099 161.468C186.892 161.06 186.791 160.514 186.791 159.828V149.558C186.791 148.948 186.881 148.443 187.056 148.04C187.231 147.636 187.469 147.316 187.761 147.081C188.054 146.841 188.381 146.673 188.743 146.568C189.102 146.463 189.468 146.412 189.834 146.412C190.672 146.429 191.47 146.442 192.23 146.458C192.986 146.475 193.722 146.492 194.435 146.513C195.148 146.534 195.846 146.563 196.52 146.593V147.598H190.099C189.48 147.598 188.989 147.766 188.622 148.103C188.256 148.439 188.069 148.977 188.069 149.722V154.075L195.593 154.184V155.143L188.069 155.256V159.588C188.069 160.198 188.174 160.652 188.389 160.951C188.603 161.249 188.876 161.447 189.215 161.544C189.554 161.641 189.896 161.687 190.251 161.687H196.52V162.692C195.842 162.721 195.141 162.747 194.412 162.772C193.683 162.793 192.959 162.818 192.238 162.839C191.517 162.86 190.796 162.881 190.076 162.894L190.08 162.89Z" fill="white"/>
<path d="M199.68 162.803V146.418H205.968C206.455 146.418 206.938 146.473 207.425 146.586C207.912 146.7 208.353 146.914 208.75 147.234C209.147 147.553 209.463 148.024 209.701 148.651C209.934 149.278 210.055 150.094 210.055 151.107C210.055 152.045 209.954 152.806 209.747 153.395C209.541 153.984 209.276 154.442 208.953 154.766C208.629 155.094 208.275 155.33 207.893 155.468C207.511 155.611 207.149 155.704 206.81 155.746L210.207 162.799H208.925L205.594 155.876C205.345 155.876 205.021 155.876 204.624 155.864C204.226 155.851 203.806 155.847 203.365 155.843C202.925 155.834 202.489 155.826 202.064 155.809C201.636 155.792 201.269 155.788 200.961 155.788V162.799H199.68V162.803ZM200.961 154.812H205.816C206.214 154.812 206.588 154.766 206.942 154.678C207.297 154.589 207.612 154.413 207.893 154.152C208.173 153.891 208.388 153.517 208.543 153.025C208.699 152.533 208.773 151.894 208.773 151.103C208.773 150.312 208.691 149.732 208.532 149.274C208.368 148.811 208.15 148.458 207.869 148.214C207.589 147.97 207.273 147.802 206.919 147.713C206.564 147.625 206.198 147.579 205.816 147.579H200.961V154.812Z" fill="white"/>
<path d="M79.1166 21.8775C77.8711 22.6569 76.9769 22.2114 76.2038 21.534C75.2097 20.6638 74.8816 18.7172 75.3983 17.3927C75.882 16.162 76.7088 15.7361 79.0087 15.6116C78.3935 13.4558 77.7894 11.333 77.2129 9.30401C77.626 8.86769 77.9785 8.49213 78.4577 7.98953C79.1736 11.1381 79.8617 14.1819 80.5554 17.2312C80.7163 17.9315 80.8055 18.6649 81.0933 19.3099C81.3035 19.7785 81.7783 20.1308 82.2369 20.6487C82.0328 20.6876 81.3934 20.9973 81.167 20.8101C80.7363 20.4577 79.9255 20.4533 79.9517 19.499C79.9782 18.6716 79.6957 17.8005 79.4023 17.0011C79.2528 16.5986 78.7721 16.0367 78.4577 16.0482C77.8124 16.0711 76.9191 16.2378 76.5832 16.685C75.416 18.2256 76.9926 21.588 79.1221 21.8775L79.1166 21.8775Z" fill="#FBF7FF"/>
<path d="M105.716 7.53238C106.587 7.06234 106.979 7.68509 107.245 8.36318C107.666 9.42715 108.009 10.5243 108.386 11.6104C108.552 12.0846 108.718 12.5532 108.884 13.0273C109.033 13.0381 109.188 13.049 109.336 13.0598C109.699 11.6141 110.254 10.1903 110.373 8.72844C110.481 7.3714 110.988 6.66468 112.389 6.41455C111.09 8.82675 112.891 10.5066 113.555 12.4583C113.704 12.4691 113.853 12.4799 114.002 12.4963C114.359 11.0948 114.809 9.71521 115.05 8.29179C115.362 6.50424 115.29 6.48779 117.175 5.59164C116.389 7.44604 115.74 9.11271 114.97 10.7189C114.585 11.5192 114.77 13.0909 113.379 12.7729C112.75 12.6304 112.368 11.3733 111.903 10.6017C111.71 10.2821 111.616 9.90161 111.317 9.15187C110.745 10.4323 110.338 11.4533 109.826 12.4193C109.59 12.8664 109.144 13.1979 108.797 13.5845C108.432 13.221 107.919 12.9183 107.731 12.4828C107.282 11.4299 107.022 10.2995 106.617 9.23002C106.402 8.65667 106.042 8.13868 105.716 7.54342L105.716 7.53238Z" fill="#FBF7FF"/>
<path d="M139.198 0.228464C139.65 0.167169 140.114 0.10586 140.886 0C140.281 1.55629 139.726 2.93601 139.198 4.33224C138.28 6.77149 137.407 9.22723 136.456 11.6555C136.318 12.0087 135.844 12.23 135.53 12.5117L135.249 12.1977C136.545 8.26314 137.841 4.32858 139.193 0.228471L139.198 0.228464Z" fill="#FBF7FF"/>
<path d="M69.3979 26.3252C68.2464 27.2534 67.2309 26.8577 66.3692 25.9212C64.4468 23.8443 65.3142 20.8426 68.0213 20.028C68.6444 19.8396 69.2286 19.5134 69.9783 19.1869C70.2334 20.1629 70.3894 21.3044 70.8376 22.3132C71.2193 23.1787 71.1993 24.6956 73.1126 24.1303C71.8956 25.6102 71.3974 24.3202 70.7901 23.8908C70.3664 24.6746 69.9428 25.464 69.5192 26.2533C70.4153 24.0844 69.6625 22.1659 68.7001 20.2753C66.7426 20.7303 66.2471 21.3873 66.4481 23.1576C66.677 25.1375 67.7928 26.3329 69.4034 26.3197L69.3979 26.3252Z" fill="#FBF7FF"/>
<path d="M183.645 36.5489C180.887 36.7954 178.867 35.3641 178.301 33.0316C177.879 31.3168 179.041 29.7432 181.02 29.3599C182.928 28.9822 184.761 30.0553 185.017 31.7097C185.173 32.7078 184.727 33.3538 183.74 33.3662C182.968 33.3783 182.189 33.109 181.455 32.6743C181.753 32.6739 182.09 32.7672 182.343 32.6565C182.917 32.402 183.551 32.1474 183.953 31.7001C184.156 31.4737 184.067 30.5857 183.841 30.4482C183.322 30.1345 182.61 29.9038 182.02 29.9818C180.647 30.1602 179.127 31.9604 179.15 33.1629C179.18 34.4701 180.539 35.8803 182.15 36.2531C182.646 36.3683 183.154 36.4503 183.656 36.5489L183.645 36.5489Z" fill="#FBF7FF"/>
<path d="M164.849 17.8323C164.717 18.0862 164.585 18.3456 164.447 18.5996C164.09 19.262 163.539 19.897 163.419 20.5977C163.32 21.1991 163.531 22.0813 163.945 22.4779C164.315 22.8304 165.369 22.9779 165.744 22.7071C166.669 22.0329 167.556 21.1602 168.095 20.1666C168.376 19.6477 168.033 18.6277 167.662 18.016C167.535 17.8066 166.482 18.1555 166.002 18.2279C166.26 17.5105 167.303 17.2222 168.274 17.8773C169.561 18.7415 169.751 20.4235 168.721 21.7984C167.433 23.5156 164.923 23.9272 163.366 22.6717C162.047 21.609 161.857 19.9931 162.98 18.7946C163.432 18.3086 164.033 17.9658 164.567 17.5569C164.661 17.6505 164.749 17.7442 164.843 17.8378L164.849 17.8323Z" fill="#FBF7FF"/>
<path d="M162.088 7.71442C163.313 8.21468 163.507 8.93147 162.56 10.3669C160.98 12.7574 159.345 15.1094 157.799 17.5219C157.502 17.9801 157.508 18.631 157.354 19.2766C156.301 19.1401 156.057 18.5503 156.888 17.1812C158.352 14.7743 159.893 12.4224 161.33 9.99901C161.715 9.35313 161.824 8.54767 162.093 7.7089L162.088 7.71442Z" fill="#FBF7FF"/>
<path d="M130.367 11.8847C129.181 12.3883 128.453 11.9646 128.589 10.3813C128.708 9.01876 129.043 7.67244 129.3 6.24349C128.936 6.16125 128.588 6.07899 128.241 6.00224C129.807 6.14351 129.761 4.86941 129.953 3.97007C130.205 2.76176 130.817 2.38033 132.086 2.68196C131.663 3.69745 131.272 4.64671 130.827 5.72291C131.462 5.87096 132.024 5.99705 132.891 6.19995C131.749 6.53247 130.402 5.70694 130.217 7.40607C130.108 8.39355 129.624 9.34294 129.57 10.3248C129.543 10.8213 130.079 11.3556 130.372 11.8902L130.367 11.8847Z" fill="#FBF7FF"/>
<path d="M174.076 21.6034C174.121 22.1329 174.348 22.7338 174.178 23.1753C173.733 24.3287 173.105 25.4162 172.561 26.5311C172.363 26.9396 172.176 27.348 171.983 27.7619C172.083 27.8832 172.188 27.9988 172.287 28.1201C173.963 27.1194 175.638 26.1187 177.462 25.0351C177.827 25.1891 178.384 25.42 179.024 25.6838C176.836 26.6135 174.768 27.532 172.657 28.3512C172.315 28.4841 171.73 28.2753 171.393 28.0385C171.206 27.9064 171.144 27.3273 171.26 27.0569C171.722 26.0083 172.305 25.0146 172.8 23.9825C173.152 23.2429 173.438 22.4703 173.757 21.7142C173.867 21.6809 173.972 21.6422 174.082 21.6089L174.076 21.6034Z" fill="#FBF7FF"/>
<path d="M87.1784 12.2903C85.9336 13.5827 86.2886 14.9888 86.8807 16.411C87.3068 17.4309 88.1457 17.8048 89.1772 17.7979C90.9091 17.7845 92.3471 16.5635 93.3038 14.3338C93.4499 16.2862 91.3621 18.2417 88.9849 18.3608C87.6281 18.4288 86.3261 18.221 85.6734 16.865C85.0262 15.52 85.1953 14.1463 86.1148 12.9482C86.3515 12.6389 86.8478 12.5335 87.2226 12.3344L87.1895 12.2903L87.1784 12.2903Z" fill="#FBF7FF"/>
<path d="M57.5891 26.4417C57.9057 28.0132 58.2498 29.5737 58.5167 31.1564C58.5891 31.6031 58.4298 32.0887 58.3752 32.5521L57.8788 32.5418C57.3752 31.3235 56.9267 30.083 56.3515 28.9034C56.0583 28.3026 55.5281 27.8124 55.1026 27.2669C54.651 27.764 54.1994 28.2555 53.7478 28.7525C53.6816 28.7306 53.6098 28.7086 53.5436 28.6866C53.9674 28.0352 54.2529 27.0806 54.8428 26.8205C55.4381 26.5604 56.3378 26.9894 57.2536 27.1371C57.2481 27.1481 57.4352 26.8114 57.6223 26.4692L57.5891 26.4417Z" fill="#FBF7FF"/>
<path d="M167.549 28.336C163.928 29.9681 160.392 29.8351 157.074 27.6554C154.369 25.8775 152.914 23.3091 152.844 20.0273C153.444 23.3966 155.102 26.042 158.161 27.7146C161.185 29.3707 164.33 29.427 167.549 28.336Z" fill="#FBF7FF"/>
<path d="M141.385 14.6928C140.105 14.0106 139.949 12.9076 140.223 11.6938C140.404 10.9047 140.767 10.1541 140.926 9.36511C141.057 8.70303 141.001 8.00812 141.028 7.32412C140.316 7.38577 139.605 7.45293 138.761 7.5258C139.494 6.81325 140.337 6.42599 141.352 6.82725C142.357 7.22301 142.639 8.05 142.26 9.06543C142.024 9.68904 141.76 10.3072 141.479 10.9143C140.913 12.1561 140.529 13.3922 141.391 14.6983L141.385 14.6928Z" fill="#FBF7FF"/>
<path d="M57.6223 26.4692C57.2346 25.3335 57.8344 24.7087 58.8103 24.4315C59.7917 24.1544 60.5095 24.6499 60.8527 25.5705C61.279 26.7227 61.6281 27.9027 62.0602 29.2148C62.5286 28.9329 62.8317 28.7504 63.4325 28.3911C63.0913 28.9762 62.9706 29.4563 62.6785 29.6111C62.3533 29.7826 61.6639 29.8331 61.4926 29.6293C61.0451 29.0949 60.7739 28.4058 60.4641 27.7608C60.2539 27.3309 60.165 26.8346 59.8997 26.4433C59.5736 25.9584 59.1262 25.5508 58.7285 25.1101C58.343 25.5519 57.963 25.9937 57.583 26.441L57.6217 26.474L57.6223 26.4692Z" fill="#FBF7FF"/>
<path d="M121.467 6.07618C121.99 5.82173 122.492 5.58386 123.032 5.32939C122.742 6.87974 122.452 8.40802 122.167 9.93629C122.003 10.8356 122.086 11.536 123.559 11.0706C123.487 11.2307 123.421 11.3907 123.35 11.5563C122.798 11.6398 122.126 11.9441 121.734 11.735C121.375 11.5425 121.148 10.7871 121.158 10.2852C121.178 8.90619 121.347 7.53252 121.467 6.08169L121.467 6.07618Z" fill="#FBF7FF"/>
<path d="M53.998 30.3572C54.2812 31.7193 54.5644 33.0813 54.82 34.4544C54.8311 34.515 54.5224 34.6313 54.3736 34.7197C53.5385 33.1268 52.6925 31.6001 51.9402 30.0291C51.8019 29.7425 52.0439 29.2733 52.1534 28.6168C52.7447 29.4158 53.1867 30.0164 53.6288 30.6115C53.7501 30.5286 53.8768 30.4457 53.998 30.3628L53.998 30.3572Z" fill="#FBF7FF"/>
<path d="M174.262 16.6999C173.351 11.5769 169.383 10.0104 165.073 8.83588C170.418 9.00505 174.229 12.1825 174.262 16.6999Z" fill="#FBF7FF"/>
<path d="M87.2169 12.3397C87.9659 11.5223 89.3225 11.3494 90.035 12.0214C90.869 12.798 90.5281 13.5982 89.9389 14.3051C89.5314 14.7965 88.9969 15.1834 88.771 15.3823C88.8747 14.5934 89.1106 13.6443 89.0321 12.7123C89.0153 12.5192 87.824 12.4273 87.1784 12.2903L87.2169 12.3397Z" fill="#FBF7FF"/>
<path d="M122.979 4.04743C122.98 4.37017 122.698 4.63219 122.35 4.63266C122.002 4.63314 121.72 4.3719 121.72 4.04916C121.719 3.72642 122.001 3.4644 122.349 3.46392C122.696 3.46345 122.979 3.72469 122.979 4.04743Z" fill="#D9D9D9"/>
<defs>
<linearGradient id="paint0_linear_2160_836" x1="-7.18807" y1="82.7639" x2="203.006" y2="80.6545" gradientUnits="userSpaceOnUse">
<stop stop-color="#FDB619"/>
<stop offset="0.13" stop-color="#E7A61F"/>
<stop offset="0.32" stop-color="#CF9627"/>
<stop offset="0.51" stop-color="#BF8A2C"/>
<stop offset="0.73" stop-color="#B5832F"/>
<stop offset="1" stop-color="#B28131"/>
</linearGradient>
<linearGradient id="paint1_linear_2160_836" x1="96.4991" y1="158.128" x2="180.768" y2="44.1263" gradientUnits="userSpaceOnUse">
<stop stop-color="#C38E2E"/>
<stop offset="0.2" stop-color="#C99733"/>
<stop offset="0.53" stop-color="#DCB241"/>
<stop offset="0.96" stop-color="#FADE59"/>
<stop offset="1" stop-color="#FEE35C"/>
</linearGradient>
<linearGradient id="paint2_linear_2160_836" x1="0.834473" y1="81.3764" x2="3167.55" y2="81.3764" gradientUnits="userSpaceOnUse">
<stop stop-color="#FDB619"/>
<stop offset="0.13" stop-color="#E7A61F"/>
<stop offset="0.32" stop-color="#CF9627"/>
<stop offset="0.51" stop-color="#BF8A2C"/>
<stop offset="0.73" stop-color="#B5832F"/>
<stop offset="1" stop-color="#B28131"/>
</linearGradient>
<linearGradient id="paint3_linear_2160_836" x1="-220.082" y1="81.3764" x2="2487.82" y2="81.3764" gradientUnits="userSpaceOnUse">
<stop stop-color="#FDB619"/>
<stop offset="0.13" stop-color="#E7A61F"/>
<stop offset="0.32" stop-color="#CF9627"/>
<stop offset="0.51" stop-color="#BF8A2C"/>
<stop offset="0.73" stop-color="#B5832F"/>
<stop offset="1" stop-color="#B28131"/>
</linearGradient>
<linearGradient id="paint4_linear_2160_836" x1="-538.28" y1="81.3501" x2="2487.7" y2="81.3501" gradientUnits="userSpaceOnUse">
<stop stop-color="#FDB619"/>
<stop offset="0.13" stop-color="#E7A61F"/>
<stop offset="0.32" stop-color="#CF9627"/>
<stop offset="0.51" stop-color="#BF8A2C"/>
<stop offset="0.73" stop-color="#B5832F"/>
<stop offset="1" stop-color="#B28131"/>
</linearGradient>
<linearGradient id="paint5_linear_2160_836" x1="-678.046" y1="81.4815" x2="1966.93" y2="81.4815" gradientUnits="userSpaceOnUse">
<stop stop-color="#FDB619"/>
<stop offset="0.13" stop-color="#E7A61F"/>
<stop offset="0.32" stop-color="#CF9627"/>
<stop offset="0.51" stop-color="#BF8A2C"/>
<stop offset="0.73" stop-color="#B5832F"/>
<stop offset="1" stop-color="#B28131"/>
</linearGradient>
<linearGradient id="paint6_linear_2160_836" x1="-914.597" y1="81.3764" x2="1686.17" y2="81.3764" gradientUnits="userSpaceOnUse">
<stop stop-color="#FDB619"/>
<stop offset="0.13" stop-color="#E7A61F"/>
<stop offset="0.32" stop-color="#CF9627"/>
<stop offset="0.51" stop-color="#BF8A2C"/>
<stop offset="0.73" stop-color="#B5832F"/>
<stop offset="1" stop-color="#B28131"/>
</linearGradient>
<linearGradient id="paint7_linear_2160_836" x1="-1303.59" y1="81.3764" x2="1365.45" y2="81.3764" gradientUnits="userSpaceOnUse">
<stop stop-color="#FDB619"/>
<stop offset="0.13" stop-color="#E7A61F"/>
<stop offset="0.32" stop-color="#CF9627"/>
<stop offset="0.51" stop-color="#BF8A2C"/>
<stop offset="0.73" stop-color="#B5832F"/>
<stop offset="1" stop-color="#B28131"/>
</linearGradient>
<linearGradient id="paint8_linear_2160_836" x1="-1473.62" y1="81.3919" x2="1062.28" y2="81.3919" gradientUnits="userSpaceOnUse">
<stop stop-color="#FDB619"/>
<stop offset="0.13" stop-color="#E7A61F"/>
<stop offset="0.32" stop-color="#CF9627"/>
<stop offset="0.51" stop-color="#BF8A2C"/>
<stop offset="0.73" stop-color="#B5832F"/>
<stop offset="1" stop-color="#B28131"/>
</linearGradient>
<linearGradient id="paint9_linear_2160_836" x1="-1737.04" y1="81.3764" x2="853.125" y2="81.3764" gradientUnits="userSpaceOnUse">
<stop stop-color="#FDB619"/>
<stop offset="0.13" stop-color="#E7A61F"/>
<stop offset="0.32" stop-color="#CF9627"/>
<stop offset="0.51" stop-color="#BF8A2C"/>
<stop offset="0.73" stop-color="#B5832F"/>
<stop offset="1" stop-color="#B28131"/>
</linearGradient>
<linearGradient id="paint10_linear_2160_836" x1="-1679.95" y1="81.3764" x2="578.111" y2="81.3764" gradientUnits="userSpaceOnUse">
<stop stop-color="#FDB619"/>
<stop offset="0.13" stop-color="#E7A61F"/>
<stop offset="0.32" stop-color="#CF9627"/>
<stop offset="0.51" stop-color="#BF8A2C"/>
<stop offset="0.73" stop-color="#B5832F"/>
<stop offset="1" stop-color="#B28131"/>
</linearGradient>
<linearGradient id="paint11_linear_2160_836" x1="-2145.86" y1="81.3764" x2="444.304" y2="81.3764" gradientUnits="userSpaceOnUse">
<stop stop-color="#FDB619"/>
<stop offset="0.13" stop-color="#E7A61F"/>
<stop offset="0.32" stop-color="#CF9627"/>
<stop offset="0.51" stop-color="#BF8A2C"/>
<stop offset="0.73" stop-color="#B5832F"/>
<stop offset="1" stop-color="#B28131"/>
</linearGradient>
<linearGradient id="paint12_linear_2160_836" x1="-2325.61" y1="81.3919" x2="210.296" y2="81.3919" gradientUnits="userSpaceOnUse">
<stop stop-color="#FDB619"/>
<stop offset="0.13" stop-color="#E7A61F"/>
<stop offset="0.32" stop-color="#CF9627"/>
<stop offset="0.51" stop-color="#BF8A2C"/>
<stop offset="0.73" stop-color="#B5832F"/>
<stop offset="1" stop-color="#B28131"/>
</linearGradient>
</defs>
</svg>
