<svg width="370" height="125" viewBox="0 0 370 125" fill="none" xmlns="http://www.w3.org/2000/svg">
<g clip-path="url(#clip0_2228_321)">
<path d="M3.55469 47.2303C3.55469 46.289 4.05087 45.4191 4.85726 44.9463L21.97 34.9132C22.8425 34.4016 23.9363 35.0368 23.9363 36.0551V108.714C23.9363 109.219 23.5307 109.628 23.0304 109.628H4.46053C3.96025 109.628 3.55469 109.219 3.55469 108.714V47.2303Z" fill="url(#paint0_linear_2228_321)"/>
<path d="M3.55469 44.2416C3.55469 43.9152 3.72716 43.6136 4.00719 43.4503L22.5771 32.6182C23.181 32.2659 23.9363 32.7057 23.9363 33.4096V70.7803C23.9363 71.5379 23.3279 72.1516 22.5775 72.1516H4.91347C4.16303 72.1516 3.55469 71.5379 3.55469 70.7803V44.2416Z" fill="url(#paint1_linear_2228_321)"/>
<path d="M55.0519 31.5108L5.37389 60.2937C4.24857 60.9454 3.55469 62.1551 3.55469 63.4643V84.8349L57.311 53.5163C58.4322 52.8633 59.1228 51.6563 59.1228 50.3502V33.8889C59.1228 31.7808 56.8638 30.4611 55.0519 31.5108Z" fill="url(#paint2_linear_2228_321)"/>
<path fill-rule="evenodd" clip-rule="evenodd" d="M5.74465 83.5622C4.44085 84.2709 3.55474 85.6611 3.55474 87.2604C3.55474 87.2709 3.55478 87.2813 3.55485 87.2917L3.55469 82.3086L5.74465 83.5622Z" fill="#6501E5"/>
<path fill-rule="evenodd" clip-rule="evenodd" d="M57.188 53.5891C57.3688 53.1547 57.4683 52.6777 57.4683 52.1767C57.4683 51.3988 57.2275 50.6774 56.8171 50.085L59.1336 48.7617V50.3448C59.1336 51.6499 58.4442 52.8564 57.3244 53.5099L57.188 53.5891Z" fill="#9327FE"/>
<path d="M56.8482 50.1465C56.2271 48.2196 24.3703 26.6252 2.44342 11.6659C1.70363 11.1612 2.0619 9.99823 2.95491 9.99823L29.0698 9.99805C29.2535 9.99805 29.433 10.0544 29.5842 10.1597L57.5694 29.642C58.5498 30.3245 59.1355 31.4496 59.1355 32.6515V48.8052L56.8482 50.1465Z" fill="#9327FE"/>
<path d="M72.1921 70.1052C71.4315 69.8735 70.291 69.7188 69.1501 69.7188C66.108 69.7188 61.3164 70.956 59.339 75.2879V70.1052H48.1592V108.547H59.7193V91.7627C59.7193 84.1055 63.9023 81.3209 68.5415 81.3209C69.6824 81.3209 70.8992 81.3983 72.1921 81.7074V70.1052Z" fill="#0556F3"/>
<path d="M96.099 98.8786C91.7639 98.8786 87.5809 95.7076 87.5809 89.2876C87.5809 82.7903 91.7639 79.774 96.099 79.774C100.51 79.774 104.617 82.7903 104.617 89.2876C104.617 95.785 100.51 98.8786 96.099 98.8786ZM96.099 68.9453C84.8429 68.9453 76.0208 77.376 76.0208 89.2876C76.0208 101.199 84.8429 109.707 96.099 109.707C107.431 109.707 116.177 101.199 116.177 89.2876C116.177 77.376 107.431 68.9453 96.099 68.9453Z" fill="#0556F3"/>
<path d="M120.956 110.712C122.021 117.596 128.942 124.403 139.818 124.403C153.963 124.403 160.048 114.812 160.048 103.751V70.1042H149.02V74.2039C147.956 72.1928 144.685 69.4082 138.525 69.4082C128.181 69.4082 120.956 78.071 120.956 88.2037C120.956 98.8777 128.486 106.922 138.525 106.922C144 106.922 147.271 104.679 148.64 102.59V104.369C148.64 111.331 145.065 114.193 139.285 114.193C134.95 114.193 131.908 111.485 131.148 107.773L120.956 110.712ZM140.654 96.7122C136.015 96.7122 132.516 93.4633 132.516 88.2037C132.516 82.9441 136.319 79.6957 140.654 79.6957C144.989 79.6957 148.716 82.9441 148.716 88.2037C148.716 93.4633 145.37 96.7122 140.654 96.7122Z" fill="#0556F3"/>
<path d="M193.848 70.1052C193.087 69.8735 191.946 69.7188 190.806 69.7188C187.763 69.7188 182.972 70.956 180.995 75.2879V70.1052H169.815V108.547H181.375V91.7627C181.375 84.1055 185.558 81.3209 190.197 81.3209C191.338 81.3209 192.555 81.3983 193.848 81.7074V70.1052Z" fill="#0556F3"/>
<path d="M198.875 97.9504C198.875 104.061 203.667 109.63 211.957 109.63C216.976 109.63 220.627 107.465 222.604 104.216C222.604 106.845 222.908 108.238 222.984 108.547H233.404C233.327 108.161 232.947 105.608 232.947 102.591V83.7959C232.947 75.9065 228.46 68.9453 216.215 68.9453C205.112 68.9453 200.092 76.2161 199.636 81.7074L209.675 83.7959C209.903 80.9339 212.109 78.1494 216.14 78.1494C219.79 78.1494 221.691 80.0831 221.691 82.3264C221.691 83.6411 221.007 84.6467 218.953 84.9562L210.055 86.3483C203.819 87.2765 198.875 91.144 198.875 97.9504ZM214.77 101.122C211.576 101.122 210.283 99.1882 210.283 97.177C210.283 94.4698 212.109 93.31 214.542 92.923L221.691 91.7627V93.4643C221.691 99.4203 218.193 101.122 214.77 101.122Z" fill="#0556F3"/>
<path d="M254.234 108.547V86.4257C254.234 82.9451 256.44 79.774 260.471 79.774C264.654 79.774 266.555 82.6355 266.555 86.2709V108.547H277.963V86.3483C277.963 82.9451 280.169 79.774 284.275 79.774C288.382 79.774 290.284 82.6355 290.284 86.2709V108.547H301.463V83.6411C301.463 73.1993 294.619 68.9453 287.47 68.9453C282.374 68.9453 278.724 70.6469 275.758 74.9783C273.856 71.1882 269.978 68.9453 264.578 68.9453C260.471 68.9453 255.603 71.1108 253.702 74.514V70.1052H242.674V108.547H254.234Z" fill="#0556F3"/>
<path d="M369.743 108.546V98.4131H352.022L369.438 79.7724V70.1035H338.484V80.1588H354.684L338.028 98.1809V108.546H369.743Z" fill="#0556F3"/>
<path d="M325.19 108.466H311.898L315.809 83.2642H311.898V69.2188H329.077V83.2642L325.19 108.466Z" fill="#065AFF"/>
<path d="M329.077 43.8438H311.898V60.4621H329.077V43.8438Z" fill="#065AFF"/>
</g>
<defs>
<linearGradient id="paint0_linear_2228_321" x1="13.7455" y1="101.745" x2="13.7455" y2="67.0463" gradientUnits="userSpaceOnUse">
<stop stop-color="#00A3FF"/>
<stop offset="1" stop-color="#0597EA"/>
</linearGradient>
<linearGradient id="paint1_linear_2228_321" x1="13.7455" y1="68.1623" x2="13.7455" y2="50.6041" gradientUnits="userSpaceOnUse">
<stop stop-color="#00A3FF"/>
<stop offset="1" stop-color="#0597EA"/>
</linearGradient>
<linearGradient id="paint2_linear_2228_321" x1="21.0906" y1="61.8691" x2="63.098" y2="38.5137" gradientUnits="userSpaceOnUse">
<stop stop-color="#6501E5"/>
<stop offset="1" stop-color="#5F01D8"/>
</linearGradient>
<clipPath id="clip0_2228_321">
<rect width="370" height="124" fill="white" transform="translate(0 0.46875)"/>
</clipPath>
</defs>
</svg>
