<svg width="347" height="72" viewBox="0 0 347 72" fill="none" xmlns="http://www.w3.org/2000/svg">
<g clip-path="url(#clip0_2064_7670)">
<path d="M8.3683 28.0708C8.3683 25.8657 6.58736 24.0781 4.39045 24.0781C2.19354 24.0781 0.412598 25.8657 0.412598 28.0708V44.3317C0.412598 46.5368 2.19354 48.3244 4.39045 48.3244C6.58736 48.3244 8.3683 46.5368 8.3683 44.3317V28.0708Z" fill="#FCF7FF"/>
<path d="M41.0333 14.4829C41.0333 12.2778 39.2524 10.4902 37.0555 10.4902C34.8586 10.4902 33.0776 12.2778 33.0776 14.4829V30.7438C33.0776 32.9489 34.8586 34.7365 37.0555 34.7365C39.2524 34.7365 41.0333 32.9489 41.0333 30.7438V14.4829Z" fill="#FCF7FF"/>
<path d="M73.6849 40.979C73.6849 38.7739 71.904 36.9863 69.7071 36.9863C67.5102 36.9863 65.7292 38.7739 65.7292 40.979V58.2513C65.7292 60.4563 67.5102 62.2439 69.7071 62.2439C71.904 62.2439 73.6849 60.4563 73.6849 58.2513V40.979Z" fill="#FCF7FF"/>
<path d="M24.7025 22.4524C24.7025 20.4368 23.0745 18.8027 21.0663 18.8027C19.0581 18.8027 17.4302 20.4368 17.4302 22.4524V49.9526C17.4302 51.9683 19.0581 53.6023 21.0663 53.6023C23.0745 53.6023 24.7025 51.9683 24.7025 49.9526V22.4524Z" fill="#FCF7FF"/>
<path d="M98.317 44.3413C98.317 46.5464 100.098 48.334 102.295 48.334C104.492 48.334 106.273 46.5464 106.273 44.3413V28.0804C106.273 25.8753 104.492 24.0877 102.295 24.0877C100.098 24.0877 98.317 25.8753 98.317 28.0804V44.3413Z" fill="#FCF7FF"/>
<path d="M57.3562 59.8814C57.3562 60.8927 57.2335 61.8689 56.9969 62.8099C53.2644 76.6963 33.2087 74.1899 33.1211 59.6615C33.1123 59.6439 33.1123 59.6263 33.1211 59.6087C33.1123 59.4856 33.1123 59.3713 33.1123 59.2482V46.9711C33.1123 45.863 33.5592 44.8693 34.2776 44.1481C36.5119 41.8088 40.6825 43.2247 41.033 46.4435V59.4065C41.033 61.6578 42.8467 63.4871 45.0984 63.4871C47.3502 63.4871 49.1639 61.6578 49.1639 59.4065V48.3783L49.4092 12.1716C49.4092 11.5999 49.4443 11.0371 49.5231 10.4918C50.338 4.5644 55.4023 8.748e-05 61.5355 8.748e-05C68.4574 -0.0262958 74.0561 5.91874 73.6268 12.8575C73.6706 13.1654 73.6881 13.4819 73.6881 13.7985V26.0756C73.6881 28.283 71.9095 30.0682 69.7191 30.0682C67.5286 30.0682 65.5923 28.2918 65.5923 26.0844V23.6307L65.5835 12.9279C65.5835 10.6677 63.7523 8.84729 61.5093 8.84729C59.2662 8.84729 57.4438 10.6765 57.4438 12.9279V23.6219L57.3562 59.8814Z" fill="#FCF7FF"/>
<path d="M81.9838 49.9616C81.9838 51.9773 83.6118 53.6113 85.62 53.6113C87.6281 53.6113 89.2561 51.9773 89.2561 49.9616V22.4615C89.2561 20.4458 87.6281 18.8118 85.62 18.8118C83.6118 18.8118 81.9838 20.4458 81.9838 22.4615V49.9616Z" fill="#FCF7FF"/>
<path d="M123.714 19.2383V25.6054H134.658V52.7539H142.237V25.6054H153.408V19.2383H123.714Z" fill="#FCF7FF"/>
<path d="M156.808 27.3505V52.7576H164.334V27.3505H156.808ZM160.83 16.3047C158.183 16.3047 156.457 18.0988 156.51 20.482C156.457 22.7598 158.183 24.6066 160.777 24.6066C163.37 24.6066 165.21 22.7598 165.21 20.482C165.158 18.0988 163.484 16.3047 160.83 16.3047Z" fill="#FCF7FF"/>
<path d="M186.897 26.2324C184.707 26.2324 182.946 26.8744 181.588 27.7187C180.23 28.5629 179.292 29.6183 178.749 30.4625V27.3493H171.301V53.3193H179.502V38.0433C179.502 37.287 179.616 36.4691 179.826 35.9854C180.37 34.464 181.719 32.8986 183.988 32.8986C186.95 32.8986 188.141 35.2291 188.141 38.6414V53.3193H196.342V37.6124C196.342 29.8118 192.295 26.2324 186.897 26.2324Z" fill="#FCF7FF"/>
<path d="M227.501 26.8129H220.623L220.57 29.8733H220.465C219.151 27.7627 216.943 26.2324 213.42 26.2324C207.121 26.2324 201.758 31.5091 201.758 39.7846C201.758 47.2247 206.279 52.3871 212.632 52.3871C215.576 52.3871 218.047 51.1734 219.571 49.01H219.676V50.6985C219.676 55.4475 216.785 57.5054 213 57.5054C210.617 57.5054 208.452 55.7289 208.452 54.3394L200.996 54.2251C200.996 56.5644 203.397 63.6175 213.21 63.6175C216.995 63.6175 220.833 62.8876 223.672 60.4603C226.554 57.8748 227.553 53.8118 227.553 48.8605V34.464C227.553 30.612 227.395 28.4486 227.501 26.8129ZM214.13 46.8026C211.02 46.8026 208.505 43.4871 208.505 39.3889C208.505 35.2907 211.028 31.984 214.13 31.984C217.232 31.984 219.755 35.2995 219.755 39.3889C219.755 43.4783 217.232 46.8026 214.13 46.8026Z" fill="#FCF7FF"/>
<path d="M242.171 19.2383V25.6054H253.114V52.7539H260.693V25.6054H271.865V19.2383H242.171Z" fill="#FCF7FF"/>
<path d="M275.265 27.3505V52.7576H282.792V27.3505H275.265ZM279.287 16.3047C276.641 16.3047 274.915 18.0988 274.967 20.482C274.915 22.7598 276.641 24.6066 279.234 24.6066C281.828 24.6066 283.668 22.7598 283.668 20.482C283.615 18.0988 281.942 16.3047 279.287 16.3047Z" fill="#FCF7FF"/>
<path d="M305.354 26.2324C303.164 26.2324 301.403 26.8744 300.045 27.7187C298.687 28.5629 297.749 29.6183 297.206 30.4625V27.3493H289.758V53.3193H297.959V38.0433C297.959 37.287 298.073 36.4691 298.284 35.9854C298.827 34.464 300.176 32.8986 302.445 32.8986C305.407 32.8986 306.598 35.2291 306.598 38.6414V53.3193H314.799V37.6124C314.799 29.8118 310.752 26.2324 305.354 26.2324Z" fill="#FCF7FF"/>
<path d="M345.964 26.8129H339.086L339.033 29.8733H338.928C337.614 27.7627 335.406 26.2324 331.884 26.2324C325.584 26.2324 320.222 31.5091 320.222 39.7846C320.222 47.2247 324.743 52.3871 331.095 52.3871C334.039 52.3871 336.51 51.1734 338.034 49.01H338.14V50.6985C338.14 55.4475 335.248 57.5054 331.463 57.5054C329.08 57.5054 326.916 55.7289 326.916 54.3394L319.459 54.2251C319.459 56.5644 321.86 63.6175 331.673 63.6175C335.459 63.6175 339.296 62.8876 342.135 60.4603C345.018 57.8748 346.016 53.8118 346.016 48.8605V34.464C346.016 30.612 345.859 28.4486 345.964 26.8129ZM332.593 46.8026C329.483 46.8026 326.968 43.4871 326.968 39.3889C326.968 35.2907 329.492 31.984 332.593 31.984C335.695 31.984 338.218 35.2995 338.218 39.3889C338.218 43.4783 335.695 46.8026 332.593 46.8026Z" fill="#FCF7FF"/>
</g>
<defs>
<clipPath id="clip0_2064_7670">
<rect width="345.6" height="72" fill="white" transform="translate(0.414062)"/>
</clipPath>
</defs>
</svg>
