<svg width="470" height="103" viewBox="0 0 470 103" fill="none" xmlns="http://www.w3.org/2000/svg">
<g clip-path="url(#clip0_1962_321)">
<path fill-rule="evenodd" clip-rule="evenodd" d="M161.997 16.6875V38.9523C161.997 46.8413 155.573 53.2647 147.684 53.2647C139.795 53.2647 133.372 46.8413 133.372 38.9523V16.6875H125.419V38.9523C125.419 51.2276 135.409 61.2171 147.684 61.2171C159.96 61.2171 169.949 51.2276 169.949 38.9523V16.6875H161.997ZM210.114 53.2012C207.315 52.8202 205.087 50.5927 204.706 47.7937V16.6875H196.754V47.0318C196.754 49.2593 197.262 51.3599 198.214 53.2647C199.553 56.0636 201.838 58.3547 204.637 59.7515C206.547 60.7039 208.643 61.2171 210.87 61.2171H233.452V53.2647L210.108 53.2012H210.114ZM248.373 16.6875V24.64H266.633V61.2171H274.585V24.64H292.845V16.6875H248.379H248.373ZM327.665 61.2171V16.6875H319.713V61.2171H327.665ZM391.052 22.7934L376.74 33.7988L362.428 22.7934L354.475 16.6875V61.2171H362.428V32.8464L370.253 38.8253L376.74 43.8518L383.227 38.8253L391.052 32.8464V61.2171H399.005V16.6875L391.052 22.7934ZM464.683 53.2647L446.042 16.6875L427.402 53.2647L423.333 61.2171H432.238L436.307 53.2647L446.042 34.1798L455.773 53.2647L459.847 61.2171H468.752L464.683 53.2647Z" fill="white"/>
<path fill-rule="evenodd" clip-rule="evenodd" d="M130.07 94.055C129.202 93.9386 128.515 93.2454 128.393 92.3777V82.7374H125.927V92.1396C125.927 92.8275 126.086 93.4783 126.382 94.0709C126.795 94.9386 127.504 95.6476 128.372 96.0815C128.964 96.3778 129.615 96.5365 130.303 96.5365H137.303V94.0709L130.07 94.0497V94.055ZM169.584 96.5365V82.7374H167.118V96.5365H169.584ZM203.124 82.7374C201.076 82.7374 199.42 84.4147 199.42 86.4623V96.5365H201.865V90.2084H210.754V87.7427H201.881V86.4623C201.881 85.7745 202.452 85.203 203.145 85.203H213.219V82.7374H203.124ZM246.738 85.203H256.812V82.7374H246.738C244.691 82.7374 243.034 84.4147 243.034 86.4623V92.8116C243.034 94.8592 244.691 96.5365 246.738 96.5365H256.812V94.0709H246.738C246.05 94.0709 245.479 93.4994 245.479 92.8116V90.2084H254.352V87.7427H245.479V86.4623C245.479 85.7745 246.05 85.203 246.738 85.203ZM299.675 86.5417V86.4623C299.675 84.4147 297.998 82.7374 295.95 82.7374H290.352C288.305 82.7374 286.649 84.4147 286.649 86.4623V86.5417C286.649 87.33 286.887 88.0602 287.3 88.6528C287.437 88.8697 287.596 89.0655 287.77 89.2454C288.442 89.8962 289.347 90.293 290.352 90.293H295.321C296.368 90.293 297.236 91.1396 297.236 92.1872C297.236 93.2349 296.368 94.0814 295.321 94.0814H291.003C289.961 94.0814 289.109 93.2349 289.109 92.1872H286.643C286.643 94.5947 288.596 96.5418 290.998 96.5418H295.316C297.723 96.5418 299.675 94.5894 299.675 92.1872C299.675 91.1449 299.3 90.1766 298.691 89.4253C298.633 89.3671 298.591 89.3089 298.532 89.2454C297.744 88.3777 296.601 87.8274 295.321 87.8274H290.352C289.665 87.8274 289.093 87.256 289.093 86.5681V86.4888C289.093 85.8009 289.665 85.2295 290.352 85.2295H295.95C296.638 85.2295 297.215 85.8009 297.215 86.4888V86.5681L299.681 86.547L299.675 86.5417ZM328.84 82.7374V85.203H334.496V96.5365H336.962V85.203H342.618V82.7374H328.84ZM382.369 82.7162L378.586 87.6263L374.803 82.7162H371.687L377.031 89.6369L377.364 90.0496V96.5153H379.83V90.0073L380.126 89.6316L385.47 82.7109H382.375L382.369 82.7162ZM371.666 96.5735L371.703 96.5365H371.666V96.5735ZM385.465 96.5735V96.5365H385.444L385.465 96.5735ZM418.65 94.0497C417.783 93.9333 417.095 93.2402 416.973 92.3724V82.7321H414.507V92.1343C414.507 92.8222 414.666 93.473 414.962 94.0656C415.375 94.9333 416.084 95.6423 416.952 96.0762C417.544 96.3725 418.195 96.5312 418.883 96.5312H425.883V94.0656L418.65 94.0444V94.0497ZM459.423 85.1977H469.497V82.7321H459.423C457.376 82.7321 455.72 84.4094 455.72 86.457V92.8063C455.72 94.8539 457.376 96.5312 459.423 96.5312H469.497V94.0656H459.423C458.735 94.0656 458.164 93.4941 458.164 92.8063V90.2031H467.037V87.7375H458.164V86.457C458.164 85.7692 458.735 85.1977 459.423 85.1977Z" fill="white"/>
<mask id="mask0_1962_321" style="mask-type:luminance" maskUnits="userSpaceOnUse" x="4" y="-1" width="98" height="104">
<path d="M7.25404 13.7938C7.25404 13.7938 8.23818 -2.46036 21.577 0.317454C21.577 0.317454 57.7996 1.92065 90.8794 34.0321C99.361 42.2598 107.107 52.2493 97.0011 63.7944C77.3924 84.3767 51.5138 98.689 23.3548 101.753C18.8256 102.245 15.1324 103.149 11.8044 99.2287C-0.518538 84.71 6.04768 22.0902 7.25404 13.7938Z" fill="white"/>
</mask>
<g mask="url(#mask0_1962_321)">
<path d="M66.5831 3.80469H32.3711V6.84176H66.5831V3.80469Z" fill="white"/>
<path d="M118.689 8.86719H84.3608V11.9043H118.689V8.86719Z" fill="white"/>
<path d="M66.5831 8.86719H32.3711V11.9043H66.5831V8.86719Z" fill="white"/>
<path d="M14.5928 8.86719H0V11.9043H14.5928V8.86719Z" fill="white"/>
<path d="M118.689 14.5703H84.3608V17.6074H118.689V14.5703Z" fill="white"/>
<path d="M66.583 14.5703H36.9795V17.6074H66.583V14.5703Z" fill="white"/>
<path d="M14.5928 14.5703H0V17.6074H14.5928V14.5703Z" fill="white"/>
<path d="M118.689 20.2812H84.3608V23.3183H118.689V20.2812Z" fill="white"/>
<path d="M55.1227 20.2812H33.4928C32.8733 20.2812 32.3711 20.7835 32.3711 21.403V22.1966C32.3711 22.8161 32.8733 23.3183 33.4928 23.3183H55.1227C55.7422 23.3183 56.2444 22.8161 56.2444 22.1966V21.403C56.2444 20.7835 55.7422 20.2812 55.1227 20.2812Z" fill="white"/>
<path d="M14.5928 20.2812H0V23.3183H14.5928V20.2812Z" fill="white"/>
<path d="M118.689 25.9902H84.3608V29.0273H118.689V25.9902Z" fill="white"/>
<path d="M49.99 25.9902H36.7623C36.1428 25.9902 35.6406 26.4924 35.6406 27.1119V27.9056C35.6406 28.5251 36.1428 29.0273 36.7623 29.0273H49.99C50.6095 29.0273 51.1117 28.5251 51.1117 27.9056V27.1119C51.1117 26.4924 50.6095 25.9902 49.99 25.9902Z" fill="white"/>
<path d="M14.5928 25.9902H0V29.0273H14.5928V25.9902Z" fill="white"/>
<path d="M118.689 31.6934H84.3608V34.7304H118.689V31.6934Z" fill="white"/>
<path d="M33.4928 31.6934H45.2125C45.8316 31.6934 46.3342 32.196 46.3342 32.8151V33.6087C46.3342 34.2278 45.8316 34.7304 45.2125 34.7304H33.4928C32.8737 34.7304 32.3711 34.2278 32.3711 33.6087V32.8151C32.3711 32.196 32.8737 31.6934 33.4928 31.6934Z" fill="white"/>
<path d="M14.5928 31.6934H0V34.7304H14.5928V31.6934Z" fill="white"/>
<path d="M118.689 37.4023H84.3608V40.4394H118.689V37.4023Z" fill="white"/>
<path d="M66.5831 36.957H32.3711V39.9941H66.5831V36.957Z" fill="white"/>
<path d="M14.5928 37.4023H0V40.4394H14.5928V37.4023Z" fill="white"/>
<path d="M118.689 43.1113H84.3608V46.1484H118.689V43.1113Z" fill="white"/>
<path d="M59.9534 42.5566H32.3711V45.5937H59.9534V42.5566Z" fill="white"/>
<path d="M14.5928 43.1113H0V46.1484H14.5928V43.1113Z" fill="white"/>
<path fill-rule="evenodd" clip-rule="evenodd" d="M84.3605 48.8145H118.689V51.8515H84.3394C84.3499 50.8674 84.3552 49.8568 84.3605 48.8145Z" fill="white"/>
<path fill-rule="evenodd" clip-rule="evenodd" d="M33.4928 47.6992H48.3554C48.9745 47.6992 49.4771 48.2019 49.4771 48.8209V49.6146C49.4771 50.2283 48.9745 50.731 48.3554 50.731H33.4928C32.8737 50.731 32.3764 50.2283 32.3711 49.6146V48.8209C32.3711 48.5087 32.4769 48.2442 32.6991 48.0273C32.9161 47.8103 33.1859 47.6992 33.4928 47.6992Z" fill="white"/>
<path fill-rule="evenodd" clip-rule="evenodd" d="M0 48.8145H14.5928C14.5928 49.8515 14.5981 50.8621 14.6086 51.8515H0V48.8145Z" fill="white"/>
<path fill-rule="evenodd" clip-rule="evenodd" d="M84.3025 54.5234H118.694V57.5605H84.2231C84.2549 56.587 84.2814 55.5764 84.3025 54.5234Z" fill="white"/>
<path fill-rule="evenodd" clip-rule="evenodd" d="M33.5456 53.4023H54.0062C54.3183 53.4023 54.5829 53.5135 54.8051 53.7357C55.0221 53.9579 55.1332 54.2278 55.1279 54.5399C55.1279 54.8098 55.1226 55.0743 55.1173 55.3389C55.1067 55.9473 54.6094 56.4394 53.9956 56.4394H33.5615C32.953 56.4394 32.4504 55.9473 32.4398 55.3389C32.4398 55.0796 32.4345 54.8151 32.4292 54.5399C32.4292 54.2278 32.535 53.9579 32.752 53.7357C32.9689 53.5135 33.2387 53.4023 33.5509 53.4023H33.5456Z" fill="white"/>
<path fill-rule="evenodd" clip-rule="evenodd" d="M0 54.5234H14.6563C14.6827 55.5658 14.7145 56.5764 14.7515 57.5605H0V54.5234Z" fill="white"/>
<path fill-rule="evenodd" clip-rule="evenodd" d="M84.1176 60.2344H118.695V63.2715H83.9482C84.0117 62.3085 84.0699 61.2979 84.1228 60.2344H84.1176Z" fill="white"/>
<path fill-rule="evenodd" clip-rule="evenodd" d="M32.5824 59.1113H66.3765C66.3183 60.2172 66.2495 61.2278 66.1701 62.1484H32.7941C32.7094 61.3018 32.6406 60.2912 32.5771 59.1113H32.5824Z" fill="white"/>
<path fill-rule="evenodd" clip-rule="evenodd" d="M0 60.2344H14.8785C14.9367 61.2873 15.0055 62.2979 15.0848 63.2715H0V60.2344Z" fill="white"/>
<path fill-rule="evenodd" clip-rule="evenodd" d="M83.7311 65.9375H118.695V68.9746H83.3872C83.5142 68.0486 83.6306 67.0328 83.7311 65.9375Z" fill="white"/>
<path fill-rule="evenodd" clip-rule="evenodd" d="M33.2383 64.8217H49.9157C50.2491 64.8217 50.5348 64.9487 50.757 65.1974C50.9739 65.446 51.0692 65.7476 51.0269 66.0757C50.9898 66.3561 50.9528 66.6365 50.9105 66.9117C50.8205 67.4566 50.3602 67.8535 49.8046 67.8535H33.8256C33.5822 66.9064 33.3864 65.8958 33.2383 64.8164V64.8217Z" fill="white"/>
<path fill-rule="evenodd" clip-rule="evenodd" d="M0 65.9375H15.3388C15.4552 67.0063 15.5822 68.0169 15.7251 68.9746H0V65.9375Z" fill="white"/>
<path fill-rule="evenodd" clip-rule="evenodd" d="M82.9375 71.6465H118.694V74.6836H82.1597C82.4613 73.71 82.7205 72.6994 82.9375 71.6518V71.6465Z" fill="white"/>
<path fill-rule="evenodd" clip-rule="evenodd" d="M35.9209 70.5234H63.7202C63.0482 71.5076 62.2228 72.4176 61.2545 73.2589C61.1381 73.3595 61.0164 73.4653 60.8895 73.5605H39.0373C38.8151 73.4018 38.5982 73.2325 38.3865 73.0632C37.45 72.3012 36.6299 71.4547 35.9262 70.5234H35.9209Z" fill="white"/>
<path fill-rule="evenodd" clip-rule="evenodd" d="M0 71.6465H16.1801L16.3282 72.3449C16.5028 73.1333 16.7145 73.9111 16.9685 74.6836H0V71.6465Z" fill="white"/>
<path fill-rule="evenodd" clip-rule="evenodd" d="M81.1862 77.3555H118.689V80.3925H79.6782C80.2391 79.4296 80.7417 78.419 81.1862 77.3555Z" fill="white"/>
<path fill-rule="evenodd" clip-rule="evenodd" d="M40.8945 75.5938L59.2545 75.6837C57.2175 78.853 42.8416 78.9642 40.8945 75.5938Z" fill="white"/>
<path fill-rule="evenodd" clip-rule="evenodd" d="M0 77.3555H18.0267C18.5029 78.3819 19.0531 79.3925 19.6828 80.3925H0V77.3555Z" fill="white"/>
<path fill-rule="evenodd" clip-rule="evenodd" d="M77.8687 83.0586H118.689V86.0957H75.0327C75.9851 85.2438 76.8476 84.3285 77.6359 83.3496L77.8634 83.0586H77.8687Z" fill="white"/>
<path fill-rule="evenodd" clip-rule="evenodd" d="M0 83.0586H21.577C22.4394 84.138 23.3971 85.1539 24.4606 86.0957H0V83.0586Z" fill="white"/>
<path fill-rule="evenodd" clip-rule="evenodd" d="M71.477 88.7676H118.694V91.8046H65.0801C65.8737 91.5401 66.6357 91.2491 67.3605 90.9316C68.8367 90.2861 70.2071 89.5612 71.477 88.7676Z" fill="white"/>
<path fill-rule="evenodd" clip-rule="evenodd" d="M0 88.7676H28.0162C29.1062 89.4607 30.2702 90.1009 31.5136 90.6935C32.376 91.1062 33.3179 91.4766 34.339 91.8046H0V88.7676Z" fill="white"/>
<path d="M20.9103 94.4766H0V97.5136H20.9103V94.4766Z" fill="white"/>
<path d="M118.695 99.8105H0V102.848H118.695V99.8105Z" fill="white"/>
<path d="M14.5928 3.80469H0V6.84176H14.5928V3.80469Z" fill="white"/>
<path d="M65.7786 25.9902H56.7521C56.1326 25.9902 55.6304 26.4924 55.6304 27.1119V27.9056C55.6304 28.5251 56.1326 29.0273 56.7521 29.0273H65.7786C66.3981 29.0273 66.9003 28.5251 66.9003 27.9056V27.1119C66.9003 26.4924 66.3981 25.9902 65.7786 25.9902Z" fill="white"/>
<path fill-rule="evenodd" clip-rule="evenodd" d="M54.0641 31.6934H66.9055V34.7304H54.0641C53.445 34.7304 52.9424 34.2278 52.9424 33.6087V32.8151C52.9424 32.196 53.445 31.6934 54.0641 31.6934Z" fill="white"/>
<path d="M65.7838 20.2812H62.7467C62.1272 20.2812 61.625 20.7835 61.625 21.403V22.1966C61.625 22.8161 62.1272 23.3183 62.7467 23.3183H65.7838C66.4033 23.3183 66.9055 22.8161 66.9055 22.1966V21.403C66.9055 20.7835 66.4033 20.2812 65.7838 20.2812Z" fill="white"/>
<path fill-rule="evenodd" clip-rule="evenodd" d="M65.461 53.4023H61.1329C60.8261 53.4023 60.5562 53.5135 60.3393 53.7304C60.1223 53.9473 60.0112 54.2172 60.0112 54.5241C60.0112 54.7939 60.0112 55.0584 60.0112 55.3177C60.0112 55.9315 60.5192 56.4341 61.1329 56.4341H65.4557C66.0695 56.4341 66.5722 55.9368 66.5774 55.3177C66.5774 55.0584 66.5774 54.7939 66.5774 54.5241C66.5774 54.2172 66.4663 53.9473 66.2494 53.7304C66.0325 53.5135 65.7626 53.4023 65.4557 53.4023H65.461Z" fill="white"/>
<path fill-rule="evenodd" clip-rule="evenodd" d="M55.6091 47.6992H65.4664C66.0854 47.6992 66.5881 48.2019 66.5881 48.8209V49.6146C66.5881 50.2283 66.0854 50.731 65.4664 50.731H55.6144C55.0006 50.731 54.498 50.2283 54.4927 49.6146V48.8209C54.4927 48.2019 54.9953 47.6992 55.6144 47.6992H55.6091Z" fill="white"/>
<path d="M66.5883 42.5566H64.7734V45.5937H66.5883V42.5566Z" fill="white"/>
<path fill-rule="evenodd" clip-rule="evenodd" d="M65.4559 64.8203H56.5404C56.2283 64.8203 55.9637 64.9314 55.7468 65.1484C55.5298 65.3706 55.4187 65.6351 55.424 65.9473C55.424 66.2172 55.424 66.4817 55.4293 66.741C55.4293 67.3547 55.9372 67.8521 56.551 67.8521H65.4559C66.0696 67.8521 66.5723 67.3547 66.5776 66.741C66.5776 66.4817 66.5776 66.2172 66.5829 65.9473C66.5829 65.6351 66.4771 65.3706 66.2548 65.1484C66.0379 64.9314 65.768 64.8203 65.4612 64.8203H65.4559Z" fill="white"/>
<path d="M66.6729 94.4766H24.6406V97.5136H66.6729V94.4766Z" fill="white"/>
</g>
</g>
<defs>
<clipPath id="clip0_1962_321">
<rect width="469.503" height="102.848" fill="white"/>
</clipPath>
</defs>
</svg>
